<svg xmlns="http://www.w3.org/2000/svg" width="70.65" height="70.59" viewBox="0 0 70.65 70.59"><title>arrow_left</title><g id="圖層_2" data-name="圖層 2"><g id="gashapon_machine" data-name="gashapon machine"><g id="_7" data-name="7"><path d="M33.22,70.59a.72.72,0,0,0,.54-.25c.15-.18.24-.25.33-.25s.12,0,.27.2a.7.7,0,0,0,.55.25.68.68,0,0,0,.36-.1.53.53,0,0,1,.23-.08.59.59,0,0,1,.29.1.65.65,0,0,0,.36.1.69.69,0,0,0,.48-.2c.13-.12.21-.17.29-.17l.34,0a2.63,2.63,0,0,1,.36,0h0a.85.85,0,0,1,.36.14.73.73,0,0,0,.41.12.75.75,0,0,0,.26,0l.05,0a1.18,1.18,0,0,1,.34-.1,3.43,3.43,0,0,0,.34-.06,3,3,0,0,1,.37-.07.27.27,0,0,0,.12,0,.6.6,0,0,0,.19-.08,1.32,1.32,0,0,1,.37-.14h.07a1,1,0,0,1,.29,0l.13,0h.14a.64.64,0,0,0,.31-.07l.11-.06a1.07,1.07,0,0,1,.35-.16c.11,0,.23,0,.35,0a1.94,1.94,0,0,0,.36,0h.05a.51.51,0,0,1,.24.08.79.79,0,0,0,.32.08.69.69,0,0,0,.54-.26.55.55,0,0,1,.24-.18l.32-.06.38-.08.29-.06.35-.09a.55.55,0,0,0,.24-.12l.11-.08a.88.88,0,0,1,.32-.22l.37-.12.3-.1h.06a.29.29,0,0,1,.17.06.8.8,0,0,0,.33.08.78.78,0,0,0,.21,0,.73.73,0,0,0,.42-.35c.07-.15.12-.17.15-.18l.29-.09.38-.13h.07a.71.71,0,0,1,.3.09.63.63,0,0,0,.3.07.74.74,0,0,0,.52-.22.64.64,0,0,1,.23-.19,1.43,1.43,0,0,1,.34-.09l.24-.06a.77.77,0,0,0,.31-.19L51,67a.76.76,0,0,1,.28-.26,1.33,1.33,0,0,1,.34-.1,1.44,1.44,0,0,0,.35-.11.62.62,0,0,1,.27,0h.2a.66.66,0,0,0,.44-.17l.13-.11a1.93,1.93,0,0,1,.28-.22l.3-.15.35-.17.28-.15.22-.11a.69.69,0,0,0,.32-.37c.08-.2.13-.32.22-.38a2.83,2.83,0,0,0,.28-.2l.29-.23a1.64,1.64,0,0,0,.25-.21,2.6,2.6,0,0,1,.29-.24,2.29,2.29,0,0,1,.31-.16,1.45,1.45,0,0,0,.33-.16.63.63,0,0,1,.35-.07.73.73,0,0,0,.66-.41,1.11,1.11,0,0,1,.18-.29.62.62,0,0,0,.16-.2l0-.12a.81.81,0,0,1,.2-.33s.06-.06.2-.06h.16a.71.71,0,0,0,.69-.56.4.4,0,0,1,.1-.23l.26-.22a2.64,2.64,0,0,0,.29-.24.84.84,0,0,1,.34-.17.8.8,0,0,0,.5-.45l0,0a1.05,1.05,0,0,1,.15-.32.72.72,0,0,0,.12-.21.57.57,0,0,0,0-.14.83.83,0,0,1,.16-.34c.06-.07.16-.09.38-.1a.71.71,0,0,0,.66-.49.64.64,0,0,1,.13-.29A1.9,1.9,0,0,1,62.8,58a1.73,1.73,0,0,0,.28-.26,1.51,1.51,0,0,1,.26-.24,1.26,1.26,0,0,0,.26-.24,1.45,1.45,0,0,0,.18-.35,2.16,2.16,0,0,1,.1-.25.68.68,0,0,0,.09-.44c0-.24,0-.37,0-.46s.14-.11.37-.14A.7.7,0,0,0,65,55a1,1,0,0,1,.1-.31,1.4,1.4,0,0,0,.15-.3,3,3,0,0,1,.16-.35,1.23,1.23,0,0,1,.25-.26.88.88,0,0,0,.2-.19.44.44,0,0,0,.08-.11,2.85,2.85,0,0,1,.17-.26,2.13,2.13,0,0,0,.21-.31l.19-.29.05-.08a.7.7,0,0,0,.07-.67c-.09-.21-.14-.35-.09-.45s.17-.16.33-.24a.81.81,0,0,0,.38-.3l.17-.23a.91.91,0,0,0,.19-.25l0-.05a3.62,3.62,0,0,0,.13-.35l.09-.23a.7.7,0,0,0,0-.43V49.3a.64.64,0,0,1,0-.4,2.33,2.33,0,0,1,.11-.28,3.73,3.73,0,0,0,.15-.38.93.93,0,0,1,.24-.29l.08-.07a.75.75,0,0,0,.2-.37c0-.06,0-.15,0-.23a2.19,2.19,0,0,1,.05-.31.57.57,0,0,0,0-.29.52.52,0,0,0,0-.11.88.88,0,0,1,0-.39,1.59,1.59,0,0,1,.16-.32l.08-.13a.67.67,0,0,0,.08-.5.14.14,0,0,0,0-.06.89.89,0,0,1,0-.39,1,1,0,0,1,.17-.32,1.1,1.1,0,0,0,.13-.23.44.44,0,0,0,0-.15,1.73,1.73,0,0,0,0-.27v-.05c0-.11,0-.23,0-.34s0-.11.18-.2a.69.69,0,0,0,.22-.94c-.08-.14-.08-.2-.07-.25s.11-.2.23-.32a.75.75,0,0,0,.26-.54v-.12a2.52,2.52,0,0,1,0-.39c0-.11,0-.22.07-.33a3.26,3.26,0,0,0,.06-.38c0-.11,0-.23,0-.35s0-.25,0-.36a1.93,1.93,0,0,0,0-.34c0-.15,0-.27,0-.38a.86.86,0,0,1,.14-.35.64.64,0,0,0,.06-.11.75.75,0,0,0,.06-.47l0-.12a1,1,0,0,1-.07-.38,1.34,1.34,0,0,1,0-.35,2.93,2.93,0,0,0,0-.37v-.72a1.12,1.12,0,0,0-.06-.35,1.72,1.72,0,0,1-.07-.37v-.29c0-.14,0-.28,0-.42a1.08,1.08,0,0,1,.1-.37l.06-.14a.67.67,0,0,0,0-.28l0-.34,0-.1a.71.71,0,0,0-.34-.54c-.22-.13-.37-.23-.38-.34a2,2,0,0,1,0-.35,1.64,1.64,0,0,0,0-.37.71.71,0,0,1,.14-.38l0-.06a.7.7,0,0,0,.09-.4,2.42,2.42,0,0,1,0-.27c0-.08,0-.13,0-.17a.7.7,0,0,0-.2-.49l0,0a.71.71,0,0,1-.22-.32,1.52,1.52,0,0,0-.12-.36,1.24,1.24,0,0,1-.12-.32.69.69,0,0,1,.14-.4.82.82,0,0,0,.11-.57l-.12-.46a.73.73,0,0,0-.17-.31l-.06-.07a.75.75,0,0,1-.24-.31.41.41,0,0,1,0-.24.71.71,0,0,0-.41-.85c-.22-.09-.26-.15-.28-.2a.92.92,0,0,1,0-.37,1,1,0,0,0,0-.25.68.68,0,0,0-.15-.37l0-.07a1.54,1.54,0,0,1-.17-.31c0-.06,0-.14.06-.32a.72.72,0,0,0-.24-.86.47.47,0,0,1-.2-.2,1.15,1.15,0,0,1,0-.38.73.73,0,0,0-.27-.63,1.13,1.13,0,0,1-.29-.29,3.07,3.07,0,0,0-.17-.31c-.07-.12-.13-.21-.18-.31a2.91,2.91,0,0,0-.17-.3c-.08-.13-.14-.22-.19-.32a1,1,0,0,1-.09-.35,1.78,1.78,0,0,0,0-.26,1,1,0,0,0-.07-.15.74.74,0,0,1,0-.34,1,1,0,0,0-.11-.5l-.15-.2-.2-.29a3.07,3.07,0,0,0-.24-.29,2,2,0,0,1-.24-.26A2.13,2.13,0,0,0,65.1,17L65,16.81a.71.71,0,0,0-.52-.32c-.22,0-.36,0-.43-.14s-.19-.25-.28-.37l-.16-.19a.37.37,0,0,1,0-.22.69.69,0,0,0-.66-.78.3.3,0,0,1-.22-.08c-.07-.07-.08-.19-.08-.37a.71.71,0,0,0-.42-.64.73.73,0,0,1-.3-.18c-.08-.08-.08-.22-.08-.41a.81.81,0,0,0-.26-.58l-.26-.2a.7.7,0,0,0-.44-.16h-.1l-.31,0a.31.31,0,0,1-.2-.05.64.64,0,0,1-.12-.39v-.06a.81.81,0,0,0-.17-.39,1.1,1.1,0,0,1-.17-.25l-.07-.13a.64.64,0,0,0-.33-.28l-.14-.05a1.27,1.27,0,0,1-.35-.16,1.75,1.75,0,0,0-.29-.18l-.32-.2a.89.89,0,0,1-.23-.3A.47.47,0,0,0,58,9.63a.72.72,0,0,0-.19-.2l-.44-.29A.73.73,0,0,0,57,9h-.1l0,.71L56.8,9l-.22,0a.36.36,0,0,1-.19,0,.84.84,0,0,1-.22-.24.7.7,0,0,0-.58-.3.52.52,0,0,0-.17,0,1.09,1.09,0,0,1-.24,0,.23.23,0,0,1-.13,0,.72.72,0,0,1-.25-.27l-.08-.11a.68.68,0,0,0-.24-.2l-.27-.13-.31-.15a.63.63,0,0,1-.25-.3l0-.07A.65.65,0,0,0,53.34,7a1.24,1.24,0,0,1-.24-.16,1.58,1.58,0,0,0-.32-.21l-.29-.13-.27-.13a.67.67,0,0,0-.28-.06h-.18a1,1,0,0,1-.28,0,.25.25,0,0,1-.13,0A1.44,1.44,0,0,1,51,6.18.75.75,0,0,0,50.59,6a.72.72,0,0,0-.29.06.85.85,0,0,1-.33.11H49.9l-.29-.11-.37-.13c-.11,0-.18-.16-.28-.32a.7.7,0,0,0-.61-.36,1.51,1.51,0,0,1-.39,0A.74.74,0,0,1,47.65,5l-.08-.08a.8.8,0,0,0-.33-.17l-.25,0-.17.68.11-.69-.13,0h-.12a.69.69,0,0,0-.45.16.83.83,0,0,1-.39.22,1.61,1.61,0,0,1-.37-.12,1.75,1.75,0,0,0-.35-.11l-.12,0h0l-.19,0-.27,0H44.4s-.09,0-.2-.19a.72.72,0,0,0-1-.23A.36.36,0,0,1,43,4.5a.82.82,0,0,1-.36-.18l-.08-.06a.81.81,0,0,0-.37-.12h-.61l-.41,0-.37,0h-.28l-.3,0h-.07a2,2,0,0,1-.34-.06A2.41,2.41,0,0,0,39.48,4h0a1.57,1.57,0,0,0-.33,0,2.93,2.93,0,0,1-.37,0,.81.81,0,0,1-.37-.16A.8.8,0,0,0,38,3.81a.61.61,0,0,0-.24,0,1.51,1.51,0,0,1-.38.11.59.59,0,0,0-.23,0L37,4.07a1.07,1.07,0,0,1-.37.14.69.69,0,0,0-.24,0l-.07,0a1.27,1.27,0,0,1-.39.13h-.7A.44.44,0,0,1,35,4.3a.72.72,0,0,0-.91.07.43.43,0,0,1-.23.15h0a.4.4,0,0,1-.21-.08.72.72,0,0,0-.4-.12.67.67,0,0,0-.57.3c-.11.16-.18.17-.21.17h0A1,1,0,0,1,32,4.72l-.12,0a.69.69,0,0,0-.2,0h-.13a1.35,1.35,0,0,1-.28,0,1.38,1.38,0,0,0-.26,0h-.18a2,2,0,0,1-.28,0h-.12a.73.73,0,0,0-.55.33c-.11.17-.2.29-.3.31h-.06a.79.79,0,0,1-.34-.14A1,1,0,0,0,28.8,5h-.09a1.6,1.6,0,0,1-.23,0l-.37.06a1.34,1.34,0,0,1-.35,0,1.84,1.84,0,0,0-.37,0l-.1,0a.88.88,0,0,0-.2.12,1.45,1.45,0,0,1-.33.19.5.5,0,0,0-.19.1l-.12.1a.88.88,0,0,1-.32.22L26,6a1.15,1.15,0,0,1-.29-.06.54.54,0,0,0-.22,0,.73.73,0,0,0-.5.21.78.78,0,0,1-.29.23l-.32.1-.23.06a.71.71,0,0,0-.37.29l.55.43-.59-.38a.67.67,0,0,1-.26.29h-.08A1,1,0,0,1,23.11,7,.66.66,0,0,0,22.84,7a.69.69,0,0,0-.47.18,1.21,1.21,0,0,1-.3.22l-.28.12-.26.11a.73.73,0,0,0-.33.32l0,.05a.66.66,0,0,1-.25.31.25.25,0,0,1-.16,0l-.2,0h-.1a.7.7,0,0,0-.6.33.59.59,0,0,1-.23.26,1.18,1.18,0,0,1-.33.12,1.89,1.89,0,0,0-.31.1l0,0a1.27,1.27,0,0,1-.37.08h-.13a.59.59,0,0,0-.31.12,1.56,1.56,0,0,0-.2.16l-.3.23a.76.76,0,0,0-.25.29,1.08,1.08,0,0,1-.23.28,1.28,1.28,0,0,0-.26.26,1.54,1.54,0,0,1-.25.26.89.89,0,0,1-.36.11h-.1a.79.79,0,0,0-.4.22l-.12.15a2,2,0,0,1-.24.26l-.27.2-.31.24a1.17,1.17,0,0,1-.34.15l-.08,0a.73.73,0,0,0-.43.38s0,0,0,.06a1.09,1.09,0,0,1-.2.34l-.32.31-.17.18a.55.55,0,0,0-.13.17l-.07.15a.88.88,0,0,1-.18.35l-.49.51c-.07.08-.18.1-.36.12a.69.69,0,0,0-.6.52.87.87,0,0,1-.14.31l-.05.06a2,2,0,0,0-.11.24,1.79,1.79,0,0,1-.18.34,2.83,2.83,0,0,1-.24.25,2.13,2.13,0,0,0-.26.27.6.6,0,0,1-.31.15.7.7,0,0,0-.52.63.65.65,0,0,1-.08.32,1.17,1.17,0,0,0-.15.34,1.91,1.91,0,0,1-.15.32c-.06.1-.2.14-.38.19a.83.83,0,0,0-.48.34l-.16.31a.7.7,0,0,0,0,.58c.07.23.11.38.06.48a3.07,3.07,0,0,0-.17.31c-.06.13-.11.22-.16.32a1,1,0,0,1-.28.25.71.71,0,0,0-.32.59V22a.79.79,0,0,1,0,.36,2.82,2.82,0,0,1-.18.29,3,3,0,0,0-.19.32c0,.08-.11.13-.28.2a.7.7,0,0,0-.44.73.75.75,0,0,1,0,.3.7.7,0,0,1-.3.26l-.07.05a.7.7,0,0,0-.26.3L5.45,25a2.67,2.67,0,0,0-.17.34s0,0,0,.06a1.25,1.25,0,0,0,0,.31,1.39,1.39,0,0,1,0,.3.7.7,0,0,0,0,.38l0,.06a.71.71,0,0,1,.06.41c-.07.23-.15.45-.22.68s-.14.19-.3.28a.78.78,0,0,0-.35.45l-.14.54-.09.31-.06.18a.68.68,0,0,0,.08.57l0,.05a.6.6,0,0,1,.15.39c0,.11-.14.19-.3.3l-.05,0a.63.63,0,0,0-.28.38l-.09.23,0,.13a.73.73,0,0,0,0,.58c.11.19.17.31.15.42a.63.63,0,0,0,0,.36,1.21,1.21,0,0,1,0,.37,1,1,0,0,1-.11.34,1.47,1.47,0,0,0-.11.31,1.57,1.57,0,0,0,0,.37c0,.15,0,.27,0,.39a1.22,1.22,0,0,0,0,.33c0,.15,0,.26,0,.38a.88.88,0,0,1-.17.35l-.07.09a.57.57,0,0,0-.11.28,1.09,1.09,0,0,1-.1.25.68.68,0,0,0,.11.85c.14.15.2.23.19.32a1,1,0,0,1-.1.35,1.44,1.44,0,0,0-.09.24.88.88,0,0,0,0,.16,1.05,1.05,0,0,1-.11.31l0,.08a.71.71,0,0,0,0,.59l0,0a1.6,1.6,0,0,1,.1.31.64.64,0,0,0,.14.34l0,.05a.79.79,0,0,1,.19.36,1.09,1.09,0,0,1-.07.35,1.37,1.37,0,0,0-.06.27.24.24,0,0,0,0,.12.82.82,0,0,1-.14.34l-.05.08a.73.73,0,0,0-.09.35,1.45,1.45,0,0,1,0,.3v.08a.69.69,0,0,0,.22.62l0,0c.14.12.24.21.25.32l0,.28c0,.14,0,.29.06.43a1.46,1.46,0,0,1,0,.36.8.8,0,0,0,0,.28.37.37,0,0,0,0,.11.51.51,0,0,1,0,.25.7.7,0,0,0,.34.82c.21.12.27.19.28.26l.06.29c0,.15,0,.28.08.4a.62.62,0,0,1-.14.4v0a.67.67,0,0,0,0,.66l0,.06a1.43,1.43,0,0,1,.13.28.68.68,0,0,0,.15.26l.08.08a1,1,0,0,1,.24.31,1.08,1.08,0,0,1,0,.36c0,.11,0,.19,0,.26a.94.94,0,0,0,0,.16s0,.08,0,.23a.7.7,0,0,0,.37.83c.19.09.23.15.25.2s.13.34.2.51l.06.16a1.28,1.28,0,0,1,.06.35,1,1,0,0,0,0,.28.3.3,0,0,0,0,.1,1.25,1.25,0,0,1,0,.32.69.69,0,0,0,.47.63c.19.07.3.12.34.21a1,1,0,0,1,.07.35,1.78,1.78,0,0,0,0,.26.58.58,0,0,0,0,.14,1.32,1.32,0,0,1,.1.3,1.81,1.81,0,0,0,.13.35,1,1,0,0,1,.08.35,1.31,1.31,0,0,0,0,.25.75.75,0,0,0,.08.18,1.78,1.78,0,0,1,.12.24,3.51,3.51,0,0,0,.18.34,1.2,1.2,0,0,1,.11.35l0,.16a.76.76,0,0,0,.28.38l.08,0a1,1,0,0,1,.31.25,1.5,1.5,0,0,0,.25.27,1.48,1.48,0,0,1,.24.26l.16.24c.09.13.16.25.24.35a1.34,1.34,0,0,0,.27.26,1.2,1.2,0,0,1,.26.24.71.71,0,0,0,.32.23,1,1,0,0,1,.28.2,1,1,0,0,1,.13.35.74.74,0,0,0,.46.54.74.74,0,0,1,.34.18s.06.07.06.24a.69.69,0,0,0,.67.72c.17,0,.22.06.23.08s.08.1.09.3a.7.7,0,0,0,.6.65.46.46,0,0,1,.27.1.73.73,0,0,1,.17.34l0,.1a.71.71,0,0,0,.18.27,2.09,2.09,0,0,1,.2.22l.19.2a.79.79,0,0,0,.31.17l.11,0a.77.77,0,0,1,.37.13.5.5,0,0,1,.15.26.7.7,0,0,0,.67.5h.13a.46.46,0,0,1,.23,0,.56.56,0,0,1,.16.34.7.7,0,0,0,.58.51.85.85,0,0,1,.33.1,1.09,1.09,0,0,1,.25.27.81.81,0,0,0,.6.34.91.91,0,0,1,.4.06l0,0a1.35,1.35,0,0,0,.3.09,1.22,1.22,0,0,1,.34.1,1.87,1.87,0,0,0,.32.15l.32.15a1.37,1.37,0,0,0,.34.1,1.79,1.79,0,0,1,.35.1.76.76,0,0,1,.25.3l0,.07a.67.67,0,0,0,.25.25.62.62,0,0,1,.18.18.72.72,0,0,0,.56.28A.75.75,0,0,0,22,68a.68.68,0,0,1,.26-.07l.09,0,.13,0,.2,0A1.11,1.11,0,0,1,23,68a3,3,0,0,1,.31.15,1.81,1.81,0,0,0,.33.15,1.29,1.29,0,0,0,.36.06c.12,0,.24,0,.35.06a1.87,1.87,0,0,1,.31.17.82.82,0,0,0,.25.15.11.11,0,0,0,.08,0,.83.83,0,0,1,.29.25l0,.06a.77.77,0,0,0,.34.22l.23.07.37.11a2.07,2.07,0,0,1,.33.1l.12,0a.85.85,0,0,0,.23,0,.68.68,0,0,0,.38-.12.91.91,0,0,1,.38-.18h.05a1.24,1.24,0,0,1,.32.12,1.56,1.56,0,0,0,.34.12,1,1,0,0,1,.33.15,1.79,1.79,0,0,0,.24.12.32.32,0,0,0,.14,0l.3.1a.87.87,0,0,0,.28,0,.74.74,0,0,0,.44-.13h0c.16-.12.26-.19.37-.19a1.82,1.82,0,0,1,.35.06l.36.06a.67.67,0,0,1,.34.22l0,0a.75.75,0,0,0,.39.19l.24,0,.37,0a.65.65,0,0,1,.28.08A.75.75,0,0,0,33.22,70.59Z" style="fill:#e9c28c"/><path d="M30.34,63.83a.7.7,0,0,0,.44-.16c.15-.11.25-.19.36-.19a1.59,1.59,0,0,0,.36-.06,1.43,1.43,0,0,1,.35-.06.63.63,0,0,1,.36.19.77.77,0,0,0,.46.15.55.55,0,0,0,.18,0l.07,0a1.82,1.82,0,0,1,.36-.08l.34,0,.37-.06h0a.63.63,0,0,1,.32.09.8.8,0,0,0,.3.06.7.7,0,0,0,.49-.19.55.55,0,0,1,.29-.19l.14,0,.18-.09a1.39,1.39,0,0,1,.36-.14h.52l.2,0,.65-.12h.08a.74.74,0,0,1,.35.14.86.86,0,0,0,.42.12l.18,0,.34-.11a.68.68,0,0,0,.41-.33c.12-.22.2-.35.31-.38h.36l.21,0a.52.52,0,0,0,.21,0,1,1,0,0,0,.27-.13c.11-.05.22-.11.33-.15H41a.58.58,0,0,1,.2,0,.73.73,0,0,0,.25,0,.71.71,0,0,0,.61-.36c.09-.15.15-.19.2-.21a1.34,1.34,0,0,1,.35-.05,1.26,1.26,0,0,0,.3,0l.07,0a.62.62,0,0,1,.21,0h.3a.93.93,0,0,0,.24,0,1.28,1.28,0,0,1,.34-.06.78.78,0,0,0,.63-.36c.09-.15.16-.26.26-.3a.16.16,0,0,1,.1,0,1,1,0,0,1,.31.07.8.8,0,0,0,.27,0,.59.59,0,0,0,.27-.05l.15-.06.31-.14a.71.71,0,0,0,.27-.22l.05-.08a.88.88,0,0,1,.27-.3,1.69,1.69,0,0,1,.34-.1,1.16,1.16,0,0,0,.31-.08l0,0a1.32,1.32,0,0,1,.3-.08.69.69,0,0,0,.59-.57c0-.24.08-.34.15-.38a2.2,2.2,0,0,1,.31-.15,2,2,0,0,0,.33-.17.32.32,0,0,1,.16,0l.26,0,.17,0a.75.75,0,0,0,.37-.09l.19-.1a2.57,2.57,0,0,0,.61-.41,2.11,2.11,0,0,1,.24-.21.86.86,0,0,0,.2-.26.3.3,0,0,1,0-.08.83.83,0,0,1,.2-.36,1.66,1.66,0,0,0,.27-.26,1.9,1.9,0,0,1,.24-.25,2.83,2.83,0,0,0,.25-.24,2.13,2.13,0,0,1,.27-.26.94.94,0,0,1,.31-.18,1.67,1.67,0,0,0,.27-.14l.06,0,.25-.26a2.94,2.94,0,0,1,.24-.25,1.24,1.24,0,0,0,.23-.3,1.46,1.46,0,0,1,.21-.28,1.21,1.21,0,0,0,.21-.3,1.57,1.57,0,0,1,.2-.3,1.11,1.11,0,0,1,.32-.18.91.91,0,0,0,.17-.08.66.66,0,0,0,.17-.12.89.89,0,0,1,.34-.16l.09,0a.77.77,0,0,0,.34-.22c.06-.09.13-.17.19-.25l.19-.24a1.45,1.45,0,0,0,.2-.32,2.2,2.2,0,0,1,.19-.3c.07-.09.13-.19.19-.28l.17-.25a.71.71,0,0,0,.12-.37v-.06a.79.79,0,0,1,.08-.41.72.72,0,0,1,.32-.21l.11,0a.74.74,0,0,0,.23-.2,1.67,1.67,0,0,1,.23-.23,1.07,1.07,0,0,0,.24-.23.6.6,0,0,0,.09-.15,1.91,1.91,0,0,0,.06-.21,1.62,1.62,0,0,1,.1-.31.73.73,0,0,0,.06-.41v-.06a.65.65,0,0,1,0-.4.74.74,0,0,1,.31-.23l.09,0a.67.67,0,0,0,.25-.22,1.26,1.26,0,0,1,.22-.24.72.72,0,0,0,.23-.7c0-.18-.07-.31,0-.4s.08-.11.3-.17a.7.7,0,0,0,.51-.77.39.39,0,0,1,0-.25,3,3,0,0,1,.16-.31,3.53,3.53,0,0,0,.17-.33.85.85,0,0,1,.26-.28l.08-.07a.65.65,0,0,0,.22-.36,1.19,1.19,0,0,0,0-.22A2,2,0,0,1,61.9,43c0-.1.08-.2.13-.3s.07-.18.11-.27a.69.69,0,0,0,0-.4s0-.06,0-.07a.71.71,0,0,1,0-.4.58.58,0,0,1,.19-.25.7.7,0,0,0,.17-.82.52.52,0,0,1-.08-.34.64.64,0,0,1,.22-.27.68.68,0,0,0,.21-.77.74.74,0,0,1-.05-.34c0-.1.14-.19.29-.3l0,0a.73.73,0,0,0,.28-.41l.09-.35a.71.71,0,0,0-.14-.61c-.14-.18-.23-.31-.21-.42a.87.87,0,0,1,.17-.33.77.77,0,0,0,.09-.13.85.85,0,0,0,.09-.22,1,1,0,0,1,.16-.32.85.85,0,0,0,.09-.15.54.54,0,0,0,.08-.21,1.15,1.15,0,0,1,.11-.31.7.7,0,0,0-.08-.76c-.14-.17-.21-.28-.2-.38a2.09,2.09,0,0,1,.08-.34,1.35,1.35,0,0,0,.09-.36c0-.12,0-.25,0-.38v-.07c0-.09,0-.18,0-.26s0-.26,0-.39,0-.24,0-.33.09-.21.22-.35a.73.73,0,0,0,.18-.66l0-.07c0-.07,0-.15-.05-.25A.68.68,0,0,0,64,30l-.53.47L64,30c-.15-.15-.25-.25-.26-.36a1.34,1.34,0,0,1,0-.35,1.3,1.3,0,0,0,0-.37,1.65,1.65,0,0,0,0-.32,3.32,3.32,0,0,1-.07-.39c0-.11.08-.22.21-.37a.85.85,0,0,0,.2-.51v-.44a.75.75,0,0,0-.18-.45l-.57.42.53-.46a.83.83,0,0,1-.21-.34,1.24,1.24,0,0,0-.1-.35,2.19,2.19,0,0,1-.1-.34s0-.09.09-.24a.7.7,0,0,0-.17-1c-.15-.11-.16-.17-.16-.2s0-.21.15-.38a.7.7,0,0,0,0-.76,1.09,1.09,0,0,1-.15-.33,1.4,1.4,0,0,1,0-.36,1.58,1.58,0,0,0,0-.31s0-.05,0-.08a2.72,2.72,0,0,1-.07-.33,2.73,2.73,0,0,0-.07-.37A1.66,1.66,0,0,0,63,20.7a1.74,1.74,0,0,1-.16-.36,3.38,3.38,0,0,1-.08-.34l0-.1a.72.72,0,0,0-.44-.52c-.2-.08-.34-.14-.38-.25s0-.09.06-.27a.71.71,0,0,0-.31-.94c-.13-.06-.16-.11-.18-.15a2,2,0,0,1-.08-.35,1.31,1.31,0,0,0-.1-.36,1.78,1.78,0,0,1-.09-.33,1.73,1.73,0,0,0-.11-.36,1.7,1.7,0,0,0-.21-.31,1.19,1.19,0,0,1-.21-.29,1.46,1.46,0,0,0-.23-.29,1.93,1.93,0,0,1-.22-.28,1.39,1.39,0,0,0-.22-.29,1.49,1.49,0,0,1-.23-.28,2.92,2.92,0,0,1-.14-.31,3.68,3.68,0,0,0-.16-.34s0-.1,0-.27a.71.71,0,0,0-.49-.82.37.37,0,0,1-.23-.13.34.34,0,0,1,0-.24.69.69,0,0,0-.14-.52.72.72,0,0,0-.46-.28c-.18,0-.22-.07-.24-.1a.91.91,0,0,1-.12-.35.52.52,0,0,0,0-.14.58.58,0,0,0-.12-.25,1.91,1.91,0,0,1-.15-.28l0-.09a.72.72,0,0,0-.52-.39.71.71,0,0,1-.39-.14,2.83,2.83,0,0,1-.2-.28,2.61,2.61,0,0,0-.23-.3.81.81,0,0,1-.14-.31.69.69,0,0,0-.57-.52A.57.57,0,0,1,55,8.45s-.06-.06-.06-.22a.72.72,0,0,0-.71-.68h-.12a.22.22,0,0,1-.17,0l-.29-.23-.28-.2-.24-.22a3.23,3.23,0,0,0-.29-.25.67.67,0,0,1-.13-.42.76.76,0,0,0-.29-.53L52,5.35a1.79,1.79,0,0,0-.34-.17A1.48,1.48,0,0,1,51.34,5a.93.93,0,0,1-.25-.27L51,4.68a.71.71,0,0,0-.5-.28h0a.87.87,0,0,1-.39-.08,1,1,0,0,1-.23-.23.68.68,0,0,0-.57-.29l-.2,0a1.41,1.41,0,0,1-.27.05.18.18,0,0,1-.11,0,.75.75,0,0,1-.26-.27.7.7,0,0,0-.59-.31h-.24a.63.63,0,0,1-.2,0c-.1,0-.16-.16-.25-.32l0-.06a.73.73,0,0,0-.27-.28.91.91,0,0,1-.24-.2l-.09-.08a.69.69,0,0,0-.47-.18h-.24a.61.61,0,0,1-.25,0l-.06,0a1.23,1.23,0,0,0-.29,0l-.33,0a.58.58,0,0,0-.19,0l-.16,0L44.5,2a2.07,2.07,0,0,1-.3.05l-.1,0C44,2,44,2,43.88,1.78a.7.7,0,0,0-.63-.4.63.63,0,0,0-.19,0l-.18,0h-.09l-.34-.08-.35-.07-.32-.09-.37-.11a1.07,1.07,0,0,1-.32-.16,1.47,1.47,0,0,0-.24-.13l-.13,0a1.14,1.14,0,0,1-.3-.14A.87.87,0,0,0,40,.5a.78.78,0,0,0-.36.1.79.79,0,0,1-.34.14A.79.79,0,0,1,39,.58L38.83.5A.73.73,0,0,0,38.5.42h0a.57.57,0,0,0-.18,0l-.3,0h-.17a.72.72,0,0,0-.29.06,1.57,1.57,0,0,1-.3,0h0a.47.47,0,0,1-.26-.15.69.69,0,0,0-.47-.18A.78.78,0,0,0,36,.37a.42.42,0,0,1-.26.12.82.82,0,0,1-.36-.14.56.56,0,0,0-.13-.07A.53.53,0,0,0,35,.2,1,1,0,0,1,34.7.1a.76.76,0,0,0-.3,0,.73.73,0,0,0-.39.1.75.75,0,0,1-.38.19,1.05,1.05,0,0,1-.35-.08l-.14,0A.55.55,0,0,0,33,.2a.84.84,0,0,0-.34.08l0,0a.92.92,0,0,1-.36.15c-.05,0-.12,0-.23-.13a.71.71,0,0,0-1,0c-.1.1-.16.12-.2.12h0c-.12,0-.24-.12-.37-.25A.7.7,0,0,0,29.91,0a.8.8,0,0,0-.26.05,1,1,0,0,1-.33.1,3.47,3.47,0,0,0-.45.06l-.22,0a.84.84,0,0,0-.25.09l-.12.07a.84.84,0,0,1-.35.18c-.11,0-.22,0-.33,0l-.38,0h0A.57.57,0,0,1,27,.59a.75.75,0,0,0-.26,0,.69.69,0,0,0-.6.34c-.12.19-.18.23-.24.24h-.07a1,1,0,0,1-.3-.06l-.1,0a.69.69,0,0,0-.2,0L25,1l-.62.15h-.09A1.6,1.6,0,0,1,24,1.13l-.1,0a.47.47,0,0,0-.17,0,.76.76,0,0,0-.21,0l-.23.08L23,1.32a2.08,2.08,0,0,0-.32.12l-.22.09a.67.67,0,0,0-.38.34l.61.36L22,1.91c-.09.18-.16.3-.26.34l-.34.08a2.7,2.7,0,0,0-.36.09,1,1,0,0,1-.35,0l-.29,0-.1,0-.29.1-.27.1a.62.62,0,0,0-.32.23l0,.06a.83.83,0,0,1-.28.28h-.06a.94.94,0,0,1-.4-.17A.78.78,0,0,0,18.3,3a.7.7,0,0,0-.43.15,1.62,1.62,0,0,1-.29.19l-.29.13a3.08,3.08,0,0,0-.36.17.66.66,0,0,0-.28.24.94.94,0,0,1-.27.26l-.31.14a2,2,0,0,0-.29.14.63.63,0,0,0-.22.18,1,1,0,0,0-.08.11.94.94,0,0,1-.26.29,1,1,0,0,1-.35.1.81.81,0,0,0-.51.31h0a.83.83,0,0,0-.07.13.64.64,0,0,1-.2.33,1,1,0,0,1-.33.13,2.33,2.33,0,0,0-.27.1l-.09,0a1.19,1.19,0,0,1-.32.14,1.3,1.3,0,0,0-.27.1l-.08.06a1.14,1.14,0,0,1-.34.12l-.24.08-.15.1-.41.33a.68.68,0,0,0-.25.43l.68.17-.69-.12a.71.71,0,0,1-.14.39,1.62,1.62,0,0,1-.32.17l-.15.06a.66.66,0,0,0-.32.32l-.05.1a.8.8,0,0,1-.19.34.53.53,0,0,1-.26.11.71.71,0,0,0-.56.69.49.49,0,0,1-.07.32.94.94,0,0,1-.32.19l-.12.05a.71.71,0,0,0-.31.33l-.06.13a1.08,1.08,0,0,1-.17.34,1,1,0,0,1-.3.2l-.14.07a.77.77,0,0,0-.26.28,1.11,1.11,0,0,0-.09.19,1.17,1.17,0,0,1-.17.31,2.62,2.62,0,0,1-.22.25,2.82,2.82,0,0,0-.25.29.85.85,0,0,1-.3.21.49.49,0,0,0-.13.08.76.76,0,0,0-.21.19l-.33.47a.72.72,0,0,0-.13.38v.07a.78.78,0,0,1-.06.39.8.8,0,0,1-.33.22l-.08,0A.62.62,0,0,0,5,15a2,2,0,0,1-.19.21,1.84,1.84,0,0,0-.24.3c-.08.13-.15.26-.22.39l-.13.25a1.71,1.71,0,0,1-.21.26.7.7,0,0,0-.13.78c.1.22.15.36.11.45a1.12,1.12,0,0,1-.27.26L3.61,18a.71.71,0,0,0-.19.23,1.57,1.57,0,0,1-.19.26,1.15,1.15,0,0,0-.19.28,3.27,3.27,0,0,1-.18.33l-.09.15a.73.73,0,0,0,0,.56c.07.21.11.34.07.44a2.72,2.72,0,0,1-.16.3,2.14,2.14,0,0,0-.17.34,1.77,1.77,0,0,1-.15.31,2.52,2.52,0,0,0-.16.34c0,.12-.07.24-.1.36s-.07.22-.1.33a1.29,1.29,0,0,0-.06.36c0,.12,0,.24-.06.35a2.15,2.15,0,0,1-.13.32,2.19,2.19,0,0,0-.13.35c0,.06-.07.12-.24.23a.71.71,0,0,0-.31.82.46.46,0,0,1,0,.29.71.71,0,0,1-.24.32.81.81,0,0,0-.27.45l0,.21,0,.17a.69.69,0,0,0,.18.58c.17.2.29.33.27.44s0,.12-.21.24a.71.71,0,0,0-.21.89.42.42,0,0,1,.07.26.54.54,0,0,1-.14.27.72.72,0,0,0,0,.85.47.47,0,0,1,.13.31c0,.08-.06.16-.21.29A.7.7,0,0,0,.18,31a.6.6,0,0,1,.08.29l0,.72a.63.63,0,0,1-.1.29.71.71,0,0,0,.11.83c.14.14.19.22.19.31s-.08.21-.2.36a.87.87,0,0,0-.21.48,1.62,1.62,0,0,1,0,.22c0,.1,0,.16,0,.23a.74.74,0,0,0,.15.45l0,0a.73.73,0,0,1,.2.36,1.34,1.34,0,0,1,0,.35,1.4,1.4,0,0,0,0,.33v.05c0,.13,0,.26,0,.39s0,.21,0,.32a.89.89,0,0,1-.1.37l0,.07a.64.64,0,0,0,0,.47,1.39,1.39,0,0,0,.06.19,1.93,1.93,0,0,1,.09.31.85.85,0,0,0,.11.26.39.39,0,0,0,.08.1.9.9,0,0,1,.19.34.71.71,0,0,1-.16.39.8.8,0,0,0-.11.6l.11.35a.68.68,0,0,0,.34.42c.22.12.35.2.38.31a1.42,1.42,0,0,1,0,.35,1.31,1.31,0,0,0,0,.37,1.12,1.12,0,0,0,.14.33,1.61,1.61,0,0,1,.15.33.72.72,0,0,1,0,.38.74.74,0,0,0,.16.67,1,1,0,0,1,.24.33s0,.12,0,.28a.72.72,0,0,0,.29.89c.14.08.18.14.2.19a1.42,1.42,0,0,1,0,.36,1,1,0,0,0,0,.17.67.67,0,0,0,.15.37l.1.12a1.09,1.09,0,0,1,.24.3,1.82,1.82,0,0,0,.16.31l.17.33a1.73,1.73,0,0,1,.11.32A2.65,2.65,0,0,0,3.6,48a1.85,1.85,0,0,1,.12.33,2.13,2.13,0,0,0,.14.35l0,.05a1.31,1.31,0,0,0,.2.23,1.23,1.23,0,0,1,.23.28.83.83,0,0,1,.08.36.79.79,0,0,0,0,.17.57.57,0,0,0,.07.22.77.77,0,0,1,.07.26.71.71,0,0,0,.62.61c.26,0,.34.07.37.13s0,.15,0,.4a.71.71,0,0,0,.32.83.78.78,0,0,1,.21.18.93.93,0,0,1,.13.34,2.5,2.5,0,0,0,.08.25.75.75,0,0,0,.21.26l.13.11.2.18a.73.73,0,0,0,.35.21h.05a.78.78,0,0,1,.39.16.79.79,0,0,1,.12.28.68.68,0,0,0,.63.55.49.49,0,0,1,.34.1.62.62,0,0,1,.1.4,1,1,0,0,0,.14.45.58.58,0,0,1,.1.19.72.72,0,0,0,.66.45h.12a.78.78,0,0,1,.22,0c.12,0,.16,0,.17,0l.31.24.25.2.41.33.15.11a2.72,2.72,0,0,1,.24.24,1.59,1.59,0,0,0,.26.26.77.77,0,0,1,.2.34l0,.08a.7.7,0,0,0,.24.3l.15.11.36.26.27.19a2.45,2.45,0,0,0,.31.23l.27.18a2.7,2.7,0,0,0,.33.22l.28.2.31.21a1.38,1.38,0,0,0,.36.12,1.26,1.26,0,0,1,.33.1l.29.18.24.14a.67.67,0,0,0,.34.09h.3a.56.56,0,0,1,.21,0l.07,0,.29,0a1.69,1.69,0,0,1,.34.08,1.25,1.25,0,0,1,.3.21,1.05,1.05,0,0,0,.22.17l.1.05a.6.6,0,0,1,.21.23.69.69,0,0,0,.59.31l.18,0a1,1,0,0,1,.23,0l.1,0a.84.84,0,0,1,.29.25l.06.08a.69.69,0,0,0,.3.2l.25.1.36.13a.64.64,0,0,0,.2,0H21a1,1,0,0,1,.22,0,1.33,1.33,0,0,1,.32.15l.05,0a.73.73,0,0,0,.35.09.87.87,0,0,0,.31-.07.9.9,0,0,1,.37-.15h.05c.11,0,.19.12.31.25a.77.77,0,0,0,.52.28h.14a1.42,1.42,0,0,1,.37,0,.77.77,0,0,1,.31.14.65.65,0,0,0,.38.11.72.72,0,0,0,.4-.12.59.59,0,0,1,.32-.15.67.67,0,0,1,.36.21l.07.06a.67.67,0,0,0,.32.17,1.66,1.66,0,0,1,.29.1,1.5,1.5,0,0,0,.3.1h.13a.65.65,0,0,0,.27,0,1.21,1.21,0,0,1,.34-.07h.12l.29-.05a1.64,1.64,0,0,1,.32,0h0a.65.65,0,0,0,.2,0l.11,0a1.18,1.18,0,0,1,.37-.08.94.94,0,0,1,.37.11l.17.08a.78.78,0,0,0,.21,0,1.94,1.94,0,0,1,.33.07l.09,0A.57.57,0,0,0,30.34,63.83Z" style="fill:#cad772"/><path d="M44.54,12.24c0,.11.08.11.08.21s-.07.11-.07.21.13.11.13.21-.12.11-.12.21,0,.11,0,.21,0,.11,0,.21,0,.11,0,.21.1.1.1.21-.09.1-.09.21.13.1.13.21-.29.1-.29.21.26.1.26.21,0,.1,0,.21.1.1.1.21-.16.1-.16.21.09.1.09.21-.07.11-.07.21-.09.11-.09.21v.21c0,.11.11.11.11.21s-.13.11-.13.21-.11.11-.11.21.14.11.14.21,0,.11,0,.22-.17.1-.17.21.07.1.07.21,0,.1,0,.21.17.1.17.21.06.1.06.21,0,.1,0,.21-.15.1-.15.21-.13.1-.13.21.27.1.27.21-.25.1-.25.21-.08.1-.08.21,0,.1,0,.21.09.1.09.21.08.1.08.21-.08.1-.08.21,0,.1,0,.21,0,.1,0,.21.26.1.26.21-.28.1-.28.21.09.1.09.2,0,.11,0,.21.17.11.17.21.06.11.06.21,0,.11,0,.21,0,.11,0,.21,0,.11,0,.21-.16.11-.16.21-.13.11-.13.21,0,.11,0,.21,0,.11,0,.22.3.1.3.21,0,.1,0,.21-.12.1-.12.21,0,.1,0,.21-.09.1-.09.21.23.1.23.21,0,.1,0,.21-.16.11-.16.21-.17.11-.17.21,0,.11,0,.21.36.11.36.21-.31.11-.31.21.19.11.19.21-.16.11-.16.22-.12.1-.12.21.39.1.39.21-.27.1-.27.21,0,.1,0,.21-.09.1-.09.21.15.1.15.21-.13.1-.13.21.22.1.22.21-.19.1-.19.21.18.1.18.21-.17.1-.17.21-.1.1-.1.21.27.1.27.21-.28.1-.28.21.14.11.14.21v.21c0,.11-.07.11-.07.21s-.05.11-.05.21.13.11.13.21.11.11.11.22-.21.1-.21.21.12.1.12.21.09.1.09.21-.11.1-.11.21v.21c0,.11-.13.11-.13.21s.16.11.16.21.14.11.14.21-.26.11-.26.21.27.11.27.21-.25.11-.25.21.29.11.29.21-.33.11-.33.22,0,.1,0,.21,0,.1,0,.21,0,.1,0,.21.09.1.09.21,0,.1,0,.21.09.11.09.21-.29.11-.29.21.12.11.12.21-.07.11-.07.21.18.11.18.22,0,.1,0,.21.11.1.11.2-.24.11-.24.21.27.11.27.21-.22.11-.22.22.22.1.22.21,0,.1,0,.21-.12.1-.12.21.13.1.13.21-.1.11-.1.21,0,.11,0,.21.2.11.2.21-.1.11-.1.21-.21.11-.21.21.13.11.13.21-.06.11-.06.21,0,.11,0,.21.14.11.14.21,0,.11,0,.21.17.11.17.21-.16.11-.16.21-.06.11-.06.22,0,.1,0,.21,0,.1,0,.21.15.1.15.21-.06.1-.06.21-.27.11-.27.21.15.11.15.21.15.11.15.21-.29.11-.29.22.1.1.1.21,0,.1,0,.21,0,.1,0,.21.31.1.31.21-.31.11-.31.21.29.11.29.21-.22.11-.22.21,0,.11,0,.22.17.1.17.21-.31.1-.31.21.3.1.3.21-.08.11-.08.21,0,.11,0,.21-.3.11-.3.22.25.1.25.21-.24.1-.24.21.31.11.31.21-.24.11-.24.21.23.11.23.21-.21.11-.21.21.24.11.24.22-.05.1-.05.21-.07.1-.07.21-.18.11-.18.21.14.11.14.21-.13.11-.13.22.23.1.23.21-.07.1-.07.21,0,.11,0,.21.06.11.06.22-.11.1-.11.21.12.11.12.21-.2.11-.2.22.25.1.25.21-.22.11-.22.21-.12.13-.13.2.34.19.33.26a1.69,1.69,0,0,1,0,.23c0,.07-.22.09-.25.15s.06.2,0,.26-.09.13-.12.19-.14.1-.18.15,0,.16-.1.21-.21,0-.26.05-.07.14-.13.18l-.18.12c-.06,0-.08.18-.15.21s-.23-.19-.3-.16-.1.16-.17.17-.13.12-.2.13-.16-.09-.23-.08-.14.11-.22.11-.1-.33-.18-.34-.2.32-.27.3l-.21-.09c-.06,0-.11-.13-.17-.16s-.11-.11-.17-.14-.16.07-.25,0,0-.27-.06-.33-.08-.07-.17-.12-.08-.08-.17-.13-.16.06-.25,0-.2.13-.29.08,0-.16-.12-.21,0-.25-.08-.3-.11,0-.2-.07-.15.05-.24,0-.16.05-.25,0,0-.24-.07-.3-.15,0-.24,0-.17.07-.26,0,0-.28-.05-.33-.16.05-.25,0-.1,0-.19-.08-.17.07-.26,0-.07-.09-.16-.14,0-.18-.11-.24,0-.17-.11-.22l-.18-.11c-.1-.06-.2.12-.29.07s0-.25-.07-.31-.27.26-.36.21,0-.27-.06-.32-.22.18-.32.13,0-.2-.1-.25-.08-.07-.17-.12,0-.19-.1-.24-.23.18-.32.13-.08-.08-.17-.13-.06-.1-.15-.15,0-.16-.13-.21-.22.18-.31.12.09-.37,0-.42-.12,0-.21-.06a1.88,1.88,0,0,1-.18-.12c-.09,0-.19.13-.28.08s-.14,0-.23,0,.06-.31,0-.37-.14,0-.23,0-.18.09-.27,0,.05-.29,0-.35-.12,0-.22,0-.22.18-.31.13.07-.34,0-.39-.13,0-.22,0l-.19-.1c-.09-.05-.15,0-.24,0S32,46,32,45.91s-.11,0-.2-.09-.06-.1-.15-.15a1.14,1.14,0,0,1-.19-.1c-.1,0-.22.18-.31.12s-.05-.12-.15-.18,0-.14-.13-.19-.18.11-.27,0,0-.29-.05-.35-.2.15-.29.1,0-.24-.08-.3,0-.14-.13-.19-.27.25-.36.2-.07-.09-.16-.14,0-.16-.12-.22-.2.13-.29.08-.08-.07-.17-.12,0-.17-.12-.22,0-.22-.09-.27-.19.12-.28.06-.16.07-.25,0-.06-.11-.15-.16-.06-.12-.15-.17-.18.1-.27,0,0-.25-.07-.3-.06-.11-.15-.16-.16.07-.26,0-.16.06-.25,0,.05-.29-.05-.34-.21.16-.3.1,0-.22-.09-.27-.08-.07-.17-.12-.14,0-.23,0-.12,0-.21-.05-.06-.1-.16-.16,0-.11-.15-.16-.13,0-.22,0a1.21,1.21,0,0,0-.2-.09c-.09,0,0-.12-.14-.18a1.77,1.77,0,0,1-.17-.12c-.1-.05-.2.14-.3.09s.11-.39,0-.44-.16.07-.25,0-.15,0-.24,0,0-.15-.13-.2-.14,0-.23,0l-.18-.11c-.09-.05-.06-.1-.15-.15s-.21.15-.3.1a1.77,1.77,0,0,0-.17-.12c-.1,0,.09-.38,0-.43s-.19.12-.28.07-.18.1-.27,0,0-.17-.12-.22a1.74,1.74,0,0,1-.19-.1c-.09,0-.06-.1-.15-.16s0-.22-.09-.27-.22.18-.31.12L21.23,40c-.09-.06,0-.26-.07-.31a1.13,1.13,0,0,0-.18-.12c-.09-.06-.2.14-.29.09a1.14,1.14,0,0,1-.19-.1c-.09-.05,0-.21-.09-.26s-.22.16-.31.1,0-.16-.12-.21,0-.22-.09-.27-.29.29-.38.24,0-.31,0-.36-.11,0-.2-.07-.21.15-.3.1.08-.36,0-.41-.13,0-.22,0-.15,0-.24,0-.11,0-.2-.07-.14,0-.23,0,.05-.31,0-.36-.22.16-.31.11,0-.25-.07-.3l-.19-.11c-.09,0-.25.23-.34.18s.05-.31,0-.36l-.19-.1c-.09,0-.22.18-.31.12s0-.16-.12-.21-.12,0-.22-.06,0-.15-.12-.21-.06-.1-.16-.16-.16.08-.26,0-.15.06-.25,0,.1-.39,0-.45-.11,0-.21-.06-.05-.11-.15-.17-.15,0-.24,0-.2.14-.29.09,0-.29-.05-.35-.12,0-.21-.06S14.08,36,14,36s0-.28-.05-.33-.11,0-.2-.07,0-.2-.11-.25-.26.25-.35.2.05-.31,0-.36-.15.06-.25,0,0-.14-.13-.19-.17.08-.27,0-.05-.12-.14-.17-.08-.08-.17-.14-.12,0-.21-.07,0-.14-.13-.19-.19.1-.28,0-.16.06-.25,0,0-.22-.09-.27-.14,0-.23,0-.1,0-.2-.09,0-.16-.12-.22,0-.18-.11-.24-.24.21-.33.15,0-.27-.06-.31-.05-.14-.1-.18-.17,0-.22-.06-.32.09-.36,0-.08-.15-.12-.2.06-.21,0-.27-.21-.07-.23-.13a2.12,2.12,0,0,1-.11-.21c0-.07.07-.17,0-.24s.07-.16.06-.23S9,31.85,9,31.78s.34-.13.34-.2-.19-.16-.18-.23,0-.15,0-.22.25-.06.28-.13-.11-.19-.08-.25.13-.09.17-.15.1-.09.14-.15-.07-.23,0-.28.17,0,.22-.09,0-.2.08-.25.2,0,.26,0,0-.19.09-.25.19.11.28.05.11,0,.19-.09,0-.13.13-.19,0-.18.1-.24.23.17.32.11-.06-.29,0-.35.2.12.29.07,0-.18.09-.24.07-.09.16-.14.24.18.33.12.05-.12.14-.18,0-.13.13-.18.15,0,.24,0,.15.05.24,0,0-.19.09-.25.17.07.26,0,0-.18.1-.24.1,0,.19-.08,0-.18.11-.24.07-.07.16-.13.22.15.31.09-.06-.28,0-.34.16.05.25,0,.14,0,.23,0a1.77,1.77,0,0,0,.17-.12c.09-.05,0-.24.06-.29s.2.11.29.06.08-.08.16-.14.11,0,.2-.08.08-.07.17-.13.12,0,.21-.05l.18-.12.17-.11c.09-.06,0-.25.06-.31s.23.17.32.11,0-.21.08-.27.19.12.28.06l.19-.09c.09-.06.08-.08.17-.13s-.05-.28,0-.34l.16-.12c.09-.06.06-.11.15-.17s.16.06.25,0,.14,0,.23,0,0-.19.09-.25.06-.1.15-.16.1,0,.19-.08.26.2.35.15-.08-.32,0-.38l.17-.11c.09-.06.15,0,.24,0s.12,0,.21-.06.15.05.24,0,.05-.13.14-.18,0-.12.14-.18.06-.09.15-.14l.18-.13c.09,0,.19.11.28.05s.13,0,.22-.05-.11-.37,0-.43.21.15.3.09l.18-.11c.09-.06.06-.09.15-.15s0-.22.08-.27.26.22.35.16,0-.23.07-.29.2.13.29.07,0-.26.05-.32.19.1.28.05,0-.25.06-.31.2.13.29.08.12,0,.21-.06,0-.22.08-.28,0-.15.12-.21.09-.05.18-.11.27.24.36.18-.12-.38,0-.44.2.12.29.06.11,0,.2-.07,0-.24.06-.3.12,0,.21-.07.19.1.28,0,.14,0,.23,0,0-.21.08-.27.2.12.29.07.05-.12.14-.17-.05-.28,0-.33.16.05.25,0,.11,0,.2-.08,0-.25.06-.3.17.07.26,0,.08-.07.17-.12.08-.08.17-.13.13,0,.22-.05.05-.12.14-.17.13,0,.22-.05,0-.22.07-.27.17.06.26,0,.22.15.31.09,0-.13.12-.18,0-.23.07-.29.14,0,.23,0l.18-.12L29,18c.09-.06,0-.21.09-.26s.15,0,.24,0,.08-.07.16-.13,0-.13.13-.19.18.08.27,0,.12,0,.21-.06l.18-.11c.09-.06,0-.19.09-.25s.19.09.28,0,.15,0,.24,0,0-.17.11-.23.06-.1.15-.16,0-.18.1-.24.05-.11.14-.16.24.17.33.12,0-.16.11-.22,0-.13.13-.19.12,0,.21-.07.11,0,.2-.08.06-.1.15-.16.17.08.26,0,.13,0,.22,0,.12,0,.21-.06-.08-.33,0-.39.06-.09.15-.15.2.12.29.06.07-.09.16-.15,0-.19.09-.25.21.14.3.08,0-.26,0-.32l.17-.12c.09-.06.16.05.25,0l.17-.13c.09-.05.06-.11.14-.16s.13,0,.22-.06.23.16.31.1-.09-.35,0-.41.16.06.25,0,0-.14.12-.2.24.18.33.13-.08-.34,0-.4.25.2.34.15,0-.22.08-.27.15,0,.24,0a1.77,1.77,0,0,0,.17-.12c.09-.05,0-.2.09-.26s.15,0,.23,0,.22.15.31.1-.06-.31,0-.36.21.13.29.07-.07-.32,0-.37.22.15.31.1.05-.12.14-.18.13,0,.22,0,.06-.1.15-.16.15,0,.24,0-.06-.29,0-.34.28.24.37.18-.06-.3,0-.35.14,0,.23,0,.15,0,.24,0,0-.23.06-.29l.18-.12c.09-.05,0-.14.13-.19s.18.08.27,0,.13,0,.22-.05,0-.23.07-.29.15,0,.24,0,.08-.15.15-.18.25.21.31.19,0-.28.12-.3.18.15.25.14.1-.27.17-.27.15.12.22.12.16-.12.22-.12.13.14.2.15.17-.09.24-.07.12.12.18.14,0,.26.1.29.13,0,.19.06.16,0,.22,0,.07.12.12.17.2,0,.24,0,0,.16.07.22,0,.16,0,.21.22,0,.25.1.09.11.12.18-.1.18-.08.24-.07.15-.06.22.15.11.16.18S44.54,12.17,44.54,12.24Z" style="fill:#fff"/></g></g></g></svg>