<svg xmlns="http://www.w3.org/2000/svg" width="70.65" height="70.59" viewBox="0 0 70.65 70.59"><title>arrow_right</title><g id="圖層_2" data-name="圖層 2"><g id="gashapon_machine" data-name="gashapon machine"><g id="_7" data-name="7"><path d="M37.43,70.59a.72.72,0,0,1-.54-.25c-.15-.18-.24-.25-.33-.25s-.12,0-.27.2a.69.69,0,0,1-.54.25.71.71,0,0,1-.37-.1.49.49,0,0,0-.23-.08.59.59,0,0,0-.29.1.64.64,0,0,1-.35.1.71.71,0,0,1-.49-.2c-.13-.12-.21-.17-.29-.17l-.34,0a2.63,2.63,0,0,0-.36,0h0a.84.84,0,0,0-.37.14.73.73,0,0,1-.41.12.8.8,0,0,1-.26,0l0,0a1.34,1.34,0,0,0-.35-.1,3.43,3.43,0,0,1-.34-.06,3.21,3.21,0,0,0-.36-.07.28.28,0,0,1-.13,0,.6.6,0,0,1-.19-.08,1.32,1.32,0,0,0-.37-.14h-.06a1,1,0,0,0-.3,0l-.13,0h-.13a.71.71,0,0,1-.32-.07l-.11-.06a.91.91,0,0,0-.35-.16c-.11,0-.23,0-.34,0a2,2,0,0,1-.37,0h-.05a.51.51,0,0,0-.24.08.72.72,0,0,1-.32.08.7.7,0,0,1-.54-.26.5.5,0,0,0-.24-.18l-.32-.06L26,69.15l-.28-.06L25.37,69a.55.55,0,0,1-.24-.12.39.39,0,0,1-.1-.08.91.91,0,0,0-.33-.22l-.37-.12-.3-.1H24a.31.31,0,0,0-.17.06.76.76,0,0,1-.33.08.78.78,0,0,1-.21,0,.73.73,0,0,1-.42-.35c-.07-.15-.12-.17-.15-.18l-.29-.09L22,67.71H22a.64.64,0,0,0-.29.09.7.7,0,0,1-.31.07.74.74,0,0,1-.52-.22.64.64,0,0,0-.23-.19,1.43,1.43,0,0,0-.34-.09L20,67.3a.77.77,0,0,1-.31-.19L19.64,67a.87.87,0,0,0-.29-.26,1.22,1.22,0,0,0-.34-.1,1.6,1.6,0,0,1-.35-.11.62.62,0,0,0-.27,0H18.2a.68.68,0,0,1-.45-.17l-.13-.11a1.93,1.93,0,0,0-.28-.22l-.3-.15a3.58,3.58,0,0,1-.34-.17l-.29-.15-.22-.11a.69.69,0,0,1-.32-.37c-.08-.2-.13-.32-.22-.38a2.83,2.83,0,0,1-.28-.2l-.29-.23a1.64,1.64,0,0,1-.25-.21,1.93,1.93,0,0,0-.29-.24,1.51,1.51,0,0,0-.31-.16,1.45,1.45,0,0,1-.33-.16.58.58,0,0,0-.34-.07.75.75,0,0,1-.67-.41.76.76,0,0,0-.18-.29.78.78,0,0,1-.16-.2.61.61,0,0,0-.05-.12.71.71,0,0,0-.2-.33s-.06-.06-.2-.06h-.16a.71.71,0,0,1-.69-.56.4.4,0,0,0-.1-.23,2.75,2.75,0,0,0-.26-.22l-.29-.24a.84.84,0,0,0-.34-.17.8.8,0,0,1-.5-.45v0a1.07,1.07,0,0,0-.16-.32.72.72,0,0,1-.12-.21.57.57,0,0,1,0-.14.83.83,0,0,0-.16-.34c0-.07-.15-.09-.38-.1a.7.7,0,0,1-.65-.49.78.78,0,0,0-.14-.29A1.9,1.9,0,0,0,7.85,58a1.34,1.34,0,0,1-.27-.26,1.59,1.59,0,0,0-.27-.24,1.59,1.59,0,0,1-.26-.24,1.42,1.42,0,0,1-.17-.35,2.41,2.41,0,0,0-.11-.25.62.62,0,0,1-.08-.44c0-.24,0-.37,0-.46s-.14-.11-.37-.14A.7.7,0,0,1,5.7,55a1,1,0,0,0-.1-.31,1.4,1.4,0,0,1-.15-.3,3,3,0,0,0-.16-.35A1.23,1.23,0,0,0,5,53.8a1.14,1.14,0,0,1-.2-.19.41.41,0,0,1-.07-.11l-.18-.26a2.13,2.13,0,0,1-.21-.31,2.4,2.4,0,0,0-.19-.29l-.05-.08a.7.7,0,0,1-.07-.67c.09-.21.14-.35.1-.45s-.17-.16-.34-.24a.87.87,0,0,1-.38-.3,2.29,2.29,0,0,0-.17-.23,1.18,1.18,0,0,1-.19-.25l0-.05c0-.11-.09-.23-.13-.35l-.09-.23a.7.7,0,0,1,0-.43l0-.06a.72.72,0,0,0,0-.4l-.12-.28a3.73,3.73,0,0,1-.15-.38A.81.81,0,0,0,2.36,48l-.08-.07a.75.75,0,0,1-.2-.37c0-.06,0-.15,0-.23A2.19,2.19,0,0,0,2,47a.7.7,0,0,1,0-.29.52.52,0,0,1,0-.11.75.75,0,0,0,0-.39,1.2,1.2,0,0,0-.16-.32l-.08-.13a.67.67,0,0,1-.08-.5l0-.06a.89.89,0,0,0,0-.39,1,1,0,0,0-.17-.32,1.1,1.1,0,0,1-.13-.23.44.44,0,0,1-.05-.15,1.73,1.73,0,0,1,0-.27v-.05c0-.11,0-.23-.05-.34s0-.11-.18-.2a.7.7,0,0,1-.22-.94A.44.44,0,0,0,1,42a.65.65,0,0,0-.24-.32.75.75,0,0,1-.26-.54v-.12a2.4,2.4,0,0,0,0-.39l-.06-.33A2.06,2.06,0,0,1,.36,40c0-.11,0-.23,0-.35s0-.25,0-.36a1.93,1.93,0,0,1,0-.34,2.4,2.4,0,0,0,0-.38.86.86,0,0,0-.14-.35l-.06-.11a.75.75,0,0,1-.06-.47.56.56,0,0,1,0-.12,1.14,1.14,0,0,0,.06-.38,2,2,0,0,0,0-.35,3.12,3.12,0,0,1-.06-.37v-.72a1.51,1.51,0,0,1,.06-.35,1.27,1.27,0,0,0,.07-.37v-.29c0-.14,0-.28,0-.42a.89.89,0,0,0-.1-.37c0-.06,0-.1,0-.14a.9.9,0,0,1,0-.28c0-.11,0-.23,0-.34V33a.71.71,0,0,1,.34-.54c.22-.13.37-.23.38-.34a1.35,1.35,0,0,0,0-.35,1.64,1.64,0,0,1,0-.37c0-.11,0-.22-.14-.38l0-.06a.78.78,0,0,1-.09-.4,2.42,2.42,0,0,0,0-.27v-.17a.69.69,0,0,1,.19-.49l0,0a.71.71,0,0,0,.22-.32A2.17,2.17,0,0,1,1,28.9a1.24,1.24,0,0,0,.12-.32.62.62,0,0,0-.14-.4.82.82,0,0,1-.11-.57L1,27.15a.73.73,0,0,1,.17-.31l.07-.07a.81.81,0,0,0,.23-.31.41.41,0,0,0,0-.24.7.7,0,0,1,.42-.85c.21-.09.26-.15.27-.2a.92.92,0,0,0,0-.37,1,1,0,0,1,0-.25.68.68,0,0,1,.15-.37l0-.07a1.54,1.54,0,0,0,.17-.31c0-.06,0-.14-.06-.32a.72.72,0,0,1,.24-.86.47.47,0,0,0,.2-.2A.94.94,0,0,0,3,22a.73.73,0,0,1,.27-.63,1,1,0,0,0,.29-.29,3.07,3.07,0,0,1,.17-.31c.07-.12.13-.21.18-.31A2.91,2.91,0,0,1,4,20.2l.2-.32a1,1,0,0,0,.08-.35,1.78,1.78,0,0,1,0-.26,1,1,0,0,1,.07-.15.74.74,0,0,0,0-.34,1,1,0,0,1,.12-.5,2.43,2.43,0,0,1,.14-.2,3.09,3.09,0,0,0,.2-.29,3.23,3.23,0,0,1,.25-.29,2.85,2.85,0,0,0,.23-.26A2.13,2.13,0,0,1,5.55,17l.11-.18a.71.71,0,0,1,.52-.32c.22,0,.37,0,.43-.14s.19-.25.28-.37l.16-.19a.37.37,0,0,0,0-.22.69.69,0,0,1,.67-.78c.1,0,.18,0,.21-.08s.08-.19.08-.37a.73.73,0,0,1,.42-.64.73.73,0,0,0,.3-.18.58.58,0,0,0,.09-.41.74.74,0,0,1,.26-.58l.25-.2a.7.7,0,0,1,.44-.16h.1l.31,0a.31.31,0,0,0,.2-.05.71.71,0,0,0,.13-.39v-.06a.74.74,0,0,1,.18-.39,1.53,1.53,0,0,0,.16-.25l.07-.13a.69.69,0,0,1,.33-.28l.14-.05a1.5,1.5,0,0,0,.36-.16,1.41,1.41,0,0,1,.29-.18l.31-.2a.89.89,0,0,0,.23-.3.87.87,0,0,1,.08-.14.72.72,0,0,1,.19-.2l.44-.29A.73.73,0,0,1,13.7,9h.1l0,.71.09-.7.22,0a.36.36,0,0,0,.19,0,.84.84,0,0,0,.22-.24.72.72,0,0,1,.58-.3.5.5,0,0,1,.17,0,1.09,1.09,0,0,0,.24,0,.23.23,0,0,0,.13,0,.72.72,0,0,0,.25-.27l.08-.11a.78.78,0,0,1,.24-.2l.28-.13.31-.15a.68.68,0,0,0,.24-.3l.05-.07A.65.65,0,0,1,17.31,7a1.81,1.81,0,0,0,.25-.16,1.54,1.54,0,0,1,.31-.21l.29-.13.27-.13a.71.71,0,0,1,.28-.06h.19a.93.93,0,0,0,.27,0,.32.32,0,0,0,.14,0,1.37,1.37,0,0,0,.3-.19A.76.76,0,0,1,20.07,6a.71.71,0,0,1,.28.06.91.91,0,0,0,.33.11h.07L21,6.07c.14-.05.26-.1.38-.13a.69.69,0,0,0,.27-.32.7.7,0,0,1,.61-.36,1.51,1.51,0,0,0,.39,0A.74.74,0,0,0,23,5l.08-.08a.8.8,0,0,1,.33-.17l.25,0,.18.68-.11-.69.12,0H24a.69.69,0,0,1,.45.16.83.83,0,0,0,.39.22,1.61,1.61,0,0,0,.37-.12,1.75,1.75,0,0,1,.35-.11l.12,0h0l.2,0,.27,0h.11s.09,0,.21-.19a.68.68,0,0,1,.59-.33.69.69,0,0,1,.37.1.36.36,0,0,0,.19.07A.77.77,0,0,0,28,4.32a.28.28,0,0,0,.08-.06.81.81,0,0,1,.37-.12H29l.42,0,.37,0h.27l.3,0h.07a2,2,0,0,0,.34-.06A2.66,2.66,0,0,1,31.17,4h0a1.57,1.57,0,0,1,.33,0,2.93,2.93,0,0,0,.37,0,.81.81,0,0,0,.37-.16.81.81,0,0,1,.44-.12.67.67,0,0,1,.24,0,1.35,1.35,0,0,0,.37.11.59.59,0,0,1,.23,0l.13.06a1.07,1.07,0,0,0,.37.14.69.69,0,0,1,.24,0l.08,0a1.14,1.14,0,0,0,.38.13h.7a.44.44,0,0,0,.28-.11.72.72,0,0,1,.91.07.44.44,0,0,0,.24.15h0a.37.37,0,0,0,.21-.08.72.72,0,0,1,.4-.12.7.7,0,0,1,.58.3c.11.16.17.17.2.17h0a.94.94,0,0,0,.32-.08l.12,0a.69.69,0,0,1,.2,0h.14a1.45,1.45,0,0,0,.28,0,1.18,1.18,0,0,1,.25,0h.18a2,2,0,0,0,.29,0h.11a.72.72,0,0,1,.55.33c.11.17.2.29.3.31h.06a.79.79,0,0,0,.34-.14A1,1,0,0,1,41.85,5h.09l.23,0,.37.06a1.34,1.34,0,0,0,.35,0,1.84,1.84,0,0,1,.37,0l.1,0a1.2,1.2,0,0,1,.21.12,1.22,1.22,0,0,0,.32.19.5.5,0,0,1,.19.1l.12.1a.88.88,0,0,0,.32.22l.09,0a1.15,1.15,0,0,0,.29-.06.54.54,0,0,1,.22,0,.73.73,0,0,1,.5.21.78.78,0,0,0,.29.23l.33.1.22.06a.74.74,0,0,1,.38.29l-.56.43.59-.38a.83.83,0,0,0,.26.29h.09A1,1,0,0,0,47.54,7,.67.67,0,0,1,47.82,7a.69.69,0,0,1,.46.18,1.21,1.21,0,0,0,.3.22l.28.12.26.11a.73.73,0,0,1,.33.32l0,.05a.66.66,0,0,0,.25.31.27.27,0,0,0,.16,0l.2,0h.1a.7.7,0,0,1,.6.33.66.66,0,0,0,.23.26,1.18,1.18,0,0,0,.33.12,1.61,1.61,0,0,1,.31.1l.05,0a1.13,1.13,0,0,0,.36.08h.13a.66.66,0,0,1,.32.12l.19.16.3.23a.76.76,0,0,1,.25.29,1.08,1.08,0,0,0,.23.28,1.28,1.28,0,0,1,.26.26,2.06,2.06,0,0,0,.25.26.89.89,0,0,0,.36.11h.1a.76.76,0,0,1,.4.22l.13.15a1.48,1.48,0,0,0,.24.26l.26.2a2.79,2.79,0,0,1,.31.24,1.17,1.17,0,0,0,.34.15l.08,0a.7.7,0,0,1,.43.38.17.17,0,0,0,0,.06,1.08,1.08,0,0,0,.19.34l.32.31.17.18a.55.55,0,0,1,.13.17,1,1,0,0,1,.07.15.88.88,0,0,0,.18.35l.49.51c.07.08.18.1.36.12a.72.72,0,0,1,.61.52.85.85,0,0,0,.13.31l0,.06a1.72,1.72,0,0,1,.12.24,1.35,1.35,0,0,0,.17.34l.24.25a2.13,2.13,0,0,1,.26.27.6.6,0,0,0,.31.15.7.7,0,0,1,.52.63.65.65,0,0,0,.08.32,1.53,1.53,0,0,1,.16.34,1.34,1.34,0,0,0,.14.32.65.65,0,0,0,.38.19.8.8,0,0,1,.48.34l.17.31a.73.73,0,0,1,.05.58c-.08.23-.12.38-.07.48a3.07,3.07,0,0,1,.17.31c.06.13.11.22.16.32a1,1,0,0,0,.28.25.71.71,0,0,1,.32.59V22a.79.79,0,0,0,0,.36l.18.29a3,3,0,0,1,.19.32c0,.08.11.13.29.2a.7.7,0,0,1,.43.73.61.61,0,0,0,0,.3.62.62,0,0,0,.29.26l.07.05a.59.59,0,0,1,.26.3l.12.23a2.67,2.67,0,0,1,.17.34.14.14,0,0,0,0,.06,2.15,2.15,0,0,1,0,.31,1.36,1.36,0,0,0,0,.3.7.7,0,0,1,0,.38l0,.06a.71.71,0,0,0-.06.41c.07.23.15.45.22.68s.15.19.3.28a.84.84,0,0,1,.36.45l.13.54c0,.1.06.2.1.31l.05.18a.71.71,0,0,1-.07.57l0,.05a.6.6,0,0,0-.15.39c0,.11.14.19.3.3l0,0a.69.69,0,0,1,.29.38,1.55,1.55,0,0,0,.08.23l0,.13A.73.73,0,0,1,67,32c-.11.19-.17.31-.15.42a.73.73,0,0,1,0,.36,1,1,0,0,0,0,.37,1.35,1.35,0,0,0,.11.34,1.47,1.47,0,0,1,.11.31,2.56,2.56,0,0,1,0,.37,1.69,1.69,0,0,0,0,.39c0,.11,0,.22,0,.33a2.5,2.5,0,0,0,0,.38.78.78,0,0,0,.18.35l.06.09a.7.7,0,0,1,.12.28.6.6,0,0,0,.1.25.71.71,0,0,1-.11.85c-.15.15-.21.23-.2.32a1,1,0,0,0,.1.35,1.44,1.44,0,0,1,.09.24.88.88,0,0,1,0,.16.86.86,0,0,0,.12.31l0,.08a.71.71,0,0,1,0,.59l0,0a1.11,1.11,0,0,0-.09.31.85.85,0,0,1-.14.34l-.05.05a.79.79,0,0,0-.19.36,1.09,1.09,0,0,0,.07.35,1.37,1.37,0,0,1,.06.27.49.49,0,0,1,0,.12.69.69,0,0,0,.13.34l.05.08a.73.73,0,0,1,.09.35,2.77,2.77,0,0,0,0,.3v.08a.69.69,0,0,1-.22.62l0,0c-.14.12-.24.21-.25.32l0,.28c0,.14,0,.29,0,.43a1.09,1.09,0,0,0,0,.36,1.11,1.11,0,0,1,0,.28s0,.08,0,.11a.62.62,0,0,0,0,.25.69.69,0,0,1-.34.82c-.21.12-.27.19-.28.26l-.06.29a3.53,3.53,0,0,1-.08.4.62.62,0,0,0,.14.4v0a.67.67,0,0,1,0,.66l0,.06a1.43,1.43,0,0,0-.13.28.68.68,0,0,1-.15.26L66,48.3a1,1,0,0,0-.24.31,1.08,1.08,0,0,0,0,.36c0,.11,0,.19,0,.26a.94.94,0,0,1,0,.16.64.64,0,0,0,0,.23.7.7,0,0,1-.37.83c-.19.09-.23.15-.25.2l-.19.51-.07.16a1,1,0,0,0-.05.35,1.57,1.57,0,0,1,0,.28l0,.1a.93.93,0,0,0,0,.32.71.71,0,0,1-.48.63c-.18.07-.29.12-.34.21a1,1,0,0,0-.07.35,1.78,1.78,0,0,1,0,.26.58.58,0,0,1-.05.14,2.11,2.11,0,0,0-.1.3,1.81,1.81,0,0,1-.13.35,1,1,0,0,0-.08.35,1.31,1.31,0,0,1,0,.25.75.75,0,0,1-.08.18c0,.06-.08.15-.12.24A2.16,2.16,0,0,1,63,56a1.2,1.2,0,0,0-.11.35c0,.07,0,.11,0,.16a.71.71,0,0,1-.28.38l-.08,0a.85.85,0,0,0-.3.25,2.13,2.13,0,0,1-.26.27,2,2,0,0,0-.24.26l-.16.24a3.53,3.53,0,0,1-.24.35,1.34,1.34,0,0,1-.27.26,1.2,1.2,0,0,0-.26.24.71.71,0,0,1-.32.23,1.18,1.18,0,0,0-.28.2,1,1,0,0,0-.13.35.73.73,0,0,1-.45.54.73.73,0,0,0-.35.18s-.06.07-.06.24a.69.69,0,0,1-.67.72.31.31,0,0,0-.23.08s-.08.1-.09.3a.7.7,0,0,1-.6.65.53.53,0,0,0-.27.1.73.73,0,0,0-.17.34l0,.1a.61.61,0,0,1-.18.27,2.09,2.09,0,0,0-.2.22l-.19.2a.73.73,0,0,1-.31.17l-.1,0a.78.78,0,0,0-.38.13.5.5,0,0,0-.15.26.7.7,0,0,1-.67.5h-.13a.37.37,0,0,0-.22,0c-.08.05-.12.16-.17.34a.7.7,0,0,1-.58.51.91.91,0,0,0-.33.1.9.9,0,0,0-.24.27.85.85,0,0,1-.61.34.91.91,0,0,0-.4.06l0,0a1.54,1.54,0,0,1-.3.09,1.29,1.29,0,0,0-.35.1,1.87,1.87,0,0,1-.32.15l-.32.15a1.37,1.37,0,0,1-.34.1,2,2,0,0,0-.35.1.76.76,0,0,0-.25.3l0,.07a.72.72,0,0,1-.24.25.66.66,0,0,0-.19.18.72.72,0,0,1-.56.28.8.8,0,0,1-.26,0,.68.68,0,0,0-.26-.07l-.08,0-.13,0L48,68a1.11,1.11,0,0,0-.38,0,3,3,0,0,0-.31.15,1.81,1.81,0,0,1-.33.15,1.29,1.29,0,0,1-.36.06,3.43,3.43,0,0,0-.34.06,1.31,1.31,0,0,0-.31.17,1,1,0,0,1-.26.15.11.11,0,0,1-.08,0,.73.73,0,0,0-.28.25l-.05.06a.77.77,0,0,1-.34.22l-.23.07-.37.11a2.07,2.07,0,0,0-.33.1l-.11,0a1,1,0,0,1-.24,0,.68.68,0,0,1-.38-.12.86.86,0,0,0-.38-.18h0a1.31,1.31,0,0,0-.33.12,1.39,1.39,0,0,1-.34.12,1,1,0,0,0-.33.15,1.79,1.79,0,0,1-.24.12.32.32,0,0,1-.14,0l-.3.1a.81.81,0,0,1-.27,0,.79.79,0,0,1-.45-.13h0a.66.66,0,0,0-.36-.19,1.8,1.8,0,0,0-.36.06l-.36.06a.62.62,0,0,0-.33.22l0,0a.72.72,0,0,1-.39.19l-.24,0-.37,0a.69.69,0,0,0-.28.08A.72.72,0,0,1,37.43,70.59Z" style="fill:#e9c28c"/><path d="M40.31,63.83a.72.72,0,0,1-.44-.16c-.15-.11-.25-.19-.36-.19a1.43,1.43,0,0,1-.35-.06,1.51,1.51,0,0,0-.36-.06.63.63,0,0,0-.36.19.75.75,0,0,1-.46.15.55.55,0,0,1-.18,0l-.07,0a1.68,1.68,0,0,0-.36-.08l-.34,0-.37-.06h0a.63.63,0,0,0-.32.09.8.8,0,0,1-.3.06.66.66,0,0,1-.48-.19.61.61,0,0,0-.3-.19l-.14,0-.18-.09a1.16,1.16,0,0,0-.36-.14h-.52l-.2,0-.65-.12h-.08a.78.78,0,0,0-.35.14.85.85,0,0,1-.41.12.58.58,0,0,1-.19,0L31.84,63a.71.71,0,0,1-.41-.33c-.12-.22-.2-.35-.31-.38h-.36l-.2,0a.54.54,0,0,1-.22,0,1.15,1.15,0,0,1-.27-.13c-.11-.05-.22-.11-.33-.15h-.07a.64.64,0,0,0-.2,0,.67.67,0,0,1-.24,0,.71.71,0,0,1-.62-.36c-.09-.15-.15-.19-.2-.21a1.34,1.34,0,0,0-.35-.05,1.26,1.26,0,0,1-.3,0l-.07,0a.58.58,0,0,0-.21,0h-.3a.93.93,0,0,1-.24,0,1.28,1.28,0,0,0-.34-.06.8.8,0,0,1-.63-.36c-.09-.15-.15-.26-.25-.3a.2.2,0,0,0-.11,0,1,1,0,0,0-.31.07.77.77,0,0,1-.27,0,.59.59,0,0,1-.27-.05l-.15-.06-.31-.14A.68.68,0,0,1,24,60.2L24,60.12a.88.88,0,0,0-.27-.3,1.69,1.69,0,0,0-.34-.1,1.16,1.16,0,0,1-.31-.08l0,0a1.19,1.19,0,0,0-.3-.08.69.69,0,0,1-.59-.57c0-.24-.08-.34-.15-.38a2.2,2.2,0,0,0-.31-.15,2.5,2.5,0,0,1-.33-.17.29.29,0,0,0-.16,0l-.26,0-.17,0a.71.71,0,0,1-.36-.09l-.2-.1a2.57,2.57,0,0,1-.61-.41l-.23-.21a.75.75,0,0,1-.21-.26l0-.08a1,1,0,0,0-.21-.36,2.2,2.2,0,0,1-.27-.26,1.9,1.9,0,0,0-.24-.25,2.83,2.83,0,0,1-.25-.24,3.17,3.17,0,0,0-.26-.26,1.2,1.2,0,0,0-.31-.18,1.82,1.82,0,0,1-.28-.14l-.06,0L17,55.13l-.25-.25a2.11,2.11,0,0,1-.23-.3,1.46,1.46,0,0,0-.21-.28,1.21,1.21,0,0,1-.21-.3,1.57,1.57,0,0,0-.2-.3,1,1,0,0,0-.32-.18l-.17-.08a.48.48,0,0,1-.16-.12.94.94,0,0,0-.35-.16l-.09,0a.69.69,0,0,1-.33-.22l-.2-.25-.19-.24a2,2,0,0,1-.2-.32,2.2,2.2,0,0,0-.19-.3c-.07-.09-.13-.19-.19-.28l-.16-.25a.64.64,0,0,1-.13-.37v-.06a.79.79,0,0,0-.08-.41.67.67,0,0,0-.32-.21l-.1,0a.68.68,0,0,1-.24-.2,1.67,1.67,0,0,0-.23-.23,1.34,1.34,0,0,1-.24-.23,1.19,1.19,0,0,1-.09-.15,1.91,1.91,0,0,1-.06-.21,1.67,1.67,0,0,0-.09-.31.59.59,0,0,1-.06-.41v-.06a.72.72,0,0,0,0-.4.74.74,0,0,0-.31-.23l-.09,0a.75.75,0,0,1-.25-.22,1.26,1.26,0,0,0-.22-.24.74.74,0,0,1-.23-.7c0-.18.07-.31,0-.4s-.08-.11-.3-.17a.71.71,0,0,1-.51-.77.39.39,0,0,0,0-.25,1.82,1.82,0,0,0-.16-.31,3.53,3.53,0,0,1-.17-.33A.85.85,0,0,0,9.18,44L9.1,44a.65.65,0,0,1-.22-.36c0-.06,0-.14-.05-.22A2,2,0,0,0,8.75,43l-.12-.3-.12-.27a.69.69,0,0,1,0-.4.19.19,0,0,1,0-.07.79.79,0,0,0,0-.4.58.58,0,0,0-.19-.25.7.7,0,0,1-.17-.82.52.52,0,0,0,.08-.34A.64.64,0,0,0,8,39.91a.7.7,0,0,1-.21-.77.63.63,0,0,0,.05-.34c0-.1-.14-.19-.29-.3l0,0a.73.73,0,0,1-.28-.41l-.09-.35a.71.71,0,0,1,.14-.61c.14-.18.24-.31.22-.42a1.08,1.08,0,0,0-.18-.33.77.77,0,0,1-.09-.13A.85.85,0,0,1,7.16,36,1,1,0,0,0,7,35.69a.85.85,0,0,1-.09-.15.76.76,0,0,1-.08-.21A1.15,1.15,0,0,0,6.72,35a.7.7,0,0,1,.09-.76c.13-.17.2-.28.19-.38a2.09,2.09,0,0,0-.08-.34,1.35,1.35,0,0,1-.09-.36c0-.12,0-.25,0-.38v-.07a2.35,2.35,0,0,1,0-.26c0-.13,0-.26,0-.39v-.33c0-.11-.1-.21-.23-.35a.73.73,0,0,1-.18-.66l0-.07c0-.07,0-.15.05-.25A.68.68,0,0,1,6.65,30l.53.47L6.69,30c.15-.15.25-.25.25-.36a1.34,1.34,0,0,0-.05-.35,1.3,1.3,0,0,1,0-.37,1.13,1.13,0,0,1,.05-.32c0-.18,0-.29.06-.39s-.08-.22-.21-.37a.85.85,0,0,1-.2-.51,1.47,1.47,0,0,0,0-.21v-.23a.75.75,0,0,1,.18-.45l.57.42-.53-.46A.74.74,0,0,0,7,26a1.69,1.69,0,0,1,.1-.35,1.46,1.46,0,0,0,.1-.34s0-.09-.09-.24a.7.7,0,0,1,.17-1c.15-.11.16-.17.17-.2a.6.6,0,0,0-.16-.38.7.7,0,0,1,0-.76,1.12,1.12,0,0,0,.16-.33,1.42,1.42,0,0,0,0-.36,1.58,1.58,0,0,1,0-.31.31.31,0,0,1,0-.08q0-.15.06-.33A2.73,2.73,0,0,1,7.58,21a1.69,1.69,0,0,1,.13-.31,2.33,2.33,0,0,0,.15-.36A1.87,1.87,0,0,0,7.94,20l0-.1a.68.68,0,0,1,.44-.52c.19-.08.34-.14.37-.25s0-.09,0-.27a.7.7,0,0,1,.3-.94c.13-.06.16-.11.18-.15a1.37,1.37,0,0,0,.08-.35,1.31,1.31,0,0,1,.1-.36,1.78,1.78,0,0,0,.09-.33,1.73,1.73,0,0,1,.11-.36,1.38,1.38,0,0,1,.22-.31,1.49,1.49,0,0,0,.2-.29,1.94,1.94,0,0,1,.23-.29,1.42,1.42,0,0,0,.22-.28,1.85,1.85,0,0,1,.22-.29,1.49,1.49,0,0,0,.23-.28,1.73,1.73,0,0,0,.14-.31,3.68,3.68,0,0,1,.16-.34s0-.1,0-.27a.71.71,0,0,1,.49-.82.37.37,0,0,0,.23-.13.34.34,0,0,0,0-.24A.74.74,0,0,1,12.1,12a.72.72,0,0,1,.46-.28c.19,0,.22-.07.24-.1a.91.91,0,0,0,.12-.35c0-.06,0-.1,0-.14a.58.58,0,0,1,.12-.25,1.91,1.91,0,0,0,.15-.28l0-.09a.7.7,0,0,1,.51-.39.65.65,0,0,0,.39-.14,2.83,2.83,0,0,0,.2-.28,2.61,2.61,0,0,1,.23-.3.68.68,0,0,0,.14-.31.69.69,0,0,1,.58-.52.57.57,0,0,0,.34-.12s.06-.06.07-.22a.69.69,0,0,1,.23-.5.74.74,0,0,1,.47-.18h.12a.22.22,0,0,0,.17,0l.3-.23.27-.2.24-.22a3.23,3.23,0,0,1,.29-.25c.09-.07.11-.22.13-.42a.76.76,0,0,1,.29-.53l.43-.31A1.79,1.79,0,0,1,19,5.18,1.87,1.87,0,0,0,19.32,5a1.05,1.05,0,0,0,.24-.27l.05-.08a.71.71,0,0,1,.5-.28h.06a.86.86,0,0,0,.38-.08.84.84,0,0,0,.23-.23.69.69,0,0,1,.57-.29.64.64,0,0,1,.2,0,1.41,1.41,0,0,0,.27.05.18.18,0,0,0,.11,0,.75.75,0,0,0,.26-.27.7.7,0,0,1,.59-.31H23a.58.58,0,0,0,.2,0,.66.66,0,0,0,.25-.32l0-.06a.73.73,0,0,1,.27-.28.91.91,0,0,0,.24-.2l.1-.08a.65.65,0,0,1,.46-.18h.24a.59.59,0,0,0,.25,0l.06,0a1.26,1.26,0,0,1,.3,0l.32,0a.63.63,0,0,1,.19,0l.16,0,.06,0a2.07,2.07,0,0,0,.3.05l.11,0c.06,0,.12-.07.21-.26a.7.7,0,0,1,.63-.4.58.58,0,0,1,.19,0l.18,0h.09l.35-.08.35-.07.31-.09.37-.11a1.12,1.12,0,0,0,.33-.16A1.1,1.1,0,0,1,29.8.79l.13,0a1.14,1.14,0,0,0,.3-.14A.87.87,0,0,1,30.61.5.75.75,0,0,1,31,.6a.78.78,0,0,0,.35.14.89.89,0,0,0,.37-.16L31.82.5a.73.73,0,0,1,.33-.08h0a.57.57,0,0,1,.18,0l.3,0h.17a.8.8,0,0,1,.3.06,1.35,1.35,0,0,0,.29,0h.06a.49.49,0,0,0,.25-.15.69.69,0,0,1,.47-.18.75.75,0,0,1,.41.12.42.42,0,0,0,.27.12.93.93,0,0,0,.36-.14.52.52,0,0,1,.12-.07A.57.57,0,0,1,35.62.2,1,1,0,0,0,36,.1a.76.76,0,0,1,.3,0,.73.73,0,0,1,.39.1A.82.82,0,0,0,37,.34a1.17,1.17,0,0,0,.35-.08l.13,0a.55.55,0,0,1,.18,0A.81.81,0,0,1,38,.28l0,0a1,1,0,0,0,.36.15c.05,0,.12,0,.24-.13a.66.66,0,0,1,.48-.19.7.7,0,0,1,.5.21c.1.1.16.12.2.12h0c.12,0,.24-.12.37-.25A.7.7,0,0,1,40.74,0,.75.75,0,0,1,41,.05a1.12,1.12,0,0,0,.33.1,3.47,3.47,0,0,1,.45.06l.22,0a.75.75,0,0,1,.25.09l.12.07a.9.9,0,0,0,.35.18c.11,0,.22,0,.33,0l.38,0h0a.57.57,0,0,0,.21-.06.75.75,0,0,1,.26,0,.69.69,0,0,1,.6.34c.12.19.19.23.24.24h.07a1,1,0,0,0,.3-.06l.11,0a.58.58,0,0,1,.19,0l.16,0,.62.15h.09a1.6,1.6,0,0,0,.29-.05l.1,0a.5.5,0,0,1,.17,0,.76.76,0,0,1,.21,0l.23.08.36.13a1.75,1.75,0,0,1,.32.12l.22.09a.67.67,0,0,1,.38.34l-.6.36.62-.32c.09.18.16.3.27.34l.33.08a2.36,2.36,0,0,1,.36.09,1.08,1.08,0,0,0,.36,0l.29,0,.09,0,.29.1.28.1a.64.64,0,0,1,.31.23l0,.06a.83.83,0,0,0,.28.28h.06a.94.94,0,0,0,.4-.17.78.78,0,0,1,.36-.1.7.7,0,0,1,.43.15,2.08,2.08,0,0,0,.29.19l.29.13.37.17a.69.69,0,0,1,.27.24.94.94,0,0,0,.27.26l.31.14a2,2,0,0,1,.29.14.55.55,0,0,1,.22.18.44.44,0,0,1,.08.11.94.94,0,0,0,.26.29,1,1,0,0,0,.35.1.81.81,0,0,1,.51.31h0a.83.83,0,0,1,.07.13.64.64,0,0,0,.2.33,1,1,0,0,0,.33.13,2.43,2.43,0,0,1,.28.1l.08,0a1.34,1.34,0,0,0,.32.14,1.3,1.3,0,0,1,.27.1l.09.06a1,1,0,0,0,.33.12l.24.08a.56.56,0,0,1,.15.1l.41.33a.7.7,0,0,1,.26.43l-.69.17.69-.12a.71.71,0,0,0,.14.39,1.62,1.62,0,0,0,.32.17l.15.06a.73.73,0,0,1,.33.32,1,1,0,0,0,0,.1,1.08,1.08,0,0,0,.19.34.53.53,0,0,0,.26.11.71.71,0,0,1,.56.69c0,.21,0,.28.08.32a.89.89,0,0,0,.31.19l.12.05a.66.66,0,0,1,.31.33l.06.13a1.08,1.08,0,0,0,.17.34,1,1,0,0,0,.31.2l.14.07a.77.77,0,0,1,.26.28c0,.05.06.13.08.19a1.54,1.54,0,0,0,.17.31,2.62,2.62,0,0,0,.22.25,2.82,2.82,0,0,1,.25.29,1,1,0,0,0,.3.21l.14.08a.61.61,0,0,1,.2.19s.25.34.33.47a.65.65,0,0,1,.13.38v.07a.68.68,0,0,0,.07.39.74.74,0,0,0,.33.22l.07,0a.62.62,0,0,1,.29.24l.19.21a1.84,1.84,0,0,1,.24.3c.08.13.15.26.22.39l.13.25a1.32,1.32,0,0,0,.22.26.72.72,0,0,1,.12.78c-.1.22-.15.36-.1.45a.84.84,0,0,0,.27.26L67,18a.71.71,0,0,1,.19.23,1.57,1.57,0,0,0,.19.26,1.68,1.68,0,0,1,.2.28,3.34,3.34,0,0,0,.17.33l.09.15a.73.73,0,0,1,.05.56.69.69,0,0,0-.06.44,1.68,1.68,0,0,0,.15.3,2.14,2.14,0,0,1,.17.34,3,3,0,0,0,.15.31,2.52,2.52,0,0,1,.16.34c0,.12.07.24.11.36l.09.33a1.77,1.77,0,0,1,.07.36,2,2,0,0,0,0,.35c0,.11.08.21.13.32a2.19,2.19,0,0,1,.13.35c0,.06.07.12.24.23a.71.71,0,0,1,.31.82.46.46,0,0,0,0,.29.8.8,0,0,0,.24.32.81.81,0,0,1,.27.45,1.52,1.52,0,0,1,0,.21l0,.17a.72.72,0,0,1-.17.58c-.18.2-.29.33-.28.44s0,.12.21.24a.7.7,0,0,1,.21.89.42.42,0,0,0-.07.26.54.54,0,0,0,.14.27.71.71,0,0,1,0,.85.47.47,0,0,0-.13.31c0,.08.07.16.21.29a.7.7,0,0,1,.18.83.74.74,0,0,0-.08.29l0,.72a.63.63,0,0,0,.1.29.71.71,0,0,1-.11.83c-.14.14-.19.22-.19.31s.08.21.2.36a.87.87,0,0,1,.21.48,1.62,1.62,0,0,0,0,.22,2,2,0,0,1,0,.23.68.68,0,0,1-.15.45l0,0a.73.73,0,0,0-.2.36,1.34,1.34,0,0,0,0,.35,1,1,0,0,1,0,.33v.05c0,.13,0,.26,0,.39s0,.21,0,.32a.89.89,0,0,0,.1.37l0,.07a.64.64,0,0,1,0,.47,1.39,1.39,0,0,1-.06.19,1.93,1.93,0,0,0-.09.31.85.85,0,0,1-.11.26.86.86,0,0,1-.07.1.9.9,0,0,0-.19.34c0,.11,0,.23.15.39a.8.8,0,0,1,.11.6l-.11.35a.68.68,0,0,1-.34.42c-.22.12-.35.2-.38.31a2.16,2.16,0,0,0,0,.35,1.35,1.35,0,0,1,0,.37,1.55,1.55,0,0,1-.15.33,1.61,1.61,0,0,0-.15.33A.72.72,0,0,0,69,43a.74.74,0,0,1-.16.67,1,1,0,0,0-.24.33s0,.12.05.28a.7.7,0,0,1-.29.89c-.14.08-.18.14-.2.19a1.08,1.08,0,0,0,0,.36.86.86,0,0,1,0,.17.67.67,0,0,1-.15.37l-.1.12a1.09,1.09,0,0,0-.24.3,3,3,0,0,1-.15.31l-.18.33a3,3,0,0,0-.11.32,2.65,2.65,0,0,1-.13.35,1.85,1.85,0,0,0-.12.33,3.62,3.62,0,0,1-.13.35l0,.05a1,1,0,0,1-.2.23,1.56,1.56,0,0,0-.23.28.83.83,0,0,0-.08.36c0,.07,0,.12,0,.17a.83.83,0,0,1-.08.22.77.77,0,0,0-.07.26.71.71,0,0,1-.62.61c-.26,0-.33.07-.37.13s0,.15,0,.4a.72.72,0,0,1-.31.83.71.71,0,0,0-.22.18.93.93,0,0,0-.13.34,2.5,2.5,0,0,1-.08.25.75.75,0,0,1-.21.26l-.12.11-.21.18a.75.75,0,0,1-.34.21h-.06a.78.78,0,0,0-.39.16.63.63,0,0,0-.11.28.7.7,0,0,1-.64.55.49.49,0,0,0-.34.1.69.69,0,0,0-.1.4,1,1,0,0,1-.14.45.58.58,0,0,0-.1.19.71.71,0,0,1-.65.45h-.13a.78.78,0,0,0-.22,0c-.12,0-.16,0-.17,0l-.31.24-.25.2-.41.33-.15.11-.24.24a1.27,1.27,0,0,1-.26.26.77.77,0,0,0-.2.34l0,.08a.78.78,0,0,1-.24.3l-.16.11-.36.26-.27.19a2.45,2.45,0,0,1-.31.23L57,59.4a2.64,2.64,0,0,1-.32.22l-.29.2a2.43,2.43,0,0,1-.31.21,1.43,1.43,0,0,1-.35.12,1.22,1.22,0,0,0-.34.1l-.29.18-.24.14a.67.67,0,0,1-.34.09h-.3a.56.56,0,0,0-.21,0l-.07,0-.29,0a1.69,1.69,0,0,0-.34.08,1.19,1.19,0,0,0-.29.21,1.14,1.14,0,0,1-.23.17l-.09.05a.55.55,0,0,0-.22.23.69.69,0,0,1-.58.31.58.58,0,0,1-.19,0,.93.93,0,0,0-.23,0l-.1,0a.84.84,0,0,0-.29.25l-.06.08a.72.72,0,0,1-.29.2l-.26.1a2.62,2.62,0,0,1-.35.13l-.2,0h-.32a1,1,0,0,0-.22,0,1.54,1.54,0,0,0-.32.15l0,0a.73.73,0,0,1-.35.09.87.87,0,0,1-.31-.07.85.85,0,0,0-.37-.15h0c-.1,0-.19.12-.3.25a.82.82,0,0,1-.53.28H47a1.46,1.46,0,0,0-.37,0,.77.77,0,0,0-.31.14.63.63,0,0,1-.38.11.67.67,0,0,1-.39-.12.65.65,0,0,0-.33-.15.67.67,0,0,0-.36.21l-.06.06a.75.75,0,0,1-.33.17,2,2,0,0,0-.29.1,1.68,1.68,0,0,1-.29.1h-.14a.65.65,0,0,1-.27,0,1.21,1.21,0,0,0-.34-.07H43l-.28-.05a1.88,1.88,0,0,0-.33,0h0a.58.58,0,0,1-.19,0l-.12,0a1.12,1.12,0,0,0-.37-.08.94.94,0,0,0-.37.11l-.17.08a.78.78,0,0,1-.21,0,1.94,1.94,0,0,0-.33.07l-.09,0A.57.57,0,0,1,40.31,63.83Z" style="fill:#cad772"/><path d="M26.11,12.24c0,.11-.08.11-.08.21s.07.11.07.21-.12.11-.12.21.11.11.11.21,0,.11,0,.21v.21c0,.11,0,.11,0,.21s-.1.1-.1.21.09.1.09.21-.13.1-.13.21.29.1.29.21-.26.1-.26.21,0,.1,0,.21-.1.1-.1.21.16.1.16.21-.08.1-.08.21.06.11.06.21.09.11.09.21v.21c0,.11-.11.11-.11.21s.13.11.13.21.11.11.11.21-.14.11-.14.21,0,.11,0,.22.17.1.17.21-.07.1-.07.21,0,.1,0,.21-.17.1-.17.21-.06.1-.06.21,0,.1,0,.21.15.1.15.21.13.1.13.21-.27.1-.27.21.25.1.25.21.08.1.08.21,0,.1,0,.21-.09.1-.09.21-.08.1-.08.21.08.1.08.21,0,.1,0,.21,0,.1,0,.21-.26.1-.26.21.29.1.29.21-.1.1-.1.2,0,.11,0,.21-.18.11-.18.21-.06.11-.06.21,0,.11,0,.21,0,.11,0,.21,0,.11,0,.21.17.11.17.21.12.11.12.21,0,.11,0,.21,0,.11,0,.22-.3.1-.3.21,0,.1,0,.21.12.1.12.21,0,.1,0,.21.09.1.09.21-.23.1-.23.21,0,.1,0,.21.16.11.16.21.17.11.17.21,0,.11,0,.21-.37.11-.37.21.32.11.32.21-.2.11-.2.21.16.11.16.22.12.1.12.21-.39.1-.39.21.27.1.27.21,0,.1,0,.21.1.1.1.21-.16.1-.16.21.14.1.14.21-.23.1-.23.21.19.1.19.21-.18.1-.18.21.17.1.17.21.1.1.1.21-.27.1-.27.21.29.1.29.21-.14.11-.14.21,0,.11,0,.21.07.11.07.21.05.11.05.21-.13.11-.13.21-.1.11-.1.22.2.1.2.21-.12.1-.12.21-.09.1-.09.21.11.1.11.21,0,.1,0,.21.12.11.12.21-.16.11-.16.21-.14.11-.14.21.26.11.26.21-.26.11-.26.21.24.11.24.21-.29.11-.29.21.34.11.34.22,0,.1,0,.21,0,.1,0,.21,0,.1,0,.21-.1.1-.1.21,0,.1,0,.21-.09.11-.09.21.29.11.29.21-.12.11-.12.21.08.11.08.21-.19.11-.19.22,0,.1,0,.21-.11.1-.11.2.25.11.25.21-.28.11-.28.21.22.11.22.22-.22.1-.22.21.05.1.05.21.11.1.11.21-.13.1-.13.21.1.11.1.21.05.11.05.21-.2.11-.2.21.1.11.1.21.21.11.21.21-.13.11-.13.21.06.11.06.21,0,.11,0,.21-.14.11-.14.21,0,.11,0,.21-.17.11-.17.21.16.11.16.21.06.11.06.22,0,.1,0,.21,0,.1,0,.21-.15.1-.15.21.06.1.06.21.27.11.27.21-.15.11-.15.21-.15.11-.15.21.3.11.3.22-.11.1-.11.21.05.1.05.21,0,.1,0,.21-.31.1-.31.21.31.11.31.21-.28.11-.28.21.22.11.22.21-.06.11-.06.22-.16.1-.16.21.3.1.3.21-.3.1-.3.21.08.11.08.21,0,.11,0,.21.3.11.3.22-.24.1-.24.21.23.1.23.21-.31.11-.31.21.24.11.24.21-.23.11-.23.21.21.11.21.21-.24.11-.24.22.05.1.05.21.07.1.07.21.18.11.18.21-.14.11-.14.21.14.11.14.22-.24.1-.24.21.07.1.07.21v.21c0,.11-.07.11-.07.22s.11.1.11.21-.12.11-.12.21.21.11.21.22-.26.1-.26.21.22.11.22.21.13.13.13.2-.34.19-.33.26,0,.17,0,.23.23.09.25.15-.06.2,0,.26l.13.19c0,.06.13.1.17.15s.05.16.1.21.21,0,.26.05.07.14.13.18l.18.12c.07,0,.09.18.15.21s.24-.19.3-.16.1.16.17.17.13.12.2.13.16-.09.23-.08.15.11.22.11.11-.33.18-.34.2.32.27.3l.21-.09c.07,0,.11-.13.18-.16s.1-.11.16-.14.16.07.26,0,0-.27.05-.33.08-.07.18-.12.07-.08.16-.13.16.06.25,0,.2.13.29.08,0-.16.12-.21,0-.25.08-.3.11,0,.2-.07.15.05.24,0,.16.05.25,0,0-.24.07-.3.15,0,.24,0,.17.07.26,0,0-.28,0-.33.16.05.25,0,.1,0,.19-.08.17.07.26,0,.07-.09.16-.14,0-.18.11-.24,0-.17.12-.22a1.08,1.08,0,0,1,.18-.11c.09-.06.19.12.28.07s0-.25.07-.31.27.26.36.21,0-.27.06-.32.23.18.32.13,0-.2.1-.25.08-.07.17-.12,0-.19.11-.24.22.18.31.13.08-.08.17-.13.06-.1.16-.15,0-.16.12-.21.22.18.31.12-.09-.37,0-.42.12,0,.21-.06a1.13,1.13,0,0,0,.18-.12c.09,0,.2.13.29.08s.13,0,.22,0-.05-.31,0-.37.14,0,.23,0,.18.09.27,0,0-.29,0-.35.13,0,.22,0,.22.18.31.13-.07-.34,0-.39.13,0,.22,0l.19-.1c.09-.05.15,0,.24,0s0-.13.14-.18.11,0,.2-.09.06-.1.16-.15l.19-.1c.09,0,.21.18.31.12s0-.12.14-.18,0-.14.13-.19.18.11.28,0,0-.29,0-.35.2.15.3.1,0-.24.07-.3,0-.14.13-.19.27.25.36.2.07-.09.16-.14,0-.16.13-.22.19.13.28.08.08-.07.18-.12,0-.17.12-.22,0-.22.08-.27.19.12.28.06.16.07.25,0,.06-.11.16-.16.05-.12.15-.17.17.1.26,0,0-.25.07-.3.06-.11.16-.16.16.07.25,0,.16.06.25,0,0-.29.05-.34.21.16.3.1,0-.22.09-.27.08-.07.18-.12.13,0,.22,0,.12,0,.21-.05.07-.1.16-.16.06-.11.15-.16.13,0,.22,0,.11,0,.2-.09,0-.12.14-.18l.18-.12c.09-.05.2.14.29.09s-.1-.39,0-.44.16.07.26,0,.14,0,.23,0,0-.15.13-.2.14,0,.23,0l.18-.11c.09-.05.06-.1.15-.15s.21.15.3.1a1.13,1.13,0,0,1,.18-.12c.09,0-.1-.38,0-.43s.19.12.28.07.18.1.28,0,0-.17.11-.22a1.14,1.14,0,0,0,.19-.1c.09,0,.06-.1.15-.16s0-.22.09-.27.22.18.32.12l.18-.09c.1-.06,0-.26.07-.31a1.13,1.13,0,0,1,.18-.12c.09-.06.2.14.3.09a1.62,1.62,0,0,0,.18-.1c.1-.05,0-.21.1-.26s.21.16.3.1,0-.16.12-.21,0-.22.09-.27.29.29.38.24,0-.31,0-.36.11,0,.2-.07.21.15.31.1-.09-.36,0-.41.13,0,.22,0,.15,0,.24,0,.11,0,.2-.07.14,0,.23,0,0-.31,0-.36.22.16.31.11,0-.25.07-.3l.19-.11c.09,0,.25.23.34.18s-.05-.31,0-.36l.19-.1c.09,0,.22.18.32.12s0-.16.12-.21.12,0,.21-.06,0-.15.12-.21.07-.1.16-.16.17.08.26,0,.16.06.25,0-.1-.39,0-.45.12,0,.21-.06.06-.11.15-.17.15,0,.24,0,.2.14.3.09-.05-.29,0-.35.11,0,.2-.06.24.19.33.14,0-.28,0-.33.11,0,.21-.07,0-.2.1-.25.26.25.35.2,0-.31,0-.36.16.06.25,0,0-.14.14-.19.17.08.26,0,.05-.12.15-.17.07-.08.17-.14.11,0,.2-.07,0-.14.14-.19.18.1.27,0,.16.06.25,0,0-.22.09-.27.14,0,.23,0,.1,0,.2-.09,0-.16.12-.22,0-.18.11-.24.24.21.33.15,0-.27.06-.31.05-.14.1-.18.17,0,.22-.06.32.09.36,0,.08-.15.12-.2-.06-.21,0-.27.21-.07.24-.13.08-.14.1-.21-.06-.17-.05-.24-.07-.16-.06-.23.21-.14.21-.21-.34-.13-.34-.2.19-.16.18-.23l0-.22c0-.07-.26-.06-.28-.13s.1-.19.07-.25-.13-.09-.17-.15-.1-.09-.14-.15.07-.23,0-.28-.17,0-.22-.09,0-.2-.08-.25-.2,0-.26,0,0-.19-.09-.25-.19.11-.28.05-.1,0-.19-.09,0-.13-.13-.19,0-.18-.1-.24-.23.17-.32.11.07-.29,0-.35-.2.12-.29.07,0-.18-.1-.24-.07-.09-.16-.14-.24.18-.33.12,0-.12-.14-.18,0-.13-.13-.18-.15,0-.24,0-.15.05-.24,0,0-.19-.09-.25-.17.07-.26,0,0-.18-.1-.24-.1,0-.19-.08,0-.18-.1-.24-.08-.07-.17-.13-.22.15-.31.09.06-.28,0-.34-.16.05-.24,0-.15,0-.24,0a1.77,1.77,0,0,1-.17-.12c-.09-.05,0-.24-.06-.29s-.2.11-.29.06-.07-.08-.16-.14-.11,0-.2-.08-.08-.07-.17-.13-.12,0-.21-.05a1.77,1.77,0,0,0-.17-.12l-.18-.11c-.09-.06,0-.25-.06-.31s-.23.17-.32.11,0-.21-.08-.27-.19.12-.28.06l-.19-.09c-.09-.06-.08-.08-.17-.13s.06-.28,0-.34A1.77,1.77,0,0,0,53,25c-.09-.06-.06-.11-.15-.17s-.16.06-.25,0-.14,0-.23,0,0-.19-.09-.25-.06-.1-.15-.16-.1,0-.19-.08-.25.2-.34.15.07-.32,0-.38L51.38,24c-.09-.06-.15,0-.24,0s-.12,0-.21-.06-.15.05-.24,0,0-.13-.14-.18,0-.12-.14-.18-.06-.09-.15-.14l-.17-.13c-.09,0-.2.11-.28.05s-.14,0-.23-.05.12-.37,0-.43-.22.15-.31.09l-.18-.11c-.09-.06-.06-.09-.15-.15s0-.22-.08-.27-.26.22-.35.16,0-.23-.07-.29-.2.13-.29.07,0-.26,0-.32-.19.1-.28.05,0-.25-.05-.31-.21.13-.3.08-.12,0-.21-.06,0-.22-.08-.28,0-.15-.11-.21l-.18-.11c-.09-.06-.28.24-.37.18s.12-.38,0-.44-.2.12-.28.06-.12,0-.21-.07,0-.24-.06-.3-.12,0-.21-.07-.19.1-.28,0-.14,0-.23,0,0-.21-.07-.27-.21.12-.29.07-.06-.12-.15-.17.05-.28,0-.33-.16.05-.25,0-.11,0-.2-.08,0-.25-.06-.3-.17.07-.26,0-.08-.07-.17-.12-.08-.08-.17-.13-.13,0-.22-.05,0-.12-.14-.17-.13,0-.22-.05,0-.22-.07-.27-.16.06-.25,0-.22.15-.31.09,0-.13-.13-.18,0-.23-.07-.29-.14,0-.23,0l-.17-.12-.18-.1c-.09-.06,0-.21-.09-.26s-.15,0-.23,0l-.17-.13c-.09-.06,0-.13-.13-.19s-.18.08-.27,0-.12,0-.21-.06l-.18-.11c-.09-.06,0-.19-.09-.25s-.19.09-.27,0-.16,0-.25,0,0-.17-.11-.23-.06-.1-.15-.16,0-.18-.1-.24,0-.11-.14-.16-.24.17-.33.12,0-.16-.11-.22,0-.13-.13-.19-.12,0-.21-.07-.1,0-.19-.08-.07-.1-.16-.16-.17.08-.26,0-.13,0-.22,0-.12,0-.21-.06.08-.33,0-.39-.06-.09-.15-.15-.2.12-.29.06-.07-.09-.16-.15,0-.19-.09-.25-.21.14-.3.08,0-.26-.05-.32l-.17-.12c-.09-.06-.16.05-.25,0l-.17-.13c-.09-.05-.05-.11-.14-.16s-.13,0-.22-.06-.22.16-.31.1.1-.35,0-.41-.17.06-.25,0,0-.14-.13-.2-.24.18-.33.13.09-.34,0-.4-.25.2-.34.15,0-.22-.08-.27-.16,0-.25,0A1.77,1.77,0,0,1,33.6,13c-.09-.05,0-.2-.09-.26s-.14,0-.23,0-.22.15-.31.1.07-.31,0-.36-.21.13-.3.07.07-.32,0-.37-.22.15-.31.1,0-.12-.14-.18-.13,0-.22,0-.06-.1-.15-.16-.15,0-.24,0,.06-.29,0-.34-.28.24-.37.18.06-.3,0-.35-.14,0-.23,0-.15,0-.24,0,0-.23-.06-.29l-.18-.12c-.09-.05,0-.14-.13-.19s-.18.08-.27,0-.13,0-.22-.05,0-.23-.07-.29-.15,0-.24,0-.08-.15-.14-.18-.26.21-.32.19S29,10,28.92,10s-.18.15-.25.14-.1-.27-.17-.27-.15.12-.22.12-.15-.12-.22-.12-.13.14-.2.15-.17-.09-.24-.07-.12.12-.18.14,0,.26-.1.29-.13,0-.19.06-.16,0-.21,0-.08.12-.13.17-.19,0-.24,0,0,.16-.07.22,0,.16,0,.21-.22,0-.26.1-.09.11-.12.18.1.18.08.24.07.15.06.22-.15.11-.15.18S26.11,12.17,26.11,12.24Z" style="fill:#fff"/></g></g></g></svg>