<svg xmlns="http://www.w3.org/2000/svg" width="18.5mm" height="26.55mm" viewBox="0 0 52.43 75.25"><title>book</title><g id="圖層_2" data-name="圖層 2"><g id="圖層_1-2" data-name="圖層 1"><path d="M27,52.56a1.36,1.36,0,0,1-.78-.24l-.08,0a1.57,1.57,0,0,0-.73-.35,2.23,2.23,0,0,0-.71.17,2.1,2.1,0,0,1-.48.14,1.09,1.09,0,0,1-.26,0,1.5,1.5,0,0,1-.47-.08l-.26-.08a3.91,3.91,0,0,0-.69-.15l-.3-.07-.35-.17a2.71,2.71,0,0,0-.72-.29,1.39,1.39,0,0,1-.51-.2l-.17-.12a2.22,2.22,0,0,0-.62-.3,1.29,1.29,0,0,0-.29,0,3.13,3.13,0,0,0-.42,0l-.43,0a1.38,1.38,0,0,1-.45-.08l-.56-.22-.11,0c-.18-.07-.35-.15-.53-.21l-.57-.18a6.46,6.46,0,0,1-.78-.26c-.18-.08-.37-.14-.56-.21s-.54-.2-.77-.31a4.07,4.07,0,0,0-.61-.24,4.3,4.3,0,0,1-.73-.3,1.41,1.41,0,0,1-.53-.58A2.3,2.3,0,0,0,12,47.7a1.13,1.13,0,0,0-.57-.12h-.33A1.43,1.43,0,0,1,10,47l-.1-.14a3,3,0,0,0-.44-.55,3,3,0,0,0-.58-.4,2.5,2.5,0,0,1-.59-.4,3.3,3.3,0,0,1-.52-.73c-.11-.18-.21-.35-.33-.51a1.34,1.34,0,0,1-.25-.54,1.57,1.57,0,0,1,0-.23,2,2,0,0,0-.21-.74,1.33,1.33,0,0,1-.19-.42A2.87,2.87,0,0,1,6.68,42a2.1,2.1,0,0,0-.2-.72,4.21,4.21,0,0,0-.4-.52,3.44,3.44,0,0,1-.46-.64,1.71,1.71,0,0,0-.55-.51,1.43,1.43,0,0,1-.62-1.31,1.72,1.72,0,0,0,0-.76A1.82,1.82,0,0,0,4,37l-.22-.24a1.26,1.26,0,0,1-.27-.51c-.07-.24-.13-.49-.18-.73l-.13-.58a4.28,4.28,0,0,1-.11-.73c0-.29,0-.5-.09-.71a2.26,2.26,0,0,0-.28-.66l-.15-.26a1.44,1.44,0,0,1-.08-1l.06-.16a2,2,0,0,0,.16-.78,2.64,2.64,0,0,0-.19-.69,2.75,2.75,0,0,1-.18-.57,1.39,1.39,0,0,1,0-.64l.1-.29a2.61,2.61,0,0,0,.16-.7A1.84,1.84,0,0,0,2.43,27a2.28,2.28,0,0,1-.12-.33,1.46,1.46,0,0,1-.06-.51s.06-.74.08-.94A1.43,1.43,0,0,1,3,24.13c.37-.25.62-.42.66-.64a1.5,1.5,0,0,0-.15-.75l-.06-.18a1.27,1.27,0,0,1-.06-.67,2,2,0,0,0-.08-.68.71.71,0,0,1,0-.12,1.4,1.4,0,0,1,.48-1.29,1.63,1.63,0,0,0,.51-.59l.18-.51c.11-.33.2-.6.31-.85s.14-.41.21-.62a3.85,3.85,0,0,1,.16-.48A1.36,1.36,0,0,1,5.7,16L5.79,16a1.61,1.61,0,0,0,.62-.51,2.78,2.78,0,0,0,.23-.65,3.07,3.07,0,0,1,.21-.61l.08-.12a2,2,0,0,0,.21-.68c0-.15.05-.26.08-.36a1.15,1.15,0,0,1,.21-.43c.11-.16.21-.33.31-.5a4.91,4.91,0,0,1,.47-.68,2.77,2.77,0,0,1,.61-.51,3.8,3.8,0,0,0,.55-.42l.28-.3.53-.55a1.43,1.43,0,0,1,.92-.4,1.57,1.57,0,0,0,.84-.2,1.53,1.53,0,0,0,.38-.66l.07-.18a1.32,1.32,0,0,1,.4-.56,1.61,1.61,0,0,0,.34-.4,1.44,1.44,0,0,1,1.17-.62,1.5,1.5,0,0,1,.47.08,2,2,0,0,0,.58.14.39.39,0,0,0,.2-.05,2,2,0,0,0,.53-.48A2.71,2.71,0,0,1,16.34,6a1.56,1.56,0,0,1,.34-.23,1.51,1.51,0,0,0,.47-.5,1.42,1.42,0,0,1,1.17-.62,1.24,1.24,0,0,1,.33,0,2.09,2.09,0,0,0,.49.08.54.54,0,0,0,.22,0A3.61,3.61,0,0,0,20,4.51a3.92,3.92,0,0,1,.74-.29l.42-.12c.36-.1.67-.19,1-.26.54-.11,1-.21,1.43-.28a1.35,1.35,0,0,0,.62-.4,1.41,1.41,0,0,1,1-.38,1.51,1.51,0,0,1,.62.14,1.55,1.55,0,0,0,.65.21A3,3,0,0,0,27.13,3a2.44,2.44,0,0,1,.6-.17l.2,0h0a4.06,4.06,0,0,1,.73.12,3.38,3.38,0,0,0,.69.1l.26,0,.43.15a2.87,2.87,0,0,0,.74.22h.15a3.68,3.68,0,0,0,.56-.06,4.13,4.13,0,0,1,.55,0h.19c.24,0,.47,0,.69.05a4.61,4.61,0,0,1,.81.07,5.58,5.58,0,0,1,.77.25c.17.06.34.13.52.18a1.38,1.38,0,0,1,.61.37l.1.11a1.69,1.69,0,0,0,.63.51.41.41,0,0,0,.16,0,1.35,1.35,0,0,0,.39-.08,1.48,1.48,0,0,1,.46-.08,1.43,1.43,0,0,1,1.27.78c.15.31.27.4.36.44a3.59,3.59,0,0,1,.67.42c.17.12.34.24.53.35a.35.35,0,0,0,.17,0,1.22,1.22,0,0,0,.33-.07,1.46,1.46,0,0,1,1.13.1,1.44,1.44,0,0,1,.69.89c.07.27.16.34.2.37a1.64,1.64,0,0,0,.72.2l.21,0a1.41,1.41,0,0,1,.59.25,2.46,2.46,0,0,0,.62.26l.28.09a1.45,1.45,0,0,1,.62.47,3.82,3.82,0,0,1,.29.42,3.19,3.19,0,0,0,.39.55c.24.27.47.57.7.85a1.44,1.44,0,0,1,.27,1.12,1.36,1.36,0,0,0,0,.86,1.25,1.25,0,0,0,.63.38A1.44,1.44,0,0,1,49,14.73a2,2,0,0,0,.15.65,2.63,2.63,0,0,0,.42.54,2.76,2.76,0,0,1,.38.47l.09.18a3.54,3.54,0,0,0,.32.55l.1.16a1.37,1.37,0,0,1,.12,1.3.14.14,0,0,1,0,.06,1.24,1.24,0,0,0-.17.78,1.69,1.69,0,0,0,.41.6l.12.13a1.4,1.4,0,0,1,.36.8c0,.12,0,.28,0,.44a6.76,6.76,0,0,0,0,.69,1.32,1.32,0,0,0,.5.65,1.68,1.68,0,0,1,.54,1c0,.14,0,.78,0,.78a1.43,1.43,0,0,1-.39,1c-.31.33-.5.55-.5.77a3.62,3.62,0,0,0,.09.66,3.18,3.18,0,0,1,.09.76,1.14,1.14,0,0,0,.22.61A1.42,1.42,0,0,1,51.8,30a1.16,1.16,0,0,0-.32.55,6.18,6.18,0,0,0-.07.62,5.55,5.55,0,0,1-.09.8,4.41,4.41,0,0,1-.26.72,5.19,5.19,0,0,0-.23.62l-.11.45c-.08.32-.16.62-.26.93a2.32,2.32,0,0,0-.07.7,3,3,0,0,1,0,.57,1.41,1.41,0,0,1-.38.71l-.08.1a3.32,3.32,0,0,0-.41.59c-.08.2-.14.41-.21.62a3.78,3.78,0,0,1-.26.74,4.32,4.32,0,0,0-.24.63,3.07,3.07,0,0,1-.29.72,3.9,3.9,0,0,0-.26.64l-.1.27a1.47,1.47,0,0,1-.83.83,1.8,1.8,0,0,0-.75.41,1.34,1.34,0,0,1-.69.49,1.83,1.83,0,0,0-.49.36,1.72,1.72,0,0,0-.28.68c0,.11,0,.17-.06.24a1.32,1.32,0,0,1-.3.51,4.11,4.11,0,0,0-.34.51,2.92,2.92,0,0,1-.4.56,2,2,0,0,0-.44.69,1.42,1.42,0,0,1-1.28.84,1.26,1.26,0,0,0-.73.14,2.22,2.22,0,0,0-.48.53,3.68,3.68,0,0,1-.33.41,1.31,1.31,0,0,1-.28.2c-.23.14-.53.3-.84.46l-.21.11a1.37,1.37,0,0,1-.66.16l-.52,0a1.14,1.14,0,0,0-.47.08l-.11,0a2.65,2.65,0,0,1-.59.12,3.5,3.5,0,0,0-.69.15,2.89,2.89,0,0,0-.58.35,2.25,2.25,0,0,1-.54.34l-.12.05a3.51,3.51,0,0,1-.66.14,7.11,7.11,0,0,0-.72.14,1.79,1.79,0,0,0-.61.37l-.19.16a1.5,1.5,0,0,1-.84.27h0l-.36,0-.4,0-.31,0a2.78,2.78,0,0,0-.64.24,3.06,3.06,0,0,1-.61.22l-.12,0a2,2,0,0,0-.66.27,3,3,0,0,1-.35.18,1.44,1.44,0,0,1-.42.11,4.49,4.49,0,0,0-.61.09,3.76,3.76,0,0,1-.43.08Z" style="fill:#eac38d"/><path d="M18.89,47.17a1.43,1.43,0,0,1-1.24-.72c-.23-.42-.37-.58-.54-.62H17a1,1,0,0,0-.43.14,1.5,1.5,0,0,1-.61.14,1.4,1.4,0,0,1-1.15-.59.84.84,0,0,0-.39-.34c-.2-.07-.4-.12-.59-.17a4.75,4.75,0,0,1-.75-.24,2.84,2.84,0,0,0-.67-.14,2.53,2.53,0,0,1-.57-.12l-.19-.08c-.16-.08-.34-.15-.52-.22a5.78,5.78,0,0,1-.74-.35,1.63,1.63,0,0,0-.72-.16l-.24,0a1.38,1.38,0,0,1-.65-.26c-.35-.25-.69-.53-1-.79l-.14-.12A3.72,3.72,0,0,1,7.25,42a3.32,3.32,0,0,0-.3-.42,1.43,1.43,0,0,1-.34-.81v-.11a1.17,1.17,0,0,0-.2-.76,3.74,3.74,0,0,0-.47-.43,3.12,3.12,0,0,1-.56-.53,2.26,2.26,0,0,0-.53-.44,2.56,2.56,0,0,1-.42-.33,1,1,0,0,1-.19-.22,2.43,2.43,0,0,0-.46-.44,3.78,3.78,0,0,1-.43-.4A1.54,1.54,0,0,1,3,36.33l0-.14a2.67,2.67,0,0,0-.19-.66,1.91,1.91,0,0,0-.5-.53,1.65,1.65,0,0,1-.6-1.24v-.11a2.16,2.16,0,0,0-.05-.73c-.15-.43-.27-.86-.4-1.29a5.58,5.58,0,0,1-.15-.86A4.34,4.34,0,0,0,1,30.14a1.45,1.45,0,0,0-.45-.63A1.47,1.47,0,0,1,.2,28.1a2.45,2.45,0,0,0,.09-.74L.23,26.9l1.39-.33-1.41.19c0-.15,0-.3,0-.45A1.42,1.42,0,0,1,.5,25.23c.26-.31.42-.51.42-.73s-.17-.39-.47-.68A1.41,1.41,0,0,1,.1,22.28a2.62,2.62,0,0,0,.18-.66,2.33,2.33,0,0,0,0-.69c0-.11,0-.26,0-.37a1.49,1.49,0,0,1,.23-.89l.12-.18a1.87,1.87,0,0,0,.37-.67c.1-.46.23-.92.36-1.38a3.08,3.08,0,0,0,.08-.68,1.59,1.59,0,0,1,.78-1.3c.31-.16.54-.29.62-.5l.13-.3c.15-.37.27-.67.42-1l.08-.18c.2-.42.35-.74.54-1.07.05-.1.08-.24,0-.63a1.41,1.41,0,0,1,.77-1.72A1,1,0,0,0,5,9.8a1.68,1.68,0,0,1,.18-.21,3,3,0,0,1,.34-.25,2.37,2.37,0,0,0,.58-.47.9.9,0,0,0,.17-.56A1.42,1.42,0,0,1,7.5,7a1.06,1.06,0,0,0,.55-.21,2.2,2.2,0,0,0,.41-.54,2.59,2.59,0,0,1,.36-.49A1.59,1.59,0,0,1,9,5.66a2.09,2.09,0,0,0,.43-.52,2.8,2.8,0,0,1,.35-.46A1.41,1.41,0,0,1,10,4.5a4.46,4.46,0,0,1,.64-.33c.2-.1.4-.19.58-.3a1.89,1.89,0,0,0,.51-.54,1.53,1.53,0,0,1,1.2-.64H13l.42,0a.9.9,0,0,0,.38-.07,1.27,1.27,0,0,0,.46-.42,1.41,1.41,0,0,1,1.12-.55,1.37,1.37,0,0,1,.52.1,1.51,1.51,0,0,0,.53.13l.16,0a3,3,0,0,1,.74-.1,2.65,2.65,0,0,0,.69-.07,4.16,4.16,0,0,0,.62-.23,3.55,3.55,0,0,1,.73-.26,8.09,8.09,0,0,1,.84-.12L20.82,1c.16,0,.31-.15.55-.47A1.41,1.41,0,0,1,22.51,0a1.46,1.46,0,0,1,.57.12,1.39,1.39,0,0,0,.53.14h.08a3.42,3.42,0,0,1,.66.07,4.61,4.61,0,0,0,.74.09,1.14,1.14,0,0,0,.54-.17,1.41,1.41,0,0,1,.68-.18A1.43,1.43,0,0,1,27.4.58c.28.33.42.39.53.4a3.93,3.93,0,0,1,.75.19c.21.06.42.13.64.17h0A1,1,0,0,0,30,1.06a1.45,1.45,0,0,1,.84-.27,1.43,1.43,0,0,1,1,.38,1.13,1.13,0,0,0,.45.3,3.94,3.94,0,0,1,.72.34,5.39,5.39,0,0,0,.59.29,1.39,1.39,0,0,1,.41.23l.16.16a2.35,2.35,0,0,0,.62.46.31.31,0,0,0,.17,0,1.39,1.39,0,0,0,.44-.11,1.41,1.41,0,0,1,1.77.71.85.85,0,0,0,.3.39,1.57,1.57,0,0,0,.76.14,1.69,1.69,0,0,1,1.1.42l.29.32c.15.17.3.33.46.48a3.73,3.73,0,0,0,.62.36,3.42,3.42,0,0,1,.58.34,1.7,1.7,0,0,1,.19.19,3.19,3.19,0,0,1,.36.57,2.94,2.94,0,0,0,.37.59,1.38,1.38,0,0,0,.46.34,1.42,1.42,0,0,1,.68,1.66c-.14.45-.15.67-.06.81a1.66,1.66,0,0,0,.56.48l.17.1a1.37,1.37,0,0,1,.55.72c0,.11.08.25.12.4a3.61,3.61,0,0,0,.22.68,1.38,1.38,0,0,0,.62.51,1.41,1.41,0,0,1,.72,1.31,2.57,2.57,0,0,0,.06.75,1.39,1.39,0,0,1,.06.4c0,.07,0,.18,0,.3a2.62,2.62,0,0,0,0,.8,2.4,2.4,0,0,0,.32.64,2.68,2.68,0,0,1,.26.51,1.12,1.12,0,0,1,.08.26,2.54,2.54,0,0,0,.25.61,1.47,1.47,0,0,1-.12,1.55,1.26,1.26,0,0,0-.37.73c0,.11.05.25.32.52a1.41,1.41,0,0,1,.1,1.84,1,1,0,0,0-.24.52,1.77,1.77,0,0,0,.18.71,1.52,1.52,0,0,1-.2,1.44,1.71,1.71,0,0,0-.42.69,1.8,1.8,0,0,0,.11.74,3.08,3.08,0,0,1,.09.3,1.51,1.51,0,0,1,0,.52,2.29,2.29,0,0,0,0,.64A1.41,1.41,0,0,1,46,30.32c-.33.19-.53.33-.59.52a1.51,1.51,0,0,0,0,.76l0,.14a1.38,1.38,0,0,1-.18,1l-.22.35a4.44,4.44,0,0,0-.37.6,5.39,5.39,0,0,0-.22.64,3.19,3.19,0,0,1-.27.75,2.31,2.31,0,0,0-.2.67,1.4,1.4,0,0,1-1.14,1.13c-.39.07-.63.14-.75.3a1.59,1.59,0,0,0-.2.73,1.54,1.54,0,0,1-.83,1.19,2.16,2.16,0,0,0-.63.42.79.79,0,0,0-.18.54,1.41,1.41,0,0,1-1.39,1.28.92.92,0,0,0-.54.14,5.1,5.1,0,0,0-.47.46,3.38,3.38,0,0,1-.59.54,1.47,1.47,0,0,0-.39.66,1.77,1.77,0,0,1-.71.84,3.55,3.55,0,0,1-.44.21l-.58.29c-.42.22-.87.44-1.3.64a2.46,2.46,0,0,0-.58.39,1.47,1.47,0,0,1-.92.32,1.39,1.39,0,0,1-.63-.15,1.67,1.67,0,0,0-.67-.23h-.13a2,2,0,0,0-.59.4,1.87,1.87,0,0,1-.24.21,1.49,1.49,0,0,1-.49.24c-.34.09-.68.18-1,.25a1.1,1.1,0,0,1-.31,0,1.39,1.39,0,0,1-.67-.17,1.79,1.79,0,0,0-.73-.26h-.09a1.31,1.31,0,0,0-.62.42,1.43,1.43,0,0,1-1,.41,1.61,1.61,0,0,1-.43-.07,2.21,2.21,0,0,0-.65-.13,2.07,2.07,0,0,0-.73.21,1.79,1.79,0,0,1-.61.12A1.49,1.49,0,0,1,22,46.9l-.08-.06h0a1.42,1.42,0,0,0-.67-.31,1.38,1.38,0,0,0-.72.29,1.86,1.86,0,0,1-.85.28,4.31,4.31,0,0,0-.55,0Z" style="fill:#cbd872"/><path d="M33.93,33.76c-.25.25-.23.35-.58.35s-.36-.57-.72-.57-.36.41-.72.41-.35-.37-.71-.37-.36.2-.72.2-.35.08-.71.08-.36.08-.71.08-.36-.25-.71-.25-.36.09-.71.09-.36.22-.72.22-.36-.18-.72-.18-.35.19-.71.19-.36-.37-.71-.37-.36.31-.72.31-.36.25-.72.25-.36-.49-.72-.49-.35,0-.71,0-.36-.13-.72-.13-.36.31-.72.31-.36.17-.72.17-.36-.22-.71-.22-.36-.09-.72-.09H17.6c-.37,0-.37-.09-.73-.09s-.63.68-.88.43.33-.53.33-.88.14-.36.14-.72-.07-.36-.07-.72-.15-.36-.15-.72,0-.36,0-.71.12-.36.12-.72-.3-.36-.3-.72,0-.36,0-.72.19-.36.19-.71.21-.36.21-.72-.28-.36-.28-.72v-.72c0-.36-.13-.36-.13-.72s-.13-.36-.13-.72.52-.36.52-.72-.39-.35-.39-.71-.22-.36-.22-.71.46-.36.46-.72-.41-.36-.41-.72.15-.36.15-.72-.26-.36-.26-.72.36-.35.36-.71.24-.36.24-.72S16,17,16,16.66s.43-.36.43-.72-.44-.36-.44-.72.26-.36.26-.73-.46-.36-.46-.72.28-.36.28-.72-.2-.36-.2-.72.56-.36.56-.72-.19-.36-.19-.73-.06-.36-.06-.72-.16-.31.09-.57.2.13.55.13.36-.12.72-.12.36,0,.71,0,.36-.42.72-.42.36.32.71.32.36.23.72.23h.71c.35,0,.35-.51.71-.51s.36.07.71.07h.72c.36,0,.36.07.71.07s.36-.05.72-.05.36.21.71.21.36-.2.72-.2.36.45.72.45.36-.46.71-.46.36-.13.72-.13.36,0,.72,0,.36.56.72.56.36-.24.72-.24.35.08.71.08.36-.12.72-.12.36.05.72.05.36-.25.73-.25.54-.15.8.1,0,.44,0,.8-.38.35-.38.71,0,.36,0,.72.56.36.56.72-.43.36-.43.72-.12.36-.12.72,0,.35,0,.71,0,.36,0,.72.25.36.25.72-.1.36-.1.71.24.36.24.72-.44.36-.44.72.55.36.55.72-.38.36-.38.72.13.36.13.72.33.35.33.71-.44.36-.44.71-.15.36-.15.72.59.36.59.72-.59.36-.59.72.19.36.19.72.44.36.44.71-.05.36-.05.72-.14.36-.14.72S34,27,34,27.38s-.3.36-.3.72.11.36.11.72,0,.36,0,.72-.08.36-.08.72.07.36.07.72.48.36.48.72-.58.37-.58.73.4.35.45.71S34.19,33.5,33.93,33.76Z" style="fill:#fff"/><path d="M10.09,14c0,.35.43.35.43.71s-.61.35-.61.71.09.36.09.71,0,.36,0,.72,0,.35,0,.71.06.36.06.71.35.36.35.71,0,.36,0,.72v.71c0,.36-.3.36-.3.71s-.11.36-.11.72.18.35.18.71.25.36.25.71-.08.36-.08.72.14.35.14.7,0,.36,0,.71-.24.36-.24.71-.43.36-.43.72.44.35.44.71-.28.36-.28.72,0,.35,0,.71.29.35.29.71-.17.36-.17.72-.22.35-.22.71.34.36.34.72.07.36.07.72.16.35.16.71.06.36.06.72-.35.35-.35.71.29.36.29.72-.11.36-.11.72.15.36.15.72-.65.39-.62.75c0,0,.09-.06.1-.1,0-.26.32-.44.36-.68s.33-.41.42-.63a2.53,2.53,0,0,1,.38-.58c.15-.21.13-.51.32-.68s.46-.16.68-.29.36-.35.6-.43.4-.56.65-.61.26.18.51.18c.11-.34.33-.25.33-.61s.26-.36.26-.72S14,32.06,14,31.7s.43-.36.43-.72-.19-.36-.19-.72.15-.35.15-.71-.3-.36-.3-.72.29-.36.29-.72-.46-.35-.46-.71.52-.36.52-.72-.35-.36-.35-.72.38-.36.38-.71-.43-.36-.43-.72,0-.36,0-.72.55-.36.55-.72-.28-.35-.28-.71,0-.35,0-.71S14,21.31,14,21s.12-.35.12-.71,0-.36,0-.72.37-.36.37-.72-.22-.36-.22-.72.15-.35.15-.71-.28-.36-.28-.72.27-.36.27-.72-.53-.36-.53-.72.16-.36.16-.72.13-.36.13-.72-.07-.36-.07-.72-.28-.36-.28-.72S14,12,14,11.61s.49-.37.49-.73-.45-.36-.45-.72.23-.38.12-.73c-.26,0-.45.23-.69.28s-.64-.32-.86-.22a4.23,4.23,0,0,0-.68.41,4.27,4.27,0,0,0-.66.45c-.18.18,0,.67-.14.88s-.54.26-.65.49.21.6.13.84-.63.37-.66.62S10.09,13.71,10.09,14Z" style="fill:#fff"/><path d="M14.19,35.55a2.92,2.92,0,0,0-.83,0c-.24.09-.35.47-.55.63s-.62.16-.77.38a3.21,3.21,0,0,0-.28.79c-.07.24.39.54.39.81s-.37.54-.3.78.36.4.5.61a2.1,2.1,0,0,0,.51.52c.2.16.24.66.48.75s.59-.15.85-.15.36-.23.71-.23.35.27.71.27.35.14.7.14.36,0,.71,0,.36-.21.71-.21.36-.21.71-.21.35.53.71.53.35-.4.71-.4.35-.09.7-.09.36,0,.71,0,.35.45.7.45.35-.1.71-.1.35-.22.71-.22.35.14.71.14.35.08.71.08.35.19.7.19.36-.48.71-.48.36-.13.71-.13.36-.07.71-.07.36,0,.71,0,.36.15.72.15.35-.05.71-.05.35.1.71.1.35.27.71.27.36.1.71.1.36-.3.72-.3.35.09.71.09.28,0,.53-.22,0-.18,0-.54.1-.36.1-.72.37-.36.37-.72,0-.37,0-.73-.22-.36-.22-.73,0-.36,0-.72.14-.38-.11-.65-.26-.35-.62-.35-.35,0-.7,0-.36.44-.71.44-.36-.09-.71-.09-.35.21-.71.21-.35-.42-.71-.42-.35.43-.71.43-.35-.66-.7-.66-.36.32-.71.32-.35.18-.71.18-.35-.51-.7-.51-.35.55-.71.55-.35.13-.7.13-.36-.06-.72-.06-.35-.53-.7-.53-.36.3-.71.3-.36.23-.71.23-.36-.07-.71-.07-.36-.27-.71-.27-.36-.27-.71-.27-.36.64-.71.64-.36-.06-.72-.06-.35.08-.71.08-.35-.63-.71-.63-.35.6-.71.6-.36-.53-.71-.53-.36.15-.72.14S14.55,35.55,14.19,35.55Z" style="fill:#fff"/><path d="M37.91,30.78c-.28.26-.53.14-.92.14s-.38-.34-.77-.34-.37.17-.65-.09-.28-.23-.28-.58.32-.36.32-.72-.24-.36-.24-.71.1-.36.1-.72-.07-.36-.07-.72.33-.36.33-.72-.37-.29-.11-.54.21-.26.6-.26.38.35.77.35.72-.79,1-.53-.48.61-.48,1,0,.36,0,.72.58.35.58.71-.63.36-.63.72.47.36.47.72-.14.34,0,.69S38.18,30.53,37.91,30.78Z" style="fill:#fff"/><path d="M37.2,24.07c-.3.27-.55.14-1,.14a.92.92,0,0,1-.78-.33c-.26-.24.15-.33.15-.69s-.33-.36-.33-.71.32-.36.32-.72-.24-.36-.24-.72.1-.36.1-.72-.07-.36-.07-.72,0-.26.24-.5.21,0,.61,0,.55-.58.85-.31-.32.41-.32.77.62.36.62.71-.59.36-.59.72,0,.36,0,.72.58.36.58.72-.72.47-.62.81S37.47,23.83,37.2,24.07Z" style="fill:#fff"/><path d="M24.28,6.68c-.25.27,0,.38,0,.74s0,.37,0,.74,0,.37,0,.73,0,.37,0,.74.11.37.11.74,0,.37,0,.74-.25.36-.25.73-.16.37-.16.74.35.37.35.74.28.37.28.74v.74c0,.37,0,.37,0,.74s-.1.37-.1.74,0,.31.22.38.41.16.57,0,.15-.37.39-.67.42-.16.67-.46.09-.42.34-.72.45-.14.69-.44.19-.35.44-.65.75-.5.95-.22-.16.52,0,.79.06.37.25.65.5.06.7.33.36.16.55.44.19.27.39.55.13.36.33.3.22-.19.22-.44.45-.36.45-.72-.53-.36-.53-.72.37-.36.37-.72-.17-.36-.17-.72,0-.36,0-.72,0-.37,0-.73.23-.36.23-.72-.45-.36-.45-.72,0-.36,0-.72,0-.37,0-.73.07-.36.07-.72.55-.37.55-.73.07-.55-.19-.82S31,7,30.65,7s-.35-.34-.7-.34-.36-.23-.71-.23-.35.2-.71.2-.35-.23-.7-.23-.35.58-.71.58-.35-.47-.7-.47-.36.26-.71.26-.43.26-.77.19S24.53,6.43,24.28,6.68Z" style="fill:#fff"/><path d="M24.28,6.68c-.25.27,0,.38,0,.74s0,.37,0,.74,0,.37,0,.73,0,.37,0,.74.11.37.11.74,0,.37,0,.74-.25.36-.25.73-.16.37-.16.74.35.37.35.74.28.37.28.74v.74c0,.37,0,.37,0,.74s-.1.37-.1.74,0,.31.22.38.41.16.57,0,.15-.37.39-.67.42-.16.67-.46.09-.42.34-.72.45-.14.69-.44.19-.35.44-.65.75-.5.95-.22-.16.52,0,.79.06.37.25.65.5.06.7.33.36.16.55.44.19.27.39.55.13.36.33.3.22-.19.22-.44.45-.36.45-.72-.53-.36-.53-.72.37-.36.37-.72-.17-.36-.17-.72,0-.36,0-.72,0-.37,0-.73.23-.36.23-.72-.45-.36-.45-.72,0-.36,0-.72,0-.37,0-.73.07-.36.07-.72.55-.37.55-.73.07-.55-.19-.82S31,7,30.65,7s-.35-.34-.7-.34-.36-.23-.71-.23-.35.2-.71.2-.35-.23-.7-.23-.35.58-.71.58-.35-.47-.7-.47-.36.26-.71.26-.43.26-.77.19S24.53,6.43,24.28,6.68Z" style="fill:none;stroke:#cbd872;stroke-miterlimit:10;stroke-width:0.75px"/><path d="M14.81,75a5.61,5.61,0,0,1-1.56-.58c-.09,0-.28-.16-.58-.31a3.11,3.11,0,0,1-.74-.52.83.83,0,0,1-.3-.6.61.61,0,0,1,.19-.44.59.59,0,0,1,.44-.2,2.66,2.66,0,0,1,.85.17c.32.11.73.27,1.24.47s.74.3,1,.4a2.16,2.16,0,0,0,.66.13.17.17,0,0,0,.13-.08,19.47,19.47,0,0,0,.1-3v-.78a2.22,2.22,0,0,0-.1-.64l-.91,0-.94,0c-1.32,0-2-.21-2-.63a.32.32,0,0,1,0-.14.35.35,0,0,1,.08-.13,6.2,6.2,0,0,1,1.48-.39c.89-.18,1.47-.29,1.75-.31a1.27,1.27,0,0,0,.4-.12.35.35,0,0,0,.12-.31c0-.07,0-.19,0-.37a.51.51,0,0,0-.1-.39.57.57,0,0,0-.41-.12,4,4,0,0,0-.45,0l-.73,0c-1,0-1.5-.19-1.5-.55,0-.13.17-.25.52-.35s.82-.22,1.41-.35l.48-.11a2,2,0,0,0,.36-.11.79.79,0,0,0,.36-.53,1.56,1.56,0,0,1,.19-.37.42.42,0,0,1,.31-.11q.24,0,.39.33a1,1,0,0,0,.3.35,1.61,1.61,0,0,0,.76.12,3.55,3.55,0,0,1,.91.14.47.47,0,0,1,.3.48.56.56,0,0,1-.28.55,2.41,2.41,0,0,1-.8.19,2.56,2.56,0,0,0-.61.15.32.32,0,0,0-.21.32,1.77,1.77,0,0,0,.08.62.37.37,0,0,0,.27.23,2.36,2.36,0,0,0,.63,0l.65,0c.88,0,1.32.18,1.32.55a.39.39,0,0,1-.1.27.33.33,0,0,1-.25.12v0a3.76,3.76,0,0,1-.54.16,10.45,10.45,0,0,0-1.32.42c-.35.13-.52.27-.52.42,0,.88,0,1.66.05,2.33s.09,1.32.18,2a2,2,0,0,1,0,.33,1.3,1.3,0,0,1-.38,1,1.33,1.33,0,0,1-1,.38A7.42,7.42,0,0,1,14.81,75ZM13.48,64.25a.83.83,0,0,1-.23-.52c0-.22.27-.52.8-.89a11.76,11.76,0,0,1,1.79-1,4.23,4.23,0,0,1,1.34-.45,1,1,0,0,1,.64.18.73.73,0,0,1,.22.61.58.58,0,0,1,0,.21.56.56,0,0,1-.13.18,4.91,4.91,0,0,1-1,.67c-.58.32-1.17.61-1.76.88a4,4,0,0,1-1.12.4A.65.65,0,0,1,13.48,64.25Z" style="fill:#6c6851"/><path d="M32.64,64.37a.17.17,0,0,0,.16,0,1.5,1.5,0,0,0,.32-.39,1.72,1.72,0,0,1,.52-.52A9.57,9.57,0,0,1,36,62.63a11.41,11.41,0,0,1,2.44-.41,2.25,2.25,0,0,1,1.4.36,1.5,1.5,0,0,1,.46,1.25l0,.8a1.62,1.62,0,0,0,.13.76s.12.08.28.1l.52,0a5.79,5.79,0,0,1,1.33.12.59.59,0,0,1,.49.62.37.37,0,0,1-.18.32,1.2,1.2,0,0,1-.41.19l-2,.43c-.08,0-.12.26-.12.76s0,1.08,0,2l0,2c0,1.51-.43,2.27-1.31,2.27a1.52,1.52,0,0,1-.59-.12.4.4,0,0,1-.28-.39.31.31,0,0,1,.08-.22,1.46,1.46,0,0,1,.25-.19.57.57,0,0,0,.31-.27,11.16,11.16,0,0,0,0-1.47l0-1.46c0-.63,0-1.11,0-1.45,0-.1,0-.21,0-.32s0-.23,0-.34c0-.41-.19-.61-.57-.61a1.22,1.22,0,0,0-.48.08.34.34,0,0,0-.18.35l0,1.33c0,.3,0,.75,0,1.35,0,2-.18,3.14-.53,3.3a.93.93,0,0,1-.39.06q-.66,0-.66-.78a.54.54,0,0,1,0-.2,10.23,10.23,0,0,0,.21-2.38v-.74l0-1.16c0-.19,0-.49,0-.88a.42.42,0,0,0-.16,0,1.76,1.76,0,0,0-.52.07.32.32,0,0,0-.2.33,25.47,25.47,0,0,1-.12,3.8A.34.34,0,0,1,35,72c-.34,0-.56-.25-.68-.75a10.62,10.62,0,0,1-.22-2c0-.07,0-.26,0-.59a1.75,1.75,0,0,0-.12-.61A.24.24,0,0,0,33.8,68a.37.37,0,0,0-.16,0,1.32,1.32,0,0,0-.42.09.73.73,0,0,0-.34.2,1.69,1.69,0,0,0-.11.63c0,.35,0,.56,0,.62a14.36,14.36,0,0,1-.18,1.78c-.08.43-.23.64-.45.64s-.41-.39-.41-1.17l0-.92c0-.19,0-.49,0-.9a.92.92,0,0,0-.11-.48.41.41,0,0,0-.38-.18,4.88,4.88,0,0,0-.95.1l-.44.06c-.21,0-.39,0-.54,0a.43.43,0,0,1-.29-.13.37.37,0,0,1-.14-.29q0-.36.48-.54a8.34,8.34,0,0,1,1.39-.35l.58-.12a.59.59,0,0,0,.32-.14,2,2,0,0,0,.12-.88,5.4,5.4,0,0,1,.11-1.17.55.55,0,0,1,.59-.47Zm1.36.08a.36.36,0,0,0-.24.09,1.54,1.54,0,0,0-.17.19l-.12.17a.71.71,0,0,1-.33.22.82.82,0,0,0-.28.15.93.93,0,0,0-.11.53,1.55,1.55,0,0,0,.11.76l.1,0a1.64,1.64,0,0,0,.54-.1.73.73,0,0,0,.4-.25,2.67,2.67,0,0,0,.16-.74c.06-.41.1-.73.11-1A.24.24,0,0,0,34,64.45Zm2.23,1.44a2.06,2.06,0,0,0,.21-.79,4.25,4.25,0,0,1,.07-.48,3.56,3.56,0,0,0,0-.52l-.09,0a2.08,2.08,0,0,0-.46.06c-.18,0-.27.1-.27.17a.8.8,0,0,1-.21.51,2.85,2.85,0,0,0-.21.32,1,1,0,0,0-.06.38c0,.41.12.61.37.61A.66.66,0,0,0,36.23,65.89Zm2.34-.23c.17-.1.25-.34.25-.72l0-.51a1,1,0,0,0-.12-.52.47.47,0,0,0-.43-.18,5.93,5.93,0,0,0-.64,0,.6.6,0,0,0-.37.13c0,.3,0,.67,0,1.1a2.23,2.23,0,0,0,.13.8,1,1,0,0,0,.24,0A1.74,1.74,0,0,0,38.57,65.66Z" style="fill:#6c6851"/></g></g></svg>