<svg xmlns="http://www.w3.org/2000/svg" width="32.05mm" height="21.72mm" viewBox="0 0 90.84 61.57"><title>book</title><g id="圖層_2" data-name="圖層 2"><g id="icon4"><path d="M61.28,61.57a1.44,1.44,0,0,1-.84-.28,1.43,1.43,0,0,0-.66-.32,2.22,2.22,0,0,0-.7.16,2.33,2.33,0,0,1-.49.14l-.23,0h-.12c-.24,0-.54-.05-.85-.08l-.33,0a1.51,1.51,0,0,1-.65-.24l-.14-.1a1.7,1.7,0,0,0-.69-.38l-.12,0a2.42,2.42,0,0,1-.57-.23,3.33,3.33,0,0,0-.64-.24,1.83,1.83,0,0,0-.33,0h-.36l-.36,0a1.24,1.24,0,0,1-.27,0,3.77,3.77,0,0,1-.78-.25,4.5,4.5,0,0,0-.65-.25.91.91,0,0,0-.3,0,3,3,0,0,0-.42,0l-.22,0h-.11a1.42,1.42,0,0,1-.78-.23l-.28-.2a2.77,2.77,0,0,0-.58-.36,3,3,0,0,0-.67-.15,2.61,2.61,0,0,1-.62-.12l-.13,0a2.13,2.13,0,0,0-.7-.13,2,2,0,0,1-.37,0A1.23,1.23,0,0,1,45.9,58c-.17-.09-.37-.16-.56-.24a3.34,3.34,0,0,1-.38-.16,1.39,1.39,0,0,1-.74-.75,1.63,1.63,0,0,0-.44-.75,2.14,2.14,0,0,0-.68-.26,2.14,2.14,0,0,1-.48-.14,1.52,1.52,0,0,1-.59-.47l-.2-.24a5.23,5.23,0,0,0-.45-.49.93.93,0,0,1-.21-.23A1.72,1.72,0,0,1,41,54a2.84,2.84,0,0,0-.42-.64,1.23,1.23,0,0,1-.3-.44l0-.12a2.39,2.39,0,0,0-.37-.7,2.14,2.14,0,0,0-.58-.4,2.7,2.7,0,0,1-.43-.26,1.58,1.58,0,0,1-.28-.3l-.34-.52L37.85,50c-.12-.17-.24-.33-.37-.48A6.93,6.93,0,0,1,37,48.9c-.1-.18-.23-.34-.34-.51a5.29,5.29,0,0,1-.45-.68,4.14,4.14,0,0,0-.38-.55,3.85,3.85,0,0,1-.43-.65,1.35,1.35,0,0,1-.13-.76,2.45,2.45,0,0,0-.11-.7,1.39,1.39,0,0,0-.62-.52,1.46,1.46,0,0,1-.74-1.15v-.17a3.18,3.18,0,0,0-.09-.69,3.11,3.11,0,0,0-.32-.63,2.84,2.84,0,0,1-.3-.61l0-.1a3.31,3.31,0,0,1-.08-.77,4.66,4.66,0,0,0,0-.61,1.42,1.42,0,0,1,0-.58L33,39a1.88,1.88,0,0,0,.15-.75,1.14,1.14,0,0,1,0-.45,2.45,2.45,0,0,1,.08-.29,2,2,0,0,0,.14-.75,5.23,5.23,0,0,0-.15-.66,3.64,3.64,0,0,1-.15-.73,1.46,1.46,0,0,0-.3-.69,1.46,1.46,0,0,1-.05-1.43,1.73,1.73,0,0,0,.27-.72,2,2,0,0,0-.19-.71,1.83,1.83,0,0,1-.11-.29,1.36,1.36,0,0,1-.07-.57c0-.24.06-.48.1-.72s.06-.41.08-.59A4.37,4.37,0,0,1,33,29c.07-.28.12-.49.16-.7a2.2,2.2,0,0,0,0-.72,2.16,2.16,0,0,1,0-.25,1.46,1.46,0,0,1,.28-1,.87.87,0,0,1,.09-.11,2.19,2.19,0,0,0,.4-.67,2.37,2.37,0,0,0,0-.71,2.24,2.24,0,0,1,0-.58,1.4,1.4,0,0,1,.3-.68l.13-.16a2.51,2.51,0,0,0,.36-.6,1.8,1.8,0,0,0,0-.74c0-.14,0-.23,0-.32a1.4,1.4,0,0,1,.11-.53l.34-.85a1.42,1.42,0,0,1,.95-.82c.41-.11.7-.21.8-.4a1.46,1.46,0,0,0,.08-.76v-.17a1.54,1.54,0,0,1,.13-.67,1.76,1.76,0,0,0,.12-.66,1.43,1.43,0,0,1,.86-1.22,1.48,1.48,0,0,0,.63-.4c.11-.14.21-.3.32-.45a8.5,8.5,0,0,1,.52-.7c.13-.17.25-.36.37-.54l.28-.41a1.39,1.39,0,0,1,.75-.51l.1,0a1.59,1.59,0,0,0,.73-.32,2.84,2.84,0,0,0,.4-.56,2.81,2.81,0,0,1,.35-.51l.11-.11a1.87,1.87,0,0,0,.38-.6,2.59,2.59,0,0,1,.16-.3,1.44,1.44,0,0,1,.32-.38c.15-.12.29-.26.43-.39a6.41,6.41,0,0,1,.61-.54,2.92,2.92,0,0,1,.71-.32,3.35,3.35,0,0,0,.64-.28l.4-.25.6-.38a1.42,1.42,0,0,1,.72-.2l.23,0L47.7,8.86l.22-1.4a4,4,0,0,0,.46,0,.65.65,0,0,0,.33-.07,1.47,1.47,0,0,0,.51-.56l.11-.17a1.44,1.44,0,0,1,.5-.45,1.91,1.91,0,0,0,.42-.33,1.39,1.39,0,0,1,1-.4,1.46,1.46,0,0,1,.7.18,1.49,1.49,0,0,0,.65.25l.11,0a1.77,1.77,0,0,0,.6-.39,2.59,2.59,0,0,1,.39-.29,1.4,1.4,0,0,1,.38-.16s.16-.08.43-.38a1.46,1.46,0,0,1,1-.45,1.37,1.37,0,0,1,.52.1,1.72,1.72,0,0,0,.58.15h.1a5,5,0,0,0,.66-.18,4.88,4.88,0,0,1,.75-.2l.49-.07c.36-.06.64-.1.94-.13l.18,0c.46,0,.86-.08,1.26-.1a1.34,1.34,0,0,0,.65-.33,1.47,1.47,0,0,1,.85-.28,1.37,1.37,0,0,1,.73.21,1.54,1.54,0,0,0,.66.26,2.35,2.35,0,0,0,.71-.12,2.47,2.47,0,0,1,.61-.11h.21a3.78,3.78,0,0,1,.7.17,4.23,4.23,0,0,0,.68.17l.23,0A3.65,3.65,0,0,1,67.5,4a2.65,2.65,0,0,0,.72.28l.3,0,.4,0,.41,0,.25,0c.29,0,.53.08.77.1a4.91,4.91,0,0,1,.79.12,4.17,4.17,0,0,1,.67.25l.58.25a1.41,1.41,0,0,1,.59.4l.1.12a1.52,1.52,0,0,0,.59.53.58.58,0,0,0,.19,0A1.41,1.41,0,0,0,74.22,6a1.39,1.39,0,0,1,.4-.06,1.43,1.43,0,0,1,1.29.82c.14.32.26.41.35.45a4.48,4.48,0,0,1,.64.43,4.27,4.27,0,0,0,.54.37.3.3,0,0,0,.17,0A1.1,1.1,0,0,0,77.93,8,1.29,1.29,0,0,1,78.36,8a1.39,1.39,0,0,1,.69.18,1.46,1.46,0,0,1,.69.9.54.54,0,0,0,.19.36,1,1,0,0,0,.57.12h.42a1.42,1.42,0,0,1,.81.26c.14.1.29.18.42.26a3.53,3.53,0,0,1,.67.44,5.3,5.3,0,0,1,.51.64c.1.13.19.27.3.39a1.47,1.47,0,0,1,.32.82v.13a1.45,1.45,0,0,0,.19.79,1.06,1.06,0,0,1,.17.26s.11.25.17.41a2.63,2.63,0,0,0,.31.63,2.07,2.07,0,0,0,.52.46,2.45,2.45,0,0,1,.43.35.92.92,0,0,1,.17.22c.1.14.23.3.36.46a5.57,5.57,0,0,1,.48.63,1.39,1.39,0,0,0,.65.46,1.55,1.55,0,0,1,.84,1l.06.23a4,4,0,0,0,.18.66,1.46,1.46,0,0,1,.1.46,1.71,1.71,0,0,1,0,.32,2.14,2.14,0,0,0,.06.78,1.44,1.44,0,0,0,.59.55,1.88,1.88,0,0,1,.66.77l.16.42a6.6,6.6,0,0,1,.29.79,6.88,6.88,0,0,1,.15.79c.05.27.08.48.12.68a4.89,4.89,0,0,1,.11.78l0,.31a1.43,1.43,0,0,1-.36,1.12c-.34.38-.54.62-.51.84s0,.35.07.53.09.6.11.89a1.31,1.31,0,0,0,.37.69,1.72,1.72,0,0,1,.37,1c0,.22,0,.46,0,.69v.25a1.45,1.45,0,0,1-.35.88l-1.14-.85,1.07.93c-.23.27-.4.47-.41.69a1.3,1.3,0,0,0,.32.75,1.74,1.74,0,0,1,.32.88,2.86,2.86,0,0,0,.13.62,3.29,3.29,0,0,1,.09.32,1.39,1.39,0,0,1,0,.7c0,.13-.12.33-.19.5a4.84,4.84,0,0,0-.23.67q-.1.49-.24,1a1.74,1.74,0,0,1-.68,1c-.41.24-.65.39-.72.61a1.46,1.46,0,0,0,.11.78,1.4,1.4,0,0,1-.34,1.44,2.13,2.13,0,0,0-.43.58,2.64,2.64,0,0,0-.14.7,2.8,2.8,0,0,1-.11.61.77.77,0,0,1-.07.16,3.4,3.4,0,0,0-.2.64l-.06.21a1.42,1.42,0,0,1-.9,1c-.36.13-.62.23-.73.42a1.7,1.7,0,0,0-.16.73v.21a1.43,1.43,0,0,1-.32.76c-.09.11-.22.25-.36.39a5.24,5.24,0,0,0-.44.5,1.34,1.34,0,0,0-.12.81,1.65,1.65,0,0,1-.38,1.11l-.37.38-1.09-.91,1,1-.11.12a1.43,1.43,0,0,1-1,.43c-.47,0-.77,0-.92.19a4.16,4.16,0,0,0-.43.53,3.16,3.16,0,0,1-.49.6,1.16,1.16,0,0,0-.29.6,1.42,1.42,0,0,1-1.3,1.06,1.3,1.3,0,0,0-.65.15c-.17.12-.33.25-.49.38a4.79,4.79,0,0,1-.63.48,3.68,3.68,0,0,1-.7.32,3.51,3.51,0,0,0-.6.26l-.42.24c-.29.17-.55.31-.81.44a2.27,2.27,0,0,0-.55.44,3.36,3.36,0,0,1-.42.35,1.38,1.38,0,0,1-.78.24h-.12a2.63,2.63,0,0,0-.7.13,5.35,5.35,0,0,0-.59.29,3.87,3.87,0,0,1-.68.33,4.39,4.39,0,0,0-.62.29,3.73,3.73,0,0,1-.69.32,3.47,3.47,0,0,0-.63.28l-.24.13a1.52,1.52,0,0,1-.63.14,1.34,1.34,0,0,1-.52-.1,2.21,2.21,0,0,0-.71-.2h-.12a1.23,1.23,0,0,1-.27,0,1.55,1.55,0,0,1-.56-.11,1.9,1.9,0,0,0-.46-.07h-.15a1.63,1.63,0,0,0-.65.34l-.21.15a1.47,1.47,0,0,1-.54.2,3.42,3.42,0,0,0-.6.18,3.06,3.06,0,0,1-.63.19,1.72,1.72,0,0,0-.75.26A1.38,1.38,0,0,1,61.28,61.57Z" style="fill:#eac38d"/><path d="M55.38,55.73l-.5,0c-.29,0-.5-.06-.71-.07-.48,0-1-.08-1.47-.13h-.18a3.51,3.51,0,0,0-.55.05h-.19a1.51,1.51,0,0,1-1.24-.63c-.21-.32-.39-.57-.61-.62l-.21,0a2.32,2.32,0,0,0-.52.07,1.91,1.91,0,0,1-.36.05H48.7a1.49,1.49,0,0,1-.36,0L47.25,54a1.4,1.4,0,0,1-.77-.58,1.64,1.64,0,0,0-.6-.66.61.61,0,0,0-.24,0,2.18,2.18,0,0,0-.54.09,1.34,1.34,0,0,1-.35,0,1.44,1.44,0,0,1-1.07-.48,1.66,1.66,0,0,0-1.26-.67,1.59,1.59,0,0,1-1.19-.86,1.64,1.64,0,0,0-.42-.67,1.4,1.4,0,0,0-.78-.14h-.16a1.38,1.38,0,0,1-.74-.23,4,4,0,0,0-.5-.26,1.43,1.43,0,0,1-.83-1.37c0-.42,0-.69-.12-.83a.89.89,0,0,0-.55-.21,1.42,1.42,0,0,1-1.21-1.34.93.93,0,0,0-.15-.53,4.51,4.51,0,0,0-.4-.47,4.88,4.88,0,0,1-.5-.63,2.57,2.57,0,0,0-.49-.5,2.88,2.88,0,0,1-.43-.42,1.3,1.3,0,0,1-.1-.15c-.1-.17-.22-.34-.34-.51a5.74,5.74,0,0,1-.43-.69,1.82,1.82,0,0,0-.54-.53l-.21-.16a1.41,1.41,0,0,1-.4-.53c-.14-.34-.28-.69-.41-1,0,0-.1-.27-.11-.31a3.39,3.39,0,0,1-.09-.66,2.88,2.88,0,0,0-.06-.55,1.38,1.38,0,0,1,.09-.85l0-.11a1.38,1.38,0,0,0,.18-.79,4.67,4.67,0,0,0-.24-.62,4.77,4.77,0,0,1-.26-.72,2.21,2.21,0,0,0-.28-.65,2.69,2.69,0,0,1-.25-.51,1,1,0,0,1-.06-.25,2.65,2.65,0,0,0-.24-.61,2.91,2.91,0,0,1-.23-.57,1.4,1.4,0,0,1,0-.76l0-.15a3.08,3.08,0,0,0,.09-.72,1.82,1.82,0,0,0-.26-.7L29.84,30a1.38,1.38,0,0,1,0-1.22s0-.09,0-.1a1.82,1.82,0,0,0,.24-.75c0-.42.05-.83.08-1.25l0-.19a3.33,3.33,0,0,1,.12-.69,5.28,5.28,0,0,0,.15-.73,1.48,1.48,0,0,0-.21-.75,1.48,1.48,0,0,1,.08-1.44,2.36,2.36,0,0,0,.34-.7c0-.19.08-.37.11-.55s.07-.35.1-.52a1.47,1.47,0,0,1,.65-.91c.35-.22.57-.37.64-.58s0-.43-.25-.81A1.43,1.43,0,0,1,32,17.24a2.33,2.33,0,0,0,.39-.59,2.91,2.91,0,0,0,.17-.69,3.7,3.7,0,0,1,.07-.38,1.39,1.39,0,0,1,.45-.76l.18-.14a2.44,2.44,0,0,0,.56-.55c.23-.41.48-.81.73-1.2a3.36,3.36,0,0,0,.3-.68l0-.12A1.42,1.42,0,0,1,36,11.22a1.22,1.22,0,0,0,.76-.31l.21-.26c.23-.29.44-.56.68-.83l.16-.19c.27-.3.52-.57.79-.85.08-.08.15-.21.14-.64A1.43,1.43,0,0,1,39.93,6.7a.89.89,0,0,0,.47-.17.92.92,0,0,1,.21-.13A2.43,2.43,0,0,1,41,6.23a2.87,2.87,0,0,0,.7-.31A1.06,1.06,0,0,0,42,5.41a1.42,1.42,0,0,1,1.34-.94h.35a.71.71,0,0,0,.38-.08A2.38,2.38,0,0,0,44.64,4a2.64,2.64,0,0,1,.47-.4l.14-.08a2.26,2.26,0,0,0,.54-.42,3.07,3.07,0,0,1,.45-.37l.22-.11a3.72,3.72,0,0,1,.61-.18,5.68,5.68,0,0,0,.73-.2,2,2,0,0,0,.59-.44,1.55,1.55,0,0,1,1-.41,1.24,1.24,0,0,1,.33,0l.08,0a2.2,2.2,0,0,0,.56.11l.18,0a1.38,1.38,0,0,0,.51-.34,1.39,1.39,0,0,1,1-.39,1.51,1.51,0,0,1,.71.19,1.18,1.18,0,0,0,.57.21l.31,0,.48,0a4.6,4.6,0,0,0,.49,0h.23a4.61,4.61,0,0,0,.64-.16A3.76,3.76,0,0,1,56.23.9a7.68,7.68,0,0,1,.83,0h.58c.13,0,.29-.07.58-.4A1.43,1.43,0,0,1,59.27,0a1.46,1.46,0,0,1,.7.18,1.15,1.15,0,0,0,.52.19,3.31,3.31,0,0,1,.75.15,4.1,4.1,0,0,0,.66.14h0a1.22,1.22,0,0,0,.5-.12A1.36,1.36,0,0,1,63,.41a1.41,1.41,0,0,1,1.16.6c.24.34.38.4.49.42a7,7,0,0,1,.71.23,3.83,3.83,0,0,0,.62.22h.1a1.14,1.14,0,0,0,.56-.24,1.4,1.4,0,0,1,1.79.21,1.15,1.15,0,0,0,.42.31,3.7,3.7,0,0,1,.68.36,5.57,5.57,0,0,0,.58.32,1.33,1.33,0,0,1,.46.31.5.5,0,0,1,.07.08,2.74,2.74,0,0,0,.61.5.37.37,0,0,0,.18,0,1.27,1.27,0,0,0,.41-.09,1.29,1.29,0,0,1,.47-.08,1.43,1.43,0,0,1,1.29.82.85.85,0,0,0,.28.38,1.26,1.26,0,0,0,.68.13,1.43,1.43,0,0,1,1.3.91,1.33,1.33,0,0,0,.34.58,5.22,5.22,0,0,0,.54.38,4.07,4.07,0,0,1,.63.46l.28.26c.27.26.52.48.75.73s.65.69,1,1.06a1.24,1.24,0,0,0,.62.32,1.44,1.44,0,0,1,1,1.27,1.4,1.4,0,0,0,.15.66,2.15,2.15,0,0,0,.49.51,3.32,3.32,0,0,1,.42.42,1.64,1.64,0,0,1,.14.22,3.37,3.37,0,0,1,.23.67,4.38,4.38,0,0,0,.22.64,1,1,0,0,1,.1.27,2,2,0,0,1,.06.41,2.83,2.83,0,0,0,.15.75,3.58,3.58,0,0,0,.36.59,2.64,2.64,0,0,1,.37.58c.1.28.2.47.29.67a3.87,3.87,0,0,1,.31.73,4.12,4.12,0,0,1,.14.78c0,.17,0,.35.08.53a1.4,1.4,0,0,1,0,.73.49.49,0,0,0,0,.11,1.64,1.64,0,0,0-.16.79.8.8,0,0,0,.3.44,1.42,1.42,0,0,1,.23,1.84.79.79,0,0,0-.2.52,4.45,4.45,0,0,1,0,.73,5.38,5.38,0,0,0,0,.68c0,.05,0,.17.28.39a1.46,1.46,0,0,1,.51,1,1.42,1.42,0,0,1-.39,1.05.59.59,0,0,0-.19.35,1.43,1.43,0,0,0,.27.72l.09.15a1.44,1.44,0,0,1,.18.71,3.21,3.21,0,0,0,.06.6,2.57,2.57,0,0,1,.07.63,1,1,0,0,1,0,.29,5,5,0,0,1-.22.57,2.69,2.69,0,0,0-.24.65,1.38,1.38,0,0,0,0,.54,1.41,1.41,0,0,1-.83,1.57c-.49.21-.61.34-.65.47a1.66,1.66,0,0,0,0,.73l0,.19a1.42,1.42,0,0,1-.15.88c-.06.11-.14.24-.22.36a4.36,4.36,0,0,0-.33.6,1.27,1.27,0,0,0,.07.77,1.38,1.38,0,0,1-.41,1.42,2.27,2.27,0,0,0-.48.56,1.41,1.41,0,0,1-.27.37l-.16.14a2.35,2.35,0,0,0-.54.58,2.17,2.17,0,0,0-.22.68,1.88,1.88,0,0,1-.14.52,1.26,1.26,0,0,1-.13.26,2.6,2.6,0,0,0-.22.6,1.42,1.42,0,0,1-1.14,1,1.2,1.2,0,0,0-.74.27.87.87,0,0,0-.11.57,1.44,1.44,0,0,1-1.16,1.43.83.83,0,0,0-.49.2,1.86,1.86,0,0,0-.35.64,1.45,1.45,0,0,1-1.14.9,1.49,1.49,0,0,0-.71.22,1.58,1.58,0,0,0-.4.61l-.11.23a1.43,1.43,0,0,1-.37.44,2.16,2.16,0,0,0-.41.48,1.41,1.41,0,0,1-1.17.63,2,2,0,0,1-.34,0,2.26,2.26,0,0,0-.5-.08.61.61,0,0,0-.28.06,1.54,1.54,0,0,0-.49.57l-.08.14a1.47,1.47,0,0,1-.77.59l-.43.11a6.36,6.36,0,0,0-.66.2,4.46,4.46,0,0,0-.59.34,3.72,3.72,0,0,1-.69.38,1.93,1.93,0,0,0-.6.38,1.44,1.44,0,0,1-.88.3A1.5,1.5,0,0,1,65,54a1.48,1.48,0,0,0-.67-.27l-.1,0a1.65,1.65,0,0,0-.63.43,1.64,1.64,0,0,1-1.09.45,1.1,1.1,0,0,1-.26,0,3.1,3.1,0,0,0-.61-.08h-.19a.84.84,0,0,0-.47.33,1.4,1.4,0,0,1-1.06.48,1.43,1.43,0,0,1-.81-.25.9.9,0,0,0-.5-.21,3.66,3.66,0,0,0-.7.11,4.76,4.76,0,0,1-.77.12,1.53,1.53,0,0,0-.72.34l-.13.09a1.47,1.47,0,0,1-.79.24Z" style="fill:#cbd872"/><path d="M69.59,39.66c-.26.26-.24.35-.6.35s-.36-.56-.73-.56-.36.4-.72.4-.36-.37-.72-.37-.36.2-.72.2-.36.08-.73.08-.36.09-.72.09-.36-.26-.72-.26-.37.09-.73.09-.36.23-.72.23-.36-.19-.72-.19-.36.2-.72.2-.36-.37-.72-.37-.36.31-.72.31-.37.25-.73.25-.36-.49-.72-.49-.36,0-.73,0-.36-.14-.72-.14-.36.31-.73.31-.36.18-.72.18-.36-.22-.73-.22-.36-.1-.72-.1h-.73c-.36,0-.36-.09-.73-.09S52,40,51.62,40s-.37-.41-.73-.41-.37-.13-.73-.13-.37.07-.73.07-.41.43-.67.17,0-.29,0-.65.12-.36.12-.72-.3-.35-.3-.71,0-.36,0-.72.18-.35.18-.71.21-.36.21-.71-.27-.36-.27-.72,0-.35,0-.71-.12-.36-.12-.72-.13-.36-.13-.71.52-.36.52-.72-.39-.36-.39-.72-.22-.36-.22-.71.46-.36.46-.72-.41-.36-.41-.71.14-.36.14-.72-.25-.36-.25-.72.36-.36.36-.72.23-.35.23-.71-.35-.36-.35-.72.42-.36.42-.72-.44-.35-.44-.71.27-.35.27-.71-.46-.36-.46-.71.28-.36.28-.72-.2-.36-.2-.72.56-.36.56-.72-.19-.36-.19-.71-.06-.36-.06-.72.15-.36.15-.72S49,18,49,17.59s-.11-.36-.11-.72,0-.36,0-.72-.43-.36-.43-.72.33-.36.33-.72S49,14.35,49,14s0-.36,0-.72-.51-.36-.51-.72.06-.36.06-.73-.23-.55,0-.81.45,0,.81,0,.36,0,.72,0,.36.21.72.21.37-.19.73-.19.36.44.72.44S52.67,11,53,11s.37-.13.73-.13.36,0,.72,0,.36.56.72.56.37-.24.73-.24.36.08.72.08.36-.12.72-.12.36.05.72.05.36-.26.72-.26.36.07.73.07.36,0,.72,0,.36.38.72.38.36,0,.73,0,.36-.57.72-.57.37.44.73.44.36.12.72.12h.73c.36,0,.36,0,.73,0s.36-.25.72-.25.37.1.73.1.36-.24.73-.24.36.43.73.43.36-.54.73-.54.34.07.6.33.08.23.08.59.33.35.33.71-.44.36-.44.72-.15.35-.15.71.6.36.6.71-.6.36-.6.72.19.35.19.71.44.36.44.72,0,.35,0,.71-.14.36-.14.72-.15.36-.15.72-.3.35-.3.71.11.36.11.72,0,.36,0,.71-.08.36-.08.72.08.36.08.72.47.35.47.71-.58.36-.58.72.45.36.45.72,0,.36,0,.71-.13.36-.13.72-.34.36-.34.71,0,.36,0,.72,0,.35,0,.71.1.36.1.72.49.36.49.72-.51.35-.51.71.3.36.3.72-.16.36-.16.72-.24.36-.24.72,0,.35,0,.71.09.36.09.72.4.36.4.72-.12.36-.12.72.06.36.06.72-.26.36-.26.72.32.36.32.72.15.36.15.73-.49.37-.45.73S69.84,39.41,69.59,39.66Z" style="fill:#fff"/><path d="M41.6,16.42c0,.36.43.36.43.73s-.61.36-.61.72.09.36.09.72,0,.37,0,.73,0,.36,0,.72.06.37.06.73.35.36.35.72,0,.37,0,.73V23c0,.36-.3.36-.3.73s-.11.36-.11.72.18.37.18.73.25.36.25.72-.08.37-.08.73.15.36.15.73V28c0,.36-.23.36-.23.72s-.44.37-.44.73.44.36.44.73-.28.36-.28.72,0,.36,0,.72.29.36.29.73-.17.36-.17.72-.22.37-.22.73.35.37.35.73.06.36.06.73.17.36.17.72,0,.37,0,.73-.35.37-.35.73.29.37.29.73-.11.37-.11.73.15.37.15.73-.62.37-.62.73.62.37.62.73-.32.37-.32.74-.23.36-.23.73,0,.37,0,.73.18.38.22.75a.66.66,0,0,0,.39.06,5.7,5.7,0,0,1-.11-.77c0-.25-.33-.59-.26-.81a4.05,4.05,0,0,1,.32-.7c.11-.21.54-.24.69-.43s.48-.15.66-.3.08-.68.28-.8.6.15.82.05.36-.34.59-.4.48,0,.71,0,.35-.28.59-.28c.11-.34.28-.33.28-.68s-.45-.36-.45-.72.51-.35.51-.71-.34-.36-.34-.71.38-.36.38-.72-.44-.35-.44-.71,0-.36,0-.71.54-.36.54-.72-.28-.35-.28-.71,0-.36,0-.72-.25-.35-.25-.71.12-.36.12-.72,0-.36,0-.71.36-.36.36-.72-.21-.35-.21-.71.14-.36.14-.72-.27-.36-.27-.71.26-.36.26-.72-.53-.36-.53-.72.16-.35.16-.71.13-.36.13-.72-.07-.35-.07-.71-.28-.35-.28-.71.18-.36.18-.71.5-.36.5-.72-.45-.36-.45-.72.11-.35.11-.71-.19-.36-.19-.72.48-.35.48-.71,0-.36,0-.72.08-.36.08-.72-.45-.36-.45-.72.31-.36.31-.72-.43-.36-.43-.72.52-.35.52-.71-.07-.36-.07-.72-.07-.36-.07-.72-.28-.36-.28-.72.31-.37.31-.73-.27-.31-.38-.65a2.09,2.09,0,0,0-.5,0c-.24,0-.56-.17-.79-.09s-.4.35-.61.46a6.13,6.13,0,0,0-.54.49,6,6,0,0,0-.48.53c-.16.17-.55.17-.7.36s.05.6-.06.81-.08.46-.17.68-.66.29-.71.53.34.55.32.79S41.6,16.18,41.6,16.42Z" style="fill:#fff"/><path d="M46.4,41.75a3.21,3.21,0,0,0-.81,0c-.24.07-.37.44-.58.57s-.63.07-.8.26a2.87,2.87,0,0,0-.39.71c-.12.21.27.61.2.86s-.48.41-.48.67.22.48.27.72a2.6,2.6,0,0,0,.29.66c.11.22-.08.69.09.87s.58.15.79.29.5,0,.74.09.42.36.68.36.36.14.73.14.36,0,.72,0,.37-.21.73-.21.37-.21.73-.21.36.53.73.53.36-.4.72-.4.36-.09.73-.09.36,0,.72,0,.37.45.73.45.37-.1.73-.1.36-.22.73-.22.36.14.73.14.36.08.72.08.36.19.73.19.36-.48.72-.48.36-.13.72-.13.37-.07.73-.07.37,0,.73,0,.36.15.73.15.36,0,.72,0,.37.1.73.1.37.27.73.27.37.1.73.1.37-.3.73-.3.37.09.73.09.37-.3.73-.3.37,0,.73,0,.37.1.73.1.37.37.74.37.36,0,.73,0,.37-.22.73-.22.5.22.76,0-.14-.39-.14-.76.39-.37.39-.74,0-.37,0-.75-.44-.37-.44-.74.09-.37.09-.74-.21-.37-.21-.75.41-.37.41-.74-.06-.25-.33-.52-.12-.56-.49-.56-.36.32-.72.32-.37.18-.73.18-.36-.51-.73-.51-.36.55-.72.55-.37.13-.73.13-.36-.06-.73-.06-.36-.53-.72-.53-.37.3-.73.3-.37.23-.73.23-.36-.07-.73-.07-.36-.27-.73-.27-.36-.27-.72-.27-.36.64-.72.64-.37-.06-.73-.06-.36.09-.72.09-.37-.64-.73-.64-.36.6-.73.6-.36-.53-.73-.53-.36.14-.72.14-.37.15-.73.15-.37-.16-.73-.16S53.35,42,53,42s-.37-.17-.73-.17-.37.15-.73.15-.37-.18-.73-.18-.37-.12-.73-.12-.37.42-.73.42-.37,0-.73,0-.37-.15-.74-.15-.36-.39-.72-.41S46.77,41.75,46.4,41.75Z" style="fill:#fff"/><path d="M74.22,36.11c-.23.25-.5.15-.84.15s-.34-.34-.68-.34-.34-.14-.68-.14-.56.54-.8.29.28-.48.28-.84-.23-.37-.23-.74.09-.37.09-.73-.06-.37-.06-.74.32-.37.32-.74,0-.37,0-.73-.33-.37-.33-.75,0-.28.28-.55.14-.53.48-.53.34.59.68.59.34,0,.68,0,.67-.73.9-.48-.54.57-.54.94.47.37.47.74,0,.36,0,.73,0,.37,0,.73,0,.37,0,.74-.27.37-.27.74-.1.41,0,.77S74.47,35.83,74.22,36.11Z" style="fill:#fff"/><path d="M73.39,28.22c-.21.24-.48.17-.79.17S72.28,28,72,28s-.29.17-.5-.07-.29-.25-.29-.62.32-.37.32-.74-.23-.36-.23-.73.09-.37.09-.73-.06-.37-.06-.74.32-.37.32-.74,0-.37,0-.74-.55-.51-.31-.79.37.32.68.32.32-.61.63-.61.24.26.45.5-.09.21-.09.57.58.37.58.74-.63.37-.63.73.47.37.47.74,0,.37,0,.74,0,.37,0,.73-.07.34,0,.7S73.63,27.94,73.39,28.22Z" style="fill:#fff"/><path d="M58.24,7.88c-.25.25,0,.35,0,.7s0,.35,0,.71,0,.35,0,.7,0,.35,0,.7.11.35.11.7,0,.35,0,.7-.25.35-.25.7-.16.35-.16.7.35.36.35.71.28.35.28.7v.71c0,.35,0,.35,0,.7s-.09.35-.09.7,0,.36,0,.71-.15.35-.15.71.12.35.12.71,0,.63.27.71.5-.14.68-.36.45-.13.69-.42.18-.34.42-.63-.09-.56.15-.86.57,0,.81-.32.37-.19.61-.48-.05-.54.19-.83.37-.46.56-.46a1.26,1.26,0,0,1,.68.38c.23.32,0,.44.28.77s.31.26.54.58-.15.58.08.91.66,0,.89.34-.08.54.15.86.53.19.77.12a.49.49,0,0,0,.34-.54v-.73c0-.37.22-.37.22-.73s-.44-.37-.44-.74,0-.36,0-.73,0-.37,0-.73.06-.37.06-.74.55-.36.55-.73-.15-.37-.15-.74-.43-.37-.43-.73.34-.37.34-.74.23-.36.23-.73-.2-.37-.2-.74.23-.37.23-.74-.58-.37-.58-.74.67-.59.42-.86-.47.2-.82.2-.34.2-.69.2-.34.06-.69.06-.34-.64-.69-.64-.34.61-.69.61-.35-.44-.69-.44-.35-.11-.69-.11-.35.21-.69.21-.35.09-.69.09-.35-.4-.7-.4-.42.71-.76.63S58.48,7.63,58.24,7.88Z" style="fill:#fff"/><path d="M58.24,7.88c-.25.25,0,.35,0,.7s0,.35,0,.71,0,.35,0,.7,0,.35,0,.7.11.35.11.7,0,.35,0,.7-.25.35-.25.7-.16.35-.16.7.35.36.35.71.28.35.28.7v.71c0,.35,0,.35,0,.7s-.09.35-.09.7,0,.36,0,.71-.15.35-.15.71.12.35.12.71,0,.63.27.71.5-.14.68-.36.45-.13.69-.42.18-.34.42-.63-.09-.56.15-.86.57,0,.81-.32.37-.19.61-.48-.05-.54.19-.83.37-.46.56-.46a1.26,1.26,0,0,1,.68.38c.23.32,0,.44.28.77s.31.26.54.58-.15.58.08.91.66,0,.89.34-.08.54.15.86.53.19.77.12a.49.49,0,0,0,.34-.54v-.73c0-.37.22-.37.22-.73s-.44-.37-.44-.74,0-.36,0-.73,0-.37,0-.73.06-.37.06-.74.55-.36.55-.73-.15-.37-.15-.74-.43-.37-.43-.73.34-.37.34-.74.23-.36.23-.73-.2-.37-.2-.74.23-.37.23-.74-.58-.37-.58-.74.67-.59.42-.86-.47.2-.82.2-.34.2-.69.2-.34.06-.69.06-.34-.64-.69-.64-.34.61-.69.61-.35-.44-.69-.44-.35-.11-.69-.11-.35.21-.69.21-.35.09-.69.09-.35-.4-.7-.4-.42.71-.76.63S58.48,7.63,58.24,7.88Z" style="fill:none;stroke:#cbd872;stroke-miterlimit:10;stroke-width:0.75px"/><path d="M7.11,27.4a7,7,0,0,1-1.86-.69c-.11-.06-.34-.19-.7-.37a4,4,0,0,1-.89-.62A1,1,0,0,1,3.3,25a.78.78,0,0,1,.23-.54.71.71,0,0,1,.52-.23,3,3,0,0,1,1,.2c.39.13.88.32,1.49.57s.89.36,1.21.47a2.5,2.5,0,0,0,.78.16.26.26,0,0,0,.17-.09A24.13,24.13,0,0,0,8.84,22v-.94a2.84,2.84,0,0,0-.12-.77l-1.1,0-1.13,0c-1.58,0-2.36-.25-2.36-.75a.52.52,0,0,1,0-.18.48.48,0,0,1,.11-.15A7.67,7.67,0,0,1,6,18.79c1.07-.22,1.76-.34,2.09-.37a1.29,1.29,0,0,0,.48-.15.4.4,0,0,0,.16-.37c0-.08,0-.23,0-.45A.6.6,0,0,0,8.65,17a.67.67,0,0,0-.49-.15l-.54,0-.87,0c-1.2,0-1.8-.22-1.8-.65,0-.16.2-.3.62-.43s1-.26,1.7-.42l.57-.13a1.58,1.58,0,0,0,.43-.13,1,1,0,0,0,.43-.63,1.36,1.36,0,0,1,.23-.44.44.44,0,0,1,.37-.14c.19,0,.35.13.47.39a1.27,1.27,0,0,0,.36.43,2,2,0,0,0,.91.14,4.6,4.6,0,0,1,1.09.17.55.55,0,0,1,.36.58.65.65,0,0,1-.34.65,3,3,0,0,1-1,.24,3,3,0,0,0-.74.17.39.39,0,0,0-.24.39,2.19,2.19,0,0,0,.09.74.47.47,0,0,0,.32.28,3.3,3.3,0,0,0,.76.06l.77,0c1.07,0,1.6.22,1.6.66a.51.51,0,0,1-.13.33.4.4,0,0,1-.29.14v0a3.46,3.46,0,0,1-.66.19,15.15,15.15,0,0,0-1.58.5c-.42.17-.62.34-.62.51,0,1.06,0,2,.06,2.8a22.28,22.28,0,0,0,.22,2.35,2.73,2.73,0,0,1,0,.4,1.55,1.55,0,0,1-1.64,1.64A9,9,0,0,1,7.11,27.4ZM5.52,14.47a1,1,0,0,1-.27-.63c0-.26.32-.62,1-1.06a13.37,13.37,0,0,1,2.15-1.21A4.93,4.93,0,0,1,10,11a1.2,1.2,0,0,1,.77.21A.88.88,0,0,1,11,12a.88.88,0,0,1,0,.26.83.83,0,0,1-.16.21,6.54,6.54,0,0,1-1.25.81c-.69.38-1.4.73-2.11,1.05a4.88,4.88,0,0,1-1.35.48A.75.75,0,0,1,5.52,14.47Z" style="fill:#6c6851"/><path d="M4.51,38.62a.25.25,0,0,0,.2,0,1.74,1.74,0,0,0,.38-.46,2,2,0,0,1,.63-.64,11.6,11.6,0,0,1,2.76-1A13.37,13.37,0,0,1,11.41,36a2.77,2.77,0,0,1,1.68.42,1.77,1.77,0,0,1,.55,1.5l0,1a1.94,1.94,0,0,0,.16.92c0,.06.14.1.33.11a6.05,6.05,0,0,0,.63,0,6.76,6.76,0,0,1,1.6.15.7.7,0,0,1,.58.74.49.49,0,0,1-.21.39,1.47,1.47,0,0,1-.49.22L13.85,42c-.09,0-.14.32-.14.92s0,1.3,0,2.36l0,2.37c0,1.81-.52,2.72-1.57,2.72a1.87,1.87,0,0,1-.71-.14.48.48,0,0,1-.34-.47.36.36,0,0,1,.1-.27,2,2,0,0,1,.29-.22.64.64,0,0,0,.38-.33A14.24,14.24,0,0,0,12,47.17l0-1.75c0-.75,0-1.33,0-1.74a2.68,2.68,0,0,1,0-.39,2.75,2.75,0,0,0,0-.41c0-.48-.22-.72-.68-.72a1.5,1.5,0,0,0-.58.09q-.21.09-.21.42l0,1.6c0,.36,0,.9,0,1.61q0,3.69-.63,4a1,1,0,0,1-.47.08c-.53,0-.79-.32-.79-.94a.85.85,0,0,1,0-.24,12.05,12.05,0,0,0,.26-2.86V45l0-1.38c0-.23,0-.59,0-1a.36.36,0,0,0-.19-.05,2.05,2.05,0,0,0-.63.08.36.36,0,0,0-.24.39,32.17,32.17,0,0,1-.14,4.57.42.42,0,0,1-.4.21c-.4,0-.68-.3-.82-.9a13.59,13.59,0,0,1-.26-2.41c0-.07,0-.31,0-.7A2,2,0,0,0,6.05,43a.32.32,0,0,0-.14-.11.5.5,0,0,0-.19,0,1.62,1.62,0,0,0-.51.11.93.93,0,0,0-.41.25,2.28,2.28,0,0,0-.14.76c0,.41,0,.66,0,.74a19.48,19.48,0,0,1-.21,2.13c-.1.51-.28.77-.54.77s-.49-.47-.49-1.4l0-1.11c0-.23,0-.59,0-1.07a1.1,1.1,0,0,0-.13-.59.48.48,0,0,0-.45-.21,6.16,6.16,0,0,0-1.15.12l-.53.07a5.21,5.21,0,0,1-.64,0,.53.53,0,0,1-.36-.15A.44.44,0,0,1,0,43c0-.3.19-.51.57-.66a11.89,11.89,0,0,1,1.68-.42c.25,0,.48-.09.69-.14a.72.72,0,0,0,.39-.16,2.56,2.56,0,0,0,.14-1.06,6.11,6.11,0,0,1,.13-1.4.66.66,0,0,1,.71-.57Zm1.63.09a.41.41,0,0,0-.28.11,1.51,1.51,0,0,0-.21.23l-.14.2a.89.89,0,0,1-.4.27.75.75,0,0,0-.33.18,1,1,0,0,0-.14.63,1.76,1.76,0,0,0,.14.91l.12,0a2,2,0,0,0,.64-.12A.79.79,0,0,0,6,40.84a3,3,0,0,0,.2-.89,11.46,11.46,0,0,0,.13-1.17A.33.33,0,0,0,6.14,38.71Zm2.68,1.72a2.4,2.4,0,0,0,.25-.94c0-.15,0-.34.08-.58a3.89,3.89,0,0,0,.06-.62l-.12,0a2.43,2.43,0,0,0-.55.07c-.21,0-.31.11-.31.21a1,1,0,0,1-.26.61,2.71,2.71,0,0,0-.25.38,1.19,1.19,0,0,0-.08.46c0,.49.15.73.45.73S8.71,40.63,8.82,40.43Zm2.81-.26q.3-.2.3-.87l0-.61a1.1,1.1,0,0,0-.14-.62.55.55,0,0,0-.51-.23c-.32,0-.57,0-.78,0a.66.66,0,0,0-.44.16c0,.36,0,.8.05,1.31a2.65,2.65,0,0,0,.16,1,1.23,1.23,0,0,0,.28,0A2.26,2.26,0,0,0,11.63,40.17Z" style="fill:#6c6851"/></g></g></svg>