<svg xmlns="http://www.w3.org/2000/svg" width="18.5mm" height="27.5mm" viewBox="0 0 52.43 77.94"><title>book</title><g id="圖層_2" data-name="圖層 2"><g id="圖層_1-2" data-name="圖層 1"><path d="M27,77.94a1.42,1.42,0,0,1-.78-.23l-.08-.06a1.65,1.65,0,0,0-.73-.34,2.22,2.22,0,0,0-.71.16,2.88,2.88,0,0,1-.48.15,1.1,1.1,0,0,1-.26,0,1.26,1.26,0,0,1-.47-.08l-.26-.07a5.19,5.19,0,0,0-.69-.16,1.09,1.09,0,0,1-.3-.07,2.48,2.48,0,0,1-.35-.16,2.77,2.77,0,0,0-.72-.3,1.39,1.39,0,0,1-.51-.2l-.17-.11a2.22,2.22,0,0,0-.62-.3,1.29,1.29,0,0,0-.29,0l-.42,0a3.82,3.82,0,0,1-.43,0,1.38,1.38,0,0,1-.45-.08l-.56-.22-.11,0c-.18-.08-.35-.15-.53-.21s-.38-.13-.57-.18a6.46,6.46,0,0,1-.78-.26,5.37,5.37,0,0,0-.56-.21,6.41,6.41,0,0,1-.77-.32,3.19,3.19,0,0,0-.61-.23,4.3,4.3,0,0,1-.73-.3,1.43,1.43,0,0,1-.53-.59,2.48,2.48,0,0,0-.46-.5,1,1,0,0,0-.57-.12h-.33a1.42,1.42,0,0,1-1.16-.6l-.1-.14a3.11,3.11,0,0,0-.44-.56,3.46,3.46,0,0,0-.58-.39,2.84,2.84,0,0,1-.59-.4,3.54,3.54,0,0,1-.52-.73,5,5,0,0,0-.33-.51,1.4,1.4,0,0,1-.25-.54,1.85,1.85,0,0,1,0-.23,2,2,0,0,0-.21-.74,1.38,1.38,0,0,1-.19-.43c0-.1,0-.2-.05-.3a2.1,2.1,0,0,0-.2-.73,5.12,5.12,0,0,0-.4-.52,3.08,3.08,0,0,1-.46-.63A1.71,1.71,0,0,0,5.07,65a1.44,1.44,0,0,1-.62-1.32,1.72,1.72,0,0,0,0-.76A1.82,1.82,0,0,0,4,62.34a2.22,2.22,0,0,1-.22-.23,1.26,1.26,0,0,1-.27-.51c-.07-.24-.13-.49-.18-.74l-.13-.57a4.43,4.43,0,0,1-.11-.73c0-.29,0-.51-.09-.71a2.26,2.26,0,0,0-.28-.66l-.15-.27a1.42,1.42,0,0,1-.08-1l.06-.17A2,2,0,0,0,2.69,56a2.45,2.45,0,0,0-.19-.69,3,3,0,0,1-.18-.57,1.39,1.39,0,0,1,0-.64s.1-.29.1-.29a2.7,2.7,0,0,0,.16-.7,1.8,1.8,0,0,0-.19-.72c-.06-.14-.09-.24-.12-.33a1.51,1.51,0,0,1-.06-.52s.06-.74.08-.93A1.39,1.39,0,0,1,3,49.52c.37-.25.62-.43.66-.65a1.45,1.45,0,0,0-.15-.74L3.43,48a1.28,1.28,0,0,1-.06-.67,2.1,2.1,0,0,0-.08-.69.75.75,0,0,1,0-.11,1.42,1.42,0,0,1,.48-1.3,1.53,1.53,0,0,0,.51-.58l.18-.52c.11-.33.2-.59.31-.85s.14-.4.21-.61a4,4,0,0,1,.16-.49,1.44,1.44,0,0,1,.58-.71l.09-.05a1.8,1.8,0,0,0,.62-.51,2.78,2.78,0,0,0,.23-.65,2.86,2.86,0,0,1,.21-.61l.08-.12a2,2,0,0,0,.21-.69c0-.14.05-.25.08-.36A1.23,1.23,0,0,1,7.43,38c.11-.15.21-.32.31-.49a5.81,5.81,0,0,1,.47-.69,3.07,3.07,0,0,1,.61-.5,3.26,3.26,0,0,0,.55-.43l.28-.29c.17-.19.35-.37.53-.55a1.4,1.4,0,0,1,.92-.41,1.58,1.58,0,0,0,.84-.19,1.53,1.53,0,0,0,.38-.66l.07-.19a1.35,1.35,0,0,1,.4-.55,1.61,1.61,0,0,0,.34-.4A1.42,1.42,0,0,1,14.3,32a1.26,1.26,0,0,1,.47.08,1.91,1.91,0,0,0,.58.13.4.4,0,0,0,.2,0,1.89,1.89,0,0,0,.53-.49,2.49,2.49,0,0,1,.26-.28,1.31,1.31,0,0,1,.34-.24,1.39,1.39,0,0,0,.47-.49,1.39,1.39,0,0,1,1.17-.62,1.24,1.24,0,0,1,.33,0,2.76,2.76,0,0,0,.49.07.78.78,0,0,0,.22,0A6.57,6.57,0,0,0,20,29.9a4.78,4.78,0,0,1,.74-.3l.42-.12c.36-.1.67-.19,1-.25.54-.12,1-.21,1.43-.29a1.32,1.32,0,0,0,.62-.39,1.41,1.41,0,0,1,1-.38,1.51,1.51,0,0,1,.62.14,1.55,1.55,0,0,0,.65.21,2.6,2.6,0,0,0,.74-.19,3.85,3.85,0,0,1,.6-.17h.21a3.23,3.23,0,0,1,.73.11,4.3,4.3,0,0,0,.69.11,1.09,1.09,0,0,1,.26,0,3.83,3.83,0,0,1,.43.14,2.93,2.93,0,0,0,.74.23h.15a3.64,3.64,0,0,0,.56-.05,3.05,3.05,0,0,1,.55-.06l.19,0c.24,0,.47,0,.69,0a4.61,4.61,0,0,1,.81.07,5.37,5.37,0,0,1,.77.24,4.56,4.56,0,0,0,.52.18,1.48,1.48,0,0,1,.61.37l.1.12a1.79,1.79,0,0,0,.63.51.41.41,0,0,0,.16,0,1.08,1.08,0,0,0,.39-.08,1.47,1.47,0,0,1,.46-.07,1.43,1.43,0,0,1,1.27.78.85.85,0,0,0,.36.44,4.14,4.14,0,0,1,.67.41,3.74,3.74,0,0,0,.53.35.35.35,0,0,0,.17,0,1.16,1.16,0,0,0,.33-.06,1.38,1.38,0,0,1,.45-.08,1.49,1.49,0,0,1,.68.17,1.46,1.46,0,0,1,.69.9c.07.27.16.33.2.36a1.64,1.64,0,0,0,.72.21l.21,0a1.39,1.39,0,0,1,.59.24,1.9,1.9,0,0,0,.62.26l.28.1a1.35,1.35,0,0,1,.62.46,4,4,0,0,1,.29.43,3.19,3.19,0,0,0,.39.55c.24.27.47.56.7.85a1.43,1.43,0,0,1,.27,1.11,1.39,1.39,0,0,0,0,.87,1.41,1.41,0,0,0,.63.38A1.41,1.41,0,0,1,49,40.11a1.94,1.94,0,0,0,.15.65,2.68,2.68,0,0,0,.42.55,2.32,2.32,0,0,1,.38.46l.09.19a3.54,3.54,0,0,0,.32.55l.1.15A1.39,1.39,0,0,1,50.59,44a.08.08,0,0,1,0,.05,1.24,1.24,0,0,0-.17.78,1.64,1.64,0,0,0,.41.61l.12.12a1.4,1.4,0,0,1,.36.8q0,.2,0,.45c0,.26,0,.47,0,.69s.23.4.5.65a1.65,1.65,0,0,1,.54,1c0,.14,0,.78,0,.78a1.4,1.4,0,0,1-.39,1c-.31.34-.5.56-.5.77a3.73,3.73,0,0,0,.09.67,3.18,3.18,0,0,1,.09.76,1.11,1.11,0,0,0,.22.6,1.42,1.42,0,0,1-.14,1.68,1.2,1.2,0,0,0-.32.55c0,.21,0,.42-.07.62a5.55,5.55,0,0,1-.09.8,4.52,4.52,0,0,1-.26.73,4.62,4.62,0,0,0-.23.62l-.11.45c-.08.32-.16.62-.26.92a2.38,2.38,0,0,0-.07.71,3,3,0,0,1,0,.57,1.45,1.45,0,0,1-.38.71l-.08.1a2.73,2.73,0,0,0-.41.59c-.08.2-.14.41-.21.62a4.31,4.31,0,0,1-.26.74,3.59,3.59,0,0,0-.24.63,3.48,3.48,0,0,1-.29.72,4.19,4.19,0,0,0-.26.63l-.1.28a1.43,1.43,0,0,1-.83.82,1.7,1.7,0,0,0-.75.42,1.4,1.4,0,0,1-.69.49,1.64,1.64,0,0,0-.49.36,1.74,1.74,0,0,0-.28.67c0,.11,0,.18-.06.24a1.36,1.36,0,0,1-.3.52,3,3,0,0,0-.34.51A3.74,3.74,0,0,1,44,71a2,2,0,0,0-.44.68,1.39,1.39,0,0,1-1.28.84,1.44,1.44,0,0,0-.73.14,2.43,2.43,0,0,0-.48.53,2.45,2.45,0,0,1-.33.41,1.86,1.86,0,0,1-.28.21l-.84.45-.21.11a1.38,1.38,0,0,1-.66.17l-.52,0a1.14,1.14,0,0,0-.47.08l-.11.05a3.38,3.38,0,0,1-.59.12,2.11,2.11,0,0,0-1.27.5,3.13,3.13,0,0,1-.54.34l-.12,0a3.51,3.51,0,0,1-.66.14,5.11,5.11,0,0,0-.72.14,1.79,1.79,0,0,0-.61.37l-.19.15a1.43,1.43,0,0,1-.84.27h0l-.36,0-.4,0-.31,0a2.74,2.74,0,0,0-.64.23,2.62,2.62,0,0,1-.61.23l-.12,0a2,2,0,0,0-.66.27l-.35.18a1.43,1.43,0,0,1-.42.1c-.2,0-.4.06-.61.1l-.43.08Z" style="fill:#eac38d"/><path d="M18.89,72.55a1.43,1.43,0,0,1-1.24-.72c-.23-.41-.37-.57-.54-.61H17a1,1,0,0,0-.43.13,1.36,1.36,0,0,1-.61.14,1.39,1.39,0,0,1-1.15-.58.87.87,0,0,0-.39-.35c-.2-.07-.4-.12-.59-.17a3.93,3.93,0,0,1-.75-.23,2.43,2.43,0,0,0-.67-.15,2,2,0,0,1-.57-.11l-.19-.08-.52-.23a4.69,4.69,0,0,1-.74-.35,2,2,0,0,0-.72-.16l-.24,0a1.38,1.38,0,0,1-.65-.26c-.35-.24-.69-.52-1-.78l-.14-.13a3.51,3.51,0,0,1-.38-.51,4.28,4.28,0,0,0-.3-.43,1.38,1.38,0,0,1-.34-.8V66a1.22,1.22,0,0,0-.2-.77,4.69,4.69,0,0,0-.47-.43,2.8,2.8,0,0,1-.56-.53,2.49,2.49,0,0,0-.53-.43,3.24,3.24,0,0,1-.42-.33,1,1,0,0,1-.19-.23,2.79,2.79,0,0,0-.46-.44,2.55,2.55,0,0,1-.43-.4A1.51,1.51,0,0,1,3,61.72l0-.14a2.67,2.67,0,0,0-.19-.66,1.81,1.81,0,0,0-.5-.54,1.61,1.61,0,0,1-.6-1.23V59a2.19,2.19,0,0,0-.05-.73c-.15-.42-.27-.85-.4-1.29a5.68,5.68,0,0,1-.15-.85A4.48,4.48,0,0,0,1,55.52a1.45,1.45,0,0,0-.45-.63,1.45,1.45,0,0,1-.38-1.4,2.49,2.49,0,0,0,.09-.74l-.06-.46L1.62,52l-1.41.19c0-.15,0-.29,0-.44A1.4,1.4,0,0,1,.5,50.62c.26-.32.42-.52.42-.74s-.17-.39-.47-.67A1.43,1.43,0,0,1,.1,47.66,2.55,2.55,0,0,0,.28,47a2.41,2.41,0,0,0,0-.7c0-.1,0-.26,0-.36a1.47,1.47,0,0,1,.23-.89l.12-.18a2.05,2.05,0,0,0,.37-.67c.1-.47.23-.93.36-1.39a3,3,0,0,0,.08-.68,1.59,1.59,0,0,1,.78-1.29c.31-.17.54-.3.62-.5l.13-.3c.15-.38.27-.68.42-1l.08-.18c.2-.41.35-.73.54-1.07.05-.09.08-.23,0-.63a1.4,1.4,0,0,1,.77-1.71A1.06,1.06,0,0,0,5,35.19.91.91,0,0,1,5.22,35a1.66,1.66,0,0,1,.34-.25,2.63,2.63,0,0,0,.58-.47,1,1,0,0,0,.17-.57A1.43,1.43,0,0,1,7.5,32.41a1,1,0,0,0,.55-.2,2.25,2.25,0,0,0,.41-.55,3,3,0,0,1,.36-.49L9,31.05a2.53,2.53,0,0,0,.43-.52,2.15,2.15,0,0,1,.35-.46,1,1,0,0,1,.23-.18,5.51,5.51,0,0,1,.64-.34,5.23,5.23,0,0,0,.58-.29,1.93,1.93,0,0,0,.51-.55,1.55,1.55,0,0,1,1.2-.63H13a3.29,3.29,0,0,0,.42,0,.9.9,0,0,0,.38-.07,1.31,1.31,0,0,0,.46-.43,1.44,1.44,0,0,1,1.12-.55,1.6,1.6,0,0,1,.52.1,1.55,1.55,0,0,0,.53.14.41.41,0,0,0,.16,0,2.63,2.63,0,0,1,.74-.09,3.94,3.94,0,0,0,.69-.07,4.19,4.19,0,0,0,.62-.24,4.2,4.2,0,0,1,.73-.25c.28-.06.56-.09.84-.13l.58-.07c.16,0,.31-.16.55-.47a1.41,1.41,0,0,1,1.14-.57,1.3,1.3,0,0,1,.57.12,1.39,1.39,0,0,0,.53.14h.08a3.42,3.42,0,0,1,.66.07,4.61,4.61,0,0,0,.74.09,1.07,1.07,0,0,0,.54-.18,1.4,1.4,0,0,1,.68-.17,1.42,1.42,0,0,1,1.09.5c.28.33.42.39.53.41a3.9,3.9,0,0,1,.75.18,4.67,4.67,0,0,0,.64.18h0a1.07,1.07,0,0,0,.63-.28,1.4,1.4,0,0,1,1.81.11,1.4,1.4,0,0,0,.45.3,3.34,3.34,0,0,1,.72.33,3.23,3.23,0,0,0,.59.29,1.69,1.69,0,0,1,.41.24l.16.15a2.67,2.67,0,0,0,.62.47.43.43,0,0,0,.17,0,1.32,1.32,0,0,0,.44-.1,1.41,1.41,0,0,1,1.77.71.85.85,0,0,0,.3.39,1.57,1.57,0,0,0,.76.13,1.75,1.75,0,0,1,1.1.42l.29.32a5.27,5.27,0,0,0,.46.48,3.18,3.18,0,0,0,.62.37,2.86,2.86,0,0,1,.58.34,1.14,1.14,0,0,1,.19.19,2.58,2.58,0,0,1,.36.57,2.94,2.94,0,0,0,.37.59,1.72,1.72,0,0,0,.46.34,1.41,1.41,0,0,1,.68,1.66c-.14.44-.15.67-.06.81a1.63,1.63,0,0,0,.56.47l.17.11a1.38,1.38,0,0,1,.55.71c0,.11.08.26.12.41a3.29,3.29,0,0,0,.22.67,1.32,1.32,0,0,0,.62.51,1.43,1.43,0,0,1,.72,1.32,2.57,2.57,0,0,0,.06.75,1.34,1.34,0,0,1,.06.4c0,.07,0,.18,0,.3a2.55,2.55,0,0,0,0,.79,2.62,2.62,0,0,0,.32.65,2.56,2.56,0,0,1,.26.5,1.29,1.29,0,0,1,.08.26,2.77,2.77,0,0,0,.25.62,1.45,1.45,0,0,1-.12,1.54,1.26,1.26,0,0,0-.37.73c0,.12.05.26.32.53a1.41,1.41,0,0,1,.1,1.84,1,1,0,0,0-.24.51,1.82,1.82,0,0,0,.18.72,1.49,1.49,0,0,1-.2,1.43,1.68,1.68,0,0,0-.42.7,1.73,1.73,0,0,0,.11.73,3.08,3.08,0,0,1,.09.3,1.57,1.57,0,0,1,0,.53,2.31,2.31,0,0,0,0,.64A1.43,1.43,0,0,1,46,55.71c-.33.18-.53.32-.59.51a1.51,1.51,0,0,0,0,.76l0,.15a1.35,1.35,0,0,1-.18,1c-.06.11-.14.23-.22.35a5.24,5.24,0,0,0-.37.61,4.83,4.83,0,0,0-.22.64,3.28,3.28,0,0,1-.27.74,2.38,2.38,0,0,0-.2.68,1.41,1.41,0,0,1-1.14,1.12,1.17,1.17,0,0,0-.75.31,1.55,1.55,0,0,0-.2.73,1.57,1.57,0,0,1-.83,1.19,2.16,2.16,0,0,0-.63.42.78.78,0,0,0-.18.53,1.42,1.42,0,0,1-1.39,1.29.85.85,0,0,0-.54.14,4,4,0,0,0-.47.45,3.43,3.43,0,0,1-.59.55,1.47,1.47,0,0,0-.39.66,1.82,1.82,0,0,1-.71.84l-.44.21-.58.28c-.42.22-.87.45-1.3.64a2.85,2.85,0,0,0-.58.4,1.47,1.47,0,0,1-.92.32,1.39,1.39,0,0,1-.63-.15,1.56,1.56,0,0,0-.67-.24l-.13,0a1.82,1.82,0,0,0-.59.4l-.24.2a1.18,1.18,0,0,1-.49.24l-1,.26a1.65,1.65,0,0,1-.31,0,1.39,1.39,0,0,1-.67-.17,1.83,1.83,0,0,0-.73-.27h-.09a1.34,1.34,0,0,0-.62.43,1.42,1.42,0,0,1-1,.4,1.29,1.29,0,0,1-.43-.07,2.56,2.56,0,0,0-.65-.12,2.07,2.07,0,0,0-.73.2A1.59,1.59,0,0,1,22,72.29l-.08-.06h0a1.36,1.36,0,0,0-.67-.32,1.47,1.47,0,0,0-.72.29,1.76,1.76,0,0,1-.85.29,3,3,0,0,0-.55.05Z" style="fill:#cbd872"/><path d="M33.93,59.14c-.25.26-.23.35-.58.35s-.36-.56-.72-.56-.36.4-.72.4S31.56,59,31.2,59s-.36.2-.72.2-.35.08-.71.08-.36.09-.71.09-.36-.26-.71-.26-.36.09-.71.09-.36.23-.72.23-.36-.19-.72-.19-.35.2-.71.2-.36-.37-.71-.37-.36.31-.72.31-.36.25-.72.25-.36-.49-.72-.49-.35,0-.71,0-.36-.14-.72-.14-.36.31-.72.31-.36.18-.72.18-.36-.22-.71-.22-.36-.1-.72-.1H17.6c-.37,0-.37-.09-.73-.09s-.63.68-.88.42.33-.52.33-.88.14-.36.14-.71-.07-.36-.07-.72-.15-.36-.15-.72,0-.36,0-.72.12-.36.12-.72-.3-.36-.3-.71,0-.36,0-.72.19-.36.19-.72.21-.36.21-.72-.28-.36-.28-.72v-.71c0-.36-.13-.36-.13-.72s-.13-.36-.13-.72.52-.36.52-.72-.39-.36-.39-.71-.22-.36-.22-.72.46-.35.46-.71-.41-.36-.41-.72.15-.36.15-.72-.26-.36-.26-.72.36-.36.36-.72.24-.36.24-.72S16,42.4,16,42s.43-.36.43-.72S16,41,16,40.6s.26-.36.26-.72-.46-.36-.46-.72.28-.36.28-.72-.2-.36-.2-.72.56-.36.56-.73-.19-.36-.19-.72-.06-.36-.06-.73-.16-.31.09-.57.2.14.55.14.36-.12.72-.12.36,0,.71,0,.36-.43.72-.43.36.33.71.33.36.22.72.22.35,0,.71,0,.35-.51.71-.51.36.06.71.06h.72c.36,0,.36.06.71.06s.36,0,.72,0,.36.21.71.21.36-.19.72-.19.36.44.72.44.36-.46.71-.46.36-.12.72-.12.36,0,.72,0,.36.55.72.55.36-.23.72-.23.35.07.71.07.36-.12.72-.12.36.06.72.06.36-.26.73-.26.54-.15.8.11,0,.43,0,.79-.38.36-.38.72,0,.36,0,.72.56.35.56.71-.43.36-.43.72-.12.36-.12.72,0,.36,0,.72,0,.36,0,.72.25.35.25.71-.1.36-.1.72.24.36.24.72-.44.36-.44.72.55.36.55.72-.38.36-.38.71.13.36.13.72.33.36.33.72-.44.35-.44.71-.15.36-.15.72.59.35.59.71-.59.36-.59.72.19.36.19.72.44.36.44.72-.05.36-.05.72-.14.36-.14.72-.15.36-.15.72-.3.36-.3.72.11.36.11.72,0,.36,0,.73-.08.36-.08.72.07.36.07.72.48.36.48.72-.58.36-.58.72.4.35.45.71S34.19,58.88,33.93,59.14Z" style="fill:#fff"/><path d="M10.09,39.35c0,.36.43.36.43.71s-.61.36-.61.72.09.35.09.71,0,.36,0,.71,0,.36,0,.72.06.35.06.71.35.35.35.71,0,.36,0,.71v.71c0,.36-.3.36-.3.72s-.11.35-.11.71.18.36.18.72.25.35.25.71-.08.35-.08.71.14.36.14.71,0,.35,0,.71-.24.35-.24.71-.43.36-.43.71.44.36.44.72-.28.35-.28.71,0,.36,0,.71.29.36.29.72-.17.35-.17.71-.22.36-.22.72.34.36.34.71.07.36.07.72.16.36.16.72.06.35.06.71-.35.36-.35.72.29.36.29.72-.11.36-.11.71.15.37.15.73-.65.39-.62.75c0,0,.09-.07.1-.1,0-.27.32-.45.36-.68s.33-.41.42-.64a2.53,2.53,0,0,1,.38-.58c.15-.2.13-.5.32-.67s.46-.17.68-.29.36-.36.6-.44.4-.56.65-.6.26.17.51.17c.11-.33.33-.25.33-.6s.26-.36.26-.72-.48-.36-.48-.72.43-.35.43-.71-.19-.36-.19-.72.15-.36.15-.72-.3-.36-.3-.71.29-.36.29-.72-.46-.36-.46-.72.52-.35.52-.71-.35-.36-.35-.72.38-.36.38-.72-.43-.36-.43-.72,0-.35,0-.71.55-.36.55-.72-.28-.36-.28-.71,0-.36,0-.72S14,46.7,14,46.34s.12-.36.12-.72,0-.36,0-.72.37-.36.37-.71-.22-.36-.22-.72.15-.36.15-.72-.28-.36-.28-.72.27-.36.27-.72-.53-.36-.53-.72.16-.36.16-.72.13-.36.13-.72-.07-.36-.07-.72-.28-.36-.28-.72S14,37.35,14,37s.49-.36.49-.72-.45-.37-.45-.73.23-.38.12-.72c-.26,0-.45.22-.69.27s-.64-.32-.86-.22a3.66,3.66,0,0,0-.68.42,4.27,4.27,0,0,0-.66.45c-.18.17,0,.67-.14.88s-.54.26-.65.49.21.6.13.84-.63.37-.66.62S10.09,39.1,10.09,39.35Z" style="fill:#fff"/><path d="M14.19,60.94c-.26,0-.59-.12-.83,0s-.35.47-.55.63-.62.16-.77.38a3.28,3.28,0,0,0-.28.78c-.07.24.39.55.39.81s-.37.54-.3.78.36.4.5.61a2.1,2.1,0,0,0,.51.52c.2.16.24.67.48.75s.59-.14.85-.14.36-.23.71-.23.35.26.71.26.35.14.7.14.36,0,.71,0,.36-.21.71-.21.36-.2.71-.2.35.52.71.52.35-.4.71-.4.35-.09.7-.09.36,0,.71,0,.35.46.7.46.35-.1.71-.1S23,66,23.39,66s.35.14.71.14.35.09.71.09.35.18.7.18.36-.48.71-.48.36-.13.71-.13.36-.06.71-.06.36,0,.71,0,.36.14.72.14.35,0,.71,0,.35.09.71.09.35.27.71.27.36.1.71.1.36-.29.72-.29.35.08.71.08.28,0,.53-.22,0-.17,0-.54.1-.36.1-.72.37-.36.37-.72,0-.36,0-.72-.22-.37-.22-.73,0-.36,0-.73.14-.38-.11-.64-.26-.36-.62-.36-.35,0-.7,0-.36.44-.71.44-.36-.08-.71-.08-.35.21-.71.21-.35-.42-.71-.42-.35.42-.71.42-.35-.66-.7-.66S28,61,27.69,61s-.35.19-.71.19-.35-.52-.7-.52-.35.56-.71.56-.35.12-.7.12-.36-.06-.72-.06-.35-.53-.7-.53-.36.31-.71.31-.36.22-.71.22-.36-.06-.71-.06-.36-.27-.71-.27-.36-.27-.71-.27-.36.64-.71.64-.36-.06-.72-.06-.35.08-.71.08-.35-.63-.71-.63-.35.59-.71.59-.36-.52-.71-.52-.36.14-.72.13S14.55,60.94,14.19,60.94Z" style="fill:#fff"/><path d="M37.91,56.16c-.28.27-.53.15-.92.15s-.38-.35-.77-.35-.37.18-.65-.08-.28-.23-.28-.59.32-.36.32-.71-.24-.36-.24-.72.1-.36.1-.72-.07-.36-.07-.72.33-.36.33-.72-.37-.29-.11-.53.21-.26.6-.26.38.34.77.34.72-.78,1-.52-.48.61-.48,1,0,.35,0,.71.58.36.58.72-.63.36-.63.72.47.36.47.71-.14.35,0,.69S38.18,55.92,37.91,56.16Z" style="fill:#fff"/><path d="M37.2,49.45c-.3.27-.55.15-1,.15a.9.9,0,0,1-.78-.34c-.26-.24.15-.32.15-.68s-.33-.36-.33-.72.32-.35.32-.71-.24-.36-.24-.72.1-.36.1-.72-.07-.36-.07-.72,0-.27.24-.51.21,0,.61,0,.55-.58.85-.31-.32.42-.32.77.62.36.62.72-.59.36-.59.71,0,.36,0,.72.58.36.58.72-.72.47-.62.82S37.47,49.21,37.2,49.45Z" style="fill:#fff"/><path d="M24.28,32.07c-.25.26,0,.37,0,.74s0,.37,0,.73,0,.37,0,.74,0,.37,0,.74.11.36.11.73,0,.37,0,.74-.25.37-.25.74S24,37.6,24,38s.35.36.35.73.28.37.28.74v.74c0,.37,0,.37,0,.74s-.1.38-.1.75,0,.31.22.38.41.16.57,0,.15-.38.39-.68.42-.15.67-.45.09-.43.34-.73.45-.13.69-.43.19-.35.44-.66.75-.49.95-.21-.16.51,0,.79.06.37.25.64.5.06.7.34.36.16.55.43l.39.56c.14.2.13.36.33.29s.22-.18.22-.43.45-.36.45-.72-.53-.36-.53-.72.37-.36.37-.73-.17-.36-.17-.72,0-.36,0-.72,0-.36,0-.72.23-.36.23-.73S31,36.06,31,35.7s0-.36,0-.72,0-.36,0-.72.07-.37.07-.73.55-.36.55-.73.07-.55-.19-.81-.44.39-.79.39-.35-.33-.7-.33-.36-.23-.71-.23-.35.2-.71.2-.35-.24-.7-.24-.35.59-.71.59-.35-.47-.7-.47-.36.26-.71.26-.43.26-.77.18S24.53,31.82,24.28,32.07Z" style="fill:#fff"/><path d="M24.28,32.07c-.25.26,0,.37,0,.74s0,.37,0,.73,0,.37,0,.74,0,.37,0,.74.11.36.11.73,0,.37,0,.74-.25.37-.25.74S24,37.6,24,38s.35.36.35.73.28.37.28.74v.74c0,.37,0,.37,0,.74s-.1.38-.1.75,0,.31.22.38.41.16.57,0,.15-.38.39-.68.42-.15.67-.45.09-.43.34-.73.45-.13.69-.43.19-.35.44-.66.75-.49.95-.21-.16.51,0,.79.06.37.25.64.5.06.7.34.36.16.55.43l.39.56c.14.2.13.36.33.29s.22-.18.22-.43.45-.36.45-.72-.53-.36-.53-.72.37-.36.37-.73-.17-.36-.17-.72,0-.36,0-.72,0-.36,0-.72.23-.36.23-.73S31,36.06,31,35.7s0-.36,0-.72,0-.36,0-.72.07-.37.07-.73.55-.36.55-.73.07-.55-.19-.81-.44.39-.79.39-.35-.33-.7-.33-.36-.23-.71-.23-.35.2-.71.2-.35-.24-.7-.24-.35.59-.71.59-.35-.47-.7-.47-.36.26-.71.26-.43.26-.77.18S24.53,31.82,24.28,32.07Z" style="fill:none;stroke:#cbd872;stroke-miterlimit:10;stroke-width:0.75px"/><path d="M14.81,13.64a6,6,0,0,1-1.56-.57c-.09-.06-.28-.16-.58-.32a3.1,3.1,0,0,1-.74-.51.83.83,0,0,1-.3-.6.61.61,0,0,1,.19-.45.58.58,0,0,1,.44-.19,2.62,2.62,0,0,1,.85.16c.32.11.73.27,1.24.48s.74.3,1,.39a2.23,2.23,0,0,0,.66.14s.08,0,.13-.08a19.57,19.57,0,0,0,.1-2.95V8.36a2.29,2.29,0,0,0-.1-.65l-.91,0-.94,0c-1.32,0-2-.2-2-.62a.4.4,0,0,1,0-.15.32.32,0,0,1,.08-.12,6.49,6.49,0,0,1,1.48-.4c.89-.18,1.47-.28,1.75-.31a1.07,1.07,0,0,0,.4-.11.37.37,0,0,0,.12-.32c0-.06,0-.19,0-.37a.54.54,0,0,0-.1-.39.57.57,0,0,0-.41-.12l-.45,0c-.2,0-.44,0-.73,0q-1.5,0-1.5-.54c0-.13.17-.25.52-.36s.82-.22,1.41-.35l.48-.1.36-.11a.81.81,0,0,0,.36-.53,1.38,1.38,0,0,1,.19-.37.39.39,0,0,1,.31-.12q.24,0,.39.33a1.06,1.06,0,0,0,.3.36,1.79,1.79,0,0,0,.76.11,4,4,0,0,1,.91.15.45.45,0,0,1,.3.48.58.58,0,0,1-.28.55,2.68,2.68,0,0,1-.8.19,2.56,2.56,0,0,0-.61.15.32.32,0,0,0-.21.32,1.71,1.71,0,0,0,.08.61.36.36,0,0,0,.27.24,2.89,2.89,0,0,0,.63.05l.65,0q1.32,0,1.32.54a.4.4,0,0,1-.1.28.33.33,0,0,1-.25.12v0a2.93,2.93,0,0,1-.54.15,10.45,10.45,0,0,0-1.32.42c-.35.14-.52.28-.52.42,0,.89,0,1.66.05,2.34s.09,1.32.18,2a1.77,1.77,0,0,1,0,.33,1.3,1.3,0,0,1-1.36,1.37A7.48,7.48,0,0,1,14.81,13.64ZM13.48,2.86a.81.81,0,0,1-.23-.52c0-.22.27-.51.8-.88a11,11,0,0,1,1.79-1A4.23,4.23,0,0,1,17.18,0a1,1,0,0,1,.64.18.71.71,0,0,1,.22.6A.69.69,0,0,1,18,1a.45.45,0,0,1-.13.17,4.79,4.79,0,0,1-1,.68c-.58.32-1.17.61-1.76.87A4.19,4.19,0,0,1,14,3.13.63.63,0,0,1,13.48,2.86Z" style="fill:#6c6851"/><path d="M32.64,3a.2.2,0,0,0,.16,0,1.5,1.5,0,0,0,.32-.39,1.75,1.75,0,0,1,.52-.53A9.65,9.65,0,0,1,36,1.25,11.41,11.41,0,0,1,38.39.84a2.33,2.33,0,0,1,1.4.35,1.51,1.51,0,0,1,.46,1.25l0,.8a1.59,1.59,0,0,0,.13.76c0,.06.12.09.28.1l.52,0a5.21,5.21,0,0,1,1.33.13.58.58,0,0,1,.49.61.4.4,0,0,1-.18.33,1.19,1.19,0,0,1-.41.18l-2,.43c-.08,0-.12.27-.12.76s0,1.09,0,2l0,2c0,1.51-.43,2.26-1.31,2.26a1.71,1.71,0,0,1-.59-.11.4.4,0,0,1-.28-.39.34.34,0,0,1,.08-.23,1.08,1.08,0,0,1,.25-.18.54.54,0,0,0,.31-.28,10.83,10.83,0,0,0,0-1.46l0-1.47c0-.62,0-1.1,0-1.44,0-.11,0-.21,0-.33s0-.22,0-.34q0-.6-.57-.6a1.07,1.07,0,0,0-.48.08.34.34,0,0,0-.18.35l0,1.33c0,.3,0,.74,0,1.34,0,2.05-.18,3.15-.53,3.3a.93.93,0,0,1-.39.06q-.66,0-.66-.78a.5.5,0,0,1,0-.19A10.33,10.33,0,0,0,36.32,9V8.3l0-1.15c0-.2,0-.49,0-.88a.29.29,0,0,0-.16,0,1.48,1.48,0,0,0-.52.07.3.3,0,0,0-.2.32,25.56,25.56,0,0,1-.12,3.81.34.34,0,0,1-.33.18c-.34,0-.56-.26-.68-.76a10.52,10.52,0,0,1-.22-2c0-.06,0-.26,0-.58a1.75,1.75,0,0,0-.12-.61.35.35,0,0,0-.12-.1l-.16,0a1.32,1.32,0,0,0-.42.09.83.83,0,0,0-.34.21,1.64,1.64,0,0,0-.11.63c0,.35,0,.55,0,.62a14.38,14.38,0,0,1-.18,1.77c-.08.43-.23.65-.45.65s-.41-.39-.41-1.17l0-.92c0-.2,0-.5,0-.9A1,1,0,0,0,31.62,7a.4.4,0,0,0-.38-.17,5.7,5.7,0,0,0-.95.09L29.85,7a3.81,3.81,0,0,1-.54,0A.39.39,0,0,1,29,6.92a.34.34,0,0,1-.14-.28c0-.25.16-.43.48-.55a11,11,0,0,1,1.39-.35l.58-.11a.59.59,0,0,0,.32-.14,2,2,0,0,0,.12-.88,5.4,5.4,0,0,1,.11-1.17A.55.55,0,0,1,32.47,3ZM34,3.07a.41.41,0,0,0-.24.08,1.63,1.63,0,0,0-.17.2,2,2,0,0,0-.12.17.79.79,0,0,1-.33.22.58.58,0,0,0-.28.15.89.89,0,0,0-.11.52,1.63,1.63,0,0,0,.11.77l.1,0a1.94,1.94,0,0,0,.54-.1.73.73,0,0,0,.4-.26,2.57,2.57,0,0,0,.16-.74c.06-.4.1-.73.11-1A.24.24,0,0,0,34,3.07ZM36.23,4.5a2,2,0,0,0,.21-.79,4.25,4.25,0,0,1,.07-.48,3.46,3.46,0,0,0,0-.52h-.09a2,2,0,0,0-.46,0q-.27.06-.27.18a.8.8,0,0,1-.21.51,1.75,1.75,0,0,0-.21.32,1,1,0,0,0-.06.38c0,.4.12.61.37.61A.64.64,0,0,0,36.23,4.5Zm2.34-.22c.17-.11.25-.35.25-.73l0-.5a1,1,0,0,0-.12-.52.48.48,0,0,0-.43-.19l-.64,0a.6.6,0,0,0-.37.14c0,.3,0,.66,0,1.09a2.18,2.18,0,0,0,.13.8,1,1,0,0,0,.24,0A1.87,1.87,0,0,0,38.57,4.28Z" style="fill:#6c6851"/></g></g></svg>