<svg xmlns="http://www.w3.org/2000/svg" width="7.52mm" height="16.05mm" viewBox="0 0 21.32 45.48"><title>bron</title><g id="圖層_2" data-name="圖層 2"><g id="圖層_1-2" data-name="圖層 1"><path d="M3.77,39.17A1,1,0,0,0,4.14,39a.36.36,0,0,0,.08-.23c0-.11,0-.24,0-.36a3.67,3.67,0,0,1,.13-.77.34.34,0,0,1,.33-.28.4.4,0,0,1,.25.09.29.29,0,0,1,.12.21.3.3,0,0,1-.09.18.42.42,0,0,0-.08.22v0a1,1,0,0,1,0,.21,2.27,2.27,0,0,0,0,.33l0,0a.65.65,0,0,0,.25-.06,1.36,1.36,0,0,0,.24-.13s0-.15,0-.31a1,1,0,0,1,.12-.37.28.28,0,0,1,.27-.14c.2,0,.33.14.39.41a3.41,3.41,0,0,1,.1.85,1.31,1.31,0,0,1-.06.43.28.28,0,0,1-.28.17.35.35,0,0,1-.21-.11.44.44,0,0,0-.22-.11,1.35,1.35,0,0,0-.35.19,1.26,1.26,0,0,0-.32.25s0,.34,0,.91c0,.32,0,.59,0,.83s0,.43,0,.6l0,.47h.35a3.58,3.58,0,0,0,1.69-.44,1.73,1.73,0,0,0-.36-.61A1.13,1.13,0,0,1,6.29,41a.34.34,0,0,1,.11-.24.37.37,0,0,1,.26-.1c.18,0,.39.22.65.66s.52.95.8,1.52a4.27,4.27,0,0,0,.21.39,4.91,4.91,0,0,1,.26.49,2.86,2.86,0,0,1,.15.41,4.12,4.12,0,0,1,.16,1,.31.31,0,0,1-.14.24.39.39,0,0,1-.27.11.37.37,0,0,1-.21-.09,3.66,3.66,0,0,1-.3-.63A7,7,0,0,1,7.69,44c0-.1-.05-.2-.07-.28s0-.15,0-.2a3.38,3.38,0,0,0-.12-.59.3.3,0,0,0,0-.11s0-.06-.07-.06a.15.15,0,0,0-.13.07l-.07.08a1.28,1.28,0,0,1-.58.36,5.6,5.6,0,0,1-1.94.31H4.3a2.54,2.54,0,0,0-.49,0,2.26,2.26,0,0,1-.43.06,1.76,1.76,0,0,0-.34,0l-.43.13a2.08,2.08,0,0,1-.78.19.65.65,0,0,1-.39-.13.43.43,0,0,1-.15-.35.71.71,0,0,1,.17-.45c.11-.15.32-.4.64-.76s.52-.54.6-.54a.18.18,0,0,1,.13.06.24.24,0,0,1,0,.14,1.32,1.32,0,0,1-.13.45l-.06.14a.49.49,0,0,0,0,.19.05.05,0,0,0,0,0,.06.06,0,0,0,.06,0,1.09,1.09,0,0,1,.39-.11l.57-.08a2,2,0,0,0,.47-.07,17.85,17.85,0,0,0,0-2.07c0-.32,0-.49-.08-.49l-.08,0a2.93,2.93,0,0,1-.87.11A.8.8,0,0,1,2.66,40a.59.59,0,0,1-.24-.47,2.26,2.26,0,0,1,.14-.47c.09-.26.19-.5.29-.72S3,38,3.09,38a.39.39,0,0,1,.14,0,.22.22,0,0,1,.19.08.28.28,0,0,1,.08.2,1.62,1.62,0,0,1-.11.46,1.75,1.75,0,0,0-.11.47.06.06,0,0,0,.07.07A1.75,1.75,0,0,0,3.77,39.17Z" style="fill:#fff"/><path d="M15,39.4l.27-.15.15,0a.54.54,0,0,0,.18-.11s0,0,0-.11,0-.13,0-.18a3.66,3.66,0,0,1,.19-.73.4.4,0,0,1,.37-.29.18.18,0,0,1,.15.15,1.82,1.82,0,0,1-.07.36,1.8,1.8,0,0,0-.06.37s0,.09,0,.11l0,0a.72.72,0,0,0,.31-.12l.19-.08a.77.77,0,0,1,.29-.07.21.21,0,0,1,.23.24.31.31,0,0,1-.18.25,3.73,3.73,0,0,1-.52.28,1.22,1.22,0,0,0-.33.18,4.83,4.83,0,0,0,0,.77,1.76,1.76,0,0,1,0,.27.83.83,0,0,0-.06.28c0,.07,0,.12.06.14a.32.32,0,0,0,.16,0,1.11,1.11,0,0,0,.23,0h.24a1.61,1.61,0,0,1,.56.12c.22.09.32.2.32.33s-.07.21-.22.25a2.73,2.73,0,0,1-.66.06,3.75,3.75,0,0,0-.48,0,.32.32,0,0,0-.22.09,1.42,1.42,0,0,0-.11.34,1.81,1.81,0,0,0-.07.38.16.16,0,0,0,0,.12,2.75,2.75,0,0,0,.59-.08l.22,0,.28,0,.29,0,.34,0h.48a5.81,5.81,0,0,1,1.09.15,5.39,5.39,0,0,1,1,.31.41.41,0,0,1,.28.4.32.32,0,0,1-.1.19q-.11.12-.18.12a3.17,3.17,0,0,1-.53,0l-.64-.15a4.89,4.89,0,0,0-1.18-.2,9,9,0,0,0-1.45.12c-.48.09-1,.2-1.68.35l-.28.08-.22.07a3.51,3.51,0,0,1-1,.24c-.21,0-.31-.09-.31-.27s.1-.29.31-.35l.45-.12.88-.24a1.84,1.84,0,0,0,.5-.2,1,1,0,0,0,.11-.38c0-.19,0-.36,0-.51a.22.22,0,0,0,0-.1s0,0-.08,0l-.22,0a.62.62,0,0,1-.18.05l0,.07v.15c0,.08,0,.12-.07.12a.37.37,0,0,1-.26-.18.53.53,0,0,1-.13-.3.48.48,0,0,1,.27-.4,2.67,2.67,0,0,1,.58-.25.77.77,0,0,0,.23-.09c.05,0,.07-.08.07-.17a2.35,2.35,0,0,1,0-.28c0-.08,0-.15,0-.2a3.64,3.64,0,0,0,0-.48.34.34,0,0,0,0-.15s0,0-.09,0a.68.68,0,0,0-.29.06l-.33.19-.21.13a.54.54,0,0,1-.19.05.46.46,0,0,1-.27-.08.27.27,0,0,1-.11-.23c0-.06,0-.13,0-.22a1.11,1.11,0,0,0,0-.23c0-.05,0-.16,0-.35a1,1,0,0,1,.11-.46.31.31,0,0,1,.29-.18q.12,0,.21.18a.74.74,0,0,1,.09.32.55.55,0,0,1-.09.19.51.51,0,0,0-.1.3,0,0,0,0,0,0,0A.6.6,0,0,0,15,39.4Z" style="fill:#fff"/><path d="M7,21.06c-.15.18-.21.42-.34.61s-.38.31-.49.51a6.62,6.62,0,0,0-.37.61c-.09.21,0,.48-.11.7s-.23.43-.27.65.11.48.1.71-.1.47-.08.7a5.75,5.75,0,0,0,.23.66c0,.22-.09.52,0,.73s.42.3.54.51a6,6,0,0,0,.32.61c.14.18.33.31.49.48s.25.42.43.56.47.13.67.25.39.22.6.31a5.55,5.55,0,0,0,.64.24c.23.06.41.32.64.35a5.83,5.83,0,0,0,.72,0,5.45,5.45,0,0,0,.7,0c.23,0,.42-.29.65-.35a4.88,4.88,0,0,0,.65-.2,4,4,0,0,0,.66-.23,5.66,5.66,0,0,0,.54-.43c.18-.14.33-.32.5-.48s.49-.2.63-.38.15-.47.27-.67.34-.36.43-.57,0-.49.06-.72a3.82,3.82,0,0,0,.15-.67,5.78,5.78,0,0,0,.14-.7c0-.23-.27-.43-.31-.66s.12-.5.06-.73-.23-.41-.32-.63-.28-.36-.4-.57-.23-.38-.36-.58-.24-.39-.39-.58-.15-.53-.29-.74-.34-.39-.47-.6-.42-.37-.53-.59,0-.57-.09-.8a6.68,6.68,0,0,1-.21-.73c-.06-.25-.31-.47-.33-.72a6.31,6.31,0,0,1,.07-.76c-.34-.13-.36.12-.72.12s-.36-.06-.73-.06-.36,0-.73,0-.36,0-.73,0-.34-.11-.69,0a3.72,3.72,0,0,1,.08.67c0,.25-.29.47-.35.72a7.11,7.11,0,0,1-.15.75,7.44,7.44,0,0,1-.37.67c-.11.22-.12.51-.25.73a6.62,6.62,0,0,1-.45.63c-.14.21-.24.46-.4.66C7,21.09,7,21.06,7,21.06Z" style="fill:#fff"/><path d="M19.86,12.12c-.36,0-.36.31-.72.31s-.35,0-.71,0-.35-.3-.71-.3-.36.16-.71.16-.36-.14-.72-.14-.36.15-.72.15-.36.2-.72.2-.23-.4-.29-.58-.28-.46-.1-.61.52-.12.69-.28.42-.28.57-.46,0-.59.12-.79.53-.25.63-.46a5.4,5.4,0,0,0,.17-.72c.07-.22.26-.42.32-.65s0-.5,0-.73a5.93,5.93,0,0,0,.1-.72c0-.24-.16-.48-.18-.71s-.19-.44-.24-.66,0-.48-.12-.7-.24-.4-.34-.61-.1-.47-.22-.67-.29-.38-.43-.56-.18-.49-.35-.65-.44-.23-.62-.38-.31-.38-.51-.51a5.52,5.52,0,0,0-.67-.27c-.21-.1-.39-.32-.62-.4s-.53.15-.76.1S11.63,0,11.39,0a6.11,6.11,0,0,0-.73,0,5.83,5.83,0,0,0-.7.15,3.94,3.94,0,0,0-.7.09c-.23,0-.41.28-.63.36A5.06,5.06,0,0,0,8,.87c-.21.1-.44.16-.64.28s-.51.12-.69.26a6.26,6.26,0,0,0-.5.53C6,2.1,6,2.4,5.8,2.58a6.08,6.08,0,0,0-.33.62c-.12.2-.56.23-.66.44s.14.57.06.79-.42.37-.48.6.08.49.05.73-.05.46-.05.7-.12.49-.1.72.3.43.35.66a4.64,4.64,0,0,0,.26.65c.08.22,0,.5.1.72s.06.52.19.72.37.33.52.52.43.24.6.41.33.32.52.47l-.13.16a.32.32,0,0,1,.14.42c-.06.18-.14.49-.37.49s-.35-.34-.71-.34-.36.39-.71.39-.36-.13-.71-.13-.36-.1-.72-.1-.36.17-.71.17-.36-.33-.72-.33l-.72,0a1.76,1.76,0,0,0-.82.22,1.72,1.72,0,0,0-.61.59c-.13.21.1.56.1.83s-.09.53,0,.75.42.26.64.38a1.16,1.16,0,0,0,.66.16c.35,0,.35.17.7.17s.36,0,.71,0,.35.2.71.2.35-.34.7-.34.36.33.71.33.35-.27.71-.27.35.29.7.29.35-.27.7-.27.35-.11.7-.11.35.26.71.26h.7c.36,0,.36-.12.71-.12s.35-.1.71-.1h.7c.35,0,.35.21.71.21s.35-.08.71-.08.35.09.7.09.36-.27.71-.27.36.36.71.36.36-.34.71-.34.36.33.71.33.35,0,.71,0,.35,0,.71,0,.35.06.71.06.36-.18.71-.18.36,0,.72,0a1.23,1.23,0,0,0,.66-.26,1.16,1.16,0,0,0,.44-.51,1.2,1.2,0,0,0,.25-.63c0-.27.19-.61.07-.83a1.84,1.84,0,0,0-.66-.5A1.69,1.69,0,0,0,19.86,12.12ZM10.66,9.7c-.26,0-.55.28-.79.23a3.9,3.9,0,0,1-.73-.31c-.23-.11-.28-.49-.48-.65S8.18,8.76,8,8.56s-.16-.47-.28-.7-.33-.4-.39-.65-.28-.49-.28-.75.39-.48.45-.72-.17-.6-.06-.82.45-.33.61-.52A2.85,2.85,0,0,1,8.68,4c.19-.16.21-.6.44-.72s.58.12.83.07a2.9,2.9,0,0,1,.71-.21,3,3,0,0,1,.72.21,2.89,2.89,0,0,1,.72.16,3.12,3.12,0,0,1,.59.44c.2.16.46.23.62.43s.41.35.52.58a3.83,3.83,0,0,1,.18.76,3.42,3.42,0,0,1,.17.77,3.23,3.23,0,0,1-.22.75,3.65,3.65,0,0,1-.23.73c-.11.23-.38.33-.54.53s-.23.46-.43.62a3.25,3.25,0,0,1-.69.29,3.13,3.13,0,0,1-.66.33A3.77,3.77,0,0,1,10.66,9.7Z" style="fill:#fff"/></g></g></svg>