<svg xmlns="http://www.w3.org/2000/svg" width="10.42mm" height="16.36mm" viewBox="0 0 29.55 46.38"><title>buy</title><g id="圖層_2" data-name="圖層 2"><g id="圖層_1-2" data-name="圖層 1"><path d="M5.77,40.75c0-.24.08-.53.13-.88a11.1,11.1,0,0,0,.17-1.33,3.27,3.27,0,0,1,.08-.5.73.73,0,0,1,.28-.31.9.9,0,0,1,.48-.19.52.52,0,0,1,.45.3,2.38,2.38,0,0,1,.26.71,4,4,0,0,1,.08.68,11.08,11.08,0,0,1-.27,2.22,1.51,1.51,0,0,1-.3.63c-.15.22-.23.33-.23.34s.42.42,1,.94q.39.35.75.72l.33,0c.17,0,.26-.06.28-.12s0-.26.08-.57a1.92,1.92,0,0,1,0-.22,2.38,2.38,0,0,0,.05-.26,5.91,5.91,0,0,0,.11-.6h0c-.15-.11-.22-.21-.22-.3a.14.14,0,0,1,.05-.13.45.45,0,0,1,.17-.08.49.49,0,0,0,.15-.09.75.75,0,0,0,.13-.26c.06-.12.1-.21.14-.28S10,41,10,41s.16,0,.16.11a.63.63,0,0,1,0,.14.39.39,0,0,0-.05.14.16.16,0,0,0,.12,0,.22.22,0,0,0,.2-.11,1.12,1.12,0,0,0,.13-.35,1.47,1.47,0,0,1,.12-.33.23.23,0,0,1,.22-.12c.08,0,.13.07.13.21a4.26,4.26,0,0,1,0,.43,2.49,2.49,0,0,1,.5,0,.62.62,0,0,1,.58.47,5.4,5.4,0,0,1,.32,1.2s0,.11,0,.21a.57.57,0,0,0,.06.17.3.3,0,0,0,.18.05H13a1.74,1.74,0,0,1,.56.07.43.43,0,0,1,.17.08.43.43,0,0,1,0,.2c0,.22-.07.36-.2.42a1.27,1.27,0,0,1-.54.12.69.69,0,0,0-.47.11.53.53,0,0,0-.06.22c0,.13,0,.22,0,.27a6.58,6.58,0,0,1-.26,1.18c-.11.31-.28.47-.51.47a.21.21,0,0,1-.23-.23.52.52,0,0,1,.06-.22,2.05,2.05,0,0,0,.08-.19,3.13,3.13,0,0,0,.19-1.06c0-.17,0-.26-.15-.26s-.34.07-.9.22l-.86.24a.34.34,0,0,0-.08.2c0,.1,0,.16,0,.18a1.66,1.66,0,0,1-.1.47.27.27,0,0,1-.5,0,2.21,2.21,0,0,1-.1-.48.88.88,0,0,0,0-.14C9.06,45,9,45,9,45a.39.39,0,0,0-.17,0,2.86,2.86,0,0,1-.72-.08.37.37,0,0,1-.29-.4.27.27,0,0,1,0-.14.31.31,0,0,0,0-.11A9,9,0,0,1,6.77,42.9v0c-.06-.05-.13,0-.19.2a1.94,1.94,0,0,1-.11.29c-.14.33-.3.68-.48,1.06a2.7,2.7,0,0,1-.42.71.29.29,0,0,1-.21.09.25.25,0,0,1-.17,0,.19.19,0,0,1,0-.15,1.41,1.41,0,0,1,.13-.57c.09-.2.21-.47.38-.79a2.49,2.49,0,0,0,.3-.67A1,1,0,0,1,6,42.92a.41.41,0,0,0,.05-.21l0,0-.11,0a.2.2,0,0,1-.1,0,.24.24,0,0,1-.18-.08.24.24,0,0,1-.09-.16.42.42,0,0,1,.12-.23.44.44,0,0,0,.1-.22,1.69,1.69,0,0,0,0-.28,1.89,1.89,0,0,1,0-.3C5.73,41.22,5.75,41,5.77,40.75Zm1.07.37c0-.21,0-.37,0-.5a0,0,0,0,0,0,0,.54.54,0,0,0-.35.11.34.34,0,0,0-.15.29,1,1,0,0,1,0,.24.89.89,0,0,1,0,.11.62.62,0,0,0,0,.13c0,.08,0,.12.13.12a1.24,1.24,0,0,0,.39-.07A1.19,1.19,0,0,0,6.84,41.12Zm.1-1.42-.16,0a.53.53,0,0,0-.22.08.18.18,0,0,0-.09.15.21.21,0,0,0,0,.15.64.64,0,0,0,.2,0A.4.4,0,0,0,7,40.06a.27.27,0,0,0,.09-.22C7.05,39.77,7,39.73,6.94,39.7ZM7,38.36c0-.21-.11-.32-.23-.32s-.25.25-.25.75a1.51,1.51,0,0,0,0,.38.21.21,0,0,0,.13.13l.37,0V39A4.74,4.74,0,0,0,7,38.36Zm3.51-1.59a1.2,1.2,0,0,0,.27-.22l.09-.2a.15.15,0,0,1,.14-.09c.05,0,.14.06.29.17s.22.21.22.26a.46.46,0,0,1-.12.25.5.5,0,0,0-.13.28.14.14,0,0,0,.05.13l.15.06.15.05a.21.21,0,0,1,.05.15.59.59,0,0,1-.15.33c-.1.13-.26.31-.47.54a5.51,5.51,0,0,0-.47.54.78.78,0,0,0-.18.37h0a4,4,0,0,0,.74-.18l.57-.16A1.86,1.86,0,0,1,12.2,39a.37.37,0,0,1,.21.06.25.25,0,0,1,.11.17.28.28,0,0,1-.08.15.6.6,0,0,1-.15.09l-.5.18-.37.11-.52.17-.73.27c-.33.14-.6.24-.82.31a2.73,2.73,0,0,1-.74.09,1,1,0,0,1-.39-.07.31.31,0,0,1-.14-.3A.22.22,0,0,1,8.23,40a1.39,1.39,0,0,1,.41-.11l.25,0a3,3,0,0,0,.4-.21c.13-.09.19-.17.19-.26s0-.15-.08-.17a.55.55,0,0,0-.24-.06.83.83,0,0,1-.26-.06.2.2,0,0,1-.09-.2.18.18,0,0,1,.07-.15.8.8,0,0,1,.22,0,.79.79,0,0,0,.23-.07.17.17,0,0,0,.07-.16,5,5,0,0,0,0-.52c0-.19,0-.3-.07-.32l-.13-.05-.11-.06a.24.24,0,0,1,0-.14.18.18,0,0,1,.05-.14.33.33,0,0,1,.15,0,.34.34,0,0,0,.16,0A.16.16,0,0,0,9.48,37a1.88,1.88,0,0,1,.2-.46c.11-.17.21-.26.31-.26a.15.15,0,0,1,.12.08.27.27,0,0,1,.06.16.56.56,0,0,1,0,.15.41.41,0,0,0,0,.16s0,0,0,0h0A.68.68,0,0,0,10.51,36.77Zm-.4,6.34a.34.34,0,0,0-.17,0,2.47,2.47,0,0,0,0,.44c0,.09,0,.13,0,.13s.14-.07.24-.22a.65.65,0,0,0,.16-.32v0A.85.85,0,0,0,10.11,43.11Zm.21-1.17-.17,0a.33.33,0,0,0-.18.11.41.41,0,0,0-.05.21v.32l.21,0a.48.48,0,0,0,.23-.07.23.23,0,0,0,.08-.19C10.45,42.09,10.4,42,10.32,41.94Zm.19-4.57a.38.38,0,0,0-.19.06.31.31,0,0,0-.15.12v.32c0,.19,0,.29.05.29s.13-.09.21-.28a1.16,1.16,0,0,0,.12-.38A.35.35,0,0,0,10.51,37.37Zm1.25,5.69c0-.21,0-.32-.1-.32l-.38.14A1.16,1.16,0,0,1,11,43l-.17.22a3.86,3.86,0,0,0-.34.53l0,0h.05l.17-.05.15-.06a3.06,3.06,0,0,1,.38-.1l.51-.15S11.77,43.26,11.76,43.06Zm-.24-1.24a.24.24,0,0,0-.14-.14l-.19,0a.26.26,0,0,0-.19.11.48.48,0,0,0-.05.24c0,.16,0,.23.13.23a.75.75,0,0,0,.27-.1q.21-.11.21-.15A.66.66,0,0,0,11.52,41.82Z" style="fill:#fff"/><path d="M17.4,39.88a8.87,8.87,0,0,1,.23-1.06c.09-.31.18-.47.27-.47s.24.16.24.47v.34a.49.49,0,0,0,0,.25.62.62,0,0,0,.46-.25,1,1,0,0,0,.13-.45.82.82,0,0,1,.06-.25.13.13,0,0,1,.13-.07c.13,0,.2.16.2.47a.33.33,0,0,0,.06.23.38.38,0,0,0,.2.1.45.45,0,0,1,.17.08.29.29,0,0,1,.05.19.6.6,0,0,1-.07.27.23.23,0,0,1-.2.14c-.09,0-.15,0-.17.09a.69.69,0,0,0,0,.2v.16q0,.21.12.21a.5.5,0,0,0,.15,0l.14,0a.32.32,0,0,1,.18.06.18.18,0,0,1,.09.15.24.24,0,0,1-.1.16,3.27,3.27,0,0,1-.28.19,2.21,2.21,0,0,0-.36.24.63.63,0,0,0-.16.25l-.07.39c-.05.27-.09.46-.11.56s-.09.39-.22,1a2.31,2.31,0,0,1-.37,1.06.21.21,0,0,1-.14,0,.23.23,0,0,1-.21-.11.5.5,0,0,1-.08-.27A5.8,5.8,0,0,1,18,42.58l.06-.2s0-.09.07-.22a1.33,1.33,0,0,0,.05-.3.07.07,0,0,0-.05-.06,1.56,1.56,0,0,1-.7.24c-.22,0-.32-.06-.32-.19a.28.28,0,0,1,.15-.22c.11-.06.25-.14.45-.23l.21-.1a1.6,1.6,0,0,0,.27-.16.59.59,0,0,0,.16-.15,3.35,3.35,0,0,0,.13-.41c.06-.24.1-.43.12-.56a1,1,0,0,0-.58.19.93.93,0,0,0-.22.39.51.51,0,0,1-.1.21.21.21,0,0,1-.17.07.19.19,0,0,1-.21-.22A6.25,6.25,0,0,1,17.4,39.88Zm4.35-.12c.05,0,.09,0,.12.1a.41.41,0,0,1,.05.17,8.07,8.07,0,0,1-1.26,2.66v0a.44.44,0,0,1-.35.23.29.29,0,0,1-.18-.07.21.21,0,0,1-.08-.16,3.55,3.55,0,0,1,.34-.81c.23-.44.48-.88.74-1.31a3.33,3.33,0,0,1,.51-.73A.12.12,0,0,1,21.75,39.76Zm-1.38-.23a3,3,0,0,1,.35-.81c.15-.23.31-.35.48-.35a.32.32,0,0,1,.2.06.2.2,0,0,1,.09.18.71.71,0,0,1-.11.32.87.87,0,0,0-.1.33l0,.06.09,0,.07,0a5,5,0,0,1,.88-.31,4,4,0,0,1,.88-.13h.09a.37.37,0,0,1,.23,0s.07.06.14.16a3.52,3.52,0,0,1,.12.88c0,.54.05.91.05,1.11a6.83,6.83,0,0,1-.2,1.41,7.43,7.43,0,0,1-.57,1.67c-.24.48-.52.73-.84.73a.47.47,0,0,1-.25-.1.29.29,0,0,1-.13-.22c0-.1,0-.14.1-.14a.19.19,0,0,1,.1,0,.23.23,0,0,0,.1.05c.13-.05.26-.27.41-.66a9.44,9.44,0,0,0,.34-1,5.31,5.31,0,0,0,.14-.86c0-.29,0-.65,0-1.09,0-.1,0-.25,0-.45s0-.53,0-.68a.3.3,0,0,0,0-.18.23.23,0,0,0-.17,0,.5.5,0,0,0-.15,0,8.9,8.9,0,0,1-1.73.22s-.07.17-.19.43-.25.4-.38.4a.22.22,0,0,1-.18-.08.37.37,0,0,1-.06-.21A3.08,3.08,0,0,1,20.37,39.53Zm0,4.28.11-.17a19.31,19.31,0,0,0,1-1.7,7.09,7.09,0,0,0,.59-1.55s0-.11,0-.22a1.08,1.08,0,0,1,.08-.3c0-.09.08-.13.14-.13a.21.21,0,0,1,.23.14,1.13,1.13,0,0,1,0,.35,5.81,5.81,0,0,1-.23,1.43,6.94,6.94,0,0,1-.63,1.59,2.73,2.73,0,0,1-.86,1,.59.59,0,0,1-.29.11.32.32,0,0,1-.24-.09.36.36,0,0,1-.08-.24A.56.56,0,0,1,20.4,43.81Z" style="fill:#fff"/><path d="M9.64,21.55c.25-.26.17-.11.52-.11s.35-.12.7-.12.36-.16.71-.16.35.49.7.49.36-.13.71-.13.35-.18.7-.18.35,0,.7,0h.7c.35,0,.35-.12.71-.12s.35,0,.7,0,.36-.07.71-.07h.7c.36,0,.36,0,.71,0s.35.47.71.47.35-.29.7-.29.36-.14.71-.14.36.45.71.45.35-.32.71-.32h.71c.35,0,.35.31.7.31s.36-.39.71-.39.36.15.71.15.36.14.72.14.35.11.71.11a1.46,1.46,0,0,0,.75-.33,1.58,1.58,0,0,0,.44-.69c0-.36-.14-.38-.08-.74s-.22-.4-.16-.75.21-.34.27-.69.07-.36.12-.71.32-.32.37-.68-.19-.39-.13-.75-.2-.4-.15-.76.3-.32.36-.67,0-.37.06-.73,0-.37,0-.73.46-.3.51-.65l.1-.72c.06-.36-.16-.4-.1-.76s.2-.33.26-.69-.33-.42-.27-.78.13-.35.18-.7.36-.32.41-.68-.08-.38,0-.74-.25-.41-.19-.77.19-.34.24-.7.24-.69,0-.91-.63,0-.88,0-.36-.23-.72-.23-.36.34-.72.34-.36-.25-.72-.25-.36.08-.72.08-.35-.1-.71-.1-.36.11-.72.11-.36-.35-.72-.35-.36.47-.72.47-.36-.49-.72-.49-.36.55-.71.55-.36-.3-.72-.3H20c-.35,0-.35-.22-.71-.22s-.36,0-.71,0-.36.16-.72.16-.36.34-.72.34h-.72c-.36,0-.36,0-.72,0S15.31,5.1,15,5.1s-.36-.17-.72-.17-.36.34-.72.34-.36-.2-.72-.2S12.43,5,12.07,5s-.36,0-.72,0S11,5,10.63,5s-.36.09-.72.09S9.55,5,9.18,5s-.36.17-.72.17-.36,0-.73,0-.36.13-.64-.1S7,4.8,7,4.47s-.28-.3-.34-.64.11-.37.06-.7.15-.38.1-.72-.11-.33-.16-.67-.43-.28-.48-.62.23-.64.07-.79-.55.09-.77.09S5.1,0,4.73,0,4.37.39,4,.39,3.64.17,3.28.17s-.37.27-.74.27H1.08C.82.43.39.21.21.38A1.43,1.43,0,0,0,0,1.24c0,.27.33.41.5.58s.31.42.58.42.35-.15.71-.15.35-.16.71-.16.35.27.71.27.36.14.72.14.42-.36.7-.13-.21.36-.16.69.4.29.45.63-.3.39-.25.73.59.26.64.6-.1.36,0,.7.13.33.18.67c0,0-.08,0-.08,0,0,.35.15.33.2.68s-.38.41-.32.76,0,.36,0,.71.49.28.54.63,0,.36.06.71-.06.37,0,.71.27.32.32.67-.17.38-.11.73.22.33.27.68,0,.36,0,.71.2.33.26.68-.43.43-.38.78.56.27.62.62-.1.38,0,.73-.29.4-.24.75.1.34.16.69,0,.37,0,.72.29.32.34.67.26.33.31.68.06.35.09.69-.23.37-.2.71.41.31.45.65-.07.35,0,.7,0,.35,0,.69,0,.35,0,.69,0,.34.06.69.08.34.11.69-.14.36,0,.67c.06.13,0,.08.06.18-.1.21,0,.26-.08.48s-.26.46-.26.69.38.45.43.68-.19.59-.09.8.35.39.49.58.24.5.43.65.67-.17.88-.07a3.8,3.8,0,0,0,.6.31,3,3,0,0,0,.68.09c.24,0,.5.22.73.17s.56,0,.77-.08.14-.69.33-.83.57-.08.72-.26,0-.54.12-.75a3.17,3.17,0,0,0,.18-.64c0-.23.3-.41.3-.65a3.07,3.07,0,0,0,0-.68,2.19,2.19,0,0,0-.17-.55c.35-.11.34.14.7.14s.37-.44.74-.44.37.14.74.14.37.31.74.31.37-.45.74-.45.37.09.74.09.37.29.74.29.37-.08.74-.08.45-.4.81-.29a5.09,5.09,0,0,0-.23.85,3.74,3.74,0,0,0-.1.67,3.34,3.34,0,0,0,.21.68,3.35,3.35,0,0,0,.25.62,3.12,3.12,0,0,0,.34.59c.15.18.08.59.27.74a3.08,3.08,0,0,0,.7.27,2.83,2.83,0,0,0,.66.31c.23.05.49-.13.74-.13s.41-.21.64-.26a2.6,2.6,0,0,0,.64-.15,2.39,2.39,0,0,0,.59-.32c.19-.14.53-.12.68-.31a3.23,3.23,0,0,0,.46-.59c.1-.21,0-.51.07-.75s-.07-.46-.07-.7.4-.51.35-.73-.17-.21-.27-.42c.1-.1-.05-.3.09-.3a.86.86,0,0,0,.66-.16.9.9,0,0,0,.24-.66.77.77,0,0,0-.31-.59c-.16-.17-.32-.53-.59-.53S26.33,24,26,24s-.36-.14-.73-.14-.36-.26-.73-.26-.36.48-.73.48-.36-.1-.72-.1-.36-.37-.73-.37-.36.06-.72.06-.37.45-.73.45-.37,0-.73,0-.37-.54-.73-.54-.37.24-.73.24-.37.21-.73.21-.37-.43-.73-.43-.37.33-.74.33-.36-.28-.73-.28-.36.5-.73.5-.37-.55-.73-.55h-.74c-.36,0-.36.18-.73.18h-.73c-.37,0-.37-.14-.74-.14S11,24,10.62,24s-.57.3-.87.08.2-.5.15-.82-.4-.25-.45-.57a4,4,0,0,0-.14-.6C9.24,21.83,9.42,21.78,9.64,21.55ZM22.48,9.75c0-.25-.08-.44.11-.59a1,1,0,0,1,.64-.33,1.25,1.25,0,0,1,.78.24c.16.19-.2.54-.21.79s.09.36.06.7.15.37.12.71-.06.35-.09.69l-.06.7c0,.34.08.35.05.7s0,.35,0,.69.05.36,0,.7l-.06.7c0,.35-.05.35-.08.7s-.5.31-.53.66.16.49,0,.64-.4.4-.64.4c0,0,0-.45-.08-.45-.26,0-.52.16-.67,0a1.1,1.1,0,0,1-.25-.71c0-.34.35-.31.38-.66s-.37-.38-.34-.73.18-.33.21-.68.17-.33.2-.68.14-.33.17-.68,0-.35,0-.7.09-.34.12-.69-.16-.36-.13-.71-.32-.43-.2-.76S22.45,10.1,22.48,9.75Zm-5.78,0c0-.25-.1-.44.07-.61a.93.93,0,0,1,.62-.38,1.3,1.3,0,0,1,.82.17c.17.17-.15.55-.15.82s.12.35.12.69.18.35.18.69,0,.35,0,.7,0,.35,0,.69.11.35.11.69,0,.35,0,.7.08.34.08.69v.7c0,.34,0,.34,0,.69s-.47.35-.47.7.18.52,0,.69-.42.43-.68.43-.31-.47-.48-.64-.51-.21-.51-.48,0-.34,0-.69.32-.35.32-.69-.4-.35-.4-.7.15-.34.15-.69.14-.34.14-.69.11-.35.11-.69-.05-.35-.05-.7.06-.35.06-.69-.28-.34-.19-.68S16.7,10.14,16.7,9.79Zm-5.13-.65c.25,0,.43-.14.61,0s.41.31.43.56.19.34.22.68-.46.39-.43.74.16.33.19.68.21.33.24.68,0,.35,0,.69l.06.69c0,.35.15.34.18.69s.07.34.1.69.1.34.13.69,0,.35.06.7a1.43,1.43,0,0,1-.28.83c-.16.19-.55-.08-.8-.06-.05,0,0,.29-.09.29a1.16,1.16,0,0,1-.74-.16c-.16-.15.12-.51.1-.75s-.34-.32-.37-.66,0-.35-.07-.69.28-.38.25-.72-.42-.32-.45-.66.12-.36.09-.71.11-.36.08-.7.08-.36.05-.71-.08-.34-.11-.69,0-.35,0-.7-.22-.33-.24-.68-.17-.62,0-.8.54-.2.8-.22C11.66,9,11.57,9.14,11.57,9.14ZM23.54,26c.24,0,.43-.14.62,0s.45.19.56.39.35.45.35.69-.51.32-.63.52-.12.37-.32.49-.34.34-.58.34a1.71,1.71,0,0,1-1.43-1.35,1.61,1.61,0,0,1,.15-.74,1.75,1.75,0,0,1,.5-.61,2.64,2.64,0,0,1,.94-.13C23.79,25.7,23.54,26,23.54,26ZM11.08,26c.24,0,.43-.14.62,0s.45.19.56.39.35.45.35.69-.51.32-.63.52-.12.37-.32.49-.34.34-.58.34a1.39,1.39,0,0,1-.66-.21,1.3,1.3,0,0,1-.48-.48,1.4,1.4,0,0,1-.29-.66,1.44,1.44,0,0,1,.13-.75,1.68,1.68,0,0,1,.52-.6C10.49,25.62,10.83,26,11.08,26Z" style="fill:#fff"/></g></g></svg>