<svg xmlns="http://www.w3.org/2000/svg" width="70.65" height="70.63" viewBox="0 0 70.65 70.63"><title>cancel</title><g id="圖層_2" data-name="圖層 2"><g id="gashapon_machine" data-name="gashapon machine"><g id="_7" data-name="7"><path d="M33.55,70.63a.69.69,0,0,1-.41-.13.4.4,0,0,0-.22-.09h0a1.29,1.29,0,0,0-.35,0,.9.9,0,0,1-.27.06h-.15l-.3-.08a2.09,2.09,0,0,0-.34-.08h0a1,1,0,0,0-.36.08l-.12,0a.85.85,0,0,1-.22,0h-.13l-.24-.06-.23-.06a.74.74,0,0,1-.43-.28c-.14-.2-.23-.32-.34-.34l-.34,0a2.06,2.06,0,0,1-.37,0h0a.41.41,0,0,0-.25.11A.7.7,0,0,1,28,70a.69.69,0,0,1-.54-.25.36.36,0,0,0-.19-.13h-.05a.46.46,0,0,0-.21.07.72.72,0,0,1-.9-.24c-.1-.15-.16-.18-.21-.2a1.42,1.42,0,0,0-.3,0h-.11a1,1,0,0,1-.28,0H25.1a1.45,1.45,0,0,0-.28,0l-.11,0-.15,0a.57.57,0,0,1-.18,0l-.26-.06-.12,0a.74.74,0,0,1-.5-.44c-.08-.24-.15-.39-.25-.43h-.06a.7.7,0,0,0-.31.15.68.68,0,0,1-.39.11.74.74,0,0,1-.5-.2.52.52,0,0,0-.18-.14.75.75,0,0,1-.24-.19l-.06-.08a.73.73,0,0,0-.29-.27s0,0-.09,0a.63.63,0,0,0-.2,0,.78.78,0,0,1-.22,0,.72.72,0,0,1-.62-.37.47.47,0,0,0-.18-.22,1.8,1.8,0,0,0-.35-.08,1.19,1.19,0,0,1-.31-.07.49.49,0,0,0-.18,0,1.27,1.27,0,0,0-.26,0l-.18,0a.8.8,0,0,1-.43-.13l-.1-.08a2.23,2.23,0,0,0-.3-.2,1.31,1.31,0,0,1-.29-.22,2.77,2.77,0,0,0-.29-.22,1.73,1.73,0,0,1-.28-.19,3.72,3.72,0,0,0-.31-.22.82.82,0,0,0-.34-.07.71.71,0,0,1-.62-.45.72.72,0,0,0-.2-.31,1.83,1.83,0,0,0-.32-.14l-.22-.1a.67.67,0,0,1-.27-.23l-.06-.11a1.09,1.09,0,0,0-.24-.3,1.05,1.05,0,0,0-.35-.13,1.2,1.2,0,0,1-.24-.06l-.18-.11-.2-.14-.32-.22a1.24,1.24,0,0,1-.25-.26c-.08-.08-.15-.17-.24-.25a.61.61,0,0,1-.15-.17l-.07-.14a.85.85,0,0,0-.21-.32.63.63,0,0,0-.38-.11H11.7a.68.68,0,0,1-.38-.16l-.16-.13-.31-.28a3.07,3.07,0,0,1-.25-.26L10.35,61l-.06-.08a.75.75,0,0,1-.13-.21A1,1,0,0,0,10,60.4a.54.54,0,0,0-.34-.12.69.69,0,0,1-.6-.53.68.68,0,0,0-.14-.31l-.06-.08a1.25,1.25,0,0,1-.1-.21,1.41,1.41,0,0,0-.19-.35,3.15,3.15,0,0,1-.22-.29l-.21-.28a.75.75,0,0,0-.37-.15.7.7,0,0,1-.55-.53A1,1,0,0,0,7,57.24c-.07-.09-.16-.17-.24-.26a1.64,1.64,0,0,1-.26-.27.16.16,0,0,1,0-.07,1.8,1.8,0,0,1-.11-.28A1.83,1.83,0,0,0,6.25,56a2.28,2.28,0,0,1-.17-.3,2.68,2.68,0,0,0-.17-.34.64.64,0,0,0-.36-.19.85.85,0,0,1-.44-.32l-.25-.42a.7.7,0,0,1-.09-.4v0a.7.7,0,0,0,0-.42.4.4,0,0,0-.19-.16.71.71,0,0,1-.33-.89c.1-.23.06-.29,0-.32A2,2,0,0,0,4,52a.92.92,0,0,1-.19-.2.41.41,0,0,1-.07-.11q0-.12-.09-.27l0,0A2.19,2.19,0,0,0,3.55,51l-.11-.24c-.06-.13-.13-.27-.19-.41a1.08,1.08,0,0,0-.2-.29,1.77,1.77,0,0,1-.19-.29.75.75,0,0,1,0-.16,1,1,0,0,1,0-.2A1.14,1.14,0,0,0,2.73,49a.74.74,0,0,0-.25-.28l-.1-.07a.76.76,0,0,1-.18-.25A1,1,0,0,0,2,48.14l-.09-.09a.75.75,0,0,1-.18-.46.38.38,0,0,1,0-.1,1.17,1.17,0,0,0,0-.39.92.92,0,0,0-.14-.26.7.7,0,0,1,0-.85c.17-.21.22-.32.19-.4a.81.81,0,0,0-.21-.31l-.08-.09a.69.69,0,0,1-.17-.34c0-.07,0-.14,0-.21s0-.28-.05-.39a2.26,2.26,0,0,0-.13-.33,1.81,1.81,0,0,1-.14-.35.77.77,0,0,0-.19-.32l-.09-.1a1.23,1.23,0,0,1-.12-.26,1.05,1.05,0,0,0-.1-.3,1.84,1.84,0,0,1-.11-.36.63.63,0,0,1,0-.36,1.33,1.33,0,0,0,0-.38,3.37,3.37,0,0,0-.09-.34L1,40.89l-.68.2,0-.09a.65.65,0,0,1,.09-.57A.77.77,0,0,0,.53,40a3.38,3.38,0,0,0-.08-.34,2.43,2.43,0,0,1-.08-.36.48.48,0,0,0-.13-.24.71.71,0,0,1,0-.91c.14-.16.15-.23.15-.29a2.05,2.05,0,0,0-.07-.34,2.83,2.83,0,0,1-.07-.36,1.05,1.05,0,0,0-.08-.35c0-.1-.07-.25-.08-.3a.82.82,0,0,1,0-.27.83.83,0,0,0,0-.12,1.12,1.12,0,0,0,.1-.39,1.57,1.57,0,0,1,0-.37c0-.11,0-.23,0-.35a1.06,1.06,0,0,0-.09-.35,1.71,1.71,0,0,1-.07-.26.61.61,0,0,1,0-.14.41.41,0,0,0-.07-.17.71.71,0,0,1,.18-1c.2-.14.2-.21.21-.24a1.17,1.17,0,0,0-.08-.36c0-.07,0-.12-.06-.17a.79.79,0,0,1,0-.22c0-.11,0-.22,0-.33a2.35,2.35,0,0,1,0-.37L.39,31l0-.28a.5.5,0,0,1,0-.12c0-.05.06-.12.1-.2a1.48,1.48,0,0,0,.14-.36.8.8,0,0,0-.06-.36c0-.07,0-.12,0-.17a.59.59,0,0,1,0-.23.86.86,0,0,0,0-.3.7.7,0,0,1,.27-.78c.17-.11.23-.18.25-.27a1.86,1.86,0,0,0,.05-.34,1.84,1.84,0,0,1,0-.29A.59.59,0,0,1,1.29,27a.39.39,0,0,1,.08-.1,1,1,0,0,0,.21-.32c0-.11,0-.23-.1-.4a.79.79,0,0,1,0-.62l.05-.09a2.28,2.28,0,0,0,.15-.35,2.11,2.11,0,0,1,.16-.34A1.54,1.54,0,0,0,2,24.48a1.87,1.87,0,0,0,.08-.34,2.7,2.7,0,0,1,.09-.36l.1-.28.09-.27a.69.69,0,0,1,.32-.37c.19-.11.3-.18.34-.28a.85.85,0,0,0,0-.39l0-.09a.68.68,0,0,1,0-.37l.09-.23c.05-.14.1-.25.15-.36a2.13,2.13,0,0,0,.11-.33l.07-.21a.65.65,0,0,1,.29-.36l0,0A.81.81,0,0,0,4.09,20c0-.1.12-.2.18-.3s.14-.21.19-.3A1.42,1.42,0,0,0,4.57,19a1.26,1.26,0,0,1,.07-.28.41.41,0,0,1,.05-.09.83.83,0,0,0,.06-.36v-.08A.78.78,0,0,1,5,17.73l.12-.11a1.08,1.08,0,0,0,.21-.22.89.89,0,0,1,.29-.22l.07,0A.74.74,0,0,0,6,17a.68.68,0,0,0,0-.42A.9.9,0,0,1,6.11,16a1.19,1.19,0,0,0,.12-.22c0-.07.07-.14.1-.2a.72.72,0,0,1,.33-.29l.07,0a.93.93,0,0,0,.33-.19A.75.75,0,0,1,7.23,15l.14-.07a1,1,0,0,0,.33-.21,1.06,1.06,0,0,0,.15-.34.75.75,0,0,1,.07-.18A.54.54,0,0,1,8,14a.66.66,0,0,0,.11-.26.71.71,0,0,1,.68-.53h0a.45.45,0,0,0,.31-.08,1.57,1.57,0,0,0,.2-.3.87.87,0,0,1,.14-.24l.08-.08.21-.23.26-.28a.92.92,0,0,0,.2-.31.69.69,0,0,0,.06-.13.74.74,0,0,1,.33-.3l.14-.05a1.35,1.35,0,0,0,.34-.17,1.48,1.48,0,0,0,.24-.26,1.7,1.7,0,0,1,.26-.27l.25-.25a2.21,2.21,0,0,1,.28-.26.68.68,0,0,1,.39-.13,1.06,1.06,0,0,0,.3-.1.43.43,0,0,1,.21-.09l.14,0a1,1,0,0,0,.38-.1c.05,0,.1-.08.14-.27a.73.73,0,0,1,.69-.53h.14a.49.49,0,0,0,.19,0,1.28,1.28,0,0,1,.34-.14,2.26,2.26,0,0,0,.33-.13,1,1,0,0,0,.26-.24,1.24,1.24,0,0,1,.2-.19l.1-.07.23-.12.38-.2.21-.1.44-.22a.72.72,0,0,1,.29-.06h.12a.83.83,0,0,0,.32,0A1,1,0,0,0,18.24,7a.91.91,0,0,1,.18-.17.65.65,0,0,1,.37-.14l.09,0a1.28,1.28,0,0,0,.35-.09,1.34,1.34,0,0,0,.31-.17,1.55,1.55,0,0,1,.33-.18A1.59,1.59,0,0,0,20.18,6a1,1,0,0,1,.3-.17.73.73,0,0,0,.28-.19.71.71,0,0,1,.49-.2.72.72,0,0,1,.32.08.75.75,0,0,0,.31.1h.06a.63.63,0,0,1,.19,0,.71.71,0,0,1,.21,0l.19,0,.15,0a.82.82,0,0,0,.3-.24L23,5.35a.61.61,0,0,1,.32-.19l.25-.08L24,5l.34,0a3,3,0,0,0,.37,0,1.87,1.87,0,0,1,.34,0,3.67,3.67,0,0,0,.38,0l.36,0,.35,0h.72a.65.65,0,0,0,.3-.17.71.71,0,0,1,.44-.15.72.72,0,0,1,.34.09.77.77,0,0,0,.31.11c.08,0,.16-.05.31-.31a.68.68,0,0,1,.61-.36.67.67,0,0,1,.24,0,.45.45,0,0,0,.18,0,.76.76,0,0,1,.38.16l0,0c.15.13.26.21.37.21a.78.78,0,0,0,.35-.16.8.8,0,0,1,.45-.14.69.69,0,0,1,.24,0,1.16,1.16,0,0,0,.38.09.72.72,0,0,0,.36-.16l.08,0a.72.72,0,0,1,.32-.11,1.18,1.18,0,0,0,.31-.08,1.46,1.46,0,0,1,.27-.08h.11a.7.7,0,0,1,.31.07,1.12,1.12,0,0,0,.39.1H34a.76.76,0,0,1,.23.08,1.65,1.65,0,0,0,.38.1h0A.85.85,0,0,0,35,4a.61.61,0,0,1,.3-.08h0a.72.72,0,0,1,.4.12h0a.76.76,0,0,0,.34.16h0a.87.87,0,0,0,.36-.09l.12,0a.67.67,0,0,1,.24,0h.13l.18,0,.07,0,.28.06a.71.71,0,0,1,.32.14l.06.05a.73.73,0,0,0,.35.21.94.94,0,0,1,.22.07l.08.05a1.17,1.17,0,0,0,.37.17h0a.87.87,0,0,0,.34-.12.88.88,0,0,1,.4-.1h.11l.25.06.32.07h.43a.71.71,0,0,1,.61.35c.11.19.18.29.28.31h.05a.74.74,0,0,0,.35-.15.66.66,0,0,1,.35-.11.72.72,0,0,1,.32.08l.08,0a1.48,1.48,0,0,0,.32.14l.31.08.35.09a.91.91,0,0,1,.22.11l.11.1a.94.94,0,0,0,.33.23h.09l.19,0a.63.63,0,0,1,.19,0,.71.71,0,0,1,.63.38.51.51,0,0,0,.21.24,3,3,0,0,0,.32.09l.36.11a3,3,0,0,1,.31.15l.33.17a.7.7,0,0,0,.2,0h.23a.79.79,0,0,1,.6.27.79.79,0,0,0,.28.27,1,1,0,0,0,.35.08,1.86,1.86,0,0,1,.28,0l.1,0a.9.9,0,0,0,.34,0h.17a1.07,1.07,0,0,1,.27.09,1.88,1.88,0,0,1,.23.16l.31.21a.61.61,0,0,1,.16.12l.09.1a1.49,1.49,0,0,0,.29.28l.3.15.34.17a.5.5,0,0,0,.27,0h.22a.69.69,0,0,1,.39.12l.24.16.09.07a.72.72,0,0,1,.3.53c0,.24,0,.4.13.47l.23.16a2.71,2.71,0,0,1,.35.24.81.81,0,0,0,.35.12l.16,0a.51.51,0,0,1,.21.1,1,1,0,0,0,.34.11l.15,0a.64.64,0,0,1,.25.12,1.56,1.56,0,0,0,.25.17,2.89,2.89,0,0,1,.3.23,1.13,1.13,0,0,1,.24.29,1.6,1.6,0,0,0,.22.28,1.4,1.4,0,0,1,.23.29,2.09,2.09,0,0,0,.22.28.89.89,0,0,0,.36.15h.07a.72.72,0,0,1,.42.28l.09.14a1.46,1.46,0,0,0,.22.3,2.08,2.08,0,0,1,.21.31l.15.25a.58.58,0,0,1,.15.35v.07a.75.75,0,0,0,.11.39.57.57,0,0,0,.32.12.73.73,0,0,1,.58.6.6.6,0,0,0,.1.3.48.48,0,0,0,.26.14.71.71,0,0,1,.5.72.49.49,0,0,0,.05.31,1.27,1.27,0,0,0,.28.23,1.39,1.39,0,0,1,.22.15.72.72,0,0,1,.22.45,1.27,1.27,0,0,0,.13.32.94.94,0,0,0,.32.21.73.73,0,0,1,.44.54,1.21,1.21,0,0,0,.12.38.65.65,0,0,0,.33.21.77.77,0,0,1,.43.44l0,.11a1.6,1.6,0,0,0,.14.35.75.75,0,0,0,.27.26l.06,0a.69.69,0,0,1,.27.52v.06a.87.87,0,0,0,.06.38.61.61,0,0,1,.07.39,1,1,0,0,0,.07.35.52.52,0,0,0,.18.19.7.7,0,0,1,.25.87c-.09.21-.09.28-.06.34s.15.17.3.26a.78.78,0,0,1,.37.45.57.57,0,0,0,0,.14,2.7,2.7,0,0,0,.09.36,1,1,0,0,0,.22.3.73.73,0,0,1,.17.72.6.6,0,0,0,0,.38c0,.11.16.18.34.27a.71.71,0,0,1,.39.57v.07a2,2,0,0,0,0,.35,2,2,0,0,1,.05.37,1.47,1.47,0,0,0,0,.36,1.9,1.9,0,0,1,0,.37,2.07,2.07,0,0,0,0,.35l.09.32a2.93,2.93,0,0,1,.1.37.77.77,0,0,0,.22.32l.07.07a.82.82,0,0,1,.18.36l0,.25c0,.14,0,.25,0,.36a.81.81,0,0,1,0,.38.88.88,0,0,0,0,.35.87.87,0,0,1,0,.23c0,.05,0,.09,0,.14a.83.83,0,0,0-.07.39.42.42,0,0,0,.12.21.7.7,0,0,1,0,1c-.15.18-.15.24-.14.28s.1.2.21.32a.69.69,0,0,1,.17.72,1,1,0,0,0-.07.36.91.91,0,0,0,.12.35,1.86,1.86,0,0,1,.09.24.57.57,0,0,1,0,.18v.33c0,.11,0,.22,0,.33a1.55,1.55,0,0,0,.07.35l0,.07a.68.68,0,0,1-.11.63l0,0a.59.59,0,0,0-.17.33,1.87,1.87,0,0,1,0,.34,2.76,2.76,0,0,0,0,.37,1.82,1.82,0,0,0,0,.33v.39s0,.09.12.23a.66.66,0,0,1,.2.5.68.68,0,0,1-.22.5c-.12.11-.12.17-.12.2a.91.91,0,0,0,.06.36.71.71,0,0,1-.08.62.47.47,0,0,1-.06.09h0a.74.74,0,0,0-.21.33c0,.11,0,.23,0,.34a2.17,2.17,0,0,1,0,.38,1.45,1.45,0,0,0,0,.35.91.91,0,0,1,0,.26.68.68,0,0,1,0,.2,1.89,1.89,0,0,1-.06.21l0,.06a2.56,2.56,0,0,0-.1.34c0,.11,0,.22,0,.33s0,.26-.06.38a1.73,1.73,0,0,1-.14.34,1.17,1.17,0,0,0-.14.33,1.34,1.34,0,0,0,0,.35,2.21,2.21,0,0,1,0,.37.38.38,0,0,0,0,.26.7.7,0,0,1-.32.87c-.18.09-.21.15-.23.21a.85.85,0,0,0,0,.38l0,.08a.75.75,0,0,1,0,.42l-.09.24a2.67,2.67,0,0,0-.12.33l-.15.37c0,.12-.08.2-.11.29s-.07.22-.1.33l-.09.3a.67.67,0,0,1-.16.25l-.09.09a1,1,0,0,0-.26.3,1.32,1.32,0,0,1-.2.31,1.53,1.53,0,0,0-.19.3.67.67,0,0,0,0,.39l0,.07a.72.72,0,0,1,0,.41,1.53,1.53,0,0,0-.08.26,1.53,1.53,0,0,1-.11.36,1.34,1.34,0,0,1-.22.3,2.64,2.64,0,0,0-.21.29,1.05,1.05,0,0,1-.22.3,2.16,2.16,0,0,0-.21.29.65.65,0,0,1-.26.26,1.07,1.07,0,0,0-.26.26.38.38,0,0,0,0,.26.7.7,0,0,1-.07.53.71.71,0,0,1-.43.33c-.16,0-.2.09-.21.12a1.77,1.77,0,0,0-.16.3,1.76,1.76,0,0,1-.17.34.71.71,0,0,0,0,.41.77.77,0,0,1-.13.55l-.21.27a.73.73,0,0,1-.53.29c-.24,0-.4,0-.47.12l-.18.23-.26.33a.85.85,0,0,0-.12.37v.09a.71.71,0,0,1-.14.32c-.07.09-.12.18-.17.25l-.06.12a.73.73,0,0,1-.5.33c-.2,0-.33,0-.4.13a.85.85,0,0,0-.19.32,1.22,1.22,0,0,1-.1.23.86.86,0,0,1-.13.14,1.2,1.2,0,0,0-.12.23.71.71,0,0,1-.65.42h-.21a.36.36,0,0,0-.23.06.67.67,0,0,0-.16.36l0,.07a.75.75,0,0,1-.21.34,1.7,1.7,0,0,0-.19.19,3.08,3.08,0,0,1-.28.26.64.64,0,0,1-.34.14,2,2,0,0,0-.32.12.63.63,0,0,1-.3.1H54.8a.9.9,0,0,0-.39.08s-.09.1-.11.37a.71.71,0,0,1-.62.66.53.53,0,0,0-.25.07l-.12.06-.2,0a1.24,1.24,0,0,0-.37.12s-.09.07-.14.22a.7.7,0,0,1-.66.46.55.55,0,0,1-.18,0,.56.56,0,0,0-.17,0,.16.16,0,0,0-.1,0,.62.62,0,0,0-.23.33.94.94,0,0,1-.32.39l-.21.13-.19.12a.73.73,0,0,1-.35.09H50l-.23,0a.38.38,0,0,0-.16,0l-.3.17-.16.09a.73.73,0,0,1-.35.09.55.55,0,0,1-.18,0,1.33,1.33,0,0,0-.3-.05.22.22,0,0,0-.12,0l-.27.1-.39.16c-.09,0-.15.15-.23.36a.72.72,0,0,1-.64.45,1.37,1.37,0,0,0-.29,0l-.15,0a.67.67,0,0,1-.31-.07,1,1,0,0,0-.29-.07h-.08c-.11,0-.19.15-.28.32a.87.87,0,0,1-.4.34l-.22.09a.87.87,0,0,1-.32.06.77.77,0,0,1-.43-.12.83.83,0,0,0-.39-.22,2.71,2.71,0,0,1-.37,0l-.37,0a.77.77,0,0,0-.32.21l-.05,0A.67.67,0,0,1,42,70h-.31a.93.93,0,0,0-.23,0,.77.77,0,0,0-.32.21l-.06,0a.62.62,0,0,1-.36.18l-.25,0-.25.05h-.11a.72.72,0,0,1-.32-.08l-.06,0a.91.91,0,0,0-.35-.12l-.32,0-.41.05a.65.65,0,0,0-.31.13.78.78,0,0,1-.36.1.66.66,0,0,1-.43-.15.73.73,0,0,0-.32-.16h0a2,2,0,0,1-.34,0,1.55,1.55,0,0,0-.35-.05.65.65,0,0,0-.34.15.72.72,0,0,1-.4.12.69.69,0,0,1-.37-.1.65.65,0,0,0-.33-.13l-.36,0-.34,0c-.05,0-.12,0-.28.19A.71.71,0,0,1,33.55,70.63Z" style="fill:#e9c28c"/><path d="M40.23,64a.7.7,0,0,1-.44-.16c-.15-.11-.25-.19-.36-.19a1.51,1.51,0,0,1-.36-.06,1.43,1.43,0,0,0-.35-.06.58.58,0,0,0-.36.19.78.78,0,0,1-.47.15.47.47,0,0,1-.17,0l-.08,0a1.68,1.68,0,0,0-.36-.08l-.34,0-.37-.06h0a.63.63,0,0,0-.32.09.8.8,0,0,1-.3.06.7.7,0,0,1-.49-.19.54.54,0,0,0-.3-.19l-.14,0-.17-.09a1.32,1.32,0,0,0-.37-.14H34l-.21,0L33.11,63H33a.78.78,0,0,0-.35.14.86.86,0,0,1-.42.12.57.57,0,0,1-.18,0l-.34-.11a.7.7,0,0,1-.42-.33c-.12-.22-.2-.35-.3-.38l-.16,0-.2,0h-.21a.83.83,0,0,1-.22,0L30,62.26a1.61,1.61,0,0,0-.33-.15h-.07a.58.58,0,0,0-.2,0,.7.7,0,0,1-.25,0,.71.71,0,0,1-.61-.36c-.09-.16-.15-.2-.2-.22a1.34,1.34,0,0,0-.35,0,1.87,1.87,0,0,1-.3,0l-.08,0a.56.56,0,0,0-.2,0h-.31a.67.67,0,0,1-.24,0,1.21,1.21,0,0,0-.34-.05.83.83,0,0,1-.63-.37c-.09-.15-.15-.26-.25-.3l-.11,0a1,1,0,0,0-.31.07.8.8,0,0,1-.27,0,.66.66,0,0,1-.28,0l-.14-.06-.31-.14a.64.64,0,0,1-.27-.22.22.22,0,0,1-.05-.08,1.14,1.14,0,0,0-.27-.3,1.79,1.79,0,0,0-.35-.1l-.31-.08-.05,0a1.23,1.23,0,0,0-.29-.08.7.7,0,0,1-.6-.58c0-.23-.08-.33-.15-.37l-.31-.16a1.45,1.45,0,0,1-.33-.16.28.28,0,0,0-.16,0,1.36,1.36,0,0,0-.27,0h-.16a.75.75,0,0,1-.37-.08l-.2-.1-.33-.19-.27-.23-.24-.21a.61.61,0,0,1-.21-.26l0-.08a1,1,0,0,0-.21-.36,2.2,2.2,0,0,1-.27-.26,1.9,1.9,0,0,0-.24-.25,2.83,2.83,0,0,1-.25-.24,2.13,2.13,0,0,0-.27-.26.94.94,0,0,0-.31-.18,1.13,1.13,0,0,1-.27-.15l-.06,0-.25-.25L16.59,55a1.4,1.4,0,0,1-.23-.29,3.06,3.06,0,0,0-.21-.29,1.23,1.23,0,0,1-.22-.3,1.49,1.49,0,0,0-.2-.29.85.85,0,0,0-.32-.19l-.17-.08a.61.61,0,0,1-.16-.12.87.87,0,0,0-.35-.16l-.09,0a.69.69,0,0,1-.33-.22l-.2-.25-.19-.24a1.45,1.45,0,0,1-.2-.32,2.2,2.2,0,0,0-.19-.3c-.07-.09-.13-.19-.2-.29l-.16-.24a.64.64,0,0,1-.12-.38V51a.72.72,0,0,0-.07-.41.81.81,0,0,0-.32-.21l-.11,0a.91.91,0,0,1-.24-.2,1.61,1.61,0,0,0-.23-.22,1.79,1.79,0,0,1-.24-.24l-.09-.15a1.91,1.91,0,0,1-.06-.21,1.67,1.67,0,0,0-.09-.31.65.65,0,0,1-.06-.41V48.5a.61.61,0,0,0,0-.39.67.67,0,0,0-.31-.23l-.09-.05a.68.68,0,0,1-.25-.23,1.58,1.58,0,0,0-.22-.23.75.75,0,0,1-.23-.71.62.62,0,0,0,0-.4s-.08-.11-.3-.17a.7.7,0,0,1-.51-.76.5.5,0,0,0,0-.26,3,3,0,0,0-.16-.31l-.18-.33A.66.66,0,0,0,9,44.15l-.08-.07a.72.72,0,0,1-.23-.36c0-.06,0-.15,0-.23a2.14,2.14,0,0,0-.09-.34l-.12-.3c0-.09-.08-.19-.11-.28a.79.79,0,0,1,0-.4.21.21,0,0,0,0-.06.86.86,0,0,0,0-.41.64.64,0,0,0-.19-.25A.69.69,0,0,1,8,40.62c.07-.16.1-.26.07-.33S8,40.12,7.85,40a.72.72,0,0,1-.21-.78.59.59,0,0,0,.05-.33c0-.11-.13-.2-.29-.3l0,0a.74.74,0,0,1-.28-.41L7,37.82a.71.71,0,0,1,.14-.61c.15-.18.24-.31.22-.42a.83.83,0,0,0-.18-.33.55.55,0,0,1-.09-.14A.73.73,0,0,1,7,36.1a.84.84,0,0,0-.16-.31l-.09-.15a.58.58,0,0,1-.08-.22,1.45,1.45,0,0,0-.11-.31.69.69,0,0,1,.09-.76c.13-.17.2-.27.19-.37a2,2,0,0,0-.08-.35,1.35,1.35,0,0,1-.09-.36c0-.13,0-.25,0-.38v-.07c0-.09,0-.18,0-.27s0-.26,0-.38,0-.25,0-.33-.09-.22-.22-.36a.71.71,0,0,1-.18-.65l0-.08c0-.07,0-.15,0-.25a.7.7,0,0,1,.21-.42l.53.47-.5-.5c.15-.15.26-.25.26-.36a1.34,1.34,0,0,0,0-.35,1.33,1.33,0,0,1,0-.37,1.86,1.86,0,0,1,0-.33,2.9,2.9,0,0,0,.07-.38c0-.11-.08-.23-.21-.37a.91.91,0,0,1-.2-.52v-.44a.77.77,0,0,1,.18-.45l.57.43-.53-.47a.74.74,0,0,0,.21-.34,2,2,0,0,1,.1-.36,1.26,1.26,0,0,0,.1-.33s0-.1-.09-.24a.71.71,0,0,1,.17-1c.15-.1.16-.16.17-.19s0-.21-.16-.39a.7.7,0,0,1,0-.76,1.12,1.12,0,0,0,.16-.33,1.42,1.42,0,0,0,0-.36,1.58,1.58,0,0,1,0-.31.24.24,0,0,1,0-.08c0-.1,0-.22.06-.33a2.73,2.73,0,0,1,.07-.37,1.69,1.69,0,0,1,.13-.31c.07-.15.12-.26.16-.37s0-.22.08-.33l0-.11a.7.7,0,0,1,.44-.52c.2-.08.34-.14.38-.25s0-.09-.06-.26a.71.71,0,0,1,.31-1,.36.36,0,0,0,.18-.16,1.87,1.87,0,0,0,.08-.34,1.87,1.87,0,0,1,.09-.36,1.33,1.33,0,0,0,.1-.34,1.28,1.28,0,0,1,.11-.36,1.37,1.37,0,0,1,.21-.3,1.76,1.76,0,0,0,.21-.29,1.26,1.26,0,0,1,.23-.3,1.93,1.93,0,0,0,.22-.28,1.85,1.85,0,0,1,.22-.29,1.49,1.49,0,0,0,.23-.28,1.73,1.73,0,0,0,.14-.31,2.75,2.75,0,0,1,.16-.34s0-.11,0-.28a.7.7,0,0,1,.49-.81.38.38,0,0,0,.23-.14s.05-.07,0-.24a.7.7,0,0,1,.13-.52.72.72,0,0,1,.47-.28c.18,0,.22-.07.24-.1a.76.76,0,0,0,.11-.35c0-.06,0-.1,0-.14a.71.71,0,0,1,.11-.25,1.64,1.64,0,0,0,.16-.29l0-.08a.7.7,0,0,1,.52-.39A.64.64,0,0,0,14,10a2.69,2.69,0,0,0,.2-.27,2,2,0,0,1,.23-.3.78.78,0,0,0,.14-.32.72.72,0,0,1,.58-.52.57.57,0,0,0,.34-.12s.06-.06.07-.22a.7.7,0,0,1,.24-.5.72.72,0,0,1,.46-.18h.12a.28.28,0,0,0,.18,0l.29-.23.28-.2.24-.22a2.15,2.15,0,0,1,.29-.25c.09-.07.11-.22.13-.42a.81.81,0,0,1,.29-.54l.43-.31a1.8,1.8,0,0,1,.34-.16,3.13,3.13,0,0,0,.32-.15,1.35,1.35,0,0,0,.25-.28l.05-.07a.69.69,0,0,1,.5-.29H20a.9.9,0,0,0,.39-.08.81.81,0,0,0,.22-.23.7.7,0,0,1,.57-.29.76.76,0,0,1,.21,0,.91.91,0,0,0,.27,0,.18.18,0,0,0,.11,0,.75.75,0,0,0,.26-.27.7.7,0,0,1,.59-.31h.24a.37.37,0,0,0,.2,0c.1,0,.17-.15.25-.31l0-.06a.69.69,0,0,1,.28-.28,1.5,1.5,0,0,0,.24-.2L24,2.31a.74.74,0,0,1,.47-.18h.24a.85.85,0,0,0,.25,0l.06,0,.3,0a1.55,1.55,0,0,0,.32,0,.62.62,0,0,1,.19,0H26L26,2a1.25,1.25,0,0,0,.3.05h.11c.06,0,.12-.08.21-.26a.71.71,0,0,1,.64-.4l.19,0a.42.42,0,0,0,.18,0h.08l.35-.07.35-.08c.11,0,.21-.06.32-.09l.37-.11a.92.92,0,0,0,.33-.16,1.1,1.1,0,0,1,.23-.13l.13,0a1.36,1.36,0,0,0,.31-.14A.8.8,0,0,1,30.5.5a.75.75,0,0,1,.36.1.78.78,0,0,0,.35.14.89.89,0,0,0,.37-.16L31.71.5A.76.76,0,0,1,32,.42h.05l.18,0,.3,0h.17a.8.8,0,0,1,.3.06,1.35,1.35,0,0,0,.29,0h.06a.49.49,0,0,0,.25-.15.74.74,0,0,1,.48-.18.66.66,0,0,1,.4.13.5.5,0,0,0,.27.11.93.93,0,0,0,.36-.14l.12-.07A.79.79,0,0,1,35.53.2a.92.92,0,0,0,.32-.1,1.12,1.12,0,0,1,.31,0,.73.73,0,0,1,.39.1.84.84,0,0,0,.38.19,1.17,1.17,0,0,0,.36-.08l.13,0a.55.55,0,0,1,.18,0,.77.77,0,0,1,.34.08l.05,0a1,1,0,0,0,.37.15s.12,0,.23-.13a.7.7,0,0,1,.48-.19.71.71,0,0,1,.51.21c.1.1.16.12.2.12h0c.12,0,.24-.12.37-.25A.7.7,0,0,1,40.66,0a.75.75,0,0,1,.26.05,1.12,1.12,0,0,0,.33.1l.46.06.21,0a.92.92,0,0,1,.25.09l.12.08a1.12,1.12,0,0,0,.35.17A2,2,0,0,0,43,.6l.38,0h0a.64.64,0,0,0,.2-.05.66.66,0,0,1,.27-.06.71.71,0,0,1,.6.34c.12.19.19.23.24.24h.07a1.16,1.16,0,0,0,.31-.07l.1,0a.63.63,0,0,1,.19,0l.16,0,.63.15h.08a1.11,1.11,0,0,0,.3-.05l.1,0,.17,0a.76.76,0,0,1,.21,0l.23.08.36.13c.11,0,.21.08.32.12l.22.09a.71.71,0,0,1,.38.34l-.6.37.62-.32c.09.17.16.3.27.33a2,2,0,0,0,.33.08l.36.09a1.12,1.12,0,0,0,.36.05,1.06,1.06,0,0,1,.29,0l.1,0,.29.1.27.09a.7.7,0,0,1,.32.24s0,0,0,0a.78.78,0,0,0,.28.29h.06a.94.94,0,0,0,.4-.17A.68.68,0,0,1,52.3,3a.76.76,0,0,1,.43.14,1.87,1.87,0,0,0,.29.2l.3.13.36.16a.84.84,0,0,1,.28.25.94.94,0,0,0,.27.26,3,3,0,0,0,.31.15l.29.13a.76.76,0,0,1,.22.18l.08.12a1,1,0,0,0,.26.28,1,1,0,0,0,.35.1.76.76,0,0,1,.51.32h0a.54.54,0,0,1,.07.13.77.77,0,0,0,.2.33,1.26,1.26,0,0,0,.34.13,1.3,1.3,0,0,1,.27.1l.08,0a1.13,1.13,0,0,0,.32.13,2.66,2.66,0,0,1,.28.11l.08,0a.88.88,0,0,0,.33.13l.25.08.15.1.41.33a.64.64,0,0,1,.25.43l-.68.17.69-.12a.71.71,0,0,0,.14.39,1.62,1.62,0,0,0,.32.17l.15.06a.7.7,0,0,1,.33.33l0,.09a1.28,1.28,0,0,0,.19.35.49.49,0,0,0,.26.1.72.72,0,0,1,.57.7c0,.21,0,.28.07.32a1.08,1.08,0,0,0,.31.19l.12,0a.73.73,0,0,1,.32.33l.06.13a.91.91,0,0,0,.17.34,1,1,0,0,0,.3.2l.14.07a.8.8,0,0,1,.27.28s.06.13.08.19a1.54,1.54,0,0,0,.17.31l.22.26a2.83,2.83,0,0,1,.25.28.79.79,0,0,0,.31.22l.13.07a.73.73,0,0,1,.2.19l.34.47a.69.69,0,0,1,.12.39v.07a.78.78,0,0,0,.07.39.8.8,0,0,0,.33.22l.08,0a.67.67,0,0,1,.29.24,2,2,0,0,0,.19.21,1.84,1.84,0,0,1,.24.3c.08.13.15.26.22.4l.13.24a1.39,1.39,0,0,0,.21.27.7.7,0,0,1,.13.78c-.1.22-.15.35-.1.44a.68.68,0,0,0,.27.26L67,18a.79.79,0,0,1,.19.22,1.65,1.65,0,0,0,.19.27,1.68,1.68,0,0,1,.2.28c.06.13.12.23.17.33l.09.16a.7.7,0,0,1,0,.55.69.69,0,0,0-.06.44,1.79,1.79,0,0,0,.15.31,1.89,1.89,0,0,1,.18.34,2.12,2.12,0,0,0,.14.31,3.2,3.2,0,0,1,.16.33c0,.13.08.24.11.36a2.75,2.75,0,0,0,.1.34,1.8,1.8,0,0,1,.06.36,1.35,1.35,0,0,0,.06.35c0,.11.08.21.12.32a2.82,2.82,0,0,1,.14.35c0,.06.06.13.24.24a.69.69,0,0,1,.3.82.52.52,0,0,0,0,.29.59.59,0,0,0,.24.31.87.87,0,0,1,.27.46l0,.21,0,.17a.69.69,0,0,1-.18.58c-.18.2-.29.33-.27.44s0,.12.2.24a.7.7,0,0,1,.22.89.44.44,0,0,0-.07.26.6.6,0,0,0,.14.28.7.7,0,0,1,0,.85.47.47,0,0,0-.13.31c0,.08.06.16.21.29a.71.71,0,0,1,.18.83.63.63,0,0,0-.08.29l0,.72a.59.59,0,0,0,.1.29.73.73,0,0,1-.11.84c-.14.14-.19.22-.19.3s.08.22.2.37a.87.87,0,0,1,.21.48,1.62,1.62,0,0,0,0,.22,2.11,2.11,0,0,1,0,.23.7.7,0,0,1-.15.45l0,0a.77.77,0,0,0-.2.36,1.47,1.47,0,0,0,0,.36,1,1,0,0,1,0,.32v0c0,.13,0,.27,0,.4s0,.21,0,.32a.89.89,0,0,0,.1.37l0,.07a.64.64,0,0,1,0,.47c0,.06,0,.13-.06.2a1.54,1.54,0,0,0-.09.3.81.81,0,0,1-.11.27l-.08.1a.84.84,0,0,0-.19.34c0,.11.06.23.16.39a.8.8,0,0,1,.11.6l-.11.34a.7.7,0,0,1-.34.43c-.22.12-.35.2-.38.31a1.42,1.42,0,0,0,0,.35,1.31,1.31,0,0,1,0,.37,1.36,1.36,0,0,1-.15.33,2.41,2.41,0,0,0-.15.33.83.83,0,0,0,0,.38.73.73,0,0,1-.17.68,1,1,0,0,0-.24.33.42.42,0,0,0,0,.28.7.7,0,0,1-.29.89c-.14.08-.18.14-.19.19a.87.87,0,0,0,0,.36.86.86,0,0,1,0,.17.7.7,0,0,1-.14.37l-.11.12a1.31,1.31,0,0,0-.23.31l-.16.31a3.5,3.5,0,0,0-.17.32,2.19,2.19,0,0,0-.12.33,2,2,0,0,1-.13.35,1.61,1.61,0,0,0-.12.33,3.62,3.62,0,0,1-.13.35l0,.05a1.31,1.31,0,0,1-.2.23,1.49,1.49,0,0,0-.23.28.83.83,0,0,0-.08.36.79.79,0,0,1,0,.17.57.57,0,0,1-.07.22.77.77,0,0,0-.07.26.7.7,0,0,1-.62.61c-.26,0-.34.08-.38.13s0,.15,0,.41a.69.69,0,0,1-.31.83.65.65,0,0,0-.21.18.94.94,0,0,0-.14.34,1.23,1.23,0,0,1-.08.25.75.75,0,0,1-.21.26l-.12.11a.89.89,0,0,0-.2.19.73.73,0,0,1-.35.2h-.06a.78.78,0,0,0-.39.16.68.68,0,0,0-.11.29.71.71,0,0,1-.64.55A.49.49,0,0,0,62,55c-.08.08-.09.21-.1.4a.93.93,0,0,1-.15.45.82.82,0,0,0-.09.19.73.73,0,0,1-.66.45h-.12a.85.85,0,0,0-.23,0,.22.22,0,0,0-.17,0,3.65,3.65,0,0,1-.31.24l-.25.2c-.13.12-.27.22-.41.33l-.15.11a1.9,1.9,0,0,0-.24.25,1.59,1.59,0,0,1-.26.26.73.73,0,0,0-.2.33l0,.08a.67.67,0,0,1-.24.31l-.15.11-.36.25a2.69,2.69,0,0,0-.27.2,2.45,2.45,0,0,1-.31.23l-.27.18a2.7,2.7,0,0,1-.33.22,2.83,2.83,0,0,0-.28.2,3.45,3.45,0,0,1-.32.21,1.43,1.43,0,0,1-.35.12,1,1,0,0,0-.34.11l-.29.17-.24.14a.69.69,0,0,1-.34.09h-.3a.58.58,0,0,0-.21,0l-.07,0-.29.06a1,1,0,0,0-.35.08.94.94,0,0,0-.29.2,1.42,1.42,0,0,1-.22.18l-.1,0c-.08,0-.15.13-.22.22a.7.7,0,0,1-.58.32.58.58,0,0,1-.19,0,1,1,0,0,0-.23,0l-.1,0a.67.67,0,0,0-.29.25l-.06.08a.67.67,0,0,1-.3.19l-.25.11-.36.13a.64.64,0,0,1-.2,0h-.31a.94.94,0,0,0-.22,0,1.33,1.33,0,0,0-.32.15l-.06,0a.68.68,0,0,1-.66,0,1,1,0,0,0-.37-.14h0c-.11,0-.19.12-.31.25a.77.77,0,0,1-.53.28h-.13a2.12,2.12,0,0,0-.37,0,.88.88,0,0,0-.31.15.67.67,0,0,1-.38.11.72.72,0,0,1-.4-.12.42.42,0,0,0-.69.06l-.06.06a.75.75,0,0,1-.33.17,1.66,1.66,0,0,0-.29.1,1.5,1.5,0,0,1-.3.1h-.13a.65.65,0,0,1-.27-.05,1.22,1.22,0,0,0-.34-.06h-.13l-.28-.05a1.92,1.92,0,0,0-.32,0h-.06a.58.58,0,0,1-.19,0l-.12,0a1.12,1.12,0,0,0-.37-.08.94.94,0,0,0-.37.11l-.17.08a.78.78,0,0,1-.21,0,1.94,1.94,0,0,0-.33.07l-.09,0A.57.57,0,0,1,40.23,64Z" style="fill:#da9583"/><path d="M22.22,53.74h-.07a3.93,3.93,0,0,1-.77-.19s-.11,0-.19-.3a.72.72,0,0,0-.68-.49l-.19,0-.2,0a.27.27,0,0,1-.13,0,.72.72,0,0,1-.18-.34.7.7,0,0,0-.67-.49.32.32,0,0,1-.24-.1c-.08-.08-.08-.25-.07-.46a.71.71,0,0,0-.2-.57l-.12-.1a.88.88,0,0,1-.31-.26.56.56,0,0,0-.1-.15L18,50.18a.83.83,0,0,1-.31-.35c0-.11.08-.27.22-.45a.89.89,0,0,0,.19-.61,4,4,0,0,1-.05-.4.74.74,0,0,0-.17-.43l0,0c-.17-.17-.27-.3-.25-.42l0-.27a2,2,0,0,1,.08-.52c0-.12.17-.2.35-.29l.12-.06a.67.67,0,0,0,.25-.25,2.09,2.09,0,0,1,.24-.28.8.8,0,0,0,.24-.63v-.05c0-.22,0-.41,0-.49a.46.46,0,0,1,.38-.15.94.94,0,0,0,.4-.1l.15-.09a.6.6,0,0,0,.19-.23,2.59,2.59,0,0,1,.18-.21l.27-.24a3.71,3.71,0,0,0,.28-.25.47.47,0,0,1,.26-.15.72.72,0,0,0,.52-.7.4.4,0,0,1,.11-.32A.71.71,0,0,1,22,42L22,42l.05,0a.57.57,0,0,0,.18-.12,2.1,2.1,0,0,1,.27-.24l.18-.15a.68.68,0,0,0,.23-.51.48.48,0,0,1,.14-.36.69.69,0,0,1,.31-.17.65.65,0,0,0,.37-.18.8.8,0,0,1,.31-.2h0l.15-.07a.77.77,0,0,0,.36-.5.53.53,0,0,1,.16-.34,3.37,3.37,0,0,1,.27-.24,1.9,1.9,0,0,0,.28-.23.38.38,0,0,1,.28-.12.71.71,0,0,0,.67-.58.5.5,0,0,1,.14-.27.4.4,0,0,1,.28-.12.71.71,0,0,0,.64-.62.37.37,0,0,1,.13-.27,1,1,0,0,1,.29-.22,1.85,1.85,0,0,0,.29-.22,1,1,0,0,0,.13-.16l0-.06.05-.1a.76.76,0,0,1,.2-.32l.05-.06a1,1,0,0,0,.15-.26c.13-.27.23-.36.4-.36s.3.12.43.35a1.27,1.27,0,0,0,.21.29.36.36,0,0,1,.1.31.69.69,0,0,0,.57.72.5.5,0,0,1,.25.13.49.49,0,0,1,.14.33.67.67,0,0,0,.48.6.88.88,0,0,1,.32.19l.25.26c.06.07.13.13.26.26a.72.72,0,0,1,.17.27.71.71,0,0,0,.66.45H33a.34.34,0,0,1,.25.1.42.42,0,0,1,.12.37.72.72,0,0,0,.19.52,1.15,1.15,0,0,1,.16.19,3.37,3.37,0,0,0,.24.27,2.1,2.1,0,0,1,.24.27,2.42,2.42,0,0,0,.25.28l.51.51c.13.13.19.2.25.27l.12.14a.77.77,0,0,0,.5.22.08.08,0,0,1,.06,0,.24.24,0,0,1,0,.16c0,.22,0,.23-.12.26a.78.78,0,0,0-.24.16.69.69,0,0,1-.27.18.71.71,0,0,0-.42.74c0,.2,0,.29-.1.36a.32.32,0,0,1-.24.09h-.05a.75.75,0,0,0-.74.59.37.37,0,0,1-.12.23.73.73,0,0,1-.32.19.51.51,0,0,0-.21.1,1,1,0,0,0-.34.39,1,1,0,0,1-.21.3.5.5,0,0,1-.35.16l-.2.07a.66.66,0,0,0-.17.12,1.16,1.16,0,0,1-.27.21,3.4,3.4,0,0,0-.28.24,1.27,1.27,0,0,0-.23.27,1.34,1.34,0,0,1-.18.24.71.71,0,0,0-.19.46.43.43,0,0,1-.14.35.34.34,0,0,1-.27.11h-.18a.7.7,0,0,0-.49.2l-.28.28a.68.68,0,0,0-.2.6c0,.2,0,.3-.09.39a1.16,1.16,0,0,1-.29.22,1.34,1.34,0,0,0-.3.23.53.53,0,0,1-.33.16.72.72,0,0,0-.38.19.76.76,0,0,1-.29.19,1.15,1.15,0,0,0-.3.22,1.58,1.58,0,0,0-.24.27l-.17.19a.68.68,0,0,0-.19.51.44.44,0,0,1-.12.37.65.65,0,0,1-.43.11.87.87,0,0,0-.55.22l-.05.06a1.24,1.24,0,0,1-.3.27.63.63,0,0,0-.22.21l-.06.1c-.12.19-.2.31-.32.35a.85.85,0,0,1-.25,0h-.49a6.05,6.05,0,0,1-.82,0l-.13,0-.19,0A1.27,1.27,0,0,1,22.22,53.74Z" style="fill:#fff"/><path d="M46.48,32.16c-.1,0-.22,0-.25-.4a.41.41,0,0,0,0-.12.75.75,0,0,0-.19-.4L45.84,31a2.42,2.42,0,0,0-.25-.28l-.27-.24c-.07-.06-.15-.12-.27-.24a.67.67,0,0,0-.14-.11l-.08-.05-.1-.05a.72.72,0,0,1-.31-.2c-.13-.13-.19-.2-.25-.27a2.1,2.1,0,0,0-.24-.27.7.7,0,0,1-.19-.31.71.71,0,0,0-.63-.47.42.42,0,0,1-.33-.13,1,1,0,0,0-.3-.22,1.4,1.4,0,0,1-.29-.23.42.42,0,0,1-.13-.35.73.73,0,0,0-.19-.46,1.21,1.21,0,0,1-.17-.24.68.68,0,0,0-.61-.36h-.26a.32.32,0,0,1-.24-.09.44.44,0,0,1-.13-.36.73.73,0,0,0-.17-.47,1,1,0,0,1-.15-.25A.68.68,0,0,0,39.5,25h-.08c-.44,0-.44-.14-.45-.21s.06-.25.36-.39a1,1,0,0,0,.27-.15l.08-.06A.62.62,0,0,1,40,24a.89.89,0,0,0,.29-.2l.25-.24.27-.25a.45.45,0,0,1,.32-.15.69.69,0,0,0,.43-.22,1.79,1.79,0,0,0,.16-.19,2.61,2.61,0,0,1,.17-.2.77.77,0,0,0,.2-.47.43.43,0,0,1,.12-.35.3.3,0,0,1,.19-.1.72.72,0,0,0,.56-.79.27.27,0,0,1,.07-.28.56.56,0,0,1,.32-.17.8.8,0,0,0,.34-.18A.51.51,0,0,1,44,20a.68.68,0,0,0,.42-.19l.2-.19a2.41,2.41,0,0,0,.26-.24.85.85,0,0,1,.24-.18.71.71,0,0,0,.34-.79c-.07-.27,0-.34.05-.38a.63.63,0,0,1,.31-.19.51.51,0,0,0,.21-.1.86.86,0,0,0,.31-.37.81.81,0,0,1,.2-.3.34.34,0,0,1,.23-.1.71.71,0,0,0,.65-.65.36.36,0,0,1,.11-.24.62.62,0,0,1,.3-.17.69.69,0,0,0,.52-.52.54.54,0,0,1,.17-.31.45.45,0,0,1,.33-.13.63.63,0,0,0,.45-.18c.11-.09.23-.17.35-.25l.19-.13.18-.14a3.23,3.23,0,0,1,.43-.29,5.61,5.61,0,0,1,.68-.27,2.92,2.92,0,0,1,.5-.09l.23,0H52a1.43,1.43,0,0,1,.29,0l.3,0a1.24,1.24,0,0,1,.39.09.78.78,0,0,0,.31,0,.71.71,0,0,0,.36-.08.93.93,0,0,1,.38-.15h.07c.11,0,.19.14.3.29l.08.11a.91.91,0,0,0,.24.2l.08,0a3.36,3.36,0,0,1,.49.27.62.62,0,0,0,.34.13,1.09,1.09,0,0,1,.35.15.67.67,0,0,0,.39.15.4.4,0,0,1,.29.12,2.5,2.5,0,0,1,.29.41,1.74,1.74,0,0,0,.16.26l.12.16a3.35,3.35,0,0,1,.34.49.67.67,0,0,1,0,.45l0,.13a.58.58,0,0,0,0,.32,1.45,1.45,0,0,1,0,.36.68.68,0,0,0,.28.66c.21.15.36.26.36.38s-.14.24-.31.37a.79.79,0,0,0-.31.68h0v0a1.07,1.07,0,0,1,0,.4,1.39,1.39,0,0,1-.22.37l-.17.26a.56.56,0,0,0,0,.12A.9.9,0,0,0,57,21a1,1,0,0,1-.13.43.86.86,0,0,1-.35.21l-.07,0a.73.73,0,0,0-.43.52.89.89,0,0,1-.12.33.45.45,0,0,1-.26.2.68.68,0,0,0-.49.63.41.41,0,0,1-.13.29.44.44,0,0,1-.33.14.63.63,0,0,0-.51.25.88.88,0,0,0-.12.15,1.29,1.29,0,0,1-.22.27l-.23.26L53.4,25a.9.9,0,0,1-.27.19.73.73,0,0,0-.4.7.35.35,0,0,1-.09.33l-.25.24-.26.25a.32.32,0,0,1-.24.09h-.17a.71.71,0,0,0-.64.43,1,1,0,0,1-.16.24.68.68,0,0,0-.18.32.65.65,0,0,1-.17.34,1.34,1.34,0,0,1-.28.21,1.21,1.21,0,0,0-.28.22.5.5,0,0,1-.33.14.7.7,0,0,0-.43.19,1.66,1.66,0,0,1-.22.17,3.08,3.08,0,0,0-.27.23,1,1,0,0,1-.27.22,1.28,1.28,0,0,0-.25.2A.66.66,0,0,0,48,30a.56.56,0,0,1-.15.31.72.72,0,0,0-.18.36.49.49,0,0,1-.16.34,1.27,1.27,0,0,1-.28.22,1.1,1.1,0,0,0-.27.21.79.79,0,0,0-.18.29l0,.06C46.69,32.13,46.6,32.16,46.48,32.16Z" style="fill:#fff"/><path d="M51.87,53.58H51.8a1.4,1.4,0,0,1-.43-.16,1.12,1.12,0,0,0-.29-.12l-.28-.07a1.54,1.54,0,0,1-.47-.12L50.08,53a1.58,1.58,0,0,1-.47-.21,3.59,3.59,0,0,1-.4-.38L49,52.23a1.17,1.17,0,0,1-.21-.29.94.94,0,0,0-.22-.28.53.53,0,0,1-.14-.25.71.71,0,0,0-.68-.53.36.36,0,0,1-.29-.11.66.66,0,0,1-.18-.32.75.75,0,0,0-.17-.3A.44.44,0,0,1,47,49.8a.69.69,0,0,0-.24-.55l-.14-.11a1.83,1.83,0,0,1-.27-.23,2.11,2.11,0,0,0-.25-.23L46,48.52a.7.7,0,0,0-.49-.2h-.09a.36.36,0,0,1-.29-.11.68.68,0,0,0-.28-.17.8.8,0,0,1-.35-.19,2.81,2.81,0,0,1-.23-.27,2,2,0,0,0-.23-.27.52.52,0,0,1-.15-.33.7.7,0,0,0-.2-.4l-.45-.45a.41.41,0,0,1-.11-.19.71.71,0,0,0-.68-.53H42.2a.23.23,0,0,1-.2-.08.23.23,0,0,1-.08-.21.72.72,0,0,0-.69-.71.28.28,0,0,1-.21-.09.4.4,0,0,1-.11-.32.68.68,0,0,0-.4-.67.81.81,0,0,1-.28-.19.87.87,0,0,1-.21-.3.89.89,0,0,0-.21-.28.94.94,0,0,0-.28-.22,1,1,0,0,1-.28-.21.47.47,0,0,1-.13-.24.7.7,0,0,0-.67-.57.39.39,0,0,1-.26-.11l-.08-.09c-.17-.16-.18-.17-.17-.47a1.72,1.72,0,0,0,0-.26.48.48,0,0,1,.15-.48.44.44,0,0,1,.33-.12h.06a.71.71,0,0,0,.46-.17.69.69,0,0,1,.25-.15.7.7,0,0,0,.46-.64.42.42,0,0,1,.13-.33.83.83,0,0,0,.11-.15l0-.06A.54.54,0,0,0,40,38.2a.74.74,0,0,1,.2-.31.44.44,0,0,1,.36-.13.7.7,0,0,0,.47-.19,1.5,1.5,0,0,1,.23-.17l.07,0a.69.69,0,0,0,.31-.65.4.4,0,0,1,.11-.37.69.69,0,0,1,.23-.16l.11,0a.71.71,0,0,0,.46-.53.6.6,0,0,1,.17-.36l.24-.25.27-.27a.35.35,0,0,1,.27-.11h.18a.68.68,0,0,0,.57-.29l.06-.07A1.4,1.4,0,0,1,44.5,34a.71.71,0,0,0,.19-.35.27.27,0,0,1,.29-.21.36.36,0,0,1,.38.27,1.41,1.41,0,0,0,.13.24,2,2,0,0,1,.13.22,1.29,1.29,0,0,0,.28.37,1.73,1.73,0,0,1,.22.27l0,.05a.72.72,0,0,0,.57.28H47a.33.33,0,0,1,.24.09,2,2,0,0,1,.22.28,1.34,1.34,0,0,0,.21.28c.08.07.12.15.09.35a.69.69,0,0,0,.36.72,1.21,1.21,0,0,1,.26.2,1.14,1.14,0,0,1,.22.28.94.94,0,0,0,.22.28,1.08,1.08,0,0,0,.28.22,1,1,0,0,1,.28.21.64.64,0,0,1,.15.21.69.69,0,0,0,.65.43l.16,0,.16,0a.26.26,0,0,1,.2.08.36.36,0,0,1,.11.24.71.71,0,0,0,.64.65.35.35,0,0,1,.24.1.47.47,0,0,1,.14.31.73.73,0,0,0,.31.52l.14.07a.78.78,0,0,1,.3.2.72.72,0,0,1,.19.3h0l.06.14a1.09,1.09,0,0,0,.13.17.43.43,0,0,1,.13.3.71.71,0,0,0,.5.61.61.61,0,0,1,.27.17.66.66,0,0,0,.17.12l.05,0,.09,0a.7.7,0,0,1,.31.19.55.55,0,0,1,.15.26.71.71,0,0,0,.62.53.39.39,0,0,1,.29.13.82.82,0,0,0,.25.16.8.8,0,0,1,.37.21.4.4,0,0,1,.08.38.69.69,0,0,0,.18.57q.21.24.36.45c.14.2.25.38.36.57a.58.58,0,0,0,.17.21l.11.09c.16.12.27.2.31.32a.87.87,0,0,1,0,.42.75.75,0,0,0,.19.7c.17.17.28.28.28.4s-.06.19-.24.35a.68.68,0,0,0-.15.84c.09.19.12.29.09.38s-.07.13-.33.23a.71.71,0,0,0-.45.77.49.49,0,0,1,0,.36l-.13.19a2.65,2.65,0,0,1-.33.44.53.53,0,0,1-.28.14.69.69,0,0,0-.37.16.82.82,0,0,1-.35.17l-.15.06a.63.63,0,0,0-.31.27l-.06.1a.87.87,0,0,1-.27.34l-.22.11a2.12,2.12,0,0,1-.48.23.78.78,0,0,1-.24,0h-.48l-.37,0h-.53l-.22.05A1.22,1.22,0,0,1,51.87,53.58Z" style="fill:#fff"/><path d="M30.53,33.16a.33.33,0,0,1-.15,0,.73.73,0,0,0-.64-.52.41.41,0,0,1-.26-.11,1,1,0,0,0-.28-.21,1.37,1.37,0,0,1-.28-.22,1.83,1.83,0,0,0-.27-.23,3.31,3.31,0,0,1-.26-.23.32.32,0,0,1-.1-.2.71.71,0,0,0-.7-.65h0a.32.32,0,0,1-.23-.08,1.46,1.46,0,0,1-.22-.28,1.21,1.21,0,0,0-.22-.28.35.35,0,0,1-.1-.24.7.7,0,0,0-.66-.64.36.36,0,0,1-.24-.11.8.8,0,0,1-.2-.29,1.06,1.06,0,0,0-.21-.29l-.26-.24L25,28.07a.37.37,0,0,1-.1-.22.71.71,0,0,0-.7-.64.31.31,0,0,1-.23-.09.59.59,0,0,1-.16-.33.75.75,0,0,0-.2-.37,1.42,1.42,0,0,0-.22-.19,2.33,2.33,0,0,1-.27-.24,3.37,3.37,0,0,1-.24-.27,1.45,1.45,0,0,0-.23-.26,1.26,1.26,0,0,1-.2-.29,1,1,0,0,0-.2-.28l.15-.16a.71.71,0,0,0-.06-1,.68.68,0,0,0-.48-.19.7.7,0,0,0-.5.21l-.07.07a.8.8,0,0,1-.17-.21.69.69,0,0,0-.82-.35l-.19,0a.27.27,0,0,1-.2-.07.8.8,0,0,1-.18-.31.61.61,0,0,0-.16-.28h0l.15-.19a.7.7,0,0,0-.09-1,.69.69,0,0,0-.47-.18.7.7,0,0,0-.5.21h0l-.06-.09a.77.77,0,0,0-.21-.18,1.49,1.49,0,0,1-.33-.34,1.64,1.64,0,0,0-.12-.22,3.15,3.15,0,0,1-.24-.49.66.66,0,0,1,.14-.44l0-.05a.68.68,0,0,0,.06-.59l0-.09a1.37,1.37,0,0,1-.1-.41,3.81,3.81,0,0,1,.07-.59l0-.14a.7.7,0,0,0,0-.38.8.8,0,0,1,0-.43,1.17,1.17,0,0,1,.24-.37,1.26,1.26,0,0,0,.19-.28.76.76,0,0,1,.33-.26l.13-.06a.7.7,0,0,0,.2-.18,2.06,2.06,0,0,1,.3-.29l.05-.05a.73.73,0,0,0,.24-.53.37.37,0,0,1,.1-.29l.18-.19a3,3,0,0,1,.36-.35,1.81,1.81,0,0,1,.44-.22l.25-.11a1.45,1.45,0,0,0,.28-.21,1.47,1.47,0,0,1,.37-.24l.21,0h.23l.22,0h.18a.88.88,0,0,1,.34.1,1,1,0,0,0,.22.08l.18,0a.85.85,0,0,0,.22,0h0a1.76,1.76,0,0,1,.31,0h.11a2.35,2.35,0,0,1,.45.14l.25.09.14,0h.2a.81.81,0,0,1,.41.07c.08,0,.14.11.21.26a.7.7,0,0,0,.64.42h.1l.23,0a.29.29,0,0,1,.21.07.26.26,0,0,1,.08.26.72.72,0,0,0,.53.79.39.39,0,0,1,.19.1.81.81,0,0,0,.39.17.49.49,0,0,1,.34.15.48.48,0,0,1,.14.33.69.69,0,0,0,.2.44l.18.2.24.25a.69.69,0,0,1,.17.28.72.72,0,0,0,.61.5.42.42,0,0,1,.3.12.67.67,0,0,0,.33.18.56.56,0,0,1,.33.17,1.43,1.43,0,0,1,.23.27,1.73,1.73,0,0,0,.22.27l.27.23a1.83,1.83,0,0,1,.27.23.8.8,0,0,1,.2.29.82.82,0,0,0,.19.28l-.14.17a.7.7,0,0,0,1,1,.73.73,0,0,0,.4.13h.13a.34.34,0,0,1,.25.1.4.4,0,0,1,.11.34.73.73,0,0,0,.22.52l.15.14a1.25,1.25,0,0,1,.17.16.72.72,0,0,0,.5.2h0A.42.42,0,0,1,35,23a.38.38,0,0,1,.08.33.72.72,0,0,0,.42.76.8.8,0,0,1,.19.11.64.64,0,0,0,.44.17.45.45,0,0,1,.34.13c.08.08.11.17.06.4a.73.73,0,0,0,.18.63l.26.27a.68.68,0,0,0,.42.21l.06,0a.34.34,0,0,1,0,.17c0,.21,0,.23-.12.25a.66.66,0,0,0-.29.17c-.11.12-.16.19-.22.26a2.1,2.1,0,0,1-.24.27,1,1,0,0,0-.21.31.89.89,0,0,1-.21.31l-.52.52-.26.24a1.56,1.56,0,0,0-.28.24.72.72,0,0,0-.19.34.58.58,0,0,1-.17.33.91.91,0,0,0-.21.3.89.89,0,0,1-.21.31.3.3,0,0,1-.23.09h-.25a.69.69,0,0,0-.65.45.65.65,0,0,1-.17.25.83.83,0,0,0-.2.3.87.87,0,0,1-.2.3.72.72,0,0,0-.18.33.68.68,0,0,1-.19.35,1.16,1.16,0,0,1-.29.22,1,1,0,0,0-.3.22.48.48,0,0,1-.33.14.71.71,0,0,0-.54.34c-.07.1-.1.12-.3.12Z" style="fill:#fff"/><path d="M37.76,40.52c-.26,0-.29,0-.38-.16a1.37,1.37,0,0,0-.17-.19.91.91,0,0,1-.2-.32.34.34,0,0,0-.06-.12.58.58,0,0,0-.11-.15,1.29,1.29,0,0,1-.25-.34l-.06-.11A.71.71,0,0,0,36,38.8a.46.46,0,0,1-.34-.14.66.66,0,0,0-.17-.12l-.06,0-.09,0a.76.76,0,0,1-.32-.2.56.56,0,0,1-.17-.32.78.78,0,0,0-.21-.4.9.9,0,0,0-.28-.17.88.88,0,0,1-.31-.21,1.14,1.14,0,0,1-.22-.28,1.31,1.31,0,0,0-.23-.29.49.49,0,0,1-.14-.32.7.7,0,0,0-.53-.62.6.6,0,0,1-.29-.17l-.24-.25L32.1,35a.46.46,0,0,1-.14-.25.71.71,0,0,0-.69-.56.39.39,0,0,1-.31-.11,1.08,1.08,0,0,0-.29-.2c-.23-.13-.32-.21-.32-.41s.12-.37.32-.54l.2-.17a.61.61,0,0,1,.32-.19l.2-.1a.84.84,0,0,0,.34-.4.89.89,0,0,1,.21-.31.31.31,0,0,1,.22-.1.7.7,0,0,0,.65-.75.31.31,0,0,1,.08-.26,1.4,1.4,0,0,1,.29-.23,1.29,1.29,0,0,0,.28-.23.36.36,0,0,1,.28-.11h.16a.71.71,0,0,0,.5-.21l.41-.41a3.37,3.37,0,0,0,.24-.27,1.41,1.41,0,0,1,.23-.28.63.63,0,0,1,.25-.16A.71.71,0,0,0,36,28a.35.35,0,0,1,.32-.46.7.7,0,0,0,.64-.69.3.3,0,0,1,.11-.26l.16-.19c.17-.21.28-.32.53-.32s.22,0,.27.32v.06a.72.72,0,0,0,.57.6.55.55,0,0,1,.28.15.36.36,0,0,1,.11.25.71.71,0,0,0,.68.64.44.44,0,0,1,.27.11,3.37,3.37,0,0,1,.24.27,3.11,3.11,0,0,0,.24.28.48.48,0,0,1,.15.29.69.69,0,0,0,.56.61.48.48,0,0,1,.3.15l.27.25a3.37,3.37,0,0,1,.27.24.4.4,0,0,1,.12.22.7.7,0,0,0,.69.58h.14a.34.34,0,0,1,.23.08.49.49,0,0,1,.14.36.75.75,0,0,0,.18.43.72.72,0,0,1,.17.26,1,1,0,0,0,.21.31l.25.25.26.27a.82.82,0,0,0,.25.16c.07,0,.1,0,.1.25a1,1,0,0,0,.06.33.34.34,0,0,1-.08.43h0l-.18-.15a.69.69,0,0,0-.45-.16.68.68,0,0,0-.52.23.7.7,0,0,0,0,.95l0,0a.33.33,0,0,1-.27.11H43.1a.72.72,0,0,0-.64.41,1,1,0,0,1-.14.23.66.66,0,0,0-.18.48.49.49,0,0,1-.12.37.68.68,0,0,1-.33.18.9.9,0,0,0-.24.12,1,1,0,0,0-.31.36,1.11,1.11,0,0,1-.22.3.57.57,0,0,1-.35.17.72.72,0,0,0-.36.18.72.72,0,0,1-.28.17.7.7,0,0,0-.46.67.45.45,0,0,1-.12.33.42.42,0,0,1-.3.12.71.71,0,0,0-.67.54.57.57,0,0,1-.15.27.51.51,0,0,0-.15.21c-.07.15-.1.21-.31.21Z" style="fill:#fff"/></g></g></g></svg>