<svg xmlns="http://www.w3.org/2000/svg" width="11mm" height="16.16mm" viewBox="0 0 31.19 45.82"><title>childhood</title><g id="圖層_2" data-name="圖層 2"><g id="圖層_1-2" data-name="圖層 1"><path d="M7.24,39.3a8.26,8.26,0,0,1,.53-.82c.18-.26.31-.38.38-.38a.29.29,0,0,1,.19.06.18.18,0,0,1,.08.16,2.94,2.94,0,0,1-.23.51,3.83,3.83,0,0,0-.3.65h0a.33.33,0,0,0,.17,0l.18-.13a.57.57,0,0,1,.34-.17.13.13,0,0,1,.12.07.27.27,0,0,1,0,.14,2.1,2.1,0,0,1-.3.61,1.61,1.61,0,0,0-.31.6s0,.06.05.06a1.07,1.07,0,0,0,.21-.17.51.51,0,0,1,.31-.16c.07,0,.19.13.34.41a8.19,8.19,0,0,1,.42.89,2.39,2.39,0,0,1,.19.63c0,.09,0,.16-.09.18a.58.58,0,0,1-.25.05c-.14,0-.26-.16-.37-.46a7.53,7.53,0,0,1-.26-.87.43.43,0,0,0,0-.12c0-.07,0-.1-.06-.1s-.07,0-.12.09a1.83,1.83,0,0,0-.13.16.8.8,0,0,0-.08.12,5.79,5.79,0,0,1-.49.58.62.62,0,0,1-.43.2A.27.27,0,0,1,7.16,42a.43.43,0,0,1-.06-.26,1.11,1.11,0,0,1,.08-.41,4.9,4.9,0,0,1,.23-.46l.13-.25a1.56,1.56,0,0,0,.15-.39,1,1,0,0,0-.23-.05,1.17,1.17,0,0,1-.35-.09A.19.19,0,0,1,7,39.87,1.79,1.79,0,0,1,7.24,39.3Zm3.36-.38a2.58,2.58,0,0,1,.25-.19.89.89,0,0,0,.28-.24,1.06,1.06,0,0,0,.09-.32,1.23,1.23,0,0,1,.1-.39.26.26,0,0,1,.45,0,.92.92,0,0,1,.08.3.49.49,0,0,1,0,.13.33.33,0,0,0,0,.13l.19,0a5,5,0,0,1,.68,0,.45.45,0,0,1,.3.22,1.36,1.36,0,0,1,.1.63,6.19,6.19,0,0,1-.13,1.16,3.86,3.86,0,0,1-.42,1.24.83.83,0,0,1-.73.54.37.37,0,0,1-.37-.28,3.37,3.37,0,0,1-.12-.78,1.23,1.23,0,0,0-.06-.41h0c-.11.28-.25.63-.4,1.08s-.32.84-.44,1.14a7.58,7.58,0,0,1-.42.86L10,44c-.27.48-.51.89-.73,1.23s-.4.5-.54.5a.26.26,0,0,1-.2-.11.43.43,0,0,1-.08-.23,2.82,2.82,0,0,1,.36-.88l.38-.76a33.49,33.49,0,0,0,1.56-3.53,3.49,3.49,0,0,0,.12-.38,1.31,1.31,0,0,0,.07-.32s0-.06-.11-.11a.79.79,0,0,1-.19-.15.22.22,0,0,1-.07-.17A.18.18,0,0,1,10.6,38.92Zm1.83.23s-.06,0-.13,0c-.4,0-.6.14-.6.44v.24a5.8,5.8,0,0,0,.09.79c.05.37.11.57.17.6a3.22,3.22,0,0,0,.29-.87,6,6,0,0,0,.21-1A.28.28,0,0,0,12.43,39.15Z" style="fill:#fff"/><path d="M20.86,45.71a5.06,5.06,0,0,1-.08-1.4v-1a4.3,4.3,0,0,0-.06-1.09.59.59,0,0,0-.17,0,7.7,7.7,0,0,0-1.12.13,7.38,7.38,0,0,0-1.07.22l0,0h-.07c-.18-.1-.28-.22-.28-.35a.42.42,0,0,1,.29-.38,5.7,5.7,0,0,1,.8-.24l.2,0,.22-.07c.06,0,.09,0,.1-.07a1,1,0,0,0,.13-.26,1.18,1.18,0,0,0,.07-.27.13.13,0,0,0-.05-.11.35.35,0,0,0-.12,0l-.1,0a.4.4,0,0,1-.2-.11.59.59,0,0,1-.07-.16c0-.06,0-.1-.05-.11a.71.71,0,0,0-.2,0l-.26-.06c-.07,0-.1-.07-.1-.12s.1-.31.3-.88l.53-1.5.08-.25a.2.2,0,0,1,.14,0c.12,0,.22.08.31.23a1,1,0,0,1,.17.43.68.68,0,0,0,.06.16.28.28,0,0,0,.16,0,.94.94,0,0,0,.31-.08,3.45,3.45,0,0,1,.4-.07l.47,0c.58,0,.87.1.87.32a.49.49,0,0,1-.07.32.58.58,0,0,1-.26.1,1.28,1.28,0,0,0-.28.07c0,.06,0,.14-.08.25a1,1,0,0,0-.05.21.29.29,0,0,0,.05.17h.12a1.22,1.22,0,0,1,.32,0c.08,0,.11.1.11.21s0,.14-.05.17a.76.76,0,0,1-.16.08.7.7,0,0,0-.24.15.48.48,0,0,0-.09.34,2.25,2.25,0,0,0,0,.62l.06,0h.52l.37,0c.41,0,.71,0,.91,0a1.32,1.32,0,0,1,.47.08.29.29,0,0,1,.19.31.37.37,0,0,1-.17.33.68.68,0,0,1-.41.11h-.84q-1,0-1.08.12a.66.66,0,0,0-.08.39q0,.47-.09,1.47a6.29,6.29,0,0,1-.2,1.32.5.5,0,0,0,0,.16.85.85,0,0,1,0,.33c0,.07-.1.1-.24.1A.38.38,0,0,1,20.86,45.71Zm-.76-5.79.36-.09a.71.71,0,0,0,.38-.2.66.66,0,0,0,.09-.3c0-.12,0-.21,0-.28a.31.31,0,0,1,0-.11h-.71l-.13,0a3.28,3.28,0,0,0-.32.48,3.05,3.05,0,0,0-.26.46s0,0,.07.05l.13,0A1.47,1.47,0,0,0,20.1,39.92Zm.57,1.36a.16.16,0,0,0,.16-.11.61.61,0,0,0,0-.24,1.5,1.5,0,0,0,0-.2c0-.06-.05-.1-.1-.1s-.1.07-.14.19a1.16,1.16,0,0,0-.06.32C20.55,41.23,20.59,41.28,20.67,41.28Z" style="fill:#fff"/><path d="M22.86,2.46c-.05,0-.15-.08-.08-.1s.42-.14.64-.19.44,0,.66-.06.43-.07.65-.08.44,0,.67,0a4.64,4.64,0,0,1,.65,0,5,5,0,0,1,.66.1c.06,0,.12.15,0,.13-.26,0-.52-.08-.78-.1s-.52-.08-.77-.08-.53,0-.79,0-.51.07-.77.11S23.11,2.39,22.86,2.46Z" style="fill:#fff"/><path d="M30.22,3.94c-.14-.17-.52-.16-.71-.35A4,4,0,0,0,29,3.07a1.53,1.53,0,0,0-.59-.33c-.16,0,0-.31.08-.33.32-.07.15-.12.09-.32s0-.37-.14-.55S28.32,1,28.17.9s-.63-.05-.7-.09c-.23-.12-.38-.38-.61-.47S26.37.1,26.14,0c-.22.08-.52.05-.74.13l-.66.22c-.22.07-.31.57-.54.64S23.65.74,23.42.8s-.36.49-.59.54-.54-.3-.77-.25-.42.26-.65.31-.42.37-.65.41-.47,0-.7.07l-.7.08c-.24,0-.49-.14-.73-.12s-.47-.11-.71-.09-.44.39-.67.41S16.77,2,16.54,2c0,0,.15.18.12.19-.21.15-.46.18-.63.34a4.74,4.74,0,0,0-.49.52c-.16.18-.42.28-.55.49a5,5,0,0,0-.44.59c-.11.22,0,.55,0,.78s-.37.38-.43.61-.38.42-.42.66.07.52,0,.76.32.52.3.76-.47.46-.48.7.2.49.2.74.18.48.18.72-.52.47-.51.7.26.46.26.7-.18.46-.17.7.39.45.39.68-.24.47-.23.71.06.46.07.69,0,.47,0,.7.15.46.16.69,0,.46.05.69.17.45.19.68-.4.51-.38.74.08.46.1.69.13.45.16.68-.07.51,0,.75.47.44.5.68.13.48.17.72-.42.56-.39.8.51.42.55.67.05.48.09.73,0,.49,0,.74,0,.49.09.73.35.43.4.67S15,26,15,26.23s.14.47.19.71.3.44.35.68.23.45.29.69-.19.45-.14.64.28.3.39.47a1,1,0,0,0,.51.45c.22.08.42.37.7.39s.46-.08.69-.08.46.14.69.14.43-.49.66-.5.51.38.75.36.51,0,.75,0,.5,0,.74-.07.43-.4.68-.44.52.12.76.06.28-.46.51-.52c.05-.19.35-.16.4-.34s0-.41.07-.58.07-.5.18-.71.55-.22.68-.42a5.73,5.73,0,0,1,.35-.59c.15-.19.4-.25.57-.41a1,1,0,0,0,.33-1.13c-.06-.31-.26-.61-.34-.91s-.29-.38-.34-.58,0-.44-.07-.65.22-.5.17-.7-.24-.44-.29-.68-.16-.45-.22-.69-.34-.42-.39-.65.22-.54.17-.78-.31-.43-.35-.66-.3-.44-.35-.67.44-.58.4-.82-.15-.46-.2-.7-.56-.39-.61-.62.13-.52.09-.75-.27-.45-.31-.69.06-.5,0-.73.21-.52.17-.76-.46-.43-.5-.66.07-.5,0-.74.22-.51.2-.75,0-.49,0-.73-.18-.47-.2-.71-.3-.46-.32-.7.12-.49.1-.73-.28-.47-.29-.71.3-.5.29-.74.07-.66.06-.9c-.26-.06-.74.15-1,.1s-.49-.24-.75-.27-.54.25-.81.24a6.48,6.48,0,0,0-.76.06,5.18,5.18,0,0,1-.88-.39.59.59,0,0,1,.15-1c.18-.11.56.31.82.31a3.2,3.2,0,0,1,.67,0c.21,0,.5-.17.74-.11s.43.18.66.26.34.43.56.51.42.2.64.29.6-.23.81-.14l.65.29c.22.09.33.44.55.52s.58-.19.8-.1.38.32.59.4.48,0,.7.11.37.55.64.61.57-.23.82-.2a3.45,3.45,0,0,0,.76.08,1.83,1.83,0,0,0,.73-.18,1.21,1.21,0,0,0,.58-.49c.1-.2.4-.44.42-.75A2.66,2.66,0,0,0,31,5.14c-.07-.22-.55-.25-.66-.45S30.37,4.11,30.22,3.94ZM16.32,9.2c-.2.18-.61.43-.83.37a.87.87,0,0,1-.69-.86c0-.22,0-.44,0-.66s.07-.43.08-.65-.21-.47-.2-.7.22-.46.23-.69.31-.43.34-.66-.27-.51-.22-.73.23-.3.61-.34a1.18,1.18,0,0,1,.45.1c.26.11.15.26.17.52s0,.51,0,.73.46.46.47.7-.37.49-.36.73.39.48.38.72-.43.45-.46.68.11.5,0,.72C16.33,9.21,16.31,9.19,16.32,9.2Z" style="fill:#fff"/><path d="M13.35,8h.05c0-.07-.08-.14-.08-.2,0-.34.06-.67.08-1s.06-.68.08-1a2.16,2.16,0,0,0,0-.37c-.23.06-.5.09-.74.13s-.47.13-.71.15-.49,0-.73,0-.49-.08-.73-.1-.5.06-.74,0-.47-.13-.71-.18-.49-.07-.72-.14S8,5.13,7.73,5l0,0c0,.3-.09.6-.14.91s0,.54,0,.81a5.41,5.41,0,0,1-.21.79c.24.08.51.11.75.17a6.64,6.64,0,0,0,.74.18c.24,0,.49.09.74.12l.76.06c.25,0,.5,0,.76,0s.5,0,.76,0,.51,0,.76,0Z" style="fill:#fff"/><path d="M5.9,1.29c-.31,0-.66.13-1,.08l.19-.13a2.43,2.43,0,0,1-.33.55.65.65,0,0,0-.08.56c0,.28,0,.49.16.67s.44.3.58.52c0,.07-.09.39-.15.39s-.09-.2-.1-.18c-.06.23-.09.47-.15.69s-.12.46-.19.69-.14.45-.2.68-.36.39-.42.62.24.56.18.79-.09.46-.15.69-.47.37-.53.6S3.65,9,3.6,9.2s0,.5,0,.73,0,.49,0,.72-.38.4-.43.63S3,11.75,3,12s.28.55.23.78-.14.45-.19.68-.41.4-.46.63-.16.45-.21.68.17.52.13.75.07.5,0,.73-.54.38-.58.61.36.55.32.78-.56.38-.6.62.13.53.08.77.07.53,0,.77-.3.45-.35.7.08.52,0,.77-.47.42-.52.66-.09.5-.13.74.16.54.11.79-.29.35-.35.56-.19.37-.26.58,0,.44-.1.63.18.55.1.74a2.74,2.74,0,0,0-.29,1,1.73,1.73,0,0,0,.13.81c.09.14.33.2.7.26a7.76,7.76,0,0,1,.88.21c.25.06.46.29.72.34s.53-.05.79,0a3.73,3.73,0,0,0,.67,0c.08,0,.2-.15.22-.15S4,28.6,4,28.55c0-.21-.11-.46-.08-.68s.43-.4.45-.62,0-.45,0-.67.07-.44.08-.66-.13-.45-.1-.67.15-.47.18-.71-.31-.52-.28-.76.28-.45.31-.69.05-.48.08-.72.32-.45.35-.69.09-.47.12-.71-.25-.52-.22-.76,0-.49,0-.73.41-.43.45-.67S5,18.27,5,18s.29-.45.33-.68-.09-.51-.06-.75.24-.45.27-.69.23-.45.27-.69.09-.48.13-.71-.34-.54-.31-.78.35-.44.39-.68-.19-.51-.16-.75.14-.47.17-.71.12-.47.15-.71.13-.47.16-.71-.14-.5-.11-.74.24-.46.27-.7.31-.44.34-.68-.25-.52-.22-.76.24-.46.27-.7S7,6.12,7,5.88s.17-.47.2-.71,0-.48.08-.72S6.92,3.93,7,3.69s.4-.45.42-.69-.31-.51-.29-.75.42-.45.44-.7l-.17,0c-.25,0-.53.21-.77.18S6.14,1.33,5.9,1.29Zm.6,3.3c0,.19.16.43.14.63s-.07.4-.1.6,0,.43,0,.65-.07.44-.1.65-.25.41-.3.62A4.78,4.78,0,0,1,6,8.4a1,1,0,0,0,0,.18c-.18.14-.63-.09-.8-.21a.76.76,0,0,1-.3-.68,3.64,3.64,0,0,1,0-.56c0-.19.09-.38.13-.56s.31-.39.36-.61-.28-.53-.23-.75.09-.44.15-.66.39-.4.47-.5.33-.38.54-.21S6.54,4.34,6.5,4.59Z" style="fill:#fff"/></g></g></svg>