<svg xmlns="http://www.w3.org/2000/svg" width="10.71mm" height="12.81mm" viewBox="0 0 30.37 36.3"><title>company</title><g id="圖層_2" data-name="圖層 2"><g id="圖層_1-2" data-name="圖層 1"><path d="M6.36,31.41c.36-.49.76-1,1.18-1.43a4,4,0,0,1,.86-.81.56.56,0,0,1,.24-.07.33.33,0,0,1,.22.09.28.28,0,0,1,.1.2,3.81,3.81,0,0,1-.57.79c-.37.46-.77.94-1.2,1.43a8.35,8.35,0,0,1-.8.83.48.48,0,0,1-.3.13.26.26,0,0,1-.19-.08.23.23,0,0,1-.09-.18A2.76,2.76,0,0,1,6.36,31.41Zm1.17,1.87A12.28,12.28,0,0,1,8.45,32c.32-.39.55-.59.68-.59a.21.21,0,0,1,.14.07.26.26,0,0,1,.07.16s0,0,0,.07a.13.13,0,0,0-.05.06,4.1,4.1,0,0,0-.46.78,4.65,4.65,0,0,1-.41.71,1,1,0,0,0-.25.44s0,0,.06,0a1.2,1.2,0,0,0,.46-.22,4.5,4.5,0,0,0,.65-.47c.2-.18.3-.3.3-.37a.24.24,0,0,0,0-.1.51.51,0,0,1,0-.09.45.45,0,0,1,.08-.26.27.27,0,0,1,.21-.1.32.32,0,0,1,.2.07,1.45,1.45,0,0,1,.16.18.84.84,0,0,0,.13.17,6.5,6.5,0,0,0,.75.62c.28.19.62.41,1,.65l.35.21.29.19c.26.16.51.34.76.53s.37.36.37.5a.52.52,0,0,1-.13.34.4.4,0,0,1-.31.16,3.17,3.17,0,0,1-1.24-.69c-.63-.46-1.32-1-2.09-1.6l-.1-.08L9.9,33.3a2.88,2.88,0,0,0-.21.23,3.62,3.62,0,0,1-.95.72,2.2,2.2,0,0,1-1.06.34.94.94,0,0,1-.26,0,.45.45,0,0,1-.2-.17.39.39,0,0,1-.12-.23A2.36,2.36,0,0,1,7.53,33.28Zm2.1-4.69a.2.2,0,0,1,.11,0l.09.1a2.39,2.39,0,0,0,.67.57,5,5,0,0,0,.67.29l.25.06.42.12a4.41,4.41,0,0,1,.57.21.62.62,0,0,1,.26.17.83.83,0,0,1,0,.26.41.41,0,0,1-.07.25.2.2,0,0,1-.19.12,4.15,4.15,0,0,1-1.37-.31,3.65,3.65,0,0,1-1.2-.69,1.89,1.89,0,0,1-.31-.41.88.88,0,0,1-.16-.43C9.41,28.7,9.48,28.59,9.63,28.59Z" style="fill:#fff"/><path d="M23,31.77c0,.21,0,.49,0,.82s0,.72,0,1.15c0,1.71-.3,2.56-.9,2.56a1,1,0,0,1-.4-.09c-.15-.05-.21-.14-.21-.24a.21.21,0,0,1,.07-.16.23.23,0,0,1,.16-.08s0,0,0,0h0c.08,0,.13-.16.17-.47A15.18,15.18,0,0,0,22,33.53V29.27c0-.05,0-.08-.12-.08a11.4,11.4,0,0,0-1.45.13l-.42.05-.33,0-.43.05a.63.63,0,0,0-.31.19.32.32,0,0,1-.2.13.18.18,0,0,1-.17-.11.54.54,0,0,1-.06-.25.68.68,0,0,1,.17-.47A2.49,2.49,0,0,1,20,28.5c.66-.12,1.32-.21,2-.27h-.07l.38,0c.35,0,.55.12.59.37a6.8,6.8,0,0,1,.07,1.18C22.93,30.21,23,30.88,23,31.77ZM19,32h-.08a.36.36,0,0,1-.23-.08.31.31,0,0,1-.08-.22.76.76,0,0,1,.36-.55,3.63,3.63,0,0,1,.85-.46,2,2,0,0,1,.74-.19.74.74,0,0,1,.3,0q.09,0,.09.24c0,.13-.1.25-.3.37a6.7,6.7,0,0,1-.85.42,3.64,3.64,0,0,0-.72.37Zm1.8.5A1,1,0,0,1,21,33a.49.49,0,0,1-.07.24.31.31,0,0,0-.05.09.4.4,0,0,0,0,.15s0,.09,0,.16a.62.62,0,0,1,0,.17,1,1,0,0,1,0,.19c0,.07-.15.16-.4.3a7.78,7.78,0,0,1-.82.36,2.52,2.52,0,0,1-.57.17.27.27,0,0,1-.28-.16,1.47,1.47,0,0,1,0-.41,4.39,4.39,0,0,1,.08-.7,5.37,5.37,0,0,1,.23-.92c.09-.27.19-.41.3-.41s.09,0,.14.1l.07.11a4.49,4.49,0,0,1,.43-.18,1.21,1.21,0,0,1,.38-.06A.51.51,0,0,1,20.82,32.47Zm-1.13,1.35a1.78,1.78,0,0,0,.32-.35.63.63,0,0,0,.13-.34c0-.06,0-.08-.08-.08a.87.87,0,0,0-.56.21.69.69,0,0,0-.25.53.26.26,0,0,0,0,.11c0,.05,0,.07.08.07A.59.59,0,0,0,19.69,33.82Z" style="fill:#fff"/><path d="M28.86,6.37c.2-.16.2-.48.36-.69a3.11,3.11,0,0,0,.45-.58,3.43,3.43,0,0,0,.25-.7c.06-.25.37-.46.37-.73s-.18-.45-.23-.67a2.91,2.91,0,0,0-.17-.66c-.09-.21.05-.57-.07-.76s-.58-.13-.74-.29S28.82.9,28.63.77,28.18.68,28,.6s-.36-.32-.59-.37S26.93,0,26.7,0s-.46.26-.69.31-.37.28-.59.37S24.77.47,24.58.6a3.93,3.93,0,0,0-.59.47c-.16.17.09.67,0,.87s-.6.21-.68.43.07.73,0,1c-.35.11-.43-.14-.8-.14s-.36.08-.72.08-.37-.41-.73-.41-.36.06-.72.06S20,3,19.6,3s-.36.45-.72.45-.37-.28-.73-.28-.36.23-.73.23-.36-.24-.73-.24-.36,0-.72,0-.37.12-.73.12S14.87,3,14.51,3s-.37-.19-.73-.19-.37.12-.73.12-.37.39-.73.39S12,2.9,11.59,2.9s-.37.17-.73.17-.37.25-.73.25-.37-.08-.74-.08S9,2.92,8.66,2.92s-.37,0-.74,0-.32.14-.67,0c0-.24-.31-.21-.39-.43a3.36,3.36,0,0,0-.35-.57c-.13-.2,0-.62-.13-.79s-.59,0-.78-.17A3.27,3.27,0,0,0,5,.65a2.31,2.31,0,0,0-.63-.2C4.15.4,4,.15,3.72.15S3.29.36,3.07.4,2.54.21,2.33.3a3.38,3.38,0,0,0-.6.38,3.37,3.37,0,0,0-.53.46,4.6,4.6,0,0,0-.4.58c-.12.19-.44.31-.53.52a5.21,5.21,0,0,0-.23.7,4.35,4.35,0,0,0,0,.73,3.8,3.8,0,0,0,.14.82c0,.25.47.39.58.62s0,.64.13.84a2.28,2.28,0,0,0,.41.46,2.28,2.28,0,0,0-.41.46,4.14,4.14,0,0,0-.51.66c-.11.23,0,.58-.06.84s.17.52.17.79-.27.47-.23.69.3.39.39.6-.14.61,0,.8.56.15.73.31a2.93,2.93,0,0,0,.52.41c.19.13.29.43.5.52s.48,0,.71,0,.44.22.67.22.44-.37.68-.42.58.25.81.15.23-.54.43-.69.67,0,.83-.16A4.6,4.6,0,0,0,6.94,11c.12-.21-.05-.57,0-.8a4.76,4.76,0,0,0,.16-.93,1.85,1.85,0,0,1,.81,0c.36,0,.36.47.72.47s.37-.18.73-.18.36.17.72.17.36.09.72.09.36-.28.72-.28.37-.16.73-.16.36,0,.73,0,.36.31.72.31h.73c.36,0,.36-.06.72-.06s.37-.11.73-.11.36,0,.73,0,.36.29.73.29.36-.51.73-.51.36.19.72.19.37-.23.73-.23.37.41.73.41.36-.35.73-.35.37.09.73.09.37.38.74.38.41-.45.76-.34a5.27,5.27,0,0,0,.15.81,4,4,0,0,0,.24.69c.13.22.44.28.6.46a3.75,3.75,0,0,0,.53.44,3.79,3.79,0,0,0,.56.43c.22.1.47,0,.71.06a3.07,3.07,0,0,0,.67.14,3.44,3.44,0,0,0,.65,0c.23-.05.51.13.72,0a5.15,5.15,0,0,0,.7-.2c.19-.13.15-.55.32-.71s.41-.24.54-.43a3.68,3.68,0,0,0,.39-.58,3.89,3.89,0,0,0,.29-.66,3.35,3.35,0,0,0,0-.71,4.58,4.58,0,0,0,0-.83c-.06-.26-.32-.48-.44-.72a3.19,3.19,0,0,0-.31-.76c-.16-.21-.6-.16-.81-.32C28.77,6.51,28.86,6.37,28.86,6.37Z" style="fill:#fff"/></g></g></svg>