<svg xmlns="http://www.w3.org/2000/svg" width="6.28mm" height="16.2mm" viewBox="0 0 17.8 45.91"><title>elderly</title><g id="圖層_2" data-name="圖層 2"><g id="圖層_1-2" data-name="圖層 1"><path d="M1.65,38.87a1.2,1.2,0,0,1,.4-.11.6.6,0,0,0,.3-.08s0,0,0-.07l0-.08.22-.25a.35.35,0,0,1,.15-.08.41.41,0,0,1,.17,0,.33.33,0,0,1,.19.06.17.17,0,0,1,.08.16.24.24,0,0,1,0,.15.31.31,0,0,0-.05.11s0,0,0,0a.05.05,0,0,0,.05,0h.59a2.22,2.22,0,0,1,.65,0,.65.65,0,0,0,.22.11c.21.07.32.16.32.27a.17.17,0,0,1-.07.13l-.21.13a.87.87,0,0,0-.2.12,1.23,1.23,0,0,0-.18.27.71.71,0,0,0-.1.22s0,.06.11.06a1.49,1.49,0,0,0,.53-.14,1.51,1.51,0,0,1,.5-.13.21.21,0,0,1,.17.08.26.26,0,0,1,.07.19q0,.2-.3.33a6.42,6.42,0,0,1-.87.26c-.26.06-.46.12-.62.17a.59.59,0,0,0-.3.16l-.18.22a.67.67,0,0,0-.16.24s0,0,.09.06l.15.09a.22.22,0,0,1,.06.17.11.11,0,0,1,0,.07.28.28,0,0,0,0,.09s0,0,0,0h0a3.42,3.42,0,0,0,.65-.11l.31-.06.21,0A1.08,1.08,0,0,1,5,41.66q.3,0,.3.21a.3.3,0,0,1-.09.23,1.15,1.15,0,0,1-.32.16c-.15.05-.38.12-.68.19l-.33.1-.4.12a.64.64,0,0,0-.21.12s-.1.19-.14.46a4.87,4.87,0,0,0-.06.6.92.92,0,0,0,.05.35c.1.22.61.33,1.54.33a3.88,3.88,0,0,0,1-.08.41.41,0,0,0,.3-.3,7.25,7.25,0,0,0,.1-1c0-.23,0-.4,0-.51s0-.2,0-.36l0-.14c0-.06,0-.12,0-.2s.1-.34.29-.34.3.11.35.32a7.64,7.64,0,0,1,.17,1.83,2.8,2.8,0,0,1-.16,1.1.91.91,0,0,1-.54.51A3.28,3.28,0,0,1,5,45.48a9.35,9.35,0,0,1-1.26-.07,2,2,0,0,1-1-.36,1,1,0,0,1-.43-.91,2.85,2.85,0,0,1,.1-.68,4.63,4.63,0,0,0,.08-.67,1.37,1.37,0,0,0,0-.16.74.74,0,0,1,0-.15.39.39,0,0,1,.12-.23l.16-.2,0,0c-.08,0-.27.17-.57.5s-.61.69-.92,1.09a5.15,5.15,0,0,0-.54.77c-.12.25-.24.37-.37.37a.32.32,0,0,1-.2-.08.28.28,0,0,1-.09-.2,1.23,1.23,0,0,1,.25-.58c.16-.26.38-.58.64-1A1.4,1.4,0,0,1,1,42.74a.26.26,0,0,0,.07-.1,6.3,6.3,0,0,1,.48-.6l.32-.34.3-.33a1,1,0,0,0,.12-.15.27.27,0,0,0,.07-.13S2.22,41,1.9,41A2.21,2.21,0,0,1,1.33,41a.28.28,0,0,1-.22-.31.3.3,0,0,1,.24-.31,3.19,3.19,0,0,1,.68-.1,1.1,1.1,0,0,0,.45-.07.49.49,0,0,0,.06-.31.69.69,0,0,0,0-.32s-.11-.07-.24-.07H2a.75.75,0,0,1-.33-.06.27.27,0,0,1-.13-.25A.32.32,0,0,1,1.65,38.87Zm1.73.94a3.05,3.05,0,0,0,.29-.46l0,0H3.42a.37.37,0,0,0-.28.12.46.46,0,0,0-.09.31v.13A.44.44,0,0,1,3,40a.84.84,0,0,0,0,.1s0,0,0,0l0,0C3.12,40.16,3.23,40,3.38,39.81Z" style="fill:#fff"/><path d="M14.33,45.81a5,5,0,0,1-.09-1.41v-1a4.77,4.77,0,0,0-.05-1.1l-.17,0a7.55,7.55,0,0,0-1.12.13,6.7,6.7,0,0,0-1.07.23h-.05l-.06,0c-.19-.11-.28-.23-.28-.36a.41.41,0,0,1,.29-.37,4.26,4.26,0,0,1,.8-.25l.19-.05a1.3,1.3,0,0,0,.23-.07.21.21,0,0,0,.1-.06,1.13,1.13,0,0,0,.13-.27,1.06,1.06,0,0,0,.07-.27.11.11,0,0,0,0-.1.34.34,0,0,0-.12,0l-.1,0a.34.34,0,0,1-.2-.11.35.35,0,0,1-.07-.15.35.35,0,0,0-.05-.12l-.2,0a.9.9,0,0,1-.27-.06.11.11,0,0,1-.09-.11s.1-.32.3-.89l.52-1.5.09-.24a.18.18,0,0,1,.14,0,.39.39,0,0,1,.31.23,1.17,1.17,0,0,1,.17.43.53.53,0,0,0,.06.16.22.22,0,0,0,.16,0,.88.88,0,0,0,.31-.07,2,2,0,0,1,.4-.07l.47,0c.58,0,.87.11.87.32a.46.46,0,0,1-.08.32.45.45,0,0,1-.25.1,1.15,1.15,0,0,0-.28.08c0,.06-.05.14-.08.24a.59.59,0,0,0-.05.21.25.25,0,0,0,.05.17h.12a.89.89,0,0,1,.32,0c.07,0,.11.09.11.21a.22.22,0,0,1,0,.16.52.52,0,0,1-.17.09.53.53,0,0,0-.23.14.48.48,0,0,0-.09.34,2.25,2.25,0,0,0,0,.62l.06,0h.52l.37,0c.4,0,.7,0,.9,0a1.35,1.35,0,0,1,.48.07.31.31,0,0,1,.19.32.37.37,0,0,1-.17.33.78.78,0,0,1-.41.11h-.84c-.66,0-1,0-1.08.11a.71.71,0,0,0-.08.39c0,.32,0,.81-.09,1.48a6.76,6.76,0,0,1-.2,1.31.5.5,0,0,0,0,.16.94.94,0,0,1,0,.34q0,.09-.24.09A.37.37,0,0,1,14.33,45.81ZM13.57,40l.36-.1a.69.69,0,0,0,.38-.2.59.59,0,0,0,.09-.29c0-.13,0-.22,0-.28s0-.09,0-.11h-.84a3.6,3.6,0,0,0-.33.49A2.63,2.63,0,0,0,13,40s0,0,.07,0l.12,0A2.21,2.21,0,0,0,13.57,40Zm.57,1.35a.16.16,0,0,0,.16-.11.59.59,0,0,0,0-.23.69.69,0,0,0,0-.2c0-.07,0-.1-.09-.1s-.1.06-.14.19a1.1,1.1,0,0,0-.06.31C14,41.32,14.06,41.37,14.14,41.37Z" style="fill:#fff"/><path d="M7.94,21.43c-.09.16-.6.09-.68.25s.1.48,0,.64c0,0-.26-.26-.32-.23l-.58.34c-.2.12-.2.55-.39.68s-.64,0-.8.12.07.63,0,.84a2,2,0,0,0-.24.81c0,.2-.5.33-.53.52s0,.72-.2.79-.34-.27-.52-.58-.4-.34-.42-.59-.28-.54-.24-.79.45-.42.53-.66a4.44,4.44,0,0,1,.34-.65c.12-.25,0-.61.12-.8s.42-.25.6-.44.37-.27.55-.44.29-.38.49-.52.29-.45.49-.57.59.13.8.05.4-.34.62-.36c.06,0,.31-.05.32-.12,0-.24,0-.49,0-.73s.09-.49.1-.73-.42-.5-.42-.74.28-.48.28-.73-.06-.48-.06-.73-.1-.48-.1-.72.31-.49.31-.74,0-.48,0-.73-.17-.48-.18-.72,0-.49,0-.73-.08-.49-.1-.73.16-.49.14-.74.09-.49.08-.73-.3-.47-.32-.71,0-.49,0-.73.22-.51.19-.75-.47-.45-.49-.69c0,0,.21-.35.18-.35-.25,0-.5.13-.73.06A3.73,3.73,0,0,1,6,6.75c-.22-.12-.32-.35-.51-.5s-.43-.2-.59-.38-.6-.18-.73-.38.1-.62,0-.84-.36-.37-.43-.6a6.93,6.93,0,0,1-.2-.71c0-.24-.24-.49-.25-.73s.29-.4.29-.64-.26-.49-.21-.68A1.25,1.25,0,0,1,3.81.74c.14-.1.33-.37.55-.42s.5.41.7.39.38-.48.54-.5.5,0,.74,0L7.07.11c.24,0,.49.27.73.26l.72,0C8.76.4,9,0,9.26,0s.44.52.67.54.5-.35.73-.32.44.27.68.3.5-.31.74-.28.41.44.64.47.43-.08.65,0,.47-.15.67-.1a2.55,2.55,0,0,1,.64.23c.19.11.13.5.25.66a1.54,1.54,0,0,1,.26.51,2.84,2.84,0,0,1,.16.57,4.18,4.18,0,0,1,0,.71,3,3,0,0,1-.21.66,3.76,3.76,0,0,1-.17.68c-.11.21-.37.31-.5.5s0,.65-.12.82-.48.2-.67.35-.46.14-.67.27a4.57,4.57,0,0,1-.57.41c-.21.1-.42.19-.64.27s-.39.4-.61.45c-.07,0-.2-.13-.2-.05,0,.24.2.49.19.73s0,.48,0,.72-.24.47-.25.71.06.48,0,.72-.08.48-.09.72.25.49.24.73-.45.47-.46.71.27.49.26.73-.11.48-.12.72-.06.48-.07.72,0,.48,0,.72-.1.48-.11.72-.09.48-.1.72.09.48.08.72-.05.48-.06.72-.21.48-.22.72.07.48.06.72c0,0,.26-.06.28-.05a7.13,7.13,0,0,1,.69.29,6.9,6.9,0,0,1,.63.42c.21.14.29.44.47.61a4.19,4.19,0,0,1,.49.54,6.38,6.38,0,0,1,.52.52c.12.18.4.31.53.54s0,.52.13.75.11.47.19.71.49.39.53.63a3.56,3.56,0,0,1,.08.78,2.36,2.36,0,0,1-.24.78c-.11.25-.52.41-.78.49s-.39-.19-.63-.41-.13-.17-.17-.37-.29-.34-.3-.49-.29-.45-.32-.68.34-.59.22-.81a3.13,3.13,0,0,0-.5-.59,5.41,5.41,0,0,0-.54-.53,5.07,5.07,0,0,0-.64-.37c-.21-.13-.4-.33-.61-.43s-.05.25-.09.33c-.12.24-.68.27-.79.51s.16.65.07.89a7.44,7.44,0,0,0-.31.72,6.69,6.69,0,0,0,0,.78,3.37,3.37,0,0,0,0,.71c0,.24-.54.51-.52.76s.43.45.44.66a.94.94,0,0,1-.23.67c-.12.12-.34-.09-.66-.08s-.53.38-.78.32-.68-.15-.82-.39.35-.74.33-.95,0-.6,0-.89-.26-.58-.26-.87a5.58,5.58,0,0,1,0-.7,5.74,5.74,0,0,1,0-.72c.06-.23.24-.42.32-.64s.3-.38.4-.59.33-.35.43-.55-.13-.6,0-.81S8,21.35,7.94,21.43ZM12.59,3.37c.05-.28.48-.57.4-.78s-.52-.28-.72-.45S12,1.6,11.76,1.5A5.94,5.94,0,0,0,11,1.27c-.25-.05-.55.29-.79.28s-.58-.4-.79-.35c0,0,0,.48,0,.49-.19,0-.43.05-.68.05s-.45-.54-.69-.53-.41.44-.64.48-.56-.27-.76-.19-.34.43-.5.57,0,.43-.12.66-.44.4-.39.63a2.14,2.14,0,0,0,.22.72c.12.2.5.23.65.41s.18.5.32.66a3.85,3.85,0,0,0,.6.61A3.67,3.67,0,0,0,8.26,6c.26.08.56-.09.84-.07s.53.35.76.29.4-.36.61-.47a5.34,5.34,0,0,0,.7-.27c.16-.12.32-.3.51-.45s.39-.25.55-.41,0-.6.09-.78A1.36,1.36,0,0,0,12.59,3.37Z" style="fill:#fff"/><path d="M13.32,28.72a3.14,3.14,0,0,0,.7,0,1.13,1.13,0,0,0,.61-.29,1.23,1.23,0,0,0,.28-.63A3,3,0,0,0,15,27a2.14,2.14,0,0,0-.22-.66.94.94,0,0,1-.51.51,1.47,1.47,0,0,1-.87.12,1.07,1.07,0,0,1-.7-.53,1.21,1.21,0,0,0-.22.59,2.85,2.85,0,0,0,0,.64,2.14,2.14,0,0,0,.13.62C12.69,28.69,13,28.7,13.32,28.72Z" style="fill:#fff"/><path d="M9.21,28.43a4,4,0,0,1-.83.13,3.82,3.82,0,0,1-.83,0,6.44,6.44,0,0,1-.83-.17s-.08-.05-.08-.09,0-.18,0-.26a2,2,0,0,0-.21.82,2.35,2.35,0,0,0,.08.84.73.73,0,0,0,.53.42,3.81,3.81,0,0,0,.7.1c.28,0,.54,0,.71,0a2.12,2.12,0,0,0,.72,0,.73.73,0,0,0,.51-.51,2.08,2.08,0,0,0,0-.5,2.5,2.5,0,0,0,0-.59.63.63,0,0,0-.33-.47c0,.1,0,.19,0,.28S9.26,28.42,9.21,28.43Z" style="fill:#fff"/><path d="M3.71,26.31a.78.78,0,0,1-.49-.26,1.11,1.11,0,0,1-.2-.52c-.28,0-.41.26-.5.52a2.73,2.73,0,0,0-.14.76,1.43,1.43,0,0,0,.07.62.65.65,0,0,0,.45.32,3.84,3.84,0,0,0,.54.13,2.28,2.28,0,0,0,1.07-.06A.81.81,0,0,0,5,27.4a1.74,1.74,0,0,0,.1-.61c0-.32.08-.77-.15-1a.71.71,0,0,1-.24.34A1.37,1.37,0,0,1,3.71,26.31Z" style="fill:#fff"/></g></g></svg>