<svg xmlns="http://www.w3.org/2000/svg" width="268.75" height="274.24" viewBox="0 0 268.75 274.24"><title>Home</title><g id="圖層_2" data-name="圖層 2"><g id="圖層_1-2" data-name="圖層 1"><circle cx="134.38" cy="137.12" r="134.3" style="fill:#ffef75"/><path d="M268.67,137.12a132,132,0,0,1-8.93,51.93,134.43,134.43,0,0,1-72.94,74.62,135.35,135.35,0,0,1-104.85,0A134.48,134.48,0,0,1,9,189.05,132,132,0,0,1,.08,137.12l.38,6.58.69,6.54c.28,2.18.65,4.34,1,6.5S3,161,3.39,163.18A132.08,132.08,0,0,0,11.57,188,134.64,134.64,0,0,0,84,258.74a133.68,133.68,0,0,0,100.75,0A134.58,134.58,0,0,0,257.19,188a131.84,131.84,0,0,0,8.18-24.81c.42-2.14.91-4.28,1.27-6.44s.68-4.32,1-6.5l.7-6.54Z" style="fill:#edda6e"/><path d="M.08,137.12A131.85,131.85,0,0,1,9,85.19,134.42,134.42,0,0,1,82,10.57a135.33,135.33,0,0,1,104.84,0,134.46,134.46,0,0,1,72.95,74.63,131.83,131.83,0,0,1,8.92,51.93l-.38-6.58L267.6,124c-.28-2.18-.64-4.34-1-6.5s-.85-4.29-1.27-6.44a133.54,133.54,0,0,0-8.18-24.81A134.7,134.7,0,0,0,184.75,15.5,133.8,133.8,0,0,0,84,15.49,134.67,134.67,0,0,0,11.56,86.25a132.57,132.57,0,0,0-8.18,24.81c-.41,2.15-.91,4.28-1.27,6.44s-.68,4.32-1,6.5l-.69,6.54Z" style="fill:#edda6e"/><circle cx="134.38" cy="137.12" r="102.9" style="fill:#00b68b"/><path d="M31.48,137.12a102.9,102.9,0,1,1,205.8,0,103.23,103.23,0,0,0-63.77-94.48,103.18,103.18,0,0,0-78.27,0,103.21,103.21,0,0,0-63.76,94.48Z" style="fill:#a3964b"/><path d="M237.28,137.12a101.8,101.8,0,0,1-7.19,39.65,103.87,103.87,0,0,1-22.19,33.88,102.33,102.33,0,0,1-33.65,22.73,102.84,102.84,0,0,1-79.75,0,102.51,102.51,0,0,1-33.65-22.74,104,104,0,0,1-22.19-33.88,101.61,101.61,0,0,1-7.18-39.65,103.52,103.52,0,0,0,64,93.89,103.3,103.3,0,0,0,77.78,0,103.52,103.52,0,0,0,64-93.89Z" style="fill:#9b8f48"/><path d="M106.86,5.65A134.48,134.48,0,0,0,4.19,104,74.29,74.29,0,1,0,106.86,5.65Z" style="fill:#fff;opacity:0.1"/><path d="M.08,137.12c0,1.15,0,2.29,0,3.43A114.46,114.46,0,1,0,152.48,4,134.34,134.34,0,0,0,.08,137.12Z" style="fill:#fff;opacity:0.1"/><path d="M85.5,79.07A35.44,35.44,0,0,1,57.87,51.44a.71.71,0,0,0-1.4,0A35.44,35.44,0,0,1,28.84,79.07a.71.71,0,0,0,0,1.4A35.44,35.44,0,0,1,56.47,108.1a.71.71,0,0,0,1.4,0A35.44,35.44,0,0,1,85.5,80.47.71.71,0,0,0,85.5,79.07Z" style="fill:#fff"/><path d="M236.91,195.78a23.86,23.86,0,0,1-18.61-18.61.48.48,0,0,0-1,0,23.86,23.86,0,0,1-18.61,18.61.48.48,0,0,0,0,.95,23.86,23.86,0,0,1,18.61,18.61.48.48,0,0,0,1,0,23.86,23.86,0,0,1,18.61-18.61A.48.48,0,0,0,236.91,195.78Z" style="fill:#fff"/><g style="opacity:0.77"><path d="M169.08,199.12H155.66c-5.86,0-10.62-4.39-10.62-9.79v-5c0-5.07-4.47-9.2-10-9.2s-10,4.13-10,9.2v5c0,5.4-4.76,9.79-10.61,9.79H99.67c-8.79,0-16-6.6-16-14.72V135.61H185V184.4C185,192.52,177.88,199.12,169.08,199.12Zm-9.93-13h9.93a1.77,1.77,0,0,0,1.84-1.7V148.63H97.83V184.4a1.78,1.78,0,0,0,1.84,1.7H111v-1.8c0-12.25,10.8-22.22,24.08-22.22s24.07,10,24.07,22.22Z" style="fill:#fff"/><path d="M170.86,148.65h-73a14.25,14.25,0,0,1-12.54-7,12.15,12.15,0,0,1,1-13.52l36.48-47.48a14.81,14.81,0,0,1,23,0l36.48,47.48a12.15,12.15,0,0,1,1,13.52A14.24,14.24,0,0,1,170.86,148.65Zm-73-13h73L134.38,88.14Z" style="fill:#fff"/></g></g></g></svg>