<svg xmlns="http://www.w3.org/2000/svg" width="11.93mm" height="16.04mm" viewBox="0 0 33.83 45.48"><title>home</title><g id="圖層_2" data-name="圖層 2"><g id="圖層_1-2" data-name="圖層 1"><path d="M11.23,38a3,3,0,0,0,.25-.36,2.75,2.75,0,0,1,.34-.52.51.51,0,0,1,.39-.19.19.19,0,0,1,.15.08.28.28,0,0,1,.06.18.45.45,0,0,1-.06.19l-.14.22a.57.57,0,0,0-.16.27l0,0h.06a4,4,0,0,0,.64-.07,4.62,4.62,0,0,1,.62-.06,1.23,1.23,0,0,1,.39.06.22.22,0,0,1,.18.23c0,.1-.11.19-.33.26s-.54.14-.94.22l-.53.13a.74.74,0,0,0-.31.12.2.2,0,0,0-.06.14.19.19,0,0,1-.08.13.27.27,0,0,0-.1.19c0,.15-.07.31-.1.48a2.79,2.79,0,0,0,0,.47,1.58,1.58,0,0,1,.47-.06.92.92,0,0,1,.57.15,1.63,1.63,0,0,1,.44,1,13.63,13.63,0,0,1,.1,1.64v.58c0,.26,0,.45,0,.58a.11.11,0,0,0,.05.1l.16.06a.68.68,0,0,1,.27.13.4.4,0,0,1,.09.3.47.47,0,0,1,0,.17c-.06.13-.21.21-.46.24l-.31,0a7.37,7.37,0,0,1-1,.11l-.24,0-.16,0a1.46,1.46,0,0,1-.41.08.69.69,0,0,1-.36-.13c-.13-.09-.2-.18-.2-.28a1,1,0,0,1,.08-.33,1.37,1.37,0,0,0,.09-.43c0-.3,0-.54,0-.73A3.68,3.68,0,0,0,10.5,43c0-.06,0-.14-.07-.25a1.17,1.17,0,0,1,0-.3,1.6,1.6,0,0,1,0-.33,1.89,1.89,0,0,0,.05-.33,8,8,0,0,1,.14-1.17,9.62,9.62,0,0,1,.24-1.15A1.33,1.33,0,0,0,11,39s0-.06-.11-.06a3.12,3.12,0,0,0-.88.2l-.65.22h0l-.16,0a.43.43,0,0,1-.27-.1.28.28,0,0,1-.14-.22c0-.12.15-.24.46-.36s.65-.23,1-.34a1.34,1.34,0,0,0,0-.21s0-.1,0-.15a2.61,2.61,0,0,1,0-.41q0-.39.33-.39a.33.33,0,0,1,.33.15,1.26,1.26,0,0,1,.07.44.82.82,0,0,0,0,.27s.05.07.11.07A.26.26,0,0,0,11.23,38Zm1,3.24a1,1,0,0,0-.18-.35.52.52,0,0,0-.31-.08.27.27,0,0,0-.19.06,1,1,0,0,0-.06.31c0,.18,0,.32,0,.42a.13.13,0,0,0,.11.14.75.75,0,0,0,.21,0h.14c.27,0,.41,0,.41-.11A1.28,1.28,0,0,0,12.23,41.28Zm.12,1.21a.17.17,0,0,0-.12,0,1.61,1.61,0,0,0-.34,0,.9.9,0,0,0-.3.11c-.05,0-.07.13-.07.27a.16.16,0,0,0,.11.17.76.76,0,0,0,.21,0H12a.75.75,0,0,0,.35,0,1.75,1.75,0,0,0,0-.43A.29.29,0,0,0,12.35,42.49Zm-.3,1H11.6a1.17,1.17,0,0,0,0,.35c0,.21,0,.37,0,.48s0,.13.11.13a1.34,1.34,0,0,0,.76-.23c0-.06,0-.16,0-.31a3,3,0,0,0-.05-.37A.94.94,0,0,0,12.05,43.52Z" style="fill:#fff"/><path d="M21,37.41a5.07,5.07,0,0,1,1.12-.35,4.85,4.85,0,0,1,.93-.13.76.76,0,0,1,.33,0c.09,0,.13.11.13.23s-.07.17-.19.24a2.5,2.5,0,0,1-.51.22,2.57,2.57,0,0,0-.45.2c-.09.05-.14.11-.14.18a3.53,3.53,0,0,1-.27.87l0,0a1.13,1.13,0,0,0,.34-.07l.33-.05a.62.62,0,0,1,.64.51,4.68,4.68,0,0,1,.14,1.19c0,.23,0,.59,0,1.08,0,.32,0,.56,0,.72a1.47,1.47,0,0,1-.22.29.41.41,0,0,1-.25.16.17.17,0,0,0-.09,0,2,2,0,0,0,.42.2,9.83,9.83,0,0,1,1.33.64c.35.21.53.44.53.68a.34.34,0,0,1-.1.22.28.28,0,0,1-.22.11,1,1,0,0,1-.45-.19,8.82,8.82,0,0,1-.76-.52c-.37-.26-.66-.46-.87-.58a1,1,0,0,0-.49-.19s-.09,0-.15.12a1.78,1.78,0,0,0-.17.27c-.06.11-.1.17-.12.2a5.23,5.23,0,0,1-.39.66c-.11.15-.22.23-.33.23a.36.36,0,0,1-.24-.09.32.32,0,0,1-.09-.24.72.72,0,0,1,.08-.35q.09-.16.24-.39l.2-.32a.49.49,0,0,0,.06-.23.69.69,0,0,0-.09-.27.5.5,0,0,1-.1-.26.25.25,0,0,1,0-.14A14.15,14.15,0,0,0,21.35,40v-.25a4.86,4.86,0,0,1,.29-1.39,1.54,1.54,0,0,0,.08-.32l0,0a1.57,1.57,0,0,0-.5.1l-.2,0a1.12,1.12,0,0,1-.31.05c-.05,0-.09,0-.12-.1a.49.49,0,0,1,0-.19C20.51,37.72,20.68,37.55,21,37.41Zm.9,2.44.07,0,.22-.06.22,0,.12,0,0,0a.13.13,0,0,0-.06-.11.21.21,0,0,0-.13-.05.91.91,0,0,0-.37.12c-.15.08-.23.16-.23.23s0,0,0,0Zm.67.68h-.2q-.57,0-.57.18a.08.08,0,0,0,0,.07.12.12,0,0,0,.09,0l.06,0,.23,0a1.82,1.82,0,0,0,.31,0c.08,0,.12-.05.12-.11A.07.07,0,0,0,22.57,40.53Zm-.32,1.61a1.34,1.34,0,0,0,.31-.14.57.57,0,0,0,.11-.42.26.26,0,0,0-.07-.22.25.25,0,0,0-.19-.06h-.28c-.15,0-.24,0-.28.1a.49.49,0,0,0,0,.25v.2a.7.7,0,0,0,.05.34h.06A1.13,1.13,0,0,0,22.25,42.14Z" style="fill:#fff"/><path d="M9.63,30.05a1.41,1.41,0,0,1-.85-.27.2.2,0,0,0-.13-.06,1,1,0,0,0-.25,0,1.44,1.44,0,0,1-1.26-1.53.9.9,0,0,0,0-.34,1.38,1.38,0,0,1,0-.78,3.37,3.37,0,0,0,.09-.34l0-.12a1.39,1.39,0,0,1,.06-.19,3.47,3.47,0,0,0,.1-.37,2.83,2.83,0,0,1,.08-.3,2.54,2.54,0,0,0,.11-.38s0-.08,0-.19a1.42,1.42,0,0,1,.34-1.66c.14-.13.15-.19.16-.22a1.11,1.11,0,0,0,0-.36.86.86,0,0,1,0-.42c0-.1,0-.21,0-.32a2.44,2.44,0,0,1,0-.27,2.6,2.6,0,0,0,0-.44,1,1,0,0,1,0-.25s0-.08,0-.13a3.39,3.39,0,0,0,0-.35,1.55,1.55,0,0,1,.21-.7.65.65,0,0,0,.12-.3,1.69,1.69,0,0,1,.12-.44A1.1,1.1,0,0,0,8.68,19c0-.24,0-.49,0-.71a2.3,2.3,0,0,1,0-.26l0-.12a1.34,1.34,0,0,0,0-.35c0-.17-.33-.21-.59-.22a1.68,1.68,0,0,1-.55-.1l-.23-.09a1.46,1.46,0,0,1-.57-.41c-.13-.15-.19-.18-.24-.19H6.29a1.57,1.57,0,0,1-.92-.29l-.13-.08a1,1,0,0,0-.33,0,1.6,1.6,0,0,1-.53-.09L4.21,16l-.39-.16a2.08,2.08,0,0,0-.3-.13,2.13,2.13,0,0,1-.65-.42,1.79,1.79,0,0,0-.23-.25,1.23,1.23,0,0,1-.26-.25c-.07-.08-.12-.16-.19-.23a1.36,1.36,0,0,1-.28-.46.8.8,0,0,0-.15-.26.32.32,0,0,0-.2-.11,1.43,1.43,0,0,1-1-1.3.65.65,0,0,0,0-.22.94.94,0,0,0-.1-.14,1.39,1.39,0,0,1-.17-1.72.35.35,0,0,0,.05-.15A1.63,1.63,0,0,1,.54,9a1.05,1.05,0,0,0,.11-.35,1.42,1.42,0,0,1,.16-.45l.06-.12a2.62,2.62,0,0,1,.25-.41,2.09,2.09,0,0,1,.2-.22l.09-.07.22-.19A.62.62,0,0,0,1.71,7a1.4,1.4,0,0,1,.85-.71l.13-.06a.71.71,0,0,0,.15-.15,1.48,1.48,0,0,1,.83-.53.79.79,0,0,0,.22-.06c.33-.12.5-.18.68-.23a.73.73,0,0,0,.26-.14,1.51,1.51,0,0,1,.74-.24l.4,0,.25,0a2.9,2.9,0,0,1,.48,0,1.53,1.53,0,0,1,.59-.28l.14-.06a1.47,1.47,0,0,1,.28-.14,1.35,1.35,0,0,0,.38-.19L8.2,4A1.38,1.38,0,0,1,9,3.4a.53.53,0,0,0,.18-.1.39.39,0,0,0,.09-.19,1.41,1.41,0,0,1,.58-.79L10,2.19a.55.55,0,0,0,.11-.28,1.68,1.68,0,0,1,.26-.56A1.6,1.6,0,0,1,11.2.77c.15-.05.18-.08.2-.11A1.55,1.55,0,0,1,12.6.05a1,1,0,0,1,.24,0h.23A1.31,1.31,0,0,1,13.51,0a1.42,1.42,0,0,1,.69.18.39.39,0,0,0,.13,0h0a.37.37,0,0,0,.17,0A1.56,1.56,0,0,1,15,.11a1.61,1.61,0,0,1,.53.1.47.47,0,0,0,.17,0,2.34,2.34,0,0,1,.38.09.8.8,0,0,0,.33.08h0a.37.37,0,0,0,.23-.06,1.39,1.39,0,0,1,.79-.24l.39,0c.18,0,.27,0,.36,0A1.6,1.6,0,0,1,19,.56a.38.38,0,0,0,.24.11h.13l.22,0h.29a3.92,3.92,0,0,1,.4,0l.36,0h0a.31.31,0,0,0,.15,0,1.38,1.38,0,0,1,.62-.15,1.43,1.43,0,0,1,.5.09.29.29,0,0,0,.14,0h.24a1.48,1.48,0,0,1,1.49,1.26,1,1,0,0,0,.09.34l.14.22.24.39a.74.74,0,0,0,.21.18,1.46,1.46,0,0,1,.53.65,1.4,1.4,0,0,0,.15.3,1.2,1.2,0,0,0,.26.24,1,1,0,0,1,.33.3l.1.14a1.47,1.47,0,0,1,.34.92c0,.2,0,.25.06.28l.46.55a3.58,3.58,0,0,0,.26.29l.22.24a.47.47,0,0,0,.18.12,1.39,1.39,0,0,1,.72.73.7.7,0,0,0,.11.18,2.52,2.52,0,0,1,.21.25,2.83,2.83,0,0,0,.26.31.67.67,0,0,0,.29.15,1.42,1.42,0,0,1,.55.33l.37.34a.58.58,0,0,0,.21.13,1.41,1.41,0,0,1,.69.65.57.57,0,0,0,.15.2l.57.45a1.23,1.23,0,0,1,.29.31,1.62,1.62,0,0,0,.22.2.59.59,0,0,0,.29.1,1.37,1.37,0,0,1,.71.33l.19.15a1.42,1.42,0,0,1,.36.41l.06.09a1.41,1.41,0,0,1,.17,1.27,1.37,1.37,0,0,0-.06.32,1.48,1.48,0,0,1-.11.45c0,.07,0,.15-.08.22a1.18,1.18,0,0,1-.19.41,1.44,1.44,0,0,1-1,.75l-.14,0A.92.92,0,0,0,32,16a1.4,1.4,0,0,1-.82.65l-.18.06a.75.75,0,0,0-.2.11,1.45,1.45,0,0,1-.8.25h-.42a1.88,1.88,0,0,1-.34,0h-.12a1.46,1.46,0,0,1-.68-.17.56.56,0,0,0-.27-.1l-.49-.07-.2,0h0l-.1,0a1.65,1.65,0,0,1-.38.05,1.44,1.44,0,0,1-.77-.23.19.19,0,0,0-.09-.05.33.33,0,0,0-.15,0,1.43,1.43,0,0,1-1.38-1,.7.7,0,0,0-.12-.24.72.72,0,0,0-.25-.12,1.48,1.48,0,0,1-.52-.29l-.15-.12A1.85,1.85,0,0,1,23,14a1.45,1.45,0,0,1-.12.42.61.61,0,0,0-.09.34,2.05,2.05,0,0,0,.28.66,1.6,1.6,0,0,1,.63,1.17,1.76,1.76,0,0,1,.53,1.3.42.42,0,0,0,.14.25,1.5,1.5,0,0,1,.41.91.53.53,0,0,0,0,.2.45.45,0,0,0,.19.21,1.42,1.42,0,0,1,.48.65l.09.26a1.31,1.31,0,0,1,.08.43,1.72,1.72,0,0,0,0,.32,1.21,1.21,0,0,1,0,.5.74.74,0,0,0,0,.33,3.38,3.38,0,0,0,.11.34,2.87,2.87,0,0,1,.12.34c0,.11.07.22.11.33l.11.34a.21.21,0,0,0,.08.11,1.46,1.46,0,0,1,.5,1.1,2.16,2.16,0,0,1,0,.44.9.9,0,0,0,0,.38.92.92,0,0,0,.18.32,1.37,1.37,0,0,1,.23.45l0,.11c.05.15.09.29.14.41a1.73,1.73,0,0,1,.18,1,1.45,1.45,0,0,1-.72,1.24A1.51,1.51,0,0,1,26,29a1.48,1.48,0,0,1-.71-.19.38.38,0,0,0-.16-.05l-.18,0a1.75,1.75,0,0,1-.32,0,1.86,1.86,0,0,1-.33,0l-.2,0a1.92,1.92,0,0,1-.7-.31.5.5,0,0,0-.16-.11,1.2,1.2,0,0,1-.41-.2c-.18-.12-.25-.14-.32-.14a.34.34,0,0,0-.19.06,1.38,1.38,0,0,1-.78.24,1.53,1.53,0,0,1-.3,0H21.1l-.29,0a2.07,2.07,0,0,0-.4.05.6.6,0,0,0-.27.2,1.38,1.38,0,0,1-.4.32l-.12.09a1.43,1.43,0,0,1-.93.38h0a1.69,1.69,0,0,1-.64-.12.64.64,0,0,0-.27-.08.66.66,0,0,0-.26.06,1.32,1.32,0,0,1-.55.11,1.41,1.41,0,0,1-1.08-.5.71.71,0,0,0-.13-.12,1,1,0,0,0-.24-.09,1.35,1.35,0,0,1-.59-.31c-.13-.12-.2-.13-.26-.13h-.11a.34.34,0,0,0-.17.14,1.42,1.42,0,0,1-1.12.55,1.31,1.31,0,0,1-.39-.05.58.58,0,0,0-.19,0,.21.21,0,0,0-.11,0s-.06,0-.11.14a1.42,1.42,0,0,1-1.31.87h-.41a1.45,1.45,0,0,0-.26.07l-.26.08L10,30A2,2,0,0,1,9.63,30.05Z" style="fill:#fff"/></g></g></svg>