<svg xmlns="http://www.w3.org/2000/svg" width="18.51mm" height="28.64mm" viewBox="0 0 52.46 81.18"><title>index</title><g id="圖層_2" data-name="圖層 2"><g id="圖層_1-2" data-name="圖層 1"><path d="M23.89,81.18a1.27,1.27,0,0,1-.34-.05,2.63,2.63,0,0,1-.3-.09,4.13,4.13,0,0,0-.55-.16,1.51,1.51,0,0,1-.66-.32L22,80.49a1.57,1.57,0,0,0-.68-.43h0a1.19,1.19,0,0,0-.66.24,1.52,1.52,0,0,1-.74.2,1.41,1.41,0,0,1-.87-.3,1.8,1.8,0,0,0-.55-.32,1.19,1.19,0,0,1-.26-.11,2.29,2.29,0,0,1-.35-.23,2.39,2.39,0,0,0-.64-.39,3,3,0,0,1-.66-.37,3.11,3.11,0,0,0-.56-.32,2.45,2.45,0,0,0-.66-.16,2.56,2.56,0,0,1-.59-.14.94.94,0,0,1-.15-.06,2.91,2.91,0,0,0-.63-.2,2.87,2.87,0,0,1-.62-.19l-.11-.06a1.58,1.58,0,0,0-.74-.12h-.16a1.5,1.5,0,0,1-.84-.3L11,76.85a5.09,5.09,0,0,0-.49-.42,3.17,3.17,0,0,0-.58-.37,1.48,1.48,0,0,1-.77-1.43c0-.4.07-.75-.08-.91a2.11,2.11,0,0,0-.58-.39,2.84,2.84,0,0,1-.44-.26,1.6,1.6,0,0,1-.26-.26,2.75,2.75,0,0,0-.48-.37,1.57,1.57,0,0,1-.71-1.23v-.12a1.35,1.35,0,0,0-.1-.73,2.11,2.11,0,0,0-.48-.51,3.53,3.53,0,0,1-.39-.36,1.67,1.67,0,0,1-.18-.28,3.33,3.33,0,0,0-.27-.45,6.1,6.1,0,0,1-.4-.72,1.1,1.1,0,0,0-.4-.43A1.43,1.43,0,0,1,4,65.89a1,1,0,0,0,.14-.65,1,1,0,0,0-.42-.46,1.43,1.43,0,0,1-.48-1.72.93.93,0,0,0,.12-.58c0-.28-.07-.56-.1-.84s0-.39-.06-.58a2.12,2.12,0,0,0-.26-.67,1.8,1.8,0,0,1-.14-.28,1.39,1.39,0,0,1-.09-.85c0-.1.05-.2.08-.3a2.4,2.4,0,0,0,.14-.75,1.41,1.41,0,0,0-.28-.69,1.44,1.44,0,0,1,0-1.47l0,0a1.76,1.76,0,0,0,.27-.68,1.31,1.31,0,0,0-.34-.76,1.56,1.56,0,0,1-.22-1.29L2.42,53a4.1,4.1,0,0,0,.19-.66l.06-.23c0-.06.16-.32.26-.49a3.87,3.87,0,0,0,.25-.5,1.43,1.43,0,0,1,.55-.69l.87,1.13L3.82,50.4c.3-.2.52-.36.58-.58a1.43,1.43,0,0,0-.1-.77,1.54,1.54,0,0,1,.17-1.29l.13-.19A3.13,3.13,0,0,0,5,47a2.07,2.07,0,0,0,.11-.71,3.38,3.38,0,0,1,0-.51,1.38,1.38,0,0,1,.15-.4,3.73,3.73,0,0,0,.18-.49,5.17,5.17,0,0,1,.31-.73c.14-.25.3-.48.46-.71L6.53,43A1.44,1.44,0,0,1,7,42.59l.21-.12A1.88,1.88,0,0,0,7.79,42a1.34,1.34,0,0,1,.39-.32l.24-.12a1.83,1.83,0,0,0,.64-.42c.07-.08.13-.2.11-.57a1.42,1.42,0,0,1,1.19-1.48.83.83,0,0,0,.47-.18,1,1,0,0,0,.25-.59,1.41,1.41,0,0,1,1.32-1.12,1.18,1.18,0,0,0,.6-.15,2.66,2.66,0,0,0,.49-.51,3.06,3.06,0,0,1,.41-.44l.17-.12a2.38,2.38,0,0,0,.49-.47,2.9,2.9,0,0,1,.43-.43L15.2,35a4,4,0,0,0,.52-.35l.29-.21a1.45,1.45,0,0,1,.8-.25,1.26,1.26,0,0,1,.38.06,3.33,3.33,0,0,0,.61.1.61.61,0,0,0,.24,0,1.35,1.35,0,0,0,.55-.56,1.43,1.43,0,0,1,1.19-.65h.15a3.1,3.1,0,0,0,.41,0,1.42,1.42,0,0,0,.3,0,1.43,1.43,0,0,1,.29,0,1.41,1.41,0,0,1,.45.07l.11,0a2.28,2.28,0,0,0,.6.12h.16a1.51,1.51,0,0,0,.64-.46l.11-.1a1.45,1.45,0,0,1,.91-.33,1.23,1.23,0,0,1,.42.07,2.89,2.89,0,0,0,.62.11l.34,0a3.49,3.49,0,0,1,.51,0l.57,0h.14a1.22,1.22,0,0,0,.61-.28,1.41,1.41,0,0,1,1.66,0,1.2,1.2,0,0,0,.61.29,2.49,2.49,0,0,1,.75.15,3.8,3.8,0,0,0,.67.14h0a.8.8,0,0,0,.5-.2,1.42,1.42,0,0,1,1.9.24c.21.24.33.29.43.31h0a1.27,1.27,0,0,0,.69-.29,1.42,1.42,0,0,1,.81-.26,1.38,1.38,0,0,1,.94.36,1.47,1.47,0,0,0,.5.32,3,3,0,0,0,.68.12l.38,0a1.39,1.39,0,0,1,.89.52l.08.1a1.66,1.66,0,0,0,.56.56.56.56,0,0,0,.23,0,1.48,1.48,0,0,0,.32,0,1.63,1.63,0,0,1,.31,0,1.42,1.42,0,0,1,1.34,1c.12.34.22.44.3.49a1.07,1.07,0,0,0,.55.11h.44a1.48,1.48,0,0,1,.74.21,4.5,4.5,0,0,0,.48.25,1.54,1.54,0,0,1,.53.34,1.43,1.43,0,0,1,.42.89c0,.38.06.66.22.81a1.59,1.59,0,0,0,.64.3,1.41,1.41,0,0,1,1,1.13,1.4,1.4,0,0,0,.22.68,3,3,0,0,1,.37.67,4,4,0,0,0,.3.58,1.44,1.44,0,0,0,.61.43A1.42,1.42,0,0,1,49,43.73a1.85,1.85,0,0,0,.15.75c0,.08.1.17.33.29a1.41,1.41,0,0,1,.65,1.87c-.16.34-.12.46-.1.52a4.84,4.84,0,0,1,.2.72c.06.26.1.44.15.63a2.88,2.88,0,0,0,.3.61,2.79,2.79,0,0,1,.28.6,2,2,0,0,0,.37.72l.19.28a1.61,1.61,0,0,1,.17.43,1.54,1.54,0,0,0,.34.6,1.4,1.4,0,0,1,.14,1.53A1.45,1.45,0,0,0,52,54a3,3,0,0,0,.12.66,3.38,3.38,0,0,1,.12.76,2.17,2.17,0,0,0,.17.72,1.55,1.55,0,0,1-.19,1.46,1.59,1.59,0,0,0-.36.69,2.67,2.67,0,0,0,0,.69,2.66,2.66,0,0,1,0,.65,1.35,1.35,0,0,1-.34.83,2.08,2.08,0,0,0-.29.63,3.94,3.94,0,0,1-.26.72,3.66,3.66,0,0,0-.25.62,1.28,1.28,0,0,0,.26.81,1.55,1.55,0,0,1,.12,1.21c-.08.25-.18.5-.27.75a1.41,1.41,0,0,1-.63.73l-.1.06a1.37,1.37,0,0,0-.63.51,1.29,1.29,0,0,0,0,.68,1.4,1.4,0,0,1-.68,1.49,1.36,1.36,0,0,0-.51.42c0,.06-.07.11-.1.16s-.25.26-.41.39a2.79,2.79,0,0,0-.48.5,4.44,4.44,0,0,1-.5.56,5.16,5.16,0,0,0-.46.49,6,6,0,0,0-.34.53,5.53,5.53,0,0,1-.44.65,3.22,3.22,0,0,1-.58.48,3.42,3.42,0,0,0-.53.41,1.65,1.65,0,0,0-.32.65c0,.11-.06.18-.08.24a1.25,1.25,0,0,1-.31.47,1.71,1.71,0,0,0-.3.57,1.42,1.42,0,0,1-1.28.91,1.39,1.39,0,0,0-.7.15c-.14.1-.28.2-.41.31s-.49.36-.74.51a1.73,1.73,0,0,0-.45.48,1.4,1.4,0,0,1-1.16.61,1.75,1.75,0,0,1-.32,0A2.32,2.32,0,0,0,38,78a.62.62,0,0,0-.25,0,1.46,1.46,0,0,0-.52.55l-.09.14a1.59,1.59,0,0,1-.56.47,4.23,4.23,0,0,0-.49.29l-.18.11a1.36,1.36,0,0,1-.75.22,1.43,1.43,0,0,1-.5-.09,2,2,0,0,0-.68-.19l-.15,0a2.16,2.16,0,0,0-.61.34,3,3,0,0,1-.45.27,1.12,1.12,0,0,1-.31.1c-.13,0-.42.14-.55.19a3.45,3.45,0,0,1-.73.23,5.82,5.82,0,0,1-.73.07,6.55,6.55,0,0,0-.7,0h-.17l-.2,0-.3-.06a2.87,2.87,0,0,0-.68-.12H26.56l-.83,0h-.27a1.57,1.57,0,0,0-.73.26A1.73,1.73,0,0,1,23.89,81.18Z" style="fill:#eac38d"/><path d="M20.06,76.66a1.39,1.39,0,0,1-.89-.32l-.06,0a1.65,1.65,0,0,0-.69-.41,3.36,3.36,0,0,1-.72-.24,4.5,4.5,0,0,0-.64-.23h-.15a2,2,0,0,0-.6.13,2.07,2.07,0,0,1-.57.08,1.33,1.33,0,0,1-.54-.1c-.13-.05-.27-.12-.41-.19a4,4,0,0,0-.6-.28,1.66,1.66,0,0,0-.48-.06h-.2a1.44,1.44,0,0,1-1.33-.9c-.12-.33-.23-.55-.4-.63a2.74,2.74,0,0,1-.59-.46,2.64,2.64,0,0,0-.52-.43,1.83,1.83,0,0,0-.66-.21,3.24,3.24,0,0,1-.48-.13A1.45,1.45,0,0,1,9,71.85l-.27-.29a4.89,4.89,0,0,0-.46-.45,5.34,5.34,0,0,0-.48-.35,4.94,4.94,0,0,1-.65-.5,3.63,3.63,0,0,0-.55-.39,2.55,2.55,0,0,1-.57-.4,1.8,1.8,0,0,0-.7-.43l-.23-.1a1.45,1.45,0,0,1-.59-.51c-.09-.14-.19-.32-.29-.51a5.09,5.09,0,0,0-.32-.56,6,6,0,0,1-.4-.7c-.12-.24-.21-.41-.31-.58a2.7,2.7,0,0,0-.41-.51,1.43,1.43,0,0,1-.21-1.63c.22-.4.33-.67.25-.85a3.86,3.86,0,0,0-.3-.57,2.92,2.92,0,0,1-.35-.68c-.06-.18-.24-.32-.5-.49A1.4,1.4,0,0,1,1,59.87a1.81,1.81,0,0,0,0-.65,1.52,1.52,0,0,0-.43-.62,1.4,1.4,0,0,1-.4-1,1.2,1.2,0,0,1,0-.38s0,0,0-.08a1.59,1.59,0,0,0,.14-.72,1.6,1.6,0,0,1,.11-.72A2.24,2.24,0,0,0,.7,55a1,1,0,0,1,0-.24,2.24,2.24,0,0,1,.1-.44A2.32,2.32,0,0,0,1,53.58c0-.18-.12-.35-.48-.67A1.43,1.43,0,0,1,.1,51.32a2.58,2.58,0,0,0,.19-.62,5,5,0,0,1,.17-.77,4.27,4.27,0,0,0,.13-.48,1.4,1.4,0,0,1,.4-.71l.1-.09A1.4,1.4,0,0,0,1.55,48c0-.06,0-.17-.13-.45a1.38,1.38,0,0,1-.16-1.08,1.42,1.42,0,0,1,.65-.88c.26-.15.29-.26.31-.31s.12-.39.17-.58A5.26,5.26,0,0,1,2.63,44c.07-.19,0-.43-.17-.79a1.41,1.41,0,0,1,.33-1.6,2.33,2.33,0,0,0,.34-.37,1.42,1.42,0,0,1,.7-.51L4.39,42l-.46-1.34a1.32,1.32,0,0,0,.7-.39,2.2,2.2,0,0,0,.22-.67A3.44,3.44,0,0,1,5,39.13a1.5,1.5,0,0,1,.44-.59l.2-.18a5.63,5.63,0,0,0,.49-.48l.33-.43c.19-.24.33-.42.48-.59a1.53,1.53,0,0,1,.46-.34l.25-.1a1.86,1.86,0,0,0,.66-.34.67.67,0,0,0,.17-.43,1.41,1.41,0,0,1,1.4-1.25h.24a.52.52,0,0,0,.33-.08,3.35,3.35,0,0,0,.49-.43,3.18,3.18,0,0,1,.59-.51,1.6,1.6,0,0,0,.48-.57,1.48,1.48,0,0,1,1.23-.71h.2A1.36,1.36,0,0,0,14,32a1.23,1.23,0,0,0,.48-.56,1.43,1.43,0,0,1,1.23-.7h.17l.4,0a1,1,0,0,0,.31,0,3.11,3.11,0,0,0,.63-.32,3.4,3.4,0,0,1,.63-.32,3.53,3.53,0,0,0,.71-.27l.42-.19a1.48,1.48,0,0,1,.51-.09,1.4,1.4,0,0,1,.49.08L19.66,31l.43-1.35a2.11,2.11,0,0,0,.63.14h.11a2.34,2.34,0,0,1,.38,0l.38,0h.69c.29,0,.57,0,.86,0h.6a3.15,3.15,0,0,1,.73.11,3.86,3.86,0,0,0,.68.11,1.4,1.4,0,0,0,.72-.34,1.75,1.75,0,0,1,.93-.33h.41c.32,0,.6,0,.87.05a1.46,1.46,0,0,1,.49.15l.15.09a2.32,2.32,0,0,0,.74.33c.31.06.6.13.9.21l.52.13H31a2.21,2.21,0,0,0,.65-.16,2,2,0,0,1,.71-.13,1.14,1.14,0,0,1,.27,0l.48.11.35.07a1.39,1.39,0,0,1,1,.8c.18.34.31.58.51.67a.54.54,0,0,0,.27,0,1.39,1.39,0,0,0,.3,0,1.1,1.1,0,0,1,.25,0,1.43,1.43,0,0,1,1.34.94.91.91,0,0,0,.32.51.85.85,0,0,0,.46.1H38a1.49,1.49,0,0,1,1.46,1.15,1,1,0,0,0,.24.55,3.07,3.07,0,0,1,.5.59,4.07,4.07,0,0,0,.41.52.88.88,0,0,0,.56.14h.43a1.56,1.56,0,0,1,1.14.49c.19.21.37.43.54.65a1.36,1.36,0,0,1,.3.77v.12a1.72,1.72,0,0,0,.16.83,1.64,1.64,0,0,0,.65.45l.16.08a1.46,1.46,0,0,1,.62.61c.17.33.33.68.49,1a1.7,1.7,0,0,1,.14.63c0,.08,0,.17,0,.26a2.29,2.29,0,0,0,0,.75,1.35,1.35,0,0,1,0,.6,1.18,1.18,0,0,1,0,.2,1.75,1.75,0,0,0,0,.81c0,.16.21.3.6.5a1.43,1.43,0,0,1,.73,1.52,1.73,1.73,0,0,0,0,.64,2.4,2.4,0,0,0,.27.65,1.42,1.42,0,0,1-.13,1.59c-.25.3-.39.52-.38.72s0,.4.07.6.06.56.07.83a4.91,4.91,0,0,0,.06.66,5.16,5.16,0,0,1,.06.79c0,.28,0,.55-.09.83s-.06.42-.08.6a3.33,3.33,0,0,1-.2.75,3.46,3.46,0,0,0-.18.65,1.55,1.55,0,0,0,.17.76l.06.13a1.36,1.36,0,0,1,.05.91c-.05.18-.1.36-.16.54s-.15.42-.2.61a1.86,1.86,0,0,0,0,.77c0,.13,0,.2,0,.28a1.31,1.31,0,0,1-.06.62c0,.14-.09.28-.13.43l-1.39-.28,1.36.39c-.08.27-.16.54-.26.79s-.23.48-.36.72l-.23.41a1.46,1.46,0,0,1-.67.63l-.11,0A1.47,1.47,0,0,0,44,64a4.78,4.78,0,0,0-.26.62,3.24,3.24,0,0,1-.31.72,7.74,7.74,0,0,1-.47.62c-.18.21-.31.37-.43.54a5.67,5.67,0,0,1-.51.59c-.18.2-.32.34-.45.5a2,2,0,0,0-.3.67l-.06.22a1.44,1.44,0,0,1-.89.88,2.29,2.29,0,0,0-.68.38l-.41.4a7,7,0,0,1-.64.61,1.43,1.43,0,0,1-.22.15l-.45.18a3.16,3.16,0,0,0-.67.3,2.29,2.29,0,0,1-.67.31,2.73,2.73,0,0,0-.61.26c-.19.11-.26.4-.36.78a1.73,1.73,0,0,1-.57.93l-.36.28-.14.13a1.42,1.42,0,0,1-.9.32,1.54,1.54,0,0,1-.42-.07,2.21,2.21,0,0,0-.59-.12.66.66,0,0,0-.21,0,5.39,5.39,0,0,0-.59.29,3.32,3.32,0,0,1-.69.33,1.53,1.53,0,0,0-.59.52,1.88,1.88,0,0,1-.82.57c-.36.1-.72.2-1.07.27a1.1,1.1,0,0,1-.31,0,1.3,1.3,0,0,1-.52-.1,2.38,2.38,0,0,0-.71-.17H27a1.6,1.6,0,0,1-.62-.13l-.15-.07a1.79,1.79,0,0,0-.7-.23.94.94,0,0,0-.59.37,1.41,1.41,0,0,1-1.05.47,1.38,1.38,0,0,1-.68-.18,1.18,1.18,0,0,0-.53-.18,1.68,1.68,0,0,0-.71.27l-.17.1a1.38,1.38,0,0,1-.66.17,4.07,4.07,0,0,0-.6.06l-.34.05Z" style="fill:#cbd872"/><path d="M36.37,53.84l-.36,0a2.73,2.73,0,0,1-1.4-.7,1.44,1.44,0,0,1-.35-.64,1.36,1.36,0,0,0-.38-.73,1.17,1.17,0,0,0-.68-.36l-.08,0a1.44,1.44,0,0,1-.72-.43,1.94,1.94,0,0,1-.33-.56,1.72,1.72,0,0,0-.41-.63l-.47-.5-.55-.59c-.25-.27-.37-.42-.48-.56a5.19,5.19,0,0,0-.49-.58c-.25-.26-.36-.41-.48-.55a5.19,5.19,0,0,0-.49-.58,2.45,2.45,0,0,0-.59-.47,2.16,2.16,0,0,1-.59-.46,3.19,3.19,0,0,1-.46-.59,3.74,3.74,0,0,0-.47-.6l-.52-.52-.54-.54a2,2,0,0,1-.4-.64c-.21-.48-.37-.61-.74-.61s-.56.19-.77.61a2.14,2.14,0,0,1-.4.61,3.06,3.06,0,0,0-.45.58,3.21,3.21,0,0,1-.45.6,2.66,2.66,0,0,1-.59.47,3.09,3.09,0,0,0-.58.48,1.91,1.91,0,0,0-.42.63,1.84,1.84,0,0,1-.42.62,2.5,2.5,0,0,0-.44.62,2.23,2.23,0,0,1-.37.53,1.47,1.47,0,0,1-.75.44,1.11,1.11,0,0,0-.72.36c-.26.26-.38.4-.51.54s-.25.28-.51.55a6.52,6.52,0,0,0-.49.57,5.5,5.5,0,0,1-.49.57,1.45,1.45,0,0,0-.38.67,1.08,1.08,0,0,1-.08.19l-.06.12a1.47,1.47,0,0,1-.38.48,1.84,1.84,0,0,1-.51.31,1.71,1.71,0,0,0-.63.43,2.21,2.21,0,0,1-1.26.64,2.49,2.49,0,0,1-.46,0,2.13,2.13,0,0,1-.92-.21,2.28,2.28,0,0,1-1-1A2.21,2.21,0,0,1,10,50.87a2.43,2.43,0,0,1,.66-1.5A1.16,1.16,0,0,0,11,48.8h0a1.53,1.53,0,0,1,.37-.7l.17-.15a3.28,3.28,0,0,1,.31-.21,3.43,3.43,0,0,0,.73-.53,3.28,3.28,0,0,0,.39-.56,4.72,4.72,0,0,1,.27-.43,1.34,1.34,0,0,1,.59-.46l.19-.08a1.81,1.81,0,0,0,.73-.39,2.55,2.55,0,0,0,.37-.62,2.16,2.16,0,0,1,.27-.52,2.09,2.09,0,0,1,.14-.17,4.67,4.67,0,0,0,.42-.53,4.43,4.43,0,0,1,.38-.49,1.46,1.46,0,0,1,.42-.32l.29-.13a1.68,1.68,0,0,0,.69-.38,2.94,2.94,0,0,0,.42-.62,3.17,3.17,0,0,1,.38-.56,2.72,2.72,0,0,1,.63-.47,2.53,2.53,0,0,0,.61-.42c.18-.19.35-.39.52-.58l.45-.5a2,2,0,0,0,.39-.78l.05-.17a1.41,1.41,0,0,1,.37-.56,3.25,3.25,0,0,1,1-.69,3.48,3.48,0,0,1,1.37-1,1.54,1.54,0,0,1,.42-.07,1.42,1.42,0,0,1,.77.23,4.57,4.57,0,0,1,.91.73l.1.12c.26.33.56.67.9,1l1,1c.16.16.33.31.5.46a7.53,7.53,0,0,1,.57.52,4,4,0,0,1,.41.5,6.76,6.76,0,0,0,.51.62,2,2,0,0,0,.62.39l.2.09a1.42,1.42,0,0,1,.72.92l-1.35.46,1.37-.36a1.77,1.77,0,0,0,.31.71,1.64,1.64,0,0,0,.68.36l.28.11a1.46,1.46,0,0,1,.53.42,4.47,4.47,0,0,1,.3.43,3.63,3.63,0,0,0,.43.58c.16.17.3.34.44.52s.35.42.51.58a3,3,0,0,0,.63.47,2.72,2.72,0,0,1,.49.34,6.59,6.59,0,0,1,.56.67,5.78,5.78,0,0,0,.42.53,3.08,3.08,0,0,0,.62.53,2,2,0,0,1,.49.4l.1.11a3.2,3.2,0,0,1,.5,1.59,1.42,1.42,0,0,1,0,.46,2.81,2.81,0,0,1-.48,1c-.13.22-.19.34-.26.47s-.12.23-.17.31a1.42,1.42,0,0,1-.73.59A2.63,2.63,0,0,1,36.37,53.84Z" style="fill:#fff"/><path d="M33.12,68.52h-.77c-.19,0-.38,0-.76,0H30.05a1.26,1.26,0,0,1-.47-.08l-.11,0-.19-.08a1.42,1.42,0,0,0-.76-.2h-.33a1.4,1.4,0,0,1-1-.37,1.45,1.45,0,0,1-.47-1c0-.27,0-.43,0-.58a4.47,4.47,0,0,1,0-.59,1.41,1.41,0,0,1,.28-.86,1.08,1.08,0,0,0,.27-.71,1.69,1.69,0,0,0-.15-.72A1.31,1.31,0,0,1,27,63a1.12,1.12,0,0,1-.05-.36,2.74,2.74,0,0,0-.42-1.38,2.48,2.48,0,0,0-.91-1,1,1,0,0,0-.3-.14,1.42,1.42,0,0,1-.18-2.64c.22-.11.42-.23.57-.32a2.63,2.63,0,0,0,.84-1.07,1.84,1.84,0,0,1,.2-.31,2,2,0,0,0,.44-1,1.22,1.22,0,0,0-.46-.78,3.33,3.33,0,0,1-.27-.29,1.53,1.53,0,0,1-.26-.6,1.34,1.34,0,0,0-.45-.79.81.81,0,0,0-.43-.1,2.59,2.59,0,0,0-.47.05,3.13,3.13,0,0,1-.49,0c-.14,0-.28,0-.41,0a4.3,4.3,0,0,0-.46,0,1,1,0,0,0-.5.12,3,3,0,0,0-1,1,3.06,3.06,0,0,0-.41,1.4,1.21,1.21,0,0,0,.44.79c.11.12.18.21.25.3a1.62,1.62,0,0,1,.1.18c0,.07.08.18.13.29.16.41.27.67.52.82s.28.18.46.27a1.42,1.42,0,0,1-.24,2.62.78.78,0,0,0-.21.09,1.92,1.92,0,0,0-.62.83,2.43,2.43,0,0,1-.14.28,2.51,2.51,0,0,0-.41,1.25c0,.35,0,.53,0,.7s0,.37,0,.73,0,.54,0,.72a6.32,6.32,0,0,0,0,.72,4.41,4.41,0,0,0,.06.72,3,3,0,0,1,.06.52,1.42,1.42,0,0,1-1.41,1.48h-.3a1.53,1.53,0,0,0-.77.19l-.22.1a1.43,1.43,0,0,1-.5.09h0a2.11,2.11,0,0,1-.8-.15,2,2,0,0,0-.77-.14H15.66a2.75,2.75,0,0,1-1.51-.29,3,3,0,0,1-1.06-1.15,3.16,3.16,0,0,1-.4-1.51,3.28,3.28,0,0,0-.06-.68,3.56,3.56,0,0,1-.06-.69,3.44,3.44,0,0,0-.06-.68,4.62,4.62,0,0,1,0-.68,1.54,1.54,0,0,1,.13-.6,1.55,1.55,0,0,0,.2-.77c0-.33,0-.5,0-.66s0-.36,0-.7a5.29,5.29,0,0,1,0-.69c0-.17,0-.34,0-.68a1.32,1.32,0,0,0-.05-.31,1.41,1.41,0,0,1,.67-1.57,1.25,1.25,0,0,0,.26-.19,3.24,3.24,0,0,0,.43-.55,3.67,3.67,0,0,1,.43-.55,3.46,3.46,0,0,0,.44-.54,3,3,0,0,1,.44-.54,1.23,1.23,0,0,1,.28-.23l.11-.07.2-.1a1.47,1.47,0,0,0,.59-.39,1,1,0,0,0,.29-.58,1.41,1.41,0,0,1,1-1.14,1.1,1.1,0,0,0,.57-.33,1.3,1.3,0,0,0,.35-.63,1.4,1.4,0,0,1,.8-.94,1.89,1.89,0,0,0,.75-.47c.25-.25.38-.36.51-.48l.5-.48c.25-.26.38-.37.51-.49a6.07,6.07,0,0,0,.51-.48,4.32,4.32,0,0,0,.36-.46,1.58,1.58,0,0,1,1.27-.7,1.21,1.21,0,0,1,.38.06l.27.09.44.15a2.82,2.82,0,0,1,1.28.79,4.66,4.66,0,0,1,.45.52,3.67,3.67,0,0,0,.45.54,1.6,1.6,0,0,0,.58.4l.21.11a2.42,2.42,0,0,1,.37.3h0a5.67,5.67,0,0,0,.5.47,5.71,5.71,0,0,1,.52.48,1.36,1.36,0,0,1,.33.57,1.42,1.42,0,0,0,.38.67,4.41,4.41,0,0,0,.51.47,5.45,5.45,0,0,1,.51.47,1.47,1.47,0,0,0,.59.39l.2.1.1.06a1.33,1.33,0,0,1,.3.23,5.09,5.09,0,0,1,.47.53c.11.13.22.27.46.52l.5.48c.14.12.27.24.51.48a2.35,2.35,0,0,1,.19.25l.09.14a2.12,2.12,0,0,1,.11.21,1.57,1.57,0,0,0,.38.6,2.2,2.2,0,0,0,.41.31,1.29,1.29,0,0,1,.67,1.29v.21c0,.12,0,.23,0,.34a2.43,2.43,0,0,0,.08.68,2.87,2.87,0,0,1,.08.68,3.36,3.36,0,0,1-.06.68,4.67,4.67,0,0,0-.05.69,4.94,4.94,0,0,0,0,.67,5.29,5.29,0,0,1,0,.69c0,.34,0,.51,0,.68s0,.36,0,.69a2,2,0,0,1-.1.68,2.46,2.46,0,0,0-.09.69,3.39,3.39,0,0,1-.41,1.56A3.16,3.16,0,0,1,34.65,68,3,3,0,0,1,33.12,68.52Z" style="fill:#fff"/><path d="M24.51.19A1.2,1.2,0,0,1,25.13,0a.56.56,0,0,1,.59.37,3.61,3.61,0,0,1,.17,1,3,3,0,0,0,0,.5A.49.49,0,0,0,26,2c0,.07.06.1.11.1A6,6,0,0,0,27,2c.52-.06.84-.1,1-.1a2.69,2.69,0,0,1,.74.14,2.58,2.58,0,0,1,.78.38.68.68,0,0,1,.34.56,2.48,2.48,0,0,1-.34,1.07,4.43,4.43,0,0,1-.8,1.16,1.26,1.26,0,0,1-.89.5.55.55,0,0,1-.4-.18.53.53,0,0,1-.19-.38,2.39,2.39,0,0,1,.37-.88,2.21,2.21,0,0,0,.27-.63c0-.13-.08-.23-.26-.32a1.19,1.19,0,0,0-.48-.13,8.22,8.22,0,0,0-1.58.23,14.43,14.43,0,0,0-2,.57,3.18,3.18,0,0,0-1.24.71,1.42,1.42,0,0,0-.32.5,6.77,6.77,0,0,0-.19.73,4.3,4.3,0,0,1-.32,1,1.59,1.59,0,0,1-.7.65.9.9,0,0,1-.47.13A.44.44,0,0,1,20,7.56a.75.75,0,0,1-.12-.43A2.25,2.25,0,0,1,20,6.31a5.85,5.85,0,0,1,.45-.84c.09-.14.22-.36.37-.65A2.51,2.51,0,0,1,21.5,4a9.91,9.91,0,0,1,1.13-.67c.2-.09.38-.19.57-.29a4.89,4.89,0,0,1,.72-.3,3.31,3.31,0,0,0,.92-.43v0l0-.35a1.51,1.51,0,0,0-.12-.7A1,1,0,0,0,24.41,1a.38.38,0,0,1-.22-.32A.53.53,0,0,1,24.51.19Zm1,5.45a2.26,2.26,0,0,1,1,.15c.18.1.27.34.27.71s-.28.68-.84,1.29S24.7,9.14,23.84,10l-.29.27A6.32,6.32,0,0,1,25.09,10a1.33,1.33,0,0,1,.6.1,1.74,1.74,0,0,1,.42.33,2.23,2.23,0,0,0,.54.43,7.51,7.51,0,0,0,.49-.69A5.35,5.35,0,0,1,28,9.15a1.55,1.55,0,0,1,1.06-.36h.07c.26,0,.39.08.39.23a.27.27,0,0,1-.15.25l-.2.12a7.36,7.36,0,0,0-1,1.29,4.49,4.49,0,0,0-.77,1.37c0,.16.19.38.58.66s1,.7,1.9,1.25,1.76,1.13,2.27,1.5.81.69.87.95a1.27,1.27,0,0,1,0,.41.8.8,0,0,1-.78.78,2.11,2.11,0,0,1-1-.48c-.45-.32-1.05-.78-1.82-1.38s-1.1-.84-1.42-1.07a1.88,1.88,0,0,0-.71-.39A3.16,3.16,0,0,0,27,15.33a18.18,18.18,0,0,1-.59,1.8,4.84,4.84,0,0,1-.78,1.32,1.48,1.48,0,0,1-1.15.57.82.82,0,0,1-.5-.17.54.54,0,0,1-.23-.43,8,8,0,0,1,1-1.76c.47-.77.83-1.38,1.09-1.85a2.58,2.58,0,0,0,.38-1,.48.48,0,0,0-.12-.26l-.22-.25a1.87,1.87,0,0,0-.41.47c-.15.23-.28.43-.37.59s-.16.29-.21.37l-.37.6a14.94,14.94,0,0,1-1.05,1.24A11.41,11.41,0,0,1,22,17.9a2.23,2.23,0,0,1-1.2.56.7.7,0,0,1-.52-.22.68.68,0,0,1-.23-.51c0-.13.13-.31.37-.56s.67-.63,1.25-1.15c1-.88,1.76-1.61,2.29-2.19a2.55,2.55,0,0,0,.8-1.58.39.39,0,0,0,0-.22l-.06,0c-.06,0-.16.09-.28.27s-.26.38-.4.61a12.92,12.92,0,0,1-1.34,1.86,1.89,1.89,0,0,1-1.42.7.8.8,0,0,1-.49-.16.49.49,0,0,1-.23-.43,1.2,1.2,0,0,1,.34-.77,10.65,10.65,0,0,1,1-.95c.43-.36.74-.64,1-.84a1.79,1.79,0,0,0,.44-.64,2.62,2.62,0,0,0-.57.06l-.24,0-.35,0c-.39,0-.58-.18-.58-.53a2.15,2.15,0,0,1,.62-1c.42-.47,1-1.09,1.76-1.86S24.92,7.25,25,7.13l-.57.07a4.53,4.53,0,0,0-.83.16l-.48.18a1.53,1.53,0,0,1-.56.12c-.47,0-.7-.19-.7-.57s.19-.51.58-.71a6.21,6.21,0,0,1,1.34-.48A5.39,5.39,0,0,1,25,5.72,1.71,1.71,0,0,1,25.56,5.64Z" style="fill:#6c6851"/></g></g></svg>