<svg xmlns="http://www.w3.org/2000/svg" width="31.93mm" height="21.59mm" viewBox="0 0 90.5 61.21"><title>index</title><g id="圖層_2" data-name="圖層 2"><g id="icon4"><path d="M5.47,21.59a1.39,1.39,0,0,1,.72-.22.65.65,0,0,1,.68.44A4.21,4.21,0,0,1,7.08,23a4.41,4.41,0,0,0,0,.6,1.2,1.2,0,0,0,0,.14.14.14,0,0,0,.13.11,7.69,7.69,0,0,0,1.14-.14c.61-.07,1-.11,1.13-.11a3,3,0,0,1,.87.16,3.08,3.08,0,0,1,.91.44.83.83,0,0,1,.39.66,3,3,0,0,1-.39,1.26,5.57,5.57,0,0,1-.94,1.36,1.5,1.5,0,0,1-1.05.59.69.69,0,0,1-.47-.22.64.64,0,0,1-.22-.45,3,3,0,0,1,.44-1,2.76,2.76,0,0,0,.32-.73c0-.16-.1-.28-.31-.38a1.31,1.31,0,0,0-.56-.15,9.92,9.92,0,0,0-1.86.26,15.81,15.81,0,0,0-2.3.68,3.88,3.88,0,0,0-1.46.82,1.72,1.72,0,0,0-.36.6,5.53,5.53,0,0,0-.23.85A5.57,5.57,0,0,1,2,29.53a1.94,1.94,0,0,1-.81.76,1.19,1.19,0,0,1-.55.16.52.52,0,0,1-.45-.21.84.84,0,0,1-.15-.5,2.65,2.65,0,0,1,.18-1,6.44,6.44,0,0,1,.53-1c.11-.17.25-.42.44-.76a2.86,2.86,0,0,1,.77-.93,13,13,0,0,1,1.33-.79c.23-.1.45-.22.67-.34a5.59,5.59,0,0,1,.85-.34,4.12,4.12,0,0,0,1.07-.51v0l0-.41a1.83,1.83,0,0,0-.14-.82,1.12,1.12,0,0,0-.39-.42.42.42,0,0,1-.25-.36A.62.62,0,0,1,5.47,21.59ZM6.69,28a2.59,2.59,0,0,1,1.15.18c.21.11.32.39.32.83,0,.29-.33.8-1,1.52S5.68,32.1,4.67,33.1l-.34.33a6.9,6.9,0,0,1,1.81-.28,1.54,1.54,0,0,1,.7.12,1.86,1.86,0,0,1,.49.38,2.7,2.7,0,0,0,.64.51c.14-.17.33-.44.58-.8a5.84,5.84,0,0,1,1-1.25,1.81,1.81,0,0,1,1.23-.43h.1c.3,0,.45.1.45.28a.33.33,0,0,1-.18.29,1.07,1.07,0,0,0-.23.14,8.2,8.2,0,0,0-1.18,1.52,5.44,5.44,0,0,0-.9,1.6c0,.18.22.44.68.77s1.2.82,2.23,1.48,2.06,1.31,2.67,1.75a2.55,2.55,0,0,1,1,1.11,1.79,1.79,0,0,1,0,.48.87.87,0,0,1-.27.64.88.88,0,0,1-.65.28,2.51,2.51,0,0,1-1.18-.56c-.52-.38-1.24-.92-2.14-1.62L9.59,38.58a2.38,2.38,0,0,0-.84-.46,4.1,4.1,0,0,0-.43,1.24,21,21,0,0,1-.69,2.11A5.35,5.35,0,0,1,6.71,43a1.71,1.71,0,0,1-1.35.67,1,1,0,0,1-.58-.2A.63.63,0,0,1,4.51,43a9.8,9.8,0,0,1,1.13-2.06c.55-.9,1-1.62,1.27-2.17a2.91,2.91,0,0,0,.45-1.15.56.56,0,0,0-.14-.3C7.13,37.18,7,37.08,7,37a2,2,0,0,0-.48.55c-.19.28-.33.51-.44.7s-.19.33-.25.42l-.44.71a15,15,0,0,1-1.22,1.46,12.44,12.44,0,0,1-1.68,1.53A2.56,2.56,0,0,1,1.05,43a.86.86,0,0,1-.6-.25.8.8,0,0,1-.27-.6c0-.15.15-.38.44-.67s.78-.74,1.47-1.35c1.16-1,2.05-1.88,2.68-2.56a3,3,0,0,0,.94-1.86.47.47,0,0,0,0-.25l-.07,0q-.12,0-.33.3c-.15.21-.3.45-.47.73a14.44,14.44,0,0,1-1.57,2.17,2.22,2.22,0,0,1-1.66.83A1,1,0,0,1,1,39.31a.57.57,0,0,1-.26-.5,1.33,1.33,0,0,1,.4-.9,13,13,0,0,1,1.2-1.12c.51-.42.88-.75,1.12-1a2.21,2.21,0,0,0,.51-.76,3.51,3.51,0,0,0-.66.07L3,35.17l-.4,0c-.46,0-.69-.21-.69-.62,0-.24.25-.64.74-1.2s1.17-1.29,2.06-2.19,1.24-1.31,1.35-1.44l-.68.08a4.63,4.63,0,0,0-1,.19l-.56.21a1.87,1.87,0,0,1-.65.13c-.55,0-.83-.22-.83-.66s.23-.6.69-.84a7.22,7.22,0,0,1,1.57-.56A6.21,6.21,0,0,1,6,28.09,1.94,1.94,0,0,1,6.69,28Z" style="fill:#6c6851"/><path d="M60.42,61.21a1.42,1.42,0,0,1-.81-.26,1.27,1.27,0,0,0-.64-.29H57.55a1.82,1.82,0,0,0-.63.14,1.44,1.44,0,0,1-1.54-.35,1.14,1.14,0,0,0-.57-.41H54.7a1.68,1.68,0,0,0-.62.19l-.15.07a1.49,1.49,0,0,1-.55.1h-1a1.41,1.41,0,0,1-1.18-.64c-.18-.24-.34-.44-.55-.49a1.29,1.29,0,0,0-.42-.06l-.56,0a1.34,1.34,0,0,1-.4-.06c-.23-.06-.46-.11-.7-.15a5.66,5.66,0,0,1-.74-.19,6.59,6.59,0,0,1-.65-.33l-.61-.33a1.34,1.34,0,0,1-.37-.25,1.19,1.19,0,0,1-.16-.16,2.44,2.44,0,0,0-.59-.51c-.23-.13-.45-.27-.66-.41l-.52-.34-.17-.11c-.36-.22-.68-.41-1-.64a1.63,1.63,0,0,0-.75-.17A1.66,1.66,0,0,1,41.31,55l-.19-.25c-.1-.13-.22-.29-.36-.44a1.37,1.37,0,0,1-.37-.64s0-.09,0-.11a1.54,1.54,0,0,0-.31-.73,1,1,0,0,0-.7-.2,1.42,1.42,0,0,1-1.26-1,1.68,1.68,0,0,0-.27-.59c0-.07-.1-.14-.14-.21a3.76,3.76,0,0,1-.16-.42,2.47,2.47,0,0,0-.3-.69,3.79,3.79,0,0,1-.33-.67,3.08,3.08,0,0,0-.28-.61,2.7,2.7,0,0,0-.45-.51,2.55,2.55,0,0,1-.43-.47l-.07-.11a2.9,2.9,0,0,0-.41-.53,2.51,2.51,0,0,1-.42-.52l-.05-.09a1.54,1.54,0,0,0-.55-.52l-.15-.09a1.4,1.4,0,0,1-.52-.7,4,4,0,0,1-.15-.49c-.08-.27-.14-.47-.21-.66a3.59,3.59,0,0,0-.31-.62A1.44,1.44,0,0,1,33,41.59c.28-.39.43-.63.38-.83a1.91,1.91,0,0,0-.33-.63,3.52,3.52,0,0,1-.26-.43,2.07,2.07,0,0,1-.1-.33,3,3,0,0,0-.26-.56,1.57,1.57,0,0,1-.08-1.4l0-.06a1.34,1.34,0,0,0,.25-.74,2.13,2.13,0,0,0-.23-.67,2.5,2.5,0,0,1-.19-.48,1.13,1.13,0,0,1,0-.32c0-.16,0-.35-.06-.55a4.79,4.79,0,0,1-.08-.78,1.29,1.29,0,0,0-.2-.54A1.41,1.41,0,0,1,32,31.52c.24-.23.35-.39.36-.54a.91.91,0,0,0-.22-.57,1.42,1.42,0,0,1,.16-1.77,1,1,0,0,0,.31-.49,6.74,6.74,0,0,1,.17-.75c.06-.25.11-.44.15-.63a2,2,0,0,0,0-.72c0-.12,0-.2,0-.28a1.44,1.44,0,0,1,.19-.86l.17-.24a2.55,2.55,0,0,0,.37-.65,1.54,1.54,0,0,0-.06-.76,1.44,1.44,0,0,1,.37-1.33l.13-.11a1.49,1.49,0,0,0,.41-.51,1.28,1.28,0,0,0-.09-.83,1.49,1.49,0,0,1,.17-1.28l.15-.2a5.82,5.82,0,0,0,.38-.59l.12-.19a2.71,2.71,0,0,1,.34-.35,3.57,3.57,0,0,0,.43-.44,1.42,1.42,0,0,1,.74-.5c.44-.13.68-.21.81-.39a1.34,1.34,0,0,0,.11-.77,1.58,1.58,0,0,1,.52-1.17l.14-.11a3.27,3.27,0,0,0,.54-.48,2,2,0,0,0,.31-.66,2.6,2.6,0,0,1,.18-.46,1.52,1.52,0,0,1,.26-.35,3.38,3.38,0,0,0,.3-.41,4.42,4.42,0,0,1,.48-.62A8.3,8.3,0,0,1,41,11l.4-.34a1.44,1.44,0,0,1,.52-.27l.23-.06a2,2,0,0,0,.71-.25,1.48,1.48,0,0,1,.46-.21l.25-.05a1.9,1.9,0,0,0,.73-.23c.08-.06.18-.17.25-.54A1.42,1.42,0,0,1,46,7.88l.27,0a.83.83,0,0,0,.35-.07A1,1,0,0,0,47,7.3a1.43,1.43,0,0,1,1.29-.82l.24,0a1.61,1.61,0,0,0,.33,0,.84.84,0,0,0,.29,0,2.41,2.41,0,0,0,.58-.4,2.59,2.59,0,0,1,.49-.36l.18-.08a2.35,2.35,0,0,0,.58-.37,2.61,2.61,0,0,1,.48-.34.92.92,0,0,1,.23-.09,4.51,4.51,0,0,0,.57-.26l.31-.15a1.34,1.34,0,0,1,1.13,0l.11,0a2,2,0,0,0,.64.18l.13,0a1.46,1.46,0,0,0,.63-.48L55.27,4a1.46,1.46,0,0,1,1.3-.32,2.41,2.41,0,0,0,.59.09h.11a1.92,1.92,0,0,1,.59.09L58,4a2,2,0,0,0,.7.21,1.34,1.34,0,0,0,.74-.37,1.42,1.42,0,0,1,.91-.33,1.65,1.65,0,0,1,.57.11,1.91,1.91,0,0,0,.69.18,4.06,4.06,0,0,1,.75.09,4.54,4.54,0,0,0,.7.1,1.29,1.29,0,0,0,.62-.23,1.48,1.48,0,0,1,.72-.2,1.4,1.4,0,0,1,.93.35,1.16,1.16,0,0,0,.58.33,2.53,2.53,0,0,1,.7.2,4.18,4.18,0,0,0,.69.2h0a.91.91,0,0,0,.49-.16,1.42,1.42,0,0,1,1.88.36.83.83,0,0,0,.4.34h.1a1.27,1.27,0,0,0,.6-.26,1.42,1.42,0,0,1,.76-.22,1.4,1.4,0,0,1,1,.41,1.38,1.38,0,0,0,.47.33,3.05,3.05,0,0,0,.68.15l.35.06a1.41,1.41,0,0,1,.88.56l.07.1a1.66,1.66,0,0,0,.54.57.49.49,0,0,0,.25,0,1.29,1.29,0,0,0,.29,0l.28,0a1.41,1.41,0,0,1,1.35,1c.11.33.21.43.29.48a.89.89,0,0,0,.51.12,1.42,1.42,0,0,1,1.38,1.24c0,.39.14.51.22.58a4.07,4.07,0,0,0,.55.37,4.1,4.1,0,0,1,.63.45c.23.22.45.44.66.68l.33.36a1.53,1.53,0,0,0,.68.31l.19.06a1.41,1.41,0,0,1,.59.37,3.47,3.47,0,0,0,.44.38,3.11,3.11,0,0,1,.58.55,5.47,5.47,0,0,0,.47.5l.16.16a1.43,1.43,0,0,1,.38,1.29,1.34,1.34,0,0,0,0,.87,1.14,1.14,0,0,0,.59.42,1.41,1.41,0,0,1,.83,1.36,1.53,1.53,0,0,0,.07.69,1.43,1.43,0,0,1,.12.45v.22a2.51,2.51,0,0,0,.1.78c.08.21.35.35.72.51a1.64,1.64,0,0,1,.83.85s.23.58.27.71a1.4,1.4,0,0,1-.07,1.1c-.21.41-.33.66-.28.88a1.71,1.71,0,0,0,.37.65,1.83,1.83,0,0,1,.18.24,1.39,1.39,0,0,1,.21.52c0,.2.1.39.16.59a4.11,4.11,0,0,1,.19.77,2.86,2.86,0,0,1,0,.76,3,3,0,0,0,0,.72,2.49,2.49,0,0,0,.18.7,2.94,2.94,0,0,1,.18.6,1.09,1.09,0,0,1,0,.18,5.73,5.73,0,0,0,.1.67,1.49,1.49,0,0,1-.56,1.49c-.35.26-.63.47-.64.69s0,.2.27.52a1.42,1.42,0,0,1-.07,2,.74.74,0,0,0-.26.4,1.57,1.57,0,0,0,.14.74A1.43,1.43,0,0,1,89,38.22a1.54,1.54,0,0,0-.44.62,2.9,2.9,0,0,1-.3.7,5,5,0,0,0-.28.63,1.53,1.53,0,0,0,0,.76,1.51,1.51,0,0,1-.4,1.38,2.05,2.05,0,0,0-.49.61.68.68,0,0,0,0,.47,1.42,1.42,0,0,1-1,1.73c-.39.12-.45.23-.48.29-.12.22-.25.43-.39.64s-.27.39-.37.56a3,3,0,0,0-.26.65,2.92,2.92,0,0,1-.26.65,2,2,0,0,0-.26.74,3.72,3.72,0,0,1-.08.37,1.41,1.41,0,0,1-.19.39,1.53,1.53,0,0,0-.2.69,1.42,1.42,0,0,1-1,1.16,1.49,1.49,0,0,0-.68.33,2.77,2.77,0,0,0-.4.55,3.08,3.08,0,0,1-.48.63,2.36,2.36,0,0,0-.39.61,1.66,1.66,0,0,1-1.15.9,1.69,1.69,0,0,0-.81.23,3,3,0,0,0-.47.52,3.44,3.44,0,0,1-.46.51,1.49,1.49,0,0,1-.83.31,2,2,0,0,0-.63.21,3.08,3.08,0,0,1-.7.3,3.29,3.29,0,0,0-.61.26c-.19.1-.28.37-.4.74a1.54,1.54,0,0,1-.77.92l-.71.32a1.39,1.39,0,0,1-.57.12,1.41,1.41,0,0,1-.45-.07,2.27,2.27,0,0,0-.63-.14.65.65,0,0,0-.21,0,1.23,1.23,0,0,0-.47.47,1.42,1.42,0,0,1-1.18.63,1.39,1.39,0,0,1-.35,0,1.75,1.75,0,0,0-.44-.07.64.64,0,0,0-.2,0l-.13,0-.26,0h-.61a1.74,1.74,0,0,0-.43,0,4.35,4.35,0,0,1-.75.07,4.91,4.91,0,0,0-.65.06,4.17,4.17,0,0,0-.63.18,4.67,4.67,0,0,1-.73.19l-.14,0h-.13c-.2,0-.33,0-.46,0l-.47,0h-.22a1.89,1.89,0,0,0-.66.31l-.23.14a1.56,1.56,0,0,1-.5.17,1.39,1.39,0,0,0-.59.26A1.38,1.38,0,0,1,60.42,61.21Z" style="fill:#eac38d"/><path d="M52.24,55.53a1.4,1.4,0,0,1-1-.45l1-1-1.06.94a1.44,1.44,0,0,0-.67-.5,4.92,4.92,0,0,0-.67,0,5,5,0,0,1-.79-.07l-.13,0a2.21,2.21,0,0,0-.65.16l-.18.07a1.33,1.33,0,0,1-.45.07,1.24,1.24,0,0,1-.33,0c-.44-.12-.81-.22-1.16-.33A1.33,1.33,0,0,1,45.6,54l-.18-.19a2.07,2.07,0,0,0-.56-.49,1.29,1.29,0,0,1-.5-.43l-.1-.14a1.6,1.6,0,0,0-.56-.59.46.46,0,0,0-.21,0,1.56,1.56,0,0,0-.47.09,1.45,1.45,0,0,1-.41.06,1.41,1.41,0,0,1-1.22-.71,1.17,1.17,0,0,0-.39-.45,1.5,1.5,0,0,0-.76-.15L40,51a1.47,1.47,0,0,1-.64-.21,3.87,3.87,0,0,0-.54-.27l-.33-.15a1.45,1.45,0,0,1-.71-.81s0-.09,0-.1a1.84,1.84,0,0,0-.36-.73,3.14,3.14,0,0,1-.49-.6,4.62,4.62,0,0,0-.41-.55,1.67,1.67,0,0,0-.7-.32l-.12,0a1.4,1.4,0,0,1-.8-.59c-.07-.1-.14-.23-.22-.37a5.25,5.25,0,0,0-.37-.6,2,2,0,0,0-.54-.43,1.42,1.42,0,0,1-.64-1.49,1.2,1.2,0,0,0,0-.78,2.52,2.52,0,0,1-.25-.7,3.51,3.51,0,0,0-.22-.67,2.16,2.16,0,0,0-.46-.54,4,4,0,0,1-.36-.38,1.43,1.43,0,0,1-.21-.43c0-.06-.07-.28-.13-.52a4.55,4.55,0,0,0-.17-.66,6.11,6.11,0,0,0-.27-.58,5.37,5.37,0,0,1-.31-.74,3.26,3.26,0,0,0-.31-.62,2.77,2.77,0,0,1-.32-.66,1.87,1.87,0,0,0-.41-.67,2.08,2.08,0,0,1-.18-.21,1.52,1.52,0,0,1-.28-.68c0-.16,0-.37,0-.59a3.78,3.78,0,0,0-.05-.67,6.32,6.32,0,0,1-.06-.76c0-.29,0-.5-.05-.7a3.67,3.67,0,0,0-.18-.67,1.4,1.4,0,0,1,.44-1.55c.37-.31.57-.52.57-.72a5,5,0,0,0-.08-.66,3.84,3.84,0,0,1-.07-.76,1.23,1.23,0,0,0-.31-.67,1.42,1.42,0,0,1-.07-1.58,1.59,1.59,0,0,0,.28-.63,1.55,1.55,0,0,0-.21-.75,1.41,1.41,0,0,1,.15-1.44,1.83,1.83,0,0,0,.39-.68,1.46,1.46,0,0,1,.23-.51l.13-.17a2.23,2.23,0,0,0,.33-.63,2.33,2.33,0,0,1,.11-.28l.21-.34a2.44,2.44,0,0,0,.37-.66c.06-.18,0-.43-.27-.8A1.44,1.44,0,0,1,31.18,17a2.41,2.41,0,0,0,.38-.56,3.64,3.64,0,0,1,.36-.63c.13-.2.22-.34.3-.48a1.41,1.41,0,0,1,.59-.57l.12-.06a1.47,1.47,0,0,0,.63-.47s.08-.15,0-.48a1.41,1.41,0,0,1,1-1.74c.3-.08.37-.17.4-.22a5.69,5.69,0,0,0,.33-.52,5.55,5.55,0,0,1,.45-.67c.12-.15.12-.41.06-.81a1.44,1.44,0,0,1,.76-1.45,2.64,2.64,0,0,0,.46-.27,1.36,1.36,0,0,1,.77-.3H38a1.38,1.38,0,0,0,.8-.19,2.19,2.19,0,0,0,.4-.59,2.45,2.45,0,0,1,.27-.43,1.49,1.49,0,0,1,.42-.37L40.27,6a5.45,5.45,0,0,0,.58-.33l.43-.33.62-.45a1.67,1.67,0,0,1,.52-.21l.25,0a2,2,0,0,0,.75-.17s.15-.09.27-.4A1.41,1.41,0,0,1,45,3.17a1.59,1.59,0,0,1,.43.06,1,1,0,0,0,.31.06.47.47,0,0,0,.17,0,4.61,4.61,0,0,0,.58-.33,3.43,3.43,0,0,1,.64-.37,1.66,1.66,0,0,0,.59-.47,1.44,1.44,0,0,1,1.08-.49l.23,0a3.27,3.27,0,0,0,.56.07l.23,0a1.14,1.14,0,0,0,.55-.47A1.44,1.44,0,0,1,51.5.67a1.58,1.58,0,0,1,.38,0,1.82,1.82,0,0,0,.54.1h.14a2.7,2.7,0,0,0,.66-.22,2.79,2.79,0,0,1,.64-.23,3.7,3.7,0,0,0,.75-.19L55,0a1.47,1.47,0,0,1,.36,0,1.38,1.38,0,0,1,.56.12l.14.06a1.76,1.76,0,0,0,.73.23,4.48,4.48,0,0,1,.74.06,3.67,3.67,0,0,0,.7.08l.81,0,.61,0a3.08,3.08,0,0,1,.73.18,3.55,3.55,0,0,0,.66.17h0a1.52,1.52,0,0,0,.74-.28,1.67,1.67,0,0,1,.85-.26h.13l.37,0c.3,0,.57.06.83.11a1.36,1.36,0,0,1,.6.27l.09.06a2.3,2.3,0,0,0,.64.33,8.7,8.7,0,0,1,.87.26l.49.16.17,0a2.06,2.06,0,0,0,.61-.14,2.08,2.08,0,0,1,.63-.1,1.23,1.23,0,0,1,.35.05l.47.12.31.07a1.42,1.42,0,0,1,1,.85c.16.34.28.58.48.68a.58.58,0,0,0,.28.06,1.09,1.09,0,0,0,.26,0h.23a1.41,1.41,0,0,1,1.34,1c.11.34.21.44.3.49a.84.84,0,0,0,.46.1h.34l.22,0a1.43,1.43,0,0,1,.77.24l.36.22a5.87,5.87,0,0,1,.69.46,1.5,1.5,0,0,1,.44.64,2.68,2.68,0,0,0,.34.56,1.37,1.37,0,0,1,.32.56l0,.17a1.68,1.68,0,0,0,.3.73,1.53,1.53,0,0,0,.69.3,1.43,1.43,0,0,1,1,1,2,2,0,0,0,.26.68,3,3,0,0,1,.36.68,3.63,3.63,0,0,0,.3.59,1.19,1.19,0,0,0,.51.37,1.42,1.42,0,0,1,.8,1.47,1.24,1.24,0,0,0,0,.64,2.66,2.66,0,0,1,.22.72,3.58,3.58,0,0,0,.18.64c0,.09.11.19.39.33a1.42,1.42,0,0,1,.68,1.8.68.68,0,0,0-.07.49c0,.13.15.26.56.46a1.43,1.43,0,0,1,.75,1.6,1.42,1.42,0,0,0,0,.55,4.32,4.32,0,0,0,.23.66c0,.08.09.21.13.31a1.49,1.49,0,0,1,0,1.06l0,.11a1.58,1.58,0,0,0-.2.73.77.77,0,0,0,.27.46,1.42,1.42,0,0,1,0,1.89c-.22.25-.25.39-.25.49a1,1,0,0,0,.21.52,1.43,1.43,0,0,1-.2,1.78c-.27.26-.31.4-.32.51a3.06,3.06,0,0,1-.19.72,4.11,4.11,0,0,0-.18.65c0,.22.17.46.46.79a1.55,1.55,0,0,1,.37,1.24c-.05.31-.1.56-.15.79a1.39,1.39,0,0,1-.4.72l-.1.1a1.58,1.58,0,0,0-.5.62,1.45,1.45,0,0,0,.11.77l0,.14a1.36,1.36,0,0,1,0,.89l-.31.82-.08.2a1.35,1.35,0,0,1-.36.52l-.18.15a2.18,2.18,0,0,0-.5.52,1.36,1.36,0,0,1-.42.47l-.15.1a1.76,1.76,0,0,0-.58.52c-.08.15-.06.36.08.75a1.42,1.42,0,0,1-.53,1.61,1.91,1.91,0,0,0-.44.41,2.08,2.08,0,0,0-.22.62,1.44,1.44,0,0,1-1.2,1.08c-.36.05-.6.1-.72.25s-.24.32-.35.48-.33.46-.5.65a3.92,3.92,0,0,0-.39.52,5.15,5.15,0,0,1-.47.6c-.2.19-.41.37-.61.54s-.33.27-.46.39a2.8,2.8,0,0,1-.64.4,3.62,3.62,0,0,0-.57.35,1.44,1.44,0,0,0-.36.67,1.82,1.82,0,0,1-.63.84c-.14.09-.29.17-.44.25l-.59.34a1.82,1.82,0,0,0-.49.59l-.16.25a1.46,1.46,0,0,1-.45.41l-.44.26a7.82,7.82,0,0,1-.77.44,5,5,0,0,1-.71.27l-.48.17a1.41,1.41,0,0,1-.49.09,1.44,1.44,0,0,1-.51-.09,2.1,2.1,0,0,0-.68-.16.54.54,0,0,0-.19,0,4.33,4.33,0,0,0-.61.3,4.28,4.28,0,0,1-.72.34,5.62,5.62,0,0,1-.71.16,6.63,6.63,0,0,0-.71.15,5.86,5.86,0,0,1-.75.13l-.68.11a1.92,1.92,0,0,0-.66.35l-.18.13a1.46,1.46,0,0,1-1.2.17,2.94,2.94,0,0,0-.69-.12h-.12l-.62.1c-.32,0-.57.09-.83.11h-.21a4.31,4.31,0,0,1-.55-.11,2.55,2.55,0,0,0-.67-.12,3,3,0,0,1-.78-.11,3.3,3.3,0,0,0-.69-.11c-.22,0-.44.19-.74.48l-.07.07a1.43,1.43,0,0,1-.91.4,4.13,4.13,0,0,0-.49.07l-.21,0Z" style="fill:#cbd872"/><path d="M43.25,28.76H43a2.68,2.68,0,0,0-.41,0H42.2a1.43,1.43,0,0,1-.91-.44,4.77,4.77,0,0,1-.58-.81,3.11,3.11,0,0,1-.42-1.35,3.37,3.37,0,0,1,.25-1.38,1.32,1.32,0,0,1,.15-.29,2.84,2.84,0,0,1,.49-.55l.22-.22a1.09,1.09,0,0,0,.31-.54,1.47,1.47,0,0,1,.44-.76l.11-.11a2.68,2.68,0,0,1,.33-.22,3.81,3.81,0,0,0,.74-.54,3.12,3.12,0,0,0,.39-.56c.09-.16.2-.33.28-.45a1.43,1.43,0,0,1,.58-.45l.2-.08a1.94,1.94,0,0,0,.73-.39,2.27,2.27,0,0,0,.37-.62,2.11,2.11,0,0,1,.28-.53,1,1,0,0,1,.13-.16,4.85,4.85,0,0,0,.43-.54c.15-.21.26-.35.38-.49a1.59,1.59,0,0,1,.43-.33,1.69,1.69,0,0,1,.27-.11,2.06,2.06,0,0,0,.71-.39,2.9,2.9,0,0,0,.41-.62,3.36,3.36,0,0,1,.42-.61,2.85,2.85,0,0,1,.6-.43,2.64,2.64,0,0,0,.61-.43c.18-.18.34-.37.51-.56s.33-.38.47-.52a1.8,1.8,0,0,0,.35-.72L52,12.3a1.42,1.42,0,0,1,.55-.68l.33-.2a2.54,2.54,0,0,0,.59-.41,3.12,3.12,0,0,0,.47-.71,3,3,0,0,1,.24-.42,1.07,1.07,0,0,1,.14-.16,3.69,3.69,0,0,1,1.13-.8,2.76,2.76,0,0,1,1-.6,2.69,2.69,0,0,1,1.09-.24h.22a2.27,2.27,0,0,1,.86.12,1.24,1.24,0,0,1,.34.18,4.25,4.25,0,0,1,.47.45l.13.13a3,3,0,0,1,1,.6,1.5,1.5,0,0,1,.44.71l0,.11a1.77,1.77,0,0,0,.35.79,1.65,1.65,0,0,0,.63.34,2.73,2.73,0,0,1,.36.14,1.48,1.48,0,0,1,.5.4l.28.41a3.76,3.76,0,0,0,.45.62c.15.15.29.32.43.49s.34.43.52.61a3.12,3.12,0,0,0,.58.43,2.91,2.91,0,0,1,.6.44,4.06,4.06,0,0,1,.42.51,6.31,6.31,0,0,0,.5.63,4.22,4.22,0,0,0,.56.47,4.43,4.43,0,0,1,.57.48,3.21,3.21,0,0,1,.44.61,3,3,0,0,0,.42.59A2.58,2.58,0,0,1,69,19a2.61,2.61,0,0,0,.41.61,2.52,2.52,0,0,0,.64.44,3.22,3.22,0,0,1,.49.31,1.14,1.14,0,0,1,.11.11c.17.18.36.36.54.53l.49.48c.2.21.41.4.6.58l.35.34a1.43,1.43,0,0,1,.5.84.92.92,0,0,0,.29.59,1.84,1.84,0,0,0,.43.3,1.42,1.42,0,0,1,.7,1.51c0,.22-.07.37-.09.51a2.81,2.81,0,0,1-.42,1.27,2.78,2.78,0,0,1-.93.85,2.44,2.44,0,0,1-1.17.35l-.34.06-.28.05h-.18a1.4,1.4,0,0,1-1-.37c-.09-.08-.23-.23-.34-.34l-.16-.17c-.23-.25-.37-.37-.49-.5s-.28-.26-.53-.52a4.35,4.35,0,0,1-.46-.57,3.22,3.22,0,0,0-.46-.57,4.73,4.73,0,0,0-.53-.49,5,5,0,0,1-.54-.5,3,3,0,0,0-.56-.47,2.61,2.61,0,0,1-.56-.47,2.39,2.39,0,0,1-.44-.58,2.82,2.82,0,0,0-.44-.6,1.81,1.81,0,0,0-.61-.43,1.81,1.81,0,0,1-.6-.44,2.46,2.46,0,0,0-.58-.45,2.3,2.3,0,0,1-.48-.35,1.42,1.42,0,0,1-.42-.8,1.12,1.12,0,0,0-.32-.71l-.51-.52-.52-.51a4.17,4.17,0,0,0-.53-.5,5,5,0,0,1-.54-.5,1.35,1.35,0,0,0-.28-.23,1.43,1.43,0,0,1-1.24-1s0-.13-.05-.18,0-.11,0-.14c-.11-.59-.3-.59-.53-.59-.42,0-.55.16-.72.5a2.2,2.2,0,0,1-.36.54l-1,1.06c-.26.26-.4.38-.54.5a4.73,4.73,0,0,0-.53.49c-.25.27-.38.4-.5.54l-.49.53-1,1.06a1.55,1.55,0,0,0-.39.62,2.72,2.72,0,0,1-.11.25,1.61,1.61,0,0,1-.21.3l-.1.1a1.25,1.25,0,0,1-.56.37,1.56,1.56,0,0,0-.69.42,1.63,1.63,0,0,0-.39.63,1.47,1.47,0,0,1-.1.22l-.09.15a1.39,1.39,0,0,1-.51.51l-.12.07a1.24,1.24,0,0,1-.2.1,1.39,1.39,0,0,0-.63.41,6.74,6.74,0,0,0-.48.54c-.12.14-.24.29-.49.55a1.72,1.72,0,0,0-.41.63,1.71,1.71,0,0,1-.41.63l-.47.48-.56.56-.12.12a2.77,2.77,0,0,1-.88.42l-.17.06A2.9,2.9,0,0,1,43.25,28.76Z" style="fill:#fff"/><path d="M65,46.28a1.41,1.41,0,0,1-.84-.28,1.08,1.08,0,0,0-.71-.27,1.58,1.58,0,0,0-.72.15A1.79,1.79,0,0,1,62,46h-.25a1.43,1.43,0,0,1-1.42-1.38v-.11a1.17,1.17,0,0,1,0-.32l0-.14a1.72,1.72,0,0,1,.07-.21,1.55,1.55,0,0,0,.14-.67,2.05,2.05,0,0,0-.11-.68,1.75,1.75,0,0,1-.11-.67,5,5,0,0,1,0-.68,3.49,3.49,0,0,0,0-.67c0-.33,0-.5,0-.67s0-.35,0-.69a3,3,0,0,0-.34-1.52,2.88,2.88,0,0,0-1.14-1,3.88,3.88,0,0,1-.33-.23A3.73,3.73,0,0,0,58,36a1.4,1.4,0,0,1-.56-.49,1.53,1.53,0,0,1-.64.51,4.54,4.54,0,0,0-.85.45l-.3.17a2.63,2.63,0,0,0-1,.86,2,2,0,0,0-.08,1.15c0,.23,0,.39,0,.54a1.27,1.27,0,0,1,0,.34l0,.13a1.72,1.72,0,0,1-.07.21,1.55,1.55,0,0,0-.14.67c0,.33,0,.49,0,.66s0,.35,0,.69a3,3,0,0,0,.07.67,3,3,0,0,1,.07.68c0,.34,0,.5,0,.67s0,.36,0,.68v.25a1.4,1.4,0,0,1-.55,1.13,1.44,1.44,0,0,1-.86.29,1.2,1.2,0,0,1-.38-.05l-.13,0-.19-.07a1.47,1.47,0,0,0-.72-.17h-.72c-.18,0-.36,0-.72,0s-.53,0-.7,0a6.24,6.24,0,0,0-.74,0A1.17,1.17,0,0,0,48,46a1.44,1.44,0,0,1-1.51,0l-.09-.06a3.09,3.09,0,0,0-.49-.3,4,4,0,0,0-.52-.16l-.19,0a1.41,1.41,0,0,1-1-1l-.07-.23a3.38,3.38,0,0,0-.15-.45c0-.13-.11-.25-.17-.38s-.14-.29-.19-.42a1.46,1.46,0,0,1,.14-1.3A1,1,0,0,0,44,41a1.19,1.19,0,0,0-.17-.66,1.4,1.4,0,0,1-.15-.6,3.23,3.23,0,0,0-.09-.74,4.19,4.19,0,0,1-.06-.52,1.4,1.4,0,0,1,.23-.82,1.08,1.08,0,0,0,.21-.66,1.75,1.75,0,0,0-.12-.67.83.83,0,0,1-.06-.21l0-.17a1.44,1.44,0,0,1,0-.62l0-.12a1.29,1.29,0,0,1,.07-.21,1.42,1.42,0,0,0,.14-.67A3.41,3.41,0,0,1,44.17,33a3.29,3.29,0,0,1,.75-1.12,3.47,3.47,0,0,0,.46-.58,3.17,3.17,0,0,1,.46-.57,3.18,3.18,0,0,0,.46-.58,3.85,3.85,0,0,1,.47-.57l.12-.11a1.81,1.81,0,0,1,.48-.3,1.65,1.65,0,0,0,.64-.43,1.1,1.1,0,0,0,.32-.66,1.42,1.42,0,0,1,1-1.14,1.13,1.13,0,0,0,.64-.37,1.31,1.31,0,0,0,.37-.66,1.53,1.53,0,0,1,.18-.39l.08-.11a1.46,1.46,0,0,1,.66-.54,1.67,1.67,0,0,0,.72-.44,6.8,6.8,0,0,1,.52-.5l.54-.52a7.1,7.1,0,0,1,.53-.51c.14-.12.28-.25.54-.51a1.22,1.22,0,0,0,.34-.66,1.41,1.41,0,0,1,1-1.05l.19-.05a3.34,3.34,0,0,0,.52-.15,3.06,3.06,0,0,1,1.31-.25,2.94,2.94,0,0,1,1.2.32,4.52,4.52,0,0,0,.5.18,2.79,2.79,0,0,1,.43.13,1.57,1.57,0,0,1,.45.31c.23.23.36.34.49.46a4.16,4.16,0,0,1,.54.5,1.32,1.32,0,0,1,.26.36l0,.1a1.07,1.07,0,0,1,.07.19,1.59,1.59,0,0,0,.38.65c.26.26.4.37.54.49a6.65,6.65,0,0,1,.54.51,1.7,1.7,0,0,0,.63.42,1.13,1.13,0,0,1,.25.12,1.66,1.66,0,0,1,.3.22,7.31,7.31,0,0,1,.55.61c.13.15.24.3.5.56a6.5,6.5,0,0,0,.53.5l.53.51a2,2,0,0,1,.41.63,1.62,1.62,0,0,0,.41.62,1.36,1.36,0,0,0,.65.4,1.29,1.29,0,0,1,.44.25,2.23,2.23,0,0,1,.65.74,2.56,2.56,0,0,0,.45.59,3,3,0,0,0,.57.48,2.9,2.9,0,0,1,.58.47,4,4,0,0,1,.72,1.32,3.91,3.91,0,0,1,.37,1.46c0,.33,0,.5,0,.66s0,.35,0,.67a2.25,2.25,0,0,1-.1.67,2,2,0,0,0-.1.67c0,.33,0,.5,0,.66v.67c0,.33,0,.5,0,.67s0,.33,0,.66a4.46,4.46,0,0,0,0,.67,3.49,3.49,0,0,1,0,.67c0,.34,0,.5,0,.67s0,.34,0,.67a4.26,4.26,0,0,1-.15,1.15,1.43,1.43,0,0,1-.56.78l-.13.08a2.21,2.21,0,0,0-.46.35,2.32,2.32,0,0,0-.31.44l-.11.17a1.53,1.53,0,0,1-.72.56,3.77,3.77,0,0,1-1.17.19,3,3,0,0,0-.72.07,3.43,3.43,0,0,1-.72.07c-.36,0-.54,0-.72,0l-.58,0ZM56.58,27.11a1.21,1.21,0,0,0-.69.17,3.33,3.33,0,0,0-1.18,1.18,3.68,3.68,0,0,0-.47,1.63,1.55,1.55,0,0,0,.49,1,3.21,3.21,0,0,1,.32.45,3.86,3.86,0,0,1,.2.41,1.89,1.89,0,0,0,.65.95,5,5,0,0,0,.87.45,1.46,1.46,0,0,1,.68.54,1.39,1.39,0,0,1,.69-.52,4.65,4.65,0,0,0,.92-.47,3.11,3.11,0,0,0,1-1.25c.06-.11.13-.22.2-.33a2.4,2.4,0,0,0,.5-1.2,1.58,1.58,0,0,0-.51-.95,3.11,3.11,0,0,1-.33-.42,2.25,2.25,0,0,1-.23-.52,1.72,1.72,0,0,0-.59-1,1.06,1.06,0,0,0-.61-.15,4.38,4.38,0,0,0-.5,0c-.2,0-.36,0-.52,0l-.41,0Z" style="fill:#fff"/></g></g></svg>