<svg xmlns="http://www.w3.org/2000/svg" width="7.05mm" height="16.24mm" viewBox="0 0 20 46.02"><title>info</title><g id="圖層_2" data-name="圖層 2"><g id="圖層_1-2" data-name="圖層 1"><path d="M3,39.22a3.68,3.68,0,0,1-.65.37,1.77,1.77,0,0,1-.53.16.32.32,0,0,1-.21-.08.22.22,0,0,1-.1-.19.21.21,0,0,1,.08-.17.68.68,0,0,1,.21-.12L2,39.11,2.3,39a5.83,5.83,0,0,1,.77-.34.24.24,0,0,1,.16.08.21.21,0,0,1,.07.16C3.3,39,3.21,39.08,3,39.22Zm-1.19-.64a.34.34,0,0,1-.13-.28A.37.37,0,0,1,2,37.92a1.59,1.59,0,0,1,.59-.11.68.68,0,0,1,.34.06c.07,0,.1.12.1.27a.33.33,0,0,1,0,.2.2.2,0,0,1-.13.06l-.12,0a.81.81,0,0,0-.24.11.56.56,0,0,1-.33.14A.47.47,0,0,1,1.82,38.58ZM2.55,46a.23.23,0,0,1-.09-.21.79.79,0,0,1,.19-.35l.57-.74c.14-.17.27-.34.38-.5a.7.7,0,0,0,.17-.29s0-.06-.11-.06H3.44l-.21,0a.26.26,0,0,1-.2-.1.32.32,0,0,1-.09-.21A.6.6,0,0,1,3,43.3a4.71,4.71,0,0,0,.23-1.17c.08-.53.14-.92.2-1.17s.14-.39.25-.43l.16-.06a2.18,2.18,0,0,1,.51-.21l.2-.06a.63.63,0,0,1,.19,0,.52.52,0,0,1,.48.24,3.21,3.21,0,0,1,.15,1c0,.54.05,1,.05,1.3a3.13,3.13,0,0,1-.14.8l.67.42a3.62,3.62,0,0,0,.38.27,2,2,0,0,1,.38.36,4,4,0,0,1,.41.53,1,1,0,0,1,.17.44.34.34,0,0,1-.1.21.29.29,0,0,1-.2.12.78.78,0,0,1-.41-.22q-.25-.23-.66-.63c-.33-.33-.6-.58-.79-.74A.82.82,0,0,0,4.67,44a.16.16,0,0,0-.13.08l-.06.09a12,12,0,0,1-.87,1.21c-.35.44-.62.66-.8.66A.57.57,0,0,1,2.55,46Zm1.1-5.87a.25.25,0,0,1,0-.17,1.47,1.47,0,0,1,.29-.54,7.51,7.51,0,0,1,.61-.76q.33-.36.45-.36a.09.09,0,0,1,.08,0,.3.3,0,0,1,0,.1,1,1,0,0,1-.1.35.81.81,0,0,0-.09.27c0,.06,0,.08.13.08a5.82,5.82,0,0,0,.61,0,5.37,5.37,0,0,1,.6,0q1,0,1,.39a.46.46,0,0,1-.06.23.23.23,0,0,1-.19.1l-.26,0-.44-.07-.58-.07a6.22,6.22,0,0,0-.94-.07.48.48,0,0,0-.31.09,1,1,0,0,0-.22.26L4,40.09a.38.38,0,0,1-.22.07C3.73,40.16,3.67,40.14,3.65,40.1ZM4.12,43a2.15,2.15,0,0,0,.49-.25.3.3,0,0,0,.13-.25l0-.06,0,0H4.44a1.08,1.08,0,0,1-.22,0c-.26,0-.43.06-.5.16a1,1,0,0,0-.11.56v0A1.72,1.72,0,0,0,4.12,43ZM4,42l.25,0h.45q.12,0,.12-.09a.3.3,0,0,0,0-.15.17.17,0,0,0-.13-.07,2.52,2.52,0,0,0-.48.07c-.19,0-.29.12-.29.2S3.89,42,4,42Zm.27-.85a1,1,0,0,1,.32-.07.18.18,0,0,0,.2-.2c0-.12,0-.18-.13-.18a1,1,0,0,0-.45.16c-.19.11-.29.22-.29.33v0A.9.9,0,0,0,4.25,41.18Zm1.11-3.09a.27.27,0,0,1-.06-.17.68.68,0,0,1,.09-.22.28.28,0,0,1,.06-.13.32.32,0,0,0,0-.17v0l-.07,0a.66.66,0,0,0-.3.07,2,2,0,0,0-.27.21,1.14,1.14,0,0,1-.11.11.19.19,0,0,1-.12,0,.58.58,0,0,1-.26-.11c-.11-.08-.17-.14-.17-.2a.43.43,0,0,1,.15-.25A1.05,1.05,0,0,0,4.49,37a.34.34,0,0,0,.06-.2.76.76,0,0,0,0-.21.67.67,0,0,1,0-.19.28.28,0,0,1,0-.16.32.32,0,0,1,.17,0,.33.33,0,0,1,.24.08A.67.67,0,0,1,5,36.5c0,.13.09.2.17.2l.21,0,.2,0a.83.83,0,0,1,.43.09.38.38,0,0,1,.14.34,1.25,1.25,0,0,1-.11.41A1.87,1.87,0,0,1,5.8,38q-.15.21-.3.21A.17.17,0,0,1,5.36,38.09Z" style="fill:#fff"/><path d="M12.73,44.73a.37.37,0,0,0-.2-.07c-.27,0-.4-.38-.4-1.13v-.4c0-.42.08-.63.25-.63s.1,0,.18.11a.47.47,0,0,1,.14.19l0,0a.46.46,0,0,0,.22-.09.71.71,0,0,1,.39-.17.41.41,0,0,1,.35.23,1,1,0,0,1,.14.47,2.14,2.14,0,0,1-.12.64,2,2,0,0,1-.35.62.62.62,0,0,1-.49.27A.43.43,0,0,1,12.73,44.73ZM12.35,40c-.07-.05-.11-.1-.11-.14s.08-.17.25-.27a3.76,3.76,0,0,1,.57-.25,1.73,1.73,0,0,1,.45-.11c.18,0,.27.07.27.19s-.09.17-.25.27A2.93,2.93,0,0,1,13,40a1.69,1.69,0,0,1-.44.11A.28.28,0,0,1,12.35,40Zm0-1.51c0-.1.06-.19.2-.27a2.13,2.13,0,0,1,.89-.26c.23,0,.35.07.35.21a.2.2,0,0,1-.14.18,2.87,2.87,0,0,1-.42.14,1.28,1.28,0,0,0-.29.1.7.7,0,0,1-.35.12C12.42,38.74,12.34,38.67,12.34,38.52Zm0,2.76a.32.32,0,0,1,.06-.22,2.76,2.76,0,0,1,.62-.29,3.46,3.46,0,0,1,.67-.22.35.35,0,0,1,.18.05.18.18,0,0,1,.08.16c0,.07-.09.16-.27.28a4.21,4.21,0,0,1-.6.31,1.64,1.64,0,0,1-.44.14Q12.35,41.49,12.35,41.28Zm.56,2.52c0,.09.06.13.09.13s.09-.09.14-.27a2.19,2.19,0,0,0,.07-.37.11.11,0,0,0-.08-.1q-.09,0-.18.15a.57.57,0,0,0-.09.26A.64.64,0,0,0,12.91,43.8Zm.33-6.23a.83.83,0,0,1-.16-.4c0-.06,0-.11,0-.13a.2.2,0,0,1,.14,0,.37.37,0,0,1,.31.16.52.52,0,0,1,.13.34.57.57,0,0,1,0,.22c0,.08-.07.12-.13.12S13.35,37.75,13.24,37.57Zm4.51,6.34a9.13,9.13,0,0,1-.52-2,13,13,0,0,1-.17-1.76,3.38,3.38,0,0,1,.1-.76,4.92,4.92,0,0,0,.09-.76.29.29,0,0,0-.06-.21.29.29,0,0,0-.19,0h-.15a.44.44,0,0,0-.25,0,.55.55,0,0,0-.1.24,4.33,4.33,0,0,0,0,.6V40a3,3,0,0,1-.05.74.41.41,0,0,0,0,.15,1.09,1.09,0,0,0,.18.32,3.09,3.09,0,0,1,.28.44.83.83,0,0,1,.11.4.29.29,0,0,1-.12.23.35.35,0,0,1-.25.1.45.45,0,0,1-.24-.09.4.4,0,0,0-.18-.1s-.07,0-.08.1-.19.42-.39.8a8.71,8.71,0,0,1-.61,1c-.21.29-.38.44-.5.44a.32.32,0,0,1-.17-.06c-.06,0-.1-.09-.1-.13a1.88,1.88,0,0,1,.18-.5l.39-.83a7.77,7.77,0,0,0,.7-1.67.46.46,0,0,0-.12-.21,3.76,3.76,0,0,0-.28-.29c-.15-.15-.26-.28-.34-.37a.4.4,0,0,1-.12-.22.12.12,0,0,1,.07-.11.28.28,0,0,1,.13,0,.38.38,0,0,1,.19.05l.18.1.09.06a.93.93,0,0,0,.36.18h0c.05-.16.12-.51.21-1a10.07,10.07,0,0,0,.13-1,.11.11,0,0,0-.12-.12h-.42c-.27,0-.41-.06-.41-.2a.24.24,0,0,1,.06-.17,1.82,1.82,0,0,1,.81-.25,7.35,7.35,0,0,1,1-.14,3.23,3.23,0,0,1,.58,0,.59.59,0,0,1,.41.44,2.55,2.55,0,0,1,.11.77c0,.23,0,.57-.05,1s0,.8,0,1a4,4,0,0,0,.06.76v0c0,.29.11.73.23,1.3s.23.87.32.88a1.91,1.91,0,0,0,.21-.54c.07-.28.16-.66.26-1.14a10.36,10.36,0,0,1,.31-1.21.48.48,0,0,1,.13-.21.29.29,0,0,1,.21-.11.25.25,0,0,1,.17.08.37.37,0,0,1,.07.2,9.38,9.38,0,0,1-.2,1.67,10.73,10.73,0,0,1-.43,1.65,1,1,0,0,1-.28.42.66.66,0,0,1-.44.17Q18.11,44.81,17.75,43.91Z" style="fill:#fff"/><path d="M11,15.45l-.48,0-.57,0a4.6,4.6,0,0,1-1.07-.16l-.39-.08a1,1,0,0,0-.25,0c-.15,0-.31,0-.46,0a2.88,2.88,0,0,1-.35,0H7.34a1.5,1.5,0,0,1-.55-.11,8.41,8.41,0,0,1-1.17-.59,1.42,1.42,0,0,1-.44-.44A3.07,3.07,0,0,1,5,13.76a2.63,2.63,0,0,0-.39-.63A7,7,0,0,1,3.71,12a3.38,3.38,0,0,0-.37-.46,2.57,2.57,0,0,1-.53-.76,2.89,2.89,0,0,1-.16-.89,4.07,4.07,0,0,0-.06-.6,1.83,1.83,0,0,0-.32-.64,1.49,1.49,0,0,1,0-1.6,2,2,0,0,0,.35-.68c0-.17,0-.35.08-.52a3.49,3.49,0,0,1,.2-.94,4.72,4.72,0,0,0,.18-.53,3.58,3.58,0,0,1,.38-.9,7.87,7.87,0,0,1,1-1.11,7.7,7.7,0,0,1,1.19-1A1.62,1.62,0,0,1,6,1.18s.25-.07.43-.1A3.72,3.72,0,0,0,7.07.9,3.48,3.48,0,0,0,7.62.57,2.82,2.82,0,0,1,8.19.23a1.39,1.39,0,0,1,.53-.1h0a3.62,3.62,0,0,1,.5,0,6.34,6.34,0,0,0,.67.06A2.47,2.47,0,0,0,10.62.1L10.83,0a1.39,1.39,0,0,1,.35,0,1.45,1.45,0,0,1,.91.33l.11.1a2.21,2.21,0,0,0,.61.43,7.7,7.7,0,0,1,1.26.73l.3.19a5.68,5.68,0,0,1,.9.69l.34.32a3.79,3.79,0,0,1,.7.74,6.08,6.08,0,0,1,.53,1.09l.11.29c.05.11.1.23.16.35a4.5,4.5,0,0,1,.37,1c0,.17.09.36.15.54a3.32,3.32,0,0,1,.19,1,7.87,7.87,0,0,1-.18,1.41l0,.12a4.25,4.25,0,0,1-.37.95,4.81,4.81,0,0,0-.22.46l0,.09a7.11,7.11,0,0,1-.62,1.27,8.08,8.08,0,0,1-.93,1.21c-.13.12-.23.25-.35.37a3.83,3.83,0,0,1-.75.72,1.38,1.38,0,0,1-.73.24l-.1,0a2.94,2.94,0,0,0-.68.16l-.45.21a4.18,4.18,0,0,1-.94.37A2.38,2.38,0,0,1,11,15.45Z" style="fill:#fff"/><path d="M9.92,30.24a3.25,3.25,0,0,1-.75-.14A3.3,3.3,0,0,0,8.5,30H7.86l-.43,0-.34,0a3.17,3.17,0,0,0-.43,0H6.15a3,3,0,0,1-.52,0,1.48,1.48,0,0,1-.5-.21l-.21-.12a2,2,0,0,0-.6-.3,4.1,4.1,0,0,1-.8-.34L3,28.72l-.25-.1a5.11,5.11,0,0,1-1-.47,4.31,4.31,0,0,0-.47-.26c-.17-.08-.29-.15-.41-.22a1.66,1.66,0,0,1-.35-.35,5.57,5.57,0,0,1-.39-.61,1.37,1.37,0,0,1,0-1.33l1.31.56L.22,25.28a2.12,2.12,0,0,0,.25-.62,4,4,0,0,1,.24-.87c.05-.15.1-.29.14-.44a1.56,1.56,0,0,0,0-.68l0-.2A1.41,1.41,0,0,1,1,21.72c.16-.32.38-.66.59-1l.19-.3a8.26,8.26,0,0,1,.64-.91,6.07,6.07,0,0,1,.75-.69l.31-.26a1.31,1.31,0,0,1,.24-.17l.4-.17a3,3,0,0,0,.64-.28,9.72,9.72,0,0,1,1.19-.67,8.6,8.6,0,0,1,1-.35l.3-.08a5.24,5.24,0,0,1,.91-.16l.42-.05a2.44,2.44,0,0,0,.6-.19,2.41,2.41,0,0,1,.5-.19,1.66,1.66,0,0,1,.32,0h0a10.45,10.45,0,0,1,1.3.12l.16,0a3.6,3.6,0,0,1,.58.25,3.77,3.77,0,0,0,.55.25l.26.07a6.36,6.36,0,0,1,1,.36,2.42,2.42,0,0,0,.63.15l.29.05a1.45,1.45,0,0,1,.78.46c.07.08.13.17.19.25a3.25,3.25,0,0,0,.43.53c.14.12.3.22.45.33a3.14,3.14,0,0,1,.65.53,3,3,0,0,1,.42.71,4,4,0,0,0,.27.5,2.76,2.76,0,0,0,.37.46,2.67,2.67,0,0,1,.46.63,8.58,8.58,0,0,1,.5,1.35,4.87,4.87,0,0,1,.15.93c0,.15,0,.31.05.46a3.31,3.31,0,0,1,0,.82,5.27,5.27,0,0,0,0,.56v.21a2.39,2.39,0,0,1,0,.38,1.44,1.44,0,0,1-.68,1.15l-.24.12-.49.28a2,2,0,0,0-.42.44,1.7,1.7,0,0,1-1.21.66l-.48,0a1.69,1.69,0,0,0-.43.05,3.37,3.37,0,0,1-.76.09,3.56,3.56,0,0,0-.65.05c-.54.1-.95.17-1.39.22a2.3,2.3,0,0,0-.65.23,2.17,2.17,0,0,1-.5.2,1.27,1.27,0,0,1-.34.05l-.47.05c-.33,0-.59.06-.84.06Z" style="fill:#fff"/></g></g></svg>