<svg xmlns="http://www.w3.org/2000/svg" width="7.48mm" height="17.32mm" viewBox="0 0 21.21 49.09"><title>know</title><g id="圖層_2" data-name="圖層 2"><g id="icon4"><path d="M2.91,45.5c0,.1-.1.26-.17.47a7.33,7.33,0,0,1-.29.73.4.4,0,0,1-.36.24.43.43,0,0,1-.32-.18v0a2.88,2.88,0,0,1,.09-.61A3.37,3.37,0,0,1,2,45.49a.42.42,0,0,0,.06-.21A.11.11,0,0,0,2,45.17a.91.91,0,0,0-.23-.07.86.86,0,0,1-.31-.1c-.08,0-.11-.13-.11-.26a.3.3,0,0,1,.16-.25,2,2,0,0,1,.6-.33A1.24,1.24,0,0,0,2.41,44a.84.84,0,0,0,.2-.24,2.21,2.21,0,0,0,.22-.5,1.2,1.2,0,0,1,.07-.19A.85.85,0,0,0,3,42.92s0,0-.09,0a.29.29,0,0,0-.21.08,1.11,1.11,0,0,0-.18.22,1.46,1.46,0,0,1-.13.19.2.2,0,0,1-.15.05.22.22,0,0,1-.2-.09.48.48,0,0,1-.06-.24,2.54,2.54,0,0,1,.12-.6,3.67,3.67,0,0,1,.3-.75q.18-.33.36-.33a.23.23,0,0,1,.2.08.68.68,0,0,1,.07.24A1.07,1.07,0,0,0,3,41.9s0,.06.11.06l.23,0,.22,0A.7.7,0,0,1,4,42a.28.28,0,0,1,.15.27.21.21,0,0,1,0,.15l-.15.1a.7.7,0,0,0-.31.25,1.19,1.19,0,0,0-.11.6c0,.05,0,.08.06.08a.83.83,0,0,0,.25-.08.67.67,0,0,1,.29-.08.45.45,0,0,1,.26.09.26.26,0,0,1,.12.22A.47.47,0,0,1,4.3,44a3.28,3.28,0,0,1-.51.39l-.17.11a1.25,1.25,0,0,0-.19.15.21.21,0,0,0-.05.12l0,.06,1.78.83.34.16a1.31,1.31,0,0,1,.42.29.55.55,0,0,1,.15.38.35.35,0,0,1-.18.34.81.81,0,0,1-.43.1,1.76,1.76,0,0,1-1-.38,13.44,13.44,0,0,1-1.2-.94,1.66,1.66,0,0,0-.27-.22Q3,45.35,2.91,45.5Zm3.42-.45c-.13,0-.22-.07-.29-.23a1.53,1.53,0,0,1-.12-.44c0-.14,0-.34,0-.6a3.15,3.15,0,0,0,0-.37c0-.24,0-.43,0-.55s.1-.28.3-.35a2,2,0,0,0,.35-.16l.37-.16a1.42,1.42,0,0,1,.39,0,.86.86,0,0,1,.39.12,1.28,1.28,0,0,1,.37.29.56.56,0,0,1,.15.35,1.23,1.23,0,0,1-.06.36.69.69,0,0,1,0,.16.71.71,0,0,0,0,.2.45.45,0,0,0,.09.24l0,.1a.41.41,0,0,1,0,.16.34.34,0,0,1-.05.17.28.28,0,0,1-.19.14,3.88,3.88,0,0,0-.66.28l-.39.16a2.91,2.91,0,0,1-.46.15h0A.41.41,0,0,1,6.33,45.05Zm.76-1.2a1.15,1.15,0,0,0,.09-.44.32.32,0,0,0-.08-.26.46.46,0,0,0-.28-.06c-.08,0-.14,0-.16.07a.48.48,0,0,0,0,.21,1.06,1.06,0,0,0,.07.27l0,.13a.88.88,0,0,1,0,.16c0,.09,0,.13.07.13A.29.29,0,0,0,7.09,43.85Z" style="fill:#fff"/><path d="M13,44.34c.15,0,.39,0,.72,0a.42.42,0,0,1,.12.14.32.32,0,0,1,.06.16c0,.15-.25.22-.76.22a.91.91,0,0,1-.38,0c-.08,0-.12-.12-.12-.26S12.75,44.34,13,44.34ZM13.63,41a.28.28,0,0,1,.22-.11.33.33,0,0,1,.3.16.71.71,0,0,1,.1.37.55.55,0,0,1,0,.16.65.65,0,0,0-.05.15,1.34,1.34,0,0,0,.1.17.37.37,0,0,1,.08.2c0,.11-.11.2-.32.26a5.43,5.43,0,0,1-.87.18l-.23,0c-.13-.11-.19-.19-.19-.25A.28.28,0,0,1,12.9,42a2.55,2.55,0,0,1,.46-.14l.26-.08a.2.2,0,0,0,.13-.09.56.56,0,0,0-.11-.21.56.56,0,0,1-.12-.34A.33.33,0,0,1,13.63,41Zm1.57.42a2.08,2.08,0,0,1,.53-.14c.25,0,.4-.08.43-.14a.88.88,0,0,0,.09-.26c0-.11,0-.18,0-.2a1.7,1.7,0,0,1,.13-.51.37.37,0,0,1,.36-.17A.33.33,0,0,1,17,40a.25.25,0,0,1,.09.19,1.23,1.23,0,0,1-.06.36,1.16,1.16,0,0,0,0,.16.88.88,0,0,0,0,.21.14.14,0,0,0,.08.13.9.9,0,0,0,.22.1l.25.13a.17.17,0,0,1,.07.14,1.34,1.34,0,0,1-.32.58l-.1.15a.29.29,0,0,0-.07.14s0,0,.1,0a2.72,2.72,0,0,0,.43-.1l.43-.13a.29.29,0,0,0,.09-.21.88.88,0,0,0,0-.18,1.4,1.4,0,0,1,.07-.33.16.16,0,0,1,.15-.11.22.22,0,0,1,.18.11.47.47,0,0,1,.07.22.76.76,0,0,0,.1.46.78.78,0,0,0,.3.22.43.43,0,0,1,.2.12.35.35,0,0,1,0,.42A.48.48,0,0,1,19,43l-.13.07a.11.11,0,0,0,0,.09,2.27,2.27,0,0,0,.16.7,2.59,2.59,0,0,1,.14.42l0,.11c0,.06,0,.09.07.09a.79.79,0,0,0,.29-.18,4.5,4.5,0,0,1,.41-.3.74.74,0,0,1,.35-.1.61.61,0,0,1,.36.14.35.35,0,0,1,.18.29.21.21,0,0,1-.06.16.16.16,0,0,1-.11,0l-.11,0a1.64,1.64,0,0,0-.54.39c-.23.22-.34.39-.34.5a1.47,1.47,0,0,0,.19.57c.12.26.3.63.55,1.1s.44.85.57,1.12a1.55,1.55,0,0,1,.19.58q0,.3-.24.3c-.36,0-.93-.87-1.7-2.61a1.6,1.6,0,0,0-.11-.25c-.06-.11-.1-.16-.12-.16a.81.81,0,0,0-.3.19,4.54,4.54,0,0,1-.42.27.66.66,0,0,1-.3.1.38.38,0,0,1-.25-.11.34.34,0,0,1-.11-.24.56.56,0,0,1,.13-.26l.37-.45a1.75,1.75,0,0,0,.44-.57c0-.15-.14-.44-.25-.86a5.39,5.39,0,0,1-.17-.76c0-.14,0-.21-.11-.21a9.93,9.93,0,0,0-1.47.22c-.76.15-1.28.26-1.57.35l-.1,0a.44.44,0,0,1-.15,0,.33.33,0,0,1-.22-.08l-.18-.12a4,4,0,0,1-1.22.2.31.31,0,0,1-.31-.31.28.28,0,0,1,.08-.19,1.8,1.8,0,0,1,.71-.3,4,4,0,0,1,.82-.18.3.3,0,0,1,.18,0,.49.49,0,0,1,.12.15.5.5,0,0,0,.13.15,1.42,1.42,0,0,0,.38-.1l.41-.17,0-.07a.68.68,0,0,0,0-.2.68.68,0,0,1,0-.2s0-.09,0-.23a.74.74,0,0,0,0-.23s0-.07,0-.08l-.12,0h-.25a.27.27,0,0,1-.16,0,.22.22,0,0,1-.06-.18A.27.27,0,0,1,15.2,41.38ZM13,46.12a3,3,0,0,1,.29-.78l.11-.17c.06-.1.11-.15.16-.15a.21.21,0,0,1,.12,0l.07.13c0,.06.05.09.1.09.48,0,.72.26.72.77a1.24,1.24,0,0,1-.41.94,1.36,1.36,0,0,1-1,.38.23.23,0,0,1-.2-.13.52.52,0,0,1-.08-.25A3.67,3.67,0,0,1,13,46.12Zm.72-.23s-.08,0-.11.11a.88.88,0,0,0,0,.2c0,.08,0,.11.06.11s.09,0,.12-.13a.52.52,0,0,0,.05-.21C13.82,45.91,13.8,45.89,13.74,45.89Zm1.67-.36c.08-.62.18-1,.32-1.08l.5-.15.52-.15a.5.5,0,0,1,.52.32,2.59,2.59,0,0,1,.11.81,4.38,4.38,0,0,1-.08,1,1.23,1.23,0,0,1-.35.64,1.9,1.9,0,0,1-.82.41,1.17,1.17,0,0,0-.33.19.66.66,0,0,1-.26.15q-.24,0-.24-.6A14.36,14.36,0,0,1,15.41,45.53Zm.94.49a.36.36,0,0,0-.27.14.54.54,0,0,0-.11.32c0,.14,0,.22.12.22a.36.36,0,0,0,.27-.16.53.53,0,0,0,.12-.31C16.48,46.09,16.44,46,16.35,46Zm.17-1.15a.59.59,0,0,0-.31.2.48.48,0,0,0-.18.31s0,.07,0,.08.05,0,.1,0a.59.59,0,0,0,.34-.09.3.3,0,0,0,.13-.28C16.63,45,16.59,44.9,16.52,44.87Zm0-3a.83.83,0,0,0-.31,0,.2.2,0,0,0-.12.21.45.45,0,0,0,.14.35,2.22,2.22,0,0,0,.58-.56A.52.52,0,0,0,16.54,41.84Zm3.37-.71a.22.22,0,0,1,.15-.1c.12,0,.26.12.42.37a4.43,4.43,0,0,1,.43.81,1.87,1.87,0,0,1,.19.64.35.35,0,0,1-.08.22.21.21,0,0,1-.18.12c-.09,0-.18-.09-.27-.29s-.22-.45-.36-.78a3,3,0,0,0-.27-.61.34.34,0,0,1-.1-.2A.41.41,0,0,1,19.91,41.13Z" style="fill:#fff"/><path d="M14.35,23.06s.08,0,.08,0c0,.23-.21.4-.43.55a2.16,2.16,0,0,1-.6.35c-.21.06-.46,0-.7.07s-.45.22-.67.25-.5-.09-.71-.08a7,7,0,0,0-.7.14,5.79,5.79,0,0,0-.69-.19c-.21,0-.44,0-.69,0s-.46,0-.69-.07a4.88,4.88,0,0,1-.7-.11,2.24,2.24,0,0,1-.62-.31A.64.64,0,0,1,7,23s0,0-.07,0a3.16,3.16,0,0,0-.61.19c-.26.15-.38.31-.38.47s.14.36.44.51a5.37,5.37,0,0,0,.69.2,7,7,0,0,0,.71.12c.23.05.44.23.7.27s.47,0,.72.06.49-.06.74-.05h.72c.25,0,.5.13.74.12l.73-.05c.25,0,.47-.19.7-.21s.53.08.75,0a5.71,5.71,0,0,0,.71-.17c.27-.08.44-.31.62-.4s.53-.25.53-.43-.19-.29-.45-.43A3.67,3.67,0,0,0,14.35,23.06Z" style="fill:#fff"/><path d="M13.62,23a.14.14,0,0,0,0-.18c-.23,0-.47-.14-.73-.18s-.49,0-.74,0l-.75-.05c-.24,0-.49,0-.75,0s-.5-.09-.75-.08-.5.05-.74.07-.5.1-.74.13-.51,0-.74.08c-.06.06,0,.08.06.16a1.42,1.42,0,0,0,.65.3,5.3,5.3,0,0,0,.74.13c.23,0,.49,0,.76,0s.49.09.76.09.53,0,.77,0l.76-.07a7.61,7.61,0,0,0,.75-.15A2.32,2.32,0,0,0,13.62,23Z" style="fill:#fff"/><path d="M18.63,29.32a1.94,1.94,0,0,1-.56.68,5.13,5.13,0,0,1-.7.24c-.21.09-.39.34-.65.41a6.55,6.55,0,0,1-.71.25c-.23.05-.5,0-.76.05s-.5,0-.75,0-.5,0-.75,0-.49.08-.74.1l-.74,0c-.25,0-.49.23-.74.24l-.76,0c-.23,0-.47-.17-.7-.17s-.48.13-.72.12-.47-.12-.7-.14-.49.07-.72,0-.47-.14-.7-.17-.49,0-.72,0-.42-.32-.64-.37l-.7-.13c-.24-.06-.47-.09-.68-.16s-.48-.12-.68-.21a3.49,3.49,0,0,1-.61-.35c-.23-.15-.34-.15-.44-.32-.29.11-.33,0-.58.18s-.19.25-.39.49c0,.17.18.23.46.42s.29.41.54.52.48.1.73.18.48,0,.73.1l.71.16c.23.06.47.09.72.14s.44.26.69.3.5-.12.75-.09.47.13.72.16.47.17.72.19.48.12.73.13.49-.14.74-.13h.74l.72,0,.71,0c.25,0,.49.07.72.06l.71,0c.25,0,.47-.19.7-.22s.5.08.73,0,.49,0,.71-.09a7,7,0,0,0,.69-.21c.24-.05.42-.32.63-.38s.47-.13.68-.21.48-.1.68-.19.53-.11.69-.22a.82.82,0,0,0,.33-.57c-.19-.23-.16-.23-.34-.45S18.91,29.4,18.63,29.32Z" style="fill:#fff"/><path d="M10.43,21.39a2.5,2.5,0,0,1-1-.19,2.54,2.54,0,0,1-.64-.37,2.59,2.59,0,0,1-.48-.56,2.84,2.84,0,0,1-.38-.65,2.62,2.62,0,0,1-.08-.75c0-.13-.07-.14,0-.22s.1,0,.23,0a6.09,6.09,0,0,0,.73.21,6.54,6.54,0,0,0,.77,0,7,7,0,0,0,.8,0,7.09,7.09,0,0,0,.81,0,5.77,5.77,0,0,0,.79-.17,4.44,4.44,0,0,0,.72-.38c.12-.07.13-.2.25-.14s0,.15,0,.29a2.15,2.15,0,0,1,0,.71,2.65,2.65,0,0,1-.15.71,2.7,2.7,0,0,1-.42.62,2.89,2.89,0,0,1-.55.5,2.49,2.49,0,0,1-.69.3A2.24,2.24,0,0,1,10.43,21.39ZM8.24,19.1a2.47,2.47,0,0,0,.22.76,2.59,2.59,0,0,0,1.11,1,2.24,2.24,0,0,0,.68.1,1.94,1.94,0,0,0,.68,0,2.18,2.18,0,0,0,.67-.21,2.06,2.06,0,0,0,.5-.48,2.37,2.37,0,0,0,.41-.57,2.38,2.38,0,0,0,.15-.93,5.23,5.23,0,0,1-.72.32,6.1,6.1,0,0,1-.78.11,6.65,6.65,0,0,1-.78.06,7,7,0,0,1-.79.06c-.23,0-.45,0-.67-.07S8.45,19.15,8.24,19.1Z" style="fill:#fff"/><path d="M11.45,16.37a2.67,2.67,0,0,1,.58.31,2.22,2.22,0,0,1,.45.47,2.84,2.84,0,0,1,.39.54,3.29,3.29,0,0,1,.12.64,5.27,5.27,0,0,1-.63.31,5.85,5.85,0,0,1-.67.27c-.22.05-.47.06-.71.1s-.47.07-.71.08a6,6,0,0,1-.73,0A7.69,7.69,0,0,1,8.69,19a8.35,8.35,0,0,1-.8-.25,2.37,2.37,0,0,1,.21-1,2.31,2.31,0,0,1,.3-.61,2.43,2.43,0,0,1,.48-.48,2.3,2.3,0,0,1,.58-.35,2.54,2.54,0,0,1,.67-.11,2.6,2.6,0,0,1,.68-.05A2.53,2.53,0,0,1,11.45,16.37Z" style="fill:#fff"/><path d="M6,15.61a2.32,2.32,0,0,1-.59,0,2,2,0,0,1-.58-.16,2.38,2.38,0,0,1-1-.91,2.73,2.73,0,0,1-.3-.62,2.5,2.5,0,0,1-.05-.67,2.49,2.49,0,0,1,0-.67,2.77,2.77,0,0,1,.22-.63A2.81,2.81,0,0,1,4,11.26a2.22,2.22,0,0,1,.56-.46c.12-.08.14-.2.27-.15s.06.16.09.29a3.68,3.68,0,0,0,.21.77,5.78,5.78,0,0,0,.29.75,5.73,5.73,0,0,0,.43.7,7.46,7.46,0,0,0,.53.61A6.82,6.82,0,0,0,7,14.3a5.35,5.35,0,0,0,.64.41c.11.08.23,0,.23.18s-.14.08-.24.16a2.94,2.94,0,0,1-.76.48A2.69,2.69,0,0,1,6,15.61ZM4.6,11.27a2.68,2.68,0,0,0-.61.78,2.26,2.26,0,0,0-.18.84,2,2,0,0,0,.1.84A2.12,2.12,0,0,0,5,15a2.17,2.17,0,0,0,.71.29,2.23,2.23,0,0,0,.77-.06,2.51,2.51,0,0,0,.71-.32c-.18-.13-.4-.24-.57-.39s-.31-.32-.47-.48-.35-.41-.5-.61-.33-.43-.46-.65a5.26,5.26,0,0,1-.36-.71A4.72,4.72,0,0,1,4.6,11.27Z" style="fill:#fff"/><path d="M7.22,10.66a2.9,2.9,0,0,0-.62-.23,3,3,0,0,0-.66-.07,2.88,2.88,0,0,0-.65.13,2.73,2.73,0,0,0-.6.28,5.24,5.24,0,0,0,.2.69,4.71,4.71,0,0,0,.3.65,5.32,5.32,0,0,0,.3.65,5.67,5.67,0,0,0,.42.58,5.89,5.89,0,0,0,.48.53,6.87,6.87,0,0,0,.61.6,5.07,5.07,0,0,0,.67.5,2.34,2.34,0,0,0,.66-.8,2.27,2.27,0,0,0,.26-.63,2.6,2.6,0,0,0,.05-.68,2.48,2.48,0,0,0-.12-.67,2.93,2.93,0,0,0-.33-.6A3,3,0,0,0,7.8,11,3.38,3.38,0,0,0,7.22,10.66Z" style="fill:#fff"/><path d="M13.47,14c-.14,0-.09-.07-.19-.17a2,2,0,0,1-.4-.59,3.1,3.1,0,0,1-.32-.66,3.21,3.21,0,0,1-.05-.69,2.6,2.6,0,0,1,.1-.68,2.48,2.48,0,0,1,.32-.6,2.41,2.41,0,0,1,.41-.54,2.25,2.25,0,0,1,.55-.41,2.71,2.71,0,0,1,.64-.23,3.14,3.14,0,0,1,.75,0,2.54,2.54,0,0,1,.73.12,2.64,2.64,0,0,1,.67.34,2.47,2.47,0,0,1,.48.58c.08.1.25.07.21.19s-.15,0-.27.07-.45.24-.68.35a6.14,6.14,0,0,0-.69.32,6.31,6.31,0,0,0-.62.52,6.82,6.82,0,0,0-.64.51,5.73,5.73,0,0,0-.49.64,5,5,0,0,0-.38.72C13.58,13.92,13.61,14,13.47,14Zm1.64-4.25a2,2,0,0,0-.48.08,2.48,2.48,0,0,0-.66.24,2.23,2.23,0,0,0-.48.49,2.32,2.32,0,0,0-.37.57,2.11,2.11,0,0,0-.14.67,2.21,2.21,0,0,0,0,.68,2.25,2.25,0,0,0,.39.84,5.69,5.69,0,0,1,.39-.66,7.28,7.28,0,0,1,.54-.58,7.87,7.87,0,0,1,.62-.49,7.37,7.37,0,0,1,.61-.5c.19-.12.37-.26.56-.36s.45-.17.66-.26A2.45,2.45,0,0,0,16,10,2.16,2.16,0,0,0,15.11,9.75Z" style="fill:#fff"/><path d="M15.76,14.56a3.12,3.12,0,0,1-.65.13,2.88,2.88,0,0,1-.64-.17,2.63,2.63,0,0,1-.6-.25,2.31,2.31,0,0,1-.55-.37,5,5,0,0,1,.33-.65c.13-.19.32-.35.48-.54s.26-.39.44-.56a6.52,6.52,0,0,1,.55-.48c.18-.14.4-.25.6-.38s.48-.34.73-.47a6.29,6.29,0,0,1,.79-.29,2.36,2.36,0,0,1,.46.94,2.2,2.2,0,0,1,.08.67,2.48,2.48,0,0,1-.12.67,2.31,2.31,0,0,1-.32.6,2.65,2.65,0,0,1-.94.94A2.82,2.82,0,0,1,15.76,14.56Z" style="fill:#fff"/><path d="M10.62,3.13c.23,0,.45,0,.68,0a5,5,0,0,1,.66.11l.67.1A1.11,1.11,0,0,0,13,3.2a.72.72,0,0,0,0-.54c-.25-.06-.47-.15-.74-.19s-.52-.09-.79-.11-.54,0-.81,0-.53.05-.8.07-.54,0-.8.06-.55.12-.81.18c-.11.26,0,.3,0,.58a4.12,4.12,0,0,0,.41.1q.33-.08.66-.12c.22,0,.45,0,.68,0Z" style="fill:#fff"/><path d="M20.94,12.87c0-.25.06-.49,0-.73s0-.48-.09-.72.06-.51,0-.75-.14-.48-.21-.71-.25-.43-.34-.66-.19-.45-.29-.67-.17-.45-.29-.67-.28-.4-.41-.6,0-.6-.15-.79-.29-.42-.45-.61-.39-.32-.56-.5-.39-.31-.57-.47-.3-.43-.5-.58-.51-.14-.72-.27-.5-.11-.71-.23-.34-.41-.56-.52-.47-.14-.7-.24-.57-.31-.81-.39c-.12.18.21.31.21.53a.42.42,0,0,1-.12.28c.23.07.32.38.54.47s.48.06.7.17.49.1.7.22.25.49.44.63.6,0,.78.15.23.47.41.64.26.4.42.58.51.19.66.38.14.49.28.69a6.14,6.14,0,0,1,.34.62c.12.2.32.37.42.58s.34.39.42.61,0,.52,0,.75.2.44.26.67-.08.5-.05.73.12.46.14.7-.06.47-.06.71.12.48.1.72-.05.48-.09.72-.15.46-.21.7.15.54.08.77-.11.49-.2.71-.33.4-.44.61-.42.32-.54.53,0,.59-.1.79-.3.4-.45.59-.51.2-.67.38-.3.37-.48.54l-.55.47c-.19.15-.4.25-.6.38s-.31.42-.52.54-.52,0-.74.14-.38.31-.61.4-.39.36-.62.43-.47.16-.71.21l-.73.13c-.23,0-.49-.05-.74,0s-.48.2-.73.2-.47-.4-.71-.42a6,6,0,0,1-.73.07c-.24,0-.47-.12-.7-.17s-.5,0-.73-.09-.46-.16-.69-.25-.36-.37-.58-.47-.51-.06-.72-.18-.53-.08-.73-.21-.32-.41-.51-.56S4.19,20.16,4,20s-.35-.33-.52-.51-.33-.36-.48-.55-.12-.51-.25-.71-.36-.33-.48-.54-.4-.34-.51-.56-.23-.43-.32-.66-.1-.48-.18-.72.05-.51,0-.74-.37-.43-.4-.67,0-.49,0-.74.13-.48.13-.73-.07-.48-.05-.71.18-.46.22-.69S.91,10.93,1,10.7s.47-.37.54-.6,0-.48.12-.71.1-.47.2-.69S2,8.23,2.08,8s.47-.27.6-.46,0-.58.17-.77.3-.38.46-.56.54-.15.71-.31.15-.55.34-.7.57,0,.77-.17.27-.46.47-.58.51-.06.72-.17.45-.15.67-.24.21-.49.44-.57c-.07-.1.17-.07.17-.2s.16-.37,0-.55c-.23.07-.63.28-.86.37s-.38.36-.6.46-.51.07-.73.19S5,4,4.82,4.14s-.53.12-.72.27-.25.48-.43.64a6.51,6.51,0,0,0-.51.54c-.17.17-.23.44-.38.63s-.61.14-.76.34-.3.41-.43.62-.12.5-.24.72S1,8.3.94,8.52s0,.54-.06.78S.57,9.71.5,10s-.28.44-.33.68,0,.51,0,.76-.15.48-.17.73.11.5.11.75S0,13.36,0,13.6s.23.47.27.71,0,.48.07.72.23.43.3.67-.2.57-.12.8.51.32.61.54,0,.54.11.75.39.33.52.53.12.5.26.7.23.44.39.63.51.19.67.37.12.57.3.74.43.26.62.41.47.17.67.31.34.37.55.49.52.06.73.17l.66.28c.22.09.3.4.53.47.06.09,0,0,0,.15s.23.41.56.54a6.06,6.06,0,0,0,.71.18c.21,0,.49-.2.74-.17s.45.17.7.18.48.15.72.15h.73c.25,0,.48-.11.71-.14s.47-.21.68-.25.52,0,.71-.07.38-.25.38-.41a.33.33,0,0,1,.1-.25c.23-.08.43-.32.65-.41s.45-.14.67-.25.53,0,.74-.16.28-.45.48-.58.38-.28.57-.43.43-.23.61-.4.51-.17.68-.35a6.33,6.33,0,0,0,.47-.56c.16-.19.33-.37.47-.57s0-.56.16-.76l.37-.62c.11-.22.4-.34.5-.57s.21-.44.29-.67.06-.49.13-.72.21-.45.26-.69.2-.46.23-.7-.18-.51-.17-.76S20.94,13.11,20.94,12.87Z" style="fill:#fff"/><path d="M10.62,2.12l-.73,0a6,6,0,0,1-.73,0,4.52,4.52,0,0,1-.72-.16,1,1,0,0,1-.61-.41c0,.3,0,.31,0,.6v.61c0,.3-.06.3-.06.6s.24.35.6.46a5.55,5.55,0,0,0,.73.12c.23,0,.48,0,.74,0s.49,0,.74,0,.51,0,.75,0,.51,0,.74,0a3.54,3.54,0,0,0,.71-.21c.35-.11.58-.23.58-.38s0-.3,0-.6,0-.3,0-.6a2.41,2.41,0,0,0,0-.6c-.08.17-.29.26-.58.36a4,4,0,0,1-.69.26c-.24,0-.5,0-.74.05S10.84,2.12,10.62,2.12Z" style="fill:#fff"/><path d="M10.62,0A.58.58,0,0,0,10,.58a.58.58,0,1,0,1.16,0A.58.58,0,0,0,10.62,0Z" style="fill:#fff"/><path d="M15.65,24.4c-.16.17-.38.12-.63.24a4.18,4.18,0,0,1-.68.26c-.24.07-.47.16-.72.21s-.48.24-.73.28-.52-.1-.76-.08l-.76,0-.75,0c-.15,0-.43.22-.76.21s-.47-.24-.74-.26l-.75-.08c-.25,0-.54.14-.79.09a5.85,5.85,0,0,1-.75-.16,4.58,4.58,0,0,1-.69-.39,2.63,2.63,0,0,1-.69-.57c-.26.2-.07.41-.25.69s-.15.3-.33.58-.2.27-.38.55l-.36.57c-.18.28-.26.23-.44.51s-.21.27-.39.55-.27.25-.42.55c0,.15.32.34.58.55a5,5,0,0,0,.59.33c.18.1.31.36.54.46s.46.08.69.16.39.28.62.35.43.19.66.24.48,0,.72,0,.47,0,.71,0,.42.28.66.3l.7.09c.23,0,.48-.14.72-.13s.46.2.7.2.5-.21.74-.22.5.08.74.06.5,0,.74-.06.48-.17.72-.21.51,0,.75-.05l.72-.17c.25-.06.46-.19.69-.26s.54,0,.76-.08a6.2,6.2,0,0,0,.68-.32c.25-.13.33-.46.49-.59s.55-.36.55-.53c-.15-.31-.31-.22-.49-.5s-.13-.33-.31-.62-.32-.21-.5-.5,0-.43-.15-.72-.4-.16-.58-.45-.11-.34-.28-.64S15.92,24.62,15.65,24.4Zm-5,5.31c-.25,0-.45-.26-.67-.35A1.73,1.73,0,0,1,9.38,29,1.79,1.79,0,0,1,9,28.42c-.09-.22-.29-.43-.29-.69s.2-.47.29-.69a1.67,1.67,0,0,1,.4-.58,1.55,1.55,0,0,1,.58-.4c.22-.1.44-.37.69-.37s.48.26.7.36a1.79,1.79,0,0,1,.59.39c.17.18.5.28.59.51a2.06,2.06,0,0,1,.17.78,2.07,2.07,0,0,1-.27.73c-.1.24-.36.34-.53.51s-.28.45-.51.54A1.85,1.85,0,0,1,10.62,29.71Z" style="fill:#fff"/><path d="M11.82,27.52v.42a.21.21,0,0,1-.21.22c-.33,0-.33,0-.66,0H9.63a.2.2,0,0,1-.19-.22c0-.21,0-.21,0-.42a.26.26,0,0,1,.23-.24h.66c.33,0,.33,0,.66,0s.33,0,.66,0A.2.2,0,0,1,11.82,27.52Z" style="fill:#fff"/><path d="M10.62,1.53A.93.93,0,0,1,9.72,1a4.77,4.77,0,0,0-.78.12c-.45.09-.7.18-.73.26s.29.18.76.27a6,6,0,0,0,.81.17c.26,0,.54,0,.84,0s.59,0,.84,0,.6,0,.83-.07A1.19,1.19,0,0,0,13,1.33c0-.08-.29-.15-.72-.24a5.52,5.52,0,0,0-.79-.18,1,1,0,0,1-.36.44A.87.87,0,0,1,10.62,1.53Z" style="fill:#fff"/></g></g></svg>