<svg xmlns="http://www.w3.org/2000/svg" width="9.91mm" height="16.13mm" viewBox="0 0 28.1 45.72"><title>know</title><g id="圖層_2" data-name="圖層 2"><g id="圖層_1-2" data-name="圖層 1"><path d="M6.84,42.39c0,.09-.09.23-.16.43a4.54,4.54,0,0,1-.27.67.36.36,0,0,1-.63.07v-.05a2.39,2.39,0,0,1,.08-.57A3.68,3.68,0,0,1,6,42.38a.41.41,0,0,0,.06-.2.1.1,0,0,0-.06-.1A.56.56,0,0,0,5.8,42a.76.76,0,0,1-.29-.09.25.25,0,0,1-.11-.24.3.3,0,0,1,.15-.24,2.34,2.34,0,0,1,.56-.3A.78.78,0,0,0,6.37,41a.53.53,0,0,0,.19-.22,2,2,0,0,0,.21-.46.59.59,0,0,1,.06-.18.54.54,0,0,0,0-.17s0,0-.08,0a.27.27,0,0,0-.2.07s-.1.12-.16.21a.92.92,0,0,1-.13.17.15.15,0,0,1-.13.05A.21.21,0,0,1,6,40.36a.48.48,0,0,1-.05-.22A2.62,2.62,0,0,1,6,39.58a4,4,0,0,1,.28-.69q.16-.3.33-.3a.22.22,0,0,1,.19.07.71.71,0,0,1,.07.22A1.23,1.23,0,0,0,7,39a.13.13,0,0,0,.11.05l.21,0a.9.9,0,0,1,.21,0,.57.57,0,0,1,.32.08.26.26,0,0,1,.15.25.26.26,0,0,1,0,.14l-.14.1a.56.56,0,0,0-.29.23,1,1,0,0,0-.1.55c0,.05,0,.08,0,.08a.69.69,0,0,0,.23-.08.71.71,0,0,1,.28-.07.36.36,0,0,1,.23.08.26.26,0,0,1,.12.21.44.44,0,0,1-.16.33,2.57,2.57,0,0,1-.47.36l-.16.11a1,1,0,0,0-.17.13.17.17,0,0,0-.06.12l0,0L9,42.5l.31.14a1.08,1.08,0,0,1,.39.27.49.49,0,0,1,.15.36.35.35,0,0,1-.17.32.84.84,0,0,1-.4.09,1.63,1.63,0,0,1-.9-.36,11.51,11.51,0,0,1-1.11-.87,1.38,1.38,0,0,0-.25-.2C6.93,42.25,6.89,42.3,6.84,42.39ZM10,42c-.12,0-.21-.07-.27-.22a1.34,1.34,0,0,1-.11-.4c0-.13,0-.32,0-.56a2.44,2.44,0,0,0,0-.35c0-.23,0-.4,0-.51s.09-.26.28-.32a2.14,2.14,0,0,0,.32-.15l.35-.15a1.25,1.25,0,0,1,.36-.05.78.78,0,0,1,.36.11,1.31,1.31,0,0,1,.35.27.53.53,0,0,1,.14.33,1.39,1.39,0,0,1-.05.33l0,.15a1.37,1.37,0,0,0,0,.19.4.4,0,0,0,.09.22l0,.09a.4.4,0,0,1,0,.15.29.29,0,0,1,0,.16.3.3,0,0,1-.18.13,3.83,3.83,0,0,0-.61.26l-.36.15a2.52,2.52,0,0,1-.43.14h0A.56.56,0,0,1,10,42Zm.71-1.12a1.19,1.19,0,0,0,.08-.41.31.31,0,0,0-.07-.24.45.45,0,0,0-.27-.06c-.08,0-.13,0-.15.07a.44.44,0,0,0,0,.19.9.9,0,0,0,.06.26l0,.11a.88.88,0,0,1,0,.16q0,.12.06.12A.28.28,0,0,0,10.73,40.85Z" style="fill:#fff"/><path d="M16.21,41.3c.14,0,.36,0,.67.05a.32.32,0,0,1,.11.12.29.29,0,0,1,.06.16c0,.13-.24.2-.71.2a1,1,0,0,1-.36,0c-.07,0-.1-.11-.1-.24S16,41.3,16.21,41.3Zm.59-3.14a.26.26,0,0,1,.2-.1.3.3,0,0,1,.28.15.61.61,0,0,1,.1.34.4.4,0,0,1,0,.15l-.05.14.1.16a.41.41,0,0,1,.08.19c0,.1-.11.18-.31.24a4.86,4.86,0,0,1-.8.16l-.21,0c-.13-.1-.19-.18-.19-.23a.25.25,0,0,1,.16-.24,1.49,1.49,0,0,1,.42-.13l.24-.07a.29.29,0,0,0,.13-.09.57.57,0,0,0-.11-.19.59.59,0,0,1-.11-.32A.34.34,0,0,1,16.8,38.16Zm1.47.39a2.22,2.22,0,0,1,.49-.13.73.73,0,0,0,.39-.12.62.62,0,0,0,.09-.25c0-.1,0-.16,0-.18a1.28,1.28,0,0,1,.12-.48.36.36,0,0,1,.33-.16.32.32,0,0,1,.19.07.23.23,0,0,1,.09.18,1.39,1.39,0,0,1,0,.33l0,.15a1.5,1.5,0,0,0,0,.2.14.14,0,0,0,.08.12l.2.09.23.12a.15.15,0,0,1,.06.13,1.1,1.1,0,0,1-.29.53l-.09.14a.32.32,0,0,0-.07.13s0,.06.1.06l.39-.1.4-.12c.05,0,.07-.1.09-.19s0-.15,0-.17a1,1,0,0,1,.06-.31.13.13,0,0,1,.14-.1.2.2,0,0,1,.17.1.42.42,0,0,1,.06.21.65.65,0,0,0,.1.42.55.55,0,0,0,.28.2.7.7,0,0,1,.18.12.25.25,0,0,1,.06.19.27.27,0,0,1-.06.2.45.45,0,0,1-.17.09l-.13.07a.12.12,0,0,0,0,.09,2.21,2.21,0,0,0,.15.64,2.09,2.09,0,0,1,.12.4l0,.09q0,.09.06.09a.77.77,0,0,0,.27-.17,3.93,3.93,0,0,1,.38-.28.63.63,0,0,1,.33-.09.51.51,0,0,1,.33.13.33.33,0,0,1,.16.27.25.25,0,0,1,0,.15.23.23,0,0,1-.1.05l-.11,0a1.36,1.36,0,0,0-.49.35c-.22.21-.32.37-.32.47a1.53,1.53,0,0,0,.17.53c.11.24.29.58.52,1s.41.79.53,1a1.42,1.42,0,0,1,.17.54c0,.18-.07.28-.22.28-.34,0-.86-.81-1.58-2.43a2.17,2.17,0,0,0-.11-.23c0-.1-.08-.15-.1-.15s-.13.06-.28.18a3,3,0,0,1-.4.25.54.54,0,0,1-.27.09.3.3,0,0,1-.23-.1.28.28,0,0,1-.1-.22.44.44,0,0,1,.12-.24c.07-.1.19-.24.34-.42a1.9,1.9,0,0,0,.41-.53c-.05-.14-.13-.41-.23-.8a4,4,0,0,1-.16-.71c0-.13,0-.19-.11-.19a10.64,10.64,0,0,0-1.36.2c-.71.14-1.2.25-1.46.32l-.1,0-.14,0a.37.37,0,0,1-.2-.08l-.16-.12a3.51,3.51,0,0,1-1.14.2.29.29,0,0,1-.21-.09.3.3,0,0,1-.08-.2.27.27,0,0,1,.07-.18,1.6,1.6,0,0,1,.67-.28,3.58,3.58,0,0,1,.76-.16.32.32,0,0,1,.16,0,.43.43,0,0,1,.12.14.42.42,0,0,0,.12.14,1,1,0,0,0,.35-.1l.38-.15,0-.06a.54.54,0,0,0,0-.19,1,1,0,0,1,0-.19s0-.09,0-.22a.82.82,0,0,0,0-.21s0-.06,0-.07l-.11,0H18.3a.24.24,0,0,1-.15,0,.22.22,0,0,1,0-.16A.27.27,0,0,1,18.27,38.55Zm-2,4.41a2.56,2.56,0,0,1,.27-.72l.1-.16c.05-.1.1-.14.15-.14a.13.13,0,0,1,.1,0,.22.22,0,0,1,.07.12.11.11,0,0,0,.1.08c.44,0,.66.24.66.71a1.15,1.15,0,0,1-.37.88,1.3,1.3,0,0,1-.92.36.21.21,0,0,1-.18-.13.46.46,0,0,1-.08-.23A3.73,3.73,0,0,1,16.24,43Zm.67-.22c-.05,0-.08,0-.1.11a.45.45,0,0,0,0,.18c0,.07,0,.11.05.11s.08,0,.11-.12a.48.48,0,0,0,.05-.2S17,42.74,16.91,42.74Zm1.55-.33c.07-.57.17-.91.3-1l.46-.15.48-.13a.45.45,0,0,1,.48.3,2,2,0,0,1,.11.75,4.47,4.47,0,0,1-.07.91,1.12,1.12,0,0,1-.33.59,1.74,1.74,0,0,1-.76.38,1.12,1.12,0,0,0-.31.19.63.63,0,0,1-.24.14c-.15,0-.22-.19-.22-.56A12.12,12.12,0,0,1,18.46,42.41Zm.88.46a.3.3,0,0,0-.26.13.45.45,0,0,0-.1.29c0,.14,0,.2.11.2a.31.31,0,0,0,.25-.14.44.44,0,0,0,.11-.29C19.45,42.94,19.41,42.87,19.34,42.87Zm.15-1.07a.56.56,0,0,0-.29.18c-.11.12-.17.21-.17.29s0,.07,0,.08l.09,0a.61.61,0,0,0,.32-.08.32.32,0,0,0,.12-.27C19.59,41.9,19.56,41.83,19.49,41.8Zm0-2.82a.76.76,0,0,0-.29.05c-.07,0-.11.09-.11.19a.42.42,0,0,0,.13.33,2.06,2.06,0,0,0,.54-.52A.45.45,0,0,0,19.51,39Zm3.13-.66c.05-.06.09-.09.14-.09s.24.11.39.34a4.52,4.52,0,0,1,.4.76,1.78,1.78,0,0,1,.18.59.52.52,0,0,1-.07.21.22.22,0,0,1-.18.11c-.08,0-.16-.09-.25-.27s-.2-.42-.33-.73a3.59,3.59,0,0,0-.25-.57.3.3,0,0,1-.09-.18A.32.32,0,0,1,22.64,38.32Z" style="fill:#fff"/><path d="M14,24.47c-.24,0-.48,0-.73,0s-.49,0-.73,0-.48-.13-.72-.16-.45,0-.68,0c-.12.28,0,.28,0,.58s0,.3,0,.61,0,.3.05.6a1.1,1.1,0,0,0,.56.56,1.73,1.73,0,0,0,.81.2c.38,0,.38,0,.76,0s.38,0,.76,0,.38-.07.76-.07.39.05.77.05a1.71,1.71,0,0,0,.79-.24,1.36,1.36,0,0,0,.62-.52c0-.3-.05-.3-.05-.6s0-.3,0-.61.13-.32,0-.6c-.24,0-.48,0-.73.05s-.47.14-.71.16-.49,0-.74,0S14.21,24.47,14,24.47Z" style="fill:#fff"/><path d="M11.61,3c-.34-.09-.34.13-.69.13s-.35-.32-.71-.32a4.33,4.33,0,0,0-.71.1,4.09,4.09,0,0,0-.57.49c-.12.17-.18.42-.33.64s-.22.41-.36.62S8,5,7.88,5.24s-.43.28-.55.5-.12.47-.23.69-.21.42-.32.64,0,.49-.14.71-.07.47-.16.7S6,8.81,5.94,9s-.11.47-.17.7-.13.46-.18.7,0,.48-.08.71,0,.48,0,.72-.14.46-.16.7.05.48.05.72-.19.47-.19.71.28.46.31.7,0,.46.07.7-.18.51-.13.74.07.48.13.71.36.39.44.62.1.46.19.69.28.39.38.61.2.42.31.63.2.42.32.63.11.48.24.68.41.29.55.49.25.39.4.58,0,.6.17.78.57.13.74.31l-.18.27c.2.07.48-.1.69-.05a6.18,6.18,0,0,0,.62.12c.21.05.41.11.63.15s.58.23.79.25c-.1-.22-.49-.49-.58-.71s0-.53-.09-.75-.1-.48-.18-.71-.34-.4-.41-.63.09-.53,0-.76-.22-.45-.28-.68,0-.5,0-.74-.4-.42-.44-.66-.1-.48-.13-.72,0-.49-.06-.73.2-.51.18-.75-.25-.48-.26-.72-.1-.49-.11-.73.06-.49.06-.73.18-.49.19-.73.15-.48.16-.72,0-.48,0-.72-.08-.5-.06-.74.1-.47.13-.71-.15-.51-.11-.75.23-.46.27-.7,0-.5,0-.73.13-.48.18-.71.11-.48.16-.71.28-.43.34-.66,0-.52,0-.74,0-.52.08-.73.44-.39.51-.6S11.54,3.14,11.61,3Z" style="fill:#fff"/><path d="M13.17,27.83a1.15,1.15,0,0,0-.39.57,1.28,1.28,0,0,0,0,.7,1.38,1.38,0,0,0,.36.58,1.09,1.09,0,0,0,.58.35,1.42,1.42,0,0,0,.68,0,1.41,1.41,0,0,0,.61-.33h0a1.5,1.5,0,0,0,.37-.59,1.28,1.28,0,0,0,0-.7,1.3,1.3,0,0,0-.38-.57,1.26,1.26,0,0,0-.91-.41A1.29,1.29,0,0,0,13.17,27.83Z" style="fill:#fff"/><path d="M8.45,2.89C8.22,3,8,3,7.8,3.06s-.47.15-.69.25-.49.14-.7.25S6,3.83,5.79,4s-.3.44-.5.57-.45.21-.64.36a6.22,6.22,0,0,0-.56.46c-.19.15-.37.31-.55.48a6.14,6.14,0,0,0-.52.5c-.17.17-.27.41-.43.59s-.36.33-.5.52-.45.28-.58.48-.08.53-.2.74S.94,9,.84,9.24s-.19.45-.27.68-.12.48-.19.71-.25.45-.29.69a6.09,6.09,0,0,0,0,.74c0,.24-.06.49-.06.74H0c0,.24,0,.49,0,.73s.23.46.27.7,0,.48.1.72.21.43.29.66.14.46.23.68.15.47.26.68.33.36.46.57.07.53.21.73.48.24.63.43.2.46.37.64.5.17.68.34.11.6.3.76.59,0,.79.16.36.31.56.44.35.35.56.47.32.43.53.54.57-.05.79.05.42.34.65.43c-.15-.19-.41-.35-.55-.54s0-.54-.17-.73l-.37-.6c-.12-.21-.2-.43-.3-.64s-.55-.26-.65-.47.12-.58,0-.79-.27-.41-.34-.63S5,17.73,5,17.51s.1-.52,0-.75-.23-.43-.27-.66a5.77,5.77,0,0,1,0-.72c0-.24-.31-.45-.32-.68s.31-.49.31-.73,0-.46,0-.7-.3-.49-.28-.72.31-.45.34-.68,0-.48,0-.71.12-.45.17-.68.12-.45.18-.68-.11-.52,0-.75.09-.47.17-.69.17-.45.26-.67.41-.35.5-.56,0-.53.1-.74.36-.36.46-.56.27-.4.38-.6,0-.56.11-.76.3-.39.42-.58.5-.25.62-.43S8.33,3.05,8.45,2.89Z" style="fill:#fff"/><path d="M12.73,23.58l-.07.21c.22,0,.45,0,.66,0s.43,0,.64,0,.53-.21.79-.23.49,0,.75,0c.1-.21.14-.4.23-.62s.39-.36.47-.58-.08-.53,0-.75.1-.46.17-.69.53-.33.59-.56,0-.5.05-.73,0-.48.07-.71,0-.47.06-.7.15-.46.18-.69-.08-.49-.06-.72.1-.46.12-.69.22-.46.23-.7,0-.47,0-.71-.1-.48-.1-.71.12-.48.12-.71-.21-.47-.22-.7,0-.48,0-.71-.06-.47-.08-.7.15-.49.13-.72-.26-.45-.29-.68.07-.48,0-.71S17,8.58,17,8.35s.14-.51.1-.74-.15-.46-.2-.68-.26-.43-.32-.65-.21-.44-.27-.66.07-.52,0-.74-.18-.45-.25-.66,0-.52-.11-.7a4.41,4.41,0,0,0-.38-.69,3.88,3.88,0,0,0-.76,0c-.37,0-.37.23-.75.23s-.37-.19-.75-.19-.39-.12-.76-.07c0,.11-.18.41-.3.73s0,.47-.06.72-.09.44-.17.69-.2.41-.26.65-.14.44-.2.68-.3.41-.35.65-.12.45-.17.69.09.49.05.72-.09.46-.13.7-.08.46-.11.7-.05.46-.07.7-.28.45-.3.69,0,.47,0,.71.16.48.16.72-.13.47-.13.71,0,.47,0,.7.06.47.07.71,0,.46,0,.7.13.46.15.7-.17.49-.14.72.33.43.36.67-.19.51-.15.74l.15.7c.05.23,0,.49.05.72s.38.39.45.62.23.42.3.64-.19.56-.11.79.44.34.52.56,0,.52.07.74S12.63,23.37,12.73,23.58Z" style="fill:#fff"/><path d="M9.46,2.05c.35,0,.35-.11.69-.11s.35,0,.7,0,.34.07.69.07.35-.08.7-.08.34,0,.69,0,.35.14.7.14S14,2,14.32,2s.35,0,.7,0,.34,0,.69,0,.35-.07.7-.07.35,0,.7,0,.35-.06.7-.06h.7c.31,0,.47-.13.47-.44s0-.44,0-.88-.2-.45-.51-.45S18.16,0,17.81,0s-.34.06-.69.06-.35,0-.69,0-.35,0-.7,0H15c-.35,0-.35,0-.7,0s-.35,0-.69,0-.35.07-.7.07-.34-.1-.69-.1-.35.12-.7.12-.35,0-.7,0-.35-.1-.7-.1-.35,0-.7,0a.55.55,0,0,0-.6.51c0,.44,0,.44,0,.88A.57.57,0,0,0,9.46,2.05Z" style="fill:#fff"/><path d="M19.49,2.71c.13.17.5.44.66.67s.08.51.22.73.17.44.31.66.5.25.63.47.27.4.38.62.09.5.19.72.33.39.43.61-.07.55,0,.78.27.42.35.65.06.48.13.72.13.46.19.7.17.45.22.69.12.47.16.71-.05.5,0,.74.19.47.2.71,0,.49,0,.73.12.49.1.74-.08.48-.11.72-.29.45-.33.69-.07.47-.12.71-.11.46-.17.7-.12.46-.2.69.17.58.08.8-.39.37-.49.59,0,.52-.15.74-.25.42-.37.64-.41.31-.55.52-.26.4-.4.61-.28.5-.43.7c.22-.1.46-.37.67-.47s.55,0,.75-.1.33-.38.53-.51.54-.05.73-.18.21-.54.4-.68.47-.17.65-.32.42-.24.6-.4.13-.54.29-.71.42-.25.58-.43.39-.3.53-.49.35-.35.47-.55,0-.55.13-.75.38-.34.48-.56.19-.44.27-.66,0-.51,0-.74.09-.45.13-.69.05-.46.07-.69.37-.46.37-.7-.22-.49-.24-.73-.15-.46-.19-.7.11-.52,0-.76-.34-.4-.42-.63-.1-.47-.2-.69a6.37,6.37,0,0,0-.35-.63c-.12-.22-.31-.38-.44-.58a5.58,5.58,0,0,0-.39-.6c-.14-.19-.24-.41-.4-.6s-.36-.31-.52-.49-.12-.58-.3-.74-.42-.26-.61-.42-.53-.1-.72-.24-.38-.29-.59-.42-.31-.41-.52-.53-.44-.2-.66-.32-.35-.39-.57-.5S20.59,3,20.36,3,19.72,2.79,19.49,2.71Z" style="fill:#fff"/><path d="M18.49,3.05c-.33,0-.32-.15-.66-.15s-.34.2-.68.2-.4-.45-.72-.35c.07.18.32.52.42.8s.15.43.23.69.14.45.21.69.05.48.11.73-.09.51,0,.76.44.38.49.62-.22.54-.18.78.33.42.38.67.07.47.1.72S18,9.71,18,10s.22.46.24.7.2.47.22.72-.19.49-.17.74.23.46.24.71,0,.48,0,.72-.15.48-.16.72.11.49.1.73-.23.47-.25.72.06.48,0,.73,0,.48,0,.73.11.5.07.74-.37.43-.41.67.18.54.13.77-.4.41-.46.64.07.52,0,.76-.09.48-.17.71-.26.42-.34.65-.25.43-.34.66-.28.4-.38.63l.16,0c.26,0,.52-.05.78-.1s.55.07.81,0,.42-.34.67-.42.51-.16.65-.34,0-.61.14-.8.44-.26.57-.45.44-.29.56-.49-.1-.62,0-.82.26-.39.37-.6.18-.43.28-.65.32-.37.4-.59.12-.46.19-.68.09-.47.15-.69.25-.43.3-.66,0-.48.05-.71.1-.47.12-.7-.15-.48-.15-.71.27-.48.26-.71-.11-.47-.13-.71-.22-.45-.25-.68.28-.52.24-.75-.39-.41-.44-.64.06-.5,0-.73-.17-.44-.24-.67-.27-.4-.35-.62-.14-.46-.23-.67-.23-.41-.33-.62-.21-.43-.32-.63-.25-.41-.36-.61.09-.6,0-.79-.44-.31-.56-.49-.28-.4-.41-.58-.36-.35-.48-.51S18.57,3.14,18.49,3.05Z" style="fill:#fff"/><polygon points="20.49 22.41 20.49 22.41 20.49 22.41 20.49 22.41" style="fill:#fff"/></g></g></svg>