<svg xmlns="http://www.w3.org/2000/svg" width="255.94" height="357.84" viewBox="0 0 255.94 357.84"><title>location</title><g id="圖層_2" data-name="圖層 2"><g id="圖層_1-2" data-name="圖層 1"><path d="M236.58,128c0,24.84-12.5,50-20,62.78a10.32,10.32,0,0,0-.53,1.05,5.05,5.05,0,0,1-.35.7l-82.53,143a6.06,6.06,0,0,1-10.48,0L40.2,192.5a5.05,5.05,0,0,1-.35-.7,8.79,8.79,0,0,0-.43-.87c-12-21.71-20.06-40.72-20.06-63a108.61,108.61,0,0,1,217.22,0ZM128.14,50.48a77.6,77.6,0,1,0,77.6,77.6A77.6,77.6,0,0,0,128.14,50.48Z" style="fill:#f2e681"/><path d="M128,213.11A85.14,85.14,0,0,1,79,58.29a6.45,6.45,0,0,1,7.43,10.55,72.26,72.26,0,0,0,58.64,129.32,6.45,6.45,0,0,1,3,12.54A85.52,85.52,0,0,1,128,213.11Z" style="fill:#c95a41"/><path d="M167.69,202.37a6.45,6.45,0,0,1-3.27-12,72.08,72.08,0,0,0,9-6.2,6.46,6.46,0,1,1,8.12,10A86.33,86.33,0,0,1,171,201.48,6.46,6.46,0,0,1,167.69,202.37Z" style="fill:#c95a41"/><path d="M192.92,178.84a6.45,6.45,0,0,1-5.31-10.1A72.27,72.27,0,0,0,141.44,57a6.45,6.45,0,1,1,2.39-12.68A85.16,85.16,0,0,1,198.25,176,6.45,6.45,0,0,1,192.92,178.84Z" style="fill:#c95a41"/><path d="M82.76,70A6.45,6.45,0,0,1,79,58.29a84.15,84.15,0,0,1,33.13-14A6.45,6.45,0,0,1,114.55,57,71.52,71.52,0,0,0,86.47,68.84,6.4,6.4,0,0,1,82.76,70Z" style="fill:#c95a41"/><path d="M128,357.84h0a25.15,25.15,0,0,1-22-12.7l-82.54-143a24.91,24.91,0,0,1-1.15-2.25C10.68,179,0,155.75,0,128a128,128,0,0,1,255.94,0c0,29.08-13.86,57.45-22.32,72.06-.35.76-.72,1.47-1.11,2.16L150,345.14A25.14,25.14,0,0,1,128,357.84Zm0-338.48A108.73,108.73,0,0,0,19.36,128c0,22.24,8,41.25,20.06,63a8.79,8.79,0,0,1,.43.87,5.05,5.05,0,0,0,.35.7l82.53,143a6.06,6.06,0,0,0,10.48,0l82.53-143a5.05,5.05,0,0,0,.35-.7,10.32,10.32,0,0,1,.53-1.05c7.46-12.79,20-37.94,20-62.78A108.73,108.73,0,0,0,128,19.36Z" style="fill:#c95a41"/><path d="M128,238.58a6.46,6.46,0,0,1-6.45-6.46v-7a6.45,6.45,0,1,1,12.9,0v7A6.45,6.45,0,0,1,128,238.58Z" style="fill:#c95a41"/><path d="M128.16,267.58a6.45,6.45,0,0,1-6.45-6.42c0-2.25,0-4.49,0-6.74a6.45,6.45,0,0,1,6.4-6.5h.05a6.45,6.45,0,0,1,6.45,6.4q0,3.39.05,6.78a6.46,6.46,0,0,1-6.43,6.48Z" style="fill:#c95a41"/><path d="M128.07,298.85H128a6.46,6.46,0,0,1-6.38-6.53c0-2.62.06-5.24.08-7.86a6.46,6.46,0,0,1,12.91.1q0,4-.08,7.91A6.45,6.45,0,0,1,128.07,298.85Z" style="fill:#c95a41"/></g></g></svg>