<svg xmlns="http://www.w3.org/2000/svg" width="75.89mm" height="73.64mm" viewBox="0 0 215.12 208.75"><title>logo</title><g id="圖層_2" data-name="圖層 2"><g id="圖層_1-2" data-name="圖層 1"><path d="M211.44,105.76C211.44,52.53,172,7,119.11.77A111.17,111.17,0,0,0,106,0c-.87,0-1.73,0-2.59,0C46.38,1.34,1.2,48.79,1.2,105.83v24.52H211.44Z" style="fill:#e1ce8c"/><ellipse cx="106.32" cy="131.39" rx="105.12" ry="6.76" style="fill:#d19e49"/><line x1="182.57" y1="203.81" x2="211.42" y2="203.81" style="fill:none;stroke:#251e1c;stroke-linecap:round;stroke-miterlimit:10"/><line x1="1.22" y1="203.81" x2="31.6" y2="203.81" style="fill:none;stroke:#251e1c;stroke-linecap:round;stroke-miterlimit:10"/><path d="M36.49,199.79h1.67l1.09,3c.14.4.26.83.39,1.25h0c.13-.42.25-.85.38-1.25l1.07-3h1.67v6.77h-1.4v-2.48c0-.66.13-1.65.2-2.3h0l-.56,1.6-1,2.59H39.2l-1-2.59-.54-1.6h0c.07.65.2,1.64.2,2.3v2.48H36.49Z" style="fill:#251e1c"/><path d="M46.11,205.13c0-1.08.87-1.67,2.91-1.89a.72.72,0,0,0-.82-.74,2.86,2.86,0,0,0-1.36.46l-.55-1a4.23,4.23,0,0,1,2.21-.68c1.31,0,2,.75,2,2.33v2.95H49.3l-.11-.53h0a2.22,2.22,0,0,1-1.5.66A1.49,1.49,0,0,1,46.11,205.13Zm2.91-.07v-.9c-1.09.15-1.45.46-1.45.85s.23.5.6.5A1.17,1.17,0,0,0,49,205.06Z" style="fill:#251e1c"/><path d="M53.92,204.69V202.6h-.7v-1.13l.79-.06.17-1.37h1.27v1.37h1.23v1.19H55.45v2.07c0,.58.26.82.66.82a1.47,1.47,0,0,0,.49-.1l.25,1.11a3.6,3.6,0,0,1-1.15.19C54.43,206.69,53.92,205.88,53.92,204.69Z" style="fill:#251e1c"/><path d="M59.28,204A2.6,2.6,0,0,1,62,201.28a2.22,2.22,0,0,1,1.5.56l-.72,1a1,1,0,0,0-.7-.31c-.73,0-1.2.59-1.2,1.48s.49,1.46,1.15,1.46a1.5,1.5,0,0,0,.93-.38l.6,1a2.59,2.59,0,0,1-1.7.62A2.48,2.48,0,0,1,59.28,204Z" style="fill:#251e1c"/><path d="M66.51,199.28H68v1.78L68,202a2.29,2.29,0,0,1,1.59-.72c1.12,0,1.6.79,1.6,2.08v3.2H69.63v-3c0-.74-.2-1-.64-1a1.28,1.28,0,0,0-.95.51v3.47H66.51Z" style="fill:#251e1c"/><path d="M74.52,201.41h1.24l.11.66h0a2.15,2.15,0,0,1,1.56-.79,1.44,1.44,0,0,1,1.43.87,2.23,2.23,0,0,1,1.61-.87c1.12,0,1.62.79,1.62,2.08v3.2H80.6v-3c0-.74-.2-1-.64-1a1.31,1.31,0,0,0-.87.51v3.47H77.56v-3c0-.74-.21-1-.64-1a1.37,1.37,0,0,0-.88.51v3.47H74.52Z" style="fill:#251e1c"/><path d="M85.26,205.13c0-1.08.86-1.67,2.9-1.89a.71.71,0,0,0-.81-.74A2.86,2.86,0,0,0,86,203l-.54-1a4.2,4.2,0,0,1,2.2-.68c1.32,0,2,.75,2,2.33v2.95H88.44l-.11-.53h0a2.22,2.22,0,0,1-1.5.66A1.48,1.48,0,0,1,85.26,205.13Zm2.9-.07v-.9c-1.09.15-1.44.46-1.44.85s.23.5.59.5A1.13,1.13,0,0,0,88.16,205.06Z" style="fill:#251e1c"/><path d="M93,199.28h1.5v4.17h0l1.63-2h1.66l-1.81,2.12,2,3H96.35l-1.16-2-.65.74v1.27H93Z" style="fill:#251e1c"/><path d="M100.69,199.85a.82.82,0,0,1,.89-.79.8.8,0,1,1,0,1.59A.82.82,0,0,1,100.69,199.85Zm.12,1.56h1.53v5.15h-1.53Z" style="fill:#251e1c"/><path d="M105.76,201.41H107l.11.65h0a2.34,2.34,0,0,1,1.66-.78c1.12,0,1.6.79,1.6,2.08v3.2h-1.53v-3c0-.74-.2-1-.64-1a1.3,1.3,0,0,0-1,.51v3.47h-1.52Z" style="fill:#251e1c"/><path d="M113.46,207.45a1.2,1.2,0,0,1,.73-1v0a1,1,0,0,1-.47-.88,1.26,1.26,0,0,1,.57-1v0a1.67,1.67,0,0,1-.69-1.34,1.92,1.92,0,0,1,2.13-1.87,2.48,2.48,0,0,1,.8.13h1.89v1.11h-.83a1.41,1.41,0,0,1,.17.68c0,1.19-.9,1.73-2,1.73a2.21,2.21,0,0,1-.63-.1.44.44,0,0,0-.17.38c0,.26.2.38.77.38h.83c1.27,0,2,.39,2,1.31s-1.12,1.85-2.89,1.85C114.42,208.75,113.46,208.36,113.46,207.45Zm3.58-.29c0-.32-.28-.4-.79-.4h-.53a3.12,3.12,0,0,1-.73-.06.64.64,0,0,0-.27.5c0,.4.45.6,1.14.6S117,207.52,117,207.16Zm-.6-4c0-.55-.3-.84-.71-.84s-.7.29-.7.84.3.86.7.86S116.44,203.71,116.44,203.15Z" style="fill:#251e1c"/><path d="M125.55,201.41h1.25l.11.5h0a2.28,2.28,0,0,1,1.46-.63c1.25,0,2,1,2,2.62,0,1.77-1.06,2.79-2.17,2.79a1.81,1.81,0,0,1-1.23-.54l0,.81v1.52h-1.53Zm3.31,2.51c0-.92-.28-1.39-.89-1.39a1.19,1.19,0,0,0-.89.46v2.12a1.24,1.24,0,0,0,.82.33C128.43,205.44,128.86,205,128.86,203.92Z" style="fill:#251e1c"/><path d="M133.5,205v-5.68H135V205c0,.33.15.43.27.43a.72.72,0,0,0,.19,0l.18,1.13a2,2,0,0,1-.77.13C133.86,206.69,133.5,206,133.5,205Z" style="fill:#251e1c"/><path d="M138.31,205.13c0-1.08.86-1.67,2.9-1.89a.71.71,0,0,0-.81-.74A2.86,2.86,0,0,0,139,203l-.54-1a4.2,4.2,0,0,1,2.2-.68c1.32,0,2.05.75,2.05,2.33v2.95h-1.25l-.11-.53h0a2.26,2.26,0,0,1-1.5.66A1.49,1.49,0,0,1,138.31,205.13Zm2.9-.07v-.9c-1.08.15-1.44.46-1.44.85s.23.5.59.5A1.13,1.13,0,0,0,141.21,205.06Z" style="fill:#251e1c"/><path d="M146.12,204.69V202.6h-.71v-1.13l.79-.06.18-1.37h1.26v1.37h1.24v1.19h-1.24v2.07c0,.58.27.82.67.82a1.53,1.53,0,0,0,.49-.1l.24,1.11a3.48,3.48,0,0,1-1.14.19C146.62,206.69,146.12,205.88,146.12,204.69Z" style="fill:#251e1c"/><path d="M151.54,201.47l.77-.06h2.37v1.19h-3.14Zm.69-.33a1.75,1.75,0,0,1,1.9-2,3.06,3.06,0,0,1,1,.18l-.27,1.13a1.53,1.53,0,0,0-.54-.11c-.37,0-.58.2-.58.74v5.46h-1.53Z" style="fill:#251e1c"/><path d="M157.18,204a2.52,2.52,0,1,1,2.51,2.7A2.53,2.53,0,0,1,157.18,204Zm3.46,0c0-.89-.32-1.48-.95-1.48s-.94.59-.94,1.48.31,1.46.94,1.46S160.64,204.88,160.64,204Z" style="fill:#251e1c"/><path d="M165.32,201.41h1.25l.11.9h0a1.75,1.75,0,0,1,1.47-1,1.35,1.35,0,0,1,.61.11l-.25,1.31a2.36,2.36,0,0,0-.56-.08,1.27,1.27,0,0,0-1.13,1v3h-1.53Z" style="fill:#251e1c"/><path d="M171.53,201.41h1.25l.11.66h0a2.13,2.13,0,0,1,1.56-.79,1.43,1.43,0,0,1,1.42.87,2.25,2.25,0,0,1,1.62-.87c1.11,0,1.61.79,1.61,2.08v3.2h-1.53v-3c0-.74-.2-1-.63-1a1.34,1.34,0,0,0-.88.51v3.47h-1.53v-3c0-.74-.2-1-.63-1a1.32,1.32,0,0,0-.88.51v3.47h-1.53Z" style="fill:#251e1c"/><path d="M80.37,94.39S73,91.25,68.9,88.11,59,86.49,54.67,87.62c0,0-.43,5.09-4.56,6a2.37,2.37,0,0,1-2-.88,8.2,8.2,0,0,1-1.71-6.55,5.94,5.94,0,0,1,3.22-4.5l5.5-2.23a20.71,20.71,0,0,1,6-1.15L81.57,78" style="fill:#fff"/><path d="M86.16,64.51l10.27-14.7c3.09-4.4,5.62-9.26,8.39-13.86l4.12-6.86-1.53.86h15.25l-1.53-2.61L109.79,46.49c-3.22,5.45-7.05,10.6-10.59,15.85l-5.62,8.33c-1.26,1.87,2.32,3.82,3.57,2,4.21-6.25,7.95-12.62,12.16-18.87,3.31-4.91,6.23-10.08,9.25-15.17l5.63-9.51a1.75,1.75,0,0,0-1.53-2.61H109.73c-1.44,0-3-.31-3.93,1s-1.57,2.61-2.35,3.9C99.49,38,95.72,44.72,91.29,51L83.1,62.76c-1.29,1.85,1.78,3.58,3.06,1.75Z" style="fill:#5f4030"/><path d="M69.24,78.31s3.47,6.92,6.8,10.4,7.88,10.16,8,17.77l.45,12.58s-1,6.86-3.9,7.53c0,0-3.3.8-3.3,3.44,0,0-.1,1.15,1.58,1.63,0,0,1.38.71,4.94-.26,0,0,3.62-1.24,3.44-4.58a4.84,4.84,0,0,1,1.52-3.27s1.82-2.32,1.94-4.14c0,0-.1-11.73.7-15.2a13.51,13.51,0,0,1,2.66-6.87s15.66,3.48,31-3.83l6.33-2.05c1.58,15.79,16,20.89,16,20.89,2.55.85,10.4,5.28,10.4,5.28,2.67,1.58,2.57,3.36,2.57,3.36v6.31a15.44,15.44,0,0,0-3.16,1.18c-2.27.89-1.36,4.11-1.36,4.11a2.39,2.39,0,0,0,2.15.63,5.65,5.65,0,0,0,3.06,0c2.86-.4,3.75-1.78,3.75-1.78,3.84-2.46,2.17-15.88,2.17-15.88.1-4-2.5-4.17-2.5-4.17-3.28-1.48-12-9-11.81-24.14s-7.59-19-7.59-19c-3-2.43-14.59-3.44-14.59-3.44-9.46-1.79-14.51-2.1-21.17-4A67.21,67.21,0,0,1,87.65,50.6C83,47.35,78.19,39.66,74.84,35.68c-2.5-3-4.87-5.4-10.31-5.59a17.28,17.28,0,0,0-8,1.13c-1,.36-3.74,2.17-4.52,3.6a11,11,0,0,1-2,2.93c-3.26,3.35-9.44,2.06-12.37,4.76-2,1.85-2.08,3.32-1.71,5.81.43,2.85,4.18,6,8.16,7.08a17.2,17.2,0,0,0,8.55.73c2.23-.32,3.88-1.4,6,.72,2.87,2.94,4.79,6.27,7.68,12.3,4.66,9.72,1.92,12.27,5.87,17.14" style="fill:#fff"/><path d="M96.66,78.58c2.46,1.49.23,7.7-1.39,13.46.13-.45-.79,2.35-.79,2.35a20,20,0,0,1-1.07,3c.71.64,2.89,1,5,1,.22-2.6,1.94-11.17,2.51-15.38,1.52-11.23,1.13-14.32,4.49-23.21-1.15-.46-2.34-.85-3.46-1.33-6.33,11.31-9.77,16.67-33.36,19.86,0,0,.21,1.27.22,1.3,0,.29.09.57.13.84,0,.12,0,.24.07.36l.09.5c0,.14.06.28.1.42l.09.41c0,.15.09.3.14.46a2,2,0,0,0,.11.35,5.1,5.1,0,0,0,.19.5l.12.32c.08.17.18.35.27.53s.09.19.15.29.24.41.37.61.1.16.16.25c.2.29.42.59.67.89l3.92,2.42C90.3,86.09,92.94,76.34,96.66,78.58Z" style="fill:#5f4030"/><path d="M137.56,66s9.6,1,16.26-1.59c0,0,20.47-8.62,26.45-10.19s-.78,4.9-.78,4.9S162.44,72.89,148,75.83" style="fill:#fff"/><path d="M121.77,92.35s3.46,4.87,7.24,7.26,3.78,7,3.78,10.34c0,0-4.33,1.19-4.33,4.5,0,0,.09,1.31,1.26,1.31,0,0,3.8,1.4,6.29,0,0,0,3.27-1.57,3.27-3.23l.26-6.93-3.8-17.83" style="fill:#fff"/><path d="M70.79,37.06c2.86,2.06,3.79,6.21,3.79,6.21,1.42,5.11-2.52,5.8-2.52,5.8a18.5,18.5,0,0,0-5.16,2.6c-3.16,2.75-4,.7-4,.7a6.52,6.52,0,0,1,.78-7.79c3.93-3.69,2.59-7.52,2.59-7.52S65,32.87,70.79,37.06Z" style="fill:#5f4030"/><path d="M4.61,192.24a9.54,9.54,0,0,0-1.31-1.13,2.77,2.77,0,0,1,.29-.22H1.41V190h6v-.29H7.13a12,12,0,0,1-2.45-.25,2,2,0,0,1-1-.62,12.59,12.59,0,0,1-1.59,1.08c-.17-.38-.32-.68-.49-1a13,13,0,0,0,1.17-.69v-.88H1.61v-1H4v1.64a1.71,1.71,0,0,0,1,.66,11.53,11.53,0,0,0,2.32.2c.82,0,1.76-.05,2.84-.1l.43,0-.3,1H9.37l-.71,0v.3h1.79v.92H8.66v.41c0,.76-.31,1.23-1.34,1.23a7.21,7.21,0,0,1-.89,0c-.09-.39-.18-.72-.28-1.09h0c.32,0,.53,0,.85,0s.31,0,.31-.29v-.26H4.82a6.85,6.85,0,0,1,.68.57ZM3.12,186A11.66,11.66,0,0,0,1.44,185l.7-.7a10.61,10.61,0,0,1,1.78,1Zm.1-1.65a6.39,6.39,0,0,0-1.48-.93l.71-.68a8.68,8.68,0,0,1,1.6.91Zm1.5,4v-3.63h1.5a1,1,0,0,0,.18-.4H4.15v-.76H5.52c-.07-.1-.14-.18-.2-.28a1.81,1.81,0,0,1-.18-.27l1.27-.12a3.57,3.57,0,0,1,.51.67h.86a7.81,7.81,0,0,0,.44-.73l1.33.16c-.14.23-.21.29-.32.46h0l-.09.11h1.19v.76H7.88c-.08.16-.13.25-.22.4H9.75v3.63Zm1.21-2.62H8.54v-.33H5.93Zm0,.93H8.54v-.35H5.93Zm0,1H8.54v-.41H5.93Z" style="fill:#251e1c"/><path d="M34.9,186.46c-1.29,0-2.4,0-3.49,0l-1.85,0H29c-1.12,0-1.92-.06-1.92-1.18v-.76h-.77v-1.13h3.8v-.59h1.41v.59h3.89v1.13h-7V185c0,.27.08.33.38.33H29c.71.05,1.68.1,2.75.1s2.16,0,3.19-.12ZM33,192.54v-.36H28.66v.46H27.29v-5.73H34.4v5.63Zm-4.37-4H33V188H28.66Zm0,1.32H33v-.46H28.66Zm0,1.37H33v-.54H28.66Z" style="fill:#251e1c"/><path d="M59.59,192.43a8.76,8.76,0,0,1-3.86-3.91,8.5,8.5,0,0,1-3.81,4.09c-.29-.47-.51-.85-.78-1.3a6.27,6.27,0,0,0,3.68-4.85H51.44V185.1H55v-2.23h1.43v2.23h3.78v1.36H56.51a7,7,0,0,0,4,4.51ZM58.5,185a8.91,8.91,0,0,0-1.58-1.06c.27-.37.5-.64.76-1a8,8,0,0,1,1.66,1Z" style="fill:#251e1c"/><path d="M79.2,185.61a18.56,18.56,0,0,1-2.48,1.25c-.17-.38-.34-.74-.49-1.12.59-.22,1.55-.66,2.34-1.05ZM81.53,183a3.84,3.84,0,0,1-.22.39H84.4l.81.44c-.19.49-.45,1.07-.67,1.58l-1-.34c.1-.2.24-.47.35-.74H82.6c.42.85,1,1.12,2.23,1.55l-.65,1.07-.26-.11v4.26h-1.4a14.2,14.2,0,0,0,2.42.47l.22,0-.65,1.07a11,11,0,0,1-3.27-1l.71-.57H79.41l.81.57A9.47,9.47,0,0,1,77,192.71c-.25-.37-.48-.73-.7-1.09a9.1,9.1,0,0,0,2.66-.54H77.44V186.6h2.08l-.43-.53a4.54,4.54,0,0,0,2.22-1.76h-.68a7.75,7.75,0,0,1-1.06,1l-.83-.86a4.81,4.81,0,0,0,1.59-1.68Zm-5,1.24v-1.09h2.31v1.09Zm2.19,3.68h3.91v-.42H78.74Zm0,1.19h3.91v-.42H78.74Zm0,1.2h3.91v-.43H78.74Zm3.18-4.94a4.23,4.23,0,0,1-1.47,1.25h3A4.6,4.6,0,0,1,81.92,185.35Z" style="fill:#251e1c"/><path d="M101,185.79V184.6h3.54v1.19Zm5.55.8h.8v-2.22h-2.74v-1.23h4c0,1.42,0,2.75,0,3.76,0,.28,0,.54,0,.79s0,.5,0,.69a8.81,8.81,0,0,0,.22,2.34c0,.08.08.18.14.18h0c.08,0,.14,0,.2-.23a4.6,4.6,0,0,0,.14-.91l.94.66a5.64,5.64,0,0,1-.45,1.56.91.91,0,0,1-.84.49,1.52,1.52,0,0,1-1-.68,7.66,7.66,0,0,1-.62-3.12v-.15c0-.06,0-.26,0-.37s0-.25,0-.39h-.81a9.13,9.13,0,0,1-1.28,5l-1-.76v.59h-1.21v-.34h-.58v.45h-1.16V189h3v2.79a7.07,7.07,0,0,0,1-4h-.84v-1.17h.85v-1.94h1.23Zm-5.17-2.27v-1.13h2.84v1.13Zm0,2.86v-1.12h2.76v1.12Zm0,1.41v-1.1h2.76v1.1Zm1.07,2.62h.58V190h-.58Z" style="fill:#251e1c"/><path d="M126.63,184.82c.07-.64.13-1.32.18-2L128,183c-.06.66-.12,1.27-.19,1.87h1.57a26.79,26.79,0,0,1-.26,3.09h2v-.67h-1.27v-2.75h-1.06v-1.08h1.06v-.57h1.33v.57h1.25v-.61h1.33v.61h1.24v1.08h-1.24v2.75h-1.32v.67h2.48v1.2h-2.19a11,11,0,0,0,2.57,2l-.82,1.13a13,13,0,0,1-2.06-2c0,.22,0,.48,0,.75v1.56H131v-1.44a5.49,5.49,0,0,1,.07-.55l0-.24a9.32,9.32,0,0,1-1.9,2c-.29-.33-.56-.61-.85-.93a7.84,7.84,0,0,0,2.3-2.4h-1.77v-.38c-.06.27-.14.53-.22.78.21.18.42.36.65.58l-.79,1.09-.41-.47a7.91,7.91,0,0,1-1.53,1.84c-.27-.39-.48-.67-.76-1.08a5.23,5.23,0,0,0,1.41-1.6,13,13,0,0,0-1.34-1c.2-.8.39-1.75.54-2.78H126v-1.27Zm1.09,4a11,11,0,0,0,.4-2.72h-.52c-.13.87-.26,1.67-.42,2.35l.24.17Zm3.38-3.87h1.25v-.45H131.1Zm1.25,1.24v-.44H131.1v.44Z" style="fill:#251e1c"/><path d="M153.05,187.16v-.65a11,11,0,0,1-1.48.9c-.28-.45-.5-.85-.76-1.31a6.56,6.56,0,0,0,3.86-3.19h1.57a7.27,7.27,0,0,0,3.88,2.9l-.72,1.4a9.86,9.86,0,0,1-1.4-.73v.68Zm4.66,5.38V192h-4.48v.64h-1.41v-4.61h7.3v4.49Zm-4.48-1.74h4.48v-1.5h-4.48Zm.63-4.91h3.32a9.07,9.07,0,0,1-1.72-1.73A8.54,8.54,0,0,1,153.86,185.89Z" style="fill:#251e1c"/><path d="M179.68,192.62v-3.24h-3.8v-1.31h3.8v-3.6H176.2v-1.28h8.36v1.28h-3.41v3.6h3.73v1.31h-3.73v3.24Zm-.79-7.58a10.79,10.79,0,0,1-1.23,3l-1.29-.67a9.19,9.19,0,0,0,1.15-2.66ZM183,188a18.42,18.42,0,0,0-1.14-2.79l1.25-.47a26.59,26.59,0,0,1,1.23,2.75Z" style="fill:#251e1c"/><path d="M205.38,183.27a32.69,32.69,0,0,1-1.89,2.85c1.29,0,2.39-.11,3.59-.21-.33-.34-.66-.66-1-1,.35-.29.63-.55,1-.84a17.31,17.31,0,0,1,1.26,1.19c.16.15.31.31.45.47.37.36.73.77,1.17,1.21l-1,1.05c-.29-.36-.55-.69-.82-1-2.83.23-4.51.34-7.1.51l-.24-1.35H202a30.71,30.71,0,0,0,2.07-3.37Zm2,9.24v-.42h-4.36v.55H201.7V188h7v4.56Zm-4.36-1.65h4.36v-1.68h-4.36Z" style="fill:#251e1c"/><path d="M17.09,170.29h0a3.21,3.21,0,0,1-3.21,3.21H0V148.93a3.2,3.2,0,0,1,3.2-3.2h0a3.2,3.2,0,0,1,3.2,3.2v18.16h7.48A3.21,3.21,0,0,1,17.09,170.29Z" style="fill:#5f4030"/><path d="M45.8,154.27h0a2.14,2.14,0,0,0,2.14,2.14h5.34a3.2,3.2,0,0,1,3.2,3.2h0a3.2,3.2,0,0,1-3.2,3.2H47.94A2.14,2.14,0,0,0,45.8,165h0a2.14,2.14,0,0,0,2.14,2.14h5.34a3.2,3.2,0,0,1,3.2,3.2h0a3.2,3.2,0,0,1-3.2,3.2H41.53a2.14,2.14,0,0,1-2.14-2.14V147.87a2.14,2.14,0,0,1,2.14-2.14H53.28a3.2,3.2,0,0,1,3.2,3.2h0a3.21,3.21,0,0,1-3.2,3.21H47.94A2.13,2.13,0,0,0,45.8,154.27Z" style="fill:#5f4030"/><path d="M87.33,145.8h0a6.92,6.92,0,0,0-6.9,6.39l-1.38,17.94a3.2,3.2,0,0,0,3.18,3.44h0a3.19,3.19,0,0,0,3.18-2.95l.39-5.12a1.52,1.52,0,0,1,1.52-1.4h0a1.53,1.53,0,0,1,1.52,1.4l.39,5.12a3.2,3.2,0,0,0,3.18,2.95h0a3.2,3.2,0,0,0,3.19-3.44l-1.38-17.94A6.92,6.92,0,0,0,87.33,145.8Zm0,11.89a.84.84,0,0,1-.84-.91l.35-4.58h1l.35,4.58a.85.85,0,0,1-.85.91Z" style="fill:#5f4030"/><path d="M157.57,153.21v10.67a9.62,9.62,0,0,0,9.61,9.62h0a7.48,7.48,0,0,0,7.48-7.48V155.3a9.58,9.58,0,0,0-9.57-9.57H165A7.48,7.48,0,0,0,157.57,153.21Zm9.61,13.88h0a3.21,3.21,0,0,1-3.21-3.21V153.2a1.06,1.06,0,0,1,1.07-1.06h0a3.21,3.21,0,0,1,3.21,3.2V166A1.07,1.07,0,0,1,167.18,167.09Z" style="fill:#5f4030"/><path d="M215.12,159.93v2.14a2.14,2.14,0,0,1-2.14,2.14h0v2.88a6.41,6.41,0,0,1-6.41,6.41h-4.26a6.41,6.41,0,0,1-6.42-6.41V154.28a8.55,8.55,0,0,1,8.55-8.55h1.49a7,7,0,0,1,7,7.05h0a2.13,2.13,0,0,1-2.13,2.14h-1.49a2.78,2.78,0,0,1-2.78-2.78h0a4.27,4.27,0,0,0-4.27,4.27V165a2.13,2.13,0,0,0,2.13,2.14h0a2.14,2.14,0,0,0,2.14-2.14v-.74h0a2.13,2.13,0,0,1-2.13-2.14v-2.14a2.13,2.13,0,0,1,2.13-2.13H213A2.14,2.14,0,0,1,215.12,159.93Z" style="fill:#5f4030"/><path d="M118.18,150.77v17.57a5.23,5.23,0,0,0,5.23,5.23h0a11.92,11.92,0,0,0,11.86-12v-4.09a11.91,11.91,0,0,0-11.86-12h0A5.23,5.23,0,0,0,118.18,150.77ZM124.66,167h0V152.08h0a4.14,4.14,0,0,1,4.13,4.16v6.62A4.15,4.15,0,0,1,124.66,167Z" style="fill:#5f4030"/></g></g></svg>