<svg xmlns="http://www.w3.org/2000/svg" width="632.71" height="641.46" viewBox="0 0 632.71 641.46"><title>logo</title><g id="圖層_2" data-name="圖層 2"><g id="圖層_1-2" data-name="圖層 1"><path d="M49.54,572.26l-1.29,4.13c-1.28.05-2.7.08-4.27.08s-3,0-4.24-.08v2.41h9.63v3.94H39.74V587a4.2,4.2,0,0,1-3.86,4.57c-1.06.11-2.63.16-4.71.16-1.24,0-2.42,0-3.56-.08l-2-4.57,7.82.11A1.1,1.1,0,0,0,34.7,586v-3.26H.44V578.8H34.7v-2.41a98.62,98.62,0,0,1-14.53-.58,25.81,25.81,0,0,1-10.7-3.66A28,28,0,0,1,3,577.4l-3-3.53a15.8,15.8,0,0,0,8.68-9.25H1.45v-3.91A37.05,37.05,0,0,0,7.8,555H.71v-4H13.38v4a40.64,40.64,0,0,1-5.31,5.72h5.31v3.86a17.07,17.07,0,0,1-1.72,4.27A19.37,19.37,0,0,0,17,571.16a32.15,32.15,0,0,0,5.5,1c1.63.14,5.4.2,11.33.2Q39.55,572.39,49.54,572.26Z" style="fill:#251e1c"/><path d="M12,547.54l-3.15,2.9a38.35,38.35,0,0,0-7.22-5.14l3.15-3A34.85,34.85,0,0,1,12,547.54Z" style="fill:#251e1c"/><path d="M22.3,587.45l-2.87,3.69A48.66,48.66,0,0,0,9.2,587.23l2.62-3.94A48,48,0,0,1,22.3,587.45Z" style="fill:#251e1c"/><path d="M29.86,544.83l-4.3,1.76a28.83,28.83,0,0,0-5.66-2.69l4.54-1.8A19.94,19.94,0,0,1,29.86,544.83Z" style="fill:#251e1c"/><path d="M49.37,550.44v-3.58H14.67v3.58H28.82a14.82,14.82,0,0,1-1.21,2.25H17.16v17.65H46.85V552.69H33.12a20.14,20.14,0,0,0,1.23-2.25ZM42,567.08H22.09v-2H42Zm0-4.87H22.09v-1.78H42ZM42,556v1.72H22.09V556Z" style="fill:#251e1c"/><path d="M44.45,543.9a48.37,48.37,0,0,1-5.67,2.69l-4.32-1.76a29.4,29.4,0,0,0,5.44-2.73Z" style="fill:#251e1c"/><path d="M122.08,551.24H84v3.06a1.09,1.09,0,0,0,.34.72,1,1,0,0,0,.62.35h33.74v4H82.78A3.5,3.5,0,0,1,80,558.16a4.51,4.51,0,0,1-1.1-3.06v-3.86H73.31V547H95.56a27,27,0,0,0-1.78-3.53l5.2-1.17a39.12,39.12,0,0,1,2.08,4.7h21Z" style="fill:#251e1c"/><path d="M78.65,562.73v29h5v-2.63H112v2.57H117v-28.9ZM112,585.09H83.68v-3.8H112Zm0-7.52H83.68V574H112Zm0-7.34H83.68V566.7H112Z" style="fill:#251e1c"/><path d="M195.47,587.77l-3,4.49Q177,582.47,170.82,568.1q-4.24,13.57-21.63,24L145.77,588q19.85-11.43,21.41-26.16H146.79v-5h21q.63-10.32.66-14.07h5.12q-.5,12.11-.79,14.07h21.75v5H173.17A51.44,51.44,0,0,0,195.47,587.77Zm-5.25-36.53-3.2,4a48,48,0,0,0-10.43-7.06l2.76-4.14A47,47,0,0,1,190.22,551.24Z" style="fill:#251e1c"/><path d="M268.32,559.8,266,564.29a36,36,0,0,1-4.88-1.39V584H237.45l2.41,2.79a72.26,72.26,0,0,1-18.67,5.39l-2.41-4.48a66,66,0,0,0,15.3-3.7h-8.24V562.79h10.6l-2.14-3.09q9.82-2.51,14.64-8.74l5.09,1.13A8.58,8.58,0,0,1,252.8,554,45.44,45.44,0,0,0,268.32,559.8Zm-32.79-1.56H219.22v-4.59h16.31Zm-.49-8.92H220v-4.49H235Zm21,19.41v-2h-25v2Zm0,5.72v-2.08h-25v2.08Zm0,5.83v-2.19h-25v2.19ZM267.33,550a65.2,65.2,0,0,1-4.89,6.27l-4.25-2.52q.72-.83,3-3.75H243.55a45.71,45.71,0,0,1-4.92,4.93l-3.81-3.26a33.65,33.65,0,0,0,8.35-9.52l4.6,1.56a5.35,5.35,0,0,1-1.07,2h20.63Zm-6.78,12.84a44.18,44.18,0,0,1-11-5.39,29.88,29.88,0,0,1-9.11,5.39ZM268,588.05l-2.68,4.32A86.82,86.82,0,0,0,248.89,589l2.57-4.21A71.76,71.76,0,0,1,268,588.05Z" style="fill:#251e1c"/><path d="M309.93,552H291.75v-4.51h7.17a18.47,18.47,0,0,0-1.78-3.48l4.93-1.86a44.56,44.56,0,0,1,2.46,5.34h5.4Zm-1.24,8.32h-15.6v-4.48h15.6Zm0,8.19h-15.6v-4.44h15.6Zm.06,21.84h-4.93v-2.52h-5.88v3.86h-4.85V572.26h15.66Zm-4.93-7.12v-6.32h-5.88v6.32Zm37.39-4.65a38.57,38.57,0,0,1-1.52,8q-1.14,3.62-2.19,4.53a3.62,3.62,0,0,1-2.42.9,3.85,3.85,0,0,1-2.89-1.27q-1.21-1.28-2.33-7.52A64.71,64.71,0,0,1,328.75,572V548.61h-7.58v15.11h6v4.84h-6v23.18h-4.81V568.56h-5.2v-4.84h5.2V548.61h-4.55V543.9h21.76v29.21a43.69,43.69,0,0,0,1.81,12.58,47.78,47.78,0,0,0,1.34-9.85Z" style="fill:#251e1c"/><path d="M383.5,581.51,380,585.09c-2.26-2.73-3.57-4.29-3.91-4.65q-2.22,4.78-8.54,11.55l-3.07-4q5.89-6.07,8.08-11.35-3.72-3.84-6.85-6.57,1.59-6.27,2.58-11.44c-1.12.14-2.22.23-3.31.27l-.44-4.6,4.6-.38q1.33-9.52,1.45-11.88l4.7.74c-.51,4.67-.95,8.18-1.34,10.54,1.24-.15,2.33-.32,3.26-.52.14-1.72.22-3.18.22-4.38h4.65c0,.36,0,1.56-.11,3.58a6.39,6.39,0,0,0,1.4-.21l.11,4.7a5.83,5.83,0,0,1-1.86.36,92.57,92.57,0,0,1-3.48,18.42C380.81,578.22,382.58,580.3,383.5,581.51Zm-6.74-23.84c-.78.13-2,.26-3.53.41q-.84,4.92-2.13,10.37l3.26,3A91.63,91.63,0,0,0,376.76,557.67Zm16.31,21a53.48,53.48,0,0,1-7.55,11.71l-4-2.79a47.29,47.29,0,0,0,7.25-11.11Zm20.75-3.92H400.49v16.54h-4.9V574.77H382.1V570.4h13.49v-3.59h-8.34v-16h-3.43v-4.29h3.43v-3.94h4.87v3.94h11.71v-3.94h4.84v3.94h4.25v4.29h-4.25v16h-8.18v3.59h13.33Zm-10-20.17v-3.83H392.12v3.83Zm0,7.94v-3.86H392.12v3.86Zm10.48,25.34-4.18,2.63a105.67,105.67,0,0,0-7-11.66l4.14-2.41A100.38,100.38,0,0,1,414.31,587.88Z" style="fill:#251e1c"/><path d="M487.42,558.24l-2.93,4.3a100,100,0,0,1-22.36-13.76,121.28,121.28,0,0,1-21.51,13.49l-3.37-4.08q15.83-7.26,24-15.82l5.33,1.92c-.31.36-.61.7-.9,1Q473.68,552.14,487.42,558.24Zm-6.95,33.59h-5.23V589H449.08v2.88h-5.34V569.05h36.73Zm-5.23-7.8V573.87H449.08V584Zm-.16-20.91H449.46V558.3h25.62Z" style="fill:#251e1c"/><path d="M559.65,574.34H537.84v17.49h-5.09V574.34H510.88v-5h21.87V549.27H512.33v-4.93h46.14v4.93H537.84v20.11h21.81Zm-32.73-9.25-4.77,2.19a69.79,69.79,0,0,0-7.22-13.2l4.71-2.35A76.83,76.83,0,0,1,526.92,565.09Zm29.25-11a61.93,61.93,0,0,1-8,13.3l-4.6-2.3a63.53,63.53,0,0,0,8-13.3Z" style="fill:#251e1c"/><path d="M632.71,563.06l-4.32,3.48a53.56,53.56,0,0,0-3.48-4.93q-21.61,2.55-40.06,3.07L583.67,560q8-2.6,17.46-17.71l5.67,1.12a76.23,76.23,0,0,1-13.28,16.1q11-.42,27.7-2.19a76.18,76.18,0,0,0-8.43-7.86l4.32-3.31A88.43,88.43,0,0,1,632.71,563.06Zm-5,28.57h-5.09v-2.51H593.19v2.51h-5.11V568.45h39.68Zm-5.09-7.39V573.32H593.19v10.92Z" style="fill:#251e1c"/><path d="M6.53,412.05h10a6.53,6.53,0,0,1,6.53,6.53v69.76a6.53,6.53,0,0,0,6.53,6.53H62a6.53,6.53,0,0,1,6.53,6.52v6.4A6.53,6.53,0,0,1,62,514.32H6.53A6.53,6.53,0,0,1,0,507.79V418.58A6.53,6.53,0,0,1,6.53,412.05Z" style="fill:#251e1c"/><path d="M109.29,412.05h54.39a6.53,6.53,0,0,1,6.53,6.53V425a6.53,6.53,0,0,1-6.53,6.53H132.35a6.53,6.53,0,0,0-6.53,6.52v7.5a6.54,6.54,0,0,0,6.53,6.53h24.59a6.52,6.52,0,0,1,6.53,6.52v6.24a6.53,6.53,0,0,1-6.53,6.53H132.35a6.53,6.53,0,0,0-6.53,6.53v10.47a6.54,6.54,0,0,0,6.53,6.53h32.9a6.52,6.52,0,0,1,6.53,6.52v6.4a6.53,6.53,0,0,1-6.53,6.53h-56a6.53,6.53,0,0,1-6.53-6.53V418.58A6.53,6.53,0,0,1,109.29,412.05Z" style="fill:#251e1c"/><path d="M266.91,490H246.16a6.55,6.55,0,0,0-6.33,4.9l-3.74,14.52a6.53,6.53,0,0,1-6.32,4.9h-9.61a6.53,6.53,0,0,1-6.23-8.47l27.78-89.21a6.53,6.53,0,0,1,6.23-4.59h18a6.52,6.52,0,0,1,6.23,4.59L300,505.85a6.53,6.53,0,0,1-6.23,8.47H283.21a6.54,6.54,0,0,1-6.34-4.94l-3.63-14.44A6.53,6.53,0,0,0,266.91,490Zm-8-18a6.53,6.53,0,0,0,6.34-8.11l-.33-1.31q-2-7.68-4.07-16.31t-4.09-16.63h-.62q-1.88,8.16-3.92,16.71t-4.08,16.23l-.33,1.31a6.53,6.53,0,0,0,6.33,8.11Z" style="fill:#251e1c"/><path d="M335.33,418.58a6.53,6.53,0,0,1,6.53-6.53h21.23a64.63,64.63,0,0,1,20.23,3,39.89,39.89,0,0,1,15.53,9.17,41.37,41.37,0,0,1,10,15.77q3.54,9.57,3.53,22.74t-3.53,22.9a43.08,43.08,0,0,1-9.87,16.08,40.26,40.26,0,0,1-15.14,9.49,57.56,57.56,0,0,1-19.46,3.14H341.86a6.53,6.53,0,0,1-6.53-6.53Zm26.5,77.07a32.94,32.94,0,0,0,10.91-1.72,20.47,20.47,0,0,0,8.47-5.57,26.42,26.42,0,0,0,5.49-10.12,52.92,52.92,0,0,0,2-15.53,51.53,51.53,0,0,0-2-15.29,25,25,0,0,0-5.49-9.89,19.9,19.9,0,0,0-8.47-5.25,36.12,36.12,0,0,0-10.91-1.57h-3.29v64.94Z" style="fill:#251e1c"/><path d="M477.63,516.2a37.77,37.77,0,0,1-16.71-3.69,36.64,36.64,0,0,1-13-10.59,50.51,50.51,0,0,1-8.39-16.78,85.6,85.6,0,0,1,0-44.78,48,48,0,0,1,8.39-16.47,36.41,36.41,0,0,1,13-10.2,41.29,41.29,0,0,1,33.41,0,36,36,0,0,1,13,10.28,48.88,48.88,0,0,1,8.4,16.54,76.57,76.57,0,0,1,3,22.2,77.91,77.91,0,0,1-3,22.43,50.52,50.52,0,0,1-8.4,16.78,36.64,36.64,0,0,1-13,10.59A37.75,37.75,0,0,1,477.63,516.2Zm0-19.92q8,0,12.7-9T495,462.71q0-15.37-4.71-24t-12.7-8.62q-8,0-12.71,8.62t-4.71,24q0,15.53,4.71,24.55T477.63,496.28Z" style="fill:#251e1c"/><path d="M553.81,463.81A65.45,65.45,0,0,1,557.5,441a49.33,49.33,0,0,1,10-16.79,42.71,42.71,0,0,1,15-10.43,47.56,47.56,0,0,1,18.5-3.61q10.37,0,17.66,4a61.57,61.57,0,0,1,6.89,4.38,6.55,6.55,0,0,1,1,9.62l-4.12,4.62a6.52,6.52,0,0,1-8.54,1,29,29,0,0,0-2.83-1.7,21.85,21.85,0,0,0-10.05-2,19.34,19.34,0,0,0-9.25,2.27,22.37,22.37,0,0,0-7.37,6.51,32.75,32.75,0,0,0-4.94,10.35,48.55,48.55,0,0,0-1.8,13.81q0,15.84,6,24.54T602,496.28a19.73,19.73,0,0,0,5.65-.79h0a6.3,6.3,0,0,0,4.34-6.1V482.1a6.53,6.53,0,0,0-6.53-6.53h-1.85a6.52,6.52,0,0,1-6.52-6.52v-5.77a6.53,6.53,0,0,1,6.52-6.53h22.56a6.53,6.53,0,0,1,6.52,6.53v37.5a6.53,6.53,0,0,1-2.54,5.19,53.22,53.22,0,0,1-11.1,6.47,44.87,44.87,0,0,1-18.36,3.76,49.93,49.93,0,0,1-18.43-3.37,41.73,41.73,0,0,1-14.9-10,46.33,46.33,0,0,1-10-16.4A65.26,65.26,0,0,1,553.81,463.81Z" style="fill:#251e1c"/><path d="M4.85,614.64H8.5l3.21,9.84c.4,1.28.77,2.63,1.17,3.95H13c.4-1.32.75-2.67,1.15-3.95l3.14-9.84h3.66v20.13H18v-9.21c0-1.86.25-4.54.41-6.4h-.11l-1.47,4.68-3,9H11.9l-3-9-1.44-4.68H7.34c.15,1.86.41,4.54.41,6.4v9.21H4.85Z" style="fill:#251e1c"/><path d="M42.06,630.71c0-3.24,2.43-4.93,8-5.59-.05-1.63-.64-3-2.48-3a7,7,0,0,0-3.84,1.49l-1.19-2.37a10,10,0,0,1,5.62-2c3.41,0,5.09,2.33,5.09,6.54v8.95H50.68l-.25-1.68h-.09a6.29,6.29,0,0,1-4.24,2C43.71,635.14,42.06,633.34,42.06,630.71Zm8,0v-3.4c-3.71.52-4.94,1.59-4.94,3.12a1.76,1.76,0,0,0,2,1.92A4.19,4.19,0,0,0,50.1,630.72Z" style="fill:#251e1c"/><path d="M74.69,629.67v-7.2h-2v-2.66l2.12-.16.38-4.13H77.9v4.13h3.48v2.82H77.9v7.2c0,1.77.62,2.65,1.93,2.65a3.81,3.81,0,0,0,1.43-.35l.54,2.61a7.83,7.83,0,0,1-2.79.56C75.86,635.14,74.69,632.93,74.69,629.67Z" style="fill:#251e1c"/><path d="M100.42,627.22c0-5,3.21-7.94,6.86-7.94a5.55,5.55,0,0,1,4,1.7l-1.56,2.3a3.2,3.2,0,0,0-2.27-1.11c-2.2,0-3.73,2-3.73,5.05s1.51,5,3.63,5a4.28,4.28,0,0,0,2.83-1.31l1.3,2.34a6.36,6.36,0,0,1-4.46,1.86C103.28,635.14,100.42,632.23,100.42,627.22Z" style="fill:#251e1c"/><path d="M131.68,613h3.21v5.63l-.13,2.92a6.09,6.09,0,0,1,4.37-2.29c2.93,0,4.21,2.19,4.21,6v9.48h-3.21v-9c0-2.48-.65-3.42-2.12-3.42-1.21,0-2,.65-3.12,1.89v10.56h-3.21Z" style="fill:#251e1c"/><path d="M164.72,619.65h2.62l.25,2.06h.09c1.15-1.33,2.48-2.43,4.19-2.43a3.72,3.72,0,0,1,3.78,2.71c1.3-1.54,2.66-2.71,4.39-2.71,2.88,0,4.22,2.19,4.22,6v9.48h-3.2v-9c0-2.48-.67-3.42-2.11-3.42-.87,0-1.8.62-2.86,1.89v10.56h-3.21v-9c0-2.48-.67-3.42-2.1-3.42-.85,0-1.8.62-2.86,1.89v10.56h-3.2Z" style="fill:#251e1c"/><path d="M204.94,630.71c0-3.24,2.42-4.93,8-5.59,0-1.63-.63-3-2.48-3a7,7,0,0,0-3.84,1.49l-1.18-2.37a10,10,0,0,1,5.61-2c3.42,0,5.1,2.33,5.1,6.54v8.95h-2.63l-.24-1.68h-.09a6.34,6.34,0,0,1-4.25,2C206.58,635.14,204.94,633.34,204.94,630.71Zm8,0v-3.4c-3.71.52-4.94,1.59-4.94,3.12a1.77,1.77,0,0,0,2,1.92A4.19,4.19,0,0,0,213,630.72Z" style="fill:#251e1c"/><path d="M237.53,613h3.14v13.59h.09l5.06-7h3.51l-4.69,6.16,5.17,9h-3.49l-3.51-6.56-2.14,2.72v3.84h-3.14Z" style="fill:#251e1c"/><path d="M269.19,615a2,2,0,1,1,2,2A1.92,1.92,0,0,1,269.19,615Zm.37,4.65h3.2v15.12h-3.2Z" style="fill:#251e1c"/><path d="M294.36,619.65H297l.24,2h.09c1.23-1.31,2.62-2.41,4.49-2.41,2.93,0,4.21,2.19,4.21,6v9.48h-3.21v-9c0-2.48-.65-3.42-2.13-3.42-1.2,0-2,.65-3.11,1.89v10.56h-3.21Z" style="fill:#251e1c"/><path d="M326.51,637.52a3.89,3.89,0,0,1,2-3.23v-.12a3,3,0,0,1-1.23-2.53,3.74,3.74,0,0,1,1.51-2.82v-.12a5.4,5.4,0,0,1,3.6-9.42,5.6,5.6,0,0,1,2,.37h4.89v2.63h-2.49a4.31,4.31,0,0,1,.78,2.54,5.07,5.07,0,0,1-7.05,4.76,1.81,1.81,0,0,0-.67,1.45c0,.85.56,1.36,2.22,1.36h2.43c3.26,0,5,1.12,5,3.74,0,3-2.83,5.33-7.29,5.33C328.94,641.46,326.51,640.16,326.51,637.52Zm9.89-.82c0-1.17-.85-1.51-2.41-1.51h-1.88a6.73,6.73,0,0,1-1.85-.21,2.58,2.58,0,0,0-1.05,2c0,1.38,1.33,2.18,3.48,2.18S336.4,638,336.4,636.7Zm-1.67-12c0-1.9-1-3-2.37-3s-2.37,1.07-2.37,3,1.05,3,2.37,3S334.73,626.63,334.73,624.71Z" style="fill:#251e1c"/><path d="M405.58,619.65h2.62l.25,1.61h.09a6.33,6.33,0,0,1,4.11-2c3.42,0,5.38,3,5.38,7.7,0,5.17-2.79,8.16-5.83,8.16a5.21,5.21,0,0,1-3.52-1.66l.1,2.51v4.76h-3.2Zm9.16,7.36c0-3-.9-4.8-3-4.8a4.18,4.18,0,0,0-3,1.7v7a4,4,0,0,0,2.74,1.26C413.34,632.21,414.74,630.44,414.74,627Z" style="fill:#251e1c"/><path d="M438.61,630.88V613h3.2v18c0,.88.36,1.19.69,1.19a1.7,1.7,0,0,0,.5-.06l.4,2.64a4.13,4.13,0,0,1-1.69.31C439.44,635.14,438.61,633.51,438.61,630.88Z" style="fill:#251e1c"/><path d="M462.92,630.71c0-3.24,2.43-4.93,8-5.59,0-1.63-.63-3-2.48-3a7,7,0,0,0-3.84,1.49l-1.19-2.37a10,10,0,0,1,5.62-2c3.41,0,5.09,2.33,5.09,6.54v8.95h-2.62l-.25-1.68h-.09a6.29,6.29,0,0,1-4.24,2C464.57,635.14,462.92,633.34,462.92,630.71Zm8,0v-3.4c-3.71.52-4.94,1.59-4.94,3.12a1.76,1.76,0,0,0,2,1.92A4.19,4.19,0,0,0,471,630.72Z" style="fill:#251e1c"/><path d="M495.55,629.67v-7.2h-1.94v-2.66l2.11-.16.38-4.13h2.66v4.13h3.48v2.82h-3.48v7.2c0,1.77.62,2.65,1.94,2.65a3.76,3.76,0,0,0,1.42-.35l.55,2.61a7.94,7.94,0,0,1-2.8.56C496.72,635.14,495.55,632.93,495.55,629.67Z" style="fill:#251e1c"/><path d="M521.34,619.81l2-.16h5.71v2.82h-7.71Zm1.83-1.73c0-3.13,1.3-5.43,4.53-5.43a6.41,6.41,0,0,1,2.51.53l-.61,2.65a3.61,3.61,0,0,0-1.48-.36c-1.14,0-1.74.8-1.74,2.55v16.75h-3.21Z" style="fill:#251e1c"/><path d="M547.78,627.22c0-5,3.09-7.94,6.5-7.94s6.5,2.91,6.5,7.94-3.1,7.92-6.5,7.92S547.78,632.23,547.78,627.22Zm9.7,0c0-3-1.2-5.05-3.2-5.05s-3.21,2-3.21,5.05,1.21,5,3.21,5S557.48,630.25,557.48,627.22Z" style="fill:#251e1c"/><path d="M581.46,619.65h2.63l.24,2.7h.09c1-2,2.42-3.07,3.89-3.07a3.16,3.16,0,0,1,1.54.31l-.55,3.08a4.21,4.21,0,0,0-1.41-.25c-1.09,0-2.4.82-3.23,3.13v9.22h-3.2Z" style="fill:#251e1c"/><path d="M609.35,619.65H612l.25,2.06h.09c1.16-1.33,2.48-2.43,4.19-2.43a3.71,3.71,0,0,1,3.78,2.71c1.3-1.54,2.66-2.71,4.39-2.71,2.89,0,4.22,2.19,4.22,6v9.48h-3.2v-9c0-2.48-.67-3.42-2.11-3.42-.86,0-1.8.62-2.86,1.89v10.56h-3.2v-9c0-2.48-.67-3.42-2.11-3.42-.84,0-1.8.62-2.86,1.89v10.56h-3.2Z" style="fill:#251e1c"/><path d="M189.89,248.11s-27-11.46-41.87-22.94-36.21-5.9-52-1.77c0,0-1.57,18.58-16.66,22A8.65,8.65,0,0,1,72,242.16a30,30,0,0,1-6.27-23.94s1.36-11.89,11.78-16.41l20.08-8.16a75.6,75.6,0,0,1,22-4.2l74.63-1.11" style="fill:#251e1c"/><path d="M211,139l37.53-53.68c11.25-16.09,20.51-33.82,30.6-50.62l15-25-5.59,3.13h55.71l-5.58-9.52L297.33,73.19c-11.78,19.89-25.74,38.69-38.68,57.87L238.12,161.5c-4.6,6.82,8.47,13.95,13,7.17,15.39-22.82,29-46.08,44.43-68.9,12.09-17.92,22.74-36.8,33.74-55.39L349.91,9.64A6.38,6.38,0,0,0,344.33.12H297.11c-5.25,0-11-1.13-14.36,3.63C279.57,8.23,277,13.29,274.19,18c-14.49,24.12-28.26,48.72-44.41,71.82L199.86,132.6c-4.71,6.74,6.49,13.08,11.17,6.39Z" style="fill:#251e1c"/><path d="M146.7,189.38s12.65,25.26,24.8,38,28.82,37.1,29.4,64.88l1.61,45.95s-3.78,25.05-14.22,27.5c0,0-12,2.93-12,12.54,0,0-.36,4.21,5.77,6,0,0,5,2.59,18-1,0,0,13.21-4.55,12.57-16.73a17.61,17.61,0,0,1,5.56-12s6.65-8.48,7.08-15.1c0,0-.39-42.83,2.56-55.51,0,0,.8-13.92,9.7-25.11,0,0,57.18,12.74,113.26-14l23.09-7.45c5.76,57.64,58.53,76.27,58.53,76.27,9.31,3.1,38,19.29,38,19.29,9.73,5.76,9.37,12.25,9.37,12.25v23c-2.53,0-11.53,4.32-11.53,4.32-8.29,3.24-5,15-5,15,2.52,3.33,7.84,2.29,7.84,2.29,5.4,1.8,11.17,0,11.17,0,10.44-1.44,13.69-6.48,13.69-6.48,14-9,7.92-58,7.92-58,.36-14.41-9.12-15.24-9.12-15.24-12-5.39-43.72-32.94-43.12-88.12s-27.72-69.58-27.72-69.58c-10.94-8.89-53.28-12.57-53.28-12.57-34.55-6.53-53-7.66-77.32-14.43-32.64-9.08-55.21-20.52-79.42-37.29-17.12-11.87-34.53-39.92-46.77-54.47C158,22.85,149.37,14,129.49,13.29c-6.86-.23-15.46-1.16-29.33,4.12-3.51,1.33-13.64,7.93-16.48,13.14-3.23,5.94-4.63,8-7.27,10.72C64.49,53.49,41.92,48.78,31.23,58.65,23.92,65.4,23.62,70.79,25,79.86c1.56,10.4,15.28,21.78,29.82,25.87,12,3.39,18.54,4.5,31.21,2.67,8.16-1.18,14.17-5.13,21.71,2.6,10.5,10.76,17.5,22.92,28.06,44.95,17,35.48,7,44.78,21.42,62.58" style="fill:#251e1c"/><path d="M249.38,190.39c9,5.43.85,28.09-5.08,49.11.47-1.63-2.87,8.61-2.87,8.61-.11,2-4.1,11.31-3.92,10.75,2.61,2.35,10.55,3.61,18.06,3.61.84-9.52,7.09-40.81,9.18-56.17,5.56-41,4.11-52.28,16.4-84.78-4.19-1.65-8.56-3.09-12.62-4.84C245.42,158,232.84,177.56,146.7,189.19l.78,4.76c.17,1.05.33,2.07.5,3.07.07.45.16.88.24,1.33.11.6.22,1.21.34,1.81s.23,1,.35,1.53.21,1,.34,1.5.33,1.11.5,1.67.24.87.39,1.3c.21.6.47,1.21.71,1.81.15.39.28.77.45,1.16.29.64.64,1.29,1,1.94.19.36.34.71.55,1.08.4.72.89,1.47,1.37,2.21.19.3.35.6.56.91.73,1.06,1.54,2.14,2.44,3.26,0,0,14.28,8.8,14.31,8.84C226.14,217.81,235.8,182.17,249.38,190.39Z" style="fill:#fff"/><path d="M398.74,144.28s35.06,3.48,59.39-5.82c0,0,74.75-31.47,96.57-37.2s-2.86,17.89-2.86,17.89S489.6,169.58,437,180.31" style="fill:#251e1c"/><path d="M341.08,240.64s12.63,17.81,26.43,26.53,13.8,25.42,13.8,37.77c0,0-15.81,4.32-15.81,16.44,0,0,.32,4.78,4.62,4.78,0,0,13.87,5.1,22.95,0,0,0,11.95-5.74,11.95-11.8L406,289l-13.9-65.1" style="fill:#251e1c"/><path d="M154.9,38.73c10.44,7.56,13.85,22.69,13.85,22.69,5.18,18.68-9.21,21.2-9.21,21.2-9.42,2.54-18.82,9.5-18.82,9.5-11.54,10-14.75,2.53-14.75,2.53-9.2-16.51,2.85-28.44,2.85-28.44,14.38-13.46,9.48-27.48,9.48-27.48S133.78,23.43,154.9,38.73Z" style="fill:#fff"/></g></g></svg>