<svg xmlns="http://www.w3.org/2000/svg" width="4548.7" height="3130.57" viewBox="0 0 4548.7 3130.57"><title>map</title><g id="圖層_2" data-name="圖層 2"><g id="圖層_1-2" data-name="圖層 1"><path d="M1349.59,709.88c654.87-1138.73,2174.66-417.53,2618,65.18C4259,1092.39,4841.35,1992.78,4358.24,2560c-257.7,302.56-1005.62,718.68-1251.2,268.84-708.55,569.37-1462.45,201.23-1814-131.27C-428.72,2839.53-437.54,596.88,1349.59,709.88Z" style="fill:#abd6d6"/><path d="M2308.82,3130.57a1275.79,1275.79,0,0,1-243.69-23.87c-392.44-76.32-670.87-306.31-774.09-403.55-271.48,22.07-512.56-13.54-716.63-105.82-182.57-82.56-332.06-211.21-432.31-372C50.24,2077.93,1.12,1907.15,0,1731.38a963.79,963.79,0,0,1,136.31-500.12c102.16-171.09,257.53-309.54,449.33-400.38C800.8,729,1056.78,686.39,1346.58,704.27c204.7-354.18,507.05-555.8,898.67-599.25C2628.92,62.47,3004,182.47,3251.09,290.65c292.13,127.9,561.47,307.62,720.47,480.75,150,163.27,367.43,470.9,486.89,800.58,67.14,185.29,97.07,358.47,88.95,514.73-9.53,183.4-71.78,343.82-185,476.78-180.75,212.21-626,500.21-958.33,465.91-134-13.84-234.43-78.53-298.62-192.35-165.82,132.17-344.14,220.81-530.09,263.49A1188.52,1188.52,0,0,1,2308.82,3130.57ZM1295,2692l1.75,1.66c336.11,317.85,1094.92,703.12,1806.93,131l5-4.06,3.1,5.69c62.24,114,160.93,178.72,293.36,192.4,328.72,33.93,769.73-251.73,949-462.17,260.66-306,195.07-702.27,94.15-980.79-118.91-328.17-335.42-634.41-484.69-796.94C3665.37,454,2902.72,43,2246.45,115.78c-389.08,43.17-689.25,244-892.17,596.8l-1.67,2.92-3.36-.21C802.84,680.73,364.16,870.83,145.63,1236.81c-180.38,302.1-178.16,687.85,5.66,982.75,213.52,342.54,629.48,514.79,1141.27,472.6Z" style="fill:#a8e1e0"/><path d="M1349.59,709.88c654.87-1138.73,2098.81-628.76,2488-101.41,233,315.69,1003.78,1127.14,520.67,1694.33-257.7,302.56-1005.62,718.69-1251.2,268.84C2398.49,3141,1644.59,2772.87,1293,2440.38-428.72,2582.36-372.13,644.69,1349.59,709.88Z" style="fill:#00cdb5"/><path d="M1639.3,961.68q-59.65,32.21-121,60.69c-103.38,46.22-210.44,82.62-320.26,106.1q-43.23,9.26-86.86,15.91c-133.64,18.36-268.89,18.78-403,6.67q-32.91-3-65.72-6.9a215.35,215.35,0,0,0-3-32.14c-4.23-24.93-13.94-49.24-26.08-70.82-26.5-47.14-65.06-84.32-105.71-116.87q-14.74-11.8-30.1-22.68-32.77,19.68-63.16,40.94c10.12,6.55,20.14,13.27,30,20.3q14,9.95,27.49,20.62c2.18,1.72,4.34,3.45,6.49,5.21l1.95,1.61c4.38,3.75,8.74,7.51,13,11.4a383.57,383.57,0,0,1,48.26,51.91c1.77,2.33,7.83,11.68,1.16,1.43,1.48,2.28,3.1,4.47,4.59,6.74,3.26,4.94,6.37,10,9.28,15.19q3.92,7,7.36,14.22,1.69,3.6,3.26,7.26c.22.53.43,1,.64,1.58,0,.09.07.18.11.28a176.71,176.71,0,0,1,8.34,32.1c0,.3.09.61.14.92.2,2.37.41,4.74.53,7.12a164.44,164.44,0,0,1-.07,17.9c0,.49-.08,1-.12,1.46,0-.49-.21.59-.51,5.53-.32,2.13-.64,4.26-1,6.38q-1.38,8.05-3.22,16a303.32,303.32,0,0,1-9.85,33.74c-.95,2.67-2,5.31-3,8,5.45-14.67,1-2.49-.58,1.12q-3.63,8.54-7.76,16.81a313.51,313.51,0,0,1-19.27,33.41c-.68,1-1.38,2-2.07,3.06-.14.19-3.25,4.66-5,6.94q-6.45,8.48-13.4,16.45a332.27,332.27,0,0,1-31,31.13q-1.74,1.53-3.5,3c-2.76,2.22-5.53,4.44-8.34,6.59q-9.44,7.23-19.29,13.78A389.12,389.12,0,0,1,405,1387.13q-2.82,1.38-5.65,2.73l-.88.4,1.23-.51c-4.37,1.83-8.69,3.82-13.07,5.63q-13,5.37-26.34,9.92A530.08,530.08,0,0,1,302,1421.5q-15.94,3.48-32,6.1l-7.11,1.11-1.74.24q-9,1.23-18.13,2.21c-25.38,2.75-50.87,4.13-76.37,4.41-27.79.31-55.59-.7-83.32-2.75q-12.06-.88-24.09-2-9.18,34.5-15,69.35c81.49,8.63,163.56,9.07,244.82-4.39q11.53-1.92,23.07-4.29a1035.86,1035.86,0,0,0,70.2,179.08c37.27,73.86,84.95,143.18,140.41,202.28,63,67.13,137.68,123.32,218.79,161.76,105.29,49.92,215.91,75.94,330.82,82.12,130.51,7,262.57-12,389.76-44q-5.11,16.53-10.45,33-10,30.7-20.94,61-5.51,15.17-11.29,30.18c-.46,1.21-1.14,2.6-1.52,3.9l-1.67,4.2q-3.32,8.28-6.72,16.52a1238.16,1238.16,0,0,1-117.85,219l1.37-.11q23.51,22.23,49.39,44.59a1223.86,1223.86,0,0,0,109.66-194.76c28-62.73,51.12-127.71,71.75-193.61,54.74,66.47,116.72,125,186.85,173.88,86.61,60.32,184.63,103.93,284.67,130.19,197.25,51.77,405.6,42.32,602.3-7.42,86.87-22,171.66-53,253.31-91.76,28.86,125.63,68.9,247.5,117,366.09.41,1,.83,2,1.24,3A1523.18,1523.18,0,0,0,3107,2571.64c.16.3.34.59.5.89q-2.49-6.17-4.93-12.37a2279.63,2279.63,0,0,1-117.26-424.68q-8.94-51.3-15.65-103c-15.85-131.85-21.19-264.74-21.35-397.63-.13-116.49,4-233,2.09-349.47-1.68-103.28-7.92-209.37-34.5-309.08-12.31-46.2-29.33-91.89-51.44-133.73a965,965,0,0,1,40.05-134.3,877.73,877.73,0,0,1,96.36-178.57A808,808,0,0,1,3130.13,390c44.45-36.34,92.6-67.46,143.78-91.42,37.17-16.35,75.9-28.94,115.61-35.42q11.74-1.47,23.54-2.09c-47.06-25.81-96.36-50.17-147.51-72.73a675.24,675.24,0,0,0-124.12,64.79,815.89,815.89,0,0,0-153.94,132.15,894,894,0,0,0-131,188.31,972.82,972.82,0,0,0-66.16,161.78,390.26,390.26,0,0,0-32.13-31.58c-50.44-44-108.08-78.43-172.66-90.58-35.71-6.72-71.53-10.06-107.67-6.29-40.91,4.28-81,12.53-119.85,27.13-21.62,8.13-42.84,17.7-63.71,27.89-69.1-80.15-167.65-130.3-277.06-130.3-209,0-378.43,182.92-378.43,408.56M1418.66,2198.75c-.25.65-.51,1.29-.76,1.93C1418.44,2199.17,1420.69,2193.63,1418.66,2198.75ZM2017.21,662.86c141.9,0,256.93,124.18,256.93,277.38s-115,277.38-256.93,277.38-256.93-124.19-256.93-277.38S1875.31,662.86,2017.21,662.86Zm-1488.92,623-2.23,3.23,3.24-4.7,0,0-3.26,4.74Zm.93-1.36-.24.36Zm1151.41-157.31c27.1,56.76,66.16,105.77,113.58,143.17h0q-48.27,82.79-92.52,168.21c-42.57,82.65-81.83,167.35-116.53,254.19-19.2,48.06-37.27,96.63-53.61,145.9q-5.92,17.88-11.47,35.88a69.4,69.4,0,0,0-13.34,2.65c-74.52,22.59-150.16,40.77-226.79,52.6-91.5,12.36-184.22,15.23-275.87,3.33-61.86-9.9-122.63-26.82-180.65-52.1a674,674,0,0,1-131.82-83,724.67,724.67,0,0,1-108.13-117.14c-36-51.84-66-108.25-90-167.55q-14.9-39.61-26.23-80.62a381.83,381.83,0,0,0,37-25.47c32.85-25.63,62.43-56.58,85.54-92.47v0c58.95,8.13,118.13,14.39,177.43,18.09,83.53,5.22,167.39,5.32,250.87-1.15a1674.39,1674.39,0,0,0,249.37-38,1562.22,1562.22,0,0,0,214-66.59m651.3,1022c-76.21-12-151-32.94-222.42-64.24a819.89,819.89,0,0,1-164.13-103.21A879.61,879.61,0,0,1,1612,1936.25c-4.23-6.08-8.43-12.18-12.55-18.36a126.59,126.59,0,0,0-17.18-21.22q21.93-70.39,48.23-139.08,3.15-8.27,6.36-16.5l.2-.52c.21-.52.42-1,.62-1.55q1.85-4.66,3.7-9.33,6.72-16.82,13.65-33.53,13.92-33.54,28.71-66.66,28.35-63.54,59.56-125.53c33.62-66.93,69.5-132.51,107.05-197h0a354.21,354.21,0,0,0,166.82,41.77c209,0,378.43-182.92,378.43-408.55A438.07,438.07,0,0,0,2377.49,815l.7-.34c31.45-13.54,63.92-24.06,97.33-30a314,314,0,0,1,65.52-.42,281.94,281.94,0,0,1,53.76,15.77,308.72,308.72,0,0,1,49.72,31.57,393,393,0,0,1,51.5,56.25A483,483,0,0,1,2741.4,972c17.51,48,28.38,98.5,35.37,149.52,8.43,74.42,9.89,149.61,9.85,224.51,0,76.38-1.68,152.75-2.29,229.12-26.43,6.76-52.19,17.38-76.8,28.72-54,24.88-103.59,58.79-149.87,97.51a748,748,0,0,0-140.84,157.38,671.65,671.65,0,0,0-94.35,213.63c-14.8,60.69-20.42,122.95-18.25,185.15A1078.6,1078.6,0,0,1,2132.73,2249.11ZM2601,1754.21c2.16-1.77,4.21-3.43,0,0ZM2766.38,2149a1324.22,1324.22,0,0,1-334.09,98q-31.36,4.23-62.88,6.89c-.2-6.58-.33-13.15-.34-19.73,0-21.06.91-42.12,2.91-63.06.44-4.64,1-9.26,1.48-13.89.06-.47.12-.94.19-1.4q.53-3.93,1.11-7.84,2.22-15.06,5.17-30,5.68-28.74,14-56.76,4.14-13.9,8.91-27.59,2.17-6.2,4.45-12.34,1-2.74,2.09-5.5l.48-1.21a648.23,648.23,0,0,1,50-98.69q6.87-11.13,14.14-21.94,3.39-5.06,6.88-10l2.2-3.11,1.46-2q15.42-21.09,32.29-40.86a725.28,725.28,0,0,1,69.22-70.75q4.36-3.89,8.77-7.7c1.37-1.18,2.75-2.37,4.14-3.54l1.68-1.41c5.17-4.22,10.33-8.43,15.59-12.53q17.86-13.93,36.51-26.64a627.16,627.16,0,0,1,70.38-41.72c5.22-2.64,10.49-5.16,15.78-7.64l2.58-1.15q4.23-1.85,8.5-3.61c10.27-4.26,20.68-8.14,31.22-11.53,1-.32,2-.61,3-.92.36,91.4,3.07,182.79,10.3,273.88,5.36,67.41,12.89,134.74,23,201.6-3,1.25-6,2.63-9,4.18Q2787.59,2139.15,2766.38,2149Z" style="fill:#cecece"/><path d="M398.49,1390.26c-8.86,3.71-3.12,1.4,0,0Z" style="fill:#cecece"/><path d="M2335.79,2250.26a3.22,3.22,0,0,1-3.22-3.13c-.13-4.41-.19-8.94-.19-13.47q0-4,.06-8a3.23,3.23,0,0,1,3.23-3.17h0a3.23,3.23,0,0,1,3.18,3.27q-.08,3.95-.07,7.89c0,4.47.06,8.94.19,13.29a3.23,3.23,0,0,1-3.14,3.31Zm2.29-66.41h-.28a3.22,3.22,0,0,1-2.94-3.49c.86-10,2-20.85,3.37-33,.54-4.08,1.11-8.13,1.71-12.09a3.23,3.23,0,1,1,6.38,1c-.59,3.91-1.16,7.92-1.69,11.92-1.39,12-2.49,22.76-3.34,32.75A3.24,3.24,0,0,1,2338.08,2183.85Zm13.33-89.27a3.51,3.51,0,0,1-.71-.08,3.23,3.23,0,0,1-2.45-3.85c3.29-14.72,7.14-29.5,11.46-43.93a3.23,3.23,0,0,1,6.18,1.86c-4.27,14.27-8.09,28.9-11.34,43.47A3.22,3.22,0,0,1,2351.41,2094.58Zm25.88-86.47a3.25,3.25,0,0,1-3-4.41c5.55-14.15,11.55-28.18,17.86-41.7a3.23,3.23,0,1,1,5.85,2.73c-6.25,13.39-12.2,27.29-17.7,41.33A3.24,3.24,0,0,1,2377.29,2008.11Zm38.2-81.8a3.2,3.2,0,0,1-1.55-.4,3.23,3.23,0,0,1-1.28-4.38c7.29-13.26,15.1-26.38,23.21-39a3.23,3.23,0,1,1,5.43,3.49c-8,12.5-15.77,25.49-23,38.62A3.22,3.22,0,0,1,2415.49,1926.31Zm48.82-75.92a3.22,3.22,0,0,1-2.58-5.16c9-12.08,18.58-24,28.43-35.38a3.23,3.23,0,1,1,4.88,4.22c-9.75,11.28-19.21,23.07-28.14,35A3.24,3.24,0,0,1,2464.31,1850.39Zm59-68.31a3.23,3.23,0,0,1-2.3-5.49c10.84-11,21.82-21.56,32.61-31.48a3.23,3.23,0,1,1,4.37,4.75c-10.72,9.85-21.62,20.37-32.39,31.26A3.2,3.2,0,0,1,2523.33,1782.08Zm66.59-61a3.23,3.23,0,0,1-2.05-5.72c11.93-9.78,24-19.07,36-27.63a3.22,3.22,0,1,1,3.75,5.24c-11.84,8.48-23.83,17.69-35.65,27.38A3.21,3.21,0,0,1,2589.92,1721.09Zm73.46-52.44a3.23,3.23,0,0,1-1.69-6c13.14-8,26.51-15.4,39.74-22a3.22,3.22,0,1,1,2.88,5.77c-13.07,6.52-26.28,13.84-39.26,21.74A3.19,3.19,0,0,1,2663.38,1668.65Zm80.78-40.14a3.22,3.22,0,0,1-1.16-6.23,446.67,446.67,0,0,1,43.2-14.22,3.23,3.23,0,0,1,1.69,6.23,440,440,0,0,0-42.57,14A3.35,3.35,0,0,1,2744.16,1628.51Z" style="fill:#fff"/><path d="M3307,232.69a3.23,3.23,0,0,1-1-6.28c7.36-2.53,14.67-4.83,21.7-6.84a3.22,3.22,0,1,1,1.77,6.2c-6.92,2-14.12,4.25-21.38,6.74A3.22,3.22,0,0,1,3307,232.69Z" style="fill:#fff"/><path d="M2849.27,716.88a3.24,3.24,0,0,1-3.05-4.27c5-14.63,9.9-27.9,15-40.58a3.23,3.23,0,0,1,6,2.41c-5.06,12.57-9.93,25.74-14.88,40.25A3.24,3.24,0,0,1,2849.27,716.88Zm32.39-79.8a3.28,3.28,0,0,1-1.42-.33,3.23,3.23,0,0,1-1.48-4.32c5-10.17,10.24-20.17,15.69-29.73a23.68,23.68,0,0,0,2.34-5.73c.29-.92.57-1.84.91-2.76a3.23,3.23,0,0,1,6.07,2.19c-.3.82-.55,1.65-.81,2.47a29.09,29.09,0,0,1-3,7.13c-5.32,9.33-10.54,19.21-15.44,29.26A3.23,3.23,0,0,1,2881.66,637.08Zm39.89-76.24a3.23,3.23,0,0,1-2.73-5c3.28-5.21,6.55-9.95,10-14.48,4.67-6.73,9-13.6,13.23-20.25l.7-1.11a3.23,3.23,0,0,1,5.46,3.45l-.71,1.11c-4.25,6.72-8.65,13.67-13.41,20.53l-.08.11c-3.34,4.4-6.51,9-9.71,14.08A3.23,3.23,0,0,1,2921.55,560.84Zm48.55-71.15a3.23,3.23,0,0,1-2.54-5.22c9.82-12.54,18.05-23,27.17-33.61a3.23,3.23,0,1,1,4.9,4.2c-9,10.54-17.22,20.92-27,33.39A3.24,3.24,0,0,1,2970.1,489.69Zm54.82-66.28a3.23,3.23,0,0,1-2.33-5.46c2.79-2.9,5.54-5.8,8.29-8.68,7-7.39,14.27-15,21.77-22.34a3.23,3.23,0,1,1,4.51,4.63c-7.42,7.22-14.31,14.47-21.61,22.15q-4.12,4.34-8.3,8.71A3.23,3.23,0,0,1,3024.92,423.41Zm61.56-59.73a3.23,3.23,0,0,1-2.25-5.54c1.28-1.25,2.63-2.49,4-3.74,2.22-2,4.51-4.18,6.4-6.22a3.83,3.83,0,0,1,.29-.28c7.54-6.32,15-12.4,22.25-18a3.23,3.23,0,0,1,4,5.09c-7.11,5.56-14.48,11.54-21.91,17.78-2,2.17-4.36,4.33-6.62,6.42-1.31,1.21-2.62,2.42-3.86,3.63A3.22,3.22,0,0,1,3086.48,363.68Zm67.41-53.51a3.22,3.22,0,0,1-1.82-5.89c12.12-8.27,24.11-15.83,36.64-23.09a3.23,3.23,0,0,1,3.24,5.58c-12.4,7.19-24.25,14.66-36.25,22.84A3.19,3.19,0,0,1,3153.89,310.17Zm73.52-44.46a3.23,3.23,0,0,1-1.36-6.16c11.68-5.38,25.5-11.67,39.46-17.57a3.23,3.23,0,0,1,2.52,6c-13.89,5.86-27.65,12.13-39.28,17.48A3.19,3.19,0,0,1,3227.41,265.71Z" style="fill:#fff"/><path d="M2829.58,779.64a3.3,3.3,0,0,1-.92-.13,3.24,3.24,0,0,1-2.18-4c2.4-8.12,4.53-15.2,6.5-21.66a3.23,3.23,0,1,1,6.17,1.88c-2,6.44-4.08,13.51-6.48,21.61A3.22,3.22,0,0,1,2829.58,779.64Z" style="fill:#fff"/><path d="M3026.63,2598.53a6.45,6.45,0,0,1-6-4.18c-3.54-9.39-7-18.74-10.36-27.8a6.45,6.45,0,1,1,12.11-4.46c3.32,9,6.79,18.35,10.32,27.71a6.46,6.46,0,0,1-6,8.73ZM3001,2528.27a6.47,6.47,0,0,1-6.09-4.32c-5.06-14.45-10-28.87-14.6-42.86a6.45,6.45,0,1,1,12.25-4.06c4.61,13.93,9.5,28.28,14.53,42.65a6.47,6.47,0,0,1-6.09,8.59Zm-28.33-85.77a6.46,6.46,0,0,1-6.17-4.55c-4.49-14.52-8.83-29.13-12.92-43.43A6.45,6.45,0,0,1,2966,2391c4.06,14.2,8.38,28.72,12.84,43.16a6.44,6.44,0,0,1-4.26,8.07A6.26,6.26,0,0,1,2972.69,2442.5Zm-24.81-86.86a6.45,6.45,0,0,1-6.24-4.82c-3.82-14.58-7.5-29.37-11-44a6.45,6.45,0,1,1,12.56-3c3.43,14.51,7.1,29.2,10.88,43.68a6.45,6.45,0,0,1-6.24,8.09Zm-20.82-87.9a6.46,6.46,0,0,1-6.3-5.12l-.9-4.29c-.15-.24-.35-.58-.51-.82a13.18,13.18,0,0,1-2.21-5.26c-2.37-11.11-4.7-22.36-6.91-33.43a6.46,6.46,0,0,1,12.66-2.53c2.22,11.14,4.56,22.44,6.94,33.61.15.25.35.58.51.83a13.23,13.23,0,0,1,2.21,5.27l.83,3.95a6.46,6.46,0,0,1-5,7.65A6.88,6.88,0,0,1,2927.06,2267.74Zm-18.93-88.1a6.45,6.45,0,0,1-6.35-5.3c-2.66-14.79-5.23-29.8-7.62-44.64a6.46,6.46,0,0,1,12.75-2c2.37,14.75,4.92,29.69,7.58,44.39a6.45,6.45,0,0,1-6.36,7.6Zm-14.37-89.16a6.45,6.45,0,0,1-6.38-5.55c-2.11-14.79-4.11-29.9-6-44.88a6.45,6.45,0,0,1,12.81-1.59c1.85,14.91,3.84,29.94,5.94,44.66a6.45,6.45,0,0,1-5.49,7.29A5.58,5.58,0,0,1,2893.76,2090.48Zm-11.11-89.65a6.45,6.45,0,0,1-6.41-5.77c-1.57-14.69-3.06-29.84-4.44-45a6.45,6.45,0,0,1,12.85-1.17c1.37,15.14,2.86,30.23,4.42,44.85a6.46,6.46,0,0,1-5.73,7.11Zm-7.81-90a6.46,6.46,0,0,1-6.43-6q-.6-8.44-1.25-16.95c-.69-9.27-1.41-18.85-2-28.16a6.45,6.45,0,0,1,12.88-.81c.58,9.23,1.3,18.77,2,28q.64,8.52,1.26,17a6.45,6.45,0,0,1-6,6.89Zm-4.91-90.19a6.47,6.47,0,0,1-6.45-6.29c-.36-13.89-.77-29.63-1.55-45a6.45,6.45,0,0,1,12.89-.65c.79,15.52,1.2,31.34,1.57,45.3a6.45,6.45,0,0,1-6.29,6.62Zm-3.48-90.27A6.45,6.45,0,0,1,2860,1724c0-1.43,0-2.85,0-4.27,0-9.23.15-18.56.29-27.59.07-4.46.14-8.92.2-13.42a6.45,6.45,0,1,1,12.9.16c-.05,4.51-.12,9-.19,13.47-.15,9-.29,18.25-.29,27.38,0,1.4,0,2.8,0,4.21a6.46,6.46,0,0,1-6.43,6.48Zm.14-90.34a6.44,6.44,0,0,1-6.45-6.38c-.14-13.54-.2-27.36-.2-42.23v-3a6.45,6.45,0,0,1,12.9,0v3c0,14.83.07,28.6.2,42.1a6.44,6.44,0,0,1-6.38,6.51Zm0-90.34h-.05a6.45,6.45,0,0,1-6.4-6.5q.18-22.61.45-45.2a6.46,6.46,0,1,1,12.91.15q-.27,22.58-.45,45.15A6.46,6.46,0,0,1,2866.59,1549.69Zm1-90.34h-.08a6.46,6.46,0,0,1-6.38-6.53q.27-22.58.48-45.15a6.46,6.46,0,0,1,6.45-6.4h.06a6.47,6.47,0,0,1,6.4,6.51q-.2,22.6-.48,45.19A6.45,6.45,0,0,1,2867.59,1459.35Zm.72-90.34h0a6.46,6.46,0,0,1-6.44-6.47c0-3.31,0-6.63,0-9.94,0-12.35,0-23.85-.14-35.16a6.46,6.46,0,0,1,6.4-6.51h.06a6.46,6.46,0,0,1,6.45,6.4c.09,11.35.14,22.89.14,35.27,0,3.32,0,6.64,0,10A6.46,6.46,0,0,1,2868.31,1369Zm-.79-90.34a6.46,6.46,0,0,1-6.45-6.31q-.21-9.79-.49-19.58c-.16-8.76-.37-17.32-.64-25.51a6.45,6.45,0,0,1,12.9-.42c.27,8.25.48,16.88.64,25.63.19,6.49.35,13,.49,19.6a6.45,6.45,0,0,1-6.31,6.59Zm-3.23-90.28a6.46,6.46,0,0,1-6.44-6.05c-.94-15.25-2.14-30.32-3.55-44.8a6.45,6.45,0,1,1,12.84-1.25c1.43,14.63,2.64,29.85,3.59,45.25a6.45,6.45,0,0,1-6,6.84Zm-8.87-89.88a6.45,6.45,0,0,1-6.38-5.57c-2.07-14.91-4.46-29.82-7.12-44.32a6.45,6.45,0,0,1,12.69-2.33c2.7,14.69,5.12,29.78,7.21,44.88a6.45,6.45,0,0,1-5.5,7.28A6.8,6.8,0,0,1,2855.42,1098.51Zm-17.87-88.29a6.45,6.45,0,0,1-6.26-4.92c-3.63-14.82-7.76-29.26-12.28-42.92a6.46,6.46,0,1,1,12.26-4.06c4.63,14,8.85,28.76,12.56,43.91a6.46,6.46,0,0,1-4.74,7.8A6.24,6.24,0,0,1,2837.55,1010.22ZM2809,924.63a6.45,6.45,0,0,1-5.91-3.86A431.49,431.49,0,0,0,2783.24,881a6.45,6.45,0,1,1,11.23-6.36,444.47,444.47,0,0,1,20.47,41,6.45,6.45,0,0,1-3.33,8.5A6.36,6.36,0,0,1,2809,924.63Zm-44.52-78.4a6.45,6.45,0,0,1-5.24-2.68c-3.68-5.11-7.55-10.23-11.5-15.21a13.27,13.27,0,0,1-2.54-5.09l-.23-.74c-4.22-4.55-8.25-9-12.69-14a6.45,6.45,0,1,1,9.63-8.59c4.52,5.06,8.61,9.63,12.88,14.23a13,13,0,0,1,2.74,5.32c.08.25.18.58.26.8,4.1,5.16,8.11,10.47,11.93,15.77a6.45,6.45,0,0,1-5.24,10.22Zm-19.16-23.34h0Zm12.54-2.48Zm-.44-.61v0A0,0,0,0,0,2757.45,819.8ZM2706,777.9a6.44,6.44,0,0,1-4.39-1.72c-3.66-3.4-7.19-6.47-10.8-9.4a.39.39,0,0,1-.1-.08c-7.72-6.5-15.67-12.6-23.64-18.12a6.45,6.45,0,1,1,7.34-10.61c8.29,5.74,16.56,12.07,24.57,18.82,3.82,3.1,7.56,6.35,11.41,9.93A6.45,6.45,0,0,1,2706,777.9Zm-378.31-29a6.45,6.45,0,0,1-2.86-12.24c14.07-6.94,28.08-13.22,41.67-18.67a6.45,6.45,0,0,1,4.81,12c-13.28,5.33-27,11.47-40.77,18.26A6.47,6.47,0,0,1,2327.72,748.93ZM2631.79,727a6.35,6.35,0,0,1-2.79-.64,270.5,270.5,0,0,0-41.15-15.73,6.45,6.45,0,1,1,3.61-12.39,283.73,283.73,0,0,1,43.13,16.49,6.45,6.45,0,0,1-2.8,12.27Zm-220.23-11.46a6.45,6.45,0,0,1-1.83-12.64,404.57,404.57,0,0,1,44.65-10.58,6.45,6.45,0,0,1,2.23,12.71,392.79,392.79,0,0,0-43.22,10.24A6.44,6.44,0,0,1,2411.56,715.56Zm133.91-13.73a6.06,6.06,0,0,1-.73,0,289,289,0,0,0-32.11-1.77h-.09c-3.93,0-7.93.08-11.92.24a6.46,6.46,0,0,1-.52-12.9c4.2-.17,8.45-.22,12.53-.25a300.45,300.45,0,0,1,33.55,1.86,6.45,6.45,0,0,1-.71,12.86Z" style="fill:#fff"/><path d="M889.18,1255.43h0c-14.63,0-29.89-.27-45.36-.75a6.45,6.45,0,0,1,.4-12.9c15.34.48,30.47.73,45,.74a6.46,6.46,0,0,1,0,12.91Zm45.16-.75a6.45,6.45,0,0,1-.26-12.9c13.68-.57,29.57-1.25,45-2a6.45,6.45,0,1,1,.67,12.89c-15.54.8-31.47,1.48-45.19,2.05Zm-135.45-2h-.37c-14.52-.81-29.31-1.78-45.2-3a6.45,6.45,0,0,1,1-12.87c15.8,1.19,30.5,2.16,44.94,3a6.45,6.45,0,0,1-.35,12.89Zm225.65-2.93a6.45,6.45,0,0,1-.49-12.89l7.85-.62c11.73-1.93,23-2.58,33.9-3.2l3.33-.2a6.46,6.46,0,0,1,.76,12.89l-3.36.19c-11.12.64-21.64,1.24-32.78,3.09l-.52.07-8.19.65ZM708.8,1246l-.59,0c-13.78-1.24-28.51-2.64-45-4.27a6.46,6.46,0,0,1,1.27-12.85c16.48,1.64,31.17,3,44.91,4.27a6.45,6.45,0,0,1-.57,12.88Zm405.15-7.32a6.46,6.46,0,0,1-.89-12.85c14.93-2.09,29.9-4.38,44.49-6.82a6.45,6.45,0,1,1,2.12,12.73c-14.7,2.45-29.78,4.77-44.82,6.87A5.46,5.46,0,0,1,1114,1238.67Zm89.11-14.87a6.45,6.45,0,0,1-1.23-12.79c14.75-2.88,29.56-6,44-9.24a6.45,6.45,0,1,1,2.83,12.59c-14.59,3.28-29.52,6.42-44.39,9.31A5.87,5.87,0,0,1,1203.06,1223.8Zm88.12-19.84a6.46,6.46,0,0,1-1.6-12.71c14.51-3.71,29.11-7.69,43.39-11.83a6.45,6.45,0,0,1,3.58,12.4c-14.4,4.17-29.13,8.19-43.76,11.94A6.4,6.4,0,0,1,1291.18,1204Zm86.77-25.1a6.46,6.46,0,0,1-2-12.6c14.18-4.57,28.5-9.45,42.57-14.48a6.45,6.45,0,0,1,4.35,12.15c-14.2,5.08-28.65,10-43,14.62A6.54,6.54,0,0,1,1378,1178.86Zm85-30.42a6.45,6.45,0,0,1-2.36-12.46l7.23-2.86c11-4.59,22.48-9.53,34.1-14.67a6.46,6.46,0,0,1,5.22,11.81c-11.7,5.17-23.29,10.15-34.44,14.8-2.53,1-5,2-7.4,2.93A6.29,6.29,0,0,1,1463,1148.44Zm82.7-36.32a6.46,6.46,0,0,1-2.73-12.31c12.54-5.84,25.86-12.16,40.73-19.33a6.45,6.45,0,1,1,5.61,11.62c-14.92,7.2-28.3,13.55-40.89,19.41A6.41,6.41,0,0,1,1545.69,1112.12Zm81.42-39.14a6.45,6.45,0,0,1-2.84-12.25l12.39-6.08a6.45,6.45,0,1,1,5.69,11.58l-12.4,6.09A6.56,6.56,0,0,1,1627.11,1073Z" style="fill:#fff"/><path d="M1995,1289.22l-.49,0a304.29,304.29,0,0,1-45.56-6.91,6.45,6.45,0,0,1,2.9-12.58,290.15,290.15,0,0,0,43.63,6.62,6.45,6.45,0,0,1-.48,12.89Zm45.1,0a6.45,6.45,0,0,1-.49-12.88,291.56,291.56,0,0,0,43.61-6.72,6.45,6.45,0,1,1,2.93,12.57,304.18,304.18,0,0,1-45.55,7ZM1907.29,1269a6.45,6.45,0,0,1-2.38-.46,312.2,312.2,0,0,1-41.43-20.15,6.45,6.45,0,1,1,6.49-11.16,299.86,299.86,0,0,0,39.71,19.32,6.45,6.45,0,0,1-2.39,12.45Zm220.4-.22a6.46,6.46,0,0,1-2.4-12.45,299.1,299.1,0,0,0,39.66-19.39,6.46,6.46,0,0,1,6.51,11.15,314,314,0,0,1-41.38,20.23A6.5,6.5,0,0,1,2127.69,1268.77Zm-298.25-44.92a6.42,6.42,0,0,1-4-1.39,333.27,333.27,0,0,1-34-31,6.45,6.45,0,0,1,9.32-8.93,321.06,321.06,0,0,0,32.69,29.77,6.45,6.45,0,0,1-4,11.51Zm376-.37a6.46,6.46,0,0,1-4-11.51,320.61,320.61,0,0,0,32.67-29.86,6.45,6.45,0,0,1,9.34,8.91,335.25,335.25,0,0,1-34,31.06A6.44,6.44,0,0,1,2205.45,1223.48Zm-438.28-64.58a6.45,6.45,0,0,1-5.22-2.65,354.69,354.69,0,0,1-24.6-38.85,6.45,6.45,0,0,1,11.33-6.18,340.53,340.53,0,0,0,23.7,37.42,6.45,6.45,0,0,1-5.21,10.26Zm500.5-.58a6.45,6.45,0,0,1-5.22-10.24,341.51,341.51,0,0,0,23.64-37.5,6.45,6.45,0,1,1,11.34,6.16,354.51,354.51,0,0,1-24.53,38.92A6.44,6.44,0,0,1,2267.67,1158.32ZM1724,1079.85a6.45,6.45,0,0,1-6-4.11,366.48,366.48,0,0,1-14-43.77,6.45,6.45,0,1,1,12.51-3.15,355.82,355.82,0,0,0,13.48,42.23,6.45,6.45,0,0,1-6,8.8Zm586.75-.7a6.61,6.61,0,0,1-2.33-.43,6.45,6.45,0,0,1-3.68-8.35,355.87,355.87,0,0,0,13.39-42.26,6.45,6.45,0,0,1,12.52,3.12,365.38,365.38,0,0,1-13.88,43.8A6.45,6.45,0,0,1,2310.72,1079.15ZM1702,992.48a6.44,6.44,0,0,1-6.39-5.66,379.86,379.86,0,0,1-2.86-45.83,6.46,6.46,0,0,1,6.45-6.46h0a6.45,6.45,0,0,1,6.45,6.44,368.46,368.46,0,0,0,2.76,44.27,6.46,6.46,0,0,1-5.62,7.19A5.37,5.37,0,0,1,1702,992.48Zm630.59-.74a7.13,7.13,0,0,1-.79,0,6.46,6.46,0,0,1-5.63-7.18,368.67,368.67,0,0,0,2.67-44.27v-1.47a6.45,6.45,0,0,1,6.42-6.48h0a6.45,6.45,0,0,1,6.45,6.42v1.53a382,382,0,0,1-2.76,45.82A6.45,6.45,0,0,1,2332.55,991.74ZM1701.8,902.38a6.78,6.78,0,0,1-.77,0,6.46,6.46,0,0,1-5.65-7.17,375.18,375.18,0,0,1,8.24-45.18,6.45,6.45,0,1,1,12.53,3.09,361.42,361.42,0,0,0-8,43.62A6.46,6.46,0,0,1,1701.8,902.38Zm630.55-2.22a6.45,6.45,0,0,1-6.39-5.65,362.54,362.54,0,0,0-8.22-43.57,6.45,6.45,0,0,1,12.51-3.17,374.34,374.34,0,0,1,8.51,45.13,6.45,6.45,0,0,1-5.6,7.21A7.34,7.34,0,0,1,2332.35,900.16Zm-608.92-85.24a6.31,6.31,0,0,1-2.32-.43,6.45,6.45,0,0,1-3.7-8.34,361.68,361.68,0,0,1,19.21-41.75,6.45,6.45,0,0,1,11.36,6.13,349.12,349.12,0,0,0-18.53,40.26A6.45,6.45,0,0,1,1723.43,814.92Zm586.75-2.08a6.43,6.43,0,0,1-6-4.1,347.46,347.46,0,0,0-18.79-40.13,6.46,6.46,0,0,1,11.32-6.21A361,361,0,0,1,2316.19,804a6.45,6.45,0,0,1-3.65,8.36A6.3,6.3,0,0,1,2310.18,812.84ZM1766.3,735.66a6.45,6.45,0,0,1-5.22-10.23A345.36,345.36,0,0,1,1790.46,690a6.45,6.45,0,0,1,9.36,8.89,331.56,331.56,0,0,0-28.28,34.1A6.46,6.46,0,0,1,1766.3,735.66Zm500.52-1.78a6.45,6.45,0,0,1-5.21-2.64,331.69,331.69,0,0,0-28.45-33.87,6.45,6.45,0,0,1,9.3-9A345.48,345.48,0,0,1,2272,723.61a6.46,6.46,0,0,1-5.2,10.27Zm-438.43-63.51a6.45,6.45,0,0,1-4-11.5,322.07,322.07,0,0,1,37.94-26.09,6.45,6.45,0,1,1,6.53,11.13A309.86,309.86,0,0,0,1832.41,669,6.38,6.38,0,0,1,1828.39,670.37Zm376-1.31a6.43,6.43,0,0,1-4-1.38,311.38,311.38,0,0,0-36.57-24.8,6.45,6.45,0,1,1,6.45-11.17,322.13,322.13,0,0,1,38.1,25.83,6.45,6.45,0,0,1-4,11.52Zm-298.34-44.17a6.45,6.45,0,0,1-2.42-12.44,305.73,305.73,0,0,1,43.93-14,6.45,6.45,0,0,1,3,12.56,293.08,293.08,0,0,0-42.06,13.36A6.42,6.42,0,0,1,1906.05,624.89Zm220.38-.77a6.4,6.4,0,0,1-2.37-.46,293.59,293.59,0,0,0-42.17-13.06,6.45,6.45,0,0,1,2.87-12.58,304.56,304.56,0,0,1,44,13.64,6.45,6.45,0,0,1-2.37,12.46ZM1993.6,604.26a6.45,6.45,0,0,1-.5-12.88,306.83,306.83,0,0,1,46.08-.17,6.46,6.46,0,0,1-.93,12.88,294.28,294.28,0,0,0-44.14.15A4.35,4.35,0,0,1,1993.6,604.26Z" style="fill:#fff"/><path d="M180.31,1471.56a3.23,3.23,0,0,1,0-6.46c15.09-.18,30.22-.77,45-1.76a3.23,3.23,0,0,1,.43,6.44c-14.86,1-30.1,1.6-45.31,1.78Zm-45.16-.63H135c-14.64-.56-29.86-1.5-45.22-2.79a3.23,3.23,0,1,1,.54-6.43c15.26,1.28,30.38,2.21,44.93,2.78a3.23,3.23,0,0,1-.12,6.45Zm135.25-5.45a3.23,3.23,0,0,1-.39-6.43,435.22,435.22,0,0,0,44.13-7.8,3.23,3.23,0,1,1,1.45,6.29,442.62,442.62,0,0,1-44.79,7.91Zm88-19.93a3.23,3.23,0,0,1-1-6.3c13.56-4.39,27.77-9.56,42.23-15.38a3.23,3.23,0,1,1,2.41,6c-14.6,5.87-28.95,11.1-42.65,15.53A3.11,3.11,0,0,1,358.38,1445.55Zm83-35.25a3.22,3.22,0,0,1-1.59-6,360,360,0,0,0,37.51-24.39,3.22,3.22,0,0,1,3.85,5.17A363.41,363.41,0,0,1,443,1409.88,3.12,3.12,0,0,1,441.39,1410.3Zm72.11-54a3.22,3.22,0,0,1-2.27-5.52,299.06,299.06,0,0,0,29.35-33.65,3.23,3.23,0,0,1,5.17,3.86,305.4,305.4,0,0,1-30,34.38A3.23,3.23,0,0,1,513.5,1356.31Zm53.77-72.15a3.12,3.12,0,0,1-1.5-.38,3.22,3.22,0,0,1-1.35-4.36c1-1.84,1.93-3.7,2.86-5.57l.14-.25a62.34,62.34,0,0,1,7.92-10.06c3-6.4,6.78-14.74,10.43-23.29a3.23,3.23,0,1,1,5.94,2.54c-3.78,8.83-7.72,17.43-10.73,23.93a3.16,3.16,0,0,1-.56.84,57.75,57.75,0,0,0-7.43,9.31q-1.41,2.81-2.86,5.56A3.23,3.23,0,0,1,567.27,1284.16Zm36.86-81.85a3.26,3.26,0,0,1-.87-.12,3.22,3.22,0,0,1-2.23-4,190.92,190.92,0,0,0,7.4-43.7,3.22,3.22,0,1,1,6.44.28,197.5,197.5,0,0,1-7.63,45.17A3.23,3.23,0,0,1,604.13,1202.31Zm3.54-89.3a3.24,3.24,0,0,1-3.15-2.55A187.16,187.16,0,0,0,590,1068.64a3.23,3.23,0,0,1,5.81-2.81,193.69,193.69,0,0,1,15.07,43.27,3.25,3.25,0,0,1-3.16,3.91Zm-38.2-81.11a3.21,3.21,0,0,1-2.61-1.33A401.75,401.75,0,0,0,538.34,996a3.23,3.23,0,0,1,4.77-4.35,407.72,407.72,0,0,1,29,35.11,3.23,3.23,0,0,1-.72,4.5A3.17,3.17,0,0,1,569.47,1031.9Zm-60.59-66.71a3.17,3.17,0,0,1-1.12-.21l-.44-.16a9.08,9.08,0,0,1-3.9-2.26,1.07,1.07,0,0,1-.14-.16c-5.36-6.6-11.67-11.21-18.35-16.09A153.47,153.47,0,0,1,471.84,936a3.22,3.22,0,1,1,4.33-4.78,150.15,150.15,0,0,0,12.57,9.88c6.67,4.88,13.58,9.91,19.43,17.09a7.37,7.37,0,0,0,1.33.56l.51.18a3.23,3.23,0,0,1-1.13,6.26Z" style="fill:#fff"/><path d="M2234.79,2348.84h-.06c-15.23-.15-30.51-.61-45.43-1.35a6.46,6.46,0,0,1,.65-12.9c14.74.75,29.85,1.19,44.9,1.34a6.46,6.46,0,0,1-.06,12.91Zm45.19-.45a6.45,6.45,0,0,1-.18-12.9c14.78-.43,29.89-1.14,44.91-2.12a6.45,6.45,0,0,1,.84,12.88c-15.18,1-30.44,1.71-45.38,2.14Zm-135.41-4.13c-.2,0-.4,0-.61,0-15.16-1.42-30.36-3.19-45.17-5.25a6.46,6.46,0,0,1,1.79-12.79c14.61,2,29.61,3.79,44.58,5.19a6.45,6.45,0,0,1-.59,12.87Zm225.57-1.72a6.45,6.45,0,0,1-.63-12.87c14.72-1.47,29.75-3.22,44.66-5.2a6.45,6.45,0,1,1,1.7,12.79c-15,2-30.22,3.77-45.08,5.25C2370.57,2342.53,2370.36,2342.54,2370.14,2342.54Zm-315-10.8a6.26,6.26,0,0,1-1.21-.11c-15-2.83-29.93-6.05-44.48-9.57a6.45,6.45,0,1,1,3-12.54c14.34,3.47,29.1,6.64,43.85,9.43a6.45,6.45,0,0,1-1.19,12.79Zm404.59-1.08a6.45,6.45,0,0,1-1-12.82c14.64-2.41,29.53-5.1,44.27-8a6.46,6.46,0,0,1,2.48,12.67c-14.87,2.91-29.89,5.61-44.65,8A7.68,7.68,0,0,1,2459.7,2330.66Zm88.68-17.32a6.45,6.45,0,0,1-1.42-12.75c14.51-3.27,29.24-6.81,43.76-10.52a6.46,6.46,0,1,1,3.19,12.51c-14.64,3.73-29.48,7.3-44.11,10.6A6.31,6.31,0,0,1,2548.38,2313.34Zm-581.06-2.87a6.63,6.63,0,0,1-1.85-.27c-14.57-4.35-29.12-9.14-43.25-14.23a6.45,6.45,0,1,1,4.37-12.14c13.91,5,28.23,9.72,42.58,14a6.46,6.46,0,0,1-1.85,12.64ZM2635.93,2291a6.45,6.45,0,0,1-1.76-12.66c14.33-4.07,28.84-8.41,43.13-12.89a6.46,6.46,0,0,1,3.86,12.32c-14.4,4.51-29,8.88-43.46,13A6.36,6.36,0,0,1,2635.93,2291Zm-753.58-11.19a6.33,6.33,0,0,1-2.53-.52c-14-5.94-27.86-12.37-41.34-19.08a6.46,6.46,0,0,1,5.76-11.56c13.25,6.61,26.93,12.92,40.64,18.77a6.45,6.45,0,0,1-2.53,12.39Zm839.8-15.84a6.45,6.45,0,0,1-2.09-12.56c14.21-4.89,28.46-10,42.35-15.21a6.45,6.45,0,0,1,4.54,12.08c-14,5.25-28.37,10.41-42.7,15.33A6.44,6.44,0,0,1,2722.15,2264Zm-920.59-24.42a6.44,6.44,0,0,1-3.21-.86c-13.11-7.55-26.15-15.59-38.76-23.92a6.45,6.45,0,1,1,7.11-10.77c12.39,8.18,25.21,16.09,38.09,23.5a6.46,6.46,0,0,1-3.23,12.05Zm1005.19-7.34a6.45,6.45,0,0,1-2.45-12.42c1.9-.78,3.79-1.55,5.65-2.33a6.46,6.46,0,0,1,4.94,11.93l-5.7,2.34A6.35,6.35,0,0,1,2806.75,2232.23Zm-1080.52-42.37a6.43,6.43,0,0,1-3.87-1.29c-12.06-9.06-24-18.63-35.57-28.43a6.46,6.46,0,1,1,8.36-9.84c11.34,9.64,23.1,19,35,27.95a6.45,6.45,0,0,1-3.88,11.61Zm-68.78-58.43a6.42,6.42,0,0,1-4.46-1.79c-10.84-10.38-21.59-21.29-32-32.41a6.45,6.45,0,1,1,9.44-8.79c10.19,10.94,20.77,21.67,31.44,31.88a6.45,6.45,0,0,1-4.47,11.11Zm-61.51-66a6.46,6.46,0,0,1-5-2.32c-9.57-11.5-19-23.52-28.16-35.72a6.46,6.46,0,1,1,10.35-7.72c9,12,18.3,23.85,27.73,35.18a6.45,6.45,0,0,1-5,10.58Zm-425.92-43c-5.63,0-11.31,0-16.88-.11a6.46,6.46,0,0,1,.09-12.91h.09c14.74.21,29.92.14,44.94-.21a6.46,6.46,0,0,1,.3,12.91C1189.06,2022.3,1179.45,2022.41,1170,2022.41Zm-62-1.6h-.34c-15.2-.8-30.46-1.91-45.34-3.3a6.46,6.46,0,0,1,1.21-12.86c14.7,1.38,29.78,2.48,44.8,3.27a6.45,6.45,0,0,1-.33,12.9Zm135.48-.57a6.45,6.45,0,0,1-.38-12.89c14.85-.88,29.93-2,44.83-3.41a6.45,6.45,0,1,1,1.2,12.85c-15,1.4-30.27,2.56-45.27,3.44Zm-225.44-7.88a5.3,5.3,0,0,1-.88-.07c-15.12-2.07-30.22-4.49-44.91-7.2a6.45,6.45,0,1,1,2.34-12.69c14.49,2.67,29.4,5.06,44.32,7.11a6.45,6.45,0,0,1-.87,12.85Zm315.39-.52a6.45,6.45,0,0,1-.81-12.85c14.88-1.91,29.85-4.09,44.49-6.49a6.45,6.45,0,1,1,2.08,12.74c-14.78,2.42-29.9,4.62-44.93,6.55A5.78,5.78,0,0,1,1333.5,2011.84Zm89.16-14.64a6.45,6.45,0,0,1-1.27-12.78c15.13-3.06,29.87-6.36,43.82-9.81a6.45,6.45,0,1,1,3.1,12.53c-14.13,3.49-29,6.84-44.36,9.93A6.27,6.27,0,0,1,1422.66,1997.2ZM929.27,1996a6.35,6.35,0,0,1-1.48-.17c-14.85-3.49-29.66-7.37-44-11.54a6.45,6.45,0,0,1,3.6-12.39c14.14,4.1,28.73,7.93,43.38,11.37a6.45,6.45,0,0,1-1.48,12.73Zm612.64-2.85a6.45,6.45,0,0,1-5.36-2.86c-4.2-6.27-8.4-12.69-12.5-19.15-3.71,1.28-7.66,2.57-11.81,3.87a6.45,6.45,0,1,1-3.86-12.31c5.86-1.84,11.31-3.66,16.2-5.42a6.46,6.46,0,0,1,7.64,2.64c4.91,7.81,10,15.61,15,23.18a6.46,6.46,0,0,1-5.36,10Zm-699.36-22.37a6.31,6.31,0,0,1-2.13-.36c-14.39-5-28.7-10.53-42.52-16.3a6.45,6.45,0,1,1,5-11.91c13.6,5.67,27.67,11.06,41.82,16a6.45,6.45,0,0,1-2.14,12.54Zm-83.3-34.81a6.45,6.45,0,0,1-2.84-.66c-13.67-6.72-27.21-13.91-40.24-21.38a6.45,6.45,0,1,1,6.42-11.19c12.79,7.32,26.08,14.38,39.51,21a6.46,6.46,0,0,1-2.85,12.25ZM681,1891a6.43,6.43,0,0,1-3.57-1.08c-12.64-8.4-25.12-17.32-37.08-26.49a6.45,6.45,0,1,1,7.85-10.24c11.73,9,24,17.74,36.38,26A6.46,6.46,0,0,1,681,1891Zm-71.58-54.92a6.38,6.38,0,0,1-4.26-1.62c-11.34-10-22.48-20.54-33.12-31.31a6.46,6.46,0,0,1,9.19-9.07c10.43,10.57,21.35,20.9,32.47,30.71a6.45,6.45,0,0,1-4.28,11.29ZM546,1771.91a6.45,6.45,0,0,1-4.89-2.24c-9.82-11.41-19.43-23.35-28.55-35.5a6.45,6.45,0,0,1,10.32-7.75c9,11.92,18.37,23.64,28,34.83a6.45,6.45,0,0,1-4.89,10.66Zm-54.2-72.09a6.46,6.46,0,0,1-5.41-2.92c-8.21-12.52-16.2-25.58-23.76-38.82a6.45,6.45,0,0,1,11.21-6.4c7.43,13,15.28,25.84,23.35,38.15a6.46,6.46,0,0,1-5.39,10Zm-44.77-78.31a6.44,6.44,0,0,1-5.79-3.59c-6.63-13.36-13.05-27.25-19.08-41.28a6.45,6.45,0,0,1,11.86-5.09c5.93,13.81,12.25,27.48,18.78,40.64a6.45,6.45,0,0,1-5.77,9.32Zm-35.68-82.87a6.45,6.45,0,0,1-6.05-4.21c-5.18-14-10.14-28.43-14.75-43a6.45,6.45,0,1,1,12.3-3.9c4.55,14.36,9.45,28.62,14.55,42.4a6.45,6.45,0,0,1-3.81,8.29A6.54,6.54,0,0,1,411.37,1538.64Z" style="fill:#fff"/><path d="M1326.88,2451.87a3.23,3.23,0,0,1-2.68-5c8.38-12.49,16.59-25.23,24.4-37.88a3.23,3.23,0,1,1,5.49,3.39c-7.85,12.72-16.1,25.53-24.53,38.08A3.21,3.21,0,0,1,1326.88,2451.87Zm47.44-76.86a3.29,3.29,0,0,1-1.59-.42,3.23,3.23,0,0,1-1.22-4.39l1.49-2.64c6.77-12.07,13.45-24.52,19.87-37a3.22,3.22,0,1,1,5.74,2.94c-6.45,12.57-13.18,25.1-20,37.23l-1.5,2.66A3.23,3.23,0,0,1,1374.32,2375Zm41.26-80.35a3.16,3.16,0,0,1-1.36-.3,3.23,3.23,0,0,1-1.56-4.29c6.26-13.43,12.41-27.28,18.29-41.17a3.22,3.22,0,1,1,5.94,2.51c-5.9,14-12.09,27.89-18.38,41.39A3.23,3.23,0,0,1,1415.58,2294.66Zm35.21-83.18a3.13,3.13,0,0,1-1.15-.22,3.22,3.22,0,0,1-1.86-4.16c5.2-13.55,10.43-27.79,15.54-42.32a3.23,3.23,0,1,1,6.09,2.14c-5.13,14.59-10.38,28.89-15.6,42.49A3.25,3.25,0,0,1,1450.79,2211.48Zm30-85.2a3.22,3.22,0,0,1-3.06-4.22c4.48-13.76,8.91-27.84,13.56-43a3.23,3.23,0,1,1,6.17,1.89c-4.65,15.23-9.1,29.34-13.6,43.14A3.22,3.22,0,0,1,1480.83,2126.28Z" style="fill:#fff"/><path d="M1569.4,1832.92a3.48,3.48,0,0,1-1-.17,3.22,3.22,0,0,1-2-4.1c4.81-14.12,9.86-28.48,15-42.67a3.22,3.22,0,1,1,6.06,2.2c-5.13,14.15-10.16,28.47-15,42.55A3.24,3.24,0,0,1,1569.4,1832.92Zm30.77-84.94a3.14,3.14,0,0,1-1.16-.22,3.23,3.23,0,0,1-1.86-4.16q3.22-8.4,6.5-16.77c3.28-8.39,6.66-16.91,10.06-25.32a3.22,3.22,0,1,1,6,2.41c-3.38,8.39-6.76,16.89-10,25.26q-3.27,8.34-6.48,16.73A3.23,3.23,0,0,1,1600.17,1748Zm33.78-83.79a3.33,3.33,0,0,1-1.26-.25,3.23,3.23,0,0,1-1.71-4.23c5.82-13.75,11.87-27.71,18-41.5a3.23,3.23,0,1,1,5.9,2.61c-6.09,13.75-12.12,27.69-17.93,41.4A3.22,3.22,0,0,1,1634,1664.19Zm36.55-82.61a3.27,3.27,0,0,1-1.35-.3,3.23,3.23,0,0,1-1.58-4.28c6.23-13.49,12.7-27.26,19.25-40.92a3.23,3.23,0,0,1,5.82,2.79c-6.53,13.63-13,27.37-19.21,40.83A3.22,3.22,0,0,1,1670.5,1581.58Zm39.06-81.46a3.23,3.23,0,0,1-2.88-4.67c6.62-13.3,13.49-26.88,20.42-40.34a3.23,3.23,0,0,1,5.74,3c-6.92,13.43-13.78,27-20.38,40.26A3.25,3.25,0,0,1,1709.56,1500.12Zm41.36-80.33a3.34,3.34,0,0,1-1.52-.37,3.23,3.23,0,0,1-1.33-4.37c4.06-7.62,8.15-15.26,12.19-22.7q4.62-8.55,9.3-17.08a3.23,3.23,0,1,1,5.66,3.1q-4.67,8.52-9.29,17.05c-4,7.43-8.11,15.06-12.16,22.66A3.23,3.23,0,0,1,1750.92,1419.79Zm43.43-79.22a3.28,3.28,0,0,1-1.59-.41,3.23,3.23,0,0,1-1.22-4.4c7.28-12.91,14.84-26.12,22.44-39.24a3.22,3.22,0,1,1,5.58,3.23c-7.59,13.11-15.13,26.29-22.4,39.18A3.23,3.23,0,0,1,1794.35,1340.57Z" style="fill:#fff"/><path d="M2308.82,2873.39a1275,1275,0,0,1-243.69-23.87C1672.69,2773.2,1394.26,2543.22,1291,2446c-58.43,4.76-115.63,7.11-171.22,7.11-450.71,0-803.08-154.45-981.48-435.34-149.85-235.94-152.88-527.26-8.12-779.26,94.75-165,247.24-301.07,441-393.65,217.74-104,478.59-151.29,775.31-140.48,306-529.81,759.28-663.3,1085.92-681.91,269.45-15.36,567,42.2,837.79,162.08C3516.8,293.69,3725.17,447,3841.93,605.25c27.92,37.84,63.17,82.29,104,133.76,295.11,372.14,844.42,1064.84,416.45,1567.3-180.75,212.21-626,500.23-958.33,465.92-134-13.84-234.43-78.54-298.62-192.35-165.82,132.16-344.14,220.8-530.09,263.49A1189.09,1189.09,0,0,1,2308.82,2873.39ZM1295,2434.78l1.75,1.66c336.11,317.85,1094.92,703.13,1806.93,131l5-4.05,3.1,5.68c62.24,114,160.93,178.73,293.36,192.4,328.61,34,769.73-251.72,949-462.16,422.2-495.69-123.51-1183.85-416.69-1553.55-40.88-51.55-76.18-96.07-104.22-134.06-115.67-156.74-322.47-308.83-567.36-417.25C2996.63,75.23,2700.92,18,2433.06,33.25c-324.54,18.5-775.15,151.37-1078.78,679.33l-1.62,2.84-3.28-.13C785.78,694,344.83,886.61,139.61,1243.87-3.11,1492.33-.16,1779.45,147.49,2011.94,346,2324.43,763.3,2478.61,1292.56,2435Z" style="fill:#fcf1bf;stroke:#f8e8b6;stroke-miterlimit:10;stroke-width:40px"/></g></g></svg>