<svg xmlns="http://www.w3.org/2000/svg" width="10.05mm" height="16.28mm" viewBox="0 0 28.48 46.16"><title>market</title><g id="圖層_2" data-name="圖層 2"><g id="圖層_1-2" data-name="圖層 1"><path d="M16.07,15a1.21,1.21,0,0,0,.4.55c.25.25.27.22.52.47s.26.22.51.47.2.29.45.53.25.24.5.49.24.26.48.51.3.2.54.45.22.28.47.53.23.27.48.52.33.17.58.41l-.08,0c.16-.17.29-.36.44-.54s.36-.32.49-.51.19-.44.31-.64.26-.39.36-.61.18-.43.26-.65.08-.46.15-.69.19-.43.24-.66.09-.46.11-.7,0-.44,0-.68c-.33-.11-.34,0-.69,0l-.7,0c-.35,0-.35-.13-.7-.13s-.35.09-.7.09h-.69c-.35,0-.35,0-.7,0h-.7c-.35,0-.35.06-.7.06s-.36-.08-.71-.08a1.35,1.35,0,0,0-.69.09A1.68,1.68,0,0,1,16.07,15Z" style="fill:#fff"/><path d="M8.14,20.51c.17.16.35.24.53.39s.34.33.54.46.35.33.56.45.44.18.66.28.42.23.64.31.49,0,.72.11.43.19.67.24.47,0,.71.07.43.07.66.08c.12-.33,0-.34,0-.69s0-.35,0-.7,0-.35,0-.7,0-.35,0-.7.09-.35.09-.69,0-.35,0-.7-.14-.35-.14-.7.07-.35.07-.71,0-.35,0-.7a1.22,1.22,0,0,0-.09-.68A2,2,0,0,1,13,15.5c-.32.14-.18.34-.43.58s-.29.2-.54.45-.25.23-.5.48-.29.2-.53.45-.23.26-.48.51-.17.32-.42.57l-.5.49c-.25.25-.3.2-.55.44s-.21.3-.47.53S8.29,20.2,8.14,20.51Z" style="fill:#fff"/><path d="M12.27,14.22l-.06-.05c-.35,0-.35.13-.7.13s-.35-.12-.7-.12h-.7c-.35,0-.35.1-.7.1s-.35,0-.7,0-.35,0-.7,0-.35-.08-.7-.08-.35,0-.7,0-.35.13-.7.13-.38-.18-.71-.07c0,.24,0,.48.07.71s0,.47.08.7.05.47.12.69.26.41.34.63.07.48.17.69.21.42.32.63.3.36.43.56.26.39.4.57a7.11,7.11,0,0,0,.46.62c.31-.16.17-.36.41-.61s.35-.15.6-.39.2-.29.44-.54.29-.2.54-.45.23-.26.47-.51.24-.26.49-.51l.5-.49c.25-.25.2-.3.44-.55l.5-.51c.25-.25.36-.15.51-.47A2,2,0,0,1,12.27,14.22Z" style="fill:#fff"/><path d="M12.58,12.67c-.15-.31-.3-.23-.54-.48s-.24-.26-.49-.5-.26-.23-.5-.48-.28-.21-.52-.46-.2-.3-.45-.55-.26-.23-.51-.48-.28-.22-.52-.46S8.77,9,8.52,8.78s-.24-.25-.49-.5S7.84,8,7.59,7.72l0,0c-.16.17-.35.31-.5.5s-.22.41-.35.61-.3.36-.42.57-.12.46-.22.67-.19.42-.27.64-.15.44-.21.67-.25.42-.3.65-.06.47-.09.7,0,.44,0,.67c.33.12.34,0,.69,0h.7c.35,0,.35.09.7.09s.35-.09.7-.09.35.13.7.13.34-.13.69-.13h.7c.36,0,.36.1.71.1s.35-.09.7-.09.4.23.73.11A2.45,2.45,0,0,1,12.58,12.67Z" style="fill:#fff"/><path d="M13.94,11.82c.14-.32-.07-.37-.07-.72s0-.35,0-.7,0-.35,0-.7V9c0-.35-.07-.35-.07-.7s0-.35,0-.7-.07-.35-.07-.7.08-.35.08-.7,0-.35,0-.7.18-.39.06-.72c-.24,0-.52.07-.75.09s-.49,0-.72,0-.45.16-.68.23a5.31,5.31,0,0,0-.68.2,6.31,6.31,0,0,0-.63.34c-.22.1-.43.19-.64.31s-.46.15-.66.29a6.06,6.06,0,0,0-.54.47c-.19.14-.42.33-.6.49.15.32.34.19.59.43s.19.3.44.55.27.22.51.46l.49.5c.25.24.24.25.49.5s.2.29.45.53.34.16.59.41.17.32.42.57.29.21.54.46.13.44.46.57A2.58,2.58,0,0,1,13.94,11.82Z" style="fill:#fff"/><path d="M15.62,13.85a1.33,1.33,0,0,0-.18-.68,1.47,1.47,0,0,0-.51-.48,1.41,1.41,0,0,0-.67-.19,1.39,1.39,0,0,0-.66.21,1.33,1.33,0,0,0-.7,1.14,1.32,1.32,0,0,0,.21.66,1.36,1.36,0,0,0,.48.5,1.31,1.31,0,0,0,.67.2,1.44,1.44,0,0,0,.68-.18,1.47,1.47,0,0,0,.48-.51A1.38,1.38,0,0,0,15.62,13.85Z" style="fill:#fff"/><path d="M20.36,7.18C20.19,7,20,7,19.84,6.8s-.34-.34-.53-.47-.38-.29-.59-.41-.44-.18-.66-.28-.4-.27-.62-.36-.45-.15-.68-.21-.47-.08-.71-.13-.47,0-.71,0-.42-.1-.66-.11a1.43,1.43,0,0,0-.1.68c0,.35.13.35.13.7s0,.35,0,.7-.06.35-.06.7v.7c0,.35,0,.35,0,.69s0,.35,0,.7,0,.36,0,.71.05.35.05.7-.19.4-.06.72a2.11,2.11,0,0,1,.87.31c.32-.14.24-.23.49-.48s.3-.2.54-.44.18-.32.42-.56.32-.17.57-.42.23-.26.48-.51l.49-.5c.24-.25.26-.23.51-.48l.51-.49c.25-.25.24-.25.5-.49A1.27,1.27,0,0,0,20.36,7.18Z" style="fill:#fff"/><path d="M14.69,15.94c-.14.32,0,.32,0,.67s-.13.35-.13.7.12.35.12.7-.12.34-.12.69,0,.35,0,.7,0,.35,0,.7v.7c0,.35,0,.35,0,.7s0,.36,0,.71-.19.38-.08.71c.24,0,.52-.07.75-.09l.71-.09q.34-.07.69-.18a5.35,5.35,0,0,0,.69-.17c.23-.08.43-.21.65-.31s.44-.18.65-.3a5.56,5.56,0,0,0,.58-.41c.2-.13.37-.29.56-.44s.39-.27.57-.43c-.16-.32-.26-.24-.5-.49s-.23-.27-.48-.51-.27-.22-.51-.47l-.49-.49c-.25-.25-.21-.29-.45-.54s-.31-.19-.56-.43l-.5-.5c-.24-.25-.19-.3-.44-.55s-.25-.25-.5-.5-.2-.32-.53-.46A1.9,1.9,0,0,1,14.69,15.94Z" style="fill:#fff"/><path d="M16,12.71a2.11,2.11,0,0,1,.25.83c.33.12.38-.1.72-.1s.35,0,.7,0,.35-.06.7-.06.35.11.7.11.35-.09.7-.09h.7l.7,0c.35,0,.35.12.7.12s.35-.08.71-.08.37.15.71,0c0-.24-.07-.49-.1-.72s-.07-.46-.12-.69-.1-.46-.16-.68-.15-.45-.23-.67-.06-.48-.16-.69-.31-.37-.42-.58-.21-.42-.33-.61a6,6,0,0,0-.41-.58A5.27,5.27,0,0,0,21,7.77c-.32.15-.26.22-.51.46s-.25.24-.5.49-.21.28-.46.52-.26.23-.5.48-.31.19-.56.44-.17.32-.41.57-.31.2-.55.44-.24.26-.49.51a5.93,5.93,0,0,1-.53.47A1.12,1.12,0,0,0,16,12.71Z" style="fill:#fff"/><path d="M26.68,12c-.2,0-.34.32-.51.38a2.54,2.54,0,0,0-.57.19c0-.25-.09-.53-.13-.77s-.08-.51-.14-.75-.15-.48-.22-.72-.21-.47-.3-.7,0-.54-.16-.76-.18-.49-.31-.71-.4-.35-.54-.56-.32-.46-.47-.66c.29,0,.46-.32.68-.47s.77-.05.9-.29A2.1,2.1,0,0,0,25,5.24c0-.23.14-.56.06-.77s-.67-.09-.83-.25-.17-.45-.38-.53-.41.1-.64.1a1.25,1.25,0,0,0-.67.14c-.25.13-.75,0-.91.19a1.47,1.47,0,0,0-.2.7c-.19-.15-.45.1-.64,0s-.33-.35-.53-.48-.33-.39-.54-.51-.49-.08-.71-.18-.3-.54-.53-.62-.51,0-.74-.1-.47-.09-.71-.15-.48-.05-.72-.09-.37-.2-.62-.23c.12-.15.28-.19.34-.37s-.1-.41-.1-.61a1.53,1.53,0,0,0-.23-.6,1.41,1.41,0,0,0-.28-.56C15.26.12,15,.13,14.83,0a1.41,1.41,0,0,0-.58,0,1.2,1.2,0,0,0-.57.07c-.2.09-.65-.17-.81,0s0,.58,0,.79-.34.35-.34.58.35.29.41.46-.14.42,0,.57l-.74.11c-.25,0-.51,0-.76.11s-.43.32-.67.4-.41.32-.65.41-.56,0-.79.07-.41.3-.63.42S8,4,7.8,4.09s-.27.51-.47.67c0-.22-.31-.32-.4-.5a1.36,1.36,0,0,0-.26-.49,1.6,1.6,0,0,0-.46-.36,1.39,1.39,0,0,0-.58-.1,1.46,1.46,0,0,0-.58.18c-.21.09-.47,0-.62.21a1.56,1.56,0,0,0-.35.56c-.09.2.13.41.13.64s-.36.63-.24.87a2.23,2.23,0,0,0,.59.67c.23.15.62.09.9.13-.15.18-.14.55-.28.74s-.22.41-.35.62-.45.28-.56.49-.27.41-.37.63-.1.47-.19.69-.14.46-.21.69-.4.38-.46.62-.07.48-.11.72,0,.52,0,.76a1.85,1.85,0,0,0-.51-.3,1.7,1.7,0,0,0-.55,0v.08c-.23,0-.55-.37-.75-.28s-.28.47-.43.63-.06.42-.15.63-.53.32-.53.55.27.42.35.63a1.8,1.8,0,0,0,.31.58,1.66,1.66,0,0,0,.51.44c.21.09.46,0,.69,0a1.63,1.63,0,0,0,.54-.05,2,2,0,0,0,.54-.28c0,.25.06.53.1.77s0,.5.06.74-.08.54,0,.77.46.36.55.59.09.49.19.72.16.47.28.69.6.2.73.41,0,.62.09.81.54.21.69.39l-.18-.16c-.23,0-.45.33-.65.42a1.66,1.66,0,0,0-.63.29,1.92,1.92,0,0,0-.32.62c-.08.21.11.43.11.66a1.16,1.16,0,0,0,.18.55c.08.21-.25.7-.09.85a2.1,2.1,0,0,0,.65.41c.2.09.52,0,.75,0s.38-.29.58-.37.5,0,.65-.16.1-.44.18-.65.42-.35.42-.59c0,0,0-.24,0-.27.18.15.38.26.57.39s.25.44.44.56.29.41.49.52.6-.18.81-.09.34.33.55.42.24.28.45.35a1.62,1.62,0,0,1-.11.72c-.09.38-.08.38-.18.76s0,.41-.05.78.08.42,0,.8-.12.37-.21.75-.36.32-.45.7c0,.11.25.07.33.16s0,0,.08,0c.36,0,.36.11.71.11s.36.27.71.27.36.08.71.08.36-.24.71-.24.36-.19.72-.19.35.13.71.13.35.06.71.06.35-.2.71-.2.36.18.71.18.36-.2.72-.2.36.37.71.37.36-.24.72-.24c.12,0,.14,0,.21-.07s-.06-.08-.09-.19c-.08-.38,0-.4-.1-.78l-.16-.75c-.09-.38,0-.4-.09-.78s-.25-.35-.33-.73.1-.42,0-.8-.38-.41-.36-.8c.22-.07.75,0,1-.07s.34-.38.54-.48.53,0,.73-.1.24-.51.43-.63.28-.37.47-.51.59-.14.77-.29a2.69,2.69,0,0,0,.09.76c.09.2,0,.57.19.73s.6-.09.81,0,.34.39.57.39a1.76,1.76,0,0,0,.69-.11,1.81,1.81,0,0,0,.57-.41c.16-.16.17-.43.25-.64s0-.39,0-.63.29-.5.21-.7-.37-.32-.52-.48-.29-.39-.49-.48-.23-.15-.46-.15c.14-.18,0-.31.13-.5s.56-.2.69-.41.06-.52.17-.72.08-.49.18-.7.46-.32.55-.54,0-.5.11-.72.34-.4.4-.63-.37-.57-.33-.8.41-.22.43-.46c.15.12.26-.24.44-.17s.27.2.47.2a1.42,1.42,0,0,0,.61-.12c.2-.08.49,0,.65-.2a1.87,1.87,0,0,0,.36-.59c.08-.2-.15-.44-.15-.67s.4-.54.32-.74-.43-.31-.59-.46a1.64,1.64,0,0,0-.55-.38C27.13,12.19,26.91,12,26.68,12ZM1.86,14.64c-.27,0-.6.15-.77,0a1.16,1.16,0,0,1-.24-.77,1.11,1.11,0,0,1,.29-.72,1.07,1.07,0,0,1,.72-.27,1,1,0,0,1,.7.29,1,1,0,0,1,.33.7c0,.27-.24.44-.42.61A.72.72,0,0,1,1.86,14.64ZM23.2,4.45c.26,0,.59-.15.77,0a1.19,1.19,0,0,1,.23.77,1.06,1.06,0,0,1-.28.72,1.09,1.09,0,0,1-.72.27A1.05,1.05,0,0,1,22.49,6a1.1,1.1,0,0,1-.33-.71c0-.26.25-.44.43-.61A.74.74,0,0,1,23.2,4.45ZM14.25.65c.26,0,.59-.15.76,0a1.11,1.11,0,0,1,.24.77,1,1,0,0,1-.29.71,1,1,0,0,1-.71.27,1,1,0,0,1-.71-.28,1.07,1.07,0,0,1-.33-.7c0-.27.25-.44.42-.62A.77.77,0,0,1,14.25.65ZM4.84,4.9c0-.26-.15-.59,0-.76a1.14,1.14,0,0,1,.77-.24,1.06,1.06,0,0,1,.72.29,1,1,0,0,1,.27.71,1,1,0,0,1-.29.71,1.07,1.07,0,0,1-.7.33c-.26,0-.44-.25-.61-.42A.74.74,0,0,1,4.84,4.9Zm.6,18.77c-.26,0-.59.15-.77,0a1.16,1.16,0,0,1-.23-.77,1.05,1.05,0,0,1,.28-.71,1,1,0,0,1,.72-.27,1,1,0,0,1,.7.28,1,1,0,0,1,.34.7c0,.27-.25.44-.43.62A.75.75,0,0,1,5.44,23.67Zm12.5,5.21c-.21.27-.21.23-.56.23S17,29,16.69,29H16c-.34,0-.34,0-.69,0h-.69c-.34,0-.34,0-.69,0s-.34-.17-.69-.17-.34-.05-.69-.05-.34.17-.69.17-.35,0-.69,0-.69.37-.9.1.5-.44.58-.78-.06-.36,0-.7.29-.28.37-.62-.46-.47-.38-.8.32-.28.4-.62-.22-.52,0-.81c.24.06.74,0,1,.06s.25.45.49.48c-.11.15-.2.11-.27.29s.37.42.37.62-.07.39,0,.59.05.46.21.61.41.14.61.23.36.49.6.49.47-.21.67-.29a1.83,1.83,0,0,0,.54-.42,1.55,1.55,0,0,0,.31-.58c.09-.2.3-.4.3-.63a2.07,2.07,0,0,0-.05-.61c-.06-.17-.34-.31-.45-.45.27,0,.53-.19.79-.24s.6,0,.86-.07a1.39,1.39,0,0,1,.29.67c.08.33.16.31.24.65s0,.35.11.68-.39.44-.31.78.4.24.53.57S18.16,28.6,17.94,28.88Zm-4.49-2.62c0-.27-.15-.6,0-.77a1.16,1.16,0,0,1,.77-.24,1.06,1.06,0,0,1,.71.29A1.05,1.05,0,0,1,15,27a1,1,0,0,1-.7.34c-.27,0-.44-.25-.62-.43A.75.75,0,0,1,13.45,26.26ZM24,22.69c0,.27.15.6,0,.77a1.14,1.14,0,0,1-.77.24,1.09,1.09,0,0,1-.72-.29,1,1,0,0,1-.27-.72,1,1,0,0,1,.28-.7,1.1,1.1,0,0,1,.71-.33c.26,0,.44.25.61.42A.73.73,0,0,1,24,22.69Zm-9.73.82c-.25,0-.5.28-.74.26s-.49-.13-.73-.16l-.73-.13a5.68,5.68,0,0,1-.7-.22c-.24-.07-.47-.14-.7-.23s-.47-.16-.69-.26-.36-.37-.57-.49S9,22,8.81,21.85s-.5-.15-.69-.3-.4-.29-.58-.46-.5-.21-.66-.39,0-.68-.12-.87-.41-.29-.55-.49-.08-.51-.2-.73-.73-.16-.84-.38,0-.55-.08-.78-.4-.39-.47-.63-.11-.49-.17-.73.36-.57.33-.81-.1-.46-.12-.71-.5-.47-.5-.72.11-.5.13-.75.21-.47.25-.71-.07-.52,0-.76.48-.38.55-.61,0-.51.1-.74.14-.47.25-.69.17-.47.29-.68.39-.33.53-.53.33-.35.48-.54.15-.51.32-.69.27-.44.45-.6.42-.27.61-.42.32-.42.52-.55.38-.36.59-.48.46-.21.68-.32.64.23.87.14.32-.55.55-.62.54.08.78,0,.42-.43.66-.46.53.24.78.22.48,0,.73,0,.49.07.73.08.51-.14.75-.1.53-.08.77,0,.42.37.65.44.5.09.72.17.31.52.53.62.55,0,.76.11.56,0,.76.18.37.36.56.51.34.37.52.54.36.34.53.52a6.63,6.63,0,0,1,.54.52c.16.19.16.5.3.7s.29.4.41.61.48.31.58.53-.21.63-.12.86.17.45.24.68.34.41.4.65.29.46.33.7.12.5.13.74-.2.51-.2.76,0,.49-.07.74.05.5,0,.74-.05.5-.11.74-.38.41-.45.64-.11.47-.2.7-.08.5-.19.72-.26.42-.38.63-.16.48-.3.68-.23.46-.38.65-.64.09-.81.27-.13.55-.31.72-.22.51-.41.66-.64,0-.84.1-.29.46-.5.59-.46.17-.68.28-.48.12-.71.21-.4.32-.64.4-.48.09-.72.15-.48.12-.73.15-.49,0-.73.06S14.51,23.51,14.26,23.51Zm12.42-8.87c-.27,0-.6.15-.77,0a1.16,1.16,0,0,1-.24-.77,1.06,1.06,0,0,1,.29-.71,1,1,0,0,1,.72-.28,1,1,0,0,1,.7.29,1,1,0,0,1,.33.7c0,.27-.24.44-.42.62A.75.75,0,0,1,26.68,14.64Z" style="fill:#fff"/><path d="M7.74,36.38a.2.2,0,0,1,.17-.11,1.23,1.23,0,0,1,.54.17,2.58,2.58,0,0,1,.57.41,1.08,1.08,0,0,1,.32.45h0a1.58,1.58,0,0,0,.38,0l.45-.13.45-.13A2.21,2.21,0,0,1,11,37a.36.36,0,0,1,.21.11.29.29,0,0,1,.12.2c0,.16-.23.33-.68.52a12.42,12.42,0,0,1-1.53.52c-.57.16-1,.27-1.23.32a7.84,7.84,0,0,1-1.28.09,1,1,0,0,1-.37-.06.24.24,0,0,1-.15-.25v-.06a.26.26,0,0,1,.16-.19l.24-.05H6.7A3.34,3.34,0,0,0,7.35,38c.35-.09.65-.18.9-.26s.39-.15.39-.2a1.06,1.06,0,0,0-.26-.34c-.17-.18-.27-.27-.31-.27l-.1,0a.16.16,0,0,1-.1,0c-.07,0-.11,0-.14-.12a.79.79,0,0,1-.05-.24A.49.49,0,0,1,7.74,36.38Zm-.35,4.11.35-.22L8.17,40a1.91,1.91,0,0,0,.35-.17.36.36,0,0,0,.14-.24s0-.13,0-.26A1,1,0,0,1,8.8,39,.22.22,0,0,1,9,38.88a.2.2,0,0,1,.18.09,1.41,1.41,0,0,1,.12.29,1.16,1.16,0,0,0,.06.15.09.09,0,0,0,.08.06l.13,0,.09,0a2.22,2.22,0,0,1,.69-.08,2,2,0,0,1,.69.08.78.78,0,0,1,.4.42,1.76,1.76,0,0,1,.12.66,2.19,2.19,0,0,1-.19.84,2.33,2.33,0,0,1-.52.77,1,1,0,0,1-.72.33.53.53,0,0,1-.39-.15,1.9,1.9,0,0,1-.31-.42A7,7,0,0,0,9.36,43a19.54,19.54,0,0,1-.18,2.29c-.09.57-.26.86-.52.86s-.51-.2-.51-.6a10.83,10.83,0,0,1,.15-1.48c0-.26.07-.46.08-.62s0-.33,0-.46a2.58,2.58,0,0,1,0-.32c0-.28,0-.47,0-.6l0-.3a6.61,6.61,0,0,0,.08-.89.21.21,0,0,0,0-.12l-.06,0a1.21,1.21,0,0,0-.45.13,2.77,2.77,0,0,0-.54.29c-.16.12-.24.22-.24.31s0,.28,0,.49a1.24,1.24,0,0,0,.1.41.09.09,0,0,0,0,.06.31.31,0,0,1,0,.11.27.27,0,0,1-.14.23.53.53,0,0,1-.3.09.34.34,0,0,1-.35-.22,1.65,1.65,0,0,1-.1-.44c0-.16,0-.26,0-.32,0-.26,0-.45,0-.58a3.31,3.31,0,0,1,.13-.93A1.39,1.39,0,0,1,7,39.67a.33.33,0,0,1,.22-.13s.08,0,.08.09l0,.07s0,.06-.06.07a1.23,1.23,0,0,0-.16.61c0,.15,0,.22.1.22A.48.48,0,0,0,7.39,40.49Zm3.26-.36a.45.45,0,0,0-.24,0c-.47,0-.71.09-.71.29a2.59,2.59,0,0,0,.06.47,2.09,2.09,0,0,0,.16.55c.07.16.16.24.26.24s.21-.08.29-.24a2.17,2.17,0,0,0,.19-.56,2.76,2.76,0,0,0,.06-.5A.25.25,0,0,0,10.65,40.13Z" style="fill:#fff"/><path d="M17.12,38.33a6.19,6.19,0,0,1,.6-.88c.21-.27.37-.4.47-.4s.09,0,.11.05a.21.21,0,0,1,0,.14.87.87,0,0,1-.18.36l-.18.28a.45.45,0,0,0-.06.21v0c0,.12,0,.3.06.53a8.33,8.33,0,0,1,.07,1,4.66,4.66,0,0,1-.17,1.17h0a.34.34,0,0,1-.11.18.29.29,0,0,1-.19.08c-.16,0-.24-.24-.24-.7a5.11,5.11,0,0,1,.09-.78,4.25,4.25,0,0,0,.08-.76c0-.07,0-.11-.05-.13a.6.6,0,0,0-.16.19l-.14.15a.23.23,0,0,1-.16.06.31.31,0,0,1-.13,0,.35.35,0,0,1,0-.13A1.77,1.77,0,0,1,17.12,38.33Zm0,4.78A.33.33,0,0,1,17.3,43a15.24,15.24,0,0,1,1.56-.44l.49-.13a1,1,0,0,0,.34-.11.66.66,0,0,0,.13-.29,1.32,1.32,0,0,1,.14-.31.22.22,0,0,1,.21-.11c.08,0,.12,0,.14.07a1.29,1.29,0,0,1,0,.25.37.37,0,0,0,0,.2.21.21,0,0,0,.17.06l.31,0,.24,0a2.62,2.62,0,0,1,.54-.06q.75,0,.75.3a.35.35,0,0,1-.27.34,4.74,4.74,0,0,1-.83.19l-.57.1a.6.6,0,0,0-.31.15.25.25,0,0,0,.18.08h.16a4.19,4.19,0,0,1,.84.25,4.75,4.75,0,0,1,1,.46c.28.18.42.36.42.55a.34.34,0,0,1,0,.18l-.11,0a.55.55,0,0,1-.24-.07,1.1,1.1,0,0,1-.21-.14l-.13-.1a4.6,4.6,0,0,0-.92-.45,3.22,3.22,0,0,0-1-.24,6.83,6.83,0,0,1-.16,1.08l-.07.37c-.07.39-.22.59-.45.59s-.27-.25-.27-.75a2.58,2.58,0,0,1,.07-.51c0-.27.05-.43.05-.5v-.07h0a3.38,3.38,0,0,0-.37.38c-.23.24-.42.42-.56.54a.62.62,0,0,1-.38.18c-.15,0-.23,0-.23-.11a.75.75,0,0,1,.2-.35c.13-.16.31-.36.54-.61a2.59,2.59,0,0,0,.42-.49l-.06,0a.23.23,0,0,0-.11,0,3.87,3.87,0,0,1-.68.12l-.87,0a.39.39,0,0,1-.23-.06.2.2,0,0,1-.09-.2A.32.32,0,0,1,17.13,43.11Zm2-5.87.43-.23a1,1,0,0,0,.34-.2,1,1,0,0,0,.06-.34,1.37,1.37,0,0,1,.08-.38.19.19,0,0,1,.21-.13.29.29,0,0,1,.22.09.35.35,0,0,1,.08.22.49.49,0,0,1,0,.15.64.64,0,0,0,0,.15.14.14,0,0,0,.05.11.2.2,0,0,0,.13,0h.15a.48.48,0,0,1,.22,0,.16.16,0,0,1,.09.15.19.19,0,0,1-.08.18.7.7,0,0,1-.23.14l-.2.11a.16.16,0,0,0-.06.13s0,.06.11.1a.58.58,0,0,1,.14.07.41.41,0,0,1,0,.16.22.22,0,0,1-.06.14l-.14.13-.13.1a3.33,3.33,0,0,1,0,.35v.34a1.28,1.28,0,0,0,0,.22.19.19,0,0,0,.06.07l.12,0a1.16,1.16,0,0,1,.22.1.22.22,0,0,1,.07.19.2.2,0,0,1-.05.16.47.47,0,0,1-.17.06.48.48,0,0,0-.27.12.52.52,0,0,0-.09.36l0,.07H21c.43,0,.67,0,.72.14a.32.32,0,0,1,0,.16.22.22,0,0,1-.07.19,2.44,2.44,0,0,1-.73.24c-.39.09-.8.17-1.23.23a6.4,6.4,0,0,1-.87.1c-.35,0-.53-.1-.53-.3a.25.25,0,0,1,.18-.25,2.38,2.38,0,0,1,.54-.16,2.33,2.33,0,0,0,.55-.16.26.26,0,0,0,.19-.26c0-.11,0-.17-.07-.17a.24.24,0,0,0-.11.06.23.23,0,0,1-.16.07.16.16,0,0,1-.15-.08.41.41,0,0,1-.05-.19.24.24,0,0,1,.09-.2l.28-.19a.46.46,0,0,0,.23-.17,1.65,1.65,0,0,0,.07-.58q0-.15-.12-.15l-.15,0-.14,0a.24.24,0,0,1-.19-.08.25.25,0,0,1-.08-.18.17.17,0,0,1,.1-.15,1.75,1.75,0,0,1,.3-.17l.34-.18a.24.24,0,0,0,.1-.18c0-.09,0-.14-.1-.14a1,1,0,0,0-.35.09,1.37,1.37,0,0,1-.37.08.25.25,0,0,1-.16-.07.17.17,0,0,1-.09-.14A.31.31,0,0,1,19.12,37.24Z" style="fill:#fff"/></g></g></svg>