<svg xmlns="http://www.w3.org/2000/svg" width="33.01mm" height="21.56mm" viewBox="0 0 93.58 61.11"><title>menu</title><g id="圖層_2" data-name="圖層 2"><g id="icon4"><path d="M66.17,61.11a1.22,1.22,0,0,1-.32,0,2.56,2.56,0,0,0-.59-.09H65l-.52-.09a2.93,2.93,0,0,0-.7-.12,3.91,3.91,0,0,0-.71.11l-.3.07a1.23,1.23,0,0,1-.27,0,1.35,1.35,0,0,1-.8-.25,1.63,1.63,0,0,0-.74-.35h0a1.6,1.6,0,0,0-.71.23l-.15.08a1.42,1.42,0,0,1-.61.13h-.13l-.38,0c-.35,0-.61,0-.87-.07a4.34,4.34,0,0,1-.69-.17,6.1,6.1,0,0,0-.69-.19,2.34,2.34,0,0,0-.38,0l-.63,0a1.5,1.5,0,0,1-.37,0,3.19,3.19,0,0,1-.7-.24l-.55-.22a1.4,1.4,0,0,1-.64-.43l-.09-.11a1.39,1.39,0,0,0-.56-.5c-.45-.15-.86-.31-1.3-.49L51,58.14a6.18,6.18,0,0,1-.74-.27L50,57.76c-.38-.17-.7-.32-1-.49a2.4,2.4,0,0,0-.66-.19,2.56,2.56,0,0,1-.51-.12l-.25-.12a1.72,1.72,0,0,0-.64-.17l-.18,0a1.41,1.41,0,0,1-1.06-.85,2.33,2.33,0,0,0-.43-.53,1,1,0,0,0-.51-.14,1.43,1.43,0,0,1-1.33-1.37c0-.38-.08-.5-.16-.57a2.61,2.61,0,0,0-.56-.41,3.09,3.09,0,0,1-.54-.37L42,52.3a2.89,2.89,0,0,1-.38-.62,4,4,0,0,0-.36-.62,1.45,1.45,0,0,1-.2-.34,2,2,0,0,1-.09-.29,2.62,2.62,0,0,0-.29-.71,1.82,1.82,0,0,0-.56-.46,1.79,1.79,0,0,1-.27-.18,1.3,1.3,0,0,1-.39-.45,3.65,3.65,0,0,1-.25-.53,5.8,5.8,0,0,0-.3-.65,3.36,3.36,0,0,1-.24-.72,2.88,2.88,0,0,0-.2-.65,1.44,1.44,0,0,0-.59-.52,1.57,1.57,0,0,1-.73-1c0-.09,0-.2,0-.3a3.2,3.2,0,0,0-.12-.62,1.51,1.51,0,0,1-.06-.52l0-.27a1.67,1.67,0,0,0,0-.77,1.55,1.55,0,0,0-.41-.58A1.41,1.41,0,0,1,36.27,40a1.33,1.33,0,0,0,.14-.7c0-.06,0-.17-.32-.36a1.45,1.45,0,0,1-.61-1,1.43,1.43,0,0,1,.28-1.09c.19-.24.18-.35.18-.41a2.11,2.11,0,0,0-.24-.69,3.31,3.31,0,0,1-.19-.47,1.33,1.33,0,0,1,0-.34c0-.07-.05-.21-.28-.51a1.43,1.43,0,0,1,0-1.72,1.11,1.11,0,0,0,.28-.58c0-.49.06-1,.11-1.45a1.26,1.26,0,0,0-.14-.58,1.4,1.4,0,0,1,.43-1.71c.27-.22.4-.37.43-.52a1.4,1.4,0,0,0-.2-.78L36,27a1.5,1.5,0,0,1-.1-.81c0-.2,0-.39.05-.55a2.92,2.92,0,0,1,.1-.79,3.18,3.18,0,0,1,.34-.7,4.08,4.08,0,0,0,.31-.63,4,4,0,0,1,.36-.71,3.21,3.21,0,0,0,.32-.61,1.54,1.54,0,0,1,.55-.66,1.65,1.65,0,0,0,.41-.51,3.53,3.53,0,0,0,.21-.65l.1-.36a1.38,1.38,0,0,1,.67-.81l.78,1.19-.68-1.25a1.47,1.47,0,0,0,.61-.47c0-.05.1-.17,0-.56a1.42,1.42,0,0,1,1-1.7.69.69,0,0,0,.41-.24,1.32,1.32,0,0,0,.15-.79A1.65,1.65,0,0,1,42,14.3l.31-.32.48-.49A1.55,1.55,0,0,0,43,13a1.41,1.41,0,0,1,1.31-.88h.19a3.44,3.44,0,0,0,.43,0c.27,0,.36-.08.39-.11s.16-.18.18-.57A1.41,1.41,0,0,1,47,10.14a.75.75,0,0,0,.49-.11.76.76,0,0,0,.26-.37A1.42,1.42,0,0,1,49,8.81a1.67,1.67,0,0,1,.49.08,1.39,1.39,0,0,0,.44.11.48.48,0,0,0,.18,0,1.77,1.77,0,0,0,.51-.54l.16-.22a1.39,1.39,0,0,1,.41-.35,2,2,0,0,0,.5-.5,2.54,2.54,0,0,1,.2-.23,1.37,1.37,0,0,1,.43-.33,2.62,2.62,0,0,0,.54-.35,4.09,4.09,0,0,1,.6-.38c.33-.12.6-.2.87-.27l.28-.08a1.74,1.74,0,0,1,.39,0,1.41,1.41,0,0,1,.72.19,1.82,1.82,0,0,0,.78.33h.11a2.46,2.46,0,0,0,.63-.31,4.1,4.1,0,0,1,.54-.28l.19,0a3.32,3.32,0,0,1,.53,0h.37a2.28,2.28,0,0,0,.5,0c.16,0,.32-.18.56-.57a1.43,1.43,0,0,1,1.2-.65,1.24,1.24,0,0,1,.38,0,1.84,1.84,0,0,0,.53.09,1.66,1.66,0,0,1,.59.1l.22.1a1.87,1.87,0,0,0,.72.23c.52,0,1,0,1.47,0a1.65,1.65,0,0,0,.71-.28l.14-.08a1.46,1.46,0,0,1,.68-.17,1.39,1.39,0,0,1,.4.06l.2.06a3.36,3.36,0,0,0,.76.19h.91a3.32,3.32,0,0,1,.55,0,3,3,0,0,1,.74.2A4.34,4.34,0,0,0,70.8,5L71,5a3.31,3.31,0,0,0,.53-.06,2.35,2.35,0,0,1,.54-.07,1.25,1.25,0,0,1,.43.07,4.28,4.28,0,0,1,.54.22,4.93,4.93,0,0,0,.64.24c.54.14,1,.25,1.4.38a2.63,2.63,0,0,0,.7.09A1.42,1.42,0,0,1,77,6.78c.15.41.27.65.45.72a1.42,1.42,0,0,0,.57.09h.38A1.33,1.33,0,0,1,79,7.7a.78.78,0,0,0,.28,0l.19,0h.17A1.42,1.42,0,0,1,81,8.82c.09.38.19.49.28.54a1.55,1.55,0,0,0,.7.19l.29,0a1.42,1.42,0,0,1,.48.19,1.81,1.81,0,0,0,.71.18l.2,0a1.41,1.41,0,0,1,.68.28l.4.29a4.79,4.79,0,0,1,.4.29,1.38,1.38,0,0,1,.53.91,1.62,1.62,0,0,0,.28.84,4.68,4.68,0,0,0,.46.43,5.25,5.25,0,0,1,.58.56,3.82,3.82,0,0,0,.53.45,2.91,2.91,0,0,1,.53.45,3.55,3.55,0,0,0,.55.55,1.44,1.44,0,0,1,.45,1.51c-.13.42-.18.68-.08.85a1.3,1.3,0,0,0,.52.43,1.41,1.41,0,0,1,.7,1.4,1.4,1.4,0,0,0,0,.68,1.47,1.47,0,0,0,.6.51l.11.07a1.44,1.44,0,0,1,.54.58,2.94,2.94,0,0,0,.32.49l.21.29a1.41,1.41,0,0,1,.22.85,2.29,2.29,0,0,1,0,.25,2.33,2.33,0,0,0,0,.69,1.47,1.47,0,0,1,0,.69.56.56,0,0,1,0,.12,1.6,1.6,0,0,0-.14.79c0,.12.1.25.48.49A1.42,1.42,0,0,1,93,27.44a1.12,1.12,0,0,0-.1.52c0,.2.06.39.09.59s.09.57.11.83a1.84,1.84,0,0,0,.24.69l.07.13a1.4,1.4,0,0,1,0,1.23L92.11,31l1.28.59a2.28,2.28,0,0,0-.22.67,1.34,1.34,0,0,1-.1.44,2.39,2.39,0,0,1-.13.28,2,2,0,0,0-.27.72c0,.19,0,.37,0,.56s0,.58-.06.85,0,.42,0,.62a6.27,6.27,0,0,1-.07.8c-.06.34-.13.67-.2,1l-.09.38a5.2,5.2,0,0,1-.21.67,6.07,6.07,0,0,0-.23.68.9.9,0,0,0,.13.6,1.41,1.41,0,0,1-.43,1.74,1,1,0,0,0-.36.42,1.39,1.39,0,0,0,0,.78,1.46,1.46,0,0,1-.43,1.38,2.26,2.26,0,0,0-.47.58.69.69,0,0,0,0,.44A1.42,1.42,0,0,1,89,46.71c-.48.08-.56.19-.59.25s-.07.36.07.82a1.41,1.41,0,0,1-.54,1.57,1.89,1.89,0,0,0-.47.42,1.58,1.58,0,0,0-.24.64A1.4,1.4,0,0,1,86,51.52a1.33,1.33,0,0,0-.66.23,1.68,1.68,0,0,1-.5.29l-.19.05a1.71,1.71,0,0,0-.72.32,2.57,2.57,0,0,0-.4.56,3.36,3.36,0,0,1-.33.49l-.13.13a.83.83,0,0,0-.22.5A1.43,1.43,0,0,1,81.5,55.2h-.18a.71.71,0,0,0-.45.1,1.13,1.13,0,0,0-.34.53,1.43,1.43,0,0,1-1.31.88H79a.81.81,0,0,0-.44.09c-.08,0-.18.12-.29.39a1.41,1.41,0,0,1-1.31.88,1.29,1.29,0,0,1-.43-.07,1.28,1.28,0,0,0-.34-.06A.47.47,0,0,0,76,58a1.62,1.62,0,0,0-.54.48l-.17.19a1.33,1.33,0,0,1-.55.35l-.62.2-.6.18-.59.23c-.29.12-.51.21-.74.28a3,3,0,0,1-.72.08,3.26,3.26,0,0,0-.7.06.9.9,0,0,0-.39.24,1.43,1.43,0,0,1-1,.38,1.37,1.37,0,0,1-.91-.34C68.18,60,68,60,67.94,60s-.4.21-.62.52A1.42,1.42,0,0,1,66.17,61.11Z" style="fill:#eac38d"/><path d="M58.07,54.78a1,1,0,0,1-.3,0l-.3-.09a2.85,2.85,0,0,0-.69-.15l-.35,0h-.61a4,4,0,0,1-.5,0,3.49,3.49,0,0,1-.77-.2,4.1,4.1,0,0,0-.66-.19H53.7a2.69,2.69,0,0,0-.54.06,3,3,0,0,1-.55.06,1.83,1.83,0,0,1-.4,0c-.07,0-.32-.12-.56-.23a5.25,5.25,0,0,0-.66-.26c-.47-.12-1-.25-1.41-.4a2.77,2.77,0,0,0-.71-.1,1.43,1.43,0,0,1-1.26-.95c-.14-.42-.26-.66-.44-.74a1.68,1.68,0,0,0-.72-.1h-.33a1.37,1.37,0,0,1-.45-.13.83.83,0,0,0-.34-.06l-.28,0A1.43,1.43,0,0,1,43.66,50c-.07-.39-.17-.5-.26-.56a1.52,1.52,0,0,0-.69-.22l-.17,0a1.4,1.4,0,0,1-.88-.58l-.14-.2a2.68,2.68,0,0,0-.44-.57,2.7,2.7,0,0,1-.47-.59,4,4,0,0,0-.4-.52.74.74,0,0,0-.53-.17,1.42,1.42,0,0,1-1.33-1.34.88.88,0,0,0-.13-.48,1.1,1.1,0,0,1-.14-.21,2.11,2.11,0,0,1-.15-.41,2.53,2.53,0,0,0-.29-.68c-.06-.09-.15-.18-.46-.26a1.43,1.43,0,0,1-1-1.59.77.77,0,0,0,0-.5,2.48,2.48,0,0,0-.44-.53,2.68,2.68,0,0,1-.36-.42,1.59,1.59,0,0,1-.13-.22,1.91,1.91,0,0,0-.4-.52A1.31,1.31,0,0,1,34.47,38a1.25,1.25,0,0,0,.11-.75c0-.06-.06-.19-.5-.38a1.42,1.42,0,0,1-.78-1.78.71.71,0,0,0,.06-.44,3.62,3.62,0,0,0-.22-.63,3.16,3.16,0,0,1-.25-.73,4,4,0,0,1,0-.77,3.83,3.83,0,0,0,0-.68,2.22,2.22,0,0,0-.23-.67,1.67,1.67,0,0,1,0-1.45,1.49,1.49,0,0,0,.27-.73,1.38,1.38,0,0,0-.21-.64,1.43,1.43,0,0,1,.18-1.55,1.24,1.24,0,0,0,.35-.62c0-.35.07-.68.11-1l0-.38.06-.5c0-.33.06-.61.11-.9a1.28,1.28,0,0,0-.21-.75,1.47,1.47,0,0,1,0-1.31l.06-.12a3.45,3.45,0,0,0,.32-.69,1.81,1.81,0,0,0,0-.73,2.51,2.51,0,0,1,0-.32,1.24,1.24,0,0,1,.06-.54l.1-.31c.1-.32.19-.6.29-.87a1.46,1.46,0,0,1,.34-.52c0-.06.12-.11.18-.17a1.75,1.75,0,0,0,.52-.58,3.83,3.83,0,0,1,.4-.62,4.21,4.21,0,0,0,.39-.58l.13-.26c.18-.37.34-.69.52-1a1.54,1.54,0,0,0,.14-.73,1.56,1.56,0,0,1,0-.24,1.43,1.43,0,0,1,.21-.64l.16-.25,1.28.63L37.19,12c.16-.25.31-.5.48-.74a2.28,2.28,0,0,0,.3-.65,1.65,1.65,0,0,1,1-1l.12,0a1.51,1.51,0,0,0,.65-.31,6.12,6.12,0,0,0,.39-.5,7.64,7.64,0,0,1,.52-.62,1.84,1.84,0,0,1,.22-.17,3.19,3.19,0,0,1,.38-.2,2.67,2.67,0,0,0,.66-.38,5,5,0,0,0,.45-.47,3.65,3.65,0,0,1,.55-.56,1.81,1.81,0,0,0,.43-.6c.06-.12.11-.21.16-.29A1.41,1.41,0,0,1,43.87,5L44,5c.21-.15.42-.3.64-.44a1.4,1.4,0,0,1,.78-.24,1.61,1.61,0,0,1,.48.08,2.28,2.28,0,0,0,.66.15.47.47,0,0,0,.22,0,7.64,7.64,0,0,1,.71-.34L48,3.89a1.68,1.68,0,0,0,.52-.54,1.6,1.6,0,0,1,1.05-.67l.16,0a2.75,2.75,0,0,0,.76-.12,1.56,1.56,0,0,0,.57-.5l.13-.16a1.52,1.52,0,0,1,.53-.38,2,2,0,0,0,.53-.37,1.4,1.4,0,0,1,.93-.35,1.38,1.38,0,0,1,.6.13,1.6,1.6,0,0,0,.62.2h.11L55,1c.35-.08.66-.14,1-.19a7.08,7.08,0,0,1,.79-.09l.54,0h.16a1.23,1.23,0,0,1,.42.07l.21.07a2,2,0,0,0,.7.18c.25,0,.43-.16.69-.43a1.41,1.41,0,0,1,1-.43A1.67,1.67,0,0,1,61,.21a1.84,1.84,0,0,0,.67.17,5.83,5.83,0,0,1,.72.06c.29,0,.5.06.71.07h0a1.42,1.42,0,0,0,.7-.28A1.41,1.41,0,0,1,64.52,0a1.36,1.36,0,0,1,.75.22,2.12,2.12,0,0,0,.67.3,1.43,1.43,0,0,1,.28.07l.36.18a2.59,2.59,0,0,0,.71.3l.14,0A2.23,2.23,0,0,0,68,1l.18,0A1.32,1.32,0,0,1,68.6.85,1.52,1.52,0,0,1,69,.91l.51.19.44.16a1.42,1.42,0,0,1,.72.56l.06.1c.19.29.34.51.54.58a.66.66,0,0,0,.25,0,2,2,0,0,0,.37,0,1.27,1.27,0,0,1,.28,0,1.41,1.41,0,0,1,1.23.72,1,1,0,0,0,.42.48.71.71,0,0,0,.31.06,2.59,2.59,0,0,0,.47,0l.24,0a1.53,1.53,0,0,1,1,.34l.16.14a3.45,3.45,0,0,0,.56.45,2.2,2.2,0,0,0,.66.25,2.86,2.86,0,0,1,.36.1,1.36,1.36,0,0,1,.64.46,3,3,0,0,1,.2.29,2.43,2.43,0,0,0,.46.6,3.14,3.14,0,0,1,.51.6,4.15,4.15,0,0,0,.42.52,1.35,1.35,0,0,1,.26.32c0,.06.08.15.13.26a2.3,2.3,0,0,0,.39.66A1.74,1.74,0,0,0,81.2,9l.26.13a1.32,1.32,0,0,1,.48.4c.12.16.22.33.33.51a6.69,6.69,0,0,0,.36.58,2.47,2.47,0,0,1,.34.69,3.08,3.08,0,0,0,.28.61,1.5,1.5,0,0,0,.65.44,1.59,1.59,0,0,1,.85.91l.08.27a3.68,3.68,0,0,0,.2.62,1.46,1.46,0,0,1,.12.51,2.35,2.35,0,0,1,0,.26,2,2,0,0,0,.08.77,1.41,1.41,0,0,0,.46.52,1.4,1.4,0,0,1,.48,1.49,1.32,1.32,0,0,0-.06.7c0,.05,0,.16.34.32a1.38,1.38,0,0,1,.7.9A1.43,1.43,0,0,1,87,20.77c-.17.25-.15.36-.14.41a2.15,2.15,0,0,0,.29.66,2.94,2.94,0,0,1,.24.46,1.3,1.3,0,0,1,.08.34,1.21,1.21,0,0,0,.32.48,1.42,1.42,0,0,1,.15,1.71,1.3,1.3,0,0,0-.24.61c0,.48,0,1,0,1.45a1.11,1.11,0,0,0,.19.56,1.42,1.42,0,0,1-.31,1.74c-.26.23-.37.39-.39.55a1.42,1.42,0,0,0,.26.76l.07.13a1.41,1.41,0,0,1,.16.8,5.45,5.45,0,0,0,0,.56,3.29,3.29,0,0,1,0,.79,3.15,3.15,0,0,1-.29.73,3.58,3.58,0,0,0-.27.65,3.82,3.82,0,0,1-.31.72,4.12,4.12,0,0,0-.28.64,1.46,1.46,0,0,1-.5.69,1.77,1.77,0,0,0-.38.54,4.91,4.91,0,0,0-.17.66c0,.12,0,.25-.07.36a1.37,1.37,0,0,1-.62.87l-.85-1.14.76,1.2a1.42,1.42,0,0,0-.57.51s-.09.17,0,.56a1.4,1.4,0,0,1-.85,1.75.78.78,0,0,0-.4.28,1.36,1.36,0,0,0-.09.8,1.62,1.62,0,0,1-.31,1.09l-.34.39-.4.47a1.69,1.69,0,0,0-.26.54,1.42,1.42,0,0,1-1.35,1H79.7a.78.78,0,0,0-.51.13c-.07.07-.14.2-.15.58a1.4,1.4,0,0,1-1.34,1.4.9.9,0,0,0-.47.14.94.94,0,0,0-.25.39,1.41,1.41,0,0,1-1.33.94,1.51,1.51,0,0,1-.41-.06,1.26,1.26,0,0,0-.41-.08.41.41,0,0,0-.22,0,1.57,1.57,0,0,0-.48.56l-.16.24a1.25,1.25,0,0,1-.4.36,2,2,0,0,0-.48.52l-.18.25a1.51,1.51,0,0,1-.44.35,3,3,0,0,0-.53.37,2.77,2.77,0,0,1-.59.41c-.32.13-.58.22-.85.31l-.31.1a1.59,1.59,0,0,1-.43.06,1.44,1.44,0,0,1-.67-.16,1.87,1.87,0,0,0-.79-.3h-.12a2.71,2.71,0,0,0-.63.33,2.54,2.54,0,0,1-.54.3l-.17.06a3.41,3.41,0,0,1-.74.06,3.22,3.22,0,0,0-.69.06c-.17,0-.32.19-.56.59a1.42,1.42,0,0,1-1.21.68,1.34,1.34,0,0,1-.35,0,2.26,2.26,0,0,0-.53-.09h-.1a1.61,1.61,0,0,1-.54-.09l-.2-.09a1.94,1.94,0,0,0-.73-.22l-1.5.07a1.54,1.54,0,0,0-.71.28A1.88,1.88,0,0,1,58.07,54.78Z" style="fill:#cbd872"/><path d="M47.14,21h-.26A1.43,1.43,0,0,1,45.66,19a1.05,1.05,0,0,0,.1-.39.44.44,0,0,0-.18-.37,1.41,1.41,0,0,1-.21-1.84.59.59,0,0,0,.09-.32.56.56,0,0,0,0-.23,1.42,1.42,0,0,1,.71-1.77A.56.56,0,0,0,46.3,14a2.46,2.46,0,0,0,.17-.22,1.37,1.37,0,0,1,.92-.65,1.12,1.12,0,0,0,.45-.22,1.45,1.45,0,0,1,.78-.26,1.53,1.53,0,0,0,.65-.13,1.71,1.71,0,0,1,.7-.13,5.62,5.62,0,0,1,.69,0l.4,0a1.43,1.43,0,0,1,1.09.59c.26.35.43.42.65.42a1.56,1.56,0,0,0,.71-.15l.22-.07.16,0,.33,0a2.21,2.21,0,0,1,.71.1,2.12,2.12,0,0,0,.7.1c.16,0,.33,0,.57-.36a1.44,1.44,0,0,1,1.15-.58,1.5,1.5,0,0,1,.61.14,1.08,1.08,0,0,0,.42.1,1.4,1.4,0,0,1,.79.28,1,1,0,0,0,.69.26h1.41a1,1,0,0,0,.66-.25,1.45,1.45,0,0,1,.88-.31,1.76,1.76,0,0,1,.45.07l.15.06a1.69,1.69,0,0,0,.68.12,3.84,3.84,0,0,0,.71-.05,3.71,3.71,0,0,1,.7,0,2.28,2.28,0,0,1,.72.1,2.43,2.43,0,0,0,.69.09,1.33,1.33,0,0,0,.71-.18,1.34,1.34,0,0,1,.48-.15l.36,0a2.1,2.1,0,0,1,.56.08,2.39,2.39,0,0,0,.72.09h1.4a1.76,1.76,0,0,0,.59-.09,1.34,1.34,0,0,1,.48-.08,1.4,1.4,0,0,1,1.15.59c.26.36.44.39.61.39a1,1,0,0,0,.6-.16,1.49,1.49,0,0,1,.73-.2,1.45,1.45,0,0,1,.75.22,1.4,1.4,0,0,1,.66,1.32.93.93,0,0,0,.17.6A1.44,1.44,0,0,1,77,16.76a1.39,1.39,0,0,0-.14.62,1.83,1.83,0,0,1-.1.64,1.76,1.76,0,0,0-.1.63,1.5,1.5,0,0,1-.54,1.15,1.57,1.57,0,0,1-.92.33,1.36,1.36,0,0,1-.29,0L74.66,20a1.63,1.63,0,0,0-.7-.14.63.63,0,0,0-.48.2,1.41,1.41,0,0,1-1,.4,1.38,1.38,0,0,1-.9-.32.68.68,0,0,0-.47-.17,1.59,1.59,0,0,0-.71.16l-.19.08-.13,0a1.58,1.58,0,0,1-.38.05,1.29,1.29,0,0,0-.62.14,1.46,1.46,0,0,1-.61.13,1.39,1.39,0,0,1-1-.4.82.82,0,0,0-.61-.27c-.13,0-.28,0-.49.29a1.42,1.42,0,0,1-1.13.57,1.48,1.48,0,0,1-.78-.23.69.69,0,0,0-.42-.12,2.12,2.12,0,0,0-.7.1,2.2,2.2,0,0,1-.71.11,2.59,2.59,0,0,1-.7-.09,2.67,2.67,0,0,0-.71-.08,1.31,1.31,0,0,0-.68.16,1.38,1.38,0,0,1-.62.15,1.45,1.45,0,0,1-.87-.3,1,1,0,0,0-1.21-.09,1.44,1.44,0,0,1-.75.21,1.4,1.4,0,0,1-.94-.36A.8.8,0,0,0,55.6,20H54.19l-.7,0-.71,0a.83.83,0,0,0-.63.28,1.43,1.43,0,0,1-1,.4,1.41,1.41,0,0,1-.45-.07,1.93,1.93,0,0,0-.75-.14,1.13,1.13,0,0,0-.71.23,1.37,1.37,0,0,1-.77.23h-.64Z" style="fill:#fff"/><path d="M71.12,33a2.54,2.54,0,0,1-.7-.08,3,3,0,0,0-.43-.06,1.42,1.42,0,0,1-1-.58c-.26-.35-.43-.42-.65-.42a.83.83,0,0,0-.55.18,1.41,1.41,0,0,1-.87.3A1.45,1.45,0,0,1,66,32a.8.8,0,0,0-.55-.2,1.21,1.21,0,0,0-.7.2,1.47,1.47,0,0,1-.61.17l-.57,0h-.94A1.49,1.49,0,0,1,62,32a1.44,1.44,0,0,0-.76-.21.62.62,0,0,0-.48.22,1.4,1.4,0,0,1-1,.42,1.41,1.41,0,0,1-.87-.3.7.7,0,0,0-.46-.16,5.53,5.53,0,0,1-.71,0,5.23,5.23,0,0,0-.7,0,4.83,4.83,0,0,1-.7-.05,3.92,3.92,0,0,0-.71-.05H54.19l-.68,0-.73,0a4.88,4.88,0,0,0-.71.05,3.68,3.68,0,0,1-.7.06,1.9,1.9,0,0,0-.71.13,1.68,1.68,0,0,1-.7.14,1.39,1.39,0,0,1-.35,0l-.14,0L49.25,32a1.49,1.49,0,0,0-.7-.15.57.57,0,0,0-.47.21,1.46,1.46,0,0,1-1,.43h0A1.46,1.46,0,0,1,46,32l-.1-.12a1.41,1.41,0,0,1-.38-.85c0-.13,0-.33,0-.49,0-.32,0-.47,0-.63s0-.32,0-.63a.84.84,0,0,0-.22-.58,1.42,1.42,0,0,1-.31-.87c0-.19,0-.31,0-.43s0-.34,0-.65,0-.52,0-.73a1.42,1.42,0,0,1,1.41-1.25h.11l.18,0,.49,0a3.72,3.72,0,0,0,.71-.06,4.88,4.88,0,0,1,.71-.05,1.47,1.47,0,0,1,.36,0l.14,0,.2.07a1.59,1.59,0,0,0,.71.16,2.67,2.67,0,0,0,.71-.08,2.78,2.78,0,0,1,.71-.08,1.06,1.06,0,0,0,.67-.21,1.44,1.44,0,0,1,.8-.24h1A1.41,1.41,0,0,1,55,25c.26.36.43.43.65.43s.53,0,.71,0,.35,0,.7,0a1,1,0,0,0,.66-.24,1.41,1.41,0,0,1,.87-.3A1.37,1.37,0,0,1,59,25l.11,0a1.82,1.82,0,0,0,.73.15,1,1,0,0,0,.67-.27,1.4,1.4,0,0,1,.83-.32,1,1,0,0,0,.47-.14,1.44,1.44,0,0,1,1.69.19.75.75,0,0,0,.57.25h.71l.7,0a5.41,5.41,0,0,1,.71,0c.17,0,.33,0,.64,0a1.36,1.36,0,0,1,.76.23,1.17,1.17,0,0,0,.72.23.72.72,0,0,0,.58-.29A1.41,1.41,0,0,1,70,24.68a1.51,1.51,0,0,1,.58.12,1.29,1.29,0,0,0,.59.13,5.41,5.41,0,0,1,.71,0,5,5,0,0,0,.71.05.78.78,0,0,0,.57-.25,1.46,1.46,0,0,1,1-.37,1.43,1.43,0,0,1,.7.18,1,1,0,0,0,.49.15,1.39,1.39,0,0,1,.88.39l.45.47.32.26.14.1a1.45,1.45,0,0,1,.53,1.3l0,.15a1.79,1.79,0,0,0,0,.36,1.42,1.42,0,0,1-.48,1,.7.7,0,0,0-.3.57.75.75,0,0,0,.06.31,1.42,1.42,0,0,1-.45,1.77l-.1.08a1.35,1.35,0,0,0-.17.25,1.43,1.43,0,0,1-1.25.73,1.84,1.84,0,0,1-.33,0,2,2,0,0,0-.56-.06,1.33,1.33,0,0,0-.71.17,1.54,1.54,0,0,1-.56.14,2.38,2.38,0,0,0-.86.16A1.73,1.73,0,0,1,71.12,33Z" style="fill:#fff"/><path d="M58.79,45a1.4,1.4,0,0,1-1.13-.58C57.4,44,57.23,44,57,44a1.29,1.29,0,0,0-.7.17,1.44,1.44,0,0,1-.57.13,1.61,1.61,0,0,0-.85.25.47.47,0,0,1-.12.07,1.36,1.36,0,0,1-.63.15h0a2.26,2.26,0,0,1-.65-.09,2,2,0,0,0-.56-.09,1.35,1.35,0,0,1-.86-.33,1,1,0,0,0-.68-.28,3.72,3.72,0,0,1-.71-.06,4.83,4.83,0,0,0-.7,0,2.64,2.64,0,0,1-.7-.08,2.67,2.67,0,0,0-.71-.08,1.12,1.12,0,0,0-.52.11,1.37,1.37,0,0,1-.62.14,1.41,1.41,0,0,1-1.08-.49l-.08-.08a.7.7,0,0,0-.18-.14,1.42,1.42,0,0,1-.61-1.66,1.23,1.23,0,0,0,0-.35,1.4,1.4,0,0,0-.12-.61,1.41,1.41,0,0,1,.19-1.37.76.76,0,0,0,.18-.45,1.43,1.43,0,0,1,.44-.91l.15-.15a1.43,1.43,0,0,1,.89-.44.88.88,0,0,0,.39-.15,1.4,1.4,0,0,1,1.83.13.66.66,0,0,0,.51.22h1.42c.21,0,.38-.07.62-.39a1.42,1.42,0,0,1,1.14-.57,1.47,1.47,0,0,1,.36,0,2.22,2.22,0,0,0,.63.09,1.49,1.49,0,0,1,.79.26,1.09,1.09,0,0,0,.7.24,1.71,1.71,0,0,1,.7.13,2,2,0,0,0,.71.12,5.23,5.23,0,0,0,.7,0,5.13,5.13,0,0,1,.71,0,.68.68,0,0,0,.5-.19,1.42,1.42,0,0,1,.93-.35,1.39,1.39,0,0,1,.9.33.74.74,0,0,0,.49.18,1.7,1.7,0,0,0,.71-.14,1.65,1.65,0,0,1,.7-.14.82.82,0,0,0,.61-.27,1.42,1.42,0,0,1,1-.42,1.46,1.46,0,0,1,.57.12,1.43,1.43,0,0,0,.64.13c.36,0,.53,0,.71,0l.7,0a1.2,1.2,0,0,0,.69-.2l0,0a1.42,1.42,0,0,1,.75-.21h.87a1.45,1.45,0,0,1,1.23.73c.29.53.48.57.66.57a.58.58,0,0,0,.52-.3,1.45,1.45,0,0,1,1.12-.55,1.41,1.41,0,0,1,.74.21.76.76,0,0,0,.45.12.71.71,0,0,0,.36-.09,1.46,1.46,0,0,1,.7-.18,1.31,1.31,0,0,1,.39,0,1.39,1.39,0,0,1,.85.67,1.27,1.27,0,0,0,.16.23,2.54,2.54,0,0,0,.36.29,1.47,1.47,0,0,1,.59.92,1.05,1.05,0,0,0,.05.19A1.42,1.42,0,0,1,77,40.78c-.29.2-.29.34-.29.43,0,.32,0,.48,0,.63s0,.32,0,.64a1.13,1.13,0,0,0,.09.38,1.43,1.43,0,0,1-.57,1.68,1.4,1.4,0,0,1-.76.22,1.41,1.41,0,0,1-1-.4.67.67,0,0,0-.51-.23,2.11,2.11,0,0,1-.7-.1,2.06,2.06,0,0,0-.72-.11.61.61,0,0,0-.53.29,1.42,1.42,0,0,1-1.84.34.88.88,0,0,0-.46-.12,1.39,1.39,0,0,1-.57-.12,1.76,1.76,0,0,0-.84-.22.83.83,0,0,0-.54.19,1.41,1.41,0,0,1-.89.32,1.39,1.39,0,0,1-.86-.3.82.82,0,0,0-.54-.18,2.77,2.77,0,0,0-.7.07,3.25,3.25,0,0,1-.71.07,5.23,5.23,0,0,0-.7,0,5.79,5.79,0,0,1-.71,0,1.71,1.71,0,0,1-.7-.13,1.73,1.73,0,0,0-.71-.13.78.78,0,0,0-.64.38,1.41,1.41,0,0,1-1.11.53Z" style="fill:#fff"/><path d="M3.2,19.34a.63.63,0,0,1,.6-.47A.32.32,0,0,1,4,19a.35.35,0,0,1,.1.24,1.76,1.76,0,0,1,0,.33,1.81,1.81,0,0,0,0,.32,2.14,2.14,0,0,0,.14.73c.1.25.24.56.42.94a12.81,12.81,0,0,1,.59,1.38,4,4,0,0,1,.19,1.22,2.52,2.52,0,0,1-.19.91q-.2.48-.21.54v.05s.07.06.22.08a1.77,1.77,0,0,0,.34,0l.61,0c.27,0,.66.07,1.2.1.81,0,2,.13,3.65.26,2.28.18,4,.28,5.11.3l1.55,0a4,4,0,0,1,1.1.1.84.84,0,0,1,.4.7.87.87,0,0,1-.31.68,13.32,13.32,0,0,1-3.54.21,64.43,64.43,0,0,1-9.84-.89q-.37,0-1.5-.09A22.64,22.64,0,0,1,1.54,27a2.05,2.05,0,0,1-1.31-.53A.83.83,0,0,1,0,26a1.06,1.06,0,0,1,.33-.63l.47,0c.4,0,.72.05.93.05C3.22,25.41,4,25,4,24.21a3.2,3.2,0,0,0-.12-.87,9.28,9.28,0,0,0-.35-1.07c-.15-.39-.27-.74-.35-1A3.46,3.46,0,0,1,3,20.35,2.79,2.79,0,0,1,3.2,19.34ZM2.61,14A.49.49,0,0,1,3,13.78a1.58,1.58,0,0,1,1,.48,5.37,5.37,0,0,1,1,1.12,2.15,2.15,0,0,1,.4,1,.79.79,0,0,1-.19.47.56.56,0,0,1-.42.23.63.63,0,0,1-.44-.24,7.77,7.77,0,0,1-.52-.72l-.28-.42A1.57,1.57,0,0,0,3,15.26,1.08,1.08,0,0,1,2.68,15a.86.86,0,0,1-.17-.36,1.38,1.38,0,0,1,0-.26A.68.68,0,0,1,2.61,14Zm4.66-4A2.48,2.48,0,0,1,8,9.07a1.77,1.77,0,0,1,.95-.56.68.68,0,0,1,.6.34,1.31,1.31,0,0,1,.22.74,2.26,2.26,0,0,1-.39,1.3,3.61,3.61,0,0,1-1,1c-.17.12-.25.53-.25,1.21a1.83,1.83,0,0,0,.11.61.28.28,0,0,0,.21.07A1.32,1.32,0,0,0,9,13.66a7.07,7.07,0,0,0,.68-.37,2.34,2.34,0,0,1,.94-.4.41.41,0,0,1,.34.24.77.77,0,0,1,.15.42,1.07,1.07,0,0,1-.56.82A5.23,5.23,0,0,1,9.21,15a3.51,3.51,0,0,1-1.12.27A1.3,1.3,0,0,1,7,14.86a2.08,2.08,0,0,1-.33-1.26A13.46,13.46,0,0,1,7.27,10Zm4.09,7.29a3.71,3.71,0,0,0,.71-.33,2.15,2.15,0,0,0,.21-.56,2.15,2.15,0,0,1,.17-.54.29.29,0,0,1,.28-.18.31.31,0,0,1,.25.15.51.51,0,0,1,.12.31v.15q0,.21.24.21a1.55,1.55,0,0,0,.29,0l.29,0a.62.62,0,0,1,.63.63.58.58,0,0,1-.19.41,7.29,7.29,0,0,1-.65.53,4.29,4.29,0,0,0-.5.37,1.55,1.55,0,0,0-.37.42L12.7,19a.33.33,0,0,1-.3.22c-.1,0-.2-.07-.31-.21s-.2-.22-.28-.23a3.62,3.62,0,0,1-.51.2,1,1,0,0,0-.48.3.92.92,0,0,0-.16.6c0,.34.07.51.22.51A2.3,2.3,0,0,0,11.6,20c.47-.29.87-.51,1.2-.68a1.72,1.72,0,0,1,.77-.26.48.48,0,0,1,.4.2.64.64,0,0,1,.16.43c0,.31-.25.67-.75,1.07a7.28,7.28,0,0,1-1.38.9c-.41.2-.61.33-.61.37s.21.17.63.26a6.84,6.84,0,0,1,.68.17l1.09.2a5.5,5.5,0,0,1,1.56.48c.44.21.66.49.66.82s-.17.49-.52.49a4.36,4.36,0,0,1-1.22-.2c-.43-.13-1-.35-1.82-.65q-.52-.21-1-.36a2.55,2.55,0,0,0-.68-.15c-.08,0-.18.07-.3.22A5.91,5.91,0,0,0,10,24q-.36.56-.6.87a.65.65,0,0,1-.46.3A.45.45,0,0,1,8.63,25a.43.43,0,0,1-.15-.33,1.09,1.09,0,0,1,.2-.58,7.76,7.76,0,0,1,.55-.71,3.52,3.52,0,0,0,.61-.84,2.89,2.89,0,0,0-.51,0,2,2,0,0,1-.67-.1.35.35,0,0,1-.25-.35c0-.08.08-.19.23-.33A2,2,0,0,1,9,21.45l.05-.1a1.78,1.78,0,0,0-.1-.51,1.52,1.52,0,0,1-.11-.52l0-.28a.22.22,0,0,0-.12-.22,1.9,1.9,0,0,0-.4-.11,1.39,1.39,0,0,1-.52-.16c-.14-.08-.2-.23-.2-.47s.09-.27.29-.4a4.51,4.51,0,0,1,.66-.33,4.16,4.16,0,0,0,.52-.23c.05-.12.14-.38.29-.77a3.82,3.82,0,0,1,.5-1,.85.85,0,0,1,.69-.4.46.46,0,0,1,.23.06.19.19,0,0,1,.12.18.74.74,0,0,1-.21.42s-.07.09-.16.23a.77.77,0,0,0-.14.45.28.28,0,0,0,.05.16.19.19,0,0,0,.16.07A5.24,5.24,0,0,0,11.36,17.25ZM8.48,9.85a.29.29,0,0,0-.23.1.37.37,0,0,0-.09.25.28.28,0,0,0,.08.21.22.22,0,0,0,.17.09.25.25,0,0,0,.23-.14.6.6,0,0,0,.08-.28C8.72,9.92,8.64,9.85,8.48,9.85Zm3.58-1.14a5.19,5.19,0,0,1,1.58-.2,2.24,2.24,0,0,1,1.08.19,1.46,1.46,0,0,1,.39.44,1.13,1.13,0,0,1,.19.54,2.73,2.73,0,0,1-.37,1.13,4.42,4.42,0,0,1-.68,1,3.21,3.21,0,0,1-.52.35c-.6.38-.91.66-.91.84a.46.46,0,0,0,.19.44,1.17,1.17,0,0,0,.56.1,6.67,6.67,0,0,0,1.29-.18,6.11,6.11,0,0,1,1.29-.19,1.12,1.12,0,0,1,.6.16.53.53,0,0,1,.27.47c0,.2-.19.4-.57.58a6.1,6.1,0,0,1-1.27.43,5.22,5.22,0,0,1-1,.16,4.81,4.81,0,0,1-1.85-.33,1.2,1.2,0,0,1-.8-1.21,2.64,2.64,0,0,1,.17-.89,11.76,11.76,0,0,1,.47-1.15q0-.15.18-.48a1.49,1.49,0,0,0,.15-.48s0-.06-.1-.07l-.14,0c-.5-.09-.75-.31-.75-.65A.92.92,0,0,1,12.06,8.71Zm1.36,1.68a1.48,1.48,0,0,0-.29.72l.07.1a2.56,2.56,0,0,0,.51-.55A1.35,1.35,0,0,0,14,10L14,9.92C13.79,9.92,13.61,10.07,13.42,10.39Z" style="fill:#6c6851"/><path d="M16,46.22c-.25.06-.8.17-1.66.31l-1.74.31a5.87,5.87,0,0,0-1.61.41c-.13.11-.22.48-.26,1.1s-.08,1.45-.1,2.47a17.58,17.58,0,0,1-.14,2.46,1.23,1.23,0,0,1-.29.63.71.71,0,0,1-.55.26.51.51,0,0,1-.54-.39A3.18,3.18,0,0,1,9,52.85c0-.54.05-1.36.14-2.46,0-.2,0-.56.07-1.07s0-1,0-1.39c0-.26-.1-.4-.3-.4a6.13,6.13,0,0,0-1.13.12l-.49.07a5.14,5.14,0,0,1-.66.05H5.39a3.18,3.18,0,0,1-.93-.12.51.51,0,0,1-.38-.54.85.85,0,0,1,.3-.65,13.27,13.27,0,0,1,2.67-.54c.93-.14,1.5-.25,1.72-.31a1,1,0,0,0,.46-.24.65.65,0,0,0,.15-.46c0-.16,0-.25-.11-.29a.78.78,0,0,0-.36-.06,1.85,1.85,0,0,1-1.64-.67A3.2,3.2,0,0,1,6.8,42a5.36,5.36,0,0,1,.63-2.82,2.51,2.51,0,0,1,2.32-1,6,6,0,0,1,2.66.55,2,2,0,0,1,1.14,1.93,4.17,4.17,0,0,1-.5,1.8A4.67,4.67,0,0,1,11.93,44a1.83,1.83,0,0,1-.36.22,3.13,3.13,0,0,0-.46.29.33.33,0,0,0-.16.27.25.25,0,0,0,.09.19.29.29,0,0,0,.21.09,1,1,0,0,0,.33-.07,11.18,11.18,0,0,1,3.28-.38,4.55,4.55,0,0,1,1.32.17.7.7,0,0,1,.55.75C16.73,45.85,16.5,46.1,16,46.22ZM4.93,37.27a3.29,3.29,0,0,1-.15-1,2.32,2.32,0,0,0-.07-.59c0-.06,0-.14,0-.23a3.16,3.16,0,0,1,0-.35,7.68,7.68,0,0,1,.14-1.42c.1-.48.27-.71.54-.71a.42.42,0,0,1,.29.09,1.4,1.4,0,0,1,.25.3c.09.15.18.22.26.22a2.24,2.24,0,0,0,.51-.07,2.84,2.84,0,0,1,.5,0,.86.86,0,0,1,.73.31,1.28,1.28,0,0,1,.25.81,3.57,3.57,0,0,1-2,3,1.09,1.09,0,0,1-.58.21A.6.6,0,0,1,4.93,37.27ZM6.7,35.42A1,1,0,0,0,6.84,35a.27.27,0,0,0-.3-.31c-.14,0-.23,0-.26.11a.9.9,0,0,0,0,.34c0,.41.06.61.17.61S6.61,35.6,6.7,35.42Zm2,5.32A.75.75,0,0,0,9,40.27a.35.35,0,0,0-.06-.19A.18.18,0,0,0,8.77,40a.76.76,0,0,0-.29.09,2,2,0,0,0-.28.17,1.47,1.47,0,0,0,0,.25,1.65,1.65,0,0,0,.05.47l0,0A.69.69,0,0,0,8.73,40.74Zm.36,2.13c.25-.09.38-.22.38-.37s-.15-.29-.45-.29-.58.22-.82.66c0,.09.07.14.21.14A2,2,0,0,0,9.09,42.87Zm1.54-6.36a4.73,4.73,0,0,1-.2-1.37A4.55,4.55,0,0,1,10.65,34c.15-.51.31-.77.48-.77l.16,0a.39.39,0,0,0,.15,0,2.86,2.86,0,0,0,.75-.25,2.79,2.79,0,0,1,.42-.18,1.47,1.47,0,0,1,.44-.08,1,1,0,0,1,.86.42,1.69,1.69,0,0,1,.29,1,3,3,0,0,1-.27,1,4.65,4.65,0,0,1-.65,1.14,1,1,0,0,1-.76.5.51.51,0,0,1-.22-.07,1,1,0,0,0-.44.18.87.87,0,0,1-.47.19A.77.77,0,0,1,10.63,36.51Zm.07,4.16a.29.29,0,0,0,.25.16.69.69,0,0,0,.55-.29,1.07,1.07,0,0,0,.22-.62.14.14,0,0,0-.08-.12.37.37,0,0,0-.16,0,1.23,1.23,0,0,0-.58.17.49.49,0,0,0-.31.42A.62.62,0,0,0,10.7,40.67Zm.69,1.95c.19-.1.28-.2.28-.31a.29.29,0,0,0-.09-.21.26.26,0,0,0-.21-.1.53.53,0,0,0-.38.23.66.66,0,0,0-.19.41c0,.09,0,.14.15.14A1,1,0,0,0,11.39,42.62Zm.68-7.34c.13,0,.25-.11.36-.31a1.05,1.05,0,0,0,.18-.49.24.24,0,0,0-.12-.18.43.43,0,0,0-.23-.08c-.21,0-.31.24-.31.7Q12,35.28,12.07,35.28Z" style="fill:#6c6851"/></g></g></svg>