<svg xmlns="http://www.w3.org/2000/svg" width="18.52mm" height="27.93mm" viewBox="0 0 52.51 79.18"><title>menu</title><g id="圖層_2" data-name="圖層 2"><g id="圖層_1-2" data-name="圖層 1"><path d="M25.7,79.18a1.42,1.42,0,0,1-1-.44c-.26-.28-.42-.39-.58-.4h0a1.42,1.42,0,0,0-.74.31l0,0a1.46,1.46,0,0,1-.76.22,1.53,1.53,0,0,1-.59-.13l-.1-.05a2.92,2.92,0,0,0-.66-.24c-.25,0-.49-.12-.74-.19a6.69,6.69,0,0,0-.65-.18,9.07,9.07,0,0,1-.89-.26l-.36-.1a1.49,1.49,0,0,1-.59-.36l-.11-.12a1.88,1.88,0,0,0-.6-.49,2.3,2.3,0,0,0-.69-.1,3.15,3.15,0,0,1-.55-.06l-.24-.08a4.61,4.61,0,0,0-.53-.19,6.07,6.07,0,0,1-.75-.28,1.14,1.14,0,0,1-.23-.15,2.8,2.8,0,0,1-.32-.3,2.74,2.74,0,0,0-.55-.5,2.81,2.81,0,0,1-.56-.49,3,3,0,0,0-.49-.45.4.4,0,0,0-.26-.07,1.81,1.81,0,0,0-.29,0l-.29,0a1.42,1.42,0,0,1-1.38-1.1.71.71,0,0,0-.19-.39l-.19-.18c-.32-.28-.58-.53-.84-.8A1.45,1.45,0,0,1,8.55,71a1.84,1.84,0,0,0-.28-.56c-.13-.16-.27-.3-.4-.44a4.49,4.49,0,0,1-.53-.61A2.61,2.61,0,0,1,7,68.68a3.28,3.28,0,0,0-.28-.6,1.23,1.23,0,0,0-.67-.41,1.52,1.52,0,0,1-.88-.91l-.07-.23a4.64,4.64,0,0,0-.22-.66,4,4,0,0,1-.23-.74,4.17,4.17,0,0,0-.18-.63c-.07-.2-.16-.38-.24-.57a4.9,4.9,0,0,1-.31-.74,5.49,5.49,0,0,1-.17-.76c0-.25-.08-.45-.13-.65a3.12,3.12,0,0,0-.26-.62l-.17-.35a1.41,1.41,0,0,1-.06-1l0-.16A1.87,1.87,0,0,0,3.32,59c0-.19-.07-.39-.11-.58a7.59,7.59,0,0,1-.12-.81,2.57,2.57,0,0,0-.19-.67,2.73,2.73,0,0,1-.18-.55,1.79,1.79,0,0,1,0-.23,1.71,1.71,0,0,0-.27-.66,2.21,2.21,0,0,1-.11-.21,1.34,1.34,0,0,1-.15-.71c0-.29,0-.58.07-.87a1.47,1.47,0,0,1,.58-1c.37-.28.6-.47.63-.68s-.14-.47-.39-.79a1.66,1.66,0,0,1-.35-1.11c0-.11,0-.46.06-.51a1.41,1.41,0,0,1,.86-1.17c.39-.17.7-.32.76-.52s0-.48-.21-.81a1.43,1.43,0,0,1,.11-1.45l.07-.1a3.9,3.9,0,0,0,.34-.57,3.24,3.24,0,0,1,.42-.65,4.5,4.5,0,0,0,.37-.56,1.63,1.63,0,0,0,.08-.77v-.18a1.46,1.46,0,0,1,.2-.79c.13-.22.28-.45.42-.67a1.44,1.44,0,0,1,1.13-.65c.45,0,.78-.06.91-.24a2.23,2.23,0,0,0,.3-.62,2.26,2.26,0,0,1,.2-.49,1.41,1.41,0,0,1,.69-.61l0,0a2.61,2.61,0,0,0,.56-.41,1.45,1.45,0,0,0,.29-.69,1.7,1.7,0,0,1,.59-1l.37-.25a4.93,4.93,0,0,0,.53-.36,3,3,0,0,0,.47-.47,3.48,3.48,0,0,1,.57-.54,3.81,3.81,0,0,1,.7-.35,5.07,5.07,0,0,0,.62-.29,2.71,2.71,0,0,1,.72-.27,3.58,3.58,0,0,0,.65-.23,1.4,1.4,0,0,1,.66-.16h.16a2.27,2.27,0,0,0,.64-.12,2,2,0,0,0,.55-.45,1.56,1.56,0,0,1,1.14-.55h.43a1.91,1.91,0,0,0,.51-.06,1.54,1.54,0,0,0,.59-.5l.11-.13a1.37,1.37,0,0,1,.61-.42,4.34,4.34,0,0,0,.54-.25,1.67,1.67,0,0,1,1.4-.05v0l.1.06a1.62,1.62,0,0,0,.71.29c.14,0,.28,0,.54-.44a1.42,1.42,0,0,1,1.19-.64,1.49,1.49,0,0,1,.7.18.86.86,0,0,0,.42.15c.47,0,.9,0,1.33,0H28a1,1,0,0,0,.56-.26,1.46,1.46,0,0,1,.84-.28,1.38,1.38,0,0,1,.94.36,1.08,1.08,0,0,0,.55.31h0a2,2,0,0,0,.72-.16l.27-.09a1.67,1.67,0,0,1,.39-.05,1.32,1.32,0,0,1,.34,0c.15,0,.35.1.54.17a3.62,3.62,0,0,0,.58.18,1.67,1.67,0,0,1,.51.23l.21.16a1.89,1.89,0,0,0,.65.41,5,5,0,0,1,.68.24c.27.12.46.2.67.27a1.27,1.27,0,0,0,.29,0,3.44,3.44,0,0,0,.45-.05h.21a1.56,1.56,0,0,1,1.09.42l-1,1,1.07-.94a1.94,1.94,0,0,0,.56.48,2.12,2.12,0,0,0,.71.12l.39,0a1.87,1.87,0,0,1,.4.13,1.82,1.82,0,0,0,.72.12l.25,0a1.44,1.44,0,0,1,.72.27c.13.1.29.24.45.39l.33.28a1.46,1.46,0,0,1,.49.8s0,.11,0,.13a1.24,1.24,0,0,0,.3.72.77.77,0,0,0,.53.13,1.4,1.4,0,0,1,1.39,1.22A.81.81,0,0,0,46,38a1.42,1.42,0,0,0,.66.33l.18.06a1.58,1.58,0,0,1,.56.36,1.53,1.53,0,0,0,.43.31,1.42,1.42,0,0,1,.71,1.54c-.09.38-.09.58,0,.72a3.93,3.93,0,0,1,.31.7,4,4,0,0,0,.24.6c.07.14.23.24.57.38a1.41,1.41,0,0,1,.88,1.43,1.45,1.45,0,0,0,0,.59,4.77,4.77,0,0,1,.16.75,4.53,4.53,0,0,0,.13.64c.05.19.12.37.19.56a6.31,6.31,0,0,1,.25.78,1.42,1.42,0,0,0,.43.61,1.42,1.42,0,0,1,.33,1.44,1.88,1.88,0,0,0-.14.72,3,3,0,0,0,.21.67,2.38,2.38,0,0,1,.19.57,1.37,1.37,0,0,1,0,.19c0,.18,0,.39.07.6l0,.3a1.43,1.43,0,0,1-.41,1.18c-.3.3-.49.51-.5.72s0,.41,0,.62a5.06,5.06,0,0,1,0,.78c0,.29-.08.56-.13.84s-.08.37-.1.54a3.77,3.77,0,0,0,0,.66c0,.19,0,.38,0,.52a1.46,1.46,0,0,1-.24.67l-.14.18a2,2,0,0,0-.39.64c0,.07,0,.19.2.56a1.42,1.42,0,0,1-.35,1.94.71.71,0,0,0-.27.31,1.51,1.51,0,0,1-.09.18,2.19,2.19,0,0,1-.29.4,2.7,2.7,0,0,0-.43.6,3.09,3.09,0,0,1-.39.6,4.73,4.73,0,0,0-.39.56,3.52,3.52,0,0,0-.22.62,2.93,2.93,0,0,1-.27.7.47.47,0,0,1-.06.09,2.22,2.22,0,0,1-.43.45,3.11,3.11,0,0,0-.47.49,1.3,1.3,0,0,0-.05.82,1.72,1.72,0,0,1-.17,1c-.09.16-.16.31-.22.44l-.13.28a1.4,1.4,0,0,1-.82.71l-.13,0a1.71,1.71,0,0,0-.66.33,2.64,2.64,0,0,1-.61.42,3.42,3.42,0,0,0-.58.38,1,1,0,0,0-.24.63,1.42,1.42,0,0,1-1.21,1.16,1.32,1.32,0,0,0-.58.18c-.26.18-.54.34-.82.5l-.41.25a7,7,0,0,1-.67.33l-.6.28a3.37,3.37,0,0,0-.55.38,3.58,3.58,0,0,1-.65.42,2.31,2.31,0,0,0-.56.44,3,3,0,0,1-.41.35,1.4,1.4,0,0,1-.3.15,5.67,5.67,0,0,0-.51.28,1.18,1.18,0,0,1-.4.17,1.46,1.46,0,0,1-1.2-.24,1.63,1.63,0,0,0-.76-.41h-.09a1.88,1.88,0,0,0-.6.38l-.16.14a1.43,1.43,0,0,1-.87.3l-.66,0-.38,0a6.25,6.25,0,0,0-.62.16,5.53,5.53,0,0,1-.75.17c-.2,0-.37.18-.62.44a1.42,1.42,0,0,1-1,.45A1.5,1.5,0,0,1,27.6,79a2.06,2.06,0,0,0-.66-.16,1.45,1.45,0,0,0-.59.19A1.51,1.51,0,0,1,25.7,79.18Z" style="fill:#eac38d"/><path d="M24.42,73.1h-.3a4.16,4.16,0,0,1-.67-.06,3.94,3.94,0,0,0-.71-.09,5.83,5.83,0,0,1-.73-.06,6.55,6.55,0,0,0-.68-.07h0a2.36,2.36,0,0,0-.69.12,1.78,1.78,0,0,1-.47.07,1.47,1.47,0,0,1-.93-.29,1.66,1.66,0,0,0-.67-.37h-.12a1.91,1.91,0,0,0-.6.13,1.66,1.66,0,0,1-.51.07,1.48,1.48,0,0,1-.79-.2l.62-1.29-.75,1.2a2.81,2.81,0,0,0-.62-.32,3.25,3.25,0,0,1-.69-.29,3.94,3.94,0,0,0-.59-.28.39.39,0,0,0-.15,0,1.27,1.27,0,0,0-.43.1,1.34,1.34,0,0,1-.52.1,1.44,1.44,0,0,1-1.22-.69.89.89,0,0,0-.32-.36,1.48,1.48,0,0,1-.4-.35L11.34,70a1.75,1.75,0,0,0-.5-.54.38.38,0,0,0-.24-.06,2.15,2.15,0,0,0-.6.13,1.47,1.47,0,0,1-1.46-.42A4.07,4.07,0,0,0,8,68.56l-.31-.25c-.29-.23-.55-.44-.79-.66a1.14,1.14,0,0,1-.11-.11A2.48,2.48,0,0,1,6.48,67a3.77,3.77,0,0,0-.38-.57,1.67,1.67,0,0,0-.7-.32,1.63,1.63,0,0,1-1-.72l-.16-.33c-.07-.13-.14-.28-.23-.44a1.37,1.37,0,0,1-.19-.82l1.42,0-1.41-.1a1.37,1.37,0,0,0-.08-.77,1.31,1.31,0,0,0-.49-.4,1.41,1.41,0,0,1-.74-1.47,1.11,1.11,0,0,0,0-.63,1.72,1.72,0,0,1-.07-.21c0-.06-.05-.33-.07-.53A2.08,2.08,0,0,0,2.29,59c0-.1-.11-.22-.45-.41A1.42,1.42,0,0,1,1.17,57a1.06,1.06,0,0,0,.06-.53,1.47,1.47,0,0,1,0-.75A2,2,0,0,0,1.31,55,1.32,1.32,0,0,0,1,54.45a1.43,1.43,0,0,1-.15-1.57,1.14,1.14,0,0,0,.21-.62c0-.21-.22-.41-.51-.68a1.58,1.58,0,0,1-.52-1V50.3a6.31,6.31,0,0,1,0-.86,2.74,2.74,0,0,1,.17-.74,3.57,3.57,0,0,0,.14-.52,1.44,1.44,0,0,1,.37-.7l.09-.09a1.43,1.43,0,0,0,.46-.65c0-.16-.07-.36-.36-.71a1.43,1.43,0,0,1-.09-1.7,1.67,1.67,0,0,0,.28-.52,2.21,2.21,0,0,0,0-.73,1.55,1.55,0,0,1,.57-1.34,1.68,1.68,0,0,0,.54-.56,1.23,1.23,0,0,1,.14-.25s.18-.23.3-.37A2.67,2.67,0,0,0,3,40s0-.1.08-.14a5.47,5.47,0,0,1,.37-.45,2.38,2.38,0,0,0,.43-.53,1.58,1.58,0,0,0,.14-.71c0-.1,0-.17,0-.24a1.47,1.47,0,0,1,.16-.54,1.52,1.52,0,0,0,.11-.72v-.16a1.4,1.4,0,0,1,.32-.85c.13-.17.28-.34.43-.51l.2-.23a1.38,1.38,0,0,1,.77-.45l.13,0a1.71,1.71,0,0,0,.68-.24,1.28,1.28,0,0,1,.61-.29l.12,0a1.59,1.59,0,0,0,.74-.27,2.47,2.47,0,0,0,.39-.55A2.14,2.14,0,0,1,9,32.65a1.67,1.67,0,0,1,.23-.23s.11-.11.16-.44a1.42,1.42,0,0,1,1.4-1.16h.29a.68.68,0,0,0,.35-.07,5.34,5.34,0,0,0,.53-.41,3.3,3.3,0,0,1,.63-.47,1.33,1.33,0,0,0,.43-.42A1.39,1.39,0,0,1,14.7,29a1.6,1.6,0,0,0,.54.14.37.37,0,0,0,.15,0,8.36,8.36,0,0,1,.81-.25l.56-.16c.09,0,.21-.09.38-.35a1.43,1.43,0,0,1,1.17-.63,1.45,1.45,0,0,1,.72.2,1,1,0,0,0,.44.15h.09a5.45,5.45,0,0,0,.62-.19,3.71,3.71,0,0,1,.74-.22,3.63,3.63,0,0,1,.57,0h.44a3,3,0,0,0,.42,0c.22,0,.42-.22.69-.5a1.65,1.65,0,0,1,1-.52h.14l.9,0h.13a3.26,3.26,0,0,0,.68-.09,1.53,1.53,0,0,1,.3,0A1.46,1.46,0,0,1,27.4,27c.24.32.44.58.66.6l.28,0,.4,0h.39a1.71,1.71,0,0,1,.39,0l.57.08a7.33,7.33,0,0,1,.84.14l.25,0a2.92,2.92,0,0,0,.5-.05,2.8,2.8,0,0,1,.36-.05h.09a1.14,1.14,0,0,1,.37.05,5.89,5.89,0,0,0,.63.11l.27.05a1.4,1.4,0,0,1,1,.76c.18.35.32.59.52.67a1.13,1.13,0,0,0,.5.09l.48,0a1.5,1.5,0,0,1,.6.13,3.26,3.26,0,0,0,.6.17,1.4,1.4,0,0,1,1.13,1.16c.06.39.13.64.29.75a.63.63,0,0,0,.43.11h.18A1.41,1.41,0,0,1,40.55,33a.79.79,0,0,0,.2.48,1.46,1.46,0,0,0,.72.28,1.57,1.57,0,0,1,1.05.77l.09.18a3.2,3.2,0,0,0,.27.52,1.42,1.42,0,0,1,.23.77l-1.42.13H43.1a1.62,1.62,0,0,0,.13.75,2.33,2.33,0,0,0,.51.48,2.51,2.51,0,0,1,.37.31,1.27,1.27,0,0,1,.24.33,2.92,2.92,0,0,0,.34.44,2.89,2.89,0,0,1,.45.63,3.27,3.27,0,0,0,.35.56l.16.23A1.43,1.43,0,0,1,45.83,41a1.46,1.46,0,0,0-.11.82s.05.17.33.33a1.42,1.42,0,0,1,.47,2c-.17.28-.15.4-.14.46a1.42,1.42,0,0,0,.48.64,1.89,1.89,0,0,1,.51.77,2.2,2.2,0,0,0,.25.55,1.41,1.41,0,0,1-.1,1.57,1.25,1.25,0,0,0-.34.68c0,.48,0,1,0,1.43a.9.9,0,0,0,.23.55,1.42,1.42,0,0,1-.17,1.83,1,1,0,0,0-.32.48,2.06,2.06,0,0,0,.09.73,3.09,3.09,0,0,1,.08.33,1.4,1.4,0,0,1,0,.54c-.1.45-.21.9-.33,1.33a2.22,2.22,0,0,0,0,.73,3.61,3.61,0,0,1,0,.56,1.56,1.56,0,0,1-.25.66l-.18.28a4.19,4.19,0,0,0-.3.52,1.4,1.4,0,0,1-.42.52l-.15.11a1.84,1.84,0,0,0-.57.53,1.28,1.28,0,0,1-.29.37,2.13,2.13,0,0,1-.22.18,2,2,0,0,0-.55.54c-.27.47-.47.84-.72,1.22,0,0-.09.15,0,.47a1.41,1.41,0,0,1-1.18,1.67c-.3.05-.38.14-.41.18s-.1.12-.1.39a1.44,1.44,0,0,1-.45,1,1.39,1.39,0,0,1-1,.38h-.21c-.25,0-.33.07-.36.1s-.12.11-.15.41a1.41,1.41,0,0,1-.53,1,1.43,1.43,0,0,1-.88.31l-.2,0h-.18a.5.5,0,0,0-.26.06,1,1,0,0,0-.32.63,1.41,1.41,0,0,1-1.23,1.06A1.83,1.83,0,0,0,35,70l-.48.27a8.21,8.21,0,0,1-.77.4,1.54,1.54,0,0,0-.53.52l-.16.18a1.3,1.3,0,0,1-.52.38L32,72l-.37.17a1.42,1.42,0,0,1-.57.12,1.46,1.46,0,0,1-.55-.11,2.2,2.2,0,0,0-.71-.21l-.13,0-.53.15c-.31.1-.57.17-.83.23a2,2,0,0,0-.64.29,3.66,3.66,0,0,1-.46.25,2,2,0,0,1-.35.09l-.61,0h-.11c-.19,0-.39,0-.59,0l-.47,0Z" style="fill:#cbd872"/><path d="M18.82,44.71a3.42,3.42,0,0,1-.74-.07c-.13,0-.27,0-.49-.07A1.44,1.44,0,0,1,16.54,44c-.24-.33-.43-.45-.7-.45a.9.9,0,0,0-.53.16,1.41,1.41,0,0,1-.79.24,1.39,1.39,0,0,1-1-.39.85.85,0,0,0-.21-.14,2.34,2.34,0,0,1-.89-.55.74.74,0,0,0-.31-.17,1.42,1.42,0,0,1-1-1.47,2.45,2.45,0,0,0,0-.27,1.42,1.42,0,0,1-.16-1.1,1.47,1.47,0,0,1,.7-.88,1.76,1.76,0,0,0,.39-.26,1.39,1.39,0,0,1,.8-.4l.3-.11A2.7,2.7,0,0,1,14.36,38a1.07,1.07,0,0,0,.71-.25,1.44,1.44,0,0,1,.85-.28l.68,0,.74,0a1.66,1.66,0,0,0,.75-.17,1.59,1.59,0,0,1,.61-.13,1.47,1.47,0,0,1,.91.31,1,1,0,0,0,.71.3,4.14,4.14,0,0,0,.75-.06,4.14,4.14,0,0,1,.74-.05,1.72,1.72,0,0,1,.74.15,1.67,1.67,0,0,0,.75.16,3,3,0,0,0,.74-.08,3,3,0,0,1,.75-.08,1.25,1.25,0,0,0,.74-.23,1.42,1.42,0,0,1,.67-.2l.82,0h.38a1.45,1.45,0,0,1,1.15.58c.24.34.42.46.69.46a6.69,6.69,0,0,1,.75,0c.19,0,.37,0,.74,0a1,1,0,0,0,.73-.27,1.41,1.41,0,0,1,.85-.29h.15A2.05,2.05,0,0,1,33,38a1.79,1.79,0,0,0,.75.14,1.05,1.05,0,0,0,.73-.28,1.5,1.5,0,0,1,.81-.31,1.27,1.27,0,0,0,.34,0,1.55,1.55,0,0,1,.31,0,1.42,1.42,0,0,1,1.33.93,1.06,1.06,0,0,0,.21.39,3.69,3.69,0,0,1,.49.6A1.43,1.43,0,0,1,37.85,41a.6.6,0,0,0,.1.31,1.41,1.41,0,0,1-.38,1.81l-.14.13a2.9,2.9,0,0,1-1,.58,1.17,1.17,0,0,0-.43.35,1.42,1.42,0,0,1-1.07.49,1.38,1.38,0,0,1-.68-.18,1.15,1.15,0,0,0-.55-.12h-.17a1.9,1.9,0,0,1-.57-.15A1.67,1.67,0,0,0,32.2,44a1.09,1.09,0,0,0-.74.27,1.5,1.5,0,0,1-.84.27h0c-.3,0-.46,0-.63,0a3.67,3.67,0,0,0-.55,0,1.45,1.45,0,0,1-1-.43.89.89,0,0,0-.71-.35.93.93,0,0,0-.6.2,1.45,1.45,0,0,1-.84.27,1.43,1.43,0,0,1-.93-.34.81.81,0,0,0-.6-.23,1,1,0,0,0-.71.31,1.42,1.42,0,0,1-1,.38h-.16l-.41-.08a2.37,2.37,0,0,0-.73-.1,1.46,1.46,0,0,0-.75.18l-.21.07-.15,0a1.21,1.21,0,0,1-.38.06,1.89,1.89,0,0,0-.74.13A2,2,0,0,1,18.82,44.71Z" style="fill:#fff"/><path d="M28.17,55a1.4,1.4,0,0,1-1.21-.7c-.29-.5-.48-.6-.72-.6s-.33,0-.57.34a1.42,1.42,0,0,1-1.12.55,1.46,1.46,0,0,1-.77-.22.88.88,0,0,0-.51-.15.8.8,0,0,0-.52.18,1.4,1.4,0,0,1-.87.29,1.42,1.42,0,0,1-1-.44A.69.69,0,0,0,20.3,54a1.16,1.16,0,0,0-.7.21,1.35,1.35,0,0,1-.8.27,1.16,1.16,0,0,0-.5.13,1.46,1.46,0,0,1-.7.18,1.39,1.39,0,0,1-1.16-.61c-.25-.36-.44-.39-.6-.39l-.74,0c-.19,0-.37,0-.74,0h-.21a2.28,2.28,0,0,1-.6-.18l-.2-.09a1.22,1.22,0,0,0-.38-.07,1.45,1.45,0,0,1-1.08-.64l-.08-.13a1.43,1.43,0,0,1-.13-1.14,1.53,1.53,0,0,0,.07-.41,1.42,1.42,0,0,1,0-1.07,1.91,1.91,0,0,1,.53-.7l.15-.15a1,1,0,0,1,.2-.16,2.28,2.28,0,0,1,.46-.24l.26-.1a2.12,2.12,0,0,1,1-.19l.74,0,.75,0a5.72,5.72,0,0,0,.75,0,3.92,3.92,0,0,1,.74-.06,1.94,1.94,0,0,0,.75-.13,1.78,1.78,0,0,1,.74-.14,1.68,1.68,0,0,1,.74.15,1.67,1.67,0,0,0,.75.16.67.67,0,0,0,.49-.21,1.44,1.44,0,0,1,1-.39,1.42,1.42,0,0,1,1,.42.65.65,0,0,0,.5.23.87.87,0,0,0,.66-.29,1.41,1.41,0,0,1,1-.4,1.52,1.52,0,0,1,.63.14,1.34,1.34,0,0,0,.7.17A1.82,1.82,0,0,0,27,48a2.12,2.12,0,0,1,.62-.12h.06a1.39,1.39,0,0,1,.79.24,1.21,1.21,0,0,0,.76.27,2.88,2.88,0,0,1,.74.07,3.77,3.77,0,0,0,.75.06,3,3,0,0,0,.74-.08,3,3,0,0,1,.75-.08.85.85,0,0,0,.55-.18,1.4,1.4,0,0,1,1.85.13.75.75,0,0,0,.57.25,2.1,2.1,0,0,1,1,.19.38.38,0,0,0,.16,0l.16,0a1.23,1.23,0,0,1,.27,0A1.39,1.39,0,0,1,38,49.5a1.42,1.42,0,0,1-.17,1.64v.22c0,.17,0,.29,0,.42a1.61,1.61,0,0,1-.1.36.59.59,0,0,0-.05.19,1.41,1.41,0,0,1-1.26,1.31.33.33,0,0,0-.15,0,2.36,2.36,0,0,0-.38.22,1.5,1.5,0,0,1-.74.26.91.91,0,0,0-.61.31,1.41,1.41,0,0,1-1,.41,1.54,1.54,0,0,1-.55-.11,1.74,1.74,0,0,0-.76-.17c-.37,0-.56,0-.74,0h-.75a1.25,1.25,0,0,0-.74.22,1.53,1.53,0,0,1-.7.2h-1.1Z" style="fill:#fff"/><path d="M24.46,65a1.39,1.39,0,0,1-.53-.1,1.68,1.68,0,0,0-.66-.12,1.75,1.75,0,0,1-.74-.14,1.91,1.91,0,0,0-.74-.14H21l-.64,0a1.44,1.44,0,0,1-.84-.28,1.09,1.09,0,0,0-.74-.28,5.4,5.4,0,0,0-.74.05,5.72,5.72,0,0,1-.75,0,.83.83,0,0,0-.57.2,1.48,1.48,0,0,1-.89.31,1.42,1.42,0,0,1-.94-.36.78.78,0,0,0-.57-.22c-.09,0-.21,0-.46.22a1.41,1.41,0,0,1-.88.31,1.45,1.45,0,0,1-.69-.18,1.42,1.42,0,0,1-.71-1.41,1,1,0,0,0,0-.41,1.45,1.45,0,0,1-.07-.62s0-.09,0-.1a3.58,3.58,0,0,0,0-.45A1.42,1.42,0,0,1,12,59.41a1.46,1.46,0,0,0,.25-.2.78.78,0,0,0,.14-.2,1.42,1.42,0,0,1,1.27-.81,1.35,1.35,0,0,1,.44.07.75.75,0,0,0,.24,0,3.09,3.09,0,0,0,.74-.07,3.6,3.6,0,0,1,.75-.07,5.84,5.84,0,0,0,.74,0c.19,0,.38,0,.75,0a2.19,2.19,0,0,1,.75.12,1.89,1.89,0,0,0,.74.13.85.85,0,0,0,.7-.4,1.43,1.43,0,0,1,1.09-.51l.87,0A1.42,1.42,0,0,1,22.6,58c.25.32.43.44.7.44A1.53,1.53,0,0,0,24,58.3a1,1,0,0,1,.22-.08l.16,0a1.14,1.14,0,0,1,.37,0,1.25,1.25,0,0,0,.74-.22,1.43,1.43,0,0,1,.57-.19,2,2,0,0,1,.32,0,2.37,2.37,0,0,1,.59.08,2.73,2.73,0,0,0,.64.09,1.45,1.45,0,0,1,.85.31,1.08,1.08,0,0,0,.74.3,4,4,0,0,1,.74.06,4.23,4.23,0,0,0,.75.06,3.56,3.56,0,0,1,.74.07,3.07,3.07,0,0,0,.75.08,1.25,1.25,0,0,0,.74-.22,1.37,1.37,0,0,1,.68-.19,1.31,1.31,0,0,0,.79-.27,1.45,1.45,0,0,1,.8-.25,1.43,1.43,0,0,1,.5.09l.45.2.27.12a1.4,1.4,0,0,0,.29.09,1.41,1.41,0,0,1,1,1.5.9.9,0,0,0,0,.39,2.46,2.46,0,0,1,.15,1,1.57,1.57,0,0,1,.11.35l0,.18A1.43,1.43,0,0,1,37.85,63a4.07,4.07,0,0,1-.3.34,1.43,1.43,0,0,1-.83.41,2.08,2.08,0,0,0-.48.11,1.1,1.1,0,0,0-.4.38,1.45,1.45,0,0,1-1,.54,2.31,2.31,0,0,0-.43.09,2.26,2.26,0,0,1-.39.08h-.18a1.39,1.39,0,0,1-1-.38,1,1,0,0,0-.71-.31,2.48,2.48,0,0,1-.75-.1,2.1,2.1,0,0,0-.74-.11.66.66,0,0,0-.55.29,1.41,1.41,0,0,1-1.07.48,1.37,1.37,0,0,1-.84-.28.87.87,0,0,0-.52-.16h-.18a2,2,0,0,1-.57-.16,1.53,1.53,0,0,0-.74-.16c-.21,0-.4.06-.65.4A1.41,1.41,0,0,1,24.46,65Z" style="fill:#fff"/><path d="M10.33,9a.52.52,0,0,1,.5-.39.26.26,0,0,1,.19.08.24.24,0,0,1,.08.2,1.16,1.16,0,0,1,0,.27,2.2,2.2,0,0,0,0,.27,1.7,1.7,0,0,0,.12.61c.08.21.2.47.35.78A8.47,8.47,0,0,1,12,12a3,3,0,0,1,.16,1,1.92,1.92,0,0,1-.16.76c-.1.26-.16.41-.17.45v0s.06.05.18.07l.28,0,.51,0c.22,0,.56.06,1,.08.68,0,1.69.11,3,.22,1.9.15,3.32.24,4.25.25l1.29,0a3.21,3.21,0,0,1,.92.08.64.64,0,0,1,.24.25.69.69,0,0,1,.09.34.72.72,0,0,1-.25.56,10.87,10.87,0,0,1-2.95.18,53.85,53.85,0,0,1-8.2-.74c-.21,0-.63-.06-1.25-.08-.82,0-1.5-.08-2-.15A1.76,1.76,0,0,1,7.86,15a.68.68,0,0,1-.19-.41A.91.91,0,0,1,7.94,14l.39,0c.34,0,.6,0,.78,0q1.86,0,1.86-1a3.07,3.07,0,0,0-.1-.74c-.07-.24-.16-.53-.29-.89a9,9,0,0,1-.3-.85,3.22,3.22,0,0,1-.1-.75A2.32,2.32,0,0,1,10.33,9ZM9.84,4.55a.44.44,0,0,1,.33-.16,1.37,1.37,0,0,1,.79.4,4.42,4.42,0,0,1,.79.93,1.76,1.76,0,0,1,.33.86.6.6,0,0,1-.16.39.45.45,0,0,1-.35.2A.49.49,0,0,1,11.21,7a4.72,4.72,0,0,1-.44-.59L10.54,6a1.16,1.16,0,0,0-.37-.39,1.05,1.05,0,0,1-.27-.21.7.7,0,0,1-.14-.3.92.92,0,0,1,0-.22A.57.57,0,0,1,9.84,4.55Zm3.88-3.34a1.93,1.93,0,0,1,.6-.74A1.44,1.44,0,0,1,15.11,0a.56.56,0,0,1,.49.28,1.08,1.08,0,0,1,.19.62A1.93,1.93,0,0,1,15.47,2a3.06,3.06,0,0,1-.85.83c-.15.11-.22.45-.22,1a1.54,1.54,0,0,0,.1.51.24.24,0,0,0,.18,0,1.12,1.12,0,0,0,.45-.1c.15-.07.34-.18.56-.31a1.94,1.94,0,0,1,.78-.33.37.37,0,0,1,.29.2.7.7,0,0,1,.12.35.89.89,0,0,1-.46.68,5,5,0,0,1-1.08.56,2.85,2.85,0,0,1-.94.22,1.07,1.07,0,0,1-.93-.37,1.68,1.68,0,0,1-.28-1A11.54,11.54,0,0,1,13.72,1.21Zm3.41,6.08A3.57,3.57,0,0,0,17.72,7a2,2,0,0,0,.18-.47A1.71,1.71,0,0,1,18,6.09a.25.25,0,0,1,.23-.15.29.29,0,0,1,.22.12.48.48,0,0,1,.09.27v.12c0,.11.07.17.2.17a1,1,0,0,0,.24,0l.25,0a.5.5,0,0,1,.37.16.51.51,0,0,1,.15.37.47.47,0,0,1-.16.34,4.61,4.61,0,0,1-.54.44c-.14.09-.28.2-.42.31a1.19,1.19,0,0,0-.3.36l-.12.2a.29.29,0,0,1-.25.19.37.37,0,0,1-.26-.18.54.54,0,0,0-.23-.2,2.74,2.74,0,0,1-.43.17.79.79,0,0,0-.4.25.8.8,0,0,0-.13.5c0,.29.06.43.18.43a1.8,1.8,0,0,0,.6-.33l1-.57A1.55,1.55,0,0,1,19,8.79a.41.41,0,0,1,.34.17.55.55,0,0,1,.13.36c0,.26-.21.55-.62.89a6.54,6.54,0,0,1-1.15.75c-.34.17-.51.27-.51.31s.17.14.52.21l.57.14.91.17a4.62,4.62,0,0,1,1.3.4c.36.18.55.41.55.68a.38.38,0,0,1-.43.41,3.48,3.48,0,0,1-1-.16c-.36-.12-.87-.29-1.52-.54-.29-.12-.56-.22-.82-.3a1.94,1.94,0,0,0-.57-.13c-.07,0-.15.06-.25.18a4.27,4.27,0,0,0-.39.56c-.2.31-.37.55-.5.72s-.27.26-.38.26a.38.38,0,0,1-.28-.12.36.36,0,0,1-.11-.27A.89.89,0,0,1,14.9,13a5.73,5.73,0,0,1,.46-.59,3,3,0,0,0,.51-.7l-.43,0a1.92,1.92,0,0,1-.56-.09.29.29,0,0,1-.2-.29q0-.1.18-.27a1.53,1.53,0,0,1,.31-.24l0-.08a1.77,1.77,0,0,0-.07-.43,1,1,0,0,1-.1-.43l0-.23a.2.2,0,0,0-.1-.19,1.21,1.21,0,0,0-.33-.08,1.42,1.42,0,0,1-.44-.14A.43.43,0,0,1,14,8.81c0-.12.08-.23.25-.33a2.74,2.74,0,0,1,.54-.28A2.54,2.54,0,0,0,15.24,8l.24-.65a3.15,3.15,0,0,1,.42-.82.69.69,0,0,1,.57-.33.49.49,0,0,1,.2,0,.16.16,0,0,1,.1.15.64.64,0,0,1-.18.35L16.45,7a.72.72,0,0,0-.11.37.17.17,0,0,0,.05.14.14.14,0,0,0,.12.06A4.7,4.7,0,0,0,17.13,7.29ZM14.74,1.11a.25.25,0,0,0-.2.09.32.32,0,0,0-.08.21.23.23,0,0,0,.07.17.22.22,0,0,0,.15.08.19.19,0,0,0,.18-.12.41.41,0,0,0,.07-.23C14.93,1.18,14.87,1.11,14.74,1.11Zm3-.94A4.36,4.36,0,0,1,19,0a1.82,1.82,0,0,1,.9.16,1,1,0,0,1,.32.37.94.94,0,0,1,.17.45,2.36,2.36,0,0,1-.31.93,3.5,3.5,0,0,1-.57.86,2.4,2.4,0,0,1-.43.3c-.51.31-.76.54-.76.7a.37.37,0,0,0,.16.36.94.94,0,0,0,.46.09,5.07,5.07,0,0,0,1.08-.16,5.65,5.65,0,0,1,1.07-.15.93.93,0,0,1,.5.13.43.43,0,0,1,.23.39c0,.17-.16.33-.47.48a5.17,5.17,0,0,1-1.07.36,4.51,4.51,0,0,1-.87.14,4.07,4.07,0,0,1-1.54-.27,1,1,0,0,1-.66-1,2.27,2.27,0,0,1,.13-.74q.14-.39.39-1c0-.08.08-.21.16-.4a1.23,1.23,0,0,0,.12-.4s0,0-.08-.06l-.12,0c-.42-.08-.62-.26-.62-.54C17.22.55,17.38.28,17.71.17Zm1.14,1.39a1.23,1.23,0,0,0-.25.61l.06.08a2,2,0,0,0,.43-.46,1.06,1.06,0,0,0,.26-.52l-.06-.1C19.16,1.17,19,1.3,18.85,1.56Z" style="fill:#6c6851"/><path d="M41,11.43c-.2.05-.67.13-1.38.25l-1.45.26a4.43,4.43,0,0,0-1.34.35c-.11.09-.18.39-.22.91s-.07,1.21-.08,2.05a13.23,13.23,0,0,1-.12,2.05,1,1,0,0,1-.24.53.57.57,0,0,1-.46.22.43.43,0,0,1-.45-.33,2.82,2.82,0,0,1-.1-.77c0-.45,0-1.14.12-2q0-.26.06-.9c0-.43,0-.81,0-1.15s-.09-.33-.25-.33a4.78,4.78,0,0,0-.94.1l-.41.06-.55,0H32.16a2.86,2.86,0,0,1-.77-.09.43.43,0,0,1-.33-.45.74.74,0,0,1,.26-.55,11.54,11.54,0,0,1,2.22-.45c.77-.12,1.25-.2,1.43-.25a.8.8,0,0,0,.39-.21.52.52,0,0,0,.12-.38q0-.2-.09-.24a.71.71,0,0,0-.3-.05,1.57,1.57,0,0,1-1.37-.56,2.7,2.7,0,0,1-.39-1.57,4.45,4.45,0,0,1,.53-2.35,2.07,2.07,0,0,1,1.93-.85A5,5,0,0,1,38,5.17,1.63,1.63,0,0,1,39,6.78a3.33,3.33,0,0,1-.41,1.49,3.85,3.85,0,0,1-.93,1.28,1.61,1.61,0,0,1-.31.19,2.35,2.35,0,0,0-.38.23.29.29,0,0,0-.13.23.2.2,0,0,0,.07.16.26.26,0,0,0,.18.07.66.66,0,0,0,.27-.06,9.42,9.42,0,0,1,2.74-.31,3.55,3.55,0,0,1,1.1.14.59.59,0,0,1,.46.62C41.61,11.12,41.42,11.32,41,11.43ZM31.78,4a2.53,2.53,0,0,1-.13-.83,1.93,1.93,0,0,0-.06-.49c0-.06,0-.12,0-.2a2.19,2.19,0,0,1,0-.29A5.91,5.91,0,0,1,31.65,1q.12-.6.45-.6a.36.36,0,0,1,.24.08,1.5,1.5,0,0,1,.21.25q.12.18.21.18a1.54,1.54,0,0,0,.43-.06,2.71,2.71,0,0,1,.41,0,.75.75,0,0,1,.62.26,1.14,1.14,0,0,1,.2.68,3,3,0,0,1-1.68,2.46.9.9,0,0,1-.48.18A.48.48,0,0,1,31.78,4Zm1.47-1.54A.86.86,0,0,0,33.37,2c0-.17-.09-.25-.26-.25s-.18,0-.21.09a.63.63,0,0,0,0,.28c0,.34,0,.51.14.51S33.17,2.58,33.25,2.42Zm1.69,4.44a.63.63,0,0,0,.21-.4.3.3,0,0,0,0-.15A.17.17,0,0,0,35,6.23a.62.62,0,0,0-.23.08,1.17,1.17,0,0,0-.24.14,1.06,1.06,0,0,0,0,.21,1.24,1.24,0,0,0,0,.39l0,0A.57.57,0,0,0,34.94,6.86Zm.3,1.77c.21-.08.32-.18.32-.31s-.13-.23-.38-.23-.48.18-.68.54q0,.12.18.12A1.53,1.53,0,0,0,35.24,8.63Zm1.28-5.3a3.88,3.88,0,0,1-.16-1.14,4,4,0,0,1,.18-.94c.13-.43.26-.64.4-.64a.32.32,0,0,1,.13,0h.13a2.1,2.1,0,0,0,.62-.21l.35-.15a1.33,1.33,0,0,1,.37-.07.82.82,0,0,1,.72.36,1.43,1.43,0,0,1,.24.84,2.46,2.46,0,0,1-.22.84,4.15,4.15,0,0,1-.55,1,.86.86,0,0,1-.63.41.32.32,0,0,1-.18-.06.79.79,0,0,0-.37.16.74.74,0,0,1-.39.16A.65.65,0,0,1,36.52,3.33Zm.06,3.47a.25.25,0,0,0,.21.13.57.57,0,0,0,.46-.24.86.86,0,0,0,.18-.52s0-.07-.07-.1a.3.3,0,0,0-.12,0,1,1,0,0,0-.49.13.41.41,0,0,0-.26.35A.51.51,0,0,0,36.58,6.8Zm.58,1.63c.15-.09.23-.17.23-.27A.21.21,0,0,0,37.31,8a.25.25,0,0,0-.17-.08.4.4,0,0,0-.31.19.51.51,0,0,0-.16.34c0,.08,0,.11.12.11A.91.91,0,0,0,37.16,8.43Zm.56-6.13c.11,0,.21-.08.31-.25a.94.94,0,0,0,.14-.41.2.2,0,0,0-.09-.15.39.39,0,0,0-.2-.06c-.17,0-.25.19-.25.58C37.63,2.21,37.66,2.3,37.72,2.3Z" style="fill:#6c6851"/></g></g></svg>