<svg xmlns="http://www.w3.org/2000/svg" width="18.53mm" height="26.53mm" viewBox="0 0 52.52 75.2"><title>notify</title><g id="圖層_2" data-name="圖層 2"><g id="圖層_1-2" data-name="圖層 1"><path d="M26.78,52.59l-.52,0-.48,0a1.36,1.36,0,0,1-.87-.38c-.32-.28-.52-.45-.73-.47h0a1.25,1.25,0,0,0-.58.17A1.32,1.32,0,0,1,23,52a1.41,1.41,0,0,1-1-.43,1.09,1.09,0,0,0-.52-.35h-.11a1.65,1.65,0,0,0-.64.21,1.56,1.56,0,0,1-.67.15,1.35,1.35,0,0,1-.57-.12l-.22-.1a3.54,3.54,0,0,0-.65-.28,1.66,1.66,0,0,0-.48-.06H17.6l-.29,0A1.29,1.29,0,0,1,17,50.9a3.35,3.35,0,0,0-.62-.1,3.27,3.27,0,0,1-.66-.12l-.11,0a4.64,4.64,0,0,1-.67-.39L14.66,50a1.38,1.38,0,0,1-.64-.9c-.11-.41-.19-.69-.38-.8a1,1,0,0,0-.52-.1h0a1.53,1.53,0,0,1-1.42-.94,1.21,1.21,0,0,0-.32-.54,1.88,1.88,0,0,0-.64-.3,2.6,2.6,0,0,1-.46-.18A1.37,1.37,0,0,1,9.92,46c-.27-.26-.58-.59-.9-.93a1.42,1.42,0,0,1-.36-.71,1.76,1.76,0,0,0-.29-.6.79.79,0,0,0-.52-.23,1.42,1.42,0,0,1-1.18-1.48.77.77,0,0,0-.08-.5,6.53,6.53,0,0,1-.35-.7c-.1-.22-.18-.4-.27-.58a4.7,4.7,0,0,1-.29-.7A6,6,0,0,0,5.44,39c-.19-.44-.36-.85-.53-1.31-.11-.28-.19-.56-.27-.84l-.15-.51c-.06-.2-.14-.39-.21-.58A5.84,5.84,0,0,1,4,35a2.35,2.35,0,0,0-.27-.63,3.65,3.65,0,0,1-.27-.6,1.75,1.75,0,0,1-.05-.4,2.28,2.28,0,0,1,.05-.4,2.55,2.55,0,0,0,0-.76c0-.09,0-.21-.26-.41a1.41,1.41,0,0,1-.12-2c.23-.27.23-.39.22-.45A1.26,1.26,0,0,0,3,28.68a1.43,1.43,0,0,1-.16-1.5,2.05,2.05,0,0,0,.23-.67,3.25,3.25,0,0,0-.05-.7c0-.1,0-.24,0-.34a1.46,1.46,0,0,1,.28-1l.08-.11a1.55,1.55,0,0,0,.38-.66,5.16,5.16,0,0,1,.2-.67,5.76,5.76,0,0,0,.24-.69,4.62,4.62,0,0,0,.09-.65,3.77,3.77,0,0,1,.13-.76,1,1,0,0,0,0-.55,1.42,1.42,0,0,1,.73-1.65c.34-.17.43-.29.47-.39.19-.44.38-.85.59-1.28.1-.2,0-.48-.11-.86a1.41,1.41,0,0,1,.29-1.39l.08-.09a4.93,4.93,0,0,0,.42-.49,1.37,1.37,0,0,1,.43-.4l.2-.1a1.87,1.87,0,0,0,.65-.46,2.75,2.75,0,0,1,.56-.51,2.69,2.69,0,0,0,.51-.44l.37-.47a6,6,0,0,1,.52-.64.89.89,0,0,0,.19-.54,1.42,1.42,0,0,1,1.33-1.24.92.92,0,0,0,.55-.16,2.78,2.78,0,0,0,.45-.51,2.85,2.85,0,0,1,.45-.5l.08-.06a1.51,1.51,0,0,0,.39-.71,1.43,1.43,0,0,1,1.08-1,2.92,2.92,0,0,0,.78-.23c.27-.14.56-.27.84-.39l.52-.23a2,2,0,0,0,.55-.47A3.4,3.4,0,0,1,17.53,5,1.27,1.27,0,0,1,18,4.7l.86-.31a1.37,1.37,0,0,1,.45-.07,1.4,1.4,0,0,1,.85.28,1.9,1.9,0,0,0,.86.47l.09,0c.09,0,.22-.11.43-.51a1.43,1.43,0,0,1,1.26-.76,1.67,1.67,0,0,1,.49.08,1.17,1.17,0,0,0,.4.09h.12a.93.93,0,0,0,.45-.28,1.39,1.39,0,0,1,1-.39,1.41,1.41,0,0,1,.89.32,1,1,0,0,0,.54.27,1.71,1.71,0,0,0,.73-.27l.27-.15a1.36,1.36,0,0,1,.5-.12,1.24,1.24,0,0,0,.45-.15A1.5,1.5,0,0,1,29.21,3a1.41,1.41,0,0,1,1.16.6c.3.43.45.5.57.51l.47,0c.38,0,.66,0,.95.08h0a1.41,1.41,0,0,0,.79-.4,1.76,1.76,0,0,1,1-.36h.12l.38,0,.3,0A1.39,1.39,0,0,1,36,4.23c.22.36.38.59.59.66a2.64,2.64,0,0,1,.69.35,3.17,3.17,0,0,0,.6.33l.14,0a1.3,1.3,0,0,0,.54-.17,1.44,1.44,0,0,1,.6-.13,1.41,1.41,0,0,1,1.18.63,1.13,1.13,0,0,0,.38.38,1.64,1.64,0,0,1,.33.26,2.31,2.31,0,0,1,.19.21,2.4,2.4,0,0,0,.56.55,1,1,0,0,0,.57.12h.4a1.39,1.39,0,0,1,.75.21,3.64,3.64,0,0,0,.47.25l.23.11A1.46,1.46,0,0,1,45,9a1.48,1.48,0,0,0,.27.8,3,3,0,0,0,.54.4,2.92,2.92,0,0,1,.6.48,3.66,3.66,0,0,1,.45.66,3.19,3.19,0,0,0,.35.55,2.16,2.16,0,0,0,.54.45,1.66,1.66,0,0,1,.73,1.25,1.78,1.78,0,0,0,.12.77,1.52,1.52,0,0,0,.49.45,1.42,1.42,0,0,1,.59,1.47,1.15,1.15,0,0,0,0,.69c.14.35.26.69.39,1l.25.7c.12.33.22.6.31.9s.3.4.52.58a1.47,1.47,0,0,1,.56,1.21v.17a4,4,0,0,0,0,.69A1.78,1.78,0,0,0,52,23c.07.11.12.18.16.26a1.33,1.33,0,0,1,.18.54l0,.3c0,.35.07.64.09.92a1.51,1.51,0,0,1-.09.63l-.1.21a2,2,0,0,0-.24.75,3.3,3.3,0,0,1-.12.76,4.33,4.33,0,0,0-.11.66v.3c0,.4,0,.75-.07,1.12a1.52,1.52,0,0,0,.17.72c0,.1.06.17.09.23a1.48,1.48,0,0,1,.06.66l-.05.36c0,.38-.09.67-.15.95a2.17,2.17,0,0,0,0,.72,1.67,1.67,0,0,1-.52,1.38,1.55,1.55,0,0,0-.52.61c-.07.2-.11.41-.16.61a6.55,6.55,0,0,1-.21.78l-.12.24a3.27,3.27,0,0,1-.28.35,2.72,2.72,0,0,0-.44.61,4.52,4.52,0,0,0-.21.62,3.85,3.85,0,0,1-.27.74,2,2,0,0,0-.14.71A2.77,2.77,0,0,1,49,40a1.42,1.42,0,0,1-.19.52L47.52,40l1.22.72-.39.66a1.44,1.44,0,0,1-1.09.67c-.41,0-.71.09-.84.27s-.36.44-.55.65-.26.27-.37.4a1.54,1.54,0,0,0-.25.69,1.62,1.62,0,0,1-.73,1.05l-.12.06a3,3,0,0,0-.64.41,1.38,1.38,0,0,0-.34.67l-.06.19A1.48,1.48,0,0,1,43,47a1.88,1.88,0,0,0-.35.53,1.43,1.43,0,0,1-1.25.75h-.12l-.32,0a.72.72,0,0,0-.42.09l-.3.18c-.31.19-.61.38-.93.55a7.84,7.84,0,0,1-.72.32l-.5.21a1.39,1.39,0,0,1-.57.12H37a1.13,1.13,0,0,0-.44.07c-.18.07-.31.27-.47.59a1.42,1.42,0,0,1-1.26.77h-.1l-.29,0a1.48,1.48,0,0,0-.39,0,6.06,6.06,0,0,1-.74.15l-.66.11a1.34,1.34,0,0,0-.58.46,1.44,1.44,0,0,1-1.07.48,1.83,1.83,0,0,1-.4,0,2.13,2.13,0,0,0-.6-.12h-.44a1.43,1.43,0,0,1-.35-.07,3.28,3.28,0,0,0-.68-.11h-.1a1.61,1.61,0,0,0-.67.31l-.16.1a1.48,1.48,0,0,1-.74.21Z" style="fill:#eac38d"/><path d="M25.21,47.69a1.41,1.41,0,0,1-.45-.07,1.43,1.43,0,0,0-.45-.09,1.43,1.43,0,0,1-.63-.18l-.13-.07a1.58,1.58,0,0,0-.74-.29,7.4,7.4,0,0,1-.83-.05l-.58,0a2.41,2.41,0,0,1-.71-.17,3.17,3.17,0,0,0-.66-.16h0c-.19,0-.37.12-.69.43a1.41,1.41,0,0,1-1,.41,1.39,1.39,0,0,1-.73-.2A1.81,1.81,0,0,0,17.1,47a2.07,2.07,0,0,0-.47,0h-.36a1.38,1.38,0,0,1-1.21-.68c-.19-.3-.34-.53-.54-.6a.52.52,0,0,0-.18,0,1.85,1.85,0,0,0-.54.13,1.34,1.34,0,0,1-.48.08,1.44,1.44,0,0,1-1.07-.48,1.76,1.76,0,0,0-.5-.45,2,2,0,0,0-.71-.14,1.4,1.4,0,0,1-1.22-.87,1.4,1.4,0,0,0-.39-.64,4.55,4.55,0,0,1-.58-.49,6,6,0,0,0-.49-.45c-.16-.13-.32-.24-.47-.35a5.07,5.07,0,0,1-.66-.52c-.33-.31-.62-.63-.92-1a5.12,5.12,0,0,1-.53-.68c-.14-.21-.25-.38-.37-.53A2.88,2.88,0,0,1,5,38.6a4.56,4.56,0,0,0-.3-.58,2.29,2.29,0,0,1-.29-.68,3.18,3.18,0,0,0-.25-.63.89.89,0,0,0-.51-.32,1.41,1.41,0,0,1-.93-1.51,1.11,1.11,0,0,0,0-.54c-.07-.16-.14-.32-.22-.47a7.43,7.43,0,0,1-.35-.82,1.65,1.65,0,0,0-.43-.58l-.21-.22a1.33,1.33,0,0,1-.25-.45,1.86,1.86,0,0,0-.44-.58L.7,31.1a1.39,1.39,0,0,1-.39-.88c0-.13,0-.29,0-.45a3.82,3.82,0,0,0,0-.68c0-.21-.08-.41-.13-.62s-.07-.28-.1-.39a1.42,1.42,0,0,1,.26-1.16,1.41,1.41,0,0,0,.37-.76,1.36,1.36,0,0,1,.1-.6l.05-.14A2,2,0,0,0,1,24.74c0-.06,0-.17-.22-.41a1.41,1.41,0,0,1,.08-2c.23-.2.24-.31.25-.37A2.08,2.08,0,0,0,1,21.24a2.13,2.13,0,0,1-.08-.51,1.38,1.38,0,0,1,.19-.8l.07-.16a2.75,2.75,0,0,0,.25-.64,1.91,1.91,0,0,0,0-.71,1.6,1.6,0,0,1,.4-1.33,1.89,1.89,0,0,0,.51-.63,1.84,1.84,0,0,0,0-.74l0-.15a1.38,1.38,0,0,1,.27-1c.05-.08.13-.17.18-.24a2.35,2.35,0,0,0,.39-.56,4.9,4.9,0,0,1,.38-.62c.16-.23.27-.4.38-.59s0-.48-.09-.87a1.43,1.43,0,0,1,.32-1.38l.14-.14c.08-.09.17-.18.25-.28a1.47,1.47,0,0,1,1-.47c.48-.05.77-.09.91-.25a3.27,3.27,0,0,0,.35-.56A2.75,2.75,0,0,1,7.14,8a3.29,3.29,0,0,1,.59-.47,6.32,6.32,0,0,0,.54-.4,3.77,3.77,0,0,0,.42-.49A3.21,3.21,0,0,1,9.21,6a1.4,1.4,0,0,1,.71-.3,1.81,1.81,0,0,0,.62-.26c.06,0,.17-.11.22-.56a1.42,1.42,0,0,1,1.4-1.26l.28,0a.56.56,0,0,0,.3-.07A1.11,1.11,0,0,0,13.16,3a1.42,1.42,0,0,1,1.28-.82h.19l.35,0a.88.88,0,0,0,.31-.05,2.43,2.43,0,0,0,.61-.37,3.13,3.13,0,0,1,.54-.34A1.44,1.44,0,0,1,17,1.35l.2,0h.45a1.58,1.58,0,0,0,.32,0l.25,0a1.44,1.44,0,0,1,.64.16,2.09,2.09,0,0,0,.61.15h.13a2.15,2.15,0,0,0,.65-.31,3.27,3.27,0,0,1,.44-.24A1.19,1.19,0,0,1,21.07,1a2.62,2.62,0,0,0,.57-.23l.28-.13a1.41,1.41,0,0,1,.54-.11,1.38,1.38,0,0,1,.45.08l.18.06a2.09,2.09,0,0,0,.72.19,1.44,1.44,0,0,0,.74-.33l.17-.11A1.4,1.4,0,0,1,25.38.2,3.27,3.27,0,0,0,26,.06,1.51,1.51,0,0,1,26.41,0,1.4,1.4,0,0,1,27.5.51c.27.32.45.49.65.52.44.05.87.13,1.31.21s1,.19,1.51.31h.16a1.94,1.94,0,0,0,.58-.12,1.29,1.29,0,0,1,.43-.07,1.42,1.42,0,0,1,1,.45,1.76,1.76,0,0,0,.58.46.47.47,0,0,0,.17,0,1.13,1.13,0,0,0,.36-.07,1.52,1.52,0,0,1,.42-.06A1.42,1.42,0,0,1,36,3.07c.13.32.23.41.32.46a.58.58,0,0,0,.28.06l.2,0H37A1.41,1.41,0,0,1,38.4,4.72c.07.35.16.45.24.51a2.5,2.5,0,0,0,.61.31,2.79,2.79,0,0,1,.6.32l.08.06c.16.13.33.25.51.37a4.56,4.56,0,0,1,.64.5l.41.38a7.71,7.71,0,0,1,.64.63,2.65,2.65,0,0,1,.39.69,3.17,3.17,0,0,0,.33.6c.13.18.41.25.78.34a1.6,1.6,0,0,1,1,.68c.13.21.25.44.37.66a1.42,1.42,0,0,1,.09,1.14c-.15.46-.24.74-.15.95a2.14,2.14,0,0,0,.43.56,3.56,3.56,0,0,1,.35.44,1.15,1.15,0,0,1,.12.25,2,2,0,0,0,.42.54c.1.11.17.18.23.26a1.53,1.53,0,0,1,.28.59c0,.15,0,.37.07.59s0,.38.07.58a1.43,1.43,0,0,1,0,.71l0,.15a1.7,1.7,0,0,0-.17.8,4.76,4.76,0,0,1,.07.75,4.93,4.93,0,0,0,0,.69,4.07,4.07,0,0,1,0,.78,4.66,4.66,0,0,0,0,.65,1.86,1.86,0,0,0,.25.69c.06.12.11.21.15.31a1.39,1.39,0,0,1,.09.45,2,2,0,0,0,.24.69l.11.23a1.43,1.43,0,0,1,.1.79,4.08,4.08,0,0,1-.11.49,4.81,4.81,0,0,0-.14.7,2.26,2.26,0,0,0,.07.72,1.61,1.61,0,0,1-.2,1.14,1.38,1.38,0,0,1-.28.31c-.27.23-.47.41-.52.62s-.14.54-.22.8l-.19.59c0,.19-.09.39-.13.58s-.13.57-.21.82a2,2,0,0,0-.09.7,3.37,3.37,0,0,1-.06.59,1.43,1.43,0,0,1-.08.22,5.12,5.12,0,0,1-.31.62l0,.09c-.1.18-.19.36-.28.54a1.45,1.45,0,0,1-.3.43l-.13.11a2.37,2.37,0,0,0-.54.59,1.38,1.38,0,0,0-.06.79,2,2,0,0,1-.15.95,3.52,3.52,0,0,0-.23.49l-.13.31a1.45,1.45,0,0,1-.89.77,1.66,1.66,0,0,0-.8.37,3,3,0,0,1-.58.51,3.6,3.6,0,0,0-.52.43c-.07.08-.15.21-.14.61a1.43,1.43,0,0,1-1.25,1.43,1,1,0,0,0-.5.16,1.13,1.13,0,0,1-.35.21,1.54,1.54,0,0,1-.28.09,2.69,2.69,0,0,0-.72.31c-.16.11-.22.35-.28.74a1.43,1.43,0,0,1-1.12,1.17,2.9,2.9,0,0,0-.63.19l-.15.07a4.44,4.44,0,0,1-.56.14,2.41,2.41,0,0,0-.69.18c-.29.13-.59.24-.88.35l-.3.11a1.43,1.43,0,0,1-.5.09l-.25,0-.14,0a2.67,2.67,0,0,0-.52-.07.69.69,0,0,0-.25,0c-.19.06-.38.14-.56.21a5.75,5.75,0,0,1-.74.27,1,1,0,0,0-.46.34,1.41,1.41,0,0,1-1.07.48,1.39,1.39,0,0,1-.65-.16,1.14,1.14,0,0,0-.49-.16c-.2,0-.34.11-.61.59A1.43,1.43,0,0,1,25.21,47.69Z" style="fill:#cbd872"/><path d="M23,7.93a1.51,1.51,0,0,1-.2-.92c0-.12,0-.23,0-.38A1.19,1.19,0,0,1,23,6a1.44,1.44,0,0,0,.13-.58A2.05,2.05,0,0,1,23.49,4a2.18,2.18,0,0,1,1.37-.64c.39,0,.69.29,1,.65l.15.15.21.21c.37.33.66.63.66,1a1.58,1.58,0,0,1-.12.64l-.06.2,0,.15a1.36,1.36,0,0,0,0,.29,2,2,0,0,0,.06.51.87.87,0,0,1-.09.75,4.46,4.46,0,0,1-.72-.18,3.63,3.63,0,0,0-1.05-.21,3.42,3.42,0,0,0-1.07.23,5.7,5.7,0,0,1-.76.2Z" style="fill:#fff"/><path d="M24.87,41.37a1.89,1.89,0,0,1-1-.36l-.14-.08a2.14,2.14,0,0,1-.88-.82A2.27,2.27,0,0,1,22.44,39a2.52,2.52,0,0,0-.06-.59,3.8,3.8,0,0,1-.05-.62,2.15,2.15,0,0,0,0-.4c0-.27-.06-.39.28-.64a.79.79,0,0,1,.5-.22,1.25,1.25,0,0,1,.31.07,1.77,1.77,0,0,0,.67.13,3.12,3.12,0,0,1,.72.08,2.54,2.54,0,0,0,.44.05,2.12,2.12,0,0,0,.51-.07,2.28,2.28,0,0,0,.73-.31,1,1,0,0,1,.46-.18.79.79,0,0,1,.44.19c.17.12.3.22.1.71a2.65,2.65,0,0,0-.11.3,1.41,1.41,0,0,0,.05.86,1.91,1.91,0,0,1,.1.64,1.42,1.42,0,0,1-.39.81,2.66,2.66,0,0,0-.24.32,3.54,3.54,0,0,0-.16.34,1.53,1.53,0,0,1-.54.78,2,2,0,0,1-1,.18Z" style="fill:#fff"/><path d="M34.62,28.81a2.35,2.35,0,0,1-.35,0,3.44,3.44,0,0,0-.58-.06,3.88,3.88,0,0,1-.73-.06,4.4,4.4,0,0,0-.74,0,1.48,1.48,0,0,1-.73-.18l-.21-.08-.13,0a1.34,1.34,0,0,0-.4-.06,1.52,1.52,0,0,0-.65.16,1.48,1.48,0,0,1-.82.24,3.7,3.7,0,0,1-.73-.07,2.88,2.88,0,0,0-.74-.07,1.82,1.82,0,0,1-.73-.14,1.86,1.86,0,0,0-.73-.14l-.74,0h-.74a6.29,6.29,0,0,0-.73,0,6.41,6.41,0,0,1-.73,0h-.74l-.74,0a2.92,2.92,0,0,0-.74.08,2.82,2.82,0,0,1-.73.08,1.84,1.84,0,0,1-.73-.13,1.88,1.88,0,0,0-.74-.13H17.52a5.84,5.84,0,0,0-.74,0,3.57,3.57,0,0,1-.67.05,1.38,1.38,0,0,0-.66.17l-.16.09a1,1,0,0,1-.5.21.55.55,0,0,1-.36-.17c-.16-.14-.3-.27,0-.81a2.24,2.24,0,0,0,.14-.36,1.43,1.43,0,0,0,0-.65,2.14,2.14,0,0,0-.1-.34,1.82,1.82,0,0,1-.11-.68,1,1,0,0,1,.16-.57,1.43,1.43,0,0,0,0-1.54,1,1,0,0,1-.18-.58,5,5,0,0,1,0-.68,3.39,3.39,0,0,0,.05-.68,2.29,2.29,0,0,1,.09-.64,2,2,0,0,0,.06-.71,3.37,3.37,0,0,0-.12-.62,2.4,2.4,0,0,1-.09-.73,1.57,1.57,0,0,1,.3-.77,1.7,1.7,0,0,0,.16-.27A1.46,1.46,0,0,0,15,17.5l0-.31a5.67,5.67,0,0,1,.18-1,3.9,3.9,0,0,0,.12-.46,4.73,4.73,0,0,1,.28-.92,6.13,6.13,0,0,1,.54-.85l.24-.35.19-.29a6.88,6.88,0,0,1,.65-.88,4.35,4.35,0,0,0,.32-.43,3.4,3.4,0,0,1,.59-.72,2,2,0,0,1,.74-.33,2.28,2.28,0,0,0,.54-.2l.09,0A10.78,10.78,0,0,1,20.7,10a1.36,1.36,0,0,0,.38-.24l.11-.1a1.93,1.93,0,0,1,.75-.53,4.25,4.25,0,0,1,.9-.12l.56,0,.22,0a4.22,4.22,0,0,1,.61.07,3.9,3.9,0,0,0,.63.06,2.86,2.86,0,0,0,.66-.1,2.53,2.53,0,0,1,.66-.11h.15a2,2,0,0,1,.74.34,2.52,2.52,0,0,0,.47.26l.19.07.33.08A6.57,6.57,0,0,1,29,10l.38.16a4.78,4.78,0,0,1,.94.43,4.16,4.16,0,0,0,.52.25,2.92,2.92,0,0,1,.81.41,10.14,10.14,0,0,1,1.05,1l.22.23a6.71,6.71,0,0,1,.74.89,1.82,1.82,0,0,1,.22.79,3,3,0,0,0,.1.52.78.78,0,0,0,.09.21,2.22,2.22,0,0,0,.24.4,3.22,3.22,0,0,1,.45.82,2.38,2.38,0,0,1,0,.8,4.75,4.75,0,0,0,0,.6,1.42,1.42,0,0,0,.17.54l.08.15a1.82,1.82,0,0,1,.27.79,1.73,1.73,0,0,1-.13.67.83.83,0,0,0-.06.21l0,.17a1.5,1.5,0,0,0,0,.29,2,2,0,0,0,.11.68,1.94,1.94,0,0,1,.11.67c0,.34,0,.51,0,.68s0,.33,0,.67a2,2,0,0,1-.1.68,2.31,2.31,0,0,0-.09.67,1.8,1.8,0,0,1-.12.68,1.54,1.54,0,0,0-.13.67,1.32,1.32,0,0,0,.15.62,1.45,1.45,0,0,1,.19.74,2.46,2.46,0,0,0,0,.26,2.78,2.78,0,0,0,.12.38c.14.4.12.57-.13.79A.81.81,0,0,1,34.62,28.81Z" style="fill:#fff"/><path d="M22.73,35.07c-.35,0-.53,0-.7,0H21.3a1.16,1.16,0,0,1-.69-.22,1.38,1.38,0,0,0-.78-.24,1.44,1.44,0,0,0-.64.16,1.41,1.41,0,0,1-.75.2,2.75,2.75,0,0,1-.72-.08,2.64,2.64,0,0,0-.72-.09,2.2,2.2,0,0,0-.71.11,2,2,0,0,1-.72.12,5.29,5.29,0,0,1-.71,0,5.91,5.91,0,0,0-.73,0,1.92,1.92,0,0,1-.71-.11,2.11,2.11,0,0,0-.73-.12h-.61a1.18,1.18,0,0,1-.6-.12,1.09,1.09,0,0,1-.4-.66,2.2,2.2,0,0,0-.13-.34,2.83,2.83,0,0,0-.23-.34,1.24,1.24,0,0,1-.35-.76,2.17,2.17,0,0,1,.39-1.12c.05-.08.09-.18.14-.27a1.6,1.6,0,0,1,.55-.75A2.63,2.63,0,0,1,12.69,30h.69l.74,0a3.55,3.55,0,0,1,.71.06,3,3,0,0,0,.72.07l.7,0,.73,0a5.59,5.59,0,0,0,.72,0c.18,0,.36,0,.71,0a3.35,3.35,0,0,0,.72-.07,3.46,3.46,0,0,1,.71-.07,1.61,1.61,0,0,1,.72.15l.22.07.17,0a1.12,1.12,0,0,0,.32,0,4,4,0,0,0,.72-.05,5.53,5.53,0,0,1,.71,0,2,2,0,0,0,.72-.12,1.93,1.93,0,0,1,.71-.12,1.48,1.48,0,0,1,.72.16l.21.07.14,0a1.47,1.47,0,0,0,.36,0,2.3,2.3,0,0,0,.72-.09A2.61,2.61,0,0,1,27,30.1h1.43a1.62,1.62,0,0,1,.72.14,1.85,1.85,0,0,0,.72.13,2.05,2.05,0,0,0,.72-.11,2.19,2.19,0,0,1,.71-.1A2.24,2.24,0,0,0,32,30a2.19,2.19,0,0,1,.71-.1,5.59,5.59,0,0,1,.72,0,4,4,0,0,0,.72.05c.36,0,.54,0,.72,0s.36,0,.72,0a6,6,0,0,1,.71,0A6.32,6.32,0,0,0,37,30a2.46,2.46,0,0,1,1.17.43,1.32,1.32,0,0,1,.5.66,3,3,0,0,0,.15.31,2.59,2.59,0,0,0,.21.3,1.22,1.22,0,0,1,.36.75,1.19,1.19,0,0,1-.35.72,1.32,1.32,0,0,0-.21.29,2,2,0,0,1-.79.79,1.44,1.44,0,0,0-.25.18l-.1.1A1.08,1.08,0,0,1,37,35a5.41,5.41,0,0,1-.71,0c-.19,0-.37,0-.72,0a2.7,2.7,0,0,1-.71-.08,3.35,3.35,0,0,0-.72-.07,3.84,3.84,0,0,0-.71.05,3.84,3.84,0,0,1-.72.06,1.7,1.7,0,0,1-.71-.13,2.05,2.05,0,0,0-.72-.12,2.75,2.75,0,0,0-.72.08,3.46,3.46,0,0,1-.71.07,5.59,5.59,0,0,0-.72,0,5.41,5.41,0,0,1-.71,0,1.82,1.82,0,0,1-.72-.13,2.28,2.28,0,0,0-1.43,0,2,2,0,0,1-.71.11,2.61,2.61,0,0,0-.71.09,2.75,2.75,0,0,1-.72.08,3.55,3.55,0,0,0-.71.06A5.18,5.18,0,0,1,22.73,35.07Z" style="fill:#fff"/><path d="M11.36,74.65a.66.66,0,0,0-.36-.13c-.48,0-.72-.69-.72-2l0-.73c0-.77.15-1.15.45-1.15a.61.61,0,0,1,.33.21.8.8,0,0,1,.25.34l.06.08a.79.79,0,0,0,.39-.18,1.27,1.27,0,0,1,.7-.29.74.74,0,0,1,.65.42,1.61,1.61,0,0,1,.25.85,3.65,3.65,0,0,1-.22,1.15,3.5,3.5,0,0,1-.63,1.14,1.14,1.14,0,0,1-.89.48A.75.75,0,0,1,11.36,74.65Zm-.69-8.54c-.13-.1-.2-.19-.2-.27s.16-.3.46-.47a5.53,5.53,0,0,1,1-.46,3,3,0,0,1,.81-.2c.32,0,.49.11.49.33s-.15.31-.45.5a5.38,5.38,0,0,1-1,.5,2.74,2.74,0,0,1-.8.21A.56.56,0,0,1,10.67,66.11Zm0-2.75c0-.18.12-.34.37-.49a3.56,3.56,0,0,1,1.62-.48q.63,0,.63.39a.34.34,0,0,1-.25.32,6.6,6.6,0,0,1-.77.26,2.78,2.78,0,0,0-.53.18,1.23,1.23,0,0,1-.62.21Q10.65,63.75,10.65,63.36Zm0,5a.57.57,0,0,1,.12-.41,5.12,5.12,0,0,1,1.13-.52,5.44,5.44,0,0,1,1.21-.39.58.58,0,0,1,.33.08.33.33,0,0,1,.14.29c0,.13-.16.3-.49.5A7.44,7.44,0,0,1,12,68.5a2.75,2.75,0,0,1-.8.25C10.85,68.75,10.67,68.63,10.67,68.38Zm1,4.58c.06.15.11.23.18.23s.16-.16.24-.48a2.84,2.84,0,0,0,.13-.67.19.19,0,0,0-.14-.2c-.1,0-.21.1-.32.28a1,1,0,0,0-.16.48A1.18,1.18,0,0,0,11.68,73Zm.62-11.32a1.61,1.61,0,0,1-.3-.74.31.31,0,0,1,.07-.24.38.38,0,0,1,.26-.07.7.7,0,0,1,.56.29,1,1,0,0,1,.24.63,1.19,1.19,0,0,1-.08.4c-.05.14-.13.2-.23.2S12.5,62,12.3,61.64Zm8.19,11.51a16.63,16.63,0,0,1-.94-3.68,22.22,22.22,0,0,1-.31-3.2,6.37,6.37,0,0,1,.18-1.38,9.85,9.85,0,0,0,.15-1.39.55.55,0,0,0-.09-.37.49.49,0,0,0-.35-.1h-.28a.71.71,0,0,0-.46.1.81.81,0,0,0-.16.43,7.11,7.11,0,0,0-.06,1.09l0,1.45a5.43,5.43,0,0,1-.1,1.35,1,1,0,0,0-.08.27,2.18,2.18,0,0,0,.33.59,4.65,4.65,0,0,1,.52.8,1.44,1.44,0,0,1,.19.72.55.55,0,0,1-.21.42.67.67,0,0,1-.46.18.77.77,0,0,1-.44-.17.81.81,0,0,0-.32-.18q-.12,0-.15.18a16.07,16.07,0,0,1-.7,1.45,16.26,16.26,0,0,1-1.11,1.84c-.39.54-.69.81-.91.81a.58.58,0,0,1-.31-.12c-.12-.08-.18-.15-.18-.23a3.55,3.55,0,0,1,.32-.9c.22-.48.46-1,.72-1.52a15.17,15.17,0,0,0,1.27-3,.77.77,0,0,0-.23-.38,6.15,6.15,0,0,0-.5-.54c-.27-.27-.48-.49-.62-.66a.78.78,0,0,1-.22-.41.22.22,0,0,1,.12-.19.55.55,0,0,1,.24-.07,1,1,0,0,1,.36.1,2.82,2.82,0,0,1,.32.18l.16.11a1.52,1.52,0,0,0,.66.34h0c.09-.3.21-.93.37-1.89a14.36,14.36,0,0,0,.23-1.86c0-.15-.07-.22-.21-.22l-.29,0-.47,0c-.5,0-.74-.12-.74-.37a.48.48,0,0,1,.09-.31A3.58,3.58,0,0,1,17.37,62a12.4,12.4,0,0,1,1.81-.26,5.4,5.4,0,0,1,1.06.06,1.09,1.09,0,0,1,.75.79,5,5,0,0,1,.19,1.4c0,.42,0,1-.08,1.87S21,67.3,21,67.72a6.71,6.71,0,0,0,.12,1.39l0-.06a23.77,23.77,0,0,0,.41,2.37c.22,1,.41,1.58.58,1.59a3,3,0,0,0,.37-1c.13-.51.3-1.19.49-2.06a20.13,20.13,0,0,1,.55-2.21,1,1,0,0,1,.25-.39.57.57,0,0,1,.37-.2.38.38,0,0,1,.31.16.55.55,0,0,1,.12.35,16.42,16.42,0,0,1-.35,3,18.26,18.26,0,0,1-.78,3,2,2,0,0,1-.52.77,1.15,1.15,0,0,1-.79.3C21.47,74.79,20.92,74.24,20.49,73.15Z" style="fill:#6c6851"/><path d="M30.09,73.45a17.86,17.86,0,0,1,1.15-1.8q.61-.84.87-.84c.16,0,.24.1.24.31a4.09,4.09,0,0,1-.42,1.1c-.28.59-.59,1.18-.92,1.76a4.45,4.45,0,0,1-.69,1,.72.72,0,0,1-.39.2.32.32,0,0,1-.29-.15.61.61,0,0,1-.08-.34A3.7,3.7,0,0,1,30.09,73.45Zm7-14a.22.22,0,0,1,.17.07.2.2,0,0,1,.07.16.36.36,0,0,1-.05.19.39.39,0,0,1-.17.12c-.41.28-.94.67-1.57,1.19s-1,.87-1,1.06l.14.1a1.71,1.71,0,0,0,.61-.16,1.84,1.84,0,0,1,.6-.15,1.2,1.2,0,0,1,1.28.8,7.74,7.74,0,0,1,.24,2.85,1.87,1.87,0,0,1-.23.62.34.34,0,0,0-.06.2,2.29,2.29,0,0,0,.1.43,1.16,1.16,0,0,1,.12.45,3.11,3.11,0,0,1-1.58,1,6.84,6.84,0,0,1-2.08.36.55.55,0,0,1-.49-.34,1.32,1.32,0,0,1-.19-.68,18.35,18.35,0,0,1,.29-2.2,21.57,21.57,0,0,1,.47-2.23.54.54,0,0,0,0-.18l0-.08-.08,0a.81.81,0,0,0-.22.12.61.61,0,0,1-.32.12.56.56,0,0,1-.36-.18.48.48,0,0,1-.21-.33c0-.23.28-.6.83-1.09a14.42,14.42,0,0,1,1.83-1.39,3.66,3.66,0,0,1,1.36-.66A1.25,1.25,0,0,1,37.11,59.44ZM33.37,70.87a.34.34,0,0,1,.31-.12.43.43,0,0,1,.46.29,4.89,4.89,0,0,0,1.38,2,3.46,3.46,0,0,0,2.2.67c.19,0,.32,0,.37-.12a.72.72,0,0,0,.1-.33.51.51,0,0,1,.07-.3c0-.06.14-.09.28-.09s.33.13.45.41a1.83,1.83,0,0,1,.17.74.82.82,0,0,1-.41.78,1.91,1.91,0,0,1-1,.23,6.18,6.18,0,0,1-1.85-.23,3.49,3.49,0,0,1-1.43-.92,4.18,4.18,0,0,1-.85-1.22,3.23,3.23,0,0,1-.32-1.42A1,1,0,0,1,33.37,70.87Zm2.69-4.5a2.54,2.54,0,0,0-1.05.25c-.37.16-.55.38-.55.65s0,.2.11.2a3.64,3.64,0,0,0,.91-.46,3.09,3.09,0,0,0,.81-.56A.32.32,0,0,0,36.06,66.37Zm-.18-3.05a.59.59,0,0,0-.29-.07.94.94,0,0,0-.61.22.7.7,0,0,0-.29.56c0,.22.07.33.22.33a2.33,2.33,0,0,0,.56-.38l.55-.42A.28.28,0,0,0,35.88,63.32Zm.45,1.39a.14.14,0,0,0-.13-.12,2,2,0,0,0-.84.42q-.63.42-.63.6l0,.12.08.09a1.36,1.36,0,0,0,.47-.19l.26-.14a.62.62,0,0,1,.26-.06.61.61,0,0,0,.39-.12.49.49,0,0,0,.14-.36A.67.67,0,0,0,36.33,64.71Zm0,4.24a1.71,1.71,0,0,1,.75.61,6.54,6.54,0,0,1,.81,1.14,2.13,2.13,0,0,1,.36.93.89.89,0,0,1-.15.47.44.44,0,0,1-.38.25c-.2,0-.44-.18-.74-.55a6.89,6.89,0,0,1-.81-1.23,2.41,2.41,0,0,1-.37-1A.68.68,0,0,1,36.35,69Zm3,.14a1.17,1.17,0,0,1,.29,0,1.54,1.54,0,0,1,.3.12,16.68,16.68,0,0,1,1.74,1.34,24.16,24.16,0,0,1,2.18,2q1,1,1,1.47a.63.63,0,0,1-.14.4.44.44,0,0,1-.37.16.84.84,0,0,1-.23,0A47.19,47.19,0,0,1,40,70.94l-.89-.84L39,70a.51.51,0,0,1-.17-.41C38.81,69.25,39,69.09,39.36,69.09Z" style="fill:#6c6851"/></g></g></svg>