<svg xmlns="http://www.w3.org/2000/svg" width="18.53mm" height="28.19mm" viewBox="0 0 52.52 79.92"><title>notify</title><g id="圖層_2" data-name="圖層 2"><g id="圖層_1-2" data-name="圖層 1"><path d="M26.78,79.92l-.52,0-.48,0a1.42,1.42,0,0,1-.87-.39c-.32-.28-.52-.45-.73-.46h0a1.24,1.24,0,0,0-.58.16,1.32,1.32,0,0,1-.64.16,1.41,1.41,0,0,1-1-.43,1.09,1.09,0,0,0-.52-.35h-.11a1.84,1.84,0,0,0-.64.21,1.56,1.56,0,0,1-.67.15,1.35,1.35,0,0,1-.57-.12l-.22-.1a3.54,3.54,0,0,0-.65-.28,1.66,1.66,0,0,0-.48-.06H17.6l-.29,0L17,78.24a2.65,2.65,0,0,0-.62-.11,3.27,3.27,0,0,1-.66-.12L15.64,78a3.87,3.87,0,0,1-.67-.39l-.31-.2a1.42,1.42,0,0,1-.64-.91c-.11-.41-.19-.69-.38-.8a1,1,0,0,0-.52-.1h0a1.52,1.52,0,0,1-1.42-.94,1.21,1.21,0,0,0-.32-.54,1.88,1.88,0,0,0-.64-.3,2.6,2.6,0,0,1-.46-.18,1.37,1.37,0,0,1-.33-.25c-.27-.26-.58-.59-.9-.93a1.39,1.39,0,0,1-.36-.7,1.81,1.81,0,0,0-.29-.61.75.75,0,0,0-.52-.22A1.43,1.43,0,0,1,6.67,69.4a.77.77,0,0,0-.08-.5,6.53,6.53,0,0,1-.35-.7c-.1-.22-.18-.4-.27-.57a5.3,5.3,0,0,1-.29-.71,6,6,0,0,0-.24-.61c-.19-.44-.36-.85-.53-1.31-.11-.28-.19-.56-.27-.84l-.15-.5c-.06-.21-.14-.4-.21-.59A5.35,5.35,0,0,1,4,62.32a2.35,2.35,0,0,0-.27-.63,3.65,3.65,0,0,1-.27-.6,1.75,1.75,0,0,1-.05-.4,2.4,2.4,0,0,1,.05-.4,2.53,2.53,0,0,0,0-.76c0-.09,0-.21-.26-.41a1.41,1.41,0,0,1-.12-2c.23-.26.23-.39.22-.45A1.26,1.26,0,0,0,3,56a1.42,1.42,0,0,1-.16-1.49,2.19,2.19,0,0,0,.23-.68,3.3,3.3,0,0,0-.05-.7c0-.1,0-.23,0-.34a1.47,1.47,0,0,1,.28-1l.08-.1A1.58,1.58,0,0,0,3.72,51a5.16,5.16,0,0,1,.2-.67,6.35,6.35,0,0,0,.24-.68A5,5,0,0,0,4.25,49a3.9,3.9,0,0,1,.13-.76,1,1,0,0,0,0-.55,1.41,1.41,0,0,1,.73-1.64c.34-.17.43-.29.47-.4.19-.44.38-.84.59-1.28.1-.19,0-.48-.11-.86a1.39,1.39,0,0,1,.29-1.38l.08-.1a4.93,4.93,0,0,0,.42-.49,1.37,1.37,0,0,1,.43-.4l.2-.1a2,2,0,0,0,.65-.45,2.49,2.49,0,0,1,.56-.51,3.16,3.16,0,0,0,.51-.45c.13-.15.25-.31.37-.47a6,6,0,0,1,.52-.64.86.86,0,0,0,.19-.54,1.42,1.42,0,0,1,1.33-1.24,1,1,0,0,0,.55-.15,3.65,3.65,0,0,0,.45-.51A2.62,2.62,0,0,1,13,35.6l.08-.06a1.53,1.53,0,0,0,.39-.7,1.44,1.44,0,0,1,1.08-1,2.92,2.92,0,0,0,.78-.23c.27-.14.56-.27.84-.39l.52-.22a2.2,2.2,0,0,0,.55-.48c.11-.11.19-.2.27-.27A1.45,1.45,0,0,1,18,32l.86-.31a1.37,1.37,0,0,1,.45-.07,1.47,1.47,0,0,1,.85.28,1.9,1.9,0,0,0,.86.47h.09c.09,0,.22-.11.43-.52a1.41,1.41,0,0,1,1.75-.67,1.13,1.13,0,0,0,.4.08h.12a.93.93,0,0,0,.45-.28,1.43,1.43,0,0,1,1-.38,1.4,1.4,0,0,1,.89.31,1,1,0,0,0,.54.27,1.71,1.71,0,0,0,.73-.27,2.38,2.38,0,0,1,.27-.14,1.2,1.2,0,0,1,.5-.13,1.08,1.08,0,0,0,.45-.15,1.5,1.5,0,0,1,.64-.15,1.41,1.41,0,0,1,1.16.6c.3.43.45.5.57.51l.47,0c.38,0,.66.05.95.09h0a1.48,1.48,0,0,0,.79-.4,1.69,1.69,0,0,1,1-.36h.12l.38,0,.3,0a1.4,1.4,0,0,1,1.08.69c.22.35.38.58.59.65a2.41,2.41,0,0,1,.69.36,3.8,3.8,0,0,0,.6.32.3.3,0,0,0,.14,0,1.44,1.44,0,0,0,.54-.16,1.32,1.32,0,0,1,.6-.14,1.43,1.43,0,0,1,1.18.63,1.18,1.18,0,0,0,.38.39,1.31,1.31,0,0,1,.33.25,2.31,2.31,0,0,1,.19.21,2.46,2.46,0,0,0,.56.56,1,1,0,0,0,.57.11h.4a1.4,1.4,0,0,1,.75.22,5.26,5.26,0,0,0,.47.24l.23.12a1.42,1.42,0,0,1,.76,1,1.48,1.48,0,0,0,.27.8,3,3,0,0,0,.54.4,2.92,2.92,0,0,1,.6.48,4.05,4.05,0,0,1,.45.66,3.19,3.19,0,0,0,.35.55,2.16,2.16,0,0,0,.54.45A1.68,1.68,0,0,1,48.49,41a1.86,1.86,0,0,0,.12.78,1.78,1.78,0,0,0,.49.45,1.4,1.4,0,0,1,.59,1.46,1.19,1.19,0,0,0,0,.7c.14.35.26.69.39,1l.25.69c.12.33.22.6.31.9a1.35,1.35,0,0,0,.52.58,1.47,1.47,0,0,1,.56,1.21V49a3.86,3.86,0,0,0,0,.68,1.78,1.78,0,0,0,.33.66l.16.26a1.33,1.33,0,0,1,.18.54l0,.3c0,.36.07.64.09.92a1.49,1.49,0,0,1-.09.63c0,.07-.07.14-.1.22a1.87,1.87,0,0,0-.24.74,3.22,3.22,0,0,1-.12.76,4.33,4.33,0,0,0-.11.66v.3c0,.4,0,.76-.07,1.12a1.52,1.52,0,0,0,.17.72,2.23,2.23,0,0,0,.09.23,1.48,1.48,0,0,1,.06.66l-.05.37c0,.37-.09.66-.15.94a2.17,2.17,0,0,0,0,.72,1.67,1.67,0,0,1-.52,1.38,1.55,1.55,0,0,0-.52.61,6.25,6.25,0,0,0-.16.62,6.34,6.34,0,0,1-.21.77l-.12.24a3.27,3.27,0,0,1-.28.35,2.72,2.72,0,0,0-.44.61,4.52,4.52,0,0,0-.21.62,3.85,3.85,0,0,1-.27.74A2,2,0,0,0,49,67a2.58,2.58,0,0,1,0,.32,1.54,1.54,0,0,1-.19.53l-1.29-.6,1.22.71-.39.66a1.44,1.44,0,0,1-1.09.67c-.41,0-.71.09-.84.27s-.36.44-.55.65-.26.28-.37.4a1.54,1.54,0,0,0-.25.7,1.6,1.6,0,0,1-.73,1l-.12.06a3,3,0,0,0-.64.41,1.43,1.43,0,0,0-.34.67l-.06.19a1.48,1.48,0,0,1-.37.56,2,2,0,0,0-.35.53,1.41,1.41,0,0,1-1.25.75h-.12l-.32,0a.72.72,0,0,0-.42.09l-.3.18c-.31.19-.61.38-.93.55a7.84,7.84,0,0,1-.72.32l-.5.21a1.39,1.39,0,0,1-.57.12H37a1.13,1.13,0,0,0-.44.07c-.18.07-.31.27-.47.59a1.42,1.42,0,0,1-1.26.77H34.4a1.51,1.51,0,0,0-.39,0,6.06,6.06,0,0,1-.74.15l-.66.11a1.34,1.34,0,0,0-.58.46,1.45,1.45,0,0,1-1.07.49,1.39,1.39,0,0,1-.4-.06,2.13,2.13,0,0,0-.6-.12h-.11l-.18,0h-.15a2.34,2.34,0,0,1-.35-.08,3.28,3.28,0,0,0-.68-.11h-.1a1.47,1.47,0,0,0-.67.3l-.16.1a1.38,1.38,0,0,1-.74.21Z" style="fill:#eac38d"/><path d="M25.21,75a1.41,1.41,0,0,1-.45-.07,1.43,1.43,0,0,0-.45-.09,1.56,1.56,0,0,1-.63-.17l-.13-.08a1.69,1.69,0,0,0-.74-.29,7.4,7.4,0,0,1-.83,0l-.58,0a2.72,2.72,0,0,1-.71-.16A2.67,2.67,0,0,0,20,73.9h0c-.19,0-.37.12-.69.43a1.42,1.42,0,0,1-1,.42,1.4,1.4,0,0,1-.73-.21,1.81,1.81,0,0,0-.51-.23,2.07,2.07,0,0,0-.47,0h-.36a1.4,1.4,0,0,1-1.21-.67c-.19-.31-.34-.54-.54-.61a.52.52,0,0,0-.18,0,1.82,1.82,0,0,0-.54.12,1.36,1.36,0,0,1-.48.09,1.45,1.45,0,0,1-1.07-.49,1.59,1.59,0,0,0-.5-.44,1.64,1.64,0,0,0-.71-.14,1.43,1.43,0,0,1-1.22-.88,1.46,1.46,0,0,0-.39-.64,3.86,3.86,0,0,1-.58-.49c-.19-.19-.34-.32-.49-.45s-.32-.24-.47-.35a6.16,6.16,0,0,1-.66-.51c-.33-.31-.62-.64-.92-1a5.12,5.12,0,0,1-.53-.68c-.14-.21-.25-.37-.37-.53A3,3,0,0,1,5,65.94a4,4,0,0,0-.3-.58,2.47,2.47,0,0,1-.29-.69,2.87,2.87,0,0,0-.25-.62.84.84,0,0,0-.51-.33,1.41,1.41,0,0,1-.93-1.51,1.06,1.06,0,0,0,0-.53c-.07-.17-.14-.32-.22-.48a7.43,7.43,0,0,1-.35-.82,1.75,1.75,0,0,0-.43-.58l-.21-.22a1.24,1.24,0,0,1-.25-.45,1.72,1.72,0,0,0-.44-.57L.7,58.43a1.39,1.39,0,0,1-.39-.88c0-.13,0-.29,0-.45a3.66,3.66,0,0,0,0-.67c0-.21-.08-.42-.13-.63s-.07-.27-.1-.39a1.42,1.42,0,0,1,.26-1.16c.23-.32.38-.54.37-.76a1.36,1.36,0,0,1,.1-.6l.05-.14A2,2,0,0,0,1,52.07c0-.06,0-.17-.22-.4a1.4,1.4,0,0,1-.39-1,1.38,1.38,0,0,1,.47-1c.23-.2.24-.31.25-.37A2.08,2.08,0,0,0,1,48.57a2.13,2.13,0,0,1-.08-.51,1.4,1.4,0,0,1,.19-.8l.07-.16a2.85,2.85,0,0,0,.25-.63,2,2,0,0,0,0-.72,1.6,1.6,0,0,1,.4-1.33,1.89,1.89,0,0,0,.51-.63,1.84,1.84,0,0,0,0-.74l0-.15a1.38,1.38,0,0,1,.27-1l.18-.24a2.35,2.35,0,0,0,.39-.56,4.9,4.9,0,0,1,.38-.62c.16-.23.27-.4.38-.58A1.31,1.31,0,0,0,3.79,39a1.45,1.45,0,0,1-.06-.41,1.42,1.42,0,0,1,.38-1l.14-.15c.08-.09.17-.18.25-.28a1.47,1.47,0,0,1,1-.47c.48,0,.77-.08.91-.25a3.27,3.27,0,0,0,.35-.56,2.75,2.75,0,0,1,.42-.63,3.29,3.29,0,0,1,.59-.47,3.78,3.78,0,0,0,.54-.4,3.77,3.77,0,0,0,.42-.49,3.21,3.21,0,0,1,.52-.58,1.4,1.4,0,0,1,.71-.3,2,2,0,0,0,.62-.25c.06,0,.17-.12.22-.57A1.41,1.41,0,0,1,12.16,31h.28a.67.67,0,0,0,.3-.06,1.21,1.21,0,0,0,.42-.57,1.41,1.41,0,0,1,1.28-.83h.19l.35,0a.69.69,0,0,0,.31-.05,2.43,2.43,0,0,0,.61-.37,3.13,3.13,0,0,1,.54-.34,1.44,1.44,0,0,1,.58-.13l.2,0h.45l.32,0a1.07,1.07,0,0,1,.25,0,1.44,1.44,0,0,1,.64.16,1.81,1.81,0,0,0,.61.15h.13a2.39,2.39,0,0,0,.65-.3,2.54,2.54,0,0,1,.44-.25,1.58,1.58,0,0,1,.36-.09,2.62,2.62,0,0,0,.57-.23l.28-.13a1.41,1.41,0,0,1,.54-.11,1.38,1.38,0,0,1,.45.08l.18.06a2.09,2.09,0,0,0,.72.19,1.37,1.37,0,0,0,.74-.33l.17-.11a1.4,1.4,0,0,1,.66-.22,2.23,2.23,0,0,0,.62-.14,1.51,1.51,0,0,1,.41-.06,1.4,1.4,0,0,1,1.09.51c.27.32.45.5.65.52.44.05.87.13,1.31.21s1,.2,1.51.31l.16,0a2,2,0,0,0,.58-.13,1.61,1.61,0,0,1,.43-.07,1.42,1.42,0,0,1,1,.45,1.64,1.64,0,0,0,.58.46.47.47,0,0,0,.17,0,1.41,1.41,0,0,0,.36-.06,1.23,1.23,0,0,1,.42-.07A1.42,1.42,0,0,1,36,30.4c.13.32.23.41.32.46a.58.58,0,0,0,.28.06l.2,0H37a1.41,1.41,0,0,1,1.39,1.16c.07.35.16.46.24.51a2.53,2.53,0,0,0,.61.32,2.4,2.4,0,0,1,.6.31l.08.06a4.74,4.74,0,0,0,.51.37,4.56,4.56,0,0,1,.64.5l.41.39a6.41,6.41,0,0,1,.64.63,2.36,2.36,0,0,1,.39.69,3.93,3.93,0,0,0,.33.6,1.35,1.35,0,0,0,.78.33,1.64,1.64,0,0,1,1,.68c.13.22.25.44.37.66a1.44,1.44,0,0,1,.09,1.15c-.15.45-.24.74-.15.94a2.37,2.37,0,0,0,.43.57,2.5,2.5,0,0,1,.35.44.9.9,0,0,1,.12.24,2.24,2.24,0,0,0,.42.55l.23.25a1.61,1.61,0,0,1,.28.59c0,.15,0,.37.07.59s0,.38.07.58a1.43,1.43,0,0,1,0,.71l0,.16a1.64,1.64,0,0,0-.17.79,4.76,4.76,0,0,1,.07.75,4.84,4.84,0,0,0,0,.69,4.07,4.07,0,0,1,0,.78,4.66,4.66,0,0,0,0,.65,1.86,1.86,0,0,0,.25.69c.06.12.11.21.15.31a1.45,1.45,0,0,1,.09.46,2,2,0,0,0,.24.68l.11.23a1.44,1.44,0,0,1,.1.79,4.08,4.08,0,0,1-.11.49,5.09,5.09,0,0,0-.14.7,2.26,2.26,0,0,0,.07.72,1.61,1.61,0,0,1-.2,1.14,1.38,1.38,0,0,1-.28.31c-.27.23-.47.41-.52.63s-.14.53-.22.79l-.19.59c0,.2-.09.39-.13.58s-.13.57-.21.82a2,2,0,0,0-.09.7,3.37,3.37,0,0,1-.06.59,2.09,2.09,0,0,1-.08.23c-.08.19-.19.4-.31.62l0,.08c-.1.19-.19.36-.28.55a1.54,1.54,0,0,1-.3.42l-.13.11a2.37,2.37,0,0,0-.54.59,1.38,1.38,0,0,0-.06.79,2,2,0,0,1-.15,1,3.52,3.52,0,0,0-.23.49l-.13.31a1.45,1.45,0,0,1-.89.77,1.66,1.66,0,0,0-.8.37,3,3,0,0,1-.58.51,4.4,4.4,0,0,0-.52.43c-.07.08-.15.21-.14.62A1.43,1.43,0,0,1,39.14,69a1,1,0,0,0-.5.16,1.13,1.13,0,0,1-.35.21l-.28.1a2.4,2.4,0,0,0-.72.3c-.16.11-.22.35-.28.74a1.43,1.43,0,0,1-1.12,1.17,2.9,2.9,0,0,0-.63.19l-.15.07a4.44,4.44,0,0,1-.56.14,2.41,2.41,0,0,0-.69.18c-.29.13-.59.24-.88.35l-.3.11a1.43,1.43,0,0,1-.5.09,1.06,1.06,0,0,1-.25,0l-.14,0a2.67,2.67,0,0,0-.52-.07.69.69,0,0,0-.25,0c-.19.06-.38.14-.56.21a5.75,5.75,0,0,1-.74.27,1,1,0,0,0-.46.34,1.42,1.42,0,0,1-1.07.49,1.4,1.4,0,0,1-.65-.17,1.14,1.14,0,0,0-.49-.16c-.2,0-.34.11-.61.59A1.43,1.43,0,0,1,25.21,75Z" style="fill:#cbd872"/><path d="M23,35.26a1.48,1.48,0,0,1-.2-.92c0-.11,0-.23,0-.38a1.19,1.19,0,0,1,.16-.64,1.44,1.44,0,0,0,.13-.57,2.07,2.07,0,0,1,.36-1.45,2.18,2.18,0,0,1,1.37-.64c.39,0,.69.3,1,.65l.15.15.21.21c.37.33.66.63.66,1a1.58,1.58,0,0,1-.12.64l-.06.2,0,.15a1.43,1.43,0,0,0,0,.29,2,2,0,0,0,.06.51.89.89,0,0,1-.09.76,4.49,4.49,0,0,1-.72-.19,3.63,3.63,0,0,0-1.05-.21,3.42,3.42,0,0,0-1.07.23,5.7,5.7,0,0,1-.76.2Z" style="fill:#fff"/><path d="M24.87,68.71a1.9,1.9,0,0,1-1-.37l-.14-.08a2.14,2.14,0,0,1-.88-.82,2.24,2.24,0,0,1-.42-1.16,2.59,2.59,0,0,0-.06-.59,3.8,3.8,0,0,1-.05-.62,2.15,2.15,0,0,0,0-.4c0-.27-.06-.39.28-.64a.79.79,0,0,1,.5-.22,1,1,0,0,1,.31.08,1.77,1.77,0,0,0,.67.13,3.21,3.21,0,0,1,.72.07,1.81,1.81,0,0,0,.44,0,2.67,2.67,0,0,0,.51-.06,2.53,2.53,0,0,0,.73-.31.89.89,0,0,1,.46-.18.76.76,0,0,1,.44.18c.17.12.3.22.1.71,0,.1-.08.2-.11.3a1.4,1.4,0,0,0,.05.86,1.91,1.91,0,0,1,.1.64,1.42,1.42,0,0,1-.39.81,2.66,2.66,0,0,0-.24.32,3.54,3.54,0,0,0-.16.34,1.53,1.53,0,0,1-.54.78,1.92,1.92,0,0,1-1,.18Z" style="fill:#fff"/><path d="M34.62,56.14a2.35,2.35,0,0,1-.35,0,3.44,3.44,0,0,0-.58-.06A3.88,3.88,0,0,1,33,56a5.82,5.82,0,0,0-.74,0,1.38,1.38,0,0,1-.73-.18l-.21-.08-.13,0a1.34,1.34,0,0,0-.4-.06,1.51,1.51,0,0,0-.65.15,1.48,1.48,0,0,1-.82.24,3.7,3.7,0,0,1-.73-.07,3.42,3.42,0,0,0-.74-.07,1.82,1.82,0,0,1-.73-.14,1.86,1.86,0,0,0-.73-.13H24.87c-.36,0-.55,0-.73,0a5.91,5.91,0,0,1-.73,0l-.74,0c-.18,0-.37,0-.74,0a2.92,2.92,0,0,0-.74.08,2.82,2.82,0,0,1-.73.08,1.84,1.84,0,0,1-.73-.13,2.08,2.08,0,0,0-.74-.13H17.52a4.14,4.14,0,0,0-.74,0,5.06,5.06,0,0,1-.67,0,1.38,1.38,0,0,0-.66.17l-.16.1a1.1,1.1,0,0,1-.5.2.53.53,0,0,1-.36-.16c-.16-.15-.3-.28,0-.81a2.35,2.35,0,0,0,.14-.37,1.43,1.43,0,0,0,0-.65,2.14,2.14,0,0,0-.1-.34,1.76,1.76,0,0,1-.11-.67,1,1,0,0,1,.16-.58,1.43,1.43,0,0,0,0-1.54,1,1,0,0,1-.18-.58,4.7,4.7,0,0,1,0-.67,3.54,3.54,0,0,0,.05-.68,2.18,2.18,0,0,1,.09-.64,2.09,2.09,0,0,0,.06-.72,3.23,3.23,0,0,0-.12-.61,2.53,2.53,0,0,1-.09-.74,1.57,1.57,0,0,1,.3-.77,1.7,1.7,0,0,0,.16-.27,1.46,1.46,0,0,0,.15-.46l0-.31a5.84,5.84,0,0,1,.18-1,3.9,3.9,0,0,0,.12-.46,5,5,0,0,1,.28-.92,6.79,6.79,0,0,1,.54-.85l.24-.35.19-.28a6.34,6.34,0,0,1,.65-.89,3.43,3.43,0,0,0,.32-.43,3.4,3.4,0,0,1,.59-.72,2,2,0,0,1,.74-.33,2.28,2.28,0,0,0,.54-.2l.09-.05a10.78,10.78,0,0,1,1.23-.68,1.36,1.36,0,0,0,.38-.24l.11-.1a1.93,1.93,0,0,1,.75-.53,3.7,3.7,0,0,1,.9-.11l.56-.05h.22a4.2,4.2,0,0,1,.61.06,3.9,3.9,0,0,0,.63.06,2.86,2.86,0,0,0,.66-.1,3,3,0,0,1,.66-.11h.15a2,2,0,0,1,.74.34,3.44,3.44,0,0,0,.47.27l.19.06.33.08a6.57,6.57,0,0,1,1,.31l.38.16a6.32,6.32,0,0,1,.94.43,3.11,3.11,0,0,0,.52.25,3.22,3.22,0,0,1,.81.41,10.14,10.14,0,0,1,1.05,1l.22.24a6.64,6.64,0,0,1,.74.88,1.82,1.82,0,0,1,.22.79A3,3,0,0,0,34,42a.85.85,0,0,0,.09.22,2.59,2.59,0,0,0,.24.39,3.39,3.39,0,0,1,.45.82,2.38,2.38,0,0,1,0,.8,4.75,4.75,0,0,0,0,.6,1.53,1.53,0,0,0,.17.55l.08.14a1.82,1.82,0,0,1,.27.79,1.69,1.69,0,0,1-.13.67.83.83,0,0,0-.06.21l0,.17a1.53,1.53,0,0,0,0,.3,2,2,0,0,0,.11.68,1.88,1.88,0,0,1,.11.66c0,.34,0,.51,0,.68s0,.34,0,.67a2,2,0,0,1-.1.68,2.36,2.36,0,0,0-.09.67,1.8,1.8,0,0,1-.12.68,1.57,1.57,0,0,0-.13.67,1.32,1.32,0,0,0,.15.62,1.48,1.48,0,0,1,.19.74,2.28,2.28,0,0,0,0,.26,2.4,2.4,0,0,0,.12.38c.14.4.12.57-.13.79A.81.81,0,0,1,34.62,56.14Z" style="fill:#fff"/><path d="M22.73,62.4l-.7,0H21.3a1.1,1.1,0,0,1-.69-.22,1.37,1.37,0,0,0-.78-.23,1.43,1.43,0,0,0-.64.15,1.42,1.42,0,0,1-.75.21,2.7,2.7,0,0,1-.72-.09A2.64,2.64,0,0,0,17,62.1a2,2,0,0,0-.71.12,2,2,0,0,1-.72.11,5.29,5.29,0,0,1-.71,0,5.91,5.91,0,0,0-.73,0,1.92,1.92,0,0,1-.71-.11,2.11,2.11,0,0,0-.73-.12h-.26l-.35,0a1.19,1.19,0,0,1-.6-.13,1.09,1.09,0,0,1-.4-.65,2.84,2.84,0,0,0-.13-.35,2.83,2.83,0,0,0-.23-.34,1.24,1.24,0,0,1-.35-.76,2.11,2.11,0,0,1,.39-1.11l.14-.28a1.66,1.66,0,0,1,.55-.75,2.75,2.75,0,0,1,1.24-.34l.69,0h.74a3.55,3.55,0,0,1,.71.06,3,3,0,0,0,.72.07c.35,0,.53,0,.7,0l.73,0a5.59,5.59,0,0,0,.72,0c.18,0,.36,0,.71,0a3.35,3.35,0,0,0,.72-.07,3.46,3.46,0,0,1,.71-.07,1.61,1.61,0,0,1,.72.15.81.81,0,0,0,.22.07l.17,0a1.12,1.12,0,0,0,.32,0,5.59,5.59,0,0,0,.72,0,3.92,3.92,0,0,1,.71-.05,2,2,0,0,0,.72-.12,1.93,1.93,0,0,1,.71-.12,1.6,1.6,0,0,1,.72.16l.21.07.14,0a1.49,1.49,0,0,0,.36,0,2.26,2.26,0,0,0,.72-.1,2.61,2.61,0,0,1,.71-.09h1.43a1.77,1.77,0,0,1,.72.14,1.85,1.85,0,0,0,.72.13,2.32,2.32,0,0,0,.72-.1,1.92,1.92,0,0,1,.71-.11,2.24,2.24,0,0,0,.72-.1,2.25,2.25,0,0,1,.71-.09,5.59,5.59,0,0,1,.72,0,5.59,5.59,0,0,0,.72,0,6.09,6.09,0,0,0,.72,0l.72,0a6,6,0,0,1,.71,0,6.32,6.32,0,0,0,.72,0,2.46,2.46,0,0,1,1.17.43,1.32,1.32,0,0,1,.5.66,2.26,2.26,0,0,0,.15.31,2.59,2.59,0,0,0,.21.3,1.22,1.22,0,0,1,.36.75,1.19,1.19,0,0,1-.35.72,1.32,1.32,0,0,0-.21.29,2,2,0,0,1-.79.79,1.44,1.44,0,0,0-.25.18l-.1.1a1.08,1.08,0,0,1-.69.38c-.36,0-.53,0-.71,0a5.85,5.85,0,0,0-.72,0,2.7,2.7,0,0,1-.71-.08,3.35,3.35,0,0,0-.72-.07,5,5,0,0,0-.71,0,3.84,3.84,0,0,1-.72.06,1.9,1.9,0,0,1-.71-.12,1.85,1.85,0,0,0-.72-.13,2.75,2.75,0,0,0-.72.08,3.46,3.46,0,0,1-.71.07,5.59,5.59,0,0,0-.72,0,5.41,5.41,0,0,1-.71,0,1.82,1.82,0,0,1-.72-.13A2,2,0,0,0,27,61.9a2.22,2.22,0,0,0-.72.11,1.93,1.93,0,0,1-.71.12,2.67,2.67,0,0,0-.71.08,2.7,2.7,0,0,1-.72.09,3.76,3.76,0,0,0-.71.05A5.18,5.18,0,0,1,22.73,62.4Z" style="fill:#fff"/><path d="M11.36,15.21a.66.66,0,0,0-.36-.13c-.48,0-.72-.69-.72-2.05l0-.73c0-.76.15-1.15.45-1.15a.61.61,0,0,1,.33.21.8.8,0,0,1,.25.34l.06.08a.79.79,0,0,0,.39-.18,1.35,1.35,0,0,1,.7-.29.74.74,0,0,1,.65.42,1.61,1.61,0,0,1,.25.85,3.65,3.65,0,0,1-.22,1.15,3.5,3.5,0,0,1-.63,1.14,1.14,1.14,0,0,1-.89.48A.62.62,0,0,1,11.36,15.21Zm-.69-8.54c-.13-.1-.2-.19-.2-.26s.16-.31.46-.48a5.53,5.53,0,0,1,1-.46,3,3,0,0,1,.81-.2c.32,0,.49.11.49.34s-.15.31-.45.49a5.38,5.38,0,0,1-1,.5,2.54,2.54,0,0,1-.8.22A.59.59,0,0,1,10.67,6.67Zm0-2.74c0-.19.12-.35.37-.5a3,3,0,0,1,.86-.35A3,3,0,0,1,12.64,3q.63,0,.63.39a.34.34,0,0,1-.25.32c-.16.07-.42.16-.77.27a2.32,2.32,0,0,0-.53.17,1.17,1.17,0,0,1-.62.22Q10.65,4.32,10.65,3.93Zm0,5a.54.54,0,0,1,.12-.41A4.49,4.49,0,0,1,11.92,8a5.44,5.44,0,0,1,1.21-.39.58.58,0,0,1,.33.09A.3.3,0,0,1,13.6,8c0,.13-.16.3-.49.51A8.53,8.53,0,0,1,12,9.06a2.9,2.9,0,0,1-.8.26C10.85,9.32,10.67,9.19,10.67,9Zm1,4.58c.06.15.11.22.18.22s.16-.16.24-.48a2.84,2.84,0,0,0,.13-.67.2.2,0,0,0-.14-.2c-.1,0-.21.1-.32.29a.94.94,0,0,0-.16.47A1.18,1.18,0,0,0,11.68,13.53ZM12.3,2.2a1.61,1.61,0,0,1-.3-.74.33.33,0,0,1,.07-.24.45.45,0,0,1,.26-.07.68.68,0,0,1,.56.3,1,1,0,0,1,.24.62,1.19,1.19,0,0,1-.08.4c-.05.14-.13.21-.23.21S12.5,2.52,12.3,2.2Zm8.19,11.51A16.63,16.63,0,0,1,19.55,10a22.23,22.23,0,0,1-.31-3.19,6.46,6.46,0,0,1,.18-1.39,9.85,9.85,0,0,0,.15-1.39.57.57,0,0,0-.09-.37.54.54,0,0,0-.35-.1h-.28a.78.78,0,0,0-.46.1.85.85,0,0,0-.16.43,7.2,7.2,0,0,0-.06,1.09l0,1.45A5.43,5.43,0,0,1,18.09,8a1,1,0,0,0-.08.27,2,2,0,0,0,.33.59,5.07,5.07,0,0,1,.52.8,1.44,1.44,0,0,1,.19.72.54.54,0,0,1-.21.42.68.68,0,0,1-.46.19.79.79,0,0,1-.44-.18.81.81,0,0,0-.32-.18q-.12,0-.15.18a15.87,15.87,0,0,1-.7,1.46,17,17,0,0,1-1.11,1.83c-.39.54-.69.81-.91.81a.58.58,0,0,1-.31-.12c-.12-.07-.18-.15-.18-.23a3.55,3.55,0,0,1,.32-.9c.22-.48.46-1,.72-1.52a15.17,15.17,0,0,0,1.27-3c0-.08-.08-.2-.23-.38s-.31-.35-.5-.54-.48-.49-.62-.66A.78.78,0,0,1,15,7.13a.22.22,0,0,1,.12-.19.53.53,0,0,1,.24-.06.94.94,0,0,1,.36.09l.32.18a.92.92,0,0,1,.16.12,1.58,1.58,0,0,0,.66.33h0c.09-.3.21-.93.37-1.89a14.16,14.16,0,0,0,.23-1.86c0-.15-.07-.22-.21-.22l-.29,0a3.32,3.32,0,0,1-.47,0c-.5,0-.74-.12-.74-.37A.5.5,0,0,1,15.88,3a3.58,3.58,0,0,1,1.49-.45,11.92,11.92,0,0,1,1.81-.25,5.75,5.75,0,0,1,1.06,0,1.09,1.09,0,0,1,.75.79,5,5,0,0,1,.19,1.4c0,.42,0,1-.08,1.88S21,7.86,21,8.28a6.71,6.71,0,0,0,.12,1.39l0-.06A23.77,23.77,0,0,0,21.53,12c.22,1,.41,1.58.58,1.59a3,3,0,0,0,.37-1c.13-.5.3-1.19.49-2.06a20.13,20.13,0,0,1,.55-2.21,1,1,0,0,1,.25-.39.57.57,0,0,1,.37-.2.41.41,0,0,1,.31.16.57.57,0,0,1,.12.35,16.33,16.33,0,0,1-.35,3,18.26,18.26,0,0,1-.78,3,1.91,1.91,0,0,1-.52.77,1.15,1.15,0,0,1-.79.3C21.47,15.35,20.92,14.8,20.49,13.71Z" style="fill:#6c6851"/><path d="M30.09,14a17.86,17.86,0,0,1,1.15-1.8q.61-.84.87-.84c.16,0,.24.1.24.31a4.09,4.09,0,0,1-.42,1.1c-.28.6-.59,1.18-.92,1.76a4.9,4.9,0,0,1-.69,1,.69.69,0,0,1-.39.19.33.33,0,0,1-.29-.14.67.67,0,0,1-.08-.35A3.7,3.7,0,0,1,30.09,14Zm7-14a.22.22,0,0,1,.17.07.2.2,0,0,1,.07.16.36.36,0,0,1-.05.19.4.4,0,0,1-.17.13,18.72,18.72,0,0,0-1.57,1.18c-.63.51-1,.87-1,1.06l.14.1a1.71,1.71,0,0,0,.61-.16,1.84,1.84,0,0,1,.6-.15,1.21,1.21,0,0,1,1.28.8,6.13,6.13,0,0,1,.28,2,6.11,6.11,0,0,1,0,.82,2,2,0,0,1-.23.63.29.29,0,0,0-.06.19,2.13,2.13,0,0,0,.1.43,1.16,1.16,0,0,1,.12.45,3.12,3.12,0,0,1-1.58,1,7.13,7.13,0,0,1-2.08.35.55.55,0,0,1-.49-.33,1.36,1.36,0,0,1-.19-.69A18.61,18.61,0,0,1,33.34,6a22.22,22.22,0,0,1,.47-2.23.54.54,0,0,0,0-.18l0-.08h-.08a.65.65,0,0,0-.22.11.61.61,0,0,1-.32.12.56.56,0,0,1-.36-.18.45.45,0,0,1-.21-.33c0-.23.28-.6.83-1.09A14.42,14.42,0,0,1,35.28.78,3.66,3.66,0,0,1,36.64.12,1.25,1.25,0,0,1,37.11,0ZM33.37,11.44c.05-.09.15-.13.31-.13a.45.45,0,0,1,.46.29,4.89,4.89,0,0,0,1.38,2,3.4,3.4,0,0,0,2.2.67c.19,0,.32,0,.37-.12a.72.72,0,0,0,.1-.33.46.46,0,0,1,.07-.29c0-.07.14-.1.28-.1s.33.13.45.41a1.83,1.83,0,0,1,.17.74.82.82,0,0,1-.41.78,1.91,1.91,0,0,1-1,.24,6.15,6.15,0,0,1-1.85-.24,3.49,3.49,0,0,1-1.43-.92,4.18,4.18,0,0,1-.85-1.22,3.22,3.22,0,0,1-.32-1.41A.91.91,0,0,1,33.37,11.44Zm2.69-4.51A2.71,2.71,0,0,0,35,7.18c-.37.16-.55.38-.55.65s0,.2.11.2a3.64,3.64,0,0,0,.91-.46A3.09,3.09,0,0,0,36.29,7,.32.32,0,0,0,36.06,6.93Zm-.18-3a.51.51,0,0,0-.29-.08A.94.94,0,0,0,35,4a.7.7,0,0,0-.29.56c0,.22.07.33.22.33a2.33,2.33,0,0,0,.56-.38L36,4.12A.25.25,0,0,0,35.88,3.89Zm.45,1.38a.14.14,0,0,0-.13-.11,2,2,0,0,0-.84.42c-.42.28-.63.47-.63.59l0,.12.08.1a1.71,1.71,0,0,0,.47-.2l.26-.14a.8.8,0,0,1,.26,0,.61.61,0,0,0,.39-.13.49.49,0,0,0,.14-.36A.67.67,0,0,0,36.33,5.27Zm0,4.24a1.79,1.79,0,0,1,.75.61,6.54,6.54,0,0,1,.81,1.14,2.13,2.13,0,0,1,.36.93,1,1,0,0,1-.15.48.44.44,0,0,1-.38.24c-.2,0-.44-.18-.74-.55a6.89,6.89,0,0,1-.81-1.23,2.43,2.43,0,0,1-.37-1A.69.69,0,0,1,36.35,9.51Zm3,.14a1.17,1.17,0,0,1,.29,0,1.54,1.54,0,0,1,.3.12,16.68,16.68,0,0,1,1.74,1.34,27.4,27.4,0,0,1,2.18,2q1,1,1,1.47a.63.63,0,0,1-.14.4.44.44,0,0,1-.37.16l-.23,0A48.59,48.59,0,0,1,40,11.5l-.89-.84L39,10.54a.68.68,0,0,1-.13-.18.67.67,0,0,1,0-.22C38.81,9.81,39,9.65,39.36,9.65Z" style="fill:#6c6851"/></g></g></svg>