<svg xmlns="http://www.w3.org/2000/svg" width="32.15mm" height="21.71mm" viewBox="0 0 91.13 61.54"><title>notify</title><g id="圖層_2" data-name="圖層 2"><g id="icon4"><path d="M60.32,61.54a1.43,1.43,0,0,1-.92-.34,1.31,1.31,0,0,0-.64-.37l-.45,0c-.35,0-.65,0-1-.06l-.76-.12-.54-.11a1.37,1.37,0,0,1-.55-.21l-.18-.12a1.67,1.67,0,0,0-.67-.37h-.09a1.38,1.38,0,0,0-.61.25,1.49,1.49,0,0,1-.73.2,1.42,1.42,0,0,1-.83-.27,2,2,0,0,0-.58-.33,5.89,5.89,0,0,1-.7-.26l-.62-.25a.58.58,0,0,0-.19,0,1.85,1.85,0,0,0-.54.11,1.42,1.42,0,0,1-1.47-.42,1.87,1.87,0,0,0-.53-.47,1.27,1.27,0,0,1-.31-.2,1.9,1.9,0,0,1-.23-.21,2.38,2.38,0,0,0-.58-.51,1.6,1.6,0,0,0-.73-.11H45.8a1.63,1.63,0,0,1-.86-.25l-.4-.31c-.16-.14-.27-.22-.37-.3a1.41,1.41,0,0,1-.51-.77l0-.11a1.31,1.31,0,0,0-.33-.72,1.21,1.21,0,0,0-.58-.19,1.42,1.42,0,0,1-1.21-1.16,1.06,1.06,0,0,0-.22-.59,1.42,1.42,0,0,0-.73-.26,1.56,1.56,0,0,1-1-.7l-.13-.24a3.25,3.25,0,0,0-.36-.57,2.16,2.16,0,0,0-.54-.45,2.49,2.49,0,0,1-.44-.34,1.9,1.9,0,0,1-.19-.21,3.08,3.08,0,0,0-.44-.45,2.72,2.72,0,0,1-.48-.49l-.06-.08a4.76,4.76,0,0,1-.33-.72c0-.12-.09-.24-.15-.36a1.49,1.49,0,0,1,0-1.06c.16-.43.24-.71.15-.91a1.11,1.11,0,0,0-.47-.43,1.43,1.43,0,0,1-.63-1.52,1.14,1.14,0,0,0,0-.63,1.93,1.93,0,0,0-.4-.59,3.51,3.51,0,0,1-.29-.38,1.4,1.4,0,0,1-.16-.38c-.09-.29-.18-.67-.27-1l0-.2a1.44,1.44,0,0,1,0-.77,2,2,0,0,0,0-.68c0-.11-.08-.23-.36-.44a1.4,1.4,0,0,1-.38-1.84.8.8,0,0,0,.14-.48c0-.25,0-.49,0-.74s0-.46,0-.67a5.77,5.77,0,0,1,0-.72c0-.27,0-.48,0-.69,0-.48,0-.93,0-1.41,0-.28,0-.55.06-.82s0-.41.06-.57,0-.44,0-.65a4.79,4.79,0,0,1,0-.77,2.72,2.72,0,0,0,0-.69,3,3,0,0,1,0-.63,1.89,1.89,0,0,1,.1-.41,1.78,1.78,0,0,1,.17-.34,2.64,2.64,0,0,0,.31-.7.6.6,0,0,0-.12-.45,1.42,1.42,0,0,1,.53-1.9c.29-.18.33-.29.35-.35a1.35,1.35,0,0,0-.12-.75A1.42,1.42,0,0,1,35.29,22a2.22,2.22,0,0,0,.46-.61,2.94,2.94,0,0,0,.16-.68c0-.09,0-.21.05-.31a1.45,1.45,0,0,1,.57-.88l.12-.08a1.6,1.6,0,0,0,.53-.5,3.82,3.82,0,0,1,.39-.57,5.14,5.14,0,0,0,.42-.59,4.53,4.53,0,0,0,.28-.59,3.56,3.56,0,0,1,.33-.68.91.91,0,0,0,.12-.52,1.42,1.42,0,0,1,1.17-1.38.84.84,0,0,0,.55-.23c.3-.37.59-.71.91-1.06.15-.16.14-.45.13-.84a1.39,1.39,0,0,1,.66-1.27l.1-.06c.16-.1.33-.21.5-.34a1.4,1.4,0,0,1,.53-.27l.21,0a1.74,1.74,0,0,0,.74-.26,2.35,2.35,0,0,1,.67-.34,3.14,3.14,0,0,0,.61-.3c.16-.11.32-.24.48-.37a7.67,7.67,0,0,1,.65-.48A.88.88,0,0,0,47,8.25a1.43,1.43,0,0,1,1.33-.91l.24,0a1.39,1.39,0,0,0,.3,0,.61.61,0,0,0,.28-.06,2.62,2.62,0,0,0,.56-.4,2.51,2.51,0,0,1,.54-.39l.09,0a1.44,1.44,0,0,0,.52-.61,1.45,1.45,0,0,1,1.24-.73,3,3,0,0,0,.79-.08c.28-.09.56-.17.85-.24l.45,1.35-.35-1.37.46-.12a1.93,1.93,0,0,0,.63-.39,2.73,2.73,0,0,1,.3-.22,1.34,1.34,0,0,1,.46-.2l.88-.18.26,0a1.43,1.43,0,0,1,1,.41c.35.34.61.57.82.57s.29-.08.54-.45a1.43,1.43,0,0,1,1.17-.63,1.32,1.32,0,0,1,.64.16,1,1,0,0,0,.45.13.94.94,0,0,0,.52-.23,1.39,1.39,0,0,1,.86-.29,1.43,1.43,0,0,1,1,.4c.28.28.42.32.52.32a1.73,1.73,0,0,0,.72-.2,1.28,1.28,0,0,1,.29-.12,1.27,1.27,0,0,1,.47-.09,1.34,1.34,0,0,0,.49-.1,1.23,1.23,0,0,1,.53-.11,1.42,1.42,0,0,1,1.22.7c.26.44.4.52.52.54l.54.08c.32,0,.59.08.86.14h0a1.51,1.51,0,0,0,.8-.35,1.7,1.7,0,0,1,.94-.31l.18,0,.66.09a1.42,1.42,0,0,1,1,.74c.2.36.34.6.55.68a2.65,2.65,0,0,1,.66.38,3.53,3.53,0,0,0,.59.35.33.33,0,0,0,.15,0,1.46,1.46,0,0,0,.53-.15,1.38,1.38,0,0,1,.56-.12,1.42,1.42,0,0,1,1.2.66,1.06,1.06,0,0,0,.36.39,1.59,1.59,0,0,1,.33.25l.18.22a2.26,2.26,0,0,0,.55.56,1,1,0,0,0,.58.12h.35a1.35,1.35,0,0,1,.92.35l.32.29c.22.2.37.35.53.48a3.33,3.33,0,0,1,.53.59,4.54,4.54,0,0,0,.45.51c.35.33.71.67,1,1a3,3,0,0,0,.55.42l0,0a1.41,1.41,0,0,1,.61,1.43c-.07.42-.09.68,0,.84a1.75,1.75,0,0,0,.58.44,2.62,2.62,0,0,1,.27.17,1.37,1.37,0,0,1,.35.33,1,1,0,0,0,.4.28,1.42,1.42,0,0,1,.77,1.72c-.12.38-.09.52,0,.62a1.6,1.6,0,0,0,.51.53l.15.12a1.39,1.39,0,0,1,.49.89,2.91,2.91,0,0,1,0,.31,2.63,2.63,0,0,0,.13.69,3,3,0,0,1,.15.74,3.78,3.78,0,0,0,.13.67c0,.11.1.23.42.41a1.42,1.42,0,0,1,.6,1.79.89.89,0,0,0-.09.52,1.36,1.36,0,0,1,0,.21,4.23,4.23,0,0,1,0,.54,2.36,2.36,0,0,0,0,.7c0,.11.07.23.33.46a1.41,1.41,0,0,1,.29,1.86.8.8,0,0,0-.19.5,2.76,2.76,0,0,0,.19.68,2.73,2.73,0,0,1,.18.55,1.79,1.79,0,0,1,0,.23A2.15,2.15,0,0,0,91,31a1.5,1.5,0,0,1-.25,1.47,1.3,1.3,0,0,0-.4.68c0,.07,0,.21.34.56a1.42,1.42,0,0,1,0,2,.79.79,0,0,0-.22.4,4.1,4.1,0,0,0,0,.7,3.17,3.17,0,0,1,0,.78,4.11,4.11,0,0,1-.25.72A3.69,3.69,0,0,0,90,39a2.46,2.46,0,0,0,0,.72A1.7,1.7,0,0,1,89.48,41a1.71,1.71,0,0,0-.56.64,1.5,1.5,0,0,0,0,.71,1.43,1.43,0,0,1-.71,1.37,1.32,1.32,0,0,0-.57.48c-.15.33-.32.64-.49,1l-.17.31-.22.44c-.15.28-.28.55-.44.82a1.44,1.44,0,0,0-.08.79,1.49,1.49,0,0,1-.46,1.22l-.16.14a3.46,3.46,0,0,0-.51.5,1.77,1.77,0,0,0-.25.7c0,.14-.06.24-.09.33a1.42,1.42,0,0,1-.25.47l-.19.24-.62.73a1.36,1.36,0,0,1-.5.36l-.25.09a1.92,1.92,0,0,0-.7.36,3.59,3.59,0,0,1-.63.45,3.53,3.53,0,0,0-.57.38l-.21.2c-.31.26-.59.51-.88.74a1.57,1.57,0,0,0-.41.63,1.76,1.76,0,0,1-.12.24,1.35,1.35,0,0,1-.43.49l-.27.2c-.31.23-.55.4-.8.56a2.35,2.35,0,0,0-.51.49,1.73,1.73,0,0,1-1.19.59h-.1l-.47,0a.8.8,0,0,0-.37.07,5.33,5.33,0,0,0-.56.32,6.2,6.2,0,0,1-.69.38,1.22,1.22,0,0,1-.27.09l-.39,0a2.28,2.28,0,0,0-.76.12,3.23,3.23,0,0,0-.59.29,4,4,0,0,1-.69.33,1.82,1.82,0,0,0-.6.42c-.1.09-.17.16-.24.21a1.23,1.23,0,0,1-.48.25l-.86.24a1.18,1.18,0,0,1-.37,0,1.4,1.4,0,0,1-.85-.28,1.52,1.52,0,0,0-.75-.38c-.33.06-.6.09-.86.12l-.58.07a1.59,1.59,0,0,0-.65.37,1.72,1.72,0,0,1-1,.36l-.22,0-.13,0a3.58,3.58,0,0,0-.65-.09H63a1.61,1.61,0,0,0-.67.33l-.16.11a1.36,1.36,0,0,1-.61.22,1.83,1.83,0,0,0-.59.21A1.35,1.35,0,0,1,60.32,61.54Z" style="fill:#eac38d"/><path d="M55.77,55.64a1.32,1.32,0,0,1-.48-.09,2.78,2.78,0,0,0-.71-.19,2.68,2.68,0,0,1-.75-.2,2.92,2.92,0,0,0-.68-.2c-.32,0-.64-.09-.95-.15l-.36-.06a1.34,1.34,0,0,1-.64-.29l-.14-.11a1.65,1.65,0,0,0-.67-.44l-.62-.1a5.51,5.51,0,0,1-.8-.14l-.15,0a1.35,1.35,0,0,0-.46.1,1.76,1.76,0,0,1-.45.07,1.4,1.4,0,0,1-1.19-.66,1.05,1.05,0,0,0-.45-.45l-.12,0a1.73,1.73,0,0,0-.67.26,1.35,1.35,0,0,1-.7.18,1.39,1.39,0,0,1-1.06-.48,1.8,1.8,0,0,0-.38-.34,1.61,1.61,0,0,1-.45-.45l-.09-.17a1.77,1.77,0,0,0-.5-.64c-.25-.16-.49-.33-.73-.5s-.31-.23-.44-.33a2.65,2.65,0,0,1-.53-.53,3.75,3.75,0,0,0-.47-.5.51.51,0,0,0-.32-.08,2.58,2.58,0,0,0-.52.07,1.43,1.43,0,0,1-.29,0,1.41,1.41,0,0,1-1.27-.81,1.81,1.81,0,0,0-.32-.49,3.41,3.41,0,0,0-.56-.42l-.13-.08a1.43,1.43,0,0,1-.64-1.19.76.76,0,0,1,0-.15,1.25,1.25,0,0,0-.13-.72,1.2,1.2,0,0,0-.69-.33,1.41,1.41,0,0,1-1.05-1.17,1.94,1.94,0,0,0-.19-.68,1.89,1.89,0,0,0-.54-.51,1.49,1.49,0,0,1-.57-1.39,1.47,1.47,0,0,0,0-.78,5.63,5.63,0,0,1-.24-.69c-.07-.28-.13-.48-.2-.68s-.17-.38-.25-.57a5.19,5.19,0,0,1-.32-.76c-.12-.37-.21-.74-.31-1.12l-.07-.27a5.55,5.55,0,0,1-.13-.71c0-.29-.06-.5-.1-.71a3,3,0,0,1,0-.76,3.89,3.89,0,0,0,0-.68,2.38,2.38,0,0,1,0-.75,2.66,2.66,0,0,0,0-.69.91.91,0,0,0-.36-.53,1.43,1.43,0,0,1-.27-1.74,1.16,1.16,0,0,0,.19-.55l0-.59c0-.31,0-.57,0-.83a1.8,1.8,0,0,0-.19-.72,2.61,2.61,0,0,1-.12-.29,1.42,1.42,0,0,1-.08-.5,1.69,1.69,0,0,0-.21-.7l-.08-.16a1.38,1.38,0,0,1-.06-.94c0-.13.08-.28.13-.44a3.19,3.19,0,0,0,.19-.67c0-.21.06-.43.08-.65l0-.41a1.42,1.42,0,0,1,.57-1c.36-.26.57-.43.63-.64a1.24,1.24,0,0,1,.21-.45l.11-.15a2.43,2.43,0,0,0,.42-.67c0-.06,0-.17-.1-.47a1.48,1.48,0,0,1-.07-1.11,1.46,1.46,0,0,1,.76-.82c.29-.13.33-.23.36-.28a2.41,2.41,0,0,0,.13-.71,3.73,3.73,0,0,1,.06-.52,1.47,1.47,0,0,1,.38-.65l.13-.15a3.25,3.25,0,0,0,.45-.58,1.81,1.81,0,0,0,.18-.7,1.67,1.67,0,0,1,.76-1.17l.1-.05a1.64,1.64,0,0,0,.59-.42,1.69,1.69,0,0,0,.21-.71l0-.15a1.4,1.4,0,0,1,.53-.9l.25-.18a3.72,3.72,0,0,0,.56-.46A4,4,0,0,1,38.26,9c.22-.19.38-.32.54-.47s.16-.46.16-.87a1.47,1.47,0,0,1,.69-1.25l.16-.1a3.13,3.13,0,0,0,.34-.21,1.42,1.42,0,0,1,.78-.23,1.09,1.09,0,0,1,.26,0,4.57,4.57,0,0,0,.62.08.54.54,0,0,0,.34-.09,3,3,0,0,0,.49-.45,3.08,3.08,0,0,1,.57-.5,3.11,3.11,0,0,1,.7-.31,4.11,4.11,0,0,0,.61-.25A4.11,4.11,0,0,0,45.06,4a3.34,3.34,0,0,1,.63-.43,1.44,1.44,0,0,1,.62-.14h.11a2.19,2.19,0,0,0,.7-.11c.06,0,.18-.08.33-.51a1.4,1.4,0,0,1,1.34-1,1.39,1.39,0,0,1,.4.06,1.11,1.11,0,0,0,.28,0l.15,0c.16,0,.29-.19.49-.48A1.41,1.41,0,0,1,51.29.79a1.51,1.51,0,0,1,.41.06,1.63,1.63,0,0,0,.48.09h.15A2.61,2.61,0,0,0,53,.65,2.49,2.49,0,0,1,53.54.4a1.39,1.39,0,0,1,.4-.06,1.4,1.4,0,0,1,.41.06A4.05,4.05,0,0,0,55,.49h.07a1.49,1.49,0,0,1,.69.16l.1,0a1.66,1.66,0,0,0,.72.27,2,2,0,0,0,.72-.23,3,3,0,0,1,.45-.19,1.32,1.32,0,0,1,.39-.06,2.24,2.24,0,0,0,.57-.16A1.63,1.63,0,0,1,59,.24,1.2,1.2,0,0,1,59.4.17,1.43,1.43,0,0,1,60,.31l.13.07a2.08,2.08,0,0,0,.73.26h0A1.51,1.51,0,0,0,61.6.37l.15-.08a1.34,1.34,0,0,1,.67-.17h.06A2.93,2.93,0,0,0,63.05,0l.3,0a1.43,1.43,0,0,1,1.16.6c.22.32.39.52.58.55.41.08.8.18,1.21.28l.17.05c.46.11.91.23,1.37.36a.64.64,0,0,0,.2,0,2.1,2.1,0,0,0,.52-.09,1.57,1.57,0,0,1,.37-.05,1.43,1.43,0,0,1,1.08.5,1.6,1.6,0,0,0,.53.47.42.42,0,0,0,.2,0,1.57,1.57,0,0,0,.32-.05,1.19,1.19,0,0,1,.37-.06,1.43,1.43,0,0,1,1.33.94c.12.31.22.4.3.45a.62.62,0,0,0,.29.06h.34a1.42,1.42,0,0,1,1.4,1.17c.06.38.17.46.22.5a.52.52,0,0,0,.31.07h.1a1.53,1.53,0,0,1,1,.37,1.49,1.49,0,0,1,.5,1c0,.33.09.4.13.44a.63.63,0,0,0,.44.12h.29a1.42,1.42,0,0,1,1.39,1.15,1,1,0,0,0,.17.44.9.9,0,0,0,.45.24,1.42,1.42,0,0,1,1,1.6.8.8,0,0,0,0,.58,1.67,1.67,0,0,0,.57.47l.23.14a1.52,1.52,0,0,1,.37.39,1.19,1.19,0,0,0,.32.31,1.41,1.41,0,0,1,.45,1.81c-.22.44-.21.59-.17.7l.21.46c.13.29.24.55.34.82s.35.34.72.51a1.66,1.66,0,0,1,.83.8l.26.58a1.42,1.42,0,0,1-.1,1.3,1.32,1.32,0,0,0-.29.8,2.61,2.61,0,0,1,0,.75,3.09,3.09,0,0,0,0,.68c0,.11.08.25.45.51a1.42,1.42,0,0,1,.46,1.78,1.15,1.15,0,0,0-.14.49,1.41,1.41,0,0,1,0,.46,1.59,1.59,0,0,1-.07.2,2.39,2.39,0,0,0-.18.78,1.16,1.16,0,0,0,.25.59,1.43,1.43,0,0,1-.07,1.67,1.19,1.19,0,0,0-.29.57,4.85,4.85,0,0,0,0,.66,4.68,4.68,0,0,1,0,.77q0,.3-.06.6a8,8,0,0,1-.1.82,2.62,2.62,0,0,1-.28.7,2.69,2.69,0,0,0-.26.64,1.25,1.25,0,0,0,.26.8,1.62,1.62,0,0,1,.14,1.18l-.21.62a1.48,1.48,0,0,1-.75.86l-.11.05c-.37.16-.63.29-.71.49a2.05,2.05,0,0,0-.11.7,3.69,3.69,0,0,1-.06.54l-.09.26a1.94,1.94,0,0,0-.09.67,2.54,2.54,0,0,1,0,.3,1.41,1.41,0,0,1-.23.66c-.07.11-.2.27-.32.42a4.27,4.27,0,0,0-.35.46,1.39,1.39,0,0,1-.54.48l-.13.06a1.57,1.57,0,0,0-.65.46,6.12,6.12,0,0,1-.45.56,5.84,5.84,0,0,0-.44.53,3.88,3.88,0,0,1-.52.55,4.09,4.09,0,0,0-.46.47,1.7,1.7,0,0,0-.27.66c0,.12-.06.21-.09.3a1.27,1.27,0,0,1-.24.42,1.85,1.85,0,0,0-.27.65l0,.19a1.4,1.4,0,0,1-.49.7,3.64,3.64,0,0,1-.41.28,5.3,5.3,0,0,0-.54.39,2.71,2.71,0,0,0-.42.57,1.51,1.51,0,0,1-1.25.73H74.3a1,1,0,0,0-.51.11,7.17,7.17,0,0,1-.69.43l-.54.31c-.17.11-.34.22-.5.34a8.32,8.32,0,0,1-.71.46,2.54,2.54,0,0,0-.54.46,3,3,0,0,1-.44.4l-.2.11c-.2.09-.43.18-.67.26l-.65.24a1.53,1.53,0,0,1-.47.11h-.31a2.4,2.4,0,0,0-.7.09,1.5,1.5,0,0,0-.56.56l-.09.13a1.42,1.42,0,0,1-.64.49c-.19.07-.35.16-.5.23l-.29.15a1.37,1.37,0,0,1-.62.14,1.39,1.39,0,0,1-.53-.1l-.09,0a2,2,0,0,0-.67-.19h-.12a2.24,2.24,0,0,1-.49,0H62.2a1.85,1.85,0,0,0-.39,0c-.11,0-.25.08-.49.41a1.41,1.41,0,0,1-1.84.41,1,1,0,0,0-.47-.16h-.36a2.63,2.63,0,0,1-.37-.1,2.62,2.62,0,0,0-.74-.15c-.23,0-.41.16-.72.5A1.43,1.43,0,0,1,55.77,55.64Z" style="fill:#cbd872"/><path d="M56.76,9.06c-.17-.33-.1-.52.13-.86a1.69,1.69,0,0,0,.28-.87,4.78,4.78,0,0,0,0-.64,6.16,6.16,0,0,1,0-.75,2,2,0,0,1,.53-1.48A1.87,1.87,0,0,1,59.1,4h.52a1.68,1.68,0,0,1,1.15.31,2.15,2.15,0,0,1,.35,1.55v.13a5.84,5.84,0,0,1,0,.74c0,.2,0,.38,0,.76a1.8,1.8,0,0,0,.1.63.88.88,0,0,1-.08.8l-.64-.11a4.67,4.67,0,0,0-2.79.09C57.33,8.93,57,9,56.76,9.06Z" style="fill:#fff"/><path d="M59.1,48.29a3,3,0,0,1-1.46-.41,2.43,2.43,0,0,1-.83-1l-.08-.14a2.63,2.63,0,0,1-.45-1.37c0-.35,0-.53,0-.7s0-.36,0-.72A1.38,1.38,0,0,0,56,43.2c-.21-.46-.16-.62.05-.84a.53.53,0,0,1,.36-.17,1,1,0,0,1,.48.19l.2.11a1.44,1.44,0,0,0,.62.14h0a2.29,2.29,0,0,0,.59-.09,2.67,2.67,0,0,1,.71-.09,1.4,1.4,0,0,1,.63.14,1.47,1.47,0,0,0,.58.12,1.49,1.49,0,0,0,.68-.17l.27-.16a.87.87,0,0,1,.45-.19.57.57,0,0,1,.37.2c.14.14.28.28-.08.79l-.06.09a1.43,1.43,0,0,0-.25.94,1.64,1.64,0,0,0,.09.44,2.29,2.29,0,0,1,.1.71c0,.13,0,.27,0,.41a2,2,0,0,1-.1,1.15,1.44,1.44,0,0,1-.86.52,3.32,3.32,0,0,0-.48.2,3.58,3.58,0,0,0-.32.21A1.88,1.88,0,0,1,59.1,48.29Z" style="fill:#fff"/><path d="M47.45,33.35a.71.71,0,0,1-.5-.24.72.72,0,0,1-.19-.86,2.22,2.22,0,0,0,.09-.59A1.88,1.88,0,0,1,47,31a2,2,0,0,0,0-1.38,1.86,1.86,0,0,1-.12-.69,5.05,5.05,0,0,1,0-.69c0-.18,0-.35,0-.7s0-.52,0-.69a5.62,5.62,0,0,0,0-.69V24.74a3.84,3.84,0,0,0-.06-.74,5.57,5.57,0,0,1-.06-.65,4.17,4.17,0,0,1,0-.74,4.88,4.88,0,0,0,0-.66,1.94,1.94,0,0,1,.22-.77,2.25,2.25,0,0,0,.18-.51.4.4,0,0,0,0-.15,3.64,3.64,0,0,0,0-.48,4.87,4.87,0,0,1,.1-.91,3.5,3.5,0,0,0,.09-.55,3.26,3.26,0,0,1,.18-.88,4.61,4.61,0,0,0,.15-.53,4,4,0,0,1,.29-.87,2.26,2.26,0,0,1,.55-.61,4,4,0,0,0,.46-.48,3.41,3.41,0,0,1,.59-.61c.17-.16.3-.27.42-.4s.23-.27.34-.41a4.38,4.38,0,0,1,.6-.67,3.11,3.11,0,0,0,.4-.41,3,3,0,0,1,.63-.64,2.4,2.4,0,0,1,.75-.27,3.05,3.05,0,0,0,.61-.18,2.83,2.83,0,0,0,.56-.39,2.6,2.6,0,0,1,.69-.46,2.59,2.59,0,0,1,.79-.09,2.69,2.69,0,0,0,.67,0,2.47,2.47,0,0,0,.57-.23,2.4,2.4,0,0,1,.81-.31l.44-.06a7,7,0,0,1,1-.1,4.53,4.53,0,0,1,.89.12l.56.09a7.21,7.21,0,0,1,.92.21l.49.14a2.14,2.14,0,0,1,.7.37,3.71,3.71,0,0,0,.48.3l.11,0c.15.06.32.1.48.15a4.7,4.7,0,0,1,.85.3,8.18,8.18,0,0,1,.94.58l.26.17a1.23,1.23,0,0,0,.4.19l.18,0a2,2,0,0,1,.81.32,11.27,11.27,0,0,1,1,1,3.06,3.06,0,0,1,.45.71,3.69,3.69,0,0,0,.31.54,2.48,2.48,0,0,0,.4.43,2.7,2.7,0,0,1,.59.66,4.37,4.37,0,0,1,.34.87c.07.18.12.35.18.5a10.61,10.61,0,0,1,.4,1.36,10.94,10.94,0,0,1,.3,1.45,2.48,2.48,0,0,1-.08.8A3.36,3.36,0,0,0,71,22a1.91,1.91,0,0,0,.11.7,2.06,2.06,0,0,1,.1.69,2.51,2.51,0,0,1-.09.69,2.46,2.46,0,0,0-.09.69,3.2,3.2,0,0,1-.06.69,3.81,3.81,0,0,0,0,.59,1.37,1.37,0,0,0,.22.79,1.17,1.17,0,0,1,.23.7,2.51,2.51,0,0,1-.09.69,2.46,2.46,0,0,0-.09.69,1.91,1.91,0,0,0,.11.7,1.86,1.86,0,0,1,.12.69,1,1,0,0,1-.19.61,1.41,1.41,0,0,0-.09,1.44.42.42,0,0,1-.09.61c-.27.26-.41.31-.58.31l-.23,0a3.47,3.47,0,0,0-.49,0c-.36,0-.53,0-.71,0l-.71,0a2.24,2.24,0,0,1-.71-.1,2.21,2.21,0,0,0-.71-.1,3.64,3.64,0,0,1-.71-.06,4,4,0,0,0-.71,0,2.21,2.21,0,0,0-.71.1,2,2,0,0,1-.71.11,3,3,0,0,0-.72.07,3.51,3.51,0,0,1-.7.06A1.43,1.43,0,0,1,62,33a1.63,1.63,0,0,0-.52-.15l-.48,0-.41,0a5.85,5.85,0,0,1-.72,0,2.61,2.61,0,0,0-.71.09,2.61,2.61,0,0,1-.71.09c-.35,0-.53,0-.7,0s-.36,0-.72,0a2.53,2.53,0,0,0-.71.1,2.29,2.29,0,0,1-.71.1,3.76,3.76,0,0,0-.71,0,5.13,5.13,0,0,1-.71,0,1.6,1.6,0,0,1-.72-.16l-.21-.07-.15,0a1.34,1.34,0,0,0-.35,0,2.67,2.67,0,0,0-.71.08,3.37,3.37,0,0,1-.71.07,5.62,5.62,0,0,0-.69,0l-.73,0H48.45a2.44,2.44,0,0,0-.63.1A1.33,1.33,0,0,1,47.45,33.35Z" style="fill:#fff"/><path d="M56.26,40.78a1.06,1.06,0,0,1-.7-.24,1.37,1.37,0,0,0-.83-.27h0a3.42,3.42,0,0,0-.57.06,3.84,3.84,0,0,1-.72.06,2,2,0,0,0-.71.11,2.24,2.24,0,0,1-.71.1,1.78,1.78,0,0,1-.72-.13,1.61,1.61,0,0,0-.71-.14,2.22,2.22,0,0,0-.72.11,2,2,0,0,1-.71.11,2.22,2.22,0,0,0-.72.11,2.2,2.2,0,0,1-.71.11,1.28,1.28,0,0,1-.72-.21,1.42,1.42,0,0,0-.67-.2l-.72,0-.76,0a2.51,2.51,0,0,1-1.32-.25,2.67,2.67,0,0,1-1-.92,2.71,2.71,0,0,1-.39-1.36,2.56,2.56,0,0,1,2.74-2.6,1.38,1.38,0,0,0,.6-.13,1.75,1.75,0,0,1,.83-.22,1.1,1.1,0,0,1,.68.21,1.43,1.43,0,0,0,.8.25h0a2.46,2.46,0,0,0,.64-.07,2.82,2.82,0,0,1,.71-.08h.7l.73,0a3.92,3.92,0,0,1,.71.05,5.13,5.13,0,0,0,.71,0,3.08,3.08,0,0,0,.72-.07,3.55,3.55,0,0,1,.71-.06,2.8,2.8,0,0,1,.71.07,3.35,3.35,0,0,0,.72.07c.36,0,.53,0,.71,0s.36,0,.72,0a1.15,1.15,0,0,0,.31,0l.18,0,.22-.07a1.7,1.7,0,0,1,.71-.14,2.75,2.75,0,0,1,.72.08,2.61,2.61,0,0,0,.71.09,3.55,3.55,0,0,1,.71.06,3.58,3.58,0,0,0,.72.07,5,5,0,0,0,.71,0,5.53,5.53,0,0,1,.71,0,6.09,6.09,0,0,1,.72,0l.71,0A1.44,1.44,0,0,0,64,35a1.45,1.45,0,0,1,.78-.22,1.93,1.93,0,0,1,.71.12,2.27,2.27,0,0,0,.72.11c.35,0,.53,0,.71,0a5.59,5.59,0,0,0,.72,0,2.27,2.27,0,0,1,.71.09,2.75,2.75,0,0,0,.72.08,1.57,1.57,0,0,0,.37,0l.13,0,.21-.07a1.48,1.48,0,0,1,.72-.16,6.09,6.09,0,0,1,.72,0,5.53,5.53,0,0,0,.71,0,2,2,0,0,0,.72-.11,2.3,2.3,0,0,1,.72-.1,1.78,1.78,0,0,1,1,.44l.34.23a2.4,2.4,0,0,1,1,1c0,.08.1.17.16.25a2,2,0,0,1,.44,1.06,1.57,1.57,0,0,1-.43.92,3,3,0,0,0-.43.76c-.17.44-.29.71-.55.86a2.49,2.49,0,0,1-1.19.21h-.28a1.93,1.93,0,0,1-.71-.12,2,2,0,0,0-.71-.12,1.34,1.34,0,0,0-.4.06l-.12,0-.2.08a1.43,1.43,0,0,1-.71.16c-.36,0-.53,0-.71,0h-.72a1.27,1.27,0,0,1-.71-.19,1.45,1.45,0,0,0-.46-.14,1.79,1.79,0,0,0-.35,0,1.84,1.84,0,0,0-.61.1,1.83,1.83,0,0,1-.72.12,2.72,2.72,0,0,1-.71-.08,2.72,2.72,0,0,0-.71-.08H63.39a2.24,2.24,0,0,0-.71.1,2.76,2.76,0,0,1-.72.09,2.24,2.24,0,0,1-.71-.1,2.21,2.21,0,0,0-.71-.1H59.11a3.18,3.18,0,0,0-.71.07,3.58,3.58,0,0,1-.72.07,1.58,1.58,0,0,0-.38,0l-.12,0-.21.07A1.43,1.43,0,0,1,56.26,40.78Z" style="fill:#fff"/><path d="M2.17,26.72a.85.85,0,0,0-.44-.17c-.57,0-.86-.82-.86-2.46l0-.87q0-1.38.54-1.38a.7.7,0,0,1,.4.25,1,1,0,0,1,.3.41l.07.09a1,1,0,0,0,.47-.21A1.58,1.58,0,0,1,3.52,22a.89.89,0,0,1,.77.5,2,2,0,0,1,.3,1,4.5,4.5,0,0,1-.27,1.39,4.31,4.31,0,0,1-.75,1.37,1.38,1.38,0,0,1-1.06.57A.78.78,0,0,1,2.17,26.72ZM1.34,16.46c-.16-.11-.24-.22-.24-.31s.19-.37.55-.58A7.47,7.47,0,0,1,2.89,15a3.92,3.92,0,0,1,1-.23c.39,0,.58.13.58.4s-.18.37-.54.59a6.5,6.5,0,0,1-1.21.6,3.4,3.4,0,0,1-1,.26A.7.7,0,0,1,1.34,16.46Zm0-3.29q0-.33.45-.6a3.7,3.7,0,0,1,1-.42A3.92,3.92,0,0,1,3.7,12c.5,0,.75.15.75.47a.39.39,0,0,1-.29.38,8.45,8.45,0,0,1-.93.32,3.17,3.17,0,0,0-.63.21,1.5,1.5,0,0,1-.75.26C1.49,13.64,1.31,13.48,1.31,13.17Zm0,6a.65.65,0,0,1,.14-.49,6.05,6.05,0,0,1,1.36-.63,6.64,6.64,0,0,1,1.45-.47.65.65,0,0,1,.4.11.36.36,0,0,1,.16.33c0,.16-.19.36-.58.61A8.15,8.15,0,0,1,3,19.33a3.11,3.11,0,0,1-1,.31C1.55,19.64,1.34,19.49,1.34,19.19Zm1.21,5.5c.07.18.14.27.22.27s.19-.19.29-.58a3.76,3.76,0,0,0,.15-.8.25.25,0,0,0-.16-.24c-.13,0-.26.12-.39.34a1.25,1.25,0,0,0-.2.58A1.43,1.43,0,0,0,2.55,24.69ZM3.29,11.1a2,2,0,0,1-.36-.88A.41.41,0,0,1,3,9.92a.52.52,0,0,1,.31-.08.87.87,0,0,1,.68.35,1.19,1.19,0,0,1,.28.75,1.36,1.36,0,0,1-.09.48c-.07.17-.16.25-.29.25S3.54,11.48,3.29,11.1Zm9.84,13.81A19.68,19.68,0,0,1,12,20.49a28.05,28.05,0,0,1-.36-3.83A7.91,7.91,0,0,1,11.84,15,11.76,11.76,0,0,0,12,13.33a.69.69,0,0,0-.11-.44.6.6,0,0,0-.43-.12h-.32a.85.85,0,0,0-.55.12.88.88,0,0,0-.2.51,8.53,8.53,0,0,0-.07,1.32l0,1.73a6.7,6.7,0,0,1-.12,1.62,1,1,0,0,0-.09.33,2.46,2.46,0,0,0,.4.7,8.83,8.83,0,0,1,.62,1,1.81,1.81,0,0,1,.22.87.64.64,0,0,1-.25.5.77.77,0,0,1-.55.22.92.92,0,0,1-.52-.21,1,1,0,0,0-.39-.21c-.09,0-.16.07-.19.21a15.17,15.17,0,0,1-.83,1.75,18,18,0,0,1-1.34,2.2c-.46.65-.82,1-1.09,1a.69.69,0,0,1-.37-.15c-.14-.09-.21-.18-.21-.28A4,4,0,0,1,6,24.87c.25-.58.54-1.19.85-1.83A17.11,17.11,0,0,0,8.41,19.4.93.93,0,0,0,8.14,19c-.18-.21-.37-.43-.59-.65s-.58-.59-.75-.79a.92.92,0,0,1-.26-.5.26.26,0,0,1,.14-.22A.6.6,0,0,1,7,16.71a1,1,0,0,1,.43.12,1.71,1.71,0,0,1,.39.21,1,1,0,0,1,.19.14,2.06,2.06,0,0,0,.8.4h0a22.21,22.21,0,0,0,.45-2.27,17.56,17.56,0,0,0,.28-2.23.23.23,0,0,0-.26-.26l-.35,0a4.5,4.5,0,0,1-.56,0c-.6,0-.89-.15-.89-.45A.63.63,0,0,1,7.59,12a4.43,4.43,0,0,1,1.79-.53,13.83,13.83,0,0,1,2.17-.31,6.32,6.32,0,0,1,1.27.07,1.33,1.33,0,0,1,.9,1A5.73,5.73,0,0,1,14,13.9c0,.5,0,1.25-.1,2.25s-.09,1.75-.09,2.25a7.72,7.72,0,0,0,.14,1.66l0-.07a26.6,26.6,0,0,0,.49,2.85c.26,1.26.5,1.89.7,1.91a4,4,0,0,0,.45-1.19c.15-.6.35-1.42.58-2.47a25.81,25.81,0,0,1,.66-2.65,1.19,1.19,0,0,1,.3-.47.7.7,0,0,1,.45-.23.44.44,0,0,1,.36.19.64.64,0,0,1,.15.42A20.26,20.26,0,0,1,17.6,22a21.85,21.85,0,0,1-.94,3.6,2.18,2.18,0,0,1-.62.93,1.39,1.39,0,0,1-.95.36C14.3,26.88,13.64,26.22,13.13,24.91Z" style="fill:#6c6851"/><path d="M.64,49.28A20.17,20.17,0,0,1,2,47.11c.49-.67.84-1,1-1s.28.12.28.37a5,5,0,0,1-.5,1.33c-.34.71-.71,1.41-1.1,2.11a5.74,5.74,0,0,1-.84,1.23.82.82,0,0,1-.46.23.37.37,0,0,1-.34-.17A.81.81,0,0,1,0,50.79,4.36,4.36,0,0,1,.64,49.28ZM9.07,32.46a.27.27,0,0,1,.28.28.36.36,0,0,1-.06.22.48.48,0,0,1-.2.16,22.15,22.15,0,0,0-1.88,1.41c-.76.62-1.15,1-1.16,1.28l.16.12a2.05,2.05,0,0,0,.73-.19,2.25,2.25,0,0,1,.72-.19,1.45,1.45,0,0,1,1.54,1A7.35,7.35,0,0,1,9.54,39a6.53,6.53,0,0,1-.06,1,2.27,2.27,0,0,1-.27.75.35.35,0,0,0-.07.23,3.21,3.21,0,0,0,.12.52A1.44,1.44,0,0,1,9.4,42a3.7,3.7,0,0,1-1.9,1.18A8.32,8.32,0,0,1,5,43.57a.67.67,0,0,1-.6-.4,1.66,1.66,0,0,1-.22-.82,20,20,0,0,1,.35-2.64A22.42,22.42,0,0,1,5.11,37a.76.76,0,0,0,0-.21l0-.1L5,36.7a.82.82,0,0,0-.27.14.71.71,0,0,1-.39.14.69.69,0,0,1-.43-.21.55.55,0,0,1-.25-.4c0-.28.33-.72,1-1.31A17,17,0,0,1,6.87,33.4a4.43,4.43,0,0,1,1.64-.8A1.52,1.52,0,0,1,9.07,32.46ZM4.58,46.18A.39.39,0,0,1,5,46a.55.55,0,0,1,.56.35,5.83,5.83,0,0,0,1.65,2.41,4,4,0,0,0,2.64.8c.23,0,.38-.05.44-.14a1,1,0,0,0,.12-.4.67.67,0,0,1,.08-.35.4.4,0,0,1,.34-.12c.22,0,.4.17.54.5a2.25,2.25,0,0,1,.21.89,1,1,0,0,1-.49.93,2.37,2.37,0,0,1-1.2.29,7.4,7.4,0,0,1-2.21-.29,4.09,4.09,0,0,1-1.72-1.1,4.8,4.8,0,0,1-1-1.46,4,4,0,0,1-.39-1.7A1.08,1.08,0,0,1,4.58,46.18Zm3.22-5.4a3.22,3.22,0,0,0-1.25.29c-.44.2-.67.46-.67.79,0,.15,0,.23.14.23a4.08,4.08,0,0,0,1.09-.55,4.48,4.48,0,0,0,1-.67A.42.42,0,0,0,7.8,40.78Zm-.21-3.66A.7.7,0,0,0,7.24,37a1.19,1.19,0,0,0-.74.27.84.84,0,0,0-.34.67c0,.26.09.4.26.4a3,3,0,0,0,.68-.46l.66-.51A.32.32,0,0,0,7.59,37.12Zm.54,1.67c0-.1-.08-.14-.16-.14a2.47,2.47,0,0,0-1,.5c-.5.34-.75.57-.75.72l0,.14.09.11a1.59,1.59,0,0,0,.56-.23l.32-.17a.88.88,0,0,1,.32-.07A.66.66,0,0,0,8,39.5a.52.52,0,0,0,.18-.43A.87.87,0,0,0,8.13,38.79Zm0,5.08a2.36,2.36,0,0,1,.9.73A8.27,8.27,0,0,1,10,46a2.58,2.58,0,0,1,.42,1.11,1.2,1.2,0,0,1-.17.58.53.53,0,0,1-.46.29c-.23,0-.53-.22-.89-.66a8.32,8.32,0,0,1-1-1.47,3.12,3.12,0,0,1-.44-1.17A.82.82,0,0,1,8.16,43.87Zm3.61.17a1.75,1.75,0,0,1,.35,0l.35.15a19.88,19.88,0,0,1,2.1,1.61,33,33,0,0,1,2.61,2.45c.77.81,1.15,1.4,1.15,1.76a.76.76,0,0,1-.17.48.54.54,0,0,1-.44.2,1.38,1.38,0,0,1-.28,0,58,58,0,0,1-4.9-4.41l-1.08-1-.15-.16a.61.61,0,0,1-.2-.48C11.11,44.23,11.33,44,11.77,44Z" style="fill:#6c6851"/></g></g></svg>