<svg xmlns="http://www.w3.org/2000/svg" width="244.56" height="249.55" viewBox="0 0 244.56 249.55"><title>Notify</title><g id="圖層_2" data-name="圖層 2"><g id="圖層_1-2" data-name="圖層 1"><circle cx="122.28" cy="124.77" r="122.21" style="fill:#ffef75"/><path d="M244.48,124.77A119.88,119.88,0,0,1,236.35,172,122.32,122.32,0,0,1,170,239.93a123.13,123.13,0,0,1-95.4,0A122.29,122.29,0,0,1,8.2,172,120.14,120.14,0,0,1,.07,124.77l.35,6,.63,6c.25,2,.59,3.94.87,5.91s.78,3.91,1.16,5.86a121.08,121.08,0,0,0,7.45,22.57,122.4,122.4,0,0,0,65.91,64.38,121.68,121.68,0,0,0,91.68,0A122.55,122.55,0,0,0,234,171.07a121.15,121.15,0,0,0,7.44-22.58c.38-2,.82-3.9,1.15-5.86s.62-3.94.88-5.91l.63-6Z" style="fill:#edda6e"/><path d="M.07,124.77A120.27,120.27,0,0,1,8.2,77.52,122.32,122.32,0,0,1,74.58,9.62,122.79,122.79,0,0,1,210.11,36.94a121.76,121.76,0,0,1,26.25,40.58,120.08,120.08,0,0,1,8.12,47.25l-.34-6-.63-6c-.26-2-.59-3.94-.88-5.91s-.78-3.91-1.16-5.86A120.08,120.08,0,0,0,234,78.49a122.49,122.49,0,0,0-65.91-64.38,121.68,121.68,0,0,0-91.68,0A122.46,122.46,0,0,0,10.52,78.48a120.42,120.42,0,0,0-7.44,22.58c-.38,2-.83,3.9-1.16,5.86s-.62,3.94-.87,5.91l-.63,6Z" style="fill:#edda6e"/><circle cx="122.28" cy="124.77" r="93.63" style="fill:#fa3"/><path d="M28.64,124.77a93.64,93.64,0,1,1,187.27,0,93.9,93.9,0,0,0-58-86,93.83,93.83,0,0,0-71.22,0,93.93,93.93,0,0,0-58,86Z" style="fill:#a3964b"/><path d="M215.91,124.77a92.47,92.47,0,0,1-6.54,36.08,94.38,94.38,0,0,1-20.19,30.83,93.18,93.18,0,0,1-30.62,20.69,93.59,93.59,0,0,1-72.57,0,93.13,93.13,0,0,1-30.62-20.69,94.54,94.54,0,0,1-20.19-30.83,92.65,92.65,0,0,1-6.54-36.08,94.21,94.21,0,0,0,58.25,85.44,94,94,0,0,0,70.78,0,94.19,94.19,0,0,0,58.24-85.44Z" style="fill:#9b8f48"/><path d="M97.24,5.14A122.39,122.39,0,0,0,3.81,94.68,67.61,67.61,0,1,0,97.24,5.14Z" style="fill:#fff;opacity:0.1"/><path d="M.07,124.77c0,1,0,2.09,0,3.12A104.15,104.15,0,1,0,138.75,3.68,122.24,122.24,0,0,0,.07,124.77Z" style="fill:#fff;opacity:0.1"/><path d="M77.8,72A32.26,32.26,0,0,1,52.66,46.81a.65.65,0,0,0-1.28,0A32.23,32.23,0,0,1,26.24,72a.65.65,0,0,0,0,1.28A32.2,32.2,0,0,1,51.38,98.37a.65.65,0,0,0,1.28,0A32.23,32.23,0,0,1,77.8,73.23.65.65,0,0,0,77.8,72Z" style="fill:#fff"/><path d="M215.58,178.15a21.71,21.71,0,0,1-16.94-16.93.44.44,0,0,0-.86,0,21.7,21.7,0,0,1-16.93,16.93.44.44,0,0,0,0,.86A21.71,21.71,0,0,1,197.78,196a.44.44,0,0,0,.86,0A21.72,21.72,0,0,1,215.58,179,.44.44,0,0,0,215.58,178.15Z" style="fill:#fff"/><g style="opacity:0.77"><path d="M124.56,70a5.37,5.37,0,0,0-5.38,5.38V83A33.17,33.17,0,0,1,130,83V75.38A5.37,5.37,0,0,0,124.56,70Zm0,16.14a32.21,32.21,0,0,0-32.28,32.28v30.49H86.9a7.18,7.18,0,0,0,0,14.35h75.33a7.18,7.18,0,0,0,0-14.35h-5.38V118.42A32.22,32.22,0,0,0,124.56,86.14Zm-7.17,80.71V174a7.18,7.18,0,0,0,14.35,0v-7.17Z" style="fill:#fff"/></g></g></g></svg>