<svg xmlns="http://www.w3.org/2000/svg" xmlns:xlink="http://www.w3.org/1999/xlink" width="431.54" height="594.42" viewBox="0 0 431.54 594.42"><defs><clipPath id="clip-path"><path d="M104.8,454.57c13.77,7.51,28.22,14.11,43.45,18a108.46,108.46,0,0,0,24,3.55c5.4.15,15.57-3.07,20.25-.2-1.13-4.37-3.18-15.62-7-18.39-3-2.21-13-1.24-17.08-2.26-11.83-3-22.77-9-32.22-16.64-13.85-11.14-24.75-25.46-35.11-39.91-4.47-6.24-8.93-12.66-11.33-20-4.1,11.08-8.18,22.38-8.89,34.17s2.36,24.35,10.8,32.62C95.43,449.33,100.12,452,104.8,454.57Z" style="fill:#f2e681"/></clipPath><clipPath id="clip-path-2"><path d="M293,302.58q-4.83.71-9.67,1.29s0,0,0,.06c4.17,52.88,14.56,104.82,20.36,157.49.78,7.09.51,15,2.11,21.91.08.34-.33.44-.53.46l1,0a23.63,23.63,0,0,0,4.49-.6c3.39-.53,6.77-1.15,10.11-1.95,1.89-.44,7.22-1.16,8.36-3,.84-1.33.15-4.55.08-6-.13-2.34-.33-4.68-.56-7-.54-5.34-1.43-10.58-2.47-15.84-2.28-11.43-4.51-22.81-6.53-34.3a920.86,920.86,0,0,0-22.33-96.43,1.35,1.35,0,0,1-.06-.37c-.39,0-1-.14-.71-.61,1.91-2.93,4.89-4.31,5.6-8.12a7.08,7.08,0,0,0-.65-4.7c-.66-1.17-2.12-1.88-2.42-3.17v-.05C297.06,302,295,302.28,293,302.58ZM143.1,311.24c1-.2,0-1.16-.5-1.26-7.35-1.7,5-10.85,6.57-11.72,3-1.59,6.21-2.52,9.28-3.86,20.22,7.82,42.12,11.23,63.81,12.18-.1.12-.1.26.09.38,17.18,11.83,19.05,33.18,19,52.32a575.64,575.64,0,0,1-3.25,60,566.25,566.25,0,0,1-10.23,62.76c-.55,2.46-.94,5.25-2.34,7.41-2.13,3.3-5,3.75-8.69,4a119.39,119.39,0,0,1-13.51,0,133.3,133.3,0,0,1-28.91-4.36,62.25,62.25,0,0,0-2.3-7.25,42.5,42.5,0,0,0-10.3-15.55c-2.41-2.27-3.27-2.55-2.63-6,.38-2.08,1.1-4.17,1.63-6.22q1.6-6.21,3.09-12.46c8.49-35.68,14.64-72.51,16.08-109.21a70,70,0,0,1,20.79-2.17c.39,0,1.06-.7.43-.76-17.38-1.43-33.41,6-49.78,10.51-8.78,2.43-24.11,6.27-24.83-7.35-.26-4.77,2-9,5-12.51C134.39,316.9,138.8,312.06,143.1,311.24Zm37.09-1.11c.35.1,1-.58.55-.72a51.71,51.71,0,0,0-26.1-1.33c-.43.1-.82.86-.14.76A58.83,58.83,0,0,1,180.19,310.13Z" style="fill:#c95a41"/></clipPath><clipPath id="clip-path-3"><path d="M314.82,380.58q3.24,15,6,30.08c.19,1.07.39,2.14.59,3.22,11-2.16,21.87-6.36,32.16-10.84,10.68-4.66,21.61-10,31-16.91a57.16,57.16,0,0,0,18.75-24.55c1.84-4.73,3.4-10.36,3.24-15.49,0-.79-.62-8.06-1.23-8.18s-1.37-1.08-.56-1.36a14.78,14.78,0,0,0,9.67-12.39c1.08-8.82-8.82-21.8-18.77-17.18a9.37,9.37,0,0,1-.4,4.17c-.12.36-1.1.72-1,.16,1.43-6.68-4.31-11-10.54-11.38-5.18-.28-8.19,1.62-12.25,4a7.92,7.92,0,0,1,1.45,8.23c-.19.51-1.56.59-1.37,0,4.44-14.23-26-17.38-27.72-1.7a11.52,11.52,0,0,1,3.1,4.45c.18.48-1,.84-1.21.37-5.29-11.24-19.4-7.3-24.25,2.11a19.57,19.57,0,0,0,1,20c1.14,1.7,3.6,3.15,4.52,4.86a16.68,16.68,0,0,1,.28,3,32.84,32.84,0,0,0,1.2,5.46c2.2,7,6.54,12,11.91,16.79.79.7-.3,1.24-1,.84a21.74,21.74,0,0,1-3.9-3c-1.94,3.37-5.79,6-8.86,8.22A61.14,61.14,0,0,1,314.82,380.58Zm-111,115.15c4.51.18,9,.16,13.53,0,3.65-.13,6.24-.28,8.85-3.22,4.54-5.11,4.86-14.77,6.14-21.19Q234.94,458,237,444.46q3.91-26.18,5.43-52.62c1-17.31,2.38-35.55-.18-52.78-1.88-12.57-7.22-25.36-18.29-32.41q6.14.24,12.23.24a386.8,386.8,0,0,0,45.48-2.82c1.56,32,6.78,63.81,11.64,95.45,2.15,14,4.27,28,6.11,42.06.95,7.32,1.84,14.64,2.62,22q.63,5.9,1.17,11.78c.22,2.48-.33,7.37.83,9.53a2.26,2.26,0,0,0,.27.36c-1.29,8.11-5.48,15.21-8.9,22.55q-5.33,11.44-10.73,22.84a175.19,175.19,0,0,0-8.8,21.6A98.77,98.77,0,0,0,273,563.06c-.62,3.12-.4,8.43-2.25,11-5.55,7.67-20.68,3.55-27-.81-4.86-3.32-4.8-10.6-5.44-16-1.4-11.85-2.13-24.33-.57-36.26q2.15-6.33,4.57-12.57c1.62-4.13,3.29-8.26,4.61-12.51.51-1.67.81-3.46,1.37-5.12,1-2.8,1.48-2.94,4.34-3,7.71-.12,15.83-1.38,22.83-4.71.87-.41-.43-1-.91-.87-9,2.34-17.51,4.17-26.85,3.84a.59.59,0,0,0-.61.43c-1.43,8.24-4.64,15.85-7.62,23.62s-5.6,15.64-7.83,23.65q-3.24,11.58-5.42,23.44-1.05,5.69-1.84,11.43c-.72,5.19-2.53,8.22-7.4,10.17-7.94,3.19-16.7.56-23.23-4.45-3-2.32-6.38-5.24-8.21-8.61s-2.45-7.24-3.35-10.8c-4-15.59-5.88-31.53-6.8-47.57a.27.27,0,0,0-.15-.24,38.75,38.75,0,0,0-.26-15.64A143.7,143.7,0,0,0,203.78,495.73ZM89.37,454c1.93-1.05,5.16-1.66,6.71-3.15,1-1,1.43-5.44,1.82-6.9.55-2,1.11-4,1.68-6q6.94-24.35,16.3-47.91,4.56-11.54,9.69-22.84c3.59-7.91,7.86-15.58,11.24-23.58,9.26.45,19.46-4,28-6.79,4.65-1.51,9.3-3,14-4.16-4.16,44.2-10.57,87.59-22.28,130.51a.62.62,0,0,0,.25.65c11.83,8.66,17.5,23.53,17.19,37.93-.18,8.19-4,15.53-11.82,18.79-9.5,4-19.47-1.32-23.48-10.31-.28-.64-1.91-.59-1.56.28a19.92,19.92,0,0,0,6.6,8.47c-5.68,6.85-15.17,12.18-24.05,7.66-7.06-3.59-9.79-11.63-7.4-18.88.24-.74-1.45-1.68-1.81-.9-2.14,4.63-1.28,9.85,1.3,14.1-7.71,4.94-17.59,4.44-24.34-1.92-4.86-4.6-9.46-15.32-4.14-21.29.48-.55-.39-.88-.84-.89-4.19,0-3.49,7-3.08,9.84A23.56,23.56,0,0,0,80,510c-8.94-1.76-13.72-10.51-13.9-19.31-.17-8,3-16.06,7.53-22.59A46.17,46.17,0,0,1,89.37,454ZM28.88,141.21c8.19-14.65,16.74-29.05,26.09-43,16.75-25,35.28-49.9,59.69-67.93C141,10.86,172.93,2.2,205.34,1.32A299,299,0,0,1,254.9,4.59c14.67,2.06,29,5.32,42.74,10.83a169.46,169.46,0,0,1,70.08,52.32c9.86,12.57,16.93,26.86,23.95,41.12a323.73,323.73,0,0,0,22.25,38.79c8.78,13,17.67,28,11.42,44-4.94,12.61-14.87,21.74-28.23,24.26A78,78,0,0,0,388,185.32c-2.45-4.56-5.95-8.58-7.89-13.41-2.22-5.55-1.89-11.55-2.21-17.4a164.12,164.12,0,0,0-5.68-32.83,190.07,190.07,0,0,0-27.17-59.3c-.3-.45-1.6-.07-1.26.45,13.45,20.52,23.43,42.9,28.69,66.91q1.8,8.16,2.88,16.47c.78,6,.66,12,1.3,18,1.17,10.88,9.24,19,13.16,28.91,8,20.35,7.88,42.16-4.46,60.68a96.73,96.73,0,0,1-43.92,35.44c-21,8.28-43.82,12.06-66.17,14.3a373.34,373.34,0,0,1-48.91,2.05c-22.62-.71-46.08-3.85-67.39-12.15a2.09,2.09,0,0,0-1.08-.42,127.38,127.38,0,0,1-15.69-7.49C116.12,270.8,100.45,246,98,216.12a.31.31,0,0,0-.14-.21,168.56,168.56,0,0,0,12.94-33.37c10.28-36.52,9.45-74.95,7.62-112.48,0-.61-1.46-.47-1.43.15.39,8.67.74,17.35.89,26,.63,33.7-1.52,68.06-13.31,100-4.45,12-10.12,26.43-19.67,35.5-9.32,8.85-23.75,11.18-36.12,9.91-13.14-1.35-26.17-7.45-34.55-17.84C5.4,212.81,4.38,199.65,8,186.44,12.34,170.33,20.79,155.68,28.88,141.21Z" style="fill:#f2e681"/></clipPath><clipPath id="clip-path-4"><ellipse cx="338.38" cy="157.95" rx="29.15" ry="37.81" style="fill:#655c2f"/></clipPath><clipPath id="clip-path-5"><ellipse cx="191.03" cy="158.95" rx="34.49" ry="38.76" style="fill:#655c2f"/></clipPath><clipPath id="clip-path-6"><path d="M232.86,326.28c-.06,1.08-.14,2.15-.1,2.94.22,3.18.63,6.34.81,9.51s.28,6.24.26,9.37c0,.55,0,1.21.06,1.89H234c18.78,2.16,38.33,2.72,56.26-3.8-1.31-4.8-1.68-10.1-2.37-14.9-.39-2.84-.81-5.67-1.24-8.51l0-.17C270.23,329,250.09,330.14,232.86,326.28Z" style="fill:#706d5c"/></clipPath><clipPath id="clip-path-7"><path d="M288.92,318.3c-1.5,1.19-.6,4.25-.33,5.91.43,2.64.75,5.32,1.14,8,.82,5.57,1.23,11.71,3.28,17a.62.62,0,0,1,0,.32,4.18,4.18,0,0,0,4.46-.11c1.56-1.15,1.8-2.76,1.79-4.59a46.65,46.65,0,0,0-1.12-7.42c-.52-3-1.11-5.9-1.8-8.82-.35-1.47-.75-2.92-1.12-4.37-.25-1-.44-3.75-1-4.41C293.35,318.62,290.35,317.2,288.92,318.3Zm-64.23,3.86a7.66,7.66,0,0,1,3.23-.32c2.52.26,2.69.65,3.14,2.72,1.27,5.75,1.4,12.41,1.63,18.31.11,2.86.21,5.75.07,8.61s-1.17,3.64-3.92,4.33c-1.52.37-4.16.51-5.45-.71a.52.52,0,0,0,0-.4c-2.17-7.22-1-16.18-1-23.63C222.46,328.07,221.25,323.55,224.69,322.16Z" style="fill:#bcb9a7"/></clipPath></defs><title>player</title><g style="isolation:isolate"><g id="圖層_2" data-name="圖層 2"><g id="圖層_1-2" data-name="圖層 1"><path d="M104.8,454.57c13.77,7.51,28.22,14.11,43.45,18a108.46,108.46,0,0,0,24,3.55c5.4.15,15.57-3.07,20.25-.2-1.13-4.37-3.18-15.62-7-18.39-3-2.21-13-1.24-17.08-2.26-11.83-3-22.77-9-32.22-16.64-13.85-11.14-24.75-25.46-35.11-39.91-4.47-6.24-8.93-12.66-11.33-20-4.1,11.08-8.18,22.38-8.89,34.17s2.36,24.35,10.8,32.62C95.43,449.33,100.12,452,104.8,454.57Z" style="fill:#f2e681"/><g style="clip-path:url(#clip-path)"><path d="M73.06,420.42a3.14,3.14,0,0,1,1.54-2.24C72,405,74.55,390.43,78,377.76a4,4,0,0,1,3.27-2.65l2.17-.43a2.48,2.48,0,0,1,2.49,1.11A9.34,9.34,0,0,1,87,379.53c2-.64,4.44.12,4.13,2.61-1.18,9.43-2.64,18.8-3.53,28.26-.45,4.68-.71,9.37-.82,14.08,0,1,0,2,.08,3.09,2.82,3.85,5,8.41,7.93,12.14,1.27,1.58,2.61,3.08,4,4.56,1.25-4.09,3.13-8.11,4.48-11.48a190.35,190.35,0,0,1,10.53-21.7c1.87-3.34,8.34-1.68,6.2,2.41-1.7,3.24-3.28,6.56-4.79,9.91,2.26-2.15,7.15-1.06,5.48,2.63-.11.23-.21.47-.32.71a8,8,0,0,1,2.51,1.71l.39.06c.11-.6.21-1.21.31-1.81,1.14-6.68,10.7-2.61,10.81,2.75l.06,3a8.51,8.51,0,0,1,2.91,2.84,5.94,5.94,0,0,1,3,2.28c.24.09.48.2.71.31a7.25,7.25,0,0,1,7.78,2.88c.43.72.84,1.44,1.25,2.17a5.25,5.25,0,0,1,6.25,1.7l.57.73c1.63-1.94,5.38-1.85,7.7.07,1.74-1.71,5.79-1.66,7.55.12a59.19,59.19,0,0,1,6,7.22,2.36,2.36,0,0,1,1.79.93A132,132,0,0,1,198,486.1c2,5.1-5.83,6-8.36,2.88a63.39,63.39,0,0,1-4.33-6.22c.47,4.83-6.52,5.22-9.3,1.83-1.79,1.89-5.51,1.45-7.65-.47-1.67,3.41-7.54,3.51-9.29-.77q-1.11-2.7-2.26-5.37c0,.33.07.65.1,1,.65,7.4-8.91,5.83-10.49.08-.16-.6-.34-1.21-.51-1.81-2.37,1.39-6.25.24-8-2.56-3.11,1.1-7.77-1.36-8.14-5.63a8.34,8.34,0,0,1-2.72-1.28,8.62,8.62,0,0,1-2,2.23c-3.4,2.55-8.43.09-9.31-3.85-.2,0-.4-.1-.6-.16-2.38,2.12-6.91.89-8.65-2-.16.32-.31.64-.49.95-3.27,5.55-11.22-.43-7.88-3.74a37.21,37.21,0,0,0,2.12-4.18A1.73,1.73,0,0,1,98,455.86a41.65,41.65,0,0,1-14.64-12.22A58.17,58.17,0,0,1,79.62,438a2.55,2.55,0,0,1-1.31-1.35,18.19,18.19,0,0,1-.85-2.69c-.34-.69-.69-1.39-1-2.09C74.87,428.47,72.39,424.26,73.06,420.42Z" style="fill:#d8a449"/></g><path d="M105.25,454.16c15.3,8.27,31.33,15.52,48.44,19.07,8.37,1.74,16.7,2.66,25.18,1.48,4.48-.62,9.5-1.59,13.72.54l-1.07.54c-1.24-5-1.91-10.87-4.67-15.29-3.06-4.89-10.33-3.46-15.39-3.89-12-1-24.35-8.51-33.73-15.65C127,432.8,118,422.65,109.82,412c-7.9-10.23-16.72-20.93-21-33.27l1.91.61c-4.89,13.19-9.94,27-8.82,41.35a40.15,40.15,0,0,0,6.67,19.9c4.23,6,10.5,9.53,16.61,13.36.81.51.64,1.8-.45,1.3-12.76-5.86-21.49-15.8-24.08-29.78-3-16.26,2.57-32.21,8.14-47.27.43-1.16,1.66-.1,1.91.61,4.9,14,15.84,26.7,25.15,38s20.09,22.07,33,29.5c6.55,3.79,14.51,7.73,22.16,8.43,4.27.39,9.19-.28,13.26,1.34,6.79,2.69,7.66,13.88,9.18,20,.2.81-.94.6-1.31.41-5.45-2.76-12.93.2-18.7.34-8.39.2-17.15-1.57-25.23-3.68-15.38-4-29.88-10.67-43.81-18.23C103.41,454.48,104.6,453.81,105.25,454.16Z" style="fill:#3f3027"/><path d="M293,302.58q-4.83.71-9.67,1.29s0,0,0,.06c4.17,52.88,14.56,104.82,20.36,157.49.78,7.09.51,15,2.11,21.91.08.34-.33.44-.53.46l1,0a23.63,23.63,0,0,0,4.49-.6c3.39-.53,6.77-1.15,10.11-1.95,1.89-.44,7.22-1.16,8.36-3,.84-1.33.15-4.55.08-6-.13-2.34-.33-4.68-.56-7-.54-5.34-1.43-10.58-2.47-15.84-2.28-11.43-4.51-22.81-6.53-34.3a920.86,920.86,0,0,0-22.33-96.43,1.35,1.35,0,0,1-.06-.37c-.39,0-1-.14-.71-.61,1.91-2.93,4.89-4.31,5.6-8.12a7.08,7.08,0,0,0-.65-4.7c-.66-1.17-2.12-1.88-2.42-3.17v-.05C297.06,302,295,302.28,293,302.58ZM143.1,311.24c1-.2,0-1.16-.5-1.26-7.35-1.7,5-10.85,6.57-11.72,3-1.59,6.21-2.52,9.28-3.86,20.22,7.82,42.12,11.23,63.81,12.18-.1.12-.1.26.09.38,17.18,11.83,19.05,33.18,19,52.32a575.64,575.64,0,0,1-3.25,60,566.25,566.25,0,0,1-10.23,62.76c-.55,2.46-.94,5.25-2.34,7.41-2.13,3.3-5,3.75-8.69,4a119.39,119.39,0,0,1-13.51,0,133.3,133.3,0,0,1-28.91-4.36,62.25,62.25,0,0,0-2.3-7.25,42.5,42.5,0,0,0-10.3-15.55c-2.41-2.27-3.27-2.55-2.63-6,.38-2.08,1.1-4.17,1.63-6.22q1.6-6.21,3.09-12.46c8.49-35.68,14.64-72.51,16.08-109.21a70,70,0,0,1,20.79-2.17c.39,0,1.06-.7.43-.76-17.38-1.43-33.41,6-49.78,10.51-8.78,2.43-24.11,6.27-24.83-7.35-.26-4.77,2-9,5-12.51C134.39,316.9,138.8,312.06,143.1,311.24Zm37.09-1.11c.35.1,1-.58.55-.72a51.71,51.71,0,0,0-26.1-1.33c-.43.1-.82.86-.14.76A58.83,58.83,0,0,1,180.19,310.13Z" style="fill:#c95a41"/><g style="clip-path:url(#clip-path-2)"><path d="M272.46,308.38a11.44,11.44,0,0,1,4.56-2.81l0-.15c.21-.73,3.3-3.21,3.43-2.59-.14-.66,5.58-1.76,6.36-2a37.64,37.64,0,0,0,6.1-2.68,4.08,4.08,0,0,1,4.07.28,16.17,16.17,0,0,0,4.18-3.19c2.05-2.31,7-1.58,5.55,2.17-2.1,5.53-8.33,8.39-13.24,11-5.88,3.14-12.73,6.27-19.45,4.8A2.92,2.92,0,0,1,272.46,308.38Z" style="fill:#b14432"/><path d="M144.61,306.49c5.53-2.3,11-2.63,16.48-2.25-6.26-2.47-11.76-6.23-15.13-12.34-2.65-4.8,4.88-7,7.87-4.16,4.87,4.65,9,7.93,15.59,9.88a151.3,151.3,0,0,0,17.21,3.54,12.87,12.87,0,0,1-1.2-1.14c-1.9-2.09.84-5.56,3.41-4.86s4.88,1.33,7.29,2c7.35.69,14.37,2.74,21.85,2.86,1.59,0,2.34.76,2.5,1.69a66.27,66.27,0,0,1,7,1.76c3.3,1,2.63,3.85.59,5.33a18,18,0,0,1,4.19,1.88c2.06,1.32.52,4.25-1.54,4.59-7.26,1.2-15.73-1.22-22.93-2.29-8.24-1.22-16.48-2.4-24.71-3.67-3.47-.53-7.18-1.09-10.9-1.86-4.55.33-9.09.77-13.65,1a33.6,33.6,0,0,0-10.1,1.82c-1.78.68-3,1.6-5,1.3a1.26,1.26,0,0,1-1.12-.93l-.15-.6C141.83,308.44,143.3,307,144.61,306.49Z" style="fill:#b14432"/><path d="M120.36,322.87c1.08-2,4.37-1.85,6-1.05,2.38,1.13,2.65,2.66,2.76,4.94-.06-.81-.13,1.79-.13,2a8.64,8.64,0,0,0,.94,4.35c1.7,3.08,5,3.55,8.32,3.36,6.44-.37,12.87-2.3,18.94-4.34,13.15-4.44,26.4-6.68,40.11-3.27a7.4,7.4,0,0,1,4.24-.09c1.1.37.62,2.35-.29,2.63s-1.79.6-2.67.94a1.62,1.62,0,0,1-1.24.67H197c-3.23,1.42-6.36,3.16-9.5,4.73-.45,1.25-.87,2.5-1.24,3.78a18,18,0,0,1-.84,2.54c1.26,9.11.51,18.68-.07,27.78q-1.11,17.6-3.52,35.08-.93,6.79-2.08,13.54c.29,4.84-1.39,10-2.12,14.68a128,128,0,0,0-1.73,19.14,84.25,84.25,0,0,0,4.37,27.19c2.62,1.47,5.29,2.85,8,4.06,12,5.35,25,6.64,37.16.65a2.93,2.93,0,0,1,1.16-.33l0,0c.67-.92,2.06-1.31,2.5.06,1.43,4.43-3.14,8.53-6.66,10.5-5.23,2.92-11.42,2.79-17.23,2.66a108.75,108.75,0,0,1-18.56-1.59,45.16,45.16,0,0,1-9.85-3.05c-3.67-1.66-6.37-3.51-10.5-3.89-3-.27-2.36-3.95-.07-4.88a8.78,8.78,0,0,1,1.91-.52c-.57-.77-1.12-1.55-1.65-2.35a29.4,29.4,0,0,1-5.38-4.43c0-.06-.1-.13-.16-.19a2.61,2.61,0,0,1-1.77-1.4c-1.53,1.54-5.4,1.75-5.61-1-.49-6.19,1.4-11.62,3-17.54q2.22-8.43,4.36-16.88c2.76-11,5.37-22,7.68-33.05,2.23-10.74,4.18-21.55,5.69-32.42.91-6.55,1.73-13.12,2.35-19.7.41-4.32.32-9,1.18-13.35a9.12,9.12,0,0,1-3,.54c-1.24,0-1.53-1.68-.83-2.52a10.29,10.29,0,0,1,1.32-1.32,1.83,1.83,0,0,1-.83-.82,2.07,2.07,0,0,1-.54-1.69c.16-2.12,2.95-3.45,4.9-4.05a42.56,42.56,0,0,0-10.21,1.77c-8.29,2.61-15.9,6.47-24.47,8.33-6.92,1.5-14.36,1.85-19.87-3.35C119.9,335.65,117.4,328.39,120.36,322.87Z" style="fill:#b14432"/><path d="M129.17,326.76c0,.06,0,.13,0,.22C129.18,326.9,129.17,326.84,129.17,326.76Z" style="fill:#b14432"/><path d="M294.88,318.12c.69-.44,1.41-.82,2.08-1.3a25.6,25.6,0,0,0,5.26-5c1.45-1.91,3.36-.06,2.53,1.84a18.56,18.56,0,0,1-4.64,6.85c-1.53,1.38-4.72,4.3-6.94,2.58C291.3,321.67,293.58,319,294.88,318.12Z" style="fill:#b14432"/><path d="M221.48,324.55c.47-1.64,3.15-2.67,3.52-.43.83,5,.55,10.14.57,15.22,0,2.11-.07,4.22,0,6.33,0,.45.69,4.52.93,6.37a5.14,5.14,0,0,1,1.11,0c-.62-.3-.83-.41.38.07a4.26,4.26,0,0,1,1,.35l.26-.15a6.18,6.18,0,0,1,2.16-1.08c3.33-1.31,7.2-1.32,10.72-1.19a2.41,2.41,0,0,1,2.5,3.14l.76-.08a2.32,2.32,0,0,1,2.74,2.09,2.79,2.79,0,0,1-.52,1.72,20.91,20.91,0,0,1-2,1.48c-.07.58-5.19,1-5.86,1.07a22.89,22.89,0,0,1-4.82-.23,4.72,4.72,0,0,1-1.64-.57c-.34.17-.69.35-1.07.52a8,8,0,0,1-8.11-.81c-4.72-1.43-4.81-7.72-4.88-11.9C219.07,339.21,219.44,331.55,221.48,324.55Z" style="fill:#b14432"/><path d="M283.62,321.18a22.46,22.46,0,0,1,4.78-3.8,3,3,0,0,1,2.14-.13l.59.3a1.93,1.93,0,0,1,.73,1.06,3.66,3.66,0,0,1-.2,2.2c-.1.21-.2.42-.31.63-.34.71-.66,1.45-1,2.15a4.39,4.39,0,0,1-5.35,2,2.85,2.85,0,0,1-1.85-1.67A2.63,2.63,0,0,1,283.62,321.18Z" style="fill:#b14432"/><path d="M282.14,349.53a3.65,3.65,0,0,1,2.63-2.91c2.42-.74,5.17-2,7.67-1,2.7,1.11,2,3.3,4.89,1.25,1.47-1,3.45-.32,3.34,1.6-.25,4.17-3.56,5.81-7.06,5.68-.32,0-.63-.05-.94-.09,3.42,20.43,4.84,41.28,7.56,61.81,1.48,11.19,3.13,22.36,5,33.49,1.77,10.46,4.73,20.87,3.81,31.49a2.15,2.15,0,0,1-.2.73,22.4,22.4,0,0,0,4.33.74,30,30,0,0,0,7.75-1.17,89,89,0,0,0,12.73-4.66c1.84-.8,1.75,2.35.7,3.12-7.52,5.56-18.77,11-28.26,7.41a2.47,2.47,0,0,1-1.89-2.1l-.07-.88a2.34,2.34,0,0,1,.36-1.29,2.6,2.6,0,0,1-.22-.65c-3.68-21.88-7.4-43.77-10-65.84-2.45-20.81-4.95-41.88-5.45-62.85l-.35.13a6.94,6.94,0,0,1-3.91-.17,3,3,0,0,1-2.51-3Z" style="fill:#b14432"/></g><path d="M314.82,380.58q3.24,15,6,30.08c.19,1.07.39,2.14.59,3.22,11-2.16,21.87-6.36,32.16-10.84,10.68-4.66,21.61-10,31-16.91a57.16,57.16,0,0,0,18.75-24.55c1.84-4.73,3.4-10.36,3.24-15.49,0-.79-.62-8.06-1.23-8.18s-1.37-1.08-.56-1.36a14.78,14.78,0,0,0,9.67-12.39c1.08-8.82-8.82-21.8-18.77-17.18a9.37,9.37,0,0,1-.4,4.17c-.12.36-1.1.72-1,.16,1.43-6.68-4.31-11-10.54-11.38-5.18-.28-8.19,1.62-12.25,4a7.92,7.92,0,0,1,1.45,8.23c-.19.51-1.56.59-1.37,0,4.44-14.23-26-17.38-27.72-1.7a11.52,11.52,0,0,1,3.1,4.45c.18.48-1,.84-1.21.37-5.29-11.24-19.4-7.3-24.25,2.11a19.57,19.57,0,0,0,1,20c1.14,1.7,3.6,3.15,4.52,4.86a16.68,16.68,0,0,1,.28,3,32.84,32.84,0,0,0,1.2,5.46c2.2,7,6.54,12,11.91,16.79.79.7-.3,1.24-1,.84a21.74,21.74,0,0,1-3.9-3c-1.94,3.37-5.79,6-8.86,8.22A61.14,61.14,0,0,1,314.82,380.58Zm-111,115.15c4.51.18,9,.16,13.53,0,3.65-.13,6.24-.28,8.85-3.22,4.54-5.11,4.86-14.77,6.14-21.19Q234.94,458,237,444.46q3.91-26.18,5.43-52.62c1-17.31,2.38-35.55-.18-52.78-1.88-12.57-7.22-25.36-18.29-32.41q6.14.24,12.23.24a386.8,386.8,0,0,0,45.48-2.82c1.56,32,6.78,63.81,11.64,95.45,2.15,14,4.27,28,6.11,42.06.95,7.32,1.84,14.64,2.62,22q.63,5.9,1.17,11.78c.22,2.48-.33,7.37.83,9.53a2.26,2.26,0,0,0,.27.36c-1.29,8.11-5.48,15.21-8.9,22.55q-5.33,11.44-10.73,22.84a175.19,175.19,0,0,0-8.8,21.6A98.77,98.77,0,0,0,273,563.06c-.62,3.12-.4,8.43-2.25,11-5.55,7.67-20.68,3.55-27-.81-4.86-3.32-4.8-10.6-5.44-16-1.4-11.85-2.13-24.33-.57-36.26q2.15-6.33,4.57-12.57c1.62-4.13,3.29-8.26,4.61-12.51.51-1.67.81-3.46,1.37-5.12,1-2.8,1.48-2.94,4.34-3,7.71-.12,15.83-1.38,22.83-4.71.87-.41-.43-1-.91-.87-9,2.34-17.51,4.17-26.85,3.84a.59.59,0,0,0-.61.43c-1.43,8.24-4.64,15.85-7.62,23.62s-5.6,15.64-7.83,23.65q-3.24,11.58-5.42,23.44-1.05,5.69-1.84,11.43c-.72,5.19-2.53,8.22-7.4,10.17-7.94,3.19-16.7.56-23.23-4.45-3-2.32-6.38-5.24-8.21-8.61s-2.45-7.24-3.35-10.8c-4-15.59-5.88-31.53-6.8-47.57a.27.27,0,0,0-.15-.24,38.75,38.75,0,0,0-.26-15.64A143.7,143.7,0,0,0,203.78,495.73ZM89.37,454c1.93-1.05,5.16-1.66,6.71-3.15,1-1,1.43-5.44,1.82-6.9.55-2,1.11-4,1.68-6q6.94-24.35,16.3-47.91,4.56-11.54,9.69-22.84c3.59-7.91,7.86-15.58,11.24-23.58,9.26.45,19.46-4,28-6.79,4.65-1.51,9.3-3,14-4.16-4.16,44.2-10.57,87.59-22.28,130.51a.62.62,0,0,0,.25.65c11.83,8.66,17.5,23.53,17.19,37.93-.18,8.19-4,15.53-11.82,18.79-9.5,4-19.47-1.32-23.48-10.31-.28-.64-1.91-.59-1.56.28a19.92,19.92,0,0,0,6.6,8.47c-5.68,6.85-15.17,12.18-24.05,7.66-7.06-3.59-9.79-11.63-7.4-18.88.24-.74-1.45-1.68-1.81-.9-2.14,4.63-1.28,9.85,1.3,14.1-7.71,4.94-17.59,4.44-24.34-1.92-4.86-4.6-9.46-15.32-4.14-21.29.48-.55-.39-.88-.84-.89-4.19,0-3.49,7-3.08,9.84A23.56,23.56,0,0,0,80,510c-8.94-1.76-13.72-10.51-13.9-19.31-.17-8,3-16.06,7.53-22.59A46.17,46.17,0,0,1,89.37,454ZM28.88,141.21c8.19-14.65,16.74-29.05,26.09-43,16.75-25,35.28-49.9,59.69-67.93C141,10.86,172.93,2.2,205.34,1.32A299,299,0,0,1,254.9,4.59c14.67,2.06,29,5.32,42.74,10.83a169.46,169.46,0,0,1,70.08,52.32c9.86,12.57,16.93,26.86,23.95,41.12a323.73,323.73,0,0,0,22.25,38.79c8.78,13,17.67,28,11.42,44-4.94,12.61-14.87,21.74-28.23,24.26A78,78,0,0,0,388,185.32c-2.45-4.56-5.95-8.58-7.89-13.41-2.22-5.55-1.89-11.55-2.21-17.4a164.12,164.12,0,0,0-5.68-32.83,190.07,190.07,0,0,0-27.17-59.3c-.3-.45-1.6-.07-1.26.45,13.45,20.52,23.43,42.9,28.69,66.91q1.8,8.16,2.88,16.47c.78,6,.66,12,1.3,18,1.17,10.88,9.24,19,13.16,28.91,8,20.35,7.88,42.16-4.46,60.68a96.73,96.73,0,0,1-43.92,35.44c-21,8.28-43.82,12.06-66.17,14.3a373.34,373.34,0,0,1-48.91,2.05c-22.62-.71-46.08-3.85-67.39-12.15a2.09,2.09,0,0,0-1.08-.42,127.38,127.38,0,0,1-15.69-7.49C116.12,270.8,100.45,246,98,216.12a.31.31,0,0,0-.14-.21,168.56,168.56,0,0,0,12.94-33.37c10.28-36.52,9.45-74.95,7.62-112.48,0-.61-1.46-.47-1.43.15.39,8.67.74,17.35.89,26,.63,33.7-1.52,68.06-13.31,100-4.45,12-10.12,26.43-19.67,35.5-9.32,8.85-23.75,11.18-36.12,9.91-13.14-1.35-26.17-7.45-34.55-17.84C5.4,212.81,4.38,199.65,8,186.44,12.34,170.33,20.79,155.68,28.88,141.21Z" style="fill:#f2e681"/><g style="clip-path:url(#clip-path-3)"><path d="M236.75,527.42a1,1,0,0,1-.21-.6l0,.14a1.85,1.85,0,0,1-.56-1.53,14.61,14.61,0,0,1,2-5.13c.35-.94.75-1.87,1.15-2.79A121.11,121.11,0,0,1,244.62,502c0-.24,0-.49-.07-.73a7.34,7.34,0,0,1,.91-3.82c.3-.73.57-1.47.83-2.21l-.06-.06c.09-.17.16-.35.25-.52s.18-.55.27-.83a3.54,3.54,0,0,1,.51-1,21,21,0,0,0,1.36-4.78,3.23,3.23,0,0,0,0-.53,2.73,2.73,0,0,1,.42-.48,23.76,23.76,0,0,0,3.52.16c2.06,0,4.36.13,6.31-.65a5.41,5.41,0,0,0,1.35-.82,1.15,1.15,0,0,1,1.12.86c1.12-.45,2.23-.93,3.33-1.42a2.45,2.45,0,0,0,.76.28c3,.62,6.15-.62,8.94-1.8-.56.24-1.32,1.62-1.72,2.1s-1,1.21-1.59,1.78a37.85,37.85,0,0,1-3.89,3.49c-3.14,2.44-6.63,4-10.12,5.8a4.77,4.77,0,0,1-1.53.49,129.76,129.76,0,0,0-5.29,40.23c.16,6.7.38,13.42.8,20.11.29,4.62.57,12.43,4.29,15.86,4.56,4.21,12.4,1.36,17-1.22,2.58-1.46,3.5,2.45,1.5,3.82a34.92,34.92,0,0,1-9.56,4.67,3.87,3.87,0,0,1-3.48,1.38l-1.59-.31A22.16,22.16,0,0,1,254,582c.14.19-.38.2-1.57,0a5.84,5.84,0,0,1-.6-.15c-1.34,2.92-7.76,3.19-9-.7-.43-1.36-.81-2.76-1.17-4.18l-.2-.21a4.69,4.69,0,0,1-1.59-2,3.49,3.49,0,0,0,.37.56,13.44,13.44,0,0,1-.64-1.2,36.47,36.47,0,0,1-2.66-8.23,24.23,24.23,0,0,1,.85-13.6,2.32,2.32,0,0,1,.32-.59,65,65,0,0,1-2.4-8.85C234.65,537.64,235.67,532.55,236.75,527.42Z" style="fill:#d8a449"/><path d="M240.85,254.5a3.3,3.3,0,0,0,.45-.26c0,.1.09.2.14.3,0,4.16,5.29,8.72,8.45,10.84a26,26,0,0,0,15.71,4.25,21.16,21.16,0,0,0,17.32-11.43,25.81,25.81,0,0,0,3-10.22c.17-2.27,1.15-9.54-2.27-10a11.88,11.88,0,0,1-1.46-.06,2.94,2.94,0,0,1-1.17-.75c-4.55-4.28-6.51-10.84-1.19-15.38,1.68-1.43,4.74-1,6.24.46a3.25,3.25,0,0,1-.31,5.06,14,14,0,0,1,.1,2,6,6,0,0,0,2,1.36c3.34,1.41,7.46.06,11-1.22l.22-.21c1.56-1.47,5.07-.74,3.77,1.9a15.53,15.53,0,0,1-11.89,8.34c0,.05,0,.09,0,.14,1.83,9.42,1.29,20.27,11.26,25.42a14.84,14.84,0,0,0,7,1.39,17,17,0,0,0,6.8-1.34,9.92,9.92,0,0,0,5-4.68c-2.79,8.94-14.19,12.32-22.41,9.5-4.5-1.54-8.36-5.06-11.13-9.41-5.81,10-23,16.75-34.06,12.9a13.76,13.76,0,0,1-2-.88,18.79,18.79,0,0,1-6.15-5.72c-1.24-1.7-4.6-5.6-4.56-7.73C240.69,257.61,240.8,256.06,240.85,254.5Z" style="fill:#d8a449"/><path d="M354.79,85.23q-2.62-6.6-5.41-13.14-2-4.78-4.39-9.42c1.1,2.18,4.14,4.29,5.78,6.1a130.74,130.74,0,0,1,10,12.16c6.48,9.09,10.11,19.27,13.52,29.79,3.85,11.88,7.58,24.55,9.07,36.94,1.37,11.4,3.24,23.15,8.95,33.3,3.34,5.95,7.3,11.57,10,17.88A10.55,10.55,0,0,0,404,202c3,3.24,8.7,2.33,12.2.7a28.1,28.1,0,0,0,10.53-9.22c1.74-2.4,6.1-.92,4.45,2.17-3.81,7.16-9.72,13.45-17.82,15a2.53,2.53,0,0,1,1,2.23,3.79,3.79,0,0,1-3.26,3,14.41,14.41,0,0,1-4.09.06c.73,5.89,1.3,14.53-2.37,18.94-2.42,2.89-8.69.77-9-3-.29-4.15.73-8.22.69-12.39a44.19,44.19,0,0,0-1.26-10c-1.93-7.77-6.37-14-10.41-20.75-8.1-13.53-9.06-28.52-11.87-43.68C369.06,124.5,362.52,104.64,354.79,85.23Z" style="fill:#d8a449"/><path d="M.07,207a135.09,135.09,0,0,1,10.59-33.08c.92-2.33,1.89-4.64,2.93-7a3,3,0,0,1,1.31-1.35c1.27-2.3,2.59-4.55,4-6.73a3.31,3.31,0,0,1,2-1.37,288.21,288.21,0,0,1,12.39-28.87,3.87,3.87,0,0,1,3.28-1.77C51.25,96.5,71.16,70.06,94.9,46.08c14.82-15,30.34-28.81,48.62-39.42,2.9-1.68,6.3,1.85,3.22,4.06-14.92,10.73-28.23,23.47-41,36.67a402.46,402.46,0,0,0-35.2,41.06c-20.67,28.17-34.1,60.27-45.17,93.21-.51,1.51-1,3-1.51,4.54-.39,4.32-.75,8.65-1,13-.19,2.7-.35,5.41-.49,8.11.38,1.54.77,3.07,1.22,4.59,2.32,7.9,5.37,18.32,12.79,22.86,15.57,9.54,37.42,6.41,52.32-2.69a3.69,3.69,0,0,1,2.54-.57,2.48,2.48,0,0,1-1.34-2.41,12.47,12.47,0,0,1,.51-2.83,2.62,2.62,0,0,0,2-1.09c6.67-9.44,10.3-21.92,14.18-32.72a2.34,2.34,0,0,0,.14-.55c2.85-7.48,5.39-15.13,7.63-22.83.58-4.16,1.07-8.34,1.44-12.52.33-3.69.58-7.38.77-11.07.89-6.26,1.06-12.62,1.81-18.91a1.73,1.73,0,0,0-.27-1.21c.26-3.44.39-6.9.42-10.35a63.76,63.76,0,0,0,0-7.82,232.86,232.86,0,0,0-.08-29.3,2.58,2.58,0,0,0-.19-.86c0-2.39,0-4.78-.16-7.15,3.56,8.12,5.71,16.89,7.46,25.75.37,9.72,1.1,19.44,1.7,29.15,0,11.38-.24,22.75-1.19,34.09a239.2,239.2,0,0,1-4.48,30.84c-1.32,6.09-3.6,11.95-4.93,18-1.19,5.47-.33,11.9.55,17.4,2.69,16.84,9.65,34.51,21.43,47.2,12.65,13.61,30.08,21.55,46.51,29.57,1.89.93-.22,4.77-2.07,4-11.12-4.34-22.45-9.16-32.74-15.48l2.21,1.62a1.71,1.71,0,0,1,.28,2.08,19.86,19.86,0,0,1,2,2.51c2,3-2,6.1-4.92,5.09-5-1.69-9.57-6.78-13.48-11.42a5.17,5.17,0,0,1-3.74-2.06,160.59,160.59,0,0,1-12.06-18.12,1,1,0,0,1-.08-.11c1.59,4.83-5.57,7.69-8.75,3.49-6.75-8.91-11.62-22.13-11.31-34.14a5.83,5.83,0,0,1-3.45.11L95,238.9a3.27,3.27,0,0,1-2.18-2.32,4.55,4.55,0,0,1-.75.59c-17.21,11.1-42,14.14-60.37,3.77a26.76,26.76,0,0,1-8.89-8.46c-1.41,2-5.62,2.63-6.68-.12q-2-5.22-3.58-10.61c-.07.24-.15.48-.23.72-1.3,4.17-2.26,8.19-5.16,11.56C5.6,235.87.07,236,.1,232.67c0-6.48,2.26-13.12,4.52-19.52C2,212.41-.46,209.94.07,207Z" style="fill:#d8a449"/><path d="M400.92,304.5a18.46,18.46,0,0,1-2.26,4.45,29.87,29.87,0,0,1-2.86,2.29l-1,.19a6.26,6.26,0,0,0,.34-3.18,10.15,10.15,0,0,0-.78-3.11,3.69,3.69,0,0,1,1.15-.81,3.13,3.13,0,0,1,2.11-.17l.12,0a20.14,20.14,0,0,1,1.71-3.6c.38-.56,1.46-1.33,2.09-.6a4.75,4.75,0,0,1,1,3A2.18,2.18,0,0,0,400.92,304.5Z" style="fill:#d8a449"/><path d="M372.31,311.93l0-.25a2.5,2.5,0,0,0,.33-1,5.91,5.91,0,0,0-.13-1.76c0-.34,0-.68,0-1h-.14a3.44,3.44,0,0,0-.28-1.54,6.42,6.42,0,0,0-1.23-1.82,4.37,4.37,0,0,0-.59-.55c-.15-.16-.29-.34-.45-.49a5.6,5.6,0,0,0-.86-.61,2.4,2.4,0,0,1,.38-.53c.11-.1.21-.2.31-.31a4.76,4.76,0,0,1,1.45-1,3.16,3.16,0,0,1-.12-.64,1.17,1.17,0,0,1,.34-.91,9.07,9.07,0,0,1-.57-4c.24-1.71,2.68-3.79,4.27-2.25a9.53,9.53,0,0,1,2.16,3.32,2.35,2.35,0,0,0-.74,2.51c1,3.94,0,7.54-2.06,11a23.38,23.38,0,0,1-1.79,2.5A1.77,1.77,0,0,0,372.31,311.93Z" style="fill:#d8a449"/><path d="M345.27,299.42a21.66,21.66,0,0,1,1.59,1.75,2.11,2.11,0,0,0-.23,1.88,19.2,19.2,0,0,1,.73,10.35,15.6,15.6,0,0,1-.53,1.89,11.26,11.26,0,0,0-1.45-2.08c-.2-.52-.4-1-.61-1.55a1.62,1.62,0,0,1-.28-.2l-1.32-1.22-.58-.54a2.48,2.48,0,0,1-.73-1.7,2.09,2.09,0,0,1,.48-1.55c-.57-1.06-1.18-2.1-1.87-3.13C338.86,300.9,343.24,297.45,345.27,299.42Z" style="fill:#d8a449"/><path d="M316.88,325.05c1.22-8.16,6.93-13.68,12.41-19.39,1.72-1.79,5-.64,3.4,2-.1.17-.19.35-.29.53a1.3,1.3,0,0,0-.23.18c-9.29,9.1-10.36,26.39.14,35.12.92.77.85.64.95,1.84.09,1,.17,2,.31,3.05,1,6.66,4,12.3,7.15,18.1.2.35,2.24,2.51,2.24,2.63a2.54,2.54,0,0,1-.18.62c-.42,1-5.61,1.82-6.51,2-2.41.34-12.45-.2-8.72-4.69a3.62,3.62,0,0,1,1.94-1.21l.7-.08a2.24,2.24,0,0,1,1.23.34c-.94-.42-.86-.57.23-.46l.71.1.35.06a4.81,4.81,0,0,1,1.2-1,30.08,30.08,0,0,1-7.75-18.88,4.92,4.92,0,0,1-2.56-1C318.68,340.33,315.91,331.58,316.88,325.05Z" style="fill:#d8a449"/><path d="M68.43,469.68c6.14-8.92,16.12-17.61,27.27-19.28a16.56,16.56,0,0,1,1.63-4.06c.38-.87.77-1.74,1.14-2.62-1.73-.91-2.91-2.57-2.22-4.62,10.51-31.22,21.25-63,37-92.08a10,10,0,0,1-1.4-.78c-1.75-1.17-1.43-3.17.09-4.43a6.85,6.85,0,0,1,5-1.33,232.31,232.31,0,0,1,17-25.48,4,4,0,0,1,2.82-1.43c3.53-2.2,7.94-3.49,11.83-4.44a24.21,24.21,0,0,1,4.48-.65,3.62,3.62,0,0,1,2.22-3.12,2.49,2.49,0,0,1,1.09-.35,2.72,2.72,0,0,1,2.75.94,59.57,59.57,0,0,1,6,8.95,4,4,0,0,1,1.24.41,3.82,3.82,0,0,1,3.32-2c4.27-.05,8.25-1,12.54,0,2.34.54,4.84,2.31,4.66,5a3.5,3.5,0,0,1-.12.66l3.81.29c5.71.39,11.43.6,17.15.72a6.06,6.06,0,0,0-.31,3.19,11.81,11.81,0,0,0,1,3.37q-15.1-.19-30.15-1.52a64.72,64.72,0,0,1-12.15,50.53c-1.76,2.29-4.59,4.68-7.19,3.44-1.9-.9-2.52-3.43-2-5.46s2-3.7,3.23-5.37a62.3,62.3,0,0,0,12.48-43.41l-3.4-.75c2.64,6.49-1.32,14.83-8,16.87q-.74-3.63-1.45-7.27c-8.3,3.34-15.82,8.3-24.25,11.36-3.93,1.43-9.39,3.13-14.51,3.33-4.14,8.1-7.78,16.49-11.22,24.92q-12.54,30.69-22,62.54c-1.62,5.45-3.23,11.06-6.63,15.62-5.08,6.79-13.36,10.27-19.77,15.82-5.47,4.74-9.62,11.21-10.71,18.36s1.16,14.94,6.53,19.79c1.21-2.72,2.43-5.44,3.64-8.15-1.8,8.29,2.2,17.9,10,21.25s18.38-1.4,19.91-9.75c.65,7.33,6.1,14.41,13.38,15.48s15.13-5.45,14.19-12.75c5.09,4.1,11.47,6.89,18,6.64s13.1-3.9,15.79-9.86c1.62-3.58,1.78-7.65,1.49-11.57-.92-12.73-6.14-24.76-8.18-37.36-3.65-22.59,3.05-45.43,9.69-67.33.57-1.9,1.4-4.06,3.3-4.63-1.45,3.58,2.8,6.75,6.41,8.13A98.41,98.41,0,0,0,208,401.24c3.45-5,11.12-3.3,17-1.57a87.58,87.58,0,0,0,10.59,2.39,8.08,8.08,0,0,0-3.82,5.7,8.35,8.35,0,0,0-.1,2.26c-17.73-.26-35.43-2.46-52.13-8.56-.18,7.19-1.34,14.47-2.27,21.4-.77,5.78-1.51,11.59-2.76,17.26.05,3.64.15,7.28.26,10.92.09,3,.68,6.5.92,9.9,1.79,8.31,3.34,16.67,4.34,25.15.18,1.53.33,3.05.47,4.58a14,14,0,0,1,1.94,0c2.61.21,5.4,1.43,8,1.88a71,71,0,0,0,9.86,1c5.6.16,11.72-.13,17.13-1.72,4.26-1.25,5.8-4.75,7.16-8.48a2.71,2.71,0,0,1-2.48-2.45c-.63-5.16,1.38-10.32,2.55-15.33s2.32-10.14,3.38-15.23q3.27-15.74,5.71-31.64c2.74-17.89,5.08-35.89,7.43-53.85a2.84,2.84,0,0,1-1.46-1.49,16.46,16.46,0,0,1-.67-1.94c-4.08.06-8.13-.43-10.88-3.73a2.93,2.93,0,0,1,.2-4,5.51,5.51,0,0,1,2.43-1.43c-.22-2.21,3.73-3.73,6.86-4.09-.29-3.05-.65-6.1-1.11-9.12a90.78,90.78,0,0,0-6.35-21.72,54.34,54.34,0,0,1-11.43-2.56c-2.37-.83-1.3-3,.28-4.3l-.89-.19c-3.1-.72-1.81-3.77.33-5.1a29.23,29.23,0,0,0,5.81.73c2.27,0,4.78.3,7-.31,6.22.58,12.4,1,18.65,1.12l3.53-.22c9.68-.64,19.18-2.63,28.78-3.64a28.51,28.51,0,0,0,8.59-.6,2.79,2.79,0,0,1-1.05,3.32c-.46.29-.93.56-1.41.82l.15,0c3.07-.63,2.31,3.68,0,4.37-.82.25-1.65.48-2.47.72.32,1.54.61,3.07.87,4.62,2.28-.91,3.86,2.12,2,3.86,5.2,7.48,11.13,17.68,11.65,26.67a2.77,2.77,0,0,1-.71,1.8,53.71,53.71,0,0,1,2,6.84.38.38,0,0,1,0,.1c0-2.29,0-4.58-.08-6.87-.21-4.6-1.44-9.17-1.16-13.76.07-1.12,1.9-2.68,2.69-1.24,2.46,4.5,2.43,10.43,2.47,15.45,0,4.1-.61,8.13-.5,12.23A64.31,64.31,0,0,0,307,373.89c.27,1.19,1.65,6.75,3.5,6.57a1.49,1.49,0,0,0,.64-.32,18.62,18.62,0,0,1,2.7-1.66c3.51-1.76-1,3.32-1.42,3.92a14.58,14.58,0,0,0-2.76,7.05c-.58,5.36.76,11.44,2.67,16.44.83,2.17,2.45,4.64,5,4.83l.09.08A77.92,77.92,0,0,0,330.63,409c5.79-1.53,11.49-3.42,17.11-5.47a284.82,284.82,0,0,0,33.89-14.68c3.42-1.78,4.37,2.58,1.63,4.33a178.33,178.33,0,0,1-34.7,17.49c-9.43,3.46-20.93,8.08-31.52,7.63.17,1.17.31,2.35.44,3.6.14,1.48-2.31,4.18-3.55,2.28a40,40,0,0,1-3.66-7.16,2.46,2.46,0,0,1-.94-2.65c-.07-.23-.13-.47-.2-.7a40.75,40.75,0,0,0-1.53-17.24c.14-.4.3-.8.42-1.22a4.49,4.49,0,0,0,0-1.79,2,2,0,0,0-1.65-1.95c.05-.74.11-1.48.2-2.23a30.62,30.62,0,0,1-8.54,8.19l.3,1.7c5.2,29,11.89,57.67,19.87,86l.14,0c4.26-.78,6.18,5.34,1.65,6.43l-3.73.9c-1.8.43-4.65-.11-5.25-2.2q-2.34-8-4.52-16.05c.11.6.2,1.19.31,1.78a130,130,0,0,0,3.37,14.22c1.05,3.45,3.75,7.54,2.39,11.07-.63,1.62-3.37,3.5-5,1.94-5.85-5.65-7.15-17.06-8.63-24.81-1.84-9.67-3.06-19.48-4.31-29.24-2-15.62-2.72-31.37-4.82-47s-5.13-31-7.14-46.64c-6.15,2.8-13.51,3.94-19.48,4.64q-3.25.38-6.51.6c-2.14.15-5.8-.43-7.74.35-4,1.63-3.08,7.86-3.11,11.36-.25,28.83-4.64,57.28-8.62,85.76-1.51,10.83-2.34,22.72-7.12,32.71-2.12,4.44-6,6.75-10.56,8.06-11.77,3.37-24.87,3.41-36.79.9l-1.68-.37c.09,1.8.16,3.6.22,5.4.43,1.66.67,2.57.13,4.16.19,6.74.31,13.48.73,20.22.83,13.14,3.76,26.17,11.54,37,2.55,3.56,5.83,8.12,9.76,10.2,3.43,1.81,7.34,1.24,11,.76,4.15-.54,8.26-1.36,12.38-2.16,3.6-.7,3.3,4.41.32,5.2-4.5,1.19-9,2.27-13.62,3.1a55.48,55.48,0,0,1,8.46,4.84c1.28,1,1.9,2.19,1.22,3.74-.87,2-2.84,1.28-4.18,2.16-2.25,1.47-10-3.34-12.2-4.64a67.25,67.25,0,0,1-6.73-4.61l-.62-.5a8,8,0,0,1-4.94-2.92,1.61,1.61,0,0,1-.26-.48,3.11,3.11,0,0,1-.63-1,1.92,1.92,0,0,1-.1-.88,67.31,67.31,0,0,1-5.53-6.16c-7.88-10-12.29-21.9-13.8-34.45a175.19,175.19,0,0,1-1-19.56,26.17,26.17,0,0,1-7.43,3.19,35.59,35.59,0,0,1-13.53.83,21.06,21.06,0,0,1,4.5,4.6c1.39,2.16-2,4.89-4,4.31-4.81-1.37-8.86-4.8-11.92-9-4.13,3.89-8.85,6.79-14.68,7.55a24.38,24.38,0,0,1-8.36-.35,35.36,35.36,0,0,0,2,3.43c2.75,4.09-5.1,6.81-7.61,3.59l.12.07a6.24,6.24,0,0,1-1.11-1.34,22,22,0,0,1-1.93-3.19,31.83,31.83,0,0,1-2.8-7.85c-.08-.35-.15-.71-.21-1.07-9.59,4.48-23.34,3.29-28.15-7.21a2.47,2.47,0,0,1,.53-2.7,2.27,2.27,0,0,1-.71-.52,4.18,4.18,0,0,1-1-2,25.56,25.56,0,0,1-9.55-7.84,1.84,1.84,0,0,1-1.8-.1c-.17.46-.35.91-.56,1.36-1,2.26-5.19,3.48-6,.42C55.9,493.52,61.88,479.21,68.43,469.68ZM154,339c8.51-2.48,16.59-6.23,25-8.95q-1.71-8.58-3.41-17.15c-9.55-.27-17.24,7.61-22.74,15.43-2.82,4-5.42,8.19-7.84,12.46A47.41,47.41,0,0,0,154,339Zm136.17,5.2c1.87.38,3.13,2.32,1.52,4.47-.29.39-.61.75-.93,1.12.16,1.45.33,2.89.52,4.33,1.59,12.17,3.46,24.29,5.53,36.38a87.49,87.49,0,0,0,9.87-6.77c.16-.13-2.48-7.51-2.68-8.29a69,69,0,0,1-1.67-8.92,87.46,87.46,0,0,1-.41-10.6c-.2,1.35-1.64,3-2.64,1.48-4-6.28-7-13.49-9.81-20.53Q289.85,340.54,290.2,344.19Zm-48.17-22a83.66,83.66,0,0,1,3.74,15c.63,3.89,1,7.82,1.27,11.75,1.89.2,3.79.36,5.71.39a89.14,89.14,0,0,0,28.5-4.39c-1.44-10.39-2.88-21-2.47-31.41a136.15,136.15,0,0,1-22.93,3.8c-5,.37-10.19.69-15.41.67C241.05,319.34,241.55,320.81,242,322.15Z" style="fill:#d8a449"/></g><path d="M180.74,309.41a51.71,51.71,0,0,0-26.1-1.33c-.43.1-.82.86-.14.76a58.83,58.83,0,0,1,25.69,1.29C180.54,310.23,181.22,309.55,180.74,309.41Zm213.54,1.9c1.43-6.68-4.31-11-10.54-11.38-5.18-.28-8.19,1.62-12.25,4a7.92,7.92,0,0,1,1.45,8.23c-.19.51-1.56.59-1.37,0,4.44-14.23-26-17.38-27.72-1.7a11.52,11.52,0,0,1,3.1,4.45c.18.48-1,.84-1.21.37-5.29-11.24-19.4-7.3-24.25,2.11a19.57,19.57,0,0,0,1,20c1.14,1.7,3.6,3.15,4.52,4.86a16.68,16.68,0,0,1,.28,3,32.84,32.84,0,0,0,1.2,5.46c2.2,7,6.54,12,11.91,16.79.79.7-.3,1.24-1,.84a21.74,21.74,0,0,1-3.9-3c-1.94,3.37-5.79,6-8.86,8.22a61.14,61.14,0,0,1-11.89,6.93q3.24,15,6,30.08c.19,1.07.39,2.14.59,3.22,11-2.16,21.87-6.36,32.16-10.84,10.68-4.66,21.61-10,31-16.91a57.16,57.16,0,0,0,18.75-24.55c1.84-4.73,3.4-10.36,3.24-15.49,0-.79-.62-8.06-1.23-8.18s-1.37-1.08-.56-1.36a14.78,14.78,0,0,0,9.67-12.39c1.08-8.82-8.82-21.8-18.77-17.18a9.37,9.37,0,0,1-.4,4.17C395.15,311.51,394.17,311.87,394.28,311.31ZM173.94,501.79c.31-14.4-5.36-29.27-17.19-37.93a.62.62,0,0,1-.25-.65c11.71-42.92,18.12-86.31,22.28-130.51-4.7,1.17-9.35,2.65-14,4.16-8.51,2.75-18.71,7.24-28,6.79-3.38,8-7.65,15.67-11.24,23.58q-5.11,11.29-9.69,22.84-9.31,23.55-16.3,47.91c-.57,2-1.13,4-1.68,6-.39,1.46-.77,5.9-1.82,6.9-1.55,1.49-4.78,2.1-6.71,3.15a46.17,46.17,0,0,0-15.7,14c-4.58,6.53-7.7,14.55-7.53,22.59.18,8.8,5,17.55,13.9,19.31a23.56,23.56,0,0,1-.72-3.23c-.41-2.85-1.11-9.87,3.08-9.84.45,0,1.32.34.84.89-5.32,6-.72,16.69,4.14,21.29,6.75,6.36,16.63,6.86,24.34,1.92-2.58-4.25-3.44-9.47-1.3-14.1.36-.78,2,.16,1.81.9-2.39,7.25.34,15.29,7.4,18.88,8.88,4.52,18.37-.81,24.05-7.66a19.92,19.92,0,0,1-6.6-8.47c-.35-.87,1.28-.92,1.56-.28,4,9,14,14.28,23.48,10.31C169.92,517.32,173.76,510,173.94,501.79Zm48.32-195.21c-21.69-.95-43.59-4.36-63.81-12.18-3.07,1.34-6.3,2.27-9.28,3.86-1.6.87-13.92,10-6.57,11.72.48.1,1.53,1.06.5,1.26-4.3.82-8.71,5.66-11.44,8.87-3,3.54-5.3,7.74-5,12.51.72,13.62,16,9.78,24.83,7.35,16.37-4.54,32.4-11.94,49.78-10.51.63.06,0,.78-.43.76A70,70,0,0,0,180,332.39c-1.44,36.7-7.59,73.53-16.08,109.21q-1.49,6.25-3.09,12.46c-.53,2.05-1.25,4.14-1.63,6.22-.64,3.49.22,3.77,2.63,6a42.5,42.5,0,0,1,10.3,15.55,62.25,62.25,0,0,1,2.3,7.25,133.3,133.3,0,0,0,28.91,4.36,119.39,119.39,0,0,0,13.51,0c3.72-.29,6.56-.74,8.69-4,1.4-2.16,1.79-4.95,2.34-7.41a566.25,566.25,0,0,0,10.23-62.76,575.64,575.64,0,0,0,3.25-60c0-19.14-1.84-40.49-19-52.32C222.16,306.84,222.16,306.7,222.26,306.58Zm92.13,71.94a79.21,79.21,0,0,0,10.89-6.37c3.21-2.28,6-5.7,9.48-7.51A35.8,35.8,0,0,1,326.05,348c-.39-1.77-.33-3.68-1.1-5.3-1.09-2.26-3.49-4-4.79-6.27a19.87,19.87,0,0,1-2.59-11.58c.64-7.69,5.85-15,13.46-17.15a14.16,14.16,0,0,1,11.18,1.51c1.43-12.64,21.08-13,28.48-6.09,5.58-6.95,22.46-5.56,24.79,3,8.2-3.59,18,4.24,20.32,12.26a16.22,16.22,0,0,1-9,19.21c2.37,3.07,1.55,11.61,1.15,14.14-1.81,11.62-7.7,21.64-15.65,30.12-9,9.63-22.54,15.83-34.39,21.24q-9.58,4.38-19.57,7.79c-5.24,1.79-11.07,4.47-16.72,4.42,2,11.21,4.09,22.38,6.35,33.55,1,4.86,1.85,9.74,2.41,14.67.52,4.56,1.81,10.38.92,14.94s-10.9,5.34-14.66,6.05c-1.94.37-8.17,2.4-11.21,1.45-.64,6.09-2.95,11.65-5.64,17.15-3.41,7-6.61,14.08-9.95,21.11-6.54,13.8-13.31,27.65-15.7,42.89-.41,2.63,0,5-1.47,7.29a9.74,9.74,0,0,1-6.24,4.18,30.16,30.16,0,0,1-16.12-.86c-3.44-1.09-9.42-3.38-11.3-6.78-2.13-3.84-2.09-10.77-2.54-15a148.17,148.17,0,0,1-.71-29,263.93,263.93,0,0,0-7.54,30c-.76,4.08-1.44,8.17-2,12.27-.51,3.6-.3,5.55-3.06,7.93-3.9,3.38-9.22,4.67-14.29,4.43-10.83-.52-23.37-9-26.48-19.48a190,190,0,0,1-8.18-51.61,19.37,19.37,0,0,1-6.11,8.44,20,20,0,0,1-23.25.93c-4.89,7.39-14.65,11.72-23.34,9.06a17.83,17.83,0,0,1-9.07-6.79c-7.95,5.82-19.14,4.62-26.31-2.14a22.31,22.31,0,0,1-5.69-8.77c-9.17-.9-14.95-9.73-15.94-18.41-1.37-12.07,5-24.42,13.63-32.55a46.76,46.76,0,0,1,12.61-8.56c2.17-1,3.35-1.55,4.27-3.85a45.65,45.65,0,0,0,1.39-5.16c1-3.72,2.09-7.41,3.2-11.11,4.24-14.16,9.09-28.15,14.61-41.87,6.24-15.51,12.75-31.92,21.66-46.12l-.52,0c-7.61-.82-11.5-7.55-10-14.83.89-4.22,3.55-7.75,6.46-10.81,2.57-2.71,5.39-5.89,8.9-7.41-2.28-1.49-2.37-4.41-.68-7.06,3.29-5.13,10.23-8.27,16.09-9.92q-2.91-1.18-5.78-2.47c-14.14-6.48-27.23-15.68-36.79-28.07-10.09-13.06-15.32-28.78-16.81-45.08-1.44,2.56-3,5.06-4.58,7.47-6.36,9.44-15.37,14.67-26.5,16.71-23,4.22-51.08-6-59.48-29.45-4.91-13.66-.35-28.1,5-40.9,6.68-15.88,15.63-31,24.31-45.82C52.74,96.61,72.16,67,96.77,43.37A152.87,152.87,0,0,1,181.85,2C198.58-.42,215.6-.44,232.43.87,248.7,2.15,265.22,4.14,281,8.53a172,172,0,0,1,75.29,44.21A161.77,161.77,0,0,1,383.93,90.2c8.06,14.87,14.62,30.56,23.49,45,8,13.07,19.82,25.74,21.69,41.6,1.51,12.92-5.74,27.08-16.4,34.33-4.73,3.23-10,4.73-15.55,5.53a58.54,58.54,0,0,1-4.36,27.2c-7.76,17.85-23.43,32.37-40.26,41.66-15.85,8.75-34.47,13-52.43,16,6.58,2.44,4.37,14.22-1.54,16.5a1.5,1.5,0,0,1,.71.86Q307.82,348.43,314.39,378.52Zm71-124.67c12.34-18.52,12.49-40.33,4.46-60.68-3.92-9.95-12-18-13.16-28.91-.64-6-.52-12-1.3-18q-1.08-8.29-2.88-16.47c-5.26-24-15.24-46.39-28.69-66.91-.34-.52,1-.9,1.26-.45a190.07,190.07,0,0,1,27.17,59.3,164.12,164.12,0,0,1,5.68,32.83c.32,5.85,0,11.85,2.21,17.4,1.94,4.83,5.44,8.85,7.89,13.41a78,78,0,0,1,9.08,30.55c13.36-2.52,23.29-11.65,28.23-24.26,6.25-16-2.64-31-11.42-44a323.73,323.73,0,0,1-22.25-38.79c-7-14.26-14.09-28.55-23.95-41.12a169.46,169.46,0,0,0-70.08-52.32C283.85,9.91,269.57,6.65,254.9,4.59a299,299,0,0,0-49.56-3.27c-32.41.88-64.36,9.54-90.68,29C90.25,48.32,71.72,73.23,55,98.22c-9.35,13.94-17.9,28.34-26.09,43C20.79,155.68,12.34,170.33,8,186.44c-3.58,13.21-2.56,26.37,6.28,37.32,8.38,10.39,21.41,16.49,34.55,17.84,12.37,1.27,26.8-1.06,36.12-9.91,9.55-9.07,15.22-23.47,19.67-35.5,11.79-31.89,13.94-66.25,13.31-99.95-.15-8.68-.5-17.36-.89-26,0-.62,1.4-.76,1.43-.15,1.83,37.53,2.66,76-7.62,112.48a168.56,168.56,0,0,1-12.94,33.37.31.31,0,0,1,.14.21c2.44,29.89,18.11,54.68,44.22,69.46a127.38,127.38,0,0,0,15.69,7.49,2.09,2.09,0,0,1,1.08.42c21.31,8.3,44.77,11.44,67.39,12.15a373.34,373.34,0,0,0,48.91-2.05c22.35-2.24,45.19-6,66.17-14.3A96.73,96.73,0,0,0,385.39,253.85ZM304,484.86c-1.16-2.16-.61-7.05-.83-9.53q-.54-5.9-1.17-11.78c-.78-7.33-1.67-14.65-2.62-22-1.84-14.05-4-28.06-6.11-42.06-4.86-31.64-10.08-63.43-11.64-95.45a386.8,386.8,0,0,1-45.48,2.82q-6.09,0-12.23-.24c11.07,7.05,16.41,19.84,18.29,32.41,2.56,17.23,1.17,35.47.18,52.78q-1.5,26.42-5.43,52.62-2,13.49-4.66,26.87c-1.28,6.42-1.6,16.08-6.14,21.19-2.61,2.94-5.2,3.09-8.85,3.22-4.51.15-9,.17-13.53,0A143.7,143.7,0,0,1,175,491.45a38.75,38.75,0,0,1,.26,15.64.27.27,0,0,1,.15.24c.92,16,2.82,32,6.8,47.57.9,3.56,1.6,7.57,3.35,10.8s5.19,6.29,8.21,8.61c6.53,5,15.29,7.64,23.23,4.45,4.87-2,6.68-5,7.4-10.17q.8-5.75,1.84-11.43,2.17-11.85,5.42-23.44,3.35-12,7.83-23.65c3-7.77,6.19-15.38,7.62-23.62a.59.59,0,0,1,.61-.43c9.34.33,17.85-1.5,26.85-3.84.48-.12,1.78.46.91.87-7,3.33-15.12,4.59-22.83,4.71-2.86.05-3.37.19-4.34,3-.56,1.66-.86,3.45-1.37,5.12-1.32,4.25-3,8.38-4.61,12.51s-3.14,8.35-4.57,12.57c-1.56,11.93-.83,24.41.57,36.26.64,5.43.58,12.71,5.44,16,6.35,4.36,21.48,8.48,27,.81,1.85-2.56,1.63-7.87,2.25-11a98.77,98.77,0,0,1,2.82-10.85,175.19,175.19,0,0,1,8.8-21.6q5.4-11.4,10.73-22.84c3.42-7.34,7.61-14.44,8.9-22.55A2.26,2.26,0,0,1,304,484.86Zm-1.81-175.31a7.08,7.08,0,0,0-.65-4.7c-.66-1.17-2.12-1.88-2.42-3.17v-.05c-2.06.34-4.12.65-6.16.95q-4.83.71-9.67,1.29s0,0,0,.06c4.17,52.88,14.56,104.82,20.36,157.49.78,7.09.51,15,2.11,21.91.08.34-.33.44-.53.46l1,0a23.63,23.63,0,0,0,4.49-.6c3.39-.53,6.77-1.15,10.11-1.95,1.89-.44,7.22-1.16,8.36-3,.84-1.33.15-4.55.08-6-.13-2.34-.33-4.68-.56-7-.54-5.34-1.43-10.58-2.47-15.84-2.28-11.43-4.51-22.81-6.53-34.3a920.86,920.86,0,0,0-22.33-96.43,1.35,1.35,0,0,1-.06-.37c-.39,0-1-.14-.71-.61C298.5,314.74,301.48,313.36,302.19,309.55Z" style="fill:#3f3027"/><g style="mix-blend-mode:multiply"><ellipse cx="405.46" cy="318.85" rx="5.79" ry="6.16" transform="translate(-92.11 182.89) rotate(-22.9)" style="fill:#d8a449"/><ellipse cx="386.17" cy="312.18" rx="5.79" ry="6.16" transform="translate(-91.04 174.86) rotate(-22.9)" style="fill:#d8a449"/><ellipse cx="362.44" cy="312.18" rx="5.79" ry="6.16" transform="matrix(0.92, -0.39, 0.39, 0.92, -92.91, 165.63)" style="fill:#d8a449"/><ellipse cx="338.72" cy="320.41" rx="5.79" ry="6.16" transform="translate(-97.98 157.05) rotate(-22.9)" style="fill:#d8a449"/><path d="M376.4,352.72c5.88-.19,13,1.12,16.46-3.56s-1.09-10.94-4.57-14.31-6.84-8.11-11.49-6.43c-6.73,2.44-17.82,9.74-18.83,18.26-.79,6.71,10.72,6.21,14.29,6.13C373.53,352.79,374.93,352.77,376.4,352.72Z" style="fill:#d8a449"/></g><path d="M282.08,218.94c-1.93,2.57-3.87,5.71-3.75,9,.23,6.32,6.31,6.84,10.94,6.69a37.5,37.5,0,0,0,8.52-1c1.34-.35,4-1,4.94-2.13,1.62-2.07,1.14-5.25.58-7.54a59.07,59.07,0,0,0-7.24-16.67s0,0,0,0C290.67,210.45,285.84,213.92,282.08,218.94Z" style="fill:#655c2f"/><path d="M289.27,234.65c-4.63.15-10.71-.37-10.94-6.69-.12-3.31,1.82-6.45,3.75-9,3.76-5,8.59-8.49,14-11.58,0,0,0,0,0,0A59.07,59.07,0,0,1,303.31,224c.56,2.29,1,5.47-.58,7.54-.9,1.15-3.6,1.78-4.94,2.13A37.5,37.5,0,0,1,289.27,234.65Zm-.31,1.72c5.79.16,14.86-.62,16.83-5.47,1.44-3.55-1.36-9.68-2.6-13a54.39,54.39,0,0,0-6.34-12c-.25-.37-1.35-.24-1.44.16a.94.94,0,0,0-.72-.08c-7.49,3.45-16.87,11.2-18.22,19.87-1,6.23,4,9.77,9.58,10.32l1.14.08a39.36,39.36,0,0,0,.21,6.79c-.58,9.16-2.59,18.07-11.34,23.05-11.45,6.52-32.51,7.06-34.11-10-.07-.72-1.86-1.3-1.85-.4.16,14,16.28,18.73,27.59,15.88,6.57-1.66,13.52-4.93,17.22-10.87a26.46,26.46,0,0,0,3.55-11.82c1.86,7.48,5.67,14.72,11.56,18.08a15,15,0,0,0,22.23-11c.09-.68-1.22-.57-1.4-.06-1.92,5.38-5.34,10.32-11.3,11.43-6.42,1.2-12-3-15-8.34C290.55,251.93,289.25,244.37,289,236.37Z" style="fill:#3f3027"/><ellipse cx="338.38" cy="157.95" rx="29.15" ry="37.81" style="fill:#655c2f"/><g style="clip-path:url(#clip-path-4)"><path d="M309.56,125.44c7.44-8,21.51-5.86,31.3-3.66,3.51.79,10.78,2,11.6,6.13.78,4-4.07,5.41-7.14,4.46-3.4-1.05-8.8-1-12.32-1-4.41,0-10,0-13.85,2.38C314.38,136.7,304.9,130.48,309.56,125.44Z" style="fill:#594325"/><path d="M353.14,142c-3-5,5.48-8.42,8.43-4.28A65.47,65.47,0,0,1,373.2,168a59.73,59.73,0,0,1,0,15.29c-.82,6.14-2.64,9.54-7.06,13.89-1.46,1.44-4.12,1.5-4.65-.76-2-8.4,1.07-17.07.67-25.6A61.75,61.75,0,0,0,353.14,142Z" style="fill:#594325"/></g><ellipse cx="336.74" cy="159.52" rx="6.94" ry="12.29" style="fill:#594325"/><ellipse cx="352.37" cy="143.9" rx="10.77" ry="19.15" transform="translate(-26.35 105.97) rotate(-16.5)" style="fill:#fff"/><path d="M329.94,159.15c.14,3.48,1.61,11.28,6.8,11.28,5.62,0,5.95-7.36,5.95-10.91s-.33-10.9-5.95-10.9c-5.19,0-6.66,7.8-6.8,11.27-.07,1.93-.33.17-.3-.74.16-4.25,1.27-13.93,7.57-13.25,5.68.61,6.62,9.32,6.62,13.62s-.83,12.42-6.15,13.57c-6.57,1.41-7.88-9-8-13.2C329.61,159,329.87,157.2,329.94,159.15Z" style="fill:#3f3027"/><path d="M309.46,157.4c.27,15.78,10.14,36.28,28.92,36.28,18.32,0,28.82-20.08,28.82-35.73s-10.5-35.73-28.82-35.73c-18.78,0-28.65,20.5-28.92,36.28,0,2.9-.48.25-.45-1.1.24-13.89,5.13-29.74,18.61-36.67,14.31-7.36,28.94,1.9,35.33,14.75,5.84,11.72,6.4,26.83,2.35,39.19-4.42,13.46-17,26.53-32.79,22.39-16.85-4.42-23.24-23.39-23.5-38.56C309,157.17,309.41,154.47,309.46,157.4Z" style="fill:#3f3027"/><path d="M342,145.42c1.82,5.7,5.15,13.14,11.48,15.24,10.68,3.55,10.62-12.95,9.16-18.29-1.55-5.69-5.23-13.19-11.42-15.24-10.77-3.58-10.55,13.12-9.18,18.43a6.92,6.92,0,0,1-.16,2.39c-1.62-6.26-2.9-15.71,1.52-21.27,7.89-9.91,17.65,7,19.39,13.09s2.86,15.83-1.47,21.32c-7.93,10-17.5-7.05-19.4-13C341.7,147.32,342.16,145.85,342,145.42Z" style="fill:#3f3027"/><ellipse cx="191.03" cy="158.95" rx="34.49" ry="38.76" style="fill:#655c2f"/><g style="clip-path:url(#clip-path-5)"><path d="M155.18,121c2.93-2.66,4.29-3.44,8.15-3.71,2.77-.19,5.55-.33,8.33-.46,7-.33,14.09-.26,20.93,1.68,8,2.27,15.36,6.92,19,14.16,1.91-1.62,5.65-2.07,7.11-.07a62.63,62.63,0,0,1,10.61,23.52c2.08,9.33,3.33,20.83-3.25,28.7-.81,1-3.29,2.15-4.11.41-2.21-4.67-2-10.66-2.15-15.72a73.92,73.92,0,0,0-1.3-12,84.84,84.84,0,0,0-6.14-18c-2,2.12-6.64,2.65-7.95-.1-4.28-8.93-12.58-11.17-22-10.58-4.29.27-8.52,1-12.77,1.59-5.84.84-7.83,1.12-13-2.18C154.44,126.88,152.92,123,155.18,121Z" style="fill:#594325"/></g><ellipse cx="189.88" cy="160.56" rx="8.73" ry="12.6" style="fill:#594325"/><ellipse cx="208.7" cy="144.83" rx="12.09" ry="19.62" transform="translate(-32.44 64.94) rotate(-16.43)" style="fill:#fff"/><path d="M156.77,158.38c.28,14.82,8.91,29.89,23.5,35.26,12,4.43,25.46.76,34.14-8.33a38.24,38.24,0,0,0,4.13-47.57c-7.26-10.79-20.13-17.42-33.39-14.86-17.24,3.33-28.07,20.18-28.38,36.63-.05,3-.49.26-.46-1.13.29-15.24,7.09-30.93,21.95-37.58,15.8-7.07,33.28.57,41.62,14.75,14.6,24.8.11,71.3-35.44,63.57-18.57-4-27.8-22.34-28.13-39.61C156.29,158.15,156.72,155.38,156.77,158.38Z" style="fill:#3f3027"/><path d="M181.3,160.18c.2,4.53,2.6,11,8,11.51a6.66,6.66,0,0,0,4.65-1.43c3.38-2.61,3.56-5.67,3.56-9.7s0-6.65-3.12-9.31a7,7,0,0,0-4.54-1.87c-5.76,0-8.38,7-8.58,11.56-.08,2-.34.17-.3-.76.22-5.31,2.26-14.18,9.43-13.59,6.51.53,8.34,8.8,8.34,14s-1.66,12.84-7.8,13.92c-7.45,1.31-9.74-8.22-10-13.54C181,160,181.22,158.18,181.3,160.18Z" style="fill:#3f3027"/><path d="M197.09,146.69c1.94,6.05,5.63,13.45,12.37,15.44,11.26,3.33,12.59-12.56,10.77-19.21-1.67-6.12-6-14-12.88-15.53-11-2.47-11.9,12.88-10.22,19.44a7.55,7.55,0,0,1-.16,2.45c-1.72-6.69-2.74-16.6,2.39-22.22,8.76-9.59,19,6.08,21,13.25,1.88,6.6,2.66,16.7-2.33,22.24-8.83,9.79-18.83-6.11-21.07-13.12C196.75,148.64,197.23,147.13,197.09,146.69Z" style="fill:#3f3027"/><path d="M232.86,326.28c-.06,1.08-.14,2.15-.1,2.94.22,3.18.63,6.34.81,9.51s.28,6.24.26,9.37c0,.55,0,1.21.06,1.89H234c18.78,2.16,38.33,2.72,56.26-3.8-1.31-4.8-1.68-10.1-2.37-14.9-.39-2.84-.81-5.67-1.24-8.51l0-.17C270.23,329,250.09,330.14,232.86,326.28Z" style="fill:#706d5c"/><g style="clip-path:url(#clip-path-6)"><path d="M223.32,344.5a19.82,19.82,0,0,1,5.18.72c0-.76,0-1.52,0-2.28.05-7.25.07-14.22,1.33-21.37.28-1.63,3.55-3.55,4.08-1.09,1.76,8.06,1.9,16.17,2.2,24.41,0,.89,0,1.76,0,2.62a28,28,0,0,0,2.79.66,92,92,0,0,0,17.84,1.38,94,94,0,0,0,31.4-5.94c-.39-2.26-.65-4.58-1-7a145.52,145.52,0,0,1-2.12-17.51c-.08-2.57,4.57-4.72,5.57-1.75a98.21,98.21,0,0,1,3.69,16.44c.42,2.71.84,5.42,1.18,8.14a18.57,18.57,0,0,1-.81,9.59c-.35,1.16-2.61,2.62-3.48,1.11a21.75,21.75,0,0,1-1.65-3.63,94.85,94.85,0,0,1-34.06,7.3,99.25,99.25,0,0,1-18-1.3l-1.76-.29a56,56,0,0,1-2.13,10c-.26.86-1.46,1.3-1.92.35a33.58,33.58,0,0,1-3-11.74,28.83,28.83,0,0,1-8.66-3.49C216.8,347.72,221,344.54,223.32,344.5Z" style="fill:#5e5045"/></g><path d="M288.92,318.3c-1.5,1.19-.6,4.25-.33,5.91.43,2.64.75,5.32,1.14,8,.82,5.57,1.23,11.71,3.28,17a.62.62,0,0,1,0,.32,4.18,4.18,0,0,0,4.46-.11c1.56-1.15,1.8-2.76,1.79-4.59a46.65,46.65,0,0,0-1.12-7.42c-.52-3-1.11-5.9-1.8-8.82-.35-1.47-.75-2.92-1.12-4.37-.25-1-.44-3.75-1-4.41C293.35,318.62,290.35,317.2,288.92,318.3Zm-64.23,3.86a7.66,7.66,0,0,1,3.23-.32c2.52.26,2.69.65,3.14,2.72,1.27,5.75,1.4,12.41,1.63,18.31.11,2.86.21,5.75.07,8.61s-1.17,3.64-3.92,4.33c-1.52.37-4.16.51-5.45-.71a.52.52,0,0,0,0-.4c-2.17-7.22-1-16.18-1-23.63C222.46,328.07,221.25,323.55,224.69,322.16Z" style="fill:#bcb9a7"/><g style="clip-path:url(#clip-path-7)"><path d="M285.52,318.28c.07-1.75,3-3.54,3.43-1.09,1.34,7.06,2.69,14.07,3.77,21.19.43,2.86,1.39,6.07,1.84,9.22a8.42,8.42,0,0,0,5.27-.77c2.3-1.17,2.36,2.47,1,3.54a12,12,0,0,1-6.22,2.54,10,10,0,0,1-.64,2.27c-.55,1.31-2.33,2.42-3.47,1.11-3.73-4.28-3.63-11.77-4.36-17.22A119.31,119.31,0,0,1,285.52,318.28Z" style="fill:#a29783"/><path d="M219,346.74c0-.65,0-1.3,0-1.95a80.87,80.87,0,0,1,.38-13.1c.08-1.94.17-3.88.24-5.83a1.77,1.77,0,0,1,.64-1.29c.23-1.6.46-3.18.69-4.7.33-2.19,4.16-3.31,4.26-.46.33,9.3,1,18.92,0,28.27,0,0,0,0,0,0,.53,1.84,1.13,3.67,1.61,5.53,0,.11.05.23.07.34a5,5,0,0,0,1.84.58c2.06.19,4.15-1.11,5.84-2.19,1.23-.78,2.32.73,2,1.88-1.53,4.8-6.52,6.27-11,5.32l-.26.36a1.45,1.45,0,0,1-1,.51,11.87,11.87,0,0,1-1,2.71c-.52,1-1.76,1.92-2.64.71C217.52,359.22,219,351.8,219,346.74Z" style="fill:#a29783"/></g><path d="M223.39,355.1a.52.52,0,0,0,0-.4c-2.17-7.22-1-16.18-1-23.63,0-3-1.21-7.52,2.23-8.91a7.66,7.66,0,0,1,3.23-.32c2.52.26,2.69.65,3.14,2.72,1.27,5.75,1.4,12.41,1.63,18.31.11,2.86.21,5.75.07,8.61s-1.17,3.64-3.92,4.33C227.32,356.18,224.68,356.32,223.39,355.1ZM234,350h-.15c0-.68-.06-1.34-.06-1.89q0-4.69-.26-9.37c-.18-3.17-.59-6.33-.81-9.51,0-.79,0-1.86.1-2.94,17.23,3.86,37.37,2.69,53.8-3.67l0,.17c.43,2.84.85,5.67,1.24,8.51.69,4.8,1.06,10.1,2.37,14.9C272.37,352.71,252.82,352.15,234,350Zm63.46-.6a4.18,4.18,0,0,1-4.46.11.62.62,0,0,0,0-.32c-2.05-5.27-2.46-11.41-3.28-17-.39-2.67-.71-5.35-1.14-8-.27-1.66-1.17-4.72.33-5.91s4.43.32,5.36,1.48c.53.66.72,3.44,1,4.41.37,1.45.77,2.9,1.12,4.37.69,2.92,1.28,5.86,1.8,8.82a46.65,46.65,0,0,1,1.12,7.42C299.3,346.63,299.06,348.24,297.5,349.39Zm-5.52.31c1.69,2.36,7.17.82,8.31-1.53.73-1.5,0-3.79-.19-5.3-.39-3-.9-6.05-1.47-9.06-.92-4.89-1.58-10.19-3-14.94-.95-3.24-7.28-3.53-9.06-.41-.52.91-.26,2.37,0,3.52a120.23,120.23,0,0,1-53.66,3.26,6.29,6.29,0,0,0-.42-2.81c-1.36-2.6-9.38-2.19-11.12-.23-1,1.22-.61,3.7-.59,5.15.06,3.68,0,7.36,0,11,0,5.26-.63,11.16.89,16.24a1.11,1.11,0,0,0,.75.62c1.8,2.85,9.26,2,10.85-.64a7.29,7.29,0,0,0,.67-3.57h0c9.88,1.49,20,1.33,30,1.15,8.63-.14,18.78-1.07,26.51-5.39.24.79.49,1.56.77,2.31A1.21,1.21,0,0,0,292,349.7Z" style="fill:#3f3027"/><ellipse cx="371.33" cy="203.3" rx="18.79" ry="9.84" style="fill:#e1a88c"/><ellipse cx="159.74" cy="208.12" rx="20.98" ry="9.84" style="fill:#e1a88c"/></g></g></g></svg>