<svg xmlns="http://www.w3.org/2000/svg" width="6.82mm" height="16.42mm" viewBox="0 0 19.33 46.55"><title>question</title><g id="圖層_2" data-name="圖層 2"><g id="圖層_1-2" data-name="圖層 1"><path d="M7.26,30H7.14a2.19,2.19,0,0,1-.63-.35l-.23-.15-.14-.09a2.66,2.66,0,0,1-.66-.48,2.82,2.82,0,0,1-.39-.62L5,28.06a1.42,1.42,0,0,1-.13-.59,2.44,2.44,0,0,0-.06-.36.82.82,0,0,1,.12-.49l0-.07a.85.85,0,0,0,0-.76l0-.07a.73.73,0,0,1-.15-.49c0-.15.18-.25.38-.38l.13-.08a.84.84,0,0,0,.25-.28A3,3,0,0,1,5.87,24a.84.84,0,0,0,.21-.42s0-.08,0-.12c0-.31.08-.46.19-.53A2,2,0,0,1,7,22.66l.25-.06h.15a1.59,1.59,0,0,1,.37.06,1.83,1.83,0,0,0,.41.06c.11,0,.22,0,.33,0a2.94,2.94,0,0,1,.37,0l.21,0c.16,0,.26.18.38.35l.09.14a1,1,0,0,0,.36.26l.15.05a1.07,1.07,0,0,1,.49.24,2.08,2.08,0,0,0,.21.21,1.85,1.85,0,0,1,.42.47.76.76,0,0,1,0,.52l0,.11a.79.79,0,0,0,.2.7.9.9,0,0,1,.19.47.81.81,0,0,0,.06.31s.07.16.07.16a.87.87,0,0,1,.11.53c0,.16-.18.27-.4.41l-.12.09a.81.81,0,0,0-.33.48l0,.11a1.14,1.14,0,0,1-.22.55,3.66,3.66,0,0,1-.72.62.41.41,0,0,1-.21,0,1.12,1.12,0,0,1-.31,0l-.12,0H9.16a.87.87,0,0,0-.55.2.81.81,0,0,1-.48.21H8a1,1,0,0,0-.31.07A1.65,1.65,0,0,1,7.26,30ZM8.73,19.82a1.21,1.21,0,0,1-.37-.07,1.83,1.83,0,0,0-.42-.07l-.3,0-.29,0A.86.86,0,0,1,7,19.66c-.14-.07-.2-.2-.28-.45a1.39,1.39,0,0,0-.1-.27l-.09-.14a1.36,1.36,0,0,0-.17-.18A1.12,1.12,0,0,1,6,18.08c0-.07,0-.15-.07-.24a2.32,2.32,0,0,1-.14-.75c0-.09.08-.16.22-.27A.82.82,0,0,0,6.3,16a.63.63,0,0,1,0-.34,1,1,0,0,0,.06-.23s0-.1,0-.16a1,1,0,0,1,.07-.43,1.07,1.07,0,0,0,.12-.32,1.54,1.54,0,0,1,.17-.43c.08-.12.17-.23.26-.34s.15-.18.21-.26,0-.07.23-.09a.82.82,0,0,0,.75-.83c0-.12,0-.16.05-.18a.88.88,0,0,1,.34-.2.8.8,0,0,0,.52-.64,1.11,1.11,0,0,1,.16-.42,2.4,2.4,0,0,1,.28-.27,2.19,2.19,0,0,0,.34-.34.86.86,0,0,1,.36-.26.81.81,0,0,0,.45-.8.85.85,0,0,1,0-.32.44.44,0,0,1,.1-.11A.83.83,0,0,0,11,7.9c-.07-.09-.07-.13-.07-.16s.07-.2.26-.39a.82.82,0,0,0,.13-1l0-.08L11.09,6a.76.76,0,0,0-.36-.35l0,0a2.09,2.09,0,0,1-.28-.22l-.18-.2a2.3,2.3,0,0,0-.41-.38l-.08,0a2.33,2.33,0,0,0-.59-.14L9,4.63H8.82a.93.93,0,0,0-.29,0l-.06,0A1.44,1.44,0,0,1,8,4.82a.93.93,0,0,1-.46-.2A1.06,1.06,0,0,0,7,4.46a.78.78,0,0,0-.22,0l-.42.16a.8.8,0,0,0-.48.55.83.83,0,0,1-.23.47,1.23,1.23,0,0,1-.57.23A2,2,0,0,0,4.82,6a.68.68,0,0,1-.22,0A1.17,1.17,0,0,1,4.24,6L4.15,6a.83.83,0,0,0-.22,0A.87.87,0,0,0,3.61,6L3.53,6a1.24,1.24,0,0,1-.44.14.32.32,0,0,1-.14,0c-.11-.06-.15-.19-.22-.46,0-.06,0-.1,0-.15a.85.85,0,0,0-.3-.44L2.31,5A1.3,1.3,0,0,1,2,4.68l-.14-.2A.75.75,0,0,1,1.59,4a1.7,1.7,0,0,0,0-.22l0-.09a.84.84,0,0,1,0-.62,3.29,3.29,0,0,1,.6-.69,3,3,0,0,0,.25-.25,3.17,3.17,0,0,1,.41-.37.25.25,0,0,1,.19-.05,1.87,1.87,0,0,1,.32,0l.17,0a.84.84,0,0,0,.69-.36.85.85,0,0,1,.3-.32.33.33,0,0,1,.15,0,.74.74,0,0,1,.23,0,.83.83,0,0,0,.22,0A.82.82,0,0,0,5.75.68C5.88.43,6,.38,6,.36h.09a1.46,1.46,0,0,1,.39.09A.85.85,0,0,0,6.83.5.82.82,0,0,0,7.34.34,1.13,1.13,0,0,1,7.79.11l.34,0A3.69,3.69,0,0,1,8.68,0a1,1,0,0,1,.45.16l.21.09a.83.83,0,0,0,.21.06A.73.73,0,0,1,9.92.5a.84.84,0,0,0,.52.18.87.87,0,0,0,.41-.11.9.9,0,0,1,.37-.14h.06l.33.06a2.69,2.69,0,0,1,.54.12l.08,0a1.38,1.38,0,0,0,.31,0,1.31,1.31,0,0,1,.52.09,1.38,1.38,0,0,1,.4.33,2.12,2.12,0,0,0,.3.26c.09.06.14.16.18.36a.83.83,0,0,0,.81.65.55.55,0,0,1,.4.11,1.24,1.24,0,0,1,.2.45,1.84,1.84,0,0,0,.12.32l0,.06a.68.68,0,0,1,0,.46v.09a.87.87,0,0,0,.07.45l0,.09a3.63,3.63,0,0,1,.23.56c0,.09.07.18.11.28a1.91,1.91,0,0,1,.17.49,2.74,2.74,0,0,1,0,.5c0,.11,0,.21,0,.33a.78.78,0,0,0,0,.14,2.05,2.05,0,0,0,.08.2,2.07,2.07,0,0,1,.13.43.79.79,0,0,0,.1.34l0,.07a.65.65,0,0,1,.16.42c0,.09-.07.17-.24.3a.86.86,0,0,0-.31.81.56.56,0,0,1,0,.34l-.07.19a4,4,0,0,1-.2.52,1,1,0,0,1-.42.34,1,1,0,0,0-.5.72,1.08,1.08,0,0,1-.15.53l-.09.15s-.06.17-.09.29a1.08,1.08,0,0,1-.23.48,1.88,1.88,0,0,1-.34.28,3.14,3.14,0,0,0-.4.34,2.36,2.36,0,0,0-.26.36c-.12.17-.21.3-.31.42a2.42,2.42,0,0,1-.32.32,3.23,3.23,0,0,0-.37.37,2,2,0,0,1-.33.31,1.35,1.35,0,0,0-.3.27l0,.05a1.06,1.06,0,0,1-.38.29.83.83,0,0,0-.42.87.87.87,0,0,1,0,.42.76.76,0,0,1-.34.44,1,1,0,0,0-.32.4,2.33,2.33,0,0,1-.27.52.84.84,0,0,0-.14.41.49.49,0,0,0,0,.12c0,.3,0,.46-.15.53a2,2,0,0,1-.66.21,1.58,1.58,0,0,0-.25,0Z" style="fill:#fff"/><path d="M2.26,38.12a1.5,1.5,0,0,1,.22.86,2.74,2.74,0,0,1-.34,1.58c-.07.08-.12.13-.16.13a1.73,1.73,0,0,0-.47.25l-.22.13a.54.54,0,0,1-.26.09l-.21,0a2.45,2.45,0,0,0,0,.45c0,.27,0,.44,0,.52,0,.55-.05,1-.07,1.26a2.72,2.72,0,0,1-.09.6c-.06.15-.14.22-.25.22s-.34-.33-.34-1v-.6c0-.12,0-.31,0-.57a1.63,1.63,0,0,0,0-.28l0-.73c.05-.83.07-1.55.07-2.15h0c0-.33.1-.49.24-.49a.17.17,0,0,1,.18.12.91.91,0,0,1,.07.34.84.84,0,0,0,0,.1.53.53,0,0,0,0,.11.05.05,0,0,0,0,0A.93.93,0,0,0,1,39.06.82.82,0,0,1,1.31,39h.08a.32.32,0,0,0,.17,0,.18.18,0,0,0,0-.13.56.56,0,0,0-.08-.27.23.23,0,0,0-.21-.13.12.12,0,0,0-.1,0,.49.49,0,0,0-.08.13.76.76,0,0,1-.08.11.14.14,0,0,1-.09,0,.09.09,0,0,1-.1-.06.41.41,0,0,1,0-.16A.78.78,0,0,1,1,38a.73.73,0,0,1,.53-.17A.83.83,0,0,1,2.26,38.12Zm-.82,2.16a.87.87,0,0,0,.15-.54.35.35,0,0,0,0-.2s-.09-.06-.19-.06a.57.57,0,0,0-.33.07.5.5,0,0,0-.11.22A.52.52,0,0,1,.84,40a.29.29,0,0,0-.06.19v.09c0,.19,0,.28.12.28H1A.77.77,0,0,0,1.44,40.28Zm2.93,3.15h.2c.2,0,.31,0,.31.16a.34.34,0,0,1-.15.27s-.34.15-.92.37l-.89.32-.1,0-.11-.1A.66.66,0,0,1,2.48,44a2.35,2.35,0,0,1,0-.58,11.49,11.49,0,0,1,.07-1.33c0-.43.16-.64.34-.64a.15.15,0,0,1,.15.09,1.08,1.08,0,0,1,0,.25.56.56,0,0,0,0,.19.07.07,0,0,0,.07.05l.15,0,.11,0a.69.69,0,0,1,.26-.06.5.5,0,0,1,.52.28,2,2,0,0,1,.12.75,1.39,1.39,0,0,1,0,.27c0,.1,0,.17,0,.22Zm-1-.1a1.65,1.65,0,0,0,.15-.48.34.34,0,0,0,0-.18.11.11,0,0,0-.11-.07c-.2,0-.3.13-.3.4v.36c0,.23,0,.35.06.35S3.24,43.58,3.35,43.33ZM7.2,38.66c0,.58-.06,1.1-.06,1.55s0,1.14.05,2c0,.23,0,.52,0,.85s0,.73,0,1.18a5.89,5.89,0,0,1-.09,1.08,3.1,3.1,0,0,1-.34.92l-.09.16c-.06.09-.11.13-.16.13s-.08,0-.15-.11-.1-.12-.1-.16a1.77,1.77,0,0,1,0-.3c0-.11,0-.19,0-.23s.07-.3.08-.39c0-.52.08-1.2.08-2v-.61A12.57,12.57,0,0,0,6.4,40a3.2,3.2,0,0,0-.75.26l-.21.09a1.41,1.41,0,0,1-.17.35.31.31,0,0,1-.27.11.46.46,0,0,1-.29-.07.3.3,0,0,1-.09-.26,6.07,6.07,0,0,1,0-.71c0-.25.06-.41.07-.47a7.44,7.44,0,0,0,.12-1.17s0-.1,0-.22a.4.4,0,0,1,.08-.29.28.28,0,0,1,.25-.11.39.39,0,0,1,.14,0l.1.06a2.25,2.25,0,0,0,.26-.32,3.45,3.45,0,0,1,.48-.54.69.69,0,0,1,.49-.19.55.55,0,0,1,.59.59C7.24,37.45,7.23,38,7.2,38.66Zm-.78.77a1.33,1.33,0,0,0,0-.28,1.38,1.38,0,0,0-.62.15.48.48,0,0,0-.29.44.25.25,0,0,0,0,.07.07.07,0,0,0,.06,0A3.08,3.08,0,0,0,6,39.69l.42-.18ZM6,37.55a2.41,2.41,0,0,0-.37.41.67.67,0,0,0-.17.35.2.2,0,0,0,.16.21,1.43,1.43,0,0,0,.38,0,.6.6,0,0,0,.29,0s.07-.1.07-.23v-.43a2,2,0,0,0-.05-.49A.62.62,0,0,0,6,37.55Z" style="fill:#fff"/><path d="M15,37.37a.26.26,0,0,1,.09-.1,2.54,2.54,0,0,1,.78-.18,7.36,7.36,0,0,1,.92-.09.35.35,0,0,1,.23.07.23.23,0,0,1,.09.2.19.19,0,0,1-.1.18.92.92,0,0,1-.28.13.91.91,0,0,0-.26.12.78.78,0,0,0-.09.2,2.09,2.09,0,0,1-.1.23l-.15.23-.14.2a.41.41,0,0,0,0,.19q0,.09.06.09a.6.6,0,0,0,.23-.1l.21-.1a.88.88,0,0,1,.38-.09c.36,0,.54.53.54,1.58v.41a3.2,3.2,0,0,1-.09.8l-.13.41a.09.09,0,0,0,.07.09c.18.07.38.14.59.2a4.35,4.35,0,0,1,.72.3,3.19,3.19,0,0,1,.67.51.41.41,0,0,1,.18.3.25.25,0,0,1-.09.2.33.33,0,0,1-.22.08,1.06,1.06,0,0,1-.54-.16,4.4,4.4,0,0,1-.6-.46,3.74,3.74,0,0,0-.61-.45,1,1,0,0,0-.54-.16h-.07a1.3,1.3,0,0,0-.27.36l-.15.27-.23.4a.57.57,0,0,1-.19.19.42.42,0,0,0-.13.08s.18.13.51.25a7.2,7.2,0,0,1,.77.34.38.38,0,0,1,.25.33.19.19,0,0,1-.12.17.81.81,0,0,1-.27,0,2,2,0,0,1-.6-.11c-.23-.07-.51-.17-.86-.31s-.6-.23-.8-.29A2.49,2.49,0,0,0,14,43.8a9.51,9.51,0,0,0-1.33-.11,5.25,5.25,0,0,0-.89,0,.21.21,0,0,0-.11.1l-.09.25a2.11,2.11,0,0,1-.14.32.23.23,0,0,1-.2.1.21.21,0,0,1-.2-.11.49.49,0,0,1-.06-.25,4,4,0,0,1,.27-1.28,3.13,3.13,0,0,1,.61-1.1.39.39,0,0,1,.1-.08.16.16,0,0,1,.1,0c.06,0,.1,0,.11.12h0a10.59,10.59,0,0,0-.31,1.13v0a.19.19,0,0,0,0,.08c0,.1,0,.15.11.15a.63.63,0,0,0,.23-.05.41.41,0,0,0,.19-.11s0-.09,0-.25,0-.27.05-.36a3.67,3.67,0,0,1,.07-.52l.06-.24a1.13,1.13,0,0,0,0-.3l0-.07a2.06,2.06,0,0,0-.65.22l-.46.17a1.5,1.5,0,0,1-.37.05.27.27,0,0,1-.16-.08.22.22,0,0,1-.08-.15.36.36,0,0,1,.15-.28,4.49,4.49,0,0,1,.74-.43c.4-.19.79-.37,1.19-.54a2.84,2.84,0,0,1,.76-.24.24.24,0,0,1,.22.23.43.43,0,0,1-.07.27,1.16,1.16,0,0,1-.25.24,1.56,1.56,0,0,0-.31.33.78.78,0,0,0-.12.46c0,.29,0,.44.08.44a.94.94,0,0,0,.25-.09,1.07,1.07,0,0,1,.42-.14c.11,0,.16,0,.16.12s0,.13-.14.21l-.41.25-.24.14a.86.86,0,0,0-.16.13.59.59,0,0,0-.11.38s0,.08,0,.11a1.69,1.69,0,0,0,.38.07l.38,0a8.56,8.56,0,0,1,1.56.34h0l.09,0a2.86,2.86,0,0,0,.07-.36,2.7,2.7,0,0,1,.11-.42,1,1,0,0,1,.15-.29.1.1,0,0,0,0-.07l-.05,0s-.07,0-.11.09-.09.08-.13.08-.2-.22-.23-.64-.06-.87-.06-1.32,0-.79,0-1.06a2.12,2.12,0,0,1,.18-.72,1,1,0,0,1,.08-.15l.06-.12a3.54,3.54,0,0,0,.17-.34.65.65,0,0,0,.06-.29h-.28a1.2,1.2,0,0,1-.44-.06c-.13-.05-.19-.12-.19-.22A.49.49,0,0,1,15,37.37Zm-3.19,1a.34.34,0,0,1,.12-.2,1.82,1.82,0,0,1,.28-.17l.19-.1a.81.81,0,0,1,.41-.13.43.43,0,0,1,.45.27,1.91,1.91,0,0,1,.1.68,2.81,2.81,0,0,1-.05.44,1.26,1.26,0,0,1-.11.38,1.24,1.24,0,0,1-.52.27A2.74,2.74,0,0,1,12,40c-.19,0-.29-.27-.29-.82V38.8A1.44,1.44,0,0,1,11.76,38.39Zm.88.74a.15.15,0,0,0-.14-.1c-.07,0-.12,0-.17.13a.61.61,0,0,0-.06.25v.06a.21.21,0,0,0,.1,0,.88.88,0,0,0,.29-.06v-.1A.85.85,0,0,0,12.64,39.13Zm-.06-.48a.21.21,0,0,0,.07-.15c0-.06,0-.09-.08-.09a.21.21,0,0,0-.16.06.22.22,0,0,0-.07.17v0l.06,0h0A.17.17,0,0,0,12.58,38.65ZM16.69,41a.09.09,0,0,0-.07,0,1.17,1.17,0,0,0-.46.16c-.21.11-.32.21-.32.29v.14l.06,0,.43-.21c.26-.13.38-.23.38-.32A.1.1,0,0,0,16.69,41Zm0-1.88s-.05-.07-.08-.07a.63.63,0,0,0-.44.25.72.72,0,0,0-.22.47h0a1.59,1.59,0,0,0,.39-.17l.29-.16a.2.2,0,0,0,.09-.19A.39.39,0,0,0,16.68,39.12Zm0,.92h0a.71.71,0,0,0-.35.19c-.16.13-.24.23-.24.31s0,.15.1.15a.56.56,0,0,0,.15,0,.58.58,0,0,1,.16,0,.38.38,0,0,0,.19-.08.31.31,0,0,0,0-.2A.77.77,0,0,0,16.66,40Z" style="fill:#fff"/></g></g></svg>