<svg xmlns="http://www.w3.org/2000/svg" width="268.75" height="274.24" viewBox="0 0 268.75 274.24"><title>Setting</title><g id="圖層_2" data-name="圖層 2"><g id="圖層_1-2" data-name="圖層 1"><circle cx="134.38" cy="137.12" r="134.3" style="fill:#ffef75"/><path d="M268.67,137.12a132,132,0,0,1-8.93,51.93,134.43,134.43,0,0,1-72.94,74.62,135.35,135.35,0,0,1-104.85,0A134.48,134.48,0,0,1,9,189.05,132,132,0,0,1,.08,137.12l.38,6.58.69,6.54c.28,2.18.65,4.34,1,6.5S3,161,3.39,163.18A132.08,132.08,0,0,0,11.57,188,134.64,134.64,0,0,0,84,258.74a133.68,133.68,0,0,0,100.75,0A134.58,134.58,0,0,0,257.19,188a131.84,131.84,0,0,0,8.18-24.81c.42-2.14.91-4.28,1.27-6.44s.68-4.32,1-6.5l.7-6.54Z" style="fill:#edda6e"/><path d="M.08,137.12A131.85,131.85,0,0,1,9,85.19,134.42,134.42,0,0,1,82,10.57a135.33,135.33,0,0,1,104.84,0,134.46,134.46,0,0,1,72.95,74.63,131.83,131.83,0,0,1,8.92,51.93l-.38-6.58L267.6,124c-.28-2.18-.64-4.34-1-6.5s-.85-4.29-1.27-6.44a133.54,133.54,0,0,0-8.18-24.81A134.7,134.7,0,0,0,184.75,15.5,133.8,133.8,0,0,0,84,15.49,134.67,134.67,0,0,0,11.56,86.25a132.57,132.57,0,0,0-8.18,24.81c-.41,2.15-.91,4.28-1.27,6.44s-.68,4.32-1,6.5l-.69,6.54Z" style="fill:#edda6e"/><circle cx="134.38" cy="137.12" r="102.9" style="fill:#00b68b"/><path d="M31.48,137.12a102.9,102.9,0,1,1,205.8,0,103.23,103.23,0,0,0-63.77-94.48,103.18,103.18,0,0,0-78.27,0,103.21,103.21,0,0,0-63.76,94.48Z" style="fill:#a3964b"/><path d="M237.28,137.12a101.8,101.8,0,0,1-7.19,39.65,103.87,103.87,0,0,1-22.19,33.88,102.33,102.33,0,0,1-33.65,22.73,102.84,102.84,0,0,1-79.75,0,102.51,102.51,0,0,1-33.65-22.74,104,104,0,0,1-22.19-33.88,101.61,101.61,0,0,1-7.18-39.65,103.52,103.52,0,0,0,64,93.89,103.3,103.3,0,0,0,77.78,0,103.52,103.52,0,0,0,64-93.89Z" style="fill:#9b8f48"/><path d="M106.86,5.65A134.48,134.48,0,0,0,4.19,104,74.29,74.29,0,1,0,106.86,5.65Z" style="fill:#fff;opacity:0.1"/><path d="M.08,137.12c0,1.15,0,2.29,0,3.43A114.46,114.46,0,1,0,152.48,4,134.34,134.34,0,0,0,.08,137.12Z" style="fill:#fff;opacity:0.1"/><path d="M85.5,79.07A35.44,35.44,0,0,1,57.87,51.44a.71.71,0,0,0-1.4,0A35.44,35.44,0,0,1,28.84,79.07a.71.71,0,0,0,0,1.4A35.44,35.44,0,0,1,56.47,108.1a.71.71,0,0,0,1.4,0A35.44,35.44,0,0,1,85.5,80.47.71.71,0,0,0,85.5,79.07Z" style="fill:#fff"/><path d="M236.91,195.78a23.86,23.86,0,0,1-18.61-18.61.48.48,0,0,0-1,0,23.86,23.86,0,0,1-18.61,18.61.48.48,0,0,0,0,.95,23.86,23.86,0,0,1,18.61,18.61.48.48,0,0,0,1,0,23.86,23.86,0,0,1,18.61-18.61A.48.48,0,0,0,236.91,195.78Z" style="fill:#fff"/><g style="opacity:0.77"><path d="M187.37,128.47H180A46.38,46.38,0,0,0,172.73,111l5.23-5.24a8.67,8.67,0,0,0,0-12.22h0a8.66,8.66,0,0,0-12.23,0l-5.23,5.23A46,46,0,0,0,143,91.53v-7.4a8.65,8.65,0,1,0-17.29,0v7.4a46.06,46.06,0,0,0-17.47,7.24L103,93.54a8.64,8.64,0,0,0-12.23,12.22L96,111a46.06,46.06,0,0,0-7.24,17.47h-7.4a8.67,8.67,0,0,0-8.65,8.65h0a8.67,8.67,0,0,0,8.65,8.65h7.4A46.06,46.06,0,0,0,96,163.24l-5.24,5.24A8.65,8.65,0,0,0,103,180.71l5.24-5.24a46.06,46.06,0,0,0,17.47,7.24v7.4a8.65,8.65,0,1,0,17.29,0v-7.4a46,46,0,0,0,17.48-7.24l5.23,5.24a8.68,8.68,0,0,0,12.23,0h0a8.68,8.68,0,0,0,0-12.23l-5.23-5.24A46.38,46.38,0,0,0,180,145.77h7.4a8.68,8.68,0,0,0,8.65-8.65h0A8.68,8.68,0,0,0,187.37,128.47Zm-53,39.22A30.57,30.57,0,1,1,165,137.12,30.57,30.57,0,0,1,134.38,167.69Z" style="fill:#fff"/></g></g></g></svg>