<svg xmlns="http://www.w3.org/2000/svg" width="10.7mm" height="16.71mm" viewBox="0 0 30.32 47.36"><title>soundoff</title><g id="圖層_2" data-name="圖層 2"><g id="圖層_1-2" data-name="圖層 1"><g style="opacity:0.5"><path d="M19.11,10.29a6.34,6.34,0,0,1,.41.6,5.92,5.92,0,0,1,.45.57,5,5,0,0,1,.36.64,5.71,5.71,0,0,1,.13.72,5.94,5.94,0,0,1,.14.71,5.68,5.68,0,0,1,.11.72,5.9,5.9,0,0,1-.09.72,6,6,0,0,1-.05.73,5.68,5.68,0,0,1-.22.7,5,5,0,0,1-.41.61,5.76,5.76,0,0,1-.37.63c-.15.19-.31.37-.48.55a.71.71,0,0,0-.16.58.88.88,0,0,0,.16.6,1,1,0,0,0,.59.31.87.87,0,0,0,.6-.3,6.11,6.11,0,0,0,.52-.49,6.82,6.82,0,0,0,.4-.59c.13-.2.23-.43.34-.64s.07-.48.16-.7.16-.43.23-.66.31-.4.35-.63a5.79,5.79,0,0,0,0-.72,5.77,5.77,0,0,0,.1-.71c0-.23-.15-.46-.17-.69s-.07-.46-.11-.69,0-.49,0-.72-.2-.43-.29-.65-.24-.41-.35-.62-.09-.49-.22-.68-.37-.32-.52-.51-.29-.37-.45-.54a.78.78,0,0,0-.57-.28,1,1,0,0,0-.63.22,1,1,0,0,0-.26.64.94.94,0,0,0,.26.63Z" style="fill:#fff"/><path d="M22,7.72c.17.17.18.48.33.66s.28.38.41.58a6.06,6.06,0,0,1,.47.54,5.38,5.38,0,0,1,.31.64c.11.21.44.33.53.55s.05.5.12.73.06.47.12.71.13.45.16.69.21.46.23.7-.07.49-.07.73,0,.47,0,.71.09.5.06.74-.24.44-.3.68-.15.45-.22.68,0,.49-.13.71-.22.43-.33.65-.35.34-.48.55-.16.46-.3.66-.4.28-.56.46-.2.45-.37.62a.72.72,0,0,0-.21.58.87.87,0,0,0,.18.61,1.06,1.06,0,0,0,.61.35c.2,0,.3-.3.48-.48s.43-.23.59-.41.34-.33.48-.52.16-.46.29-.66.41-.3.52-.5.12-.47.23-.69.14-.44.23-.66.3-.39.37-.61.16-.45.22-.67.1-.47.15-.7-.07-.48,0-.71.07-.46.08-.7.2-.46.2-.7-.2-.46-.22-.69a5.37,5.37,0,0,0,0-.7c0-.23-.12-.45-.17-.68s0-.47-.08-.7,0-.48-.09-.7-.28-.4-.37-.62-.21-.41-.31-.62-.11-.48-.22-.68-.28-.38-.41-.58-.29-.36-.44-.55-.33-.32-.49-.5-.21-.44-.37-.61a.75.75,0,0,0-.58-.2.87.87,0,0,0-.61.19.91.91,0,0,0-.21.6.78.78,0,0,0,.22.59S22,7.72,22,7.72Z" style="fill:#fff"/><path d="M24.8,5.51c.16.16.31.33.47.51s.42.25.56.43.36.32.5.51,0,.56.13.75.26.38.37.58.31.36.41.57.3.38.39.59.25.42.32.63,0,.5.07.72-.06.49,0,.72.33.4.37.63-.05.48,0,.71,0,.46,0,.69.06.46.06.69,0,.47,0,.7-.12.45-.15.68.07.47,0,.7-.06.47-.11.69-.07.47-.13.69-.36.37-.44.59.17.56.08.77-.18.44-.28.65-.35.35-.46.56-.18.44-.3.63-.19.44-.33.63-.3.36-.45.55-.46.22-.61.39-.29.36-.45.53a1,1,0,0,0-.37.63,1.27,1.27,0,0,0,.3.69,1.2,1.2,0,0,0,.7.21c.19,0,.34-.2.52-.38s.44-.26.6-.44.31-.39.46-.58.33-.37.47-.57.27-.42.4-.62.12-.51.24-.72.43-.33.54-.54.21-.46.31-.68.21-.45.3-.68.09-.49.17-.72,0-.52.05-.75.13-.47.18-.71.22-.45.26-.7-.05-.49,0-.74.37-.46.39-.71-.32-.5-.32-.75.1-.48.08-.73.12-.5.09-.75S30,12.28,30,12s-.31-.44-.36-.68.27-.57.2-.81-.24-.45-.31-.68-.22-.45-.31-.68-.18-.46-.28-.68-.4-.35-.51-.57-.17-.45-.3-.67-.18-.45-.32-.66-.15-.49-.29-.69-.31-.38-.47-.58-.44-.26-.6-.45-.39-.3-.56-.47-.24-.23-.43-.22a.61.61,0,0,0-.49.18c-.15.15-.51.27-.52.48a1,1,0,0,0,.35.61S24.8,5.51,24.8,5.51Z" style="fill:#fff"/><path d="M13.13,6.07c-.33.16-.28.26-.62.42s-.36.1-.7.27-.34.13-.68.29-.28.27-.62.43-.38.08-.71.24-.28.26-.62.42-.42,0-.76.15-.28.28-.61.45l-.68.31c-.34.17-.3.33-.67.41s-.38,0-.74,0H5c-.35,0-.35,0-.71,0s-.35.09-.71.09-.35-.11-.71-.11-.35.11-.71.11-.57-.18-.81-.08a2.46,2.46,0,0,0-.61.55c-.18.19-.45.36-.56.6s0,.55,0,.82.09.36.09.72-.1.36-.1.72-.06.36-.06.72-.15.36-.15.72.26.36.26.72-.16.36-.16.72,0,.36,0,.72,0,.36,0,.72a2,2,0,0,0,.24.77,1.84,1.84,0,0,0,.48.59c.19.19.3.5.55.6a2.17,2.17,0,0,0,.81.07c.36,0,.36.07.71.07s.35.08.7.08.36-.18.71-.18.35.2.71.2.35-.12.71-.12.37-.16.72-.08.27.31.6.48.37.1.7.26.28.27.62.44.45-.08.79.08.22.38.56.55.45-.09.79.07.3.22.64.39l.67.33c.33.17.28.27.62.43s.34.15.68.32.5,0,.73.05.51.27.75.22.44-.28.65-.41a2.29,2.29,0,0,0,.55-.48,2.16,2.16,0,0,0,.23-.69,1.87,1.87,0,0,0,.14-.68c0-.36,0-.36,0-.73s.23-.36.23-.73,0-.37,0-.73-.08-.37-.08-.73,0-.37,0-.73.14-.37.14-.73-.32-.37-.32-.74.05-.36.05-.73,0-.37,0-.73.1-.37.1-.74,0-.37,0-.73.11-.37.11-.74-.1-.36-.1-.73.16-.37.16-.73-.07-.37-.07-.74-.08-.37-.08-.74-.09-.37-.09-.74A1.87,1.87,0,0,0,16,7.33c-.08-.24,0-.54-.18-.73a2.4,2.4,0,0,0-.61-.43,2.26,2.26,0,0,0-.65-.38,2.5,2.5,0,0,0-.75.12A2.22,2.22,0,0,0,13.13,6.07ZM2.32,11.63A.66.66,0,0,1,2.89,11a.7.7,0,0,1,.61.66c0,.24,0,.47,0,.7s.12.47.12.7-.1.46-.1.7.1.46.1.69-.2.47-.2.7a.54.54,0,0,1-.49.6.64.64,0,0,1-.61-.6c0-.23-.08-.47-.08-.7s0-.46,0-.69V13c0-.23,0-.47,0-.7S2.32,11.87,2.32,11.63ZM3.46,17a.7.7,0,0,1-.56.68c-.3,0-.62-.39-.62-.68,0-.11,0-.23,0-.35a.73.73,0,0,1,.57-.69c.3,0,.6.41.6.69C3.48,16.74,3.46,16.86,3.46,17Z" style="fill:#fff"/></g><path d="M6.69,40a.41.41,0,0,1,.3-.12,1.34,1.34,0,0,0,.35,0l.41-.13.42-.13a1.24,1.24,0,0,1,.33,0,.69.69,0,0,1,.32.08.3.3,0,0,1,.14.26,4.27,4.27,0,0,1-.07.71c-.05.24-.14.35-.28.35a.25.25,0,0,1-.15-.05.18.18,0,0,1-.07-.15,1.21,1.21,0,0,1,0-.19,1.36,1.36,0,0,0,0-.2,0,0,0,0,0,0,0H8.32c-.06,0-.11.06-.14.18a2.23,2.23,0,0,0,0,.36c0,.11,0,.19,0,.22h.12c.11,0,.17,0,.17.09s-.06.14-.18.26a3,3,0,0,1-.39.31.64.64,0,0,1-.29.15l-.08,0a.09.09,0,0,1,0-.06,2.28,2.28,0,0,0,.39-1.12.33.33,0,0,0,0-.12.07.07,0,0,0-.07,0,.27.27,0,0,0-.29.18,1.36,1.36,0,0,0-.06.45s0,.13,0,.28a.61.61,0,0,1-.06.34,6,6,0,0,1-.21,1.33,5.89,5.89,0,0,1-.33,1.26.2.2,0,0,1-.17.08.19.19,0,0,1-.18-.1.44.44,0,0,1-.06-.23,4.25,4.25,0,0,1,.07-.8c0-.26.12-.61.22-1,.06-.22.12-.45.16-.67,0-.06,0-.17.07-.34A2.25,2.25,0,0,0,7,40.73a.12.12,0,0,0,0-.09.62.62,0,0,0-.12-.08.83.83,0,0,1-.17-.12.29.29,0,0,1-.06-.21A.34.34,0,0,1,6.69,40Zm.88-3a.55.55,0,0,1,.06-.28.25.25,0,0,1,.23-.1.2.2,0,0,1,.2.09,1.26,1.26,0,0,1,.07.28.73.73,0,0,0,0,.25.14.14,0,0,0,.14.08.37.37,0,0,1,.22.08.29.29,0,0,1,.09.21.29.29,0,0,1-.06.21.55.55,0,0,1-.21.12.6.6,0,0,0-.27.17.52.52,0,0,0-.09.36s0,.09.05.09a2.34,2.34,0,0,1,.44-.06.38.38,0,0,1,.24.08.28.28,0,0,1,.09.22.3.3,0,0,1-.19.27,2.9,2.9,0,0,1-.51.15l-.29.07-.23.11a.79.79,0,0,1-.32.08.22.22,0,0,1-.18-.11A.41.41,0,0,1,7,39.17a.2.2,0,0,1,0-.14.45.45,0,0,1,.14-.11.64.64,0,0,0,.19-.17.53.53,0,0,0,.06-.28.57.57,0,0,0,0-.25,1,1,0,0,0-.29.07.56.56,0,0,1-.24.07.18.18,0,0,1-.16-.09.41.41,0,0,1,0-.19.48.48,0,0,1,.18-.4,1.82,1.82,0,0,1,.47-.28q.24-.09.24-.15S7.58,37.14,7.57,37Zm1.31,5.17a6.4,6.4,0,0,1,1-.39,4.1,4.1,0,0,1,.82-.16.41.41,0,0,1,.42.32,3.59,3.59,0,0,1,.13.89,2.9,2.9,0,0,0,.06.54c0,.11.07.17.15.17l.33,0,.25,0a4.4,4.4,0,0,1,.58,0,.24.24,0,0,1,.16.09.29.29,0,0,1,.08.18.38.38,0,0,1-.21.37,2.11,2.11,0,0,1-.61.16,2.53,2.53,0,0,0-.47.11.37.37,0,0,0-.23.21,4.24,4.24,0,0,0-.08.93,11.17,11.17,0,0,1-.13,1.38c0,.32-.16.48-.31.48a.16.16,0,0,1-.15-.11.59.59,0,0,1-.05-.23c0-.2,0-.36,0-.5s0-.26,0-.35c0-.28,0-.57,0-.85s-.06-.65-.18-.65a1.86,1.86,0,0,0-.48.06l-.58.18L9.22,45l-.41.1a2.6,2.6,0,0,1-.37,0,.58.58,0,0,1-.26-.06.2.2,0,0,1-.13-.19.92.92,0,0,1,0-.19.38.38,0,0,1,.09-.15.62.62,0,0,1,.33-.16l.79-.22L9.79,44a.73.73,0,0,0,.26-.11.2.2,0,0,0-.2-.09l-.14,0-.14,0a.24.24,0,0,1-.23-.16.61.61,0,0,1-.08-.32.83.83,0,0,1,.06-.27,1,1,0,0,0,.07-.26c0-.05,0-.08-.11-.08a.92.92,0,0,0-.26.07.6.6,0,0,1-.27.07.42.42,0,0,1-.25-.06.3.3,0,0,1-.08-.24C8.42,42.49,8.57,42.34,8.88,42.19Zm1.87.14a.16.16,0,0,0-.11,0,1.11,1.11,0,0,0-.31.07,2.1,2.1,0,0,0-.4.18q-.18.09-.18.18c0,.07,0,.1.13.1a1.39,1.39,0,0,0,.36-.09l.47-.15a.13.13,0,0,0,.1-.13A.15.15,0,0,0,10.75,42.33Zm-.46.8c-.21,0-.34.12-.38.21a.27.27,0,0,0,.25.1,1.72,1.72,0,0,0,.44-.1q.3-.11.3-.21l0-.06,0,0A2.43,2.43,0,0,0,10.29,43.13Zm.23-3.59a1.54,1.54,0,0,1,.51-.4,1.17,1.17,0,0,1,.56-.16.33.33,0,0,1,.3.16.54.54,0,0,1,.12.34,1.53,1.53,0,0,1,0,.3,1,1,0,0,0-.05.28s0,.08.11.12l.36.16a4.09,4.09,0,0,1,.65.34.38.38,0,0,1,.22.32.35.35,0,0,1-.1.25.33.33,0,0,1-.25.1,1.14,1.14,0,0,1-.44-.11,6,6,0,0,1-.58-.34,1.47,1.47,0,0,0-.45-.23.73.73,0,0,0-.18.14.58.58,0,0,1-.35.21.22.22,0,0,1-.13,0,.13.13,0,0,1-.07-.11.35.35,0,0,1,0-.12l.06-.13a.6.6,0,0,0,.11-.25s0,0-.06-.06l-.1,0-.07,0a1.05,1.05,0,0,1-.25-.08.14.14,0,0,1-.1-.14A.8.8,0,0,1,10.52,39.54Zm.21-1.87a.67.67,0,0,1,.64-.46.19.19,0,0,1,.18.1,2,2,0,0,1,.13.33,2.21,2.21,0,0,0,.18.4.31.31,0,0,0,.28.13.41.41,0,0,0,.15,0l.11,0a.91.91,0,0,1,.26,0,.09.09,0,0,1,.07,0,.16.16,0,0,1,0,.09c0,.1-.1.2-.29.28a1.47,1.47,0,0,1-.47.11.69.69,0,0,1-.36-.09,1.89,1.89,0,0,1-.27-.2c-.09-.07-.13-.1-.15-.1s-.06.07-.11.22a1.92,1.92,0,0,1-.16.39c-.06.1-.12.15-.2.15a.19.19,0,0,1-.18-.08.63.63,0,0,1,0-.23A2.48,2.48,0,0,1,10.73,37.67Zm.81,2.2a2.18,2.18,0,0,0,0-.27c0-.07,0-.1-.13-.1s-.1,0-.19.11-.14.13-.14.18.06.08.17.13a.77.77,0,0,0,.23.08S11.54,40,11.54,39.87Z" style="fill:#fff"/><path d="M20,37.8a.37.37,0,0,1,.6,0,.7.7,0,0,1,.12.4.76.76,0,0,1-.05.19.54.54,0,0,0,0,.2c0,.05,0,.07.09.07a1.24,1.24,0,0,0,.27,0l.14,0h.46c.35,0,.52.07.52.21A.22.22,0,0,1,22,39a.75.75,0,0,1-.2.1.52.52,0,0,0-.18.07.51.51,0,0,0-.22.22c-.06.12-.15.29-.25.52a2.35,2.35,0,0,1-.19.37l-.07.1a.24.24,0,0,0-.05.13s.06.05.18.05a3.57,3.57,0,0,0,.76-.11,3.86,3.86,0,0,1,.75-.1,1.73,1.73,0,0,1,.54.07.29.29,0,0,1,.23.3.33.33,0,0,1-.11.25.5.5,0,0,1-.25.13,11,11,0,0,1-1.19.17l-.73.05-.75.07a14.64,14.64,0,0,1-1.52.07,1.44,1.44,0,0,1-.45-.06.25.25,0,0,1-.18-.27c0-.13.07-.22.23-.27a3.33,3.33,0,0,1,.64-.12l.29,0a.34.34,0,0,0,.16-.07,1.9,1.9,0,0,0,0-.44V39.6h-.33a1.16,1.16,0,0,1-.44-.07.24.24,0,0,1-.19-.23c0-.12.08-.2.23-.25a3.27,3.27,0,0,1,.67-.12l.48-.08c.1,0,.15-.07.15-.14a.69.69,0,0,0-.09-.27l-.05-.12a.45.45,0,0,1,0-.2A.47.47,0,0,1,20,37.8Zm-.39,5.43a2.67,2.67,0,0,1,.2-1,.23.23,0,0,1,.17-.08.35.35,0,0,1,.21.07l.17.1.34-.07.16,0a1,1,0,0,1,.24,0,.49.49,0,0,1,.5.26,2.07,2.07,0,0,1,.1.73v.53c0,.24,0,.42,0,.53s0,.12.07.13h-.07a.8.8,0,0,1,.28.13.29.29,0,0,1,.12.24.35.35,0,0,1-.09.28.49.49,0,0,1-.27.1l-.1,0-.13,0a1.65,1.65,0,0,1-.54.07h-.45a1.12,1.12,0,0,0-.27,0,.54.54,0,0,0-.16.09.28.28,0,0,1-.18.08c-.14,0-.23-.08-.28-.26a2.45,2.45,0,0,1-.07-.56C19.49,44.24,19.52,43.79,19.57,43.23Zm1.57.68a.12.12,0,0,0-.11,0,.74.74,0,0,0-.27.06l-.24.08c-.21,0-.32.16-.32.33a.14.14,0,0,0,.16.16l.21,0,.2,0,.18,0a.22.22,0,0,0,.17-.09.55.55,0,0,0,0-.23A.63.63,0,0,0,21.14,43.91Zm0-1.14a.18.18,0,0,0-.15-.06.94.94,0,0,0-.48.16c-.18.12-.27.23-.27.35s0,.08.09.08l.15,0a1.18,1.18,0,0,1,.39-.08l.29,0c0-.1,0-.17,0-.22A.39.39,0,0,0,21.12,42.77Zm-.39-3.33h-.17a.4.4,0,0,0-.27.07.46.46,0,0,0-.06.28c0,.15,0,.22.07.22s.12-.08.26-.26l.23-.29Z" style="fill:#fff"/><path d="M4,26.73c2-.4,2.58-1.68,3.08-3.55L5.25,24.56a5.19,5.19,0,0,0,4.91-4.89L8.29,21.55l1.08.08a1.9,1.9,0,0,0,1.87-1.88c0-.94-.41,0-.62.42a3.65,3.65,0,0,1,.81-.7c1.56-.36-1.3-.56.47-.34,1.06.12,1.81-1,1.88-1.88s-1.28.56.13.29a1.91,1.91,0,0,0,1.38-1.81c.1-1.22-1.68.93.05.22a4,4,0,0,0,1.8-1.5c1-1.41.5-1.3,2.24-2.14a1.88,1.88,0,0,0,.93-1.62l0-1L19,11.53c2-.47,2.53-2.06,3.25-2.77,1.41-1.41,2.29-1.67,3-3.72L23.4,6.42l1.08.06A1.91,1.91,0,0,0,26.35,4.6c.07-.72-.92.77.45,0,.7-.42.74-.86,1-1C29.89,2.28,28-1,25.93.28c-.49.29-.87.77-1.31,1.06s.54-.79-.49.2A3.94,3.94,0,0,0,22.6,4.6l1.88-1.87L23.4,2.67a1.91,1.91,0,0,0-1.81,1.38,4.18,4.18,0,0,1-.32.94c-.41.6.77-.9,0-.21-.44.41-1,.69-1.47,1.07a8.48,8.48,0,0,0-1.29,1.32c-1.11,1.47.84.42-.56.74a1.94,1.94,0,0,0-1.38,1.81c0,.65,1.15-.64-.29-.07a3.78,3.78,0,0,0-1.47,1.12c-.29.34-.51.87-.77,1.25-.83,1.24.83.25-.24.23a1.87,1.87,0,0,0-1.62.93,6.64,6.64,0,0,0-.66,2.55l1.38-1.8c-2,.37-2.74,1.34-2.89,3.32l1.87-1.87c-2.71-.33-4.36,1.92-4.41,4.37l1.88-1.87L8.29,17.8a1.89,1.89,0,0,0-1.88,1.87c0,1.41,1-.94.31-.23-.25.27-.56.6-.83.86s-.53.6-.81.87c-.76.76,1.69-.31.17-.36a1.91,1.91,0,0,0-1.81,1.37,4.57,4.57,0,0,1-.32,1.18c.2-.28.56-.38-.14-.24-2.37.46-1.37,4.08,1,3.61Z" style="fill:#fff"/></g></g></svg>