<svg xmlns="http://www.w3.org/2000/svg" width="10.69mm" height="15.23mm" viewBox="0 0 30.31 43.16"><title>soundon</title><g id="圖層_2" data-name="圖層 2"><g id="圖層_1-2" data-name="圖層 1"><path d="M19.1,6.09a5,5,0,0,1,.42.6c.14.2.33.36.45.57a6.88,6.88,0,0,1,.36.64,6,6,0,0,1,.13.72,5.89,5.89,0,0,1,.13.71,6,6,0,0,1,.12.72,4.45,4.45,0,0,1-.1.72,5.85,5.85,0,0,1,0,.73,5.83,5.83,0,0,1-.22.71,5.9,5.9,0,0,1-.42.6,6.44,6.44,0,0,1-.36.63,6.3,6.3,0,0,1-.48.55.72.72,0,0,0-.16.58.88.88,0,0,0,.16.6,1,1,0,0,0,.59.31.89.89,0,0,0,.6-.3c.16-.17.37-.31.52-.49s.27-.4.4-.59.23-.43.34-.63.07-.49.16-.71.16-.43.23-.65.31-.41.35-.64a5.74,5.74,0,0,0,0-.72c0-.23.1-.47.1-.7a5.53,5.53,0,0,0-.18-.7c0-.24-.06-.46-.1-.69s0-.49,0-.72-.2-.43-.28-.65-.24-.4-.35-.61-.09-.49-.22-.69-.37-.32-.52-.5-.29-.37-.45-.55a.8.8,0,0,0-.57-.28,1,1,0,0,0-.63.23,1.06,1.06,0,0,0-.27.63,1,1,0,0,0,.27.63Z" style="fill:#fff"/><path d="M22,3.52c.17.17.17.49.33.67s.27.38.41.57a6.06,6.06,0,0,1,.47.54c.13.2.2.43.31.64s.44.33.52.55a5.86,5.86,0,0,1,.13.73c.07.23.06.48.12.71s.12.46.16.69.21.46.23.7-.07.49-.07.73,0,.48,0,.72.09.49.06.73-.24.45-.3.68-.15.45-.22.68,0,.49-.13.72-.22.43-.33.64-.36.35-.48.55-.16.46-.3.66-.41.28-.56.46-.2.45-.37.63a.74.74,0,0,0-.22.57,1,1,0,0,0,.19.62,1.1,1.1,0,0,0,.61.34c.19,0,.3-.3.48-.47s.43-.24.59-.41.33-.34.48-.53.16-.46.29-.65.4-.31.52-.51.12-.47.22-.68.15-.45.24-.67.29-.39.37-.61.16-.44.22-.67.1-.46.14-.69-.06-.49,0-.72.07-.46.08-.7.2-.46.2-.69-.2-.47-.22-.7,0-.46,0-.7S26,8.21,25.91,8s0-.48-.08-.7,0-.49-.09-.71-.28-.4-.37-.62-.21-.41-.32-.62-.1-.47-.22-.68-.28-.38-.41-.57-.29-.37-.43-.56-.34-.32-.49-.5-.21-.44-.37-.61a.75.75,0,0,0-.58-.2.93.93,0,0,0-.61.19.91.91,0,0,0-.21.6.77.77,0,0,0,.22.6S22,3.52,22,3.52Z" style="fill:#fff"/><path d="M24.8,1.31l.46.51c.16.17.43.25.57.44s.36.31.5.5,0,.56.12.76a5.79,5.79,0,0,1,.38.58c.11.2.31.35.41.56s.3.38.39.6.24.41.32.63,0,.49.07.71-.07.49,0,.72.33.4.37.63-.05.48,0,.71,0,.46,0,.69.06.46.06.7,0,.46,0,.69-.11.45-.14.68.06.48,0,.71-.05.46-.1.68-.07.47-.14.69-.36.37-.43.59.16.56.07.78-.18.43-.28.64-.34.36-.45.56-.18.44-.3.64-.2.43-.33.62-.3.37-.45.55-.46.22-.61.4-.29.36-.46.52a1.11,1.11,0,0,0-.36.63,1.2,1.2,0,0,0,.3.69,1.18,1.18,0,0,0,.7.21c.19,0,.34-.2.52-.38s.43-.26.6-.44.31-.39.46-.58.33-.37.47-.57.27-.42.4-.62.12-.5.24-.72.43-.32.54-.54.21-.45.31-.68.21-.45.3-.68.09-.49.16-.72,0-.51.06-.75.12-.47.17-.71a6.46,6.46,0,0,0,.26-.69c0-.25,0-.5,0-.75s.37-.46.38-.71-.31-.5-.31-.74.09-.49.08-.74.12-.5.09-.75S30,8.08,30,7.84s-.31-.44-.37-.68.28-.57.21-.81-.24-.44-.32-.68-.21-.45-.3-.67-.18-.46-.28-.69-.4-.35-.51-.57-.18-.45-.3-.66-.19-.46-.32-.66-.15-.5-.29-.7l-.47-.57c-.15-.19-.44-.27-.6-.46S26.06.4,25.88.22,25.65,0,25.45,0A.6.6,0,0,0,25,.19c-.15.15-.5.26-.51.48a1,1,0,0,0,.35.6C24.82,1.32,24.8,1.31,24.8,1.31Z" style="fill:#fff"/><path d="M13.12,1.85c-.33.17-.31.21-.65.37s-.42,0-.75.15-.27.3-.61.46-.27.29-.6.45-.36.13-.69.29-.35.13-.68.29l-.67.34c-.33.16-.32.2-.65.36s-.38.08-.72.24-.3.26-.67.34a2.2,2.2,0,0,1-.71.15C5.37,5.29,5.37,5,5,5H4.31C4,5,4,5.16,3.6,5.16s-.35.11-.71.11-.35,0-.71,0a1.92,1.92,0,0,0-.76,0,2.08,2.08,0,0,0-.67.41,1.92,1.92,0,0,0-.39.68,1.9,1.9,0,0,0-.13.76c0,.36-.16.36-.16.72s0,.36,0,.71.07.36.07.72,0,.36,0,.72.06.36.06.72,0,.36,0,.72S0,11.84,0,12.2s.16.37.16.73a1.93,1.93,0,0,0,.28.72c.1.25,0,.59.24.78a2.09,2.09,0,0,0,.74.34,2,2,0,0,0,.76.19c.35,0,.35,0,.71,0s.35-.09.7-.09.35,0,.71,0H5c.35,0,.35,0,.71,0a2.07,2.07,0,0,1,.7.05c.36.09.27.28.6.44s.41,0,.75.17.31.21.64.38.32.2.65.36.44-.05.77.11.24.36.57.53.41,0,.75.17.22.41.55.57.41,0,.75.19.3.22.64.38a2.42,2.42,0,0,0,.73.17,2.23,2.23,0,0,0,.71-.17,1.87,1.87,0,0,0,.62-.3c.21-.13.6-.06.76-.25a2.47,2.47,0,0,0,.37-.7,2.45,2.45,0,0,0,0-.77c0-.36-.15-.36-.15-.73s.14-.36.14-.73-.12-.36-.12-.73.17-.37.17-.73-.21-.37-.21-.73,0-.37,0-.73.13-.37.13-.74.11-.36.11-.73-.24-.37-.24-.73.09-.37.09-.74.15-.36.15-.73,0-.37,0-.73V6.76c0-.36-.08-.36-.08-.73s-.1-.37-.1-.74,0-.37,0-.74.15-.37.15-.74-.21-.45-.29-.68a1.9,1.9,0,0,0-.33-.59A2.12,2.12,0,0,0,15.19,2c-.21-.13-.38-.36-.62-.41a2.17,2.17,0,0,0-.76-.09A2.52,2.52,0,0,0,13.12,1.85ZM2.34,7.44a.57.57,0,0,1,.55-.58c.27,0,.39.23.39.58s.15.46.15.69.14.47.14.7,0,.46,0,.7,0,.46,0,.69v.7a.66.66,0,0,1-.6.63.62.62,0,0,1-.55-.63c0-.23,0-.46,0-.7s-.15-.46-.15-.69.25-.47.25-.7,0-.46,0-.7S2.34,7.67,2.34,7.44Zm1.1,5.34a.61.61,0,0,1-.55.59c-.29,0-.4-.31-.4-.59,0-.12-.15-.24-.15-.36,0-.3.25-.67.54-.68s.65.4.65.68C3.53,12.54,3.44,12.66,3.44,12.78Z" style="fill:#fff"/><path d="M6.69,35.78a.41.41,0,0,1,.3-.12,1.34,1.34,0,0,0,.35,0l.41-.13.41-.13a1.32,1.32,0,0,1,.34,0,.54.54,0,0,1,.31.09.26.26,0,0,1,.14.25,3.35,3.35,0,0,1-.07.71q-.06.36-.27.36a.25.25,0,0,1-.16-.06.21.21,0,0,1-.07-.15,1.23,1.23,0,0,1,0-.19,1.23,1.23,0,0,0,0-.19.06.06,0,0,0,0-.06H8.32c-.06,0-.11.06-.14.18a1.56,1.56,0,0,0,0,.36,1.41,1.41,0,0,1,0,.22h.12c.12,0,.17,0,.17.09s-.05.14-.17.26a3,3,0,0,1-.39.31.7.7,0,0,1-.29.15l-.08,0s0,0,0,0a2.31,2.31,0,0,0,.38-1.13.41.41,0,0,0,0-.12.08.08,0,0,0-.07,0c-.15,0-.25.05-.29.17a1.32,1.32,0,0,0-.07.45s0,.13,0,.28a.71.71,0,0,1-.06.34,6.72,6.72,0,0,1-.21,1.33,5,5,0,0,1-.34,1.26.18.18,0,0,1-.16.09.23.23,0,0,1-.19-.1.47.47,0,0,1,0-.24,4.33,4.33,0,0,1,.07-.8c0-.26.11-.6.22-1,.06-.23.11-.46.16-.68,0-.06,0-.17.07-.34A2.18,2.18,0,0,0,7,36.53a.13.13,0,0,0,0-.09l-.11-.08a.37.37,0,0,1-.17-.12A.29.29,0,0,1,6.58,36,.36.36,0,0,1,6.69,35.78Zm.88-3a.55.55,0,0,1,.06-.28.28.28,0,0,1,.23-.1.2.2,0,0,1,.2.1,1,1,0,0,1,.07.28.75.75,0,0,0,0,.24.16.16,0,0,0,.15.08.29.29,0,0,1,.21.09.23.23,0,0,1,.1.2.29.29,0,0,1-.06.21.64.64,0,0,1-.21.12.7.7,0,0,0-.27.17.56.56,0,0,0-.09.36c0,.06,0,.09.05.1a1.77,1.77,0,0,1,.44-.07.36.36,0,0,1,.23.08.28.28,0,0,1,.09.22.29.29,0,0,1-.18.27,2.24,2.24,0,0,1-.51.15,1.07,1.07,0,0,0-.29.08l-.24.1a.75.75,0,0,1-.31.08.24.24,0,0,1-.18-.1A.36.36,0,0,1,7,35a.27.27,0,0,1,0-.15l.14-.11a.69.69,0,0,0,.2-.17.51.51,0,0,0,.06-.28.6.6,0,0,0,0-.25,1,1,0,0,0-.29.08.69.69,0,0,1-.24.06.18.18,0,0,1-.16-.09.3.3,0,0,1,0-.19.5.5,0,0,1,.17-.4,2.1,2.1,0,0,1,.48-.28q.24-.08.24-.15S7.58,32.94,7.57,32.82ZM8.88,38a6.41,6.41,0,0,1,1-.38,3.47,3.47,0,0,1,.82-.16.41.41,0,0,1,.42.31,3.67,3.67,0,0,1,.13.89,4.54,4.54,0,0,0,0,.54c0,.11.08.17.16.17l.33,0,.25,0a3.26,3.26,0,0,1,.58-.06.24.24,0,0,1,.16.09.29.29,0,0,1,.08.18.38.38,0,0,1-.21.37,2.56,2.56,0,0,1-.61.17,2.66,2.66,0,0,0-.47.1.4.4,0,0,0-.23.21,4.24,4.24,0,0,0-.08.93,11.17,11.17,0,0,1-.13,1.38c0,.32-.16.48-.31.48a.13.13,0,0,1-.15-.11.59.59,0,0,1-.05-.23c0-.2,0-.36,0-.5s0-.26,0-.35a7.94,7.94,0,0,0,0-.85c0-.43-.06-.64-.19-.64a2.42,2.42,0,0,0-.47.05l-.58.18a1.48,1.48,0,0,1-.28.09l-.42.1a1.59,1.59,0,0,1-.36,0,.66.66,0,0,1-.27-.06.2.2,0,0,1-.12-.19.92.92,0,0,1,0-.19.6.6,0,0,1,.09-.15.7.7,0,0,1,.33-.16L9.28,40l.51-.15a.86.86,0,0,0,.26-.11.23.23,0,0,0-.2-.08l-.14,0-.14,0a.27.27,0,0,1-.24-.15.8.8,0,0,1-.08-.33.89.89,0,0,1,.07-.27.84.84,0,0,0,.06-.26s0-.07-.1-.07a.84.84,0,0,0-.26.06.63.63,0,0,1-.27.08.36.36,0,0,1-.25-.07c-.06,0-.08-.12-.08-.23S8.57,38.15,8.88,38Zm1.87.14a.18.18,0,0,0-.11-.05,1.25,1.25,0,0,0-.31.08,1.85,1.85,0,0,0-.4.17q-.18.09-.18.18c0,.07,0,.11.13.11a2.09,2.09,0,0,0,.36-.09l.46-.16c.08,0,.11-.06.11-.13A.17.17,0,0,0,10.75,38.13Zm-.46.8c-.21,0-.34.12-.38.21s.12.1.25.1a1.37,1.37,0,0,0,.44-.1q.3-.11.3-.21l0,0-.05,0A2.35,2.35,0,0,0,10.29,38.93Zm.23-3.59a1.68,1.68,0,0,1,.51-.4,1.14,1.14,0,0,1,.56-.16.34.34,0,0,1,.3.16.54.54,0,0,1,.11.35,1.37,1.37,0,0,1,0,.29,1.1,1.1,0,0,0-.05.29s0,.07.1.11l.37.17a6.26,6.26,0,0,1,.65.33.38.38,0,0,1,.22.32.33.33,0,0,1-.1.25.34.34,0,0,1-.25.11,1,1,0,0,1-.44-.12,6.55,6.55,0,0,1-.58-.33,1.79,1.79,0,0,0-.46-.24,1.77,1.77,0,0,0-.17.14.58.58,0,0,1-.35.21.25.25,0,0,1-.14,0,.14.14,0,0,1-.07-.11.54.54,0,0,1,0-.12,1.29,1.29,0,0,0,.06-.12.62.62,0,0,0,.11-.26s0,0-.06-.06l-.1,0-.07,0L10.41,36a.15.15,0,0,1-.09-.14A.82.82,0,0,1,10.52,35.34Zm.21-1.87a.66.66,0,0,1,.64-.46.19.19,0,0,1,.18.1,2,2,0,0,1,.13.33,2.21,2.21,0,0,0,.18.4.31.31,0,0,0,.27.14l.16,0,.11,0a.85.85,0,0,1,.26-.05.08.08,0,0,1,.07,0,.11.11,0,0,1,0,.08c0,.11-.1.2-.29.28a1.29,1.29,0,0,1-.48.12.6.6,0,0,1-.35-.1,1.85,1.85,0,0,1-.27-.19.54.54,0,0,0-.15-.11s-.06.07-.11.22a2.35,2.35,0,0,1-.16.4c-.06.09-.12.14-.2.14s-.15,0-.18-.07a.65.65,0,0,1,0-.24A2.48,2.48,0,0,1,10.73,33.47Zm.81,2.2a2,2,0,0,0,0-.26.12.12,0,0,0-.13-.11.44.44,0,0,0-.2.11c-.09.08-.13.14-.13.18s.06.08.17.13a.51.51,0,0,0,.23.08S11.54,35.76,11.54,35.67Z" style="fill:#fff"/><path d="M20,33.6a.38.38,0,0,1,.29-.14.37.37,0,0,1,.32.17.69.69,0,0,1,.11.4.58.58,0,0,1,0,.19.58.58,0,0,0,0,.2s0,.07.08.07a1.27,1.27,0,0,0,.28,0l.14,0h.45c.35,0,.53.07.53.21a.23.23,0,0,1-.08.2.75.75,0,0,1-.2.1.84.84,0,0,0-.18.07.51.51,0,0,0-.22.22c-.06.12-.15.29-.25.52a2.35,2.35,0,0,1-.19.37,1.15,1.15,0,0,0-.07.11.22.22,0,0,0-.06.12s.06,0,.19,0a4.13,4.13,0,0,0,.76-.1,4.05,4.05,0,0,1,.75-.11,1.73,1.73,0,0,1,.54.07.33.33,0,0,1,.12.55.47.47,0,0,1-.25.13,9,9,0,0,1-1.19.17l-.73.06-.76.06a14.2,14.2,0,0,1-1.51.08,1.44,1.44,0,0,1-.45-.06.26.26,0,0,1-.18-.28c0-.13.07-.22.23-.27a4.32,4.32,0,0,1,.64-.11l.29,0c.09,0,.14,0,.16-.07a1.9,1.9,0,0,0,0-.44v-.61h-.33a1.12,1.12,0,0,1-.44-.08.23.23,0,0,1-.19-.23c0-.12.08-.2.23-.25a4.21,4.21,0,0,1,.66-.12l.49-.08c.1,0,.15-.07.15-.14a.69.69,0,0,0-.09-.27l-.05-.11a.52.52,0,0,1,0-.21A.45.45,0,0,1,20,33.6ZM19.57,39a2.36,2.36,0,0,1,.2-1,.2.2,0,0,1,.17-.09.44.44,0,0,1,.21.07l.17.1a2,2,0,0,0,.34-.07l.16,0a.67.67,0,0,1,.24,0,.46.46,0,0,1,.49.27,1.75,1.75,0,0,1,.11.72v.53c0,.24,0,.42,0,.54s0,.12.06.12h-.06a.8.8,0,0,1,.28.13.29.29,0,0,1,.12.24c0,.14,0,.24-.09.28a.69.69,0,0,1-.27.11l-.1,0a.38.38,0,0,0-.13,0,1.65,1.65,0,0,1-.54.07h-.45a.77.77,0,0,0-.27,0,.29.29,0,0,0-.16.09.34.34,0,0,1-.18.08c-.14,0-.23-.09-.28-.27a2,2,0,0,1-.07-.56C19.49,40.05,19.52,39.59,19.57,39Zm1.57.68a.12.12,0,0,0-.11-.05.74.74,0,0,0-.27.06l-.24.08c-.21.05-.32.16-.32.33a.14.14,0,0,0,.16.16l.21,0,.2,0,.18,0a.2.2,0,0,0,.16-.08.48.48,0,0,0,.05-.24A.63.63,0,0,0,21.14,39.71Zm0-1.14a.16.16,0,0,0-.15-.06,1,1,0,0,0-.47.17c-.18.11-.27.22-.27.35s0,.07.09.07a.4.4,0,0,0,.15,0,1.41,1.41,0,0,1,.39-.08l.29,0c0-.1,0-.17,0-.21A.3.3,0,0,0,21.11,38.57Zm-.38-3.33h-.17a.4.4,0,0,0-.27.07.46.46,0,0,0-.06.28c0,.15,0,.22.07.22s.12-.08.26-.25a2.92,2.92,0,0,1,.23-.29Z" style="fill:#fff"/></g></g></svg>