<svg xmlns="http://www.w3.org/2000/svg" width="18.97mm" height="62.67mm" viewBox="0 0 53.78 177.64"><title>ui_1</title><g id="圖層_2" data-name="圖層 2"><g id="icon"><path d="M53.63,145.2c0-.36-.71-.35-.71-.71s.38-.35.38-.71-.13-.36-.13-.72.26-.36.26-.72.11-.36.11-.72.14-.36.14-.71-.14-.36-.14-.72-.46-.36-.46-.72.59-.36.59-.72-.4-.36-.4-.72v-.72c0-.36.44-.36.44-.72s-.47-.36-.47-.72-.24-.36-.24-.72.76-.36.76-.72-.82-.36-.82-.72.39-.36.39-.72-.35-.37-.35-.73.29-.36.29-.72.13-.36.13-.72-.42-.36-.42-.72.14-.36.14-.72.07-.36.07-.72-.27-.36-.27-.72.2-.36.2-.72.14-.36.14-.72-.16-.36-.16-.72.66-.36.66-.72-.51-.36-.51-.72.25-.36.25-.72-.26-.36-.26-.72-.2-.35-.2-.71,0-.36,0-.72-.06-.36-.06-.72V120c0-.36.38-.36.38-.72s.09-.36.09-.72-.15-.35-.15-.71.08-.36.08-.72,0-.36,0-.72-.35-.36-.35-.72.36-.36.36-.72-.13-.36-.13-.72.16-.36.16-.71.2-.36.2-.72-.62-.36-.62-.72.76-.36.76-.72-.42-.36-.42-.72.14-.36.14-.72-.07-.36-.07-.72,0-.36,0-.72-.3-.36-.3-.72.62-.36.62-.72-.58-.36-.58-.72.39-.36.39-.72-.42-.36-.42-.73.53-.36.53-.72-.52-.36-.52-.72-.18-.36-.18-.72.34-.36.34-.72.5-.37.5-.73-.31-.36-.31-.72.21-.36.21-.72-.71-.36-.71-.72.82-.36.82-.72-.48-.36-.48-.72.24-.36.24-.72-.4-.36-.4-.72.44-.36.44-.72-.57-.36-.57-.72.08-.36.08-.72,0-.36,0-.72S53,93,53,92.67s0-.36,0-.72.27-.36.27-.72.27-.36.27-.72-.26-.36-.26-.72,0-.36,0-.72.37-.36.37-.72-.69-.37-.69-.73.37-.36.37-.72.26-.36.26-.72-.18-.36-.18-.72-.44-.36-.44-.72.38-.37.38-.73-.36-.36-.36-.72.69-.36.69-.72-.15-.36-.15-.73-.16-.36-.16-.72-.07-.36-.07-.72.45-.36.45-.72-.06-.36-.06-.72-.1-.36-.1-.72.08-.36.08-.72,0-.36,0-.72.1-.37.1-.73-.48-.36-.48-.72.51-.36.51-.72-.52-.36-.52-.72.12-.36.12-.72-.24-.36-.24-.73.19-.36.19-.72S53,71.38,53,71s.61-.36.61-.72-.63-.37-.63-.73.73-.36.73-.72-.42-.36-.42-.72-.33-.36-.33-.72,0-.36,0-.72.61-.36.61-.72-.64-.36-.64-.72.85-.36.85-.72-.88-.36-.88-.72.28-.36.28-.72.16-.36.16-.72-.24-.36-.24-.73.38-.36.38-.72-.5-.36-.5-.72.68-.36.68-.72-.76-.36-.76-.72.75-.36.75-.73-.6-.36-.6-.72,0-.36,0-.71.66-.36.66-.72-.22-.36-.22-.72-.32-.36-.32-.72.52-.36.52-.72-.11-.36-.11-.72-.27-.36-.27-.72,0-.36,0-.73-.13-.36-.13-.72.7-.36.7-.72-.15-.36-.15-.73,0-.36,0-.72S53,48.3,53,47.94s.08-.37.08-.73-.12-.36-.12-.72.64-.36.64-.72-.59-.36-.59-.72,0-.37,0-.73.61-.36.61-.72-.35-.36-.35-.72-.13-.37-.13-.73.54-.36.54-.72-.62-.37-.62-.73-.21-.36-.21-.72.38-.36.38-.73.44-.36.44-.72,0-.36,0-.72-.41-.37-.41-.73-.31-.36-.31-.73.16-.36.16-.72.18-.36.18-.73.38-.36.38-.72-.25-.36-.25-.72.22-.36.22-.72S53,32.38,53,32s.44-.37.44-.73.13-.36.13-.73,0-.36,0-.72-.61-.36-.61-.73.38-.36.38-.72-.35-.37-.35-.73.21-.36.21-.73.39-.36.39-.72-.57-.37-.57-.73.17-.37.17-.73.41-.37.41-.73-.4-.36-.4-.73.45-.36.45-.73.11-.36.11-.73-.39-.36-.39-.73.23-.4.16-.76c0-.08-.15,0-.2-.05,0-.24,0-.45,0-.69s-.76-.33-.82-.56.16-.54.1-.77.3-.6.23-.84-.7-.29-.78-.52,0-.49-.14-.72,0-.52-.07-.75-.47-.33-.56-.55.11-.58,0-.81-.4-.34-.51-.56-.17-.46-.28-.67-.13-.49-.25-.7-.2-.45-.33-.66-.22-.43-.36-.64-.45-.28-.6-.47-.31-.38-.45-.57.07-.68-.08-.87-.37-.34-.53-.53-.57-.14-.74-.32-.36-.33-.53-.5-.16-.53-.33-.7-.73.07-.91-.09.12-.89-.07-1-.83.26-1,.1.11-1-.08-1.1-.8.31-1,.17,0-.86-.2-1-.8.39-1,.27l-.61-.34c-.21-.12-.28-.47-.5-.58s-.26-.53-.48-.64-.38-.32-.6-.42-.54,0-.76-.06l-.67-.26c-.22-.09-.54.1-.77,0s-.28-.65-.51-.72-.62.38-.85.31l-.68-.2c-.23-.06-.34-.61-.57-.66s-.53.17-.76.12-.56.36-.79.32S33,.34,32.8.3s-.57.59-.8.56-.41-.5-.65-.52-.49.08-.72.06-.49.1-.72.08-.48.21-.72.2-.46-.43-.7-.44S28,.08,27.78.08s-.47.42-.7.43S26.58,0,26.34,0s-.45.38-.69.39-.49-.15-.73-.13-.49-.1-.72-.07-.47.1-.71.13-.39.58-.63.62-.45.14-.68.19-.6-.6-.83-.55-.43.32-.66.37-.41.32-.64.38S19.46,1,19.23,1s-.36.48-.59.55-.42.24-.65.32-.63-.37-.85-.29-.44.24-.66.32-.16.87-.38,1-.67-.36-.89-.26-.48.12-.69.22-.29.49-.51.6-.3.44-.51.55-.54,0-.75.11-.25.5-.45.62-.44.19-.64.32-.56,0-.75.15-.46.19-.65.33-.2.53-.39.67-.7-.08-.88.07,0,.68-.22.84l-.54.48c-.17.16-.69,0-.86.15s.22.87,0,1-.71,0-.87.16-.19.47-.35.65,0,.62-.14.8-.47.24-.61.43-.08.53-.21.72-.47.25-.6.45-.39.32-.51.52-.35.35-.47.56-.13.47-.25.68-.3.38-.41.59.13.6,0,.81-.37.35-.47.57,0,.51-.09.73-.86.16-1,.39-.18.45-.26.67.19.58.11.81-.26.41-.34.64-.27.42-.34.65.46.55.4.78-.74.33-.74.69.08.36.08.72.64.36.64.71-.64.36-.64.72,0,.35,0,.71.34.36.34.72.2.36.2.71.05.36,0,.72-.28.36-.29.72.16.35.15.71-.06.36-.06.72.06.36.06.71-.09.36-.09.72-.11.36-.11.71.47.36.47.72-.13.36-.13.72.07.36.07.72-.24.35-.24.71,0,.36,0,.72-.55.36-.55.71.76.37.76.72-.15.36-.15.72-.19.36-.19.72.07.36.07.72.19.36.19.72-.33.35-.33.71,0,.36,0,.72-.06.36-.06.72-.17.36-.18.72.48.36.48.72-.6.36-.6.72.32.36.32.72-.25.36-.25.72.52.37.52.73.08.36.08.72-.14.36-.15.72.28.36.28.72-.81.36-.81.72.12.36.12.72.23.36.23.72.12.36.11.72,0,.36,0,.72,0,.36,0,.72S.28,51.6.28,52s.52.36.52.72-.15.36-.15.71-.33.36-.33.72.16.36.16.72.55.36.54.72-.15.36-.15.72S1,56.63,1,57s-.12.36-.12.72-.18.35-.18.71-.52.36-.52.72.81.36.81.72-.26.36-.26.72.11.36.11.72,0,.35,0,.71.06.36.06.72-.57.36-.57.72.07.36.06.72.19.36.19.72-.3.35-.3.71.39.36.38.72.06.36.06.72-.1.36-.1.72-.31.36-.31.72.57.36.57.72-.1.36-.1.72-.62.36-.62.72.3.36.29.72.36.36.36.72-.49.36-.49.72.57.37.57.73-.56.36-.56.72.13.36.13.72v.72c0,.36,0,.36,0,.72s0,.36,0,.73-.12.36-.12.72.54.36.54.72.05.36.05.72-.24.36-.24.72-.14.36-.14.72-.14.36-.14.72-.09.36-.1.72.61.36.61.72-.26.36-.26.72S1,84,1,84.34s-.48.36-.48.72.37.36.37.72-.67.36-.67.72.44.36.44.72.08.36.08.72.06.36.06.72-.63.36-.63.72.53.36.53.72-.06.36-.07.72-.23.36-.24.72.13.36.13.72.05.36,0,.73-.44.36-.44.72.77.36.77.72-.16.36-.16.72-.33.36-.33.72,0,.37,0,.73S.1,97,.1,97.32s.56.36.55.72-.37.36-.37.72.11.36.11.72-.35.36-.35.72.16.36.16.72.58.36.58.72-.13.36-.13.73-.25.35-.26.72-.24.36-.25.72.48.36.48.72.11.36.11.72-.12.36-.12.72-.58.36-.58.73.07.36.07.72.22.36.22.72.27.36.27.73-.44.35-.44.72.6.36.6.72-.64.36-.64.71.16.36.16.72.13.36.13.72.12.36.12.72-.42.36-.42.72,0,.36,0,.72.63.36.63.72-.45.36-.45.73,0,.36,0,.72.2.36.2.72-.24.36-.24.72,0,.36,0,.72.41.37.41.73.06.36.06.72-.13.36-.13.71.1.36.1.72-.31.36-.31.72-.25.36-.25.72.31.36.31.72-.25.36-.25.72.4.36.4.72-.48.36-.48.72.69.37.69.73-.21.36-.21.72-.11.36-.11.72-.35.36-.35.73.69.36.69.72-.09.36-.09.72-.63.36-.63.72.4.37.4.73-.12.36-.12.72S0,133,0,133.38s.66.36.66.72,0,.37,0,.73.11.36.11.72-.15.36-.15.73-.53.36-.53.72.36.36.36.73-.39.36-.39.72.28.36.28.72-.09.36-.09.73.2.36.2.72.18.37.18.73-.45.36-.45.72.46.37.46.73-.19.36-.19.72-.43.36-.43.72.71.36.71.72,0,.36,0,.72,0,.37,0,.73-.54.36-.54.73.16.36.16.72,0,.36,0,.72-.28.37-.28.73.18.36.18.73-.18.36-.18.72.67.37.67.73-.51.36-.52.73,0,.36,0,.73-.22.36-.23.72.41.37.41.73-.09.37-.09.73,0,.37,0,.73-.27.37-.27.73.27.37.29.74-.09.5,0,.73.3.43.36.66.31.41.38.65.23.42.3.65-.33.61-.25.84,0,.52.08.74.16.47.25.69.47.33.57.55.25.41.35.63.37.35.48.57.27.39.39.6-.19.65-.07.86.7.14.83.35-.34.78-.21,1,.42.31.56.51.63.13.77.32,0,.62.13.81.48.23.64.41.14.51.3.69.65.05.82.22,0,.66.19.83.35.33.53.49.53.12.72.27,0,.8.16,1,.49.17.68.32l.6.42c.19.14.37.32.57.44s.63-.09.83,0,.46.15.66.27.15.73.36.84.68-.29.9-.19.32.41.54.51.57-.14.79,0,.21.75.43.84.53,0,.75,0,.49,0,.71.11.43.25.65.32.55-.22.78-.16.32.69.55.75.52-.14.76-.1.52-.2.75-.16.4.45.64.49.51-.21.74-.18.42.54.65.57.53-.53.77-.51.43.61.67.62.49-.18.72-.17.48-.19.72-.19.47.22.71.22.48.23.72.22.46-.49.7-.5.48.1.71.08.45-.34.68-.36.56.73.8.71.44-.33.68-.36.5.09.73,0,.44-.26.68-.3.38-.49.62-.54.62.6.85.54.26-.93.49-1,.48,0,.71-.09.61.41.84.34.29-.64.52-.72.57.2.79.12.48-.09.7-.17.42-.26.64-.35.37-.33.59-.43.51,0,.73-.12.49-.1.7-.21.33-.39.54-.5.6.09.81,0,.19-.62.39-.74l.6-.39c.2-.13.38-.28.58-.42s.33-.35.52-.49.63,0,.82-.11.12-.61.3-.77.19-.49.37-.65.82.2,1,0,.17-.52.34-.69.06-.6.22-.77.64,0,.8-.23.3-.37.46-.55.42-.27.57-.46.23-.42.37-.61.07-.55.21-.74.12-.48.26-.68.55-.2.68-.4.18-.45.3-.65.21-.43.33-.63.56-.24.67-.45-.07-.58,0-.79-.13-.58,0-.8.79-.16.89-.38.17-.44.26-.66-.09-.55,0-.77.34-.38.42-.61,0-.51,0-.74.41-.37.48-.59-.08-.52,0-.75a5.32,5.32,0,0,0,.16-.7c0-.2.08-.44.11-.71s-.23-.48-.21-.74.36-.43.39-.67-.29-.5-.27-.75-.07-.48,0-.72.31-.44.33-.68.36-.45.38-.69.15-.47.17-.71-.13-.49-.12-.73.2-.47.21-.7-.46-.51-.45-.75.25-.47.26-.71-.1-.49-.09-.72-.06-.49-.06-.71-.07-.49-.08-.71S53.66,145.41,53.63,145.2Z" style="fill:#a2a28d"/></g></g></svg>