<svg xmlns="http://www.w3.org/2000/svg" width="75.34mm" height="20.47mm" viewBox="0 0 213.58 58.04"><title>ui_1</title><g id="圖層_2" data-name="圖層 2"><g id="icon4"><path d="M178.45.16c-.36,0-.35.23-.71.23S177.38,0,177,0s-.36.87-.72.87-.36-.78-.72-.78-.36.89-.72.89-.36-.21-.72-.21h-.72c-.35,0-.35-.36-.71-.36s-.36.06-.72.06-.36.5-.72.5-.36-.83-.71-.83-.36.41-.72.41h-.72c-.36,0-.36.43-.71.43s-.36-.07-.72-.07-.36-.08-.72-.08-.36-.72-.71-.72-.36.1-.72.1-.36.24-.72.24-.35,0-.71,0S163.76,0,163.4,0s-.36,1-.71,1-.36-.16-.72-.16-.36,0-.72,0-.35-.29-.71-.29-.36.07-.72.07-.36-.34-.71-.34-.36.31-.72.31-.36-.51-.72-.51-.35.24-.71.24-.36.24-.72.24-.35.3-.71.3h-.72c-.36,0-.36-.61-.71-.61s-.36.25-.72.25-.36-.32-.72-.32-.35.5-.71.5-.36-.74-.72-.74-.36.3-.72.3-.35-.26-.71-.26-.36.3-.72.3-.36-.2-.72-.2-.35.08-.71.08-.36.35-.72.35h-.72c-.36,0-.36-.46-.71-.46s-.36.5-.72.5-.36.16-.72.16h-.72c-.36,0-.36.19-.72.19s-.36-.92-.72-.92-.36.4-.72.4-.35.19-.71.19-.36.09-.72.09-.36-.61-.72-.61-.36.12-.72.12-.36.1-.72.1-.36,0-.73,0-.36-.15-.72-.15-.36.1-.72.1-.36.72-.72.72-.36-.49-.72-.49-.36.52-.72.52S132.9,1,132.54,1s-.37-.94-.73-.94-.36.77-.72.77-.36-.57-.72-.57-.36.46-.72.46-.36-.65-.72-.65-.36.73-.72.73-.36-.41-.72-.41h-.72c-.36,0-.36.39-.72.39S125.7,0,125.34,0s-.36.64-.72.64-.36.07-.72.07-.36-.51-.72-.51-.36.21-.72.21-.36,0-.72,0-.36.44-.72.44S120.66.7,120.3.7s-.35-.38-.71-.38-.36.68-.72.68-.36-.07-.72-.07-.36-.81-.72-.81-.36.17-.72.17-.36-.18-.72-.18-.36.43-.72.43-.36-.34-.71-.34-.36.73-.72.73-.36-.65-.72-.65-.36.28-.72.28-.36-.27-.72-.27-.36,0-.72,0-.36.11-.72.11-.36.12-.72.12-.36-.21-.72-.21-.36.35-.73.35-.36.34-.72.34-.36-.9-.72-.9-.36,1-.72,1-.36-.34-.72-.34-.37.3-.73.3-.36-.13-.72-.13S103.38.3,103,.3s-.36.42-.72.42-.36-.68-.72-.68-.36.64-.73.64-.36.37-.72.37S99.77.1,99.41.1s-.36,0-.72,0H98c-.36,0-.36.14-.72.14s-.36.46-.72.46-.36,0-.72,0-.36.07-.72.07-.36.05-.72.05-.36.09-.72.09S93.29.7,92.93.7s-.36.07-.72.07-.36-.41-.72-.41-.36-.21-.72-.21-.36.24-.72.24-.36.53-.72.53S89,.39,88.6.39s-.36.45-.72.45-.36.07-.72.07S86.8.68,86.44.68s-.37.18-.73.18S85.35.22,85,.22s-.36.55-.72.55-.36-.13-.73-.13-.36.31-.72.31S82.46.26,82.1.26s-.36.52-.72.52S81,1,80.66,1,80.3.72,79.94.72,79.58.5,79.21.5s-.36-.25-.72-.25-.36.32-.72.32-.36.19-.72.19-.36-.55-.72-.55S76,.06,75.61.06s-.36.61-.73.61-.36-.16-.72-.16S73.8.43,73.44.43s-.36.44-.73.44S72.35.33,72,.33s-.36-.25-.72-.25-.36.15-.72.15h-.73c-.36,0-.36.65-.72.65s-.36-.07-.72-.07S68,0,67.67,0,67.31.3,67,.3s-.36-.16-.72-.16-.36.6-.72.6S65.15,0,64.78,0s-.36.22-.72.22-.36.32-.72.32S63,.8,62.61.8s-.36-.54-.72-.54-.36.66-.72.66-.36,0-.72,0-.36-.41-.72-.41-.36.21-.72.21-.36.28-.72.28-.36-.85-.72-.85-.36.1-.72.1-.36.69-.72.69-.36.1-.72.1S55.05,1,54.69,1,54.33.55,54,.55s-.36-.13-.72-.13-.37-.08-.73-.08-.36.23-.72.23-.36-.06-.73-.06-.36-.16-.72-.16S50,.16,49.62.16s-.36.33-.72.33-.36.46-.72.46-.36,0-.72,0S47.1.79,46.73.79,46.37.72,46,.72s-.36-.5-.72-.5-.36.42-.73.42-.36.21-.72.21-.36-.24-.73-.24S42.75,0,42.39,0s-.36.46-.73.46-.36.26-.72.26-.36-.63-.72-.63-.37.87-.73.87-.36-.52-.72-.52S38.4.54,38,.54s-.36.39-.73.39S37,.78,36.59.78s-.36,0-.73,0S35.5.37,35.14.37s-.36.45-.72.45S34.06.15,33.7.15s-.36.51-.72.51-.37-.48-.73-.48-.37.63-.73.63-.36,0-.72,0S30.44,0,30.07,0s-.36.35-.73.35-.36.35-.72.35-.37.23-.73.23S27.52.2,27.16.2s-.36.17-.73.17-.36,0-.73,0-.36,0-.72,0-.37.64-.73.64-.37-.18-.74-.18-.36-.74-.73-.74a2.81,2.81,0,0,0-.8.18.48.48,0,0,0-.2.15c-.24,0-.15.69-.39.74s-.45.18-.69.23S20.11,1,19.88,1s-.52,0-.76,0-.22.93-.45,1-.72-.63-1-.56-.21.85-.44.94-.54-.06-.76,0-.36.4-.58.49-.4.27-.62.38-.48.09-.69.2-.39.29-.6.41-.83-.48-1-.36,0,1-.16,1.15-.82-.39-1-.26-.31.42-.51.56-.3.41-.5.55-.5.15-.69.3-.51.16-.69.31-.5.19-.68.35-.3.41-.48.57.18.88,0,1.06-.84-.14-1,0,.27.9.11,1.08-1-.2-1.14,0,0,.61-.17.81-.15.49-.29.69-.76.06-.89.26-.19.46-.32.66.08.62-.05.83-.71.15-.83.36.54.84.43,1.06-1,0-1.14.22-.27.43-.37.64-.15.48-.24.7-.13.48-.22.7.07.56,0,.78.07.54,0,.77-.7.28-.77.51.78.74.71,1-.89.25-.95.48.59.64.53.88-.72.33-.77.57-.18.46-.23.69-.19.47-.23.7.78.61.74.85-.67.39-.7.63-.09.48-.12.72-.22.47-.24.71.49.52.48.76.11.48.11.72-.69.47-.69.71.14.49.14.73.6.47.61.71-.1.48-.09.72.12.47.14.71-.49.52-.46.76.75.4.78.64-.28.52-.25.76.36.42.4.66-.12.5-.08.74.25.44.29.67.16.45.21.69-.25.55-.19.78.09.47.16.71.09.47.16.7.31.4.39.63.09.48.17.7.2.44.29.66-.53.73-.44,1,.8.2.89.42.17.45.27.67.45.31.56.53.3.38.41.59-.68.91-.56,1.12.71.16.83.36.39.33.52.53l.38.61c.14.2.48.25.62.45s-.15.69,0,.88.62.13.76.32.16.47.31.66.35.32.51.5.24.42.4.59.49.19.66.36-.12.79.05,1,.55.12.73.28,0,.71.19.87.82-.23,1-.07,0,.71.22.86.41.26.6.41.54.07.74.21.37.3.57.43.42.24.62.37.53.05.73.17.5.07.71.18.12.78.33.89.45.18.67.28.38.32.59.42.77-.52,1-.43.16.83.38.92.7-.45.92-.37.27.61.5.69.58-.24.81-.16.19,1,.41,1,.64-.47.87-.4.44-.13.67-.07.33.83.68.83.36-.47.72-.47.36.53.72.54.36-.09.72-.09.36-.88.72-.88.36.55.72.55.36-.52.72-.52.36.5.72.5.36.13.72.13h.72c.36,0,.36-.17.72-.17s.36.21.72.21.36-.67.72-.67.36,1,.72,1,.36-.89.72-.89.36.36.72.36.36.15.72.15.36-.48.72-.48.36.25.72.25.36-.3.72-.3.36.4.72.4.36.47.72.47.36-.57.72-.57.36-.08.72-.08.35-.1.71-.1.36.8.72.8.36-1,.72-1,.36.56.72.56.35,0,.71,0,.36.16.72.16.36.16.72.16.36-.38.71-.38.36.28.72.28.36,0,.72,0,.36.23.71.23.36-.15.72-.15.36-.31.72-.31.36.35.71.35.36-.5.72-.5.36-.4.72-.39.35,1,.71,1,.36,0,.72,0,.36-.16.72-.16.36-.69.71-.69.36.61.72.61.36.07.71.07h.72c.36,0,.36.16.72.16s.35,0,.71,0H58c.36,0,.36-.58.72-.57s.35.66.71.66.36-.58.72-.58.36.64.71.64.36-.1.72-.1.36-.53.72-.53.36,0,.72,0,.35.27.71.27.36,0,.72,0,.36-.56.72-.56.36.18.71.18.36,0,.72,0,.36.12.72.12.36.38.72.38.36-.16.71-.16.36-.2.72-.2.36.37.72.37.36-.56.72-.56.36.36.72.36.36-.39.72-.39.36-.15.72-.15.36.76.72.76.36-.77.72-.76.36.31.72.31.36,0,.72,0,.36.13.72.13.36-.28.72-.28.36.6.72.6.36.27.73.27.36-.8.72-.8.36-.07.72-.07.36.82.72.82.37-.89.73-.89.36.51.72.51.36.1.72.11.36.22.72.22.36-.85.72-.85.36.22.72.22.36.27.72.27.36.36.72.36.36-.47.72-.47.36.35.72.36.36-.6.72-.6.36-.12.72-.12.35.95.71.95.36-.18.72-.18.36.06.72.06.36.11.72.11.36-.37.72-.37.36-.18.72-.18.36-.09.72-.09.36.13.72.13.36-.27.72-.27.36.19.72.19.35.7.71.71.36-.32.72-.32.36.12.72.12.36-.44.72-.44.36.16.72.16.36.44.72.44.36-.17.72-.17.36-.43.72-.43.36.45.72.45.36-.69.72-.69.36.46.72.46.36.4.73.4h.72c.36,0,.36-.49.72-.49s.36-.11.72-.11.36.59.73.59.36-.19.72-.19.36-.76.72-.76.36.17.73.18.36.22.72.22.36-.05.72-.05.36.28.72.28.36-.33.72-.33.36.07.72.07.36.07.72.08.36-.14.72-.14.36.6.72.61.36.07.72.07.36,0,.72,0,.37-.39.73-.39.36.06.72.06.36-.48.72-.48.36.15.72.15.36.05.72.05.36-.11.72-.11.36-.06.72-.06.36.72.72.72.36-.27.73-.27.36.32.72.32.36-.78.72-.78.36.42.72.42.36.38.73.38.36,0,.72,0,.36-.5.72-.5.36.46.73.46.36,0,.72,0,.36-.87.72-.86.36.15.72.15.36.66.72.67.37-.54.73-.54.36.72.72.72.36-.66.72-.66.36.42.72.42.36-.17.72-.17.36.37.73.37.36-.82.72-.82.36.7.72.7.36-.74.72-.74.37.16.73.16.36.52.72.53.36-.5.73-.5.36.13.72.13.36.31.72.31.36-.49.73-.49.36.42.72.42.36.29.72.29.36-.53.72-.53.36.55.72.55.36-.14.71-.14.37-.25.73-.25.36-.23.72-.23.36.51.72.51.36-.58.72-.58.36.58.73.58.36-.79.72-.79.36.35.72.35.36.36.73.37.36,0,.72,0,.36-.12.72-.12.36-.3.72-.29.36.17.72.18.36-.52.72-.52.36.62.72.62.36.23.72.23.36.13.72.13.36-.64.72-.63.36.36.72.36.36-.45.72-.45.37.25.73.25.36-.28.72-.28.36,0,.73,0,.36.55.72.55.36-.62.73-.62.36.71.72.71.36-.46.72-.46.36-.08.73-.08.36-.26.72-.26.36.52.72.52.36-.26.72-.26.37-.27.73-.27.36.92.72.92.37-.16.73-.16.36.06.73.06.36-.45.72-.45.36-.2.73-.19.36-.21.72-.21.36.15.73.15.36.23.72.23.36.3.73.3.36-.66.72-.66.37.45.73.45.36.17.72.17.37-.45.73-.45.36,0,.72,0,.36,0,.72,0,.36.24.72.24.37.07.73.08.37-.13.73-.13.36-.26.72-.25.36.56.73.56.36-.17.73-.17.36-.45.73-.45.36.59.72.59.37-.34.73-.34.37,0,.73,0,.36.5.73.51.36-.4.73-.4.36-.37.73-.36.36.16.73.16.37-.1.73-.1.36.14.73.13.47.12.71.07.57.33.81.27.33-.65.57-.71.62.42.85.35.47-.13.7-.21.24-.82.46-.9.5,0,.72-.12.56.09.78,0,.37-.38.59-.47.63.22.85.11.32-.46.53-.57.36-.35.58-.46.65.17.86.05.21-.61.41-.73.24-.53.44-.66.28-.42.48-.55.42-.23.61-.37.92.42,1.11.27-.07-.86.12-1,.58-.06.76-.22.06-.64.24-.8.44-.22.61-.39.65,0,.82-.22,0-.63.18-.81.84.08,1-.11-.39-.93-.24-1.12,1,.18,1.18,0,.17-.49.3-.69.09-.54.22-.74.4-.32.52-.53.15-.48.27-.69-.09-.59,0-.81.78-.14.89-.36.16-.46.26-.68-.49-.75-.4-1,.43-.34.52-.56.54-.31.62-.54-.36-.63-.28-.86.8-.25.87-.48,0-.5.08-.74,0-.51,0-.74-.32-.57-.26-.81.13-.45.18-.69,0-.48,0-.72.82-.34.85-.58-.31-.54-.28-.78.65-.4.68-.64-.7-.56-.68-.8.53-.44.54-.68-.37-.5-.36-.75-.07-.47-.06-.72.36-.47.36-.71.46-.49.46-.73-.64-.47-.65-.71-.12-.47-.13-.71-.31-.46-.33-.7.17-.49.15-.73.6-.55.57-.79-.79-.38-.82-.62.19-.51.15-.75.42-.57.38-.8-.14-.47-.19-.71-.23-.45-.28-.68-.05-.5-.11-.73-.41-.39-.48-.62.33-.61.26-.84-.17-.46-.24-.69-.32-.41-.4-.63-.79-.23-.88-.45.18-.58.09-.81-.58-.27-.68-.49.6-.8.5-1-1,0-1.12-.26-.06-.5-.17-.72,0-.55-.09-.76-.42-.31-.55-.52-.09-.5-.22-.71-.55-.21-.68-.41.26-.75.12-.95-.73-.06-.87-.25,0-.57-.17-.76-.08-.55-.23-.73-.37-.32-.53-.5-.47-.21-.63-.39-.47-.2-.63-.37.09-.77-.08-.93-.42-.26-.59-.43-.28-.42-.45-.57-.87.28-1.06.13,0-.78-.15-.93-.78.24-1,.1-.11-.65-.31-.78-.35-.33-.55-.46-.18-.61-.37-.73-.69.19-.89.07-.58,0-.79-.06-.13-.74-.34-.85-.61.16-.82,0-.23-.61-.44-.72-.62.2-.83.1-.49-.05-.71-.14-.16-.85-.38-.93-.69.45-.91.37-.24-.74-.46-.82-.54.12-.77.05-.38-.38-.61-.44-.56.3-.79.24-.18-.6-.63-.66c-.2,0-.54.78-.82.75s-.42-.41-.68-.43-.47,0-.72-.05l-.72-.08c-.23,0-.41-.7-.66-.72s-.56.78-.8.75-.4-.88-.65-.9-.54.69-.78.67-.44-.71-.68-.73-.55.87-.79.86-.47-.37-.71-.39-.46-.6-.7-.61-.5.12-.74.11-.5.07-.73.07-.5.25-.73.26-.48.41-.7.42S178.66.13,178.45.16Z" style="fill:#a2a28d"/></g></g></svg>