<svg xmlns="http://www.w3.org/2000/svg" width="19.58mm" height="176.58mm" viewBox="0 0 55.49 500.54"><title>ui_2</title><g id="圖層_2" data-name="圖層 2"><g id="icon"><path d="M55.06,467.43c0-.36-2-.33-2-.69s1.06-.36,1.06-.72-.35-.36-.35-.72.72-.36.72-.72.31-.36.31-.72.38-.36.38-.72-.39-.36-.39-.72-1.28-.36-1.28-.72,1.64-.36,1.64-.72-1.11-.36-1.11-.72,0-.36,0-.72,1.25-.36,1.25-.72S54,458.46,54,458.1s-.67-.36-.67-.72,2.14-.35,2.14-.71-2.3-.36-2.3-.72,1.09-.36,1.09-.72-1-.36-1-.72.8-.36.8-.72.37-.36.37-.72-1.18-.36-1.18-.72.39-.36.39-.72.21-.35.21-.71-.77-.36-.77-.72.58-.36.58-.72.4-.36.4-.72-.48-.36-.48-.72,1.87-.36,1.87-.72S54,447,54,446.61s.7-.36.7-.72-.73-.36-.73-.72-.56-.36-.56-.72,0-.36,0-.71-.16-.36-.16-.72,0-.36,0-.72,1.07-.36,1.07-.72.24-.36.24-.72-.42-.35-.42-.71.22-.36.22-.72-.13-.36-.13-.72-1-.36-1-.72,1-.35,1-.71-.38-.36-.38-.72.48-.36.48-.72.56-.36.56-.71-1.75-.36-1.75-.72,2.13-.36,2.13-.72-1.18-.36-1.18-.72.38-.35.38-.71-.17-.36-.17-.72.08-.36.08-.72-.85-.35-.85-.71,1.75-.36,1.75-.72-1.65-.36-1.65-.72,1.12-.36,1.12-.71-1.18-.36-1.18-.72,1.47-.36,1.47-.72-1.45-.36-1.45-.71-.51-.36-.51-.72.94-.36.94-.72,1.43-.35,1.43-.71-.88-.36-.88-.72.6-.36.6-.72-2-.35-2-.71,2.29-.36,2.29-.72-1.34-.36-1.34-.72.66-.35.66-.71-1.12-.36-1.12-.72,1.24-.36,1.24-.71-1.59-.36-1.59-.72.22-.36.22-.72,0-.36,0-.71-.14-.36-.14-.72-.1-.36-.1-.72.75-.35.75-.71.78-.36.78-.72-.75-.36-.75-.72-.12-.35-.12-.71,1-.36,1-.72-1.93-.36-1.93-.71,1-.36,1-.72.73-.36.73-.72-.52-.35-.52-.71-1.23-.36-1.23-.72,1.06-.36,1.06-.71-1-.36-1-.72,2-.36,2-.72-.44-.36-.44-.71-.45-.36-.45-.72-.2-.36-.2-.72,1.27-.35,1.27-.71-.17-.36-.17-.72-.27-.36-.27-.71.21-.36.21-.72,0-.36,0-.72.28-.35.28-.71-1.33-.36-1.33-.72,1.41-.36,1.41-.72S54,396.8,54,396.44s.33-.36.33-.72-.67-.36-.67-.71.54-.36.54-.72-.79-.36-.79-.72,1.71-.36,1.71-.71-1.77-.36-1.77-.72,2-.36,2-.72-1.18-.35-1.18-.71-.92-.36-.92-.72-.1-.36-.1-.72,1.69-.35,1.69-.71-1.78-.36-1.78-.72,2.37-.36,2.37-.72-2.47-.35-2.47-.71.79-.36.79-.72.46-.36.46-.72-.68-.35-.68-.71,1.06-.36,1.06-.72-1.39-.36-1.39-.72,1.89-.35,1.89-.71-2.12-.36-2.12-.72,2.1-.36,2.1-.72-1.68-.36-1.68-.71-.14-.36-.14-.72,1.84-.36,1.84-.72-.6-.36-.6-.72-.9-.35-.9-.71,1.45-.36,1.45-.72-.31-.36-.31-.72-.77-.36-.77-.72-.12-.35-.12-.71-.36-.36-.36-.72,2-.36,2-.72-.43-.36-.43-.72-.07-.35-.07-.71-1.61-.36-1.61-.72.21-.36.21-.72-.31-.36-.31-.72,1.79-.36,1.79-.71-1.67-.36-1.67-.72.09-.36.09-.72,1.71-.36,1.71-.72-1-.36-1-.72-.36-.36-.36-.72,1.52-.36,1.52-.71-1.74-.36-1.74-.72-.59-.36-.59-.72,1.06-.36,1.06-.72,1.24-.36,1.24-.72.08-.36.08-.72-1.16-.36-1.16-.72-.86-.36-.86-.72.46-.36.46-.72.5-.35.5-.71,1.06-.36,1.06-.72-.7-.36-.7-.72.62-.36.62-.72-2.06-.36-2.06-.72,1.23-.36,1.23-.72.38-.36.38-.72-.13-.36-.13-.72S53,352.3,53,351.94s1.07-.36,1.07-.72-1-.36-1-.72.62-.36.62-.72,1.09-.36,1.09-.72-1.62-.36-1.62-.72.49-.36.49-.73,1.15-.36,1.15-.72-1.11-.36-1.11-.72,1.25-.36,1.25-.72.32-.36.32-.72-1.12-.36-1.12-.72.47-.36.47-.72-.07-.36-.07-.72.32-.36.32-.72-1.89-.36-1.89-.72.78-.36.78-.72,1.28-.36,1.28-.72-1.65-.36-1.65-.72.29-.36.29-.72.55-.36.55-.72-.88-.36-.88-.71.94-.36.94-.72-.63-.36-.63-.72.17-.36.17-.72.34-.36.34-.72.16-.36.16-.72.12-.36.12-.72-.63-.36-.63-.72-.09-.36-.09-.72,1.33-.36,1.33-.72-.19-.36-.19-.72-.94-.35-.94-.71-.11-.36-.11-.72.75-.36.75-.72-1.55-.36-1.55-.72,2.1-.36,2.1-.72-2-.36-2-.72,2.33-.36,2.33-.71-2-.36-2-.72,2-.36,2-.72-2.13-.36-2.13-.72,0-.36,0-.72.78-.36.78-.72,1-.36,1-.71.36-.36.36-.72-.68-.36-.68-.72,0-.36,0-.72-.79-.36-.79-.72,1.45-.36,1.45-.71-1.54-.36-1.54-.72,0-.36,0-.72,1.43-.36,1.43-.72-.8-.36-.8-.72-1.33-.36-1.33-.71,1.94-.36,1.94-.72-1.9-.36-1.9-.72,1.23-.36,1.23-.72-.37-.36-.37-.72-.4-.36-.4-.71-.66-.36-.66-.72,1.15-.36,1.15-.72.43-.36.43-.72-1.18-.36-1.18-.72,1.51-.36,1.51-.71-1-.36-1-.72.54-.36.54-.72.41-.36.41-.72-.13-.36-.13-.72-1.45-.36-1.45-.71-.2-.36-.2-.72,2-.36,2-.72-.64-.36-.64-.72-.6-.36-.6-.72,1.44-.36,1.44-.71-1-.36-1-.72-.29-.36-.29-.72,1.54-.36,1.54-.72-.2-.36-.2-.72-2.1-.36-2.1-.72,1.66-.36,1.66-.71.25-.36.25-.72-.88-.36-.88-.72-.71-.36-.71-.72.77-.36.77-.72-.86-.36-.86-.72.21-.36.21-.72.84-.36.84-.72.31-.35.31-.71-.83-.36-.83-.72,1.41-.36,1.41-.72-1.38-.36-1.38-.72,0-.36,0-.72,1.39-.36,1.39-.72-2.16-.36-2.16-.72,1.5-.36,1.5-.72-.46-.36-.46-.72-1.1-.36-1.1-.72.62-.36.62-.72-.71-.36-.71-.72.69-.36.69-.72.4-.36.4-.72.31-.36.31-.72-.35-.36-.35-.72.23-.36.23-.72-1.08-.36-1.08-.72.49-.36.49-.72-.58-.36-.58-.72,2-.36,2-.72,0-.36,0-.72-1.06-.36-1.06-.72.34-.36.34-.72.4-.37.4-.73-1.69-.36-1.69-.72,2.08-.36,2.08-.72-.21-.36-.21-.72-1.83-.36-1.83-.72,1.81-.36,1.81-.72,0-.36,0-.72-1-.36-1-.72-.56-.36-.56-.72-.14-.36-.14-.72.81-.36.81-.72-.43-.36-.43-.72.17-.36.17-.72-.18-.36-.18-.72.27-.36.27-.72.29-.36.29-.72-1.33-.36-1.33-.72.36-.36.36-.72-.19-.36-.19-.72.66-.36.66-.72,0-.36,0-.72,1.55-.36,1.55-.72-2.14-.36-2.14-.72.41-.36.41-.72.53-.36.53-.72-.2-.36-.2-.72-.55-.36-.55-.72.91-.36.91-.72.07-.36.07-.72.14-.35.14-.71.5-.36.5-.72-1.34-.36-1.34-.72,1.67-.36,1.67-.72-.9-.36-.9-.72.7-.36.7-.72-1.48-.36-1.48-.72-.22-.36-.22-.72.4-.36.4-.72-.79-.36-.79-.72,2.29-.36,2.29-.72S55,243,55,242.62s-.65-.36-.65-.72-.33-.36-.33-.72.15-.36.15-.72.07-.36.07-.72.95-.36.95-.72-1.46-.36-1.46-.72.41-.36.41-.72.93-.36.93-.72-.46-.36-.46-.72-1.54-.36-1.54-.72.44-.36.44-.72-.39-.36-.39-.72.33-.36.33-.72.51-.36.51-.72,1.45-.36,1.45-.72-2.29-.36-2.29-.72.73-.36.73-.72-.32-.36-.32-.72.09-.36.09-.72-.18-.36-.18-.72,1.6-.36,1.6-.72-.19-.36-.19-.72-.52-.36-.52-.72.84-.36.84-.72-1.1-.36-1.1-.72-.16-.36-.16-.72.28-.36.28-.72.85-.36.85-.72-1.59-.36-1.59-.72.26-.36.26-.72,1.73-.36,1.73-.73-.83-.36-.83-.72-1-.36-1-.72,1.38-.36,1.38-.72-1.61-.36-1.61-.72,1.58-.36,1.58-.72-.39-.36-.39-.72,0-.36,0-.72-.07-.37-.07-.73,0-.36,0-.72.34-.36.34-.72-1.52-.36-1.52-.72-.17-.36-.17-.72.67-.36.67-.72.39-.36.39-.72.38-.36.38-.72.27-.36.27-.72-1.71-.36-1.71-.72.74-.36.74-.72S53,207,53,206.6s1.32-.36,1.32-.72-1-.36-1-.72,1.86-.36,1.86-.72-1.23-.36-1.23-.72-.23-.36-.23-.72-.19-.36-.19-.72,1.77-.36,1.77-.72-1.51-.36-1.51-.72.19-.36.19-.72.67-.36.67-.72-.37-.36-.37-.72-.13-.36-.13-.72,1.26-.36,1.26-.72-2.19-.36-2.19-.72.44-.36.44-.72.94-.35.94-.71.07-.36.07-.72.66-.36.66-.72-1.56-.36-1.56-.71,1-.36,1-.72-.31-.36-.31-.72,1-.36,1-.72-.48-.36-.48-.72-1.62-.36-1.62-.72.37-.36.37-.72.7-.36.7-.72.69-.36.69-.72-1.33-.36-1.33-.72-.32-.36-.32-.72.32-.36.32-.72,1.63-.36,1.63-.72-.2-.36-.2-.72-.63-.36-.63-.72-.77-.36-.77-.72,1.24-.37,1.24-.73-1.7-.36-1.7-.72,1.79-.36,1.79-.72-.45-.36-.45-.72-.36-.36-.36-.72-.35-.36-.35-.72,1.17-.36,1.17-.72.08-.36.08-.72-1.79-.36-1.79-.72,1.27-.36,1.27-.72.08-.36.08-.72-.58-.36-.58-.72.68-.36.68-.72-.14-.36-.14-.72-1.13-.36-1.13-.72-.2-.35-.2-.71.37-.36.37-.72-.3-.36-.3-.72.87-.36.87-.72.71-.36.71-.72-.88-.36-.88-.71.69-.36.69-.72-1.12-.36-1.12-.72,1.33-.36,1.33-.72-2-.36-2-.71.59-.36.59-.72.31-.36.31-.72,1-.36,1-.72-2-.35-2-.71.26-.36.26-.72,1.76-.36,1.76-.72-1.12-.36-1.12-.71.31-.36.31-.72.94-.36.94-.72-1.86-.36-1.86-.72.09-.35.09-.71-.32-.36-.32-.72.41-.36.41-.72,1.49-.36,1.49-.71-1-.36-1-.72,1.07-.36,1.07-.72-.79-.36-.79-.72.24-.36.24-.71-.57-.36-.57-.72-.51-.36-.51-.72,1.27-.36,1.27-.72-1.3-.36-1.3-.72.53-.35.53-.71,1.19-.36,1.19-.72-2-.36-2-.72,0-.36,0-.72,0-.36,0-.72,1.5-.36,1.5-.72-.45-.36-.45-.72,0-.36,0-.72.77-.36.77-.72-.5-.36-.5-.72.5-.36.5-.72-1.9-.36-1.9-.72,1.45-.36,1.45-.72-.09-.36-.09-.72.64-.36.64-.72-1.14-.36-1.14-.72.23-.36.23-.72,0-.36,0-.73.76-.36.76-.72-.82-.36-.82-.72.51-.36.51-.73-.55-.36-.55-.72-.58-.36-.58-.72-.3-.36-.3-.72,1.39-.36,1.39-.72.48-.37.48-.73,0-.36,0-.72-.91-.36-.91-.72-.19-.36-.19-.72-.51-.36-.51-.72-.2-.36-.2-.72,1.34-.36,1.34-.72-1.5-.36-1.5-.72,2-.36,2-.72-.51-.36-.51-.72-1.22-.36-1.22-.72,1.1-.36,1.1-.72-.64-.36-.64-.72.62-.36.62-.72-1.24-.36-1.24-.72,1.26-.36,1.26-.72,0-.36,0-.72-.77-.36-.77-.72,1.79-.36,1.79-.72S55,116.31,55,116v-.72c0-.36.13-.36.13-.72s-1.18-.36-1.18-.72-.28-.36-.28-.72,1.59-.36,1.59-.72-1.6-.36-1.6-.72.64-.37.64-.73-1-.36-1-.72,1.75-.36,1.75-.72-.62-.36-.62-.72S54,108.38,54,108s.3-.36.3-.73-1-.36-1-.72,1.65-.36,1.65-.72-.72-.36-.72-.72-.87-.37-.87-.73,1-.36,1-.72-.8-.36-.8-.73,1.36-.36,1.36-.72-1.64-.36-1.64-.72,1.6-.36,1.6-.73-.58-.36-.58-.72-.61-.36-.61-.72.6-.36.6-.72.66-.36.66-.72-1.34-.36-1.34-.73.36-.36.36-.72-.86-.36-.86-.72,2.21-.36,2.21-.72-.76-.36-.76-.72.46-.36.46-.72-.52-.36-.52-.73-1.13-.36-1.13-.72,2-.36,2-.72-2.37-.36-2.37-.72.27-.36.27-.72,1.57-.36,1.57-.73-1.46-.36-1.46-.72,1-.36,1-.72.25-.36.25-.72-.23-.37-.23-.73-.45-.36-.45-.72.55-.37.55-.73.35-.36.35-.72-.54-.36-.54-.73,1-.36,1-.72-1.21-.36-1.21-.72,0-.36,0-.73-.05-.36-.05-.72-.27-.36-.27-.72S55,79.47,55,79.11s-1.12-.37-1.12-.73-.72-.36-.72-.72,2-.36,2-.72-.73-.36-.73-.73-1.07-.36-1.07-.72,1.23-.36,1.23-.72-.06-.36-.06-.73.42-.36.42-.72-.22-.36-.22-.72-.78-.37-.78-.73-.5-.36-.5-.72,1-.37,1-.73-.24-.36-.24-.72-.1-.36-.1-.73,1-.36,1-.72-.93-.36-.93-.72-1.06-.36-1.06-.72S55,66.45,55,66.09s0-.36,0-.72-.81-.36-.81-.72.54-.36.54-.72-.56-.36-.56-.73.78-.36.78-.72-.62-.36-.62-.73.19-.36.19-.72.08-.36.08-.72-.8-.37-.8-.73.88-.36.88-.72-1-.36-1-.72-.32-.36-.32-.72.76-.36.76-.72S55,56.34,55,56s.33-.36.33-.72-.47-.37-.47-.73.45-.36.45-.72-1.39-.36-1.39-.72.66-.36.66-.72-.31-.36-.31-.73-.16-.36-.16-.72-.16-.36-.16-.73.12-.36.12-.72-.66-.37-.66-.73.6-.36.6-.72.55-.37.55-.73.3-.36.3-.72-.7-.36-.7-.73,1.15-.36,1.15-.72S55,44.76,55,44.4s-.72-.37-.72-.73-.47-.36-.47-.72.46-.37.46-.73-.75-.37-.75-.73.25-.36.25-.72-.48-.37-.48-.73.46-.36.46-.73.94-.36.94-.72.05-.36.05-.73-.64-.36-.64-.73,1.25-.36,1.25-.72-.83-.37-.83-.73-.46-.36-.46-.73-.88-.36-.88-.72.69-.36.69-.72S55,33.15,55,32.79s-.39-.37-.39-.73-.34-.36-.34-.73S54,31,54,30.61s.5-.37.5-.73-.58-.36-.58-.73-.06-.36-.06-.73.29-.36.29-.73S54,27.33,54,27s1.18-.37,1.18-.74-1.26-.36-1.26-.72-.36-.37-.36-.73,1.67-.37,1.67-.73.09-.37.09-.73-1.43-.37-1.43-.74.27-.36.27-.73-.81-.17-.88-.53c0-.08,1.24-.43,1.19-.48,0-.24-.36-.22-.41-.46s-.62-.36-.68-.59.53-.64.47-.88-1.33-.11-1.4-.35,1.4-.94,1.33-1.18-.12-.49-.21-.72.17-.61.08-.83-.92-.17-1-.4-1.46.13-1.56-.09,1-1,.88-1.22-.16-.47-.28-.68-1.28.17-1.4,0-.3-.35-.43-.55,1.41-1.48,1.27-1.69-.17-.51-.31-.7-.2-.5-.35-.7-.46-.3-.62-.49-1.31.45-1.47.26.25-.88.09-1.06-.06-.65-.23-.82S47,8.19,46.78,8s-.5-.15-.69-.31-.72.14-.91,0,0-.7-.21-.85.43-1.39.23-1.53-.23-.54-.43-.68-.61,0-.81-.11-.54,0-.75-.17-.65.18-.86.06-.24-.57-.45-.68-.72.39-.94.28-.54.08-.75,0-.44-.15-.66-.24-.27-.55-.5-.63-.19-.85-.42-.92-.61.3-.83.22-.42-.27-.64-.33-.45-.19-.68-.25-.33-.68-.56-.73-.79,1.32-1,1.27-.09-2-.32-2-.87,2.22-1.11,2.18-.4-.34-.64-.37-.37-.7-.61-.73-.55.9-.79.87-.37-1.23-.6-1.24-.52.87-.75.86S29.66,0,29.42,0s-.49,2-.73,2-.46-.34-.7-.33-.48-.61-.72-.6-.5-.32-.74-.31S26,.19,25.76.21s-.31,1.7-.54,1.73-.52-.38-.75-.35-.43.26-.67.3-.73-1.41-1-1.37-.06,2.19-.29,2.24-.46,0-.7,0-.78-1.26-1-1.2-.28.81-.51.88-.47,0-.7.11-.6-.32-.82-.24-.38.37-.6.45-.85-.87-1.07-.78.19,1.76,0,1.85-.22.65-.44.74-.44.1-.66.21S14.59,3,14.38,3.11s.7,2.36.49,2.47-1.55-1.79-1.75-1.67.65,2,.44,2.14-1.09-.85-1.28-.72-.41.27-.6.41,0,.8-.21.94-.69-.12-.88,0,.39,1.21.21,1.36-1.29-.76-1.47-.6,0,.75-.14.91.4,1.06.23,1.23-2-1.29-2.18-1.12.22.89.06,1.06.43,1,.28,1.18-.36.31-.51.5-.68.06-.82.26-.36.33-.5.52-.31.37-.44.57,0,.56-.13.77-1.34-.25-1.46,0,.54.88.43,1.09.64.88.53,1.09-1.32-.14-1.43.08-.49.31-.59.52.26.66.17.88-.58.28-.67.51.77.81.69,1-1.59,0-1.66.18.13.57.06.8,0,.52-.07.75.28.63.22.86-.53.37-.53.73,1.25.36,1.25.72-1.66.36-1.66.72,1.13.36,1.13.72,1.06.36,1.06.71-2.2.36-2.2.72.37.36.37.72-.4.36-.4.72.7.36.7.72.19.36.19.72-.39.35-.39.71.56.36.56.72.94.36.94.72S1,30.81,1,31.17s-.27.36-.27.72.53.36.53.72,1.5.36,1.5.72-.73.36-.73.72-.7.36-.71.72.05.36.05.72-.55.36-.55.72.13.36.13.72-.08.36-.08.72.44.36.44.72-.36.35-.36.71-.29.36-.29.72.18.36.18.72,1.24.36,1.24.72.11.36.11.72-.26.36-.26.72,0,.36,0,.72-1.09.36-1.09.72-.27.36-.27.72,1.21.36,1.21.72,0,.36,0,.72.59.36.59.71.1.36.1.72.31.36.31.72-1.26.36-1.26.72,1.15.36,1.15.72-.92.36-.92.72-.08.36-.08.71.93.36.93.72-.51.36-.51.72.51.36.51.72-2.16.36-2.16.71,1,.36,1,.72.06.36.06.72-.14.36-.14.72,0,.36,0,.72-.19.36-.19.71.58.36.58.72.45.36.45.72-.15.36-.15.72.1.36.1.71-.66.36-.66.72,0,.36,0,.72-.74.36-.75.72.37.35.37.71.43.36.43.72-.28.36-.28.72.31.36.31.71-1,.36-1,.72.6.36.6.72.37.36.37.72.54.35.54.71-1.4.36-1.4.72.87.36.87.72.42.35.42.71.6.36.6.72-2.23.36-2.23.71,1.54.36,1.54.72.59.36.59.72,0,.36,0,.72-.34.35-.34.71-.92.36-.92.72-.32.36-.32.71,1.87.36,1.87.72-.1.36-.1.72-2,.35-2,.71,1.29.36,1.29.72.85.36.85.72-1.59.35-1.59.71,1.55.36,1.55.72-1.32.36-1.32.71,1.07.36,1.07.72-.34.36-.34.72-.44.36-.44.71-.09.36-.09.72-.66.36-.66.72,1.32.35,1.32.71-.91.36-.91.72.44.36.44.71.76.36.76.72-1.67.36-1.67.72,1.74.36,1.74.71-2.06.36-2.06.72.91.36.91.71S1,91.8,1,92.16s.78.36.78.72-1.15.35-1.15.71.13.36.13.72,1.68.36,1.68.72-.9.35-.9.71-.79.36-.79.72,1,.35,1,.71.57.36.57.72-1,.36-1,.71,1.41.36,1.41.72-.1.36-.1.72-1.33.35-1.33.71-.25.36-.25.72-.34.36-.34.71,1.41.36,1.41.72-.8.36-.8.72,1,.36,1,.71-1.69.36-1.69.72.76.36.76.72,1.4.36,1.4.71-1.36.36-1.36.72.65.36.65.72-1.43.35-1.44.71,1.47.36,1.47.72-1.38.35-1.38.71.11.36.11.72.76.36.76.72-1.12.35-1.12.71,2,.36,2,.72-1.36.36-1.36.72S1,114,1,114.36s.48.36.48.72.11.36.11.72-.61.35-.61.71,1.32.36,1.31.72-.62.36-.62.72.59.35.59.71-1.43.36-1.43.72-.44.36-.44.71.7.36.7.72,0,.36,0,.72.9.36.9.72-.46.35-.47.71-.74.36-.74.72,1.74.36,1.74.72-1.44.36-1.44.71-.24.36-.24.72,1,.36,1,.72.38.36.38.72-1.82.35-1.82.71,1.77.36,1.77.72.34.36.34.72.06.36.06.72-1.77.36-1.77.71,1.5.36,1.5.72-1.13.36-1.13.72,1.36.36,1.35.72-1.24.36-1.24.72.92.36.92.71-1.33.36-1.33.72,1.92.36,1.92.72-1.59.36-1.59.72,1.12.36,1.12.72-1.1.36-1.1.72-.43.35-.43.71.72.36.72.72,0,.36,0,.72-.54.36-.54.72,1.19.36,1.19.72-.48.36-.48.72.73.36.73.72-.8.36-.8.72,1,.36,1,.72-2,.35-2,.71,1.87.37,1.87.73-1.69.35-1.69.71,1.26.37,1.26.72-1.28.36-1.28.72-.08.36-.08.72,2.15.37,2.15.73-.31.36-.31.72-.69.35-.69.71.44.37.44.73-1.36.35-1.36.71.76.37.76.73.8.36.8.72-1.34.36-1.34.72,1.29.36,1.29.72-1.88.36-1.88.72,1.06.36,1.06.72.31.36.31.72.43.36.43.72-1.91.36-1.91.72.34.36.34.72,1.47.36,1.47.72-.68.36-.69.72.8.36.8.72S1,162.14,1,162.5s.46.36.45.72.2.36.2.72-.43.36-.43.72.08.36.08.72.46.36.46.72-.08.36-.08.72-.46.36-.46.72-.26.36-.26.72,1.43.36,1.43.72-.36.36-.36.72-.94.35-.94.71.62.36.62.72-.67.36-.67.72,1,.36,1,.72-.25.36-.25.72-.05.36-.05.72-1,.35-1,.71.68.36.68.72,1.09.36,1.09.72-1.23.36-1.23.72,1.43.36,1.43.72-1.28.36-1.28.72.61.35.61.71-1.07.36-1.07.72,1.4.36,1.4.72-.91.36-.91.72.44.36.44.72-.27.35-.27.71-1.08.36-1.08.72,1,.36,1,.72-1.1.36-1.1.72,1.46.36,1.46.71.42.36.41.72-.44.36-.44.72.3.36.3.72.46.36.46.72-1.85.35-1.85.71,1.44.36,1.44.72-.88.36-.88.72.37.36.37.72-1.33.35-1.33.71,1.77.36,1.77.72-.68.36-.68.72-.62.36-.62.72,1.38.36,1.38.72.23.36.23.71-.12.36-.12.72-2,.36-2,.72.65.36.65.72.52.36.52.72-.15.35-.15.71-.33.36-.33.72-.27.36-.27.72.77.36.77.72-1,.35-1,.71,1.43.36,1.43.72.13.36.13.72-.74.36-.74.72-.11.36-.11.72-.94.36-.94.71,2.28.37,2.28.73-2.14.35-2.14.71-.13.36-.13.72,1.69.36,1.69.72-1.45.36-1.45.72.19.36.19.72,1.38.36,1.38.72.58.36.58.71-.87.36-.87.72-.51.36-.51.72-.91.36-.91.72,1.32.36,1.32.72,0,.36,0,.72.42.36.42.72-.32.36-.32.72-.19.36-.19.72.4.36.4.72,0,.36,0,.72.31.36.31.72-1.47.35-1.48.71-.46.36-.46.72,1.9.36,1.9.72-.74.36-.74.72.76.36.76.72-.65.36-.66.72-.7.36-.7.72-.62.36-.62.72,2.36.37,2.36.73-1.66.36-1.66.72.22.36.22.72.78.36.78.72.48.36.48.72-1.1.36-1.1.72,1.05.36,1.05.72-1.81.36-1.81.72,1.85.36,1.85.72-.56.36-.57.72-.54.36-.54.72-.72.36-.72.72v.72c0,.36-.32.36-.32.72s2,.37,2,.73-.22.36-.22.72-1.29.35-1.29.71.16.36.16.72.94.37.94.73-1.32.35-1.32.71,1.44.36,1.44.72-.85.36-.85.72,0,.36,0,.72-.26.36-.26.72,1.32.36,1.32.72-1.8.36-1.8.72.79.36.79.72v.72c0,.36,1.45.36,1.45.72s-.48.36-.48.72-1.69.36-1.69.72,1.31.36,1.31.72.14.36.14.72-1.16.35-1.16.71,1,.36,1,.72.9.36.9.72-1.64.36-1.64.72-.53.36-.54.72,1.41.36,1.41.72-.75.36-.75.72,1.56.36,1.56.72-1.38.36-1.38.72-.65.36-.65.71,1.39.37,1.39.72.5.36.5.72-.47.36-.47.72-.93.36-.93.72-.06.36-.06.72.8.36.8.72,0,.36,0,.72-1.55.36-1.55.72.83.36.83.72,1,.36,1,.72-1.18.35-1.18.71-.42.36-.43.72.27.36.27.72.89.36.89.72.14.36.14.72.28.36.28.72-1.32.36-1.32.72.89.36.89.72.43.36.43.72-1,.36-1,.72.25.36.25.72.44.36.44.72.37.36.37.72.15.36.15.72-1,.36-1,.72-.76.36-.76.72.64.36.64.72-.58.36-.58.72,1.88.36,1.88.72.14.36.14.73.06.36.06.72-.87.36-.87.72-1.47.36-1.47.72,1.06.36,1.06.72-.69.36-.69.72.51.36.51.72-.73.36-.73.72.61.36.61.72,1.27.37,1.27.73.17.36.17.72-.92.36-.92.72-.25.36-.25.72-.95.36-.95.72.4.36.4.72,0,.36,0,.72,1.36.36,1.36.72-.19.36-.19.72.68.36.68.72-2.15.36-2.15.72.36.36.36.72.72.36.72.72-.18.36-.18.72.13.36.13.72,1.05.36,1.05.72.11.36.11.72-1.34.36-1.34.72-.39.36-.39.72-.67.36-.67.72.06.36.06.72.27.36.27.72.87.36.87.72-.91.36-.91.72,1.19.36,1.19.72.16.36.16.72,0,.36,0,.72.31.36.31.72-1.88.36-1.88.72.83.35.83.71.88.36.88.72-1.68.36-1.68.72,1.53.36,1.53.71.57.36.57.72-.21.36-.21.72-1.12.36-1.12.72.41.36.41.72-1.24.35-1.25.71.3.36.3.72,1.58.36,1.58.72.1.36.1.72-.5.36-.5.72-1.52.36-1.52.72.86.36.86.72-.06.36-.06.72,1.3.36,1.3.72-1.72.36-1.72.72,2,.37,2,.73-1.33.36-1.33.72-.5.36-.5.72,1,.36,1,.72-.44.36-.44.72,1.25.36,1.25.72-1.14.36-1.14.72-.58.36-.58.72-.41.36-.41.72.35.36.35.72,1.05.36,1.05.72-1.59.36-1.59.72,1.6.36,1.6.72-1.52.36-1.52.72,1.67.36,1.67.72-1.11.36-1.11.72S2,329,2,329.39s-.59.36-.59.72-1.2.35-1.2.71.27.36.26.72,1.61.36,1.61.72-.57.36-.57.72.59.36.59.72-1.29.35-1.29.71.09.36.09.72-.18.36-.18.72,1.41.36,1.41.72v.71c0,.36-1.92.36-1.92.72s1.07.36,1.07.72,1.24.36,1.23.71-2,.36-2,.72.57.36.57.72.09.36.09.71.43.36.43.72-.49.36-.49.72.53.36.53.72-1.29.35-1.29.71-.27.36-.27.72,1.67.36,1.67.72,0,.35,0,.71-.69.36-.69.72.09.36.09.72,0,.36,0,.71.46.36.46.72-1.14.36-1.14.72,1.93.36,1.93.72-1.74.35-1.75.71,1.48.36,1.48.72-.61.36-.61.72-1.34.36-1.34.72,1.28.36,1.28.72.89.36.89.72-1.46.35-1.46.71,1.57.36,1.57.72-1.42.36-1.42.72.1.36.1.72,1.21.36,1.2.72-1.68.36-1.68.72.27.36.26.72-.13.36-.13.72.56.36.56.72-.42.36-.42.72,1,.36,1,.72-1.45.36-1.45.72,1.88.37,1.88.73-1.14.36-1.14.72.26.36.26.72,0,.36,0,.73.32.36.32.72-.34.36-.34.72.22.36.22.72-1.53.36-1.53.73.8.36.8.72.23.36.23.72-.73.36-.73.72-.41.36-.41.72,1.17.36,1.17.72.14.36.14.72-.06.36-.06.72.73.37.73.73-.54.35-.54.72-1.32.35-1.32.71,2,.37,2,.73-.63.36-.63.72-1.37.35-1.37.71,2.05.37,2.05.73-.81.35-.81.71-.47.36-.47.72,0,.36,0,.72-.77.36-.77.72.59.36.59.72,1.29.36,1.29.72-1.72.36-1.72.72,1,.36,1,.72,0,.36,0,.72.07.36.07.72-.05.36-.05.72-.61.36-.61.72,1.6.36,1.6.72-1.94.36-1.94.72,0,.36,0,.72.09.37.09.73,1.08.36,1.08.72.16.36.16.72-1.52.36-1.52.72,1.63.37,1.63.73-.71.36-.71.72,1.38.36,1.38.72-1.75.36-1.75.73-.45.36-.45.72.83.36.83.72.45.37.45.73,1,.36,1,.72-.44.36-.44.72.05.36.05.73-.66.36-.66.72-1,.36-1,.72-.42.36-.42.72.79.36.79.72,1,.36,1,.72.23.36.23.73.43.36.43.72-1.81.36-1.81.72-.38.36-.38.72,0,.36,0,.72-.24.36-.24.72,1,.36,1,.72,1.37.37,1.37.73-1.33.36-1.33.72,1.33.36,1.32.72-2.1.36-2.1.72,1.73.36,1.73.73-.07.36-.07.72-.37.36-.37.72-1.27.36-1.27.73,0,.36,0,.72,2,.36,2,.73-.87.36-.87.72-1,.36-1,.72.44.36.44.72,1.34.37,1.34.73-1.91.36-1.91.72,1.25.36,1.25.72-.78.36-.78.73,1.32.36,1.32.72-.82.36-.82.72-1,.36-1,.72.33.36.33.73,0,.36,0,.72,1.36.36,1.36.72-.43.36-.43.73-.81.36-.81.72-.45.36-.45.72.35.37.35.73,1.24.36,1.23.72-.75.37-.75.73,0,.36,0,.72-.05.36-.05.72,1.1.37,1.1.73-1.56.36-1.56.72.81.36.81.72-1.34.35-1.34.71,1.89.37,1.89.73.45.36.45.72-1.57.36-1.57.72,1.63.36,1.63.73-1.46.36-1.46.72.23.36.23.72-.75.37-.75.73-.25.36-.25.72.79.36.79.72,1,.37,1,.73.21.36.21.72-1.64.36-1.64.72,0,.36-.06.72.35.36.35.72,1.23.36,1.23.72.13.36.13.72-1.64.36-1.64.72,1.52.37,1.52.73.2.36.2.72-.68.36-.68.72.14.37.14.73-1.33.36-1.33.72,1.43.37,1.43.73-.39.36-.39.72-1.15.37-1.15.73,1.79.36,1.79.72-1.48.36-1.48.73.25.36.25.72.8.36.8.72-.61.37-.61.73.15.36.15.72,0,.37,0,.73-.17.36-.17.73.73.36.73.72-.35.37-.35.73-.93.36-.93.72,1.87.37,1.87.73S0,461.74,0,462.1s1.83.37,1.83.73.22.37.22.73-2,.36-2,.72,2.12.37,2.12.73-2,.36-2,.73.17.36.17.72,1.61.36,1.61.72-.67.36-.67.72-.09.37-.09.73-.34.36-.34.73,1,.36,1,.73-.67.36-.67.72-.67.36-.67.73,0,.36,0,.73.54.36.54.73,1.07.36,1.07.73-2.16.36-2.17.72,1,.37,1,.73,1,.37,1,.73-1.4.37-1.4.73,1.58.37,1.58.73-.94.37-.94.74-1,.36-1,.73,2,.31,2.05.68-1,.53-1,.76-1,.75-1,1,1.43.13,1.5.37-1,.8-.93,1,1.28.11,1.36.33-.18.58-.09.8,1.07.1,1.16.32-1.2,1-1.11,1.24-.13.61,0,.83,1.94-.39,2.05-.18.07.48.18.69.11.47.23.68-.85,1.07-.72,1.27.69.15.82.35-.22.75-.08.94,1.35-.38,1.49-.18l.45.54c.15.19.08.54.24.73s-.84,1.39-.68,1.57,2-1.2,2.16-1-1.13,1.8-1,2,.25.49.43.65S9.72,492.8,9.91,493s-1.06,2-.87,2.19,1.36-1,1.56-.82.13.63.33.77-.23,1.22,0,1.35.75-.25.95-.13,1.06-.86,1.26-.75.16.68.37.79.63-.24.85-.13,0,1.13.2,1.22l.67.28c.22.09.65-.35.87-.27s.3.57.52.65.64-.42.86-.35.19,1,.42,1.06.66-.59.89-.53.24,1,.47,1.06.84-1.61,1.08-1.56.15,1.59.39,1.63.63-.89.87-.85.32,1,.56,1,.49,0,.72,0l.72.08c.23,0,.54-1,.78-1s.45.17.69.18.43,1.31.67,1.31.48-.12.72-.12.5.53.74.53.48-.38.71-.39.41-1.2.64-1.22.46-.05.7-.07.5.31.74.29.42-.35.66-.38.5.21.74.18.63.81.86.77.49-.05.73-.09.09-1.74.33-1.79.8,1.29,1,1.23.3-.72.53-.79.67.58.9.51.1-1.24.33-1.31.49,0,.71-.07.37-.35.59-.44.23-.63.45-.72,1,1.18,1.24,1.08.78.51,1,.41.29-.54.5-.65-.48-1.93-.28-2,1.48,1.65,1.69,1.53.05-.88.25-1,.32-.39.52-.52,0-.81.21-.94.78.27,1,.13-.13-.94.06-1.09.19-.48.37-.63,1.54,1.05,1.72.9,0-.7.2-.86-.36-1.05-.19-1.22.49-.16.65-.34.18-.46.34-.64.26-.37.42-.56,1.11.31,1.26.13-.13-.71,0-.9.17-.46.3-.65-.07-.62.06-.81.08-.49.21-.69.22-.39.35-.6,1.06.09,1.18-.12.35-.35.46-.56,0-.54.09-.75-.72-.87-.62-1.08,1.68.25,1.77,0,.06-.5.15-.72-1.24-1-1.15-1.21.72-.22.8-.44,1.53,0,1.61-.22-.45-.65-.38-.88.22-.46.28-.69-.34-.33-.28-.78c0-.2.07-.44.1-.71s.25-.43.28-.69-.91-.56-.88-.8.15-.46.17-.7,1.12-.37,1.14-.61-.1-.48-.08-.72.24-.46.26-.7-1.36-.59-1.34-.83,2.08-.33,2.1-.56-2.22-.63-2.21-.86,0-.47,0-.71.64-.45.65-.68-.42-.48-.42-.71.8-.48.8-.71-.72-.44-.74-.67S55.09,467.64,55.06,467.43Z" style="fill:#a2a28d"/></g></g></svg>