<svg xmlns="http://www.w3.org/2000/svg" width="131.17mm" height="48.16mm" viewBox="0 0 371.81 136.52"><title>ui_2</title><g id="圖層_2" data-name="圖層 2"><g id="icon4"><path d="M331.43.92c-.23,0-.47-.86-.71-.86s-.48.19-.72.19-.47.53-.71.53-.48.35-.72.35-.47-.34-.71-.34-.48.56-.72.56-.48-.18-.72-.18-.47.35-.71.35-.48-.34-.72-.34-.47-.7-.71-.7-.48,0-.72,0-.48.48-.72.48-.47-.93-.71-.93-.48.62-.72.62-.47.33-.71.34-.48.65-.72.65-.48-.51-.72-.51-.48-.82-.72-.82-.47.29-.71.29-.48.26-.72.26-.47.2-.71.21-.48-.37-.72-.37-.48.43-.72.43-.47,0-.71,0-.48-.21-.72-.21-.48.13-.72.13-.48-.87-.72-.87-.47.94-.71.94-.48.27-.72.27-.48-1.23-.72-1.23-.48-.07-.72-.07-.47,1.06-.71,1.06S308,1,307.79,1s-.47.67-.71.67S306.6.56,306.36.56s-.48.27-.72.27-.48.4-.72.4-.48-.5-.71-.5-.48.93-.72.93-.48-1.2-.72-1.2-.48,0-.72,0-.48-.27-.72-.27-.47.59-.71.59-.48,1-.72,1-.48-1-.72-1-.48,0-.72,0-.47.89-.71.89-.48.07-.72.07-.48-1.47-.72-1.47-.48-.1-.72-.1-.48-.09-.72-.09-.48.14-.72.14-.47,1-.71,1-.48-.57-.72-.57-.48-.3-.72-.3-.47.94-.71.94-.48.18-.72.18-.48.43-.72.44-.48-.4-.72-.4-.48-1-.72-1-.48-.23-.72-.23-.48.27-.72.27-.47.18-.71.18-.48.37-.72.37-.48-.29-.72-.29-.47.5-.71.51-.48.22-.72.22-.47,0-.71,0-.48-.29-.72-.29-.48-.54-.72-.54-.47.36-.71.37-.48-.1-.72-.1-.47,0-.71,0-.48-.42-.72-.42-.47,1.09-.71,1.09-.49-1.43-.73-1.43-.46,1.74-.7,1.74-.48-.2-.72-.2-.48-.47-.72-.47-.47.7-.71.71-.48-.89-.72-.89-.48.68-.72.68-.48-1.4-.72-1.4-.47,1.51-.71,1.51-.48-.25-.72-.25-.48-.46-.72-.46-.47-.25-.71-.25-.48-.47-.72-.47-.47,1.24-.71,1.24-.48-.32-.72-.32-.48.15-.72.15-.48-1.12-.72-1.11S265,2,264.77,2s-.48-.08-.72-.08-.48-1-.72-1-.48.53-.71.53-.48-.06-.72-.06-.48-.35-.72-.35-.48.18-.72.18-.48-.82-.72-.82-.47,1.27-.71,1.27-.48.38-.72.39-.47-.07-.71-.07-.49-1.67-.73-1.67-.47,1.8-.71,1.8-.49-1.72-.73-1.71-.47,1.54-.71,1.54-.48-1-.72-1h-.72c-.24,0-.47.49-.71.49s-.48-.38-.72-.38-.48.88-.71.88-.49-1-.73-1-.48.43-.71.43-.48.78-.72.78-.49-1.74-.73-1.74-.47.57-.71.57-.48.73-.72.74-.47-.06-.71-.06-.49-.36-.72-.36-.48-.07-.72-.06-.48,0-.72,0-.48.23-.72.23-.48-.94-.72-.94-.48.68-.72.69-.47.73-.71.74-.49-.93-.73-.92-.48-.23-.72-.23-.47.38-.71.38-.48-.31-.72-.31-.48.76-.72.76S237,.43,236.76.43s-.48.23-.72.23-.48.12-.72.12-.48.33-.72.33-.48-.39-.72-.39-.47.93-.71.93-.49-1.22-.73-1.22-.47.84-.71.84-.47.79-.71.79-.49-1.63-.73-1.63-.48.28-.72.28-.48-.29-.72-.29-.48.52-.72.53-.48.14-.72.15-.48-.29-.72-.29-.47.42-.71.42-.48.7-.72.7-.49-1.07-.73-1.07-.48-.19-.72-.19-.47.4-.71.4-.47,1.11-.71,1.11-.49-.53-.73-.53-.48-.52-.72-.52-.48,0-.72,0-.48-.4-.72-.4-.48.1-.72.1-.48-.05-.72-.05-.47.33-.71.33-.48-.26-.72-.26-.48-.21-.72-.21-.48.14-.72.14-.47.92-.71.92-.48.09-.72.09-.48-.19-.72-.19h-.72c-.24,0-.48-.81-.72-.81s-.48-.19-.72-.19-.48.91-.72.91-.47,0-.71,0S209,2,208.73,2s-.48.07-.72.07-.48.24-.72.24-.48-.93-.72-.93-.47.86-.71.86-.49-.68-.73-.68-.48-.05-.72-.05-.47.69-.71.69-.48-.37-.72-.37-.48.38-.72.38-.49-1.6-.73-1.6-.47.75-.71.76-.48,0-.72.05-.48-.1-.72-.1l-.72,0c-.24,0-.48-.14-.72-.14s-.48.44-.72.44-.48.33-.72.34-.48-.11-.72-.11-.48.08-.72.08-.48-.49-.72-.48h-.72c-.24,0-.48-.55-.72-.55s-.48.28-.72.28-.48.32-.72.33-.48-.21-.72-.21-.48.23-.72.24-.48-.75-.72-.75-.48.45-.72.45-.48.28-.72.28-.47.41-.72.41-.48-1-.72-1-.48.64-.72.64-.48.32-.72.32-.47.45-.71.45-.49-1.65-.73-1.65-.48,1.15-.72,1.16-.47.44-.71.44l-.72,0c-.24,0-.48-.26-.72-.26s-.49-.67-.73-.67-.48-.24-.72-.23-.47,1.39-.71,1.39-.48-.07-.72-.07S177.3,1,177.06,1s-.47,1-.71,1-.48.63-.72.63-.49-1.17-.73-1.17-.47,1.15-.71,1.15-.49-1-.73-1-.47.8-.71.8-.49-.25-.73-.24-.48-.33-.72-.33-.48-.06-.72-.06-.48-.49-.72-.49-.48,1-.72,1-.48-.67-.72-.67-.48.34-.72.34-.48.56-.72.56-.49-1.23-.73-1.23-.47,1.3-.71,1.3S165.05,1,164.81,1s-.48.68-.72.69-.48-.36-.72-.36-.48.58-.72.59-.49-.85-.73-.85-.48.1-.72.1-.47,1.25-.71,1.25-.49-.66-.73-.66-.48-.58-.72-.58-.48.73-.72.73-.48.43-.72.43-.48-.71-.72-.71-.48,1.05-.72,1.06-.48-.08-.72-.07-.49-1-.73-1-.48-.17-.72-.17-.48-.25-.73-.25-.47,1.05-.71,1.05-.49-.59-.73-.59-.47.73-.71.73-.49-1.25-.73-1.25-.48.57-.72.57-.48,1-.72,1-.48-1-.73-1-.47.48-.71.48S147,1.2,146.77,1.2s-.48,1.09-.72,1.09-.49-1-.73-1-.48.08-.72.08-.48.57-.72.57-.49-.83-.73-.83-.47,1.48-.71,1.48-.49-1-.73-1-.48,0-.72,0-.48.36-.72.36-.48.09-.72.09-.49-.45-.73-.45-.47,1-.71,1-.49-.45-.73-.45-.48.43-.72.44-.49-1.06-.73-1.06-.48-.32-.72-.32-.48.52-.72.52h-.73c-.24,0-.47.67-.72.67s-.48-.34-.72-.34-.49-.55-.73-.55-.47,1.3-.71,1.3-.49-1.07-.73-1.07-.48-.17-.72-.17-.48.71-.72.71-.48.29-.72.29-.49-1.35-.74-1.35-.47,1.32-.71,1.33-.48.25-.72.25-.48,0-.72,0-.49-1.31-.74-1.31-.47,1.12-.71,1.12-.49-.84-.73-.84-.48,1-.72,1-.48-.93-.73-.92-.47.69-.71.69-.49-1-.73-1S119.55,3,119.31,3s-.49-1.18-.73-1.18-.48.83-.72.83-.48-.81-.72-.81-.49-.31-.73-.31-.48.54-.72.54H115c-.24,0-.49-.4-.73-.4s-.47.89-.72.89-.48-.35-.72-.35-.48.54-.72.55-.49-.6-.73-.6-.48.72-.72.72-.49-1.48-.73-1.48-.47,1.39-.71,1.4-.49-1.26-.73-1.26-.48.94-.72.94-.49-.94-.73-.94-.48-.06-.72-.05-.48,1.59-.72,1.6-.48-.23-.72-.23-.49-.51-.73-.5-.48.32-.72.33-.49-1-.73-1-.48.57-.72.57-.48.6-.72.6-.49-1-.73-1-.47,1-.71,1-.49-1.39-.73-1.39-.48.79-.72.79-.48.23-.72.23-.49.33-.73.33-.49-1.42-.73-1.41-.48.25-.72.25-.47,1.1-.72,1.1-.48-.51-.72-.51-.48.6-.72.6-.49-.94-.73-.94-.48.34-.72.34-.48.15-.72.15S90.62,2,90.38,2s-.48.06-.72.06-.48.35-.72.35-.48-.06-.72-.06S87.73,2,87.49,2s-.48-.2-.72-.19-.48,1.06-.72,1.06-.48-.26-.72-.26-.49-.7-.73-.69-.48.46-.72.46-.48-.5-.72-.49-.48.71-.72.71-.49-.18-.73-.18-.48,0-.72,0-.48-.74-.73-.74-.47.51-.72.51-.47.81-.71.81-.49-.91-.73-.9-.48,1.06-.72,1.06-.48-1-.72-1-.48.46-.72.46-.49-.8-.73-.79-.48,1-.72,1-.48-.67-.72-.67-.48.33-.72.33-.49-.2-.73-.19-.48-.8-.72-.8-.48.73-.72.73-.49-.82-.73-.82-.47,1.09-.71,1.09-.48.31-.72.32-.49-.33-.73-.33-.48.22-.72.22-.48.35-.72.35-.48-1.37-.73-1.37-.47,1.07-.71,1.07-.49-.65-.73-.65-.48.28-.72.28-.48-1-.72-1-.48,1.32-.72,1.32-.48-.5-.72-.5-.48-.46-.72-.46-.48,1-.72,1-.48.17-.72.17S58.86,3,58.62,3s-.49-1.49-.73-1.49-.48.49-.72.49-.48.39-.72.39-.48-.11-.72-.11S55.25,2,55,2s-.48-.2-.72-.19-.48.57-.72.57-.48-.74-.72-.74-.48,1.06-.72,1.07-.48.09-.72.09-.48-.55-.72-.55-.48-.07-.72-.07-.49-.7-.73-.7-.47,1.7-.71,1.7-.48-1.59-.72-1.59-.48-.09-.72-.09-.48,1.26-.72,1.26-.48-1.08-.72-1.08-.48.15-.72.15-.48,1-.72,1-.48.42-.72.42-.49-.64-.73-.64-.48-.38-.72-.37-.48-.68-.72-.68-.48,1-.72,1-.48,0-.72,0-.48.32-.72.32-.48-.25-.72-.24S38,2.5,37.72,2.5s-.48.3-.72.3h-.72c-.24,0-.48.24-.72.24s-.48-1.1-.72-1.1-.48-.34-.72-.34S33.64,3,33.4,3s-.48-.55-.72-.55S32.2,3,32,3s-.48-.48-.72-.48S30.76,2,30.52,2s-.48-.45-.71-.45-.48,1.75-.72,1.75-.48-1.23-.72-1.23-.48.16-.71.16-.48.59-.72.59-.48.35-.72.35-.48-.81-.72-.81-.48.78-.72.78-.48-1.34-.72-1.34-.48,1.37-.71,1.37-.48-.42-.72-.42-.48-.4-.72-.4-.48-.53-.71-.53h-.72c-.24,0-.48-.24-.71-.24s-.48,1.48-.72,1.48-.48-.16-.71-.16-.48-1-.72-1-.47.12-.71.12-.48.7-.71.7-.48-1-.71-1S15,2.86,14.78,2.86s-.51-.61-.75-.57a5.05,5.05,0,0,0-.74.14c-.23.06-.55,0-.78.06s0,1.08-.24,1.19S11.19,2.74,11,2.87s-.11.76-.31.9-.4.28-.59.43.32,1.12.14,1.28-.58,0-.76.19S8.24,5.1,8.07,5.28s.36,1,.2,1.19-.24.42-.39.6-1-.18-1.13,0,.26.82.12,1,.25.77.11,1-1.26-.3-1.4-.11-.61.2-.74.4.63,1,.51,1.17-.73.13-.84.34.78,1,.67,1.18S4.05,12,4,12.2s-.65.24-.74.46.74.85.65,1.07.16.57.08.79-.5.31-.58.53-.82.22-.89.45-.2.44-.28.67.43.63.37.86-.11.46-.18.69-1.23.18-1.29.41.48.62.43.85.58.62.53.85-.95.3-1,.53-.4.42-.44.66.12.51.08.75.58.57.55.81,0,.48,0,.72.15.49.12.73-1,.38-1,.62.61.53.6.77.29.49.27.73-.75.44-.76.68.17.49.16.73.31.48.3.72.28.48.28.72.11.47.12.71-.77.49-.76.73S0,31,0,31.18s.5.47.52.7-.41.52-.39.76,1.43.36,1.45.6.15.45.17.69.1.46.13.7-.58.55-.55.79-1,.63-1,.87.85.36.89.59-.43.57-.39.81.47.4.52.64-.44.59-.39.82.55.38.61.61,1,.24,1.08.47.24.42.31.65-.53.64-.46.87,0,.51,0,.74-.52.69-.45.91.45.37.53.59.14.47.22.7S4,44.76,4.07,45s0,.48.15.7.65.21.75.42-1.23,1.15-1.12,1.36.47.33.59.54.71.18.83.39.13.49.26.69.34.37.47.57.91,0,1,.15.34.33.49.52-.5,1-.35,1.18.09.57.25.76,0,.71.14.89.39.34.56.52.51.21.69.38.8-.14,1,0,0,.85.14,1,.93-.4,1.13-.26.46.18.66.31.38.29.59.41.52,0,.73.16-.21,1.47,0,1.57.72-.33.94-.23.66-.43.89-.34,0,1.26.42,1.36c.19,0,.66-1,.94-1s.54-.31.79-.26.42.26.67.32.27.91.51,1,.53-.19.78-.13.23,1,.47,1.07.51-.1.75,0,.75-1,1-1,.49,0,.72.11.37.48.61.54.16,1.22.39,1.28.63-.49.86-.42.44.17.68.24.73-.8,1-.73.09,1.36.32,1.43.9-1.3,1.13-1.23.17,1.08.4,1.16.34.5.57.57.67-.52.9-.44.35.46.58.53.76-.72,1-.64.18,1,.4,1,.31.57.53.66.34.44.57.53.54-.07.76,0,.74-.55,1-.46,0,1.28.22,1.37.9-.91,1.13-.81,0,1.22.2,1.32,1-.93,1.18-.83.08,1,.3,1.06.84-.62,1.06-.51.23.62.44.73,0,1,.21,1.12.5.06.71.18,1-.78,1.23-.65.19.62.39.75.66-.08.86.05-.17,1.06,0,1.2.41.24.59.39.27.4.44.56,1.09-.42,1.25-.25.35.37.51.56-.79,1.27-.63,1.46.91-.12,1.06.07,1-.13,1.17.07-1,1.22-.84,1.43.61.16.73.37.31.37.43.58.51.26.63.47-.09.59,0,.81.57.24.68.46-.66.85-.55,1.06,0,.51.12.73,1.32-.08,1.42.14.22.44.31.66-.28.64-.19.86.24.42.33.64.16.45.25.68.49.32.58.55-.63.74-.54,1,1.51,0,1.59.19-1.07.88-1,1.11,1.2.1,1.27.33-.28.59-.2.82-.8.76-.72,1,1,.17,1.12.4.77.26.84.49-.89.78-.82,1,1.25.13,1.32.36-.88.76-.81,1,.2.44.27.67,1,.23,1.05.46-1.08.79-1,1,.32.41.38.65,0,.48.09.72.52.36.58.59-.18.55-.12.78.83.29.89.53-.93.72-.87,1,1.47.15,1.52.38-.71.67-.66.9.3.43.36.66.13.47.18.71.34.42.39.65-.14.53-.09.77.27.43.32.67-1,.71-1,.94.68.36.73.6.27.44.31.67-.43.59-.38.82-.21.54-.16.78.94.3,1,.54.2.46.24.69,0,.49.1.73.62.37.67.61-.31.55-.27.79-.87.65-.83.88,1.54.21,1.58.45-.38.56-.34.79-.92.65-.87.89,1.58.22,1.62.45-.51.58-.47.81-.27.53-.23.77.06.47.1.7-.48.59-.43.83.53.39.59.62,1,.2,1.11.43-1.08.84-1,1.06.84.23.92.45.15.45.24.67.23.42.33.63.16.45.27.66-.19.64-.07.85,1.26-.16,1.38,0-1,1.15-.88,1.35.24.43.37.63.32.38.46.57.93-.07,1.07.13.37.31.52.49-.59,1.08-.44,1.26,1.23-.39,1.39-.21-.09.7.06.88,1.08-.33,1.24-.16-.63,1.24-.47,1.41.1.58.27.75.78-.1.95.07.57.09.75.25.83-.22,1-.06.13.55.31.71.38.27.56.42,0,.68.24.83-.08.87.11,1,.2.54.39.69.74-.18.93,0,.8-.3,1-.17.49.14.68.27.57,0,.76.12-.33,1.39-.13,1.52.26.5.47.62.42.25.62.36.34.41.54.53.78-.41,1-.29.89-.68,1.1-.57,0,1.1.18,1.2.86-.68,1.07-.58-.21,1.63,0,1.72,1-1,1.17-.9.41.23.62.32.35.42.57.49.16,1.06.38,1.12.5.13.72.19.8-1.29,1-1.25.34.73.56.75.48.78.69.78.48-.32.72-.32.48-1,.71-1,.48,1.42.72,1.42.48-.93.72-.93.47.58.71.58.48-1,.72-1,.47.61.71.61.48.73.72.73.47-.24.71-.24l.72,0c.24,0,.48-1,.72-1s.47.32.71.32.48.6.72.6.47.34.71.34.48-.26.72-.26.48-.91.72-.91.47.56.71.56l.72,0c.24,0,.48,0,.72,0s.48-.82.72-.82.47,1.16.71,1.16.48-.6.72-.6.47,1,.71,1,.48-1.4.72-1.4.48-.34.72-.34.48,1.17.72,1.17.48-1.21.72-1.2.47,1.08.71,1.08.48-.17.72-.17.47.56.71.56.48.19.72.19.48-.59.72-.59.48-.76.72-.76.48-.15.72-.15.47,1.22.71,1.22.48,0,.72,0,.48-.26.72-.25.48-.91.72-.91.48-.09.72-.09.47,1.21.71,1.22.48-1.13.72-1.13.48-.15.72-.15.48.51.72.51.48-.1.72-.1.47,1,.71,1,.48-1.06.72-1.06.48.29.72.29.47.86.71.86.49-1.32.73-1.32.47,1.1.71,1.1.48-.18.72-.18.48-.59.72-.59.48.45.72.46.48-.11.72-.11l.72,0c.24,0,.48.13.72.14s.48-.55.72-.54.47.25.71.25.48.7.72.7.49-1.38.73-1.38.46,1.82.7,1.82.49-1.36.73-1.36.48-.15.72-.15.47,1.49.71,1.49.49-1.57.73-1.57.47,1.51.71,1.51.48-.12.72-.12.49-1.2.73-1.19.47.5.71.5.48.06.72.07.48.25.72.26.48-.78.72-.78.48.51.72.51.48.5.72.5l.72,0c.23,0,.48-.4.72-.4s.48-.79.72-.79.47,1.61.71,1.61.49-.75.73-.75.48-.78.72-.77.47,1,.71,1.05.49-1.17.73-1.17.48.69.72.69.47.76.71.76.49-1.52.73-1.52.47.86.71.86.48.87.72.88.49-1,.73-1,.47.89.71.89.48-.89.72-.89.48.27.72.27.48-.72.72-.72.47,1.12.71,1.12.48.28.72.28.49-1.43.73-1.43.48.12.72.12.47.1.71.1.48,1,.72,1,.48-.37.72-.37.47.45.71.45.49-1,.73-1h.72c.24,0,.48.21.72.22s.46,1.15.7,1.15.5-1.69.74-1.68.46,1.53.7,1.53.48.14.72.14.5-1.68.74-1.68.46,1.67.7,1.67.49-1.18.73-1.18.48.32.72.32.47.85.71.85.48-.45.72-.45.49-.95.73-.94.48.38.72.39.48-.37.72-.37.47.76.71.77h.72c.24,0,.49-.42.73-.41s.47.31.71.32.49-.45.73-.45.47.67.71.67.49-.55.73-.55.47.68.71.68.49-1.3.73-1.3.47,1.14.71,1.14.49-.73.73-.73.47.69.71.69.48-.07.72-.07h.72c.24,0,.49-.78.73-.78s.48.11.72.11.47,1,.71,1,.48-.1.72-.09.48.4.72.41.48-.27.72-.27.49-.87.73-.86h.72c.24,0,.48.28.72.28s.48-.21.72-.21.48.22.72.22.48.68.72.68.48,0,.72,0,.49-1.24.73-1.23.47,1.08.71,1.08.48-.46.72-.46.48.55.72.55.48-.84.72-.84.48.13.72.13.48-.14.72-.14.49-.37.73-.37.47,1.11.71,1.11.47.59.71.6.49-.27.73-.27.49-1.43.73-1.42.47,1.61.71,1.61.48-.54.72-.54.48-.11.72-.11.49-.49.73-.48.48.51.72.51.48-.62.72-.62.48-.18.73-.18.46,1.34.7,1.35.49-.36.73-.36.49-.75.73-.75.47.18.72.18.48-.13.72-.13.48,0,.72,0,.47.79.71.79.49-.39.73-.39.48-.1.72-.1.48-.3.73-.3.48-.14.72-.14h.72c.24,0,.48.72.72.72s.48.1.72.1.48-.19.72-.18.49-.77.73-.77.47,1.22.71,1.22.48-.1.72-.1.5-1.12.74-1.12.48.45.72.45.47,1.08.71,1.09.48-.46.72-.46.49.06.73.07.48-.28.72-.28l.72,0c.24,0,.48.15.72.15s.49-.7.73-.7.48.08.72.08.48.8.72.81.48-.11.72-.11.48.16.72.16.5-1,.74-1,.46,1.53.71,1.53.49-1.67.73-1.66h.73c.24,0,.47.46.71.47s.49-.32.73-.32.48.6.72.6.48-.53.72-.52.49-.28.73-.28.48.6.72.61.48.38.72.38.48.3.72.3.48-.08.72-.07.49-.65.73-.65.48.21.72.21.49-.6.73-.6.48.09.72.1.48.78.72.78.48-.11.72-.11.49-.46.73-.46.47,1.1.71,1.1.5-1.33.74-1.33.47.5.72.5.48-.15.72-.15.48-.36.73-.36.47.89.71.9.49-.76.73-.76.48-.14.73-.14.47.85.71.85.49-.67.73-.67.48.31.72.31.48.47.72.47.49-1,.73-.94.47,1.07.72,1.07.47.35.72.35.49-1.51.73-1.51.47,1.58.71,1.58.49-.66.73-.66.49-.31.73-.31.47.88.71.88.49-1,.73-1,.48.51.72.52.49-.17.73-.17.48-.39.72-.39.48,1.14.72,1.14.49-1.28.73-1.28.47,1.13.72,1.14.48,0,.72,0,.48-.35.72-.35.49-.24.73-.23.48.16.72.16.49-.68.73-.68.48.41.72.41.48.33.72.33.48.76.72.77.49-1.67.73-1.67.48,1.46.72,1.46.49-1.5.73-1.5.47,1.14.72,1.15.48-.66.72-.66.48.65.72.66.49-1.11.73-1.11.48.69.72.69.48.62.72.62.49-.85.73-.85.48-.34.72-.34.49-.11.73-.11.47,1.26.71,1.26.48,0,.73,0,.47.41.72.41.48.15.72.15.48-.19.72-.19.49-.93.73-.93.48-.18.73-.18.47.87.71.88.49-.2.73-.2.48-.11.72-.11l.72,0c.24,0,.48.52.72.52s.49-1.55.73-1.54.48.32.73.32.47.72.71.72.49-.79.73-.79.47,1.23.72,1.23l.72,0c.24,0,.48-.6.72-.6s.48.13.73.13.48-.29.72-.28.48,1,.72,1,.48-.37.72-.37h.72c.24,0,.49-.11.73-.11s.48-.92.72-.92.49-.14.73-.13.47,1.1.71,1.1.49-.7.73-.7.47,1.3.71,1.3.49-.94.73-.94.48-.26.72-.26.48.33.72.33.48.58.72.58.49-.88.73-.88.48.5.72.5.48.57.72.57.49-.93.73-.93.48.82.72.82.48.08.72.08.49-.57.73-.56.48-.89.72-.89.48.8.72.8.49-1,.73-1,.48.84.72.84.48.13.72.13.49-.94.73-.94.48.38.72.38.48,1.07.72,1.07.48-1,.72-1,.48.58.72.58.49-.46.73-.46.47,1,.71,1,.49-1.25.73-1.25.48.2.72.21.48.38.72.38.48.14.72.14.48.6.72.6.48-.89.72-.89.48,1,.72,1,.48-.87.72-.87.48-.52.72-.52.48,1.26.72,1.26.48.12.72.12.48-1,.72-1,.48.32.73.32.48-.65.72-.65.48.44.72.44.48.26.72.27.48-.74.72-.74.48.48.72.48.48.74.72.74.48-.89.72-.89.47,1.09.71,1.09.48-.86.72-.86.48.34.72.34.48-1.17.72-1.17.48.08.72.08.48,1.52.72,1.52.47-1.07.71-1.07.48.46.72.46.48-.52.72-.52.47-.48.71-.48.48,1.11.71,1.11.48-.62.72-.62.47.31.7.31.49.09.73.08.51.58.75.57.42-1,.66-1.05.45-.31.69-.33.6,1.1.84,1.07.33-1.15.57-1.19.65,1,.89,1,.47-.18.7-.23.31-.83.55-.89.6.43.83.37.22-1,.46-1.05.72.76.95.68.36-.45.59-.53.72.55.94.47.46-.2.68-.3.15-.9.37-1,.31-.47.52-.57.39-.28.61-.38.27-.49.48-.6.4-.23.61-.35.67.22.87.09l.62-.36c.2-.13.92.53,1.12.4s-.35-1.37-.16-1.51.54-.05.74-.19.69.12.88,0,0-.76.19-.91,1,.44,1.17.28.06-.67.24-.83.83.2,1,0,.22-.49.39-.65-.13-.83,0-1-.1-.77.07-.94.42-.24.58-.42,1.15.41,1.31.23,0-.67.13-.85,0-.6.19-.78.61-.12.76-.3,1,.2,1.18,0-.6-1.08-.46-1.27,1.12.23,1.26,0,.22-.45.36-.65-.7-1.08-.56-1.28.07-.52.21-.72.86,0,1-.2.08-.52.21-.72,1.09.12,1.22-.09,0-.58.1-.79-.1-.62,0-.83-.19-.66-.07-.87.6-.2.72-.41.56-.25.67-.46-.09-.59,0-.8.51-.28.62-.49-.43-.75-.33-1,1.17,0,1.27-.18-.87-.94-.76-1.16,1-.07,1.07-.29.14-.47.24-.69.62-.25.72-.47-1.13-1-1-1.22,1-.11,1.07-.33.11-.47.2-.7,0-.5.12-.72.39-.36.47-.59-.19-.58-.11-.81.46-.34.54-.57.68-.27.76-.49-.3-.62-.23-.84-.79-.77-.72-1,.17-.44.25-.67,1.27-.1,1.35-.33.18-.44.25-.67.13-.47.19-.7.43-.38.5-.61-.81-.73-.75-1-.21-.55-.15-.79.74-.29.8-.52-.6-.65-.54-.89.77-.29.83-.53-.19-.53-.13-.77.8-.3.85-.53-1-.72-.91-1,.69-.34.74-.57.75-.33.8-.57-.72-.64-.68-.87,1-.29,1.09-.52-1.08-.7-1-.94.95-.31,1-.54.59-.39.63-.62-1.06-.68-1-.92-.07-.49,0-.73.51-.4.54-.64-.13-.5-.09-.74-.38-.54-.35-.78,1.66-.25,1.69-.49-.42-.54-.39-.78-1-.61-.93-.85-.08-.49-.05-.73.82-.38.85-.62.51-.43.54-.67-1.19-.61-1.17-.85.16-.46.18-.7,0-.48,0-.72,1.1-.38,1.12-.62.16-.47.18-.71.51-.45.52-.69-1.59-.6-1.58-.84,1.3-.39,1.31-.63.27-.47.28-.71-1.58-.57-1.57-.81,1.57-.4,1.58-.64-.25-.5-.24-.74.37-.47.38-.71-1.44-.53-1.44-.77.15-.47.16-.71.58-.47.59-.71-.73-.49-.73-.73.4-.48.4-.72,1.25-.47,1.25-.71-.68-.49-.69-.73-.62-.47-.62-.72.46-.48.45-.72.28-.49.28-.73-.18-.48-.19-.72.49-.5.48-.74-1.33-.43-1.34-.67-.15-.48-.16-.72,1.66-.56,1.65-.8-.72-.44-.73-.68-.45-.46-.47-.7-.7-.44-.71-.68.46-.51.44-.75,1.08-.56,1.06-.8-.64-.44-.66-.68.33-.51.31-.75-.22-.46-.24-.7-1.13-.38-1.16-.62,0-.48,0-.72.41-.53.38-.77-.55-.42-.58-.66.28-.51.25-.75.29-.52.26-.76-.94-.36-1-.6,1.44-.69,1.41-.93,0-.49,0-.73-.79-.37-.83-.6-.44-.42-.48-.66.23-.53.19-.76.74-.62.7-.86-.47-.41-.51-.65.29-.55.24-.78-1.72-.16-1.77-.4.24-.53.19-.77.09-.51,0-.74.28-.55.23-.79-.94-.28-1-.52,1.49-.84,1.43-1.07-.67-.34-.72-.57.24-.56.18-.8-1.55-.1-1.61-.33.86-.72.79-1-.6-.33-.66-.57.08-.52,0-.75-.37-.39-.44-.63,1.12-.83,1.05-1.06-1.86.06-1.93-.17,1.36-.93,1.29-1.16-.4-.38-.47-.61-.33-.41-.41-.63.05-.53,0-.76-.26-.42-.34-.65-.52-.33-.6-.55,0-.51-.12-.73-.18-.45-.26-.68.34-.65.25-.88-.44-.34-.53-.57-1-.08-1.14-.31,1-.93.86-1.15-1.06-.06-1.16-.28.74-.87.64-1.08-.51-.31-.61-.53-1.06,0-1.16-.24.22-.64.11-.86.23-.66.13-.87-.2-.45-.31-.66-1,0-1.08-.25-.28-.39-.4-.59.61-.91.49-1.12-.86-.05-1-.26.11-.63,0-.84-1.24.21-1.37,0,.19-.67.06-.88-.18-.45-.31-.65-.33-.35-.47-.55.71-1.09.57-1.28-1.43.43-1.57.24.72-1.14.58-1.33-1.17.28-1.31.09-.25-.41-.4-.6.24-.81.08-1-.27-.4-.42-.59-.15-.52-.31-.7-.49-.22-.65-.4-.54-.15-.71-.32-.32-.37-.49-.54-.52-.15-.69-.32-.72.07-.9-.09-.13-.57-.31-.73-.74.15-.92,0,.38-1.2.19-1.35-.7.11-.89,0-.13-.62-.32-.76-.32-.4-.51-.53-.76.25-1,.11-.63.12-.84,0,.25-1.29,0-1.42-.45-.21-.66-.33-1,.86-1.23.74.38-1.74.17-1.85-.92.75-1.14.65-.45-.15-.67-.25-.23-.66-.45-.75-.59.17-.81.08-.48-.07-.71-.15-.08-1.23-.31-1.3-.63.33-.86.26-.64.5-.87.44S339,.88,338.78.82s-.81,1.33-1,1.27-.38-.51-.61-.56-.32-1-.56-1-.61.74-.84.71-.49.07-.73.05-.49.15-.73.13-.42-.78-.66-.79-.48,0-.72,0-.49.3-.74.3Z" style="fill:#a2a28d"/></g></g></svg>