<svg xmlns="http://www.w3.org/2000/svg" width="18.4mm" height="27.64mm" viewBox="0 0 52.15 78.36"><title>user</title><g id="圖層_2" data-name="圖層 2"><g id="圖層_1-2" data-name="圖層 1"><path d="M27,78.36a1.41,1.41,0,0,1-.85-.29l-.08,0a1.4,1.4,0,0,0-.69-.36,1.52,1.52,0,0,0-.72.32,1.38,1.38,0,0,1-.78.24,1.45,1.45,0,0,1-.67-.17,3,3,0,0,0-.63-.26,1.32,1.32,0,0,1-.59-.27l-.14-.11a1.61,1.61,0,0,0-.66-.4h-.1a1.79,1.79,0,0,0-.64.19,1.54,1.54,0,0,1-.55.11A1.4,1.4,0,0,1,19,77a1.85,1.85,0,0,0-.6-.36,4.43,4.43,0,0,1-.7-.32A3.22,3.22,0,0,0,17.1,76a.61.61,0,0,0-.24,0,2.32,2.32,0,0,0-.38.05,1.53,1.53,0,0,1-.3,0,1.43,1.43,0,0,1-1.24-.72,1.07,1.07,0,0,0-.4-.48,2.94,2.94,0,0,1-.6-.45,4,4,0,0,0-.53-.41.49.49,0,0,0-.27-.06l-.23,0-.22,0a1.41,1.41,0,0,1-1.38-1.09c-.07-.29-.15-.39-.22-.44a.57.57,0,0,0-.4-.11l-.35,0h-.16a1.42,1.42,0,0,1-1.34-.94,1.25,1.25,0,0,0-.27-.51A2.82,2.82,0,0,0,8,70.47l-.3-.22a1.44,1.44,0,0,1-.52-1L8.62,69l-1.41.17a1.61,1.61,0,0,0-.2-.73.84.84,0,0,0-.47-.28,1.41,1.41,0,0,1-1-1.64.87.87,0,0,0,0-.57,1.1,1.1,0,0,0-.43-.38,1.42,1.42,0,0,1-.64-1.68,1,1,0,0,0,.07-.62,2.93,2.93,0,0,1-.15-.76,2.87,2.87,0,0,0-.12-.65c-.06-.21-.35-.35-.74-.53a1.61,1.61,0,0,1-.86-1c-.07-.27-.14-.55-.19-.82a1.44,1.44,0,0,1,.07-.82.54.54,0,0,0,.05-.11,1.8,1.8,0,0,0,.21-.81,1.61,1.61,0,0,0-.4-.68A1.83,1.83,0,0,1,2,56.18c0-.32,0-.65,0-1v-.16a1.42,1.42,0,0,1,.13-.61l.11-.22a2.38,2.38,0,0,0,.27-.7,1.52,1.52,0,0,1,.19-.58l.11-.16a1.69,1.69,0,0,0,.34-.72c0-.17-.08-.36-.36-.68a1.42,1.42,0,0,1-.12-1.68,1.71,1.71,0,0,0,.27-.58,2,2,0,0,0,0-.69A1.41,1.41,0,0,1,3.6,47c.33-.19.53-.34.59-.53s.1-.38.15-.58.14-.55.22-.79a5.11,5.11,0,0,0,.18-.64A3.79,3.79,0,0,1,5,43.7c.12-.26.24-.5.37-.74s.21-.38.29-.55a3.32,3.32,0,0,1,.45-.62,3.78,3.78,0,0,0,.4-.54,1.44,1.44,0,0,0,.1-.76v-.11a1.47,1.47,0,0,1,.28-.91c.11-.15.23-.29.35-.43l.39-.5a1.7,1.7,0,0,0,.24-.72c0-.12,0-.2.05-.27A1.41,1.41,0,0,1,8.14,37l.29-.37A8.21,8.21,0,0,1,9,35.91a5,5,0,0,1,.6-.52l.36-.3a1.46,1.46,0,0,1,.89-.33L11,36.18l0-1.42a1.29,1.29,0,0,0,.81-.16,3.39,3.39,0,0,0,.47-.46,3,3,0,0,1,.58-.55,4.66,4.66,0,0,1,.65-.39,6.51,6.51,0,0,0,.61-.33,5.39,5.39,0,0,1,.68-.34c.25-.11.44-.19.62-.29a1.83,1.83,0,0,0,.53-.51l.13-.16a1.41,1.41,0,0,1,1.08-.49h.09A2.57,2.57,0,0,0,18,31l.55-.24a6.79,6.79,0,0,1,.78-.32,2.1,2.1,0,0,1,.24-.06h.71a2.46,2.46,0,0,0,.52-.05,2.59,2.59,0,0,1,.76-.07,3.21,3.21,0,0,0,.69-.05c.21-.05.39-.29.61-.63a1.7,1.7,0,0,1,.85-.69l.44-.16.21-.09a1.52,1.52,0,0,1,.51-.09,1.38,1.38,0,0,1,.78.24,1.56,1.56,0,0,0,.77.35,3.7,3.7,0,0,0,.69-.1,4.06,4.06,0,0,1,.78-.1,1.62,1.62,0,0,0,.73-.32l.15-.09a1.4,1.4,0,0,1,.75-.22h.05c.41,0,.79,0,1.16.06a1.51,1.51,0,0,1,.62.2l.2.13a2,2,0,0,0,.65.36,1.38,1.38,0,0,1,.6.31l.13.11a1.56,1.56,0,0,0,.66.45h.1a1.25,1.25,0,0,0,.56-.21A1.38,1.38,0,0,1,35,29.5a1.4,1.4,0,0,1,1,.44,1.33,1.33,0,0,0,.48.35,1,1,0,0,0,.25,0,2.34,2.34,0,0,0,.52-.08l.23,0,.23,0a1.62,1.62,0,0,1,.44.07,5.5,5.5,0,0,0,.59.14l.38.07a1.37,1.37,0,0,1,.87.62l.07.09a1.53,1.53,0,0,0,.52.61,3.1,3.1,0,0,1,.63.48,3.49,3.49,0,0,0,.53.42,1.15,1.15,0,0,0,.52.15,1.41,1.41,0,0,1,1.29,1.27c0,.42.13.55.21.62a1.09,1.09,0,0,0,.65.14,1.53,1.53,0,0,1,1.4.91,2,2,0,0,0,.31.57,1.24,1.24,0,0,1,.17.23,2,2,0,0,1,.17.38,2.61,2.61,0,0,0,.34.67,3.25,3.25,0,0,1,.37.67,3.13,3.13,0,0,0,.3.57,2.37,2.37,0,0,0,.46.49,2.62,2.62,0,0,1,.44.45l.08.12a3.35,3.35,0,0,0,.42.51,3,3,0,0,1,.43.5l.06.11a1.53,1.53,0,0,0,.56.5l.15.1a1.39,1.39,0,0,1,.53.69c.06.16.11.32.16.48l0,.1c.06.2.12.4.18.58a4.38,4.38,0,0,0,.31.61,1.49,1.49,0,0,1-.08,1.6c-.29.38-.44.62-.4.82a2.05,2.05,0,0,0,.31.63,2.1,2.1,0,0,1,.25.45,1.39,1.39,0,0,1,.1.33,2.06,2.06,0,0,0,.24.56,1.63,1.63,0,0,1,.1,1.26l-.07.15,0,.06a1.31,1.31,0,0,0-.28.73,2,2,0,0,0,.19.67,2.62,2.62,0,0,1,.17.49,1.27,1.27,0,0,1,0,.34,3.45,3.45,0,0,0,0,.53,4.58,4.58,0,0,1,0,.81,1,1,0,0,0,.16.53,1.41,1.41,0,0,1-.37,1.74.94.94,0,0,0-.4.52,1,1,0,0,0,.17.58,1.41,1.41,0,0,1-.31,1.75,1.07,1.07,0,0,0-.35.46,6.54,6.54,0,0,1-.24.75c-.09.24-.15.41-.21.59a2.09,2.09,0,0,0,0,.71c0,.13,0,.2,0,.27a1.42,1.42,0,0,1-.29.87l-.19.21a2.3,2.3,0,0,0-.44.6,1.45,1.45,0,0,0,0,.75,1.41,1.41,0,0,1-.65,1.36,1.57,1.57,0,0,0-.51.47,1.32,1.32,0,0,0,0,.83,1.5,1.5,0,0,1-.37,1.25l-.2.2a5.21,5.21,0,0,0-.45.5l-.15.16a2.31,2.31,0,0,1-.4.3,4.78,4.78,0,0,0-.49.36,1.4,1.4,0,0,1-.8.36L45,68.27l.16,1.41a1.27,1.27,0,0,0-.78.23,1.42,1.42,0,0,0-.26.73,1.45,1.45,0,0,1-.75,1.06l-.14.08a3.37,3.37,0,0,0-.63.36,1.9,1.9,0,0,0-.43.57,2.54,2.54,0,0,1-.28.42,1.5,1.5,0,0,1-.33.29c-.1.07-.23.2-.37.32a4.71,4.71,0,0,1-.61.51c-.24.14-.48.26-.73.38l-.47.23a1.33,1.33,0,0,1-.65.16h-.34a1.49,1.49,0,0,0-.56.08,1.61,1.61,0,0,1-.53.1l-.54,0a1.19,1.19,0,0,0-.44.07c-.1,0-.21.12-.36.44a1.41,1.41,0,0,1-1.29.84,1.61,1.61,0,0,1-.43-.07,1,1,0,0,0-.34-.07l-.15,0a1,1,0,0,0-.47.4,1.39,1.39,0,0,1-1.12.55,1.32,1.32,0,0,1-.55-.11,1.36,1.36,0,0,0-.49-.12H31a2.12,2.12,0,0,0-.64.25,3.47,3.47,0,0,1-.53.23l-.21,0a2.29,2.29,0,0,0-.63.23,3.07,3.07,0,0,1-.53.21l-.27,0a4,4,0,0,0-.6.12l-.3.07A1.43,1.43,0,0,1,27,78.36Z" style="fill:#eac38d"/><path d="M21.17,73.48a3,3,0,0,1-.75-.17,3.84,3.84,0,0,0-.67-.16h-.13c-.47,0-.89-.1-1.3-.17a4.86,4.86,0,0,1-.73-.18l-.42-.12a1.43,1.43,0,0,1-.79-.55c-.26-.37-.42-.58-.62-.64l-.12,0a1.76,1.76,0,0,0-.69.25,1.83,1.83,0,0,1-.78.19,1.24,1.24,0,0,1-.27,0c-.16,0-.31-.06-.44-.08a3.15,3.15,0,0,1-.76-.18l-.46-.19-.33-.13a1.41,1.41,0,0,1-.86-1.05.88.88,0,0,1,0-.16c-.06-.39-.12-.74-.3-.85a1.64,1.64,0,0,0-.71-.15H9.83a1.4,1.4,0,0,1-.6-.18,1.59,1.59,0,0,0-.7-.13,1.42,1.42,0,0,1-1.24-.89,1.88,1.88,0,0,0-.36-.6,2.21,2.21,0,0,0-.64-.36l-.35-.16a1.31,1.31,0,0,1-.35-.27,3.39,3.39,0,0,0-.48-.41,3,3,0,0,1-.6-.55,1.28,1.28,0,0,1-.14-.21,2.26,2.26,0,0,1-.17-.43,3,3,0,0,0-.31-.73l-.32-.44A8,8,0,0,1,3.05,63a1.42,1.42,0,0,1-.19-.75,2.39,2.39,0,0,0-.17-.71A1.86,1.86,0,0,0,2.17,61L2,60.84a1.43,1.43,0,0,1-.48-.77,3.91,3.91,0,0,1-.07-.39A5.21,5.21,0,0,0,1.29,59a3,3,0,0,1-.13-.76,3.58,3.58,0,0,0-.1-.69C1,57.25.93,57,.87,56.7L.8,56.34a1.37,1.37,0,0,1,.13-.91l0-.09a1.28,1.28,0,0,0,.24-.77c0-.06,0-.18-.33-.38a1.42,1.42,0,0,1-.34-2A.6.6,0,0,0,.7,51.8a4.69,4.69,0,0,0-.09-.64,4.48,4.48,0,0,1-.08-.77c0-.21,0-.42,0-.63a5.75,5.75,0,0,1,0-.8,1.16,1.16,0,0,0-.24-.62,1.41,1.41,0,0,1,.11-1.67,1.27,1.27,0,0,0,.31-.52,1.5,1.5,0,0,1,.26-.52L1,45.48a1.67,1.67,0,0,0,.42-.66,1.91,1.91,0,0,0,0-.71c0-.12,0-.19,0-.27a1.41,1.41,0,0,1,.26-1l.1-.14a2.72,2.72,0,0,0,.4-.65,1.49,1.49,0,0,0-.06-.77,1.6,1.6,0,0,1,.18-1.19,3.1,3.1,0,0,1,.18-.26,3.46,3.46,0,0,0,.33-.51,1.39,1.39,0,0,1,.36-.44l.19-.15a1.63,1.63,0,0,0,.55-.52.54.54,0,0,0,0-.39,1.36,1.36,0,0,1,.22-1.11,1.39,1.39,0,0,1,1-.59c.33-.05.39-.14.42-.18a1.12,1.12,0,0,0,.08-.78,1.44,1.44,0,0,1,.65-1.34,3.46,3.46,0,0,0,.6-.44,4,4,0,0,0,.39-.55,2.77,2.77,0,0,1,.47-.63c.35-.33.71-.66,1.08-1a4,4,0,0,1,.66-.4,4.79,4.79,0,0,0,.45-.25,1.51,1.51,0,0,1,.75-.21H11a1,1,0,0,0,.52-.11,1.1,1.1,0,0,0,.36-.48A1.41,1.41,0,0,1,13.2,29l.26,0a3.11,3.11,0,0,0,.33,0,.61.61,0,0,0,.28-.05c.2-.09.31-.41.43-.81a1.63,1.63,0,0,1,.79-1l.26-.12.44-.21a1.36,1.36,0,0,1,.56-.11,1.6,1.6,0,0,1,.57.11,2,2,0,0,0,.66.17l.15,0a1,1,0,0,0,.45-.29,1.42,1.42,0,0,1,1-.38,1.39,1.39,0,0,1,.87.3,1.06,1.06,0,0,0,.58.29,2.38,2.38,0,0,0,.71-.25,2.77,2.77,0,0,1,.51-.22l.25,0a.77.77,0,0,0,.38-.21,1.41,1.41,0,0,1,1.95.09c.3.32.44.32.5.32a1.44,1.44,0,0,0,.66-.22,1.45,1.45,0,0,1,.67-.17,1.43,1.43,0,0,1,.89.32,1.31,1.31,0,0,0,.61.33h0a.86.86,0,0,0,.48-.16,1.42,1.42,0,0,1,1.87.35.88.88,0,0,0,.41.34h.11a1.66,1.66,0,0,0,.72-.34l.14-.08a1.43,1.43,0,0,1,.64-.15,1.36,1.36,0,0,1,.65.16l.15.08a4.32,4.32,0,0,0,.62.29c.17.07.35.13.54.19l.48.16a1.42,1.42,0,0,1,.82.79c.17.39.28.64.48.74a2.69,2.69,0,0,0,.64.22,2.71,2.71,0,0,1,.65.23,2.63,2.63,0,0,0,.73.29,3.42,3.42,0,0,1,.55.2l.2.12a2.13,2.13,0,0,0,.63.26,1.69,1.69,0,0,1,1.06.89l-1.29.61,1.33-.51a1.7,1.7,0,0,0,.34.64,1.34,1.34,0,0,1,.38.66,2,2,0,0,0,.32.6,1,1,0,0,1,.19.27,2.35,2.35,0,0,1,.14.34,2.46,2.46,0,0,0,.32.65c.1.13.3.2.76.23a1.43,1.43,0,0,1,1.27,1.07,2.34,2.34,0,0,0,.2.58,4.59,4.59,0,0,1,.3.71c.06.17.11.31.17.45a1.48,1.48,0,0,1,.07.86,1.62,1.62,0,0,0-.06.85c0,.06.07.16.35.29a1.42,1.42,0,0,1,.74.8,1.4,1.4,0,0,1,0,1.1.57.57,0,0,0-.08.41c.06.19.12.38.19.56a4.57,4.57,0,0,1,.22.77c0,.16.18.3.56.54a1.41,1.41,0,0,1,.63,1.52,2.53,2.53,0,0,0-.08.48,1.39,1.39,0,0,1-.27.78l-.06.08a1.44,1.44,0,0,0-.38.74,2.1,2.1,0,0,0,.19.68,2,2,0,0,1,.16.46,1.39,1.39,0,0,1,0,.73l-.07.28c0,.21-.09.43-.11.65l0,.56a5.2,5.2,0,0,1,0,.72,1.36,1.36,0,0,1-.16.53,1.64,1.64,0,0,1-.14.22,2.06,2.06,0,0,0-.34.68.65.65,0,0,0,.13.44,1.42,1.42,0,0,1-.45,1.91.62.62,0,0,0-.31.33,4.64,4.64,0,0,0-.11.65,2.86,2.86,0,0,1-.13.73,1.63,1.63,0,0,0,0,.73,1.65,1.65,0,0,1,0,.21,1.46,1.46,0,0,1-.52,1.1,1.71,1.71,0,0,0-.53.55,1.05,1.05,0,0,0,0,.69,1.43,1.43,0,0,1-.65,1.45,1.72,1.72,0,0,0-.5.42,3.14,3.14,0,0,0-.27.62,3.19,3.19,0,0,1-.25.6.61.61,0,0,1-.07.1,3.37,3.37,0,0,0-.32.59L42,64.6a1.47,1.47,0,0,1-.73.64l-.14,0a1.64,1.64,0,0,0-.67.36,4.51,4.51,0,0,1-.6.48,3.27,3.27,0,0,0-.51.39c-.23.2-.46.38-.69.56l-.41.33a3.21,3.21,0,0,1-.64.34A2.94,2.94,0,0,0,37,68a1.29,1.29,0,0,0-.37.69,1.72,1.72,0,0,1-.6.83l-.27.18c-.26.17-.5.33-.74.46a1.44,1.44,0,0,1-.67.16h-.12a2.75,2.75,0,0,0-.65.15c-.26.12-.53.22-.8.32l-.52.19a1.49,1.49,0,0,0-.54.57l-.08.13a1.42,1.42,0,0,1-.65.51l-.44.19-.29.13a1.35,1.35,0,0,1-.55.11,1.4,1.4,0,0,1-.7-.18,1.71,1.71,0,0,0-.71-.27l-.11,0a.82.82,0,0,0-.43.3,1.43,1.43,0,0,1-1,.46,1.4,1.4,0,0,1-.78-.24.93.93,0,0,0-.5-.2,1.36,1.36,0,0,0-.71.44,1.64,1.64,0,0,1-1,.45c-.38,0-.77,0-1.15,0l-.58,0h-.87Z" style="fill:#cbd872"/><path d="M25.4,49.72a1.34,1.34,0,0,1-.35,0l-.1,0a2.58,2.58,0,0,0-.68-.14,3.13,3.13,0,0,1-.81-.14,4,4,0,0,0-.55-.13A9.23,9.23,0,0,1,21.58,49a1.66,1.66,0,0,0-.51-.06h-.46a1.41,1.41,0,0,1-.5-.12l-.31-.13a7.89,7.89,0,0,1-.92-.46l-.1-.07a3.53,3.53,0,0,1-.48-.51,2.81,2.81,0,0,0-.4-.45l-.4-.32a4.17,4.17,0,0,1-.68-.58,3.66,3.66,0,0,0-.39-.4,3.32,3.32,0,0,1-.58-.64,1.41,1.41,0,0,1-.22-.72,2.72,2.72,0,0,0-.17-.67,3.6,3.6,0,0,1-.23-.82c0-.17-.07-.34-.12-.52l-.09-.3a5.87,5.87,0,0,1-.26-1,3.1,3.1,0,0,0-.15-.58,2.25,2.25,0,0,1-.17-.68.49.49,0,0,1,0-.12,4.16,4.16,0,0,1,.13-.86,4.59,4.59,0,0,0,.1-.51A9.83,9.83,0,0,1,14.92,37a9,9,0,0,1,.48-1.31,11.34,11.34,0,0,1,.68-1.21,9.71,9.71,0,0,1,.83-1.11,5,5,0,0,1,.72-.67l.31-.26a3.83,3.83,0,0,0,.41-.48,3.4,3.4,0,0,1,.21-.28,1.41,1.41,0,0,1,.77-.47,1.28,1.28,0,0,1,.27-.05,2.72,2.72,0,0,0,.67-.17,4.74,4.74,0,0,1,.86-.27,3.74,3.74,0,0,0,.45-.12,1.84,1.84,0,0,0,.58-.35l.17-.14a1.37,1.37,0,0,1,.7-.27,11.54,11.54,0,0,1,1.2,0h.61a5.89,5.89,0,0,1,.85.05,7,7,0,0,1,1,.26l.37.12a1.38,1.38,0,0,1,.39.18l.27.2a3.79,3.79,0,0,0,.55.37,8.91,8.91,0,0,1,1.22.65,6.85,6.85,0,0,1,.85.68l.22.19a5.16,5.16,0,0,1,.63.69c.09.11.17.22.27.33A2.14,2.14,0,0,0,32,34a2.67,2.67,0,0,1,.43.32,3,3,0,0,1,.22.28,11.13,11.13,0,0,1,.59,1.16,1.22,1.22,0,0,1,.07.17,5.74,5.74,0,0,1,.09.6,3,3,0,0,0,.1.61l.08.26a6.67,6.67,0,0,1,.26,1.07A2.39,2.39,0,0,0,34,39a2.4,2.4,0,0,1,.13.32,1.39,1.39,0,0,1,0,.88c0,.1-.09.25-.13.35a3.42,3.42,0,0,0-.18.6c0,.19,0,.38,0,.57a2.93,2.93,0,0,1-.09.83,3.05,3.05,0,0,1-.37.75,4.76,4.76,0,0,0-.28.49,3.81,3.81,0,0,0-.19.57,2.82,2.82,0,0,1-.26.71,11.54,11.54,0,0,1-.88,1.17,5.18,5.18,0,0,1-.7.63c-.12.1-.25.19-.37.3a3.1,3.1,0,0,1-.71.43c-.16.08-.33.17-.49.27a4.14,4.14,0,0,0-.46.37,2.4,2.4,0,0,1-.58.45l-.14.07a3,3,0,0,1-.71.15A3.83,3.83,0,0,0,27,49a1.84,1.84,0,0,0-.58.35A1.77,1.77,0,0,1,25.4,49.72Z" style="fill:#fff"/><path d="M24.26,67.94a6.15,6.15,0,0,1-.74-.06c-.27,0-.48-.06-.69-.07H21.4a3.52,3.52,0,0,1-.76-.19,3,3,0,0,0-.65-.18c-.48-.07-.94-.15-1.4-.24a1.15,1.15,0,0,0-.26,0,3.73,3.73,0,0,0-.47,0,2.55,2.55,0,0,1-.44,0,1.4,1.4,0,0,1-.41-.06,7.53,7.53,0,0,1-.71-.27l-.1,0-.45-.18a10.85,10.85,0,0,1-1.33-.56,6.82,6.82,0,0,1-1.22-.78,4.1,4.1,0,0,1-.93-1.14,2.93,2.93,0,0,1-.5-1.38,11.89,11.89,0,0,1,.09-1.53,1.43,1.43,0,0,1,.13-.46l.16-.31a2.55,2.55,0,0,0,.29-.64,2.46,2.46,0,0,0,0-.72c0-.15,0-.25,0-.34a1.46,1.46,0,0,1,.33-.89l.21-.22a2.65,2.65,0,0,0,.48-.59,5.79,5.79,0,0,0,.25-.57,3.57,3.57,0,0,1,.37-.79,3.24,3.24,0,0,1,.6-.63,6.14,6.14,0,0,0,.45-.43,5,5,0,0,0,.37-.53,3.18,3.18,0,0,1,.52-.67l.19-.18a11.58,11.58,0,0,1,1-.79,1.48,1.48,0,0,1,.53-.23l.24,0a3.09,3.09,0,0,0,.67-.22A10.86,10.86,0,0,1,20,51.47l.5-.22a5.15,5.15,0,0,1,.87-.33c.19-.05.39-.12.58-.19a3.91,3.91,0,0,1,.85-.25,12.83,12.83,0,0,1,1.5-.09c.2,0,.42,0,.63,0a5,5,0,0,1,.63-.05h.15a2.78,2.78,0,0,1,.91.29,3,3,0,0,0,.62.25,2.67,2.67,0,0,1,.76.37,3.91,3.91,0,0,0,.57.31,2.48,2.48,0,0,0,.73.09h.23a1.4,1.4,0,0,1,1.06.54l.06.08a2.74,2.74,0,0,0,.55.57,3.23,3.23,0,0,0,.58.31,2.85,2.85,0,0,1,.7.39l.17.16a10.11,10.11,0,0,1,1,.9,4.75,4.75,0,0,1,.5.76,5.24,5.24,0,0,0,.3.51,4.87,4.87,0,0,0,.43.49,3,3,0,0,1,.54.67A13.56,13.56,0,0,1,36,58.27a1.4,1.4,0,0,1,.11.53l0,.34a2.2,2.2,0,0,0,0,.77,2.86,2.86,0,0,0,.24.61,3.49,3.49,0,0,1,.27.73,4.69,4.69,0,0,0,.13.67,4,4,0,0,1,.14.89,3.24,3.24,0,0,1-.38,1.5,4,4,0,0,1-1,1,3.07,3.07,0,0,1-.86.48c-.17.08-.34.15-.51.24a3,3,0,0,1-.75.23,4.91,4.91,0,0,0-.63.17,2.54,2.54,0,0,0-.56.34,2.87,2.87,0,0,1-.53.34l-.21.07a6,6,0,0,1-.68.11c-.3,0-.51.06-.71.1a2,2,0,0,1-.42,0l-.65,0a2.34,2.34,0,0,0-.38,0l-.4.06c-.35,0-.68.1-1,.13H25.69a2.65,2.65,0,0,0-.68.14,3,3,0,0,1-.7.14Z" style="fill:#fff"/><path d="M12.94,2.14a.33.33,0,0,1-.31.15.38.38,0,0,0-.29.11,1.57,1.57,0,0,0-.2.25l-.09.16a3.64,3.64,0,0,0-.46,1.27c-.11.55-.21,1.19-.29,1.94a5.49,5.49,0,0,0-.07.56c-.06.39-.11,1-.16,1.8,0,.22-.05.53-.08.92l-.06.72c0,.16,0,.42-.06.79s0,.7,0,1c0,.45,0,.71,0,.76a.41.41,0,0,1-.15.21.36.36,0,0,1-.25.08c-.52,0-.8-.49-.84-1.46a21.37,21.37,0,0,1,1-6.12v0a4.43,4.43,0,0,1-.39.69,4.71,4.71,0,0,0-.33.53s-.09.16-.18.35a2.92,2.92,0,0,1-.29.47.41.41,0,0,1-.31.19.39.39,0,0,1-.33-.19.66.66,0,0,1-.14-.41,5.3,5.3,0,0,1,.73-2A18,18,0,0,1,11,2.32q.9-1.17,1.35-1.17a.87.87,0,0,1,.52.17.53.53,0,0,1,.22.46A.61.61,0,0,1,12.94,2.14Zm7,8.38c.13.06.19.19.19.4a.63.63,0,0,1-.51.6c-.2.07-.49.15-.85.24a3.65,3.65,0,0,1-.67.13,2.9,2.9,0,0,0-.49.18l-.51.18a11.2,11.2,0,0,0-1.17.39c-.53.19-1,.34-1.34.43a5,5,0,0,1-1.22.13c-.57,0-.86-.16-.86-.49a.45.45,0,0,1,.29-.42,2.46,2.46,0,0,1,.61-.22l.49-.12,1-.37c.93-.38,1.74-.66,2.41-.86a7.57,7.57,0,0,1,2.08-.29A1.41,1.41,0,0,1,20,10.52Zm2.91,3.37a3.15,3.15,0,0,1-.11.88.77.77,0,0,1-.48.5,1.68,1.68,0,0,1-.35.12s-.1,0-.19-.12a1.88,1.88,0,0,1-.2-.21l0-1.47q0-2.33-.09-3.87c-.05-1-.14-2.07-.28-3.1L21,5.45a17.3,17.3,0,0,0-.53-3.71,1.49,1.49,0,0,0-.73-.2,9.6,9.6,0,0,0-1-.06,1.08,1.08,0,0,0-.66.23.7.7,0,0,0-.29.59.71.71,0,0,0,.06.34l.41,0,.37,0a3.24,3.24,0,0,1,.45,0c.59,0,.89.19.89.56a.54.54,0,0,1-.29.53,2.55,2.55,0,0,1-.84.25l-.51.14a1,1,0,0,0-.39.2.61.61,0,0,0,0,.15c0,.21,0,.52,0,.94s0,.73,0,.94a1.68,1.68,0,0,1,.63.61,2,2,0,0,1,.17.87,1.21,1.21,0,0,1-.1.47l0,.2a.84.84,0,0,0,0,.27.55.55,0,0,0,.05.2.68.68,0,0,1,0,.21.31.31,0,0,1-.2.29,2.87,2.87,0,0,1-.52.23l-.39.14a2.81,2.81,0,0,1-1.44.43c-.39,0-.59-.13-.59-.41a2.08,2.08,0,0,1,.2-.72l.09-.28A1.17,1.17,0,0,0,16,8.4a3.07,3.07,0,0,1,.11-1,1.88,1.88,0,0,1,.32-.54,1.37,1.37,0,0,0,.3-.45,2.26,2.26,0,0,0,.11-.85V5.2a2.58,2.58,0,0,0,0-.53.41.41,0,0,0-.22-.31l-.36,0a3.78,3.78,0,0,1-.5,0c-.59,0-.88-.13-.88-.41a.57.57,0,0,1,.34-.53,3.91,3.91,0,0,1,.91-.33l.33-.09a.62.62,0,0,0,.33-.18,1.06,1.06,0,0,0,.19-.35c.05-.14.07-.23.09-.27l.35-.75c0-.06-.13-.09-.37-.09-.52,0-1,0-1.33,0a1.24,1.24,0,0,0-.74.2.7.7,0,0,0-.18.29,5.76,5.76,0,0,0-.1.77c0,.27,0,.44,0,.5v.43L14.53,5c-.06.76-.09,1.32-.1,1.7,0,.53,0,1.32,0,2.36a8.81,8.81,0,0,1-.11,1.62.37.37,0,0,1-.16.1l-.19,0c-.32,0-.56-.22-.69-.66A4.37,4.37,0,0,1,13,8.81c0-.51,0-1.09.08-1.73a7.19,7.19,0,0,1,.22-1.45,4.84,4.84,0,0,0,.18-1c0-.36.06-.6.07-.71l.16-1c0-.17.08-.44.13-.8a4.47,4.47,0,0,0,0-.47A2,2,0,0,1,14,1c.06-.19.15-.28.27-.28l.17,0,.16,0A.56.56,0,0,0,15,.53L15.18.4a.87.87,0,0,1,.26-.15l.17,0a.58.58,0,0,0,.17,0,11.41,11.41,0,0,1,2-.14l1,0a8.71,8.71,0,0,1,2,.21A1.44,1.44,0,0,1,21.89,1a3.41,3.41,0,0,1,.29,1c.05.38.1.87.14,1.47l0,.5Q22.87,9.69,22.87,13.89ZM17.42,8.26a1.42,1.42,0,0,0,.25-.68c0-.09,0-.14-.06-.16a1.4,1.4,0,0,0-.56.4.92.92,0,0,0-.32.58.45.45,0,0,0,.05.19.15.15,0,0,0,.15.1C17.08,8.69,17.25,8.55,17.42,8.26Z" style="fill:#6c6851"/><path d="M29.44,9.14l.3-.57q.63-1.17,1.14-2A7.75,7.75,0,0,1,32.1,5.14a7.83,7.83,0,0,0,1.27-1.53s.18-.33.45-.88l.32-.58A.46.46,0,0,1,34.47,2a.66.66,0,0,1,.42.19.48.48,0,0,1,.22.36,3,3,0,0,1-.32,1.21c-.22.46-.49,1-.83,1.52a4.43,4.43,0,0,0-.23.43c0,.13.21.24.65.31s1,.14,1.67.2l.43,0,.47.08a5.82,5.82,0,0,1,1.33.38c.41.18.92.41,1.52.71l.45.23.57.26a15.8,15.8,0,0,1,1.87,1A1.36,1.36,0,0,1,43.47,10a.73.73,0,0,1-.16.5.63.63,0,0,1-.48.18,2,2,0,0,1-.71-.25l-.6-.29c-.52-.25-1.33-.57-2.42-1-.84-.29-1.46-.51-1.86-.68a7.91,7.91,0,0,0-.9-.3c-.34-.1-.59-.18-.76-.25l-.69-.26a9.06,9.06,0,0,0-1-.33A4,4,0,0,0,33,7.23a1,1,0,0,0-.7.27,9.2,9.2,0,0,0-.72.94c-.43.6-.8,1.07-1.1,1.42s-.55.53-.76.53a.6.6,0,0,1-.38-.12.4.4,0,0,1-.15-.35A1.83,1.83,0,0,1,29.44,9.14Z" style="fill:#6c6851"/></g></g></svg>