<svg xmlns="http://www.w3.org/2000/svg" width="32.25mm" height="21.61mm" viewBox="0 0 91.42 61.24"><title>user</title><g id="圖層_2" data-name="圖層 2"><g id="icon4"><path d="M59,61.24a1.42,1.42,0,0,1-1.13-.56c-.28-.37-.42-.43-.53-.44h0a1.45,1.45,0,0,0-.72.25,2,2,0,0,1-.83.23h-.11l-.41,0-.66-.07a1.49,1.49,0,0,1-.61-.25l-.17-.14a1.88,1.88,0,0,0-.66-.4c-.36-.09-.71-.19-1.07-.3l-.28-.08-.21-.08a3.59,3.59,0,0,1-.43-.27,2.25,2.25,0,0,0-.6-.34l-.11,0a.94.94,0,0,0-.36.11,1.43,1.43,0,0,1-.61.14,1.5,1.5,0,0,1-.47-.08,1.42,1.42,0,0,1-.81-.73c-.12-.25-.22-.3-.27-.32a.28.28,0,0,0-.16,0,1.63,1.63,0,0,0-.54.15,1.37,1.37,0,0,1-.55.12,1.43,1.43,0,0,1-1.18-.63,1.32,1.32,0,0,0-.35-.38,2.74,2.74,0,0,0-.66-.25,1.61,1.61,0,0,1-1.09-1,1.61,1.61,0,0,0-.37-.74,2.24,2.24,0,0,0-.64-.31,3,3,0,0,1-.5-.21l-.24-.18a1.6,1.6,0,0,0-.54-.23,1.41,1.41,0,0,1-1-1.29,1.18,1.18,0,0,0-.18-.7,1.34,1.34,0,0,0-.73-.3,1.43,1.43,0,0,1-1.08-1,2.2,2.2,0,0,0-.27-.68,2,2,0,0,1-.11-.2c0-.06-.12-.33-.18-.52a2.43,2.43,0,0,0-.25-.65,1.92,1.92,0,0,0-.5-.48,1.41,1.41,0,0,1-.52-1.46,1.22,1.22,0,0,0,0-.75,2.83,2.83,0,0,0-.42-.56,2.39,2.39,0,0,1-.36-.43,1.51,1.51,0,0,1-.11-.22,2.61,2.61,0,0,0-.39-.54,2.88,2.88,0,0,1-.34-.43,1.51,1.51,0,0,1-.13-.29c0-.12-.11-.29-.17-.45a7,7,0,0,1-.3-.81,6.63,6.63,0,0,1-.18-.77c0-.2-.07-.33-.1-.46a1.45,1.45,0,0,1,.07-.85l1.37.42L34,40.19a1.41,1.41,0,0,0,.17-.75c0-.11-.1-.25-.47-.49a1.42,1.42,0,0,1-.53-1.73,1.08,1.08,0,0,0,.11-.53c0-.06,0-.12,0-.18s0-.33.09-.54a2.91,2.91,0,0,0,.09-.69,1.59,1.59,0,0,1,.06-.43,2.33,2.33,0,0,1,.11-.31,2.09,2.09,0,0,0,.19-.72,2,2,0,0,0-.18-.69,2.11,2.11,0,0,1-.16-.46,1.16,1.16,0,0,1,0-.37c0-.06,0-.2-.27-.53a1.43,1.43,0,0,1,0-1.63,1.29,1.29,0,0,0,.29-.59,1.25,1.25,0,0,0-.1-.57,1.42,1.42,0,0,1,.54-1.64c.31-.21.45-.36.48-.51a1.69,1.69,0,0,0-.06-.73,1.57,1.57,0,0,1,.35-1.37,1.61,1.61,0,0,0,.43-.63,1.86,1.86,0,0,0,0-.71c0-.14,0-.23,0-.33a1.32,1.32,0,0,1,.16-.64c.06-.11.17-.29.27-.44a4.42,4.42,0,0,0,.34-.6c.18-.44.36-.86.56-1.29a3.46,3.46,0,0,1,.42-.63,4.4,4.4,0,0,0,.37-.55,2.3,2.3,0,0,0,.19-.68,2.22,2.22,0,0,1,.12-.52,1.34,1.34,0,0,1,.13-.27,5.18,5.18,0,0,1,.39-.55c.16-.22.28-.38.39-.55a1.39,1.39,0,0,0,.16-.57,1.41,1.41,0,0,1,1.15-1.25,1,1,0,0,0,.61-.26,1.76,1.76,0,0,0,.28-.67,1.59,1.59,0,0,1,.88-1,2.11,2.11,0,0,0,.71-.38,1.71,1.71,0,0,0,.35-.64,1.56,1.56,0,0,1,.08-.21,1.42,1.42,0,0,1,.46-.59c.13-.1.3-.2.47-.31a5.07,5.07,0,0,0,.54-.36l.21-.14a2.47,2.47,0,0,1,.42-.16,2.76,2.76,0,0,0,.69-.3,2,2,0,0,0,.45-.57l.17-.27a1.3,1.3,0,0,1,.35-.35,1.63,1.63,0,0,0,.44-.57l.09-.16a1.41,1.41,0,0,1,.72-.6l.43-.13.53-.18a1.32,1.32,0,0,1,.55-.11h.2l.13,0a3.53,3.53,0,0,0,.5.06.79.79,0,0,0,.32-.06A2.73,2.73,0,0,1,51,6.39a2.49,2.49,0,0,0,.68-.13l.19-.07c.39-.15.75-.29,1.15-.41a1.06,1.06,0,0,0,.48-.45,1.4,1.4,0,0,1,1.6-.5,1.64,1.64,0,0,0,.49.1h.14c.26-.06.52-.1.78-.14l.62-.09a2,2,0,0,0,.66-.32,1.59,1.59,0,0,1,.3-.19A1.69,1.69,0,0,1,58.56,4a2.29,2.29,0,0,0,.63-.23,2.62,2.62,0,0,1,.55-.22l.23,0h.18l1.22-.11a5.06,5.06,0,0,0,.68-.1l.4-.08.21,0a1.43,1.43,0,0,1,.8.25l-.7,1.24.79-1.18a1.57,1.57,0,0,0,.71.33,1.43,1.43,0,0,1,.76.25,1.83,1.83,0,0,0,.65.21h0c.18,0,.36-.1.65-.35a1.42,1.42,0,0,1,.93-.35,1.48,1.48,0,0,1,.78.23,1.49,1.49,0,0,0,.49.24,1.52,1.52,0,0,1,.53.25l.16.14a1.79,1.79,0,0,0,.67.41l.6.1c.3,0,.54.08.8.15h.11A1.27,1.27,0,0,0,71.88,5a1.29,1.29,0,0,1,.58-.13,1.42,1.42,0,0,1,1.14.58,1.06,1.06,0,0,0,.43.39,1.18,1.18,0,0,0,.35,0,2.56,2.56,0,0,0,.39,0h.17a1.39,1.39,0,0,1,1.16.61,1.72,1.72,0,0,0,.52.55A1,1,0,0,0,77,7.1l.35,0h.28a1.44,1.44,0,0,1,.58.13,2.28,2.28,0,0,0,.66.14,2.43,2.43,0,0,1,.35,0,1.29,1.29,0,0,1,.47.19l.39.23.62.39a1.49,1.49,0,0,1,.53.66.58.58,0,0,0,0,.14,2,2,0,0,0,.34.68,1.44,1.44,0,0,1,.35.6s0,.11,0,.13a1.49,1.49,0,0,0,.33.75,1.14,1.14,0,0,0,.76.16h.18a1.41,1.41,0,0,1,1,.37l.29.25a6.6,6.6,0,0,1,.59.57,3.54,3.54,0,0,1,.42.68,3.5,3.5,0,0,0,.35.6c.18.24.34.5.5.76s.21.34.3.47.27.36.41.53a4.55,4.55,0,0,1,.48.65,4.31,4.31,0,0,0,.39.56l.2.26a1.43,1.43,0,0,1,.22,1.2,1.48,1.48,0,0,0-.07.88q.14.29.3.57a5.18,5.18,0,0,1,.35.72,2.84,2.84,0,0,0,.35.61,2.9,2.9,0,0,1,.36.62,1.25,1.25,0,0,0,.31.51,1.41,1.41,0,0,1,.08,1.82c-.32.42-.34.58-.31.7a2.48,2.48,0,0,0,.25.65,2.62,2.62,0,0,1,.25.64c.07.43.11.78.15,1.13l0,.37a3.87,3.87,0,0,0,.17.67,3.44,3.44,0,0,1,.18.74,1.27,1.27,0,0,0,.31.64,1.42,1.42,0,0,1,.06,1.61,1.51,1.51,0,0,0-.27.65c0,.51,0,1-.06,1.45a2.08,2.08,0,0,0,.17.74,2.4,2.4,0,0,1,.11.31,1.35,1.35,0,0,1,0,.53c0,.19,0,.38,0,.58a6.13,6.13,0,0,1-.07.82,2.64,2.64,0,0,1-.26.71,3.28,3.28,0,0,0-.27.69,1.87,1.87,0,0,0,0,.74c0,.13,0,.22,0,.3a1.43,1.43,0,0,1-.19.88l-.17.25a2.78,2.78,0,0,0-.4.68,2.22,2.22,0,0,0,0,.69A1.42,1.42,0,0,1,89,42.5c-.36.15-.58.28-.65.46a1.43,1.43,0,0,0,0,.79,1.43,1.43,0,0,1-.48,1.35,2.16,2.16,0,0,0-.56.58,2.48,2.48,0,0,0-.19.7,1.53,1.53,0,0,1-1,1.15,1.28,1.28,0,0,0-.71.38c-.27.4-.53.78-.82,1.17a2,2,0,0,0-.27.67,3.27,3.27,0,0,1-.15.47,1.52,1.52,0,0,1-.22.34,3.26,3.26,0,0,0-.27.53,2.09,2.09,0,0,1-.27.54,1.09,1.09,0,0,1-.13.17,2.7,2.7,0,0,0-.35.58l-.08.17a1.43,1.43,0,0,1-1.09.75,1.57,1.57,0,0,0-.78.25,1.83,1.83,0,0,0-.41.6l-.09.17a1.44,1.44,0,0,1-.94.71l-.12,0a2.15,2.15,0,0,0-.74.25c-.17.12-.32.25-.48.38l-.55.42a1.52,1.52,0,0,1-.47.2l-.3.05a2.05,2.05,0,0,0-.72.18c-.16.09-.32.18-.47.28s-.5.3-.74.42a3,3,0,0,1-.69.21,2.94,2.94,0,0,0-.66.19c-.06,0-.19.08-.33.64a1.42,1.42,0,0,1-1.38,1.07h-.19l-.2,0a.61.61,0,0,0-.24,0l-.54.19c-.3.11-.55.21-.81.28a2.34,2.34,0,0,0-.62.33,2.54,2.54,0,0,1-.5.28.94.94,0,0,1-.22.07,4.11,4.11,0,0,0-.59.2l-.21.07a1.32,1.32,0,0,1-.48.09,1.45,1.45,0,0,1-.8-.25c-.35-.25-.56-.39-.76-.39a5.36,5.36,0,0,1-.76.05c-.28,0-.49,0-.7,0s-.41,0-.61,0h-.79a1.46,1.46,0,0,0-.67.31l-.14.09a1.32,1.32,0,0,1-.74.23H60.16a1.2,1.2,0,0,0-.53.14A1.33,1.33,0,0,1,59,61.24Z" style="fill:#eac38d"/><path d="M57.62,55.67a1.39,1.39,0,0,1-.77-.23l-.07,0a1.66,1.66,0,0,0-.76-.35,1.42,1.42,0,0,1-.76-.23,1.9,1.9,0,0,0-.66-.22h0c-.18,0-.36.11-.66.37a1.41,1.41,0,0,1-1.7.12,1.82,1.82,0,0,0-.51-.24,1.52,1.52,0,0,1-.53-.25L51,54.47a1.7,1.7,0,0,0-.67-.42c-.2,0-.4-.08-.6-.11a7.75,7.75,0,0,1-.81-.16h-.13a1.37,1.37,0,0,0-.49.13,1.46,1.46,0,0,1-.57.12,1.4,1.4,0,0,1-1.15-.59,1,1,0,0,0-.44-.4.88.88,0,0,0-.39-.07l-.36,0h-.12a1.45,1.45,0,0,1-1.2-.63,1.58,1.58,0,0,0-.51-.57,1,1,0,0,0-.5-.1l-.47,0h0a1.52,1.52,0,0,1-.63-.14,2,2,0,0,0-.65-.17l-.38-.07a1.32,1.32,0,0,1-.45-.21l-.68-.46a1.41,1.41,0,0,1-.62-1.28c0-.5.06-.86-.11-1a3.92,3.92,0,0,0-.52-.39,3.82,3.82,0,0,1-.61-.47,1.51,1.51,0,0,0-.67-.33L37,47.11a1.46,1.46,0,0,1-.55-.36,3.93,3.93,0,0,0-.45-.4,3.29,3.29,0,0,1-.57-.53,3.57,3.57,0,0,1-.34-.71,2.85,2.85,0,0,0-.29-.64,1,1,0,0,0-.41-.31,1.41,1.41,0,0,1-.7-1.73c.14-.42.11-.57.06-.67a.89.89,0,0,0-.41-.37,1.41,1.41,0,0,1-.62-1.7c.13-.35.11-.5.07-.6s-.34-.34-.71-.51a1.47,1.47,0,0,1-.83-1.12l0-.19a3.9,3.9,0,0,0-.11-.67,2.91,2.91,0,0,1-.05-.74,3.46,3.46,0,0,0,0-.73,1.26,1.26,0,0,0-.45-.59A1.43,1.43,0,0,1,30.24,33a1.58,1.58,0,0,0,.15-.7,3.58,3.58,0,0,1,.05-.77,2.76,2.76,0,0,0,.06-.7c0-.26,0-.53,0-.79s0-.46,0-.65,0-.36,0-.54c0-.34,0-.62,0-.91a6,6,0,0,1,.08-.73c.05-.28.08-.49.1-.7a2,2,0,0,0-.12-.72,3.16,3.16,0,0,1-.12-.52,1.42,1.42,0,0,1,.13-.73l.09-.26a4.15,4.15,0,0,0,.2-.66,3.74,3.74,0,0,1,.23-.74,3.28,3.28,0,0,0,.21-.65,1.21,1.21,0,0,0,0-.58,1.41,1.41,0,0,1,.7-1.59c.33-.18.48-.31.53-.47a1.6,1.6,0,0,0,0-.75c0-.1,0-.17,0-.23a1.52,1.52,0,0,1,0-.6.94.94,0,0,0,0-.5,1.44,1.44,0,0,1,.91-1.6c.39-.14.49-.25.54-.36a3.38,3.38,0,0,0,.23-.63,3.27,3.27,0,0,1,.28-.72,2.86,2.86,0,0,0,.23-.66,3.05,3.05,0,0,1,.24-.65,5.48,5.48,0,0,1,.49-.65c.18-.22.32-.38.44-.56a2.22,2.22,0,0,0,.3-.64,3.78,3.78,0,0,1,.27-.59l.09-.11q.18-.24.36-.51a4.89,4.89,0,0,1,.29-.42,1.44,1.44,0,0,1,.82-.54l.12,0a1.56,1.56,0,0,0,.73-.29c.14-.14.27-.29.4-.44s.39-.43.58-.61A2.75,2.75,0,0,0,40.17,7a3,3,0,0,1,.51-.57A4.74,4.74,0,0,1,41.3,6a4.81,4.81,0,0,0,.51-.31,1.45,1.45,0,0,1,.67-.23h.14a1.63,1.63,0,0,0,.77-.15,4.62,4.62,0,0,0,.5-.37,4.1,4.1,0,0,1,.64-.44A1.78,1.78,0,0,0,45,4l.18-.24a1.38,1.38,0,0,1,.4-.32,1.87,1.87,0,0,0,.5-.51,1.81,1.81,0,0,1,.15-.19,1.41,1.41,0,0,1,.54-.4L47.63,2a1.43,1.43,0,0,1,.5-.09,1.4,1.4,0,0,1,.71.19,1.8,1.8,0,0,0,.77.32.25.25,0,0,0,.12,0,1.47,1.47,0,0,0,.58-.49l.09-.11a1.36,1.36,0,0,1,.69-.43l.36-.11c.29-.09.51-.16.75-.21a1.12,1.12,0,0,1,.32,0l.22,0,.27.06a3,3,0,0,0,.6.1l.16,0A3.16,3.16,0,0,0,54.42,1,3.74,3.74,0,0,1,55.15.8c.47-.06.94-.12,1.41-.15h.17c.25,0,.41,0,.57,0s.4,0,.59,0H58a3.36,3.36,0,0,1,.67.07,3.43,3.43,0,0,0,.72.1,1.56,1.56,0,0,0,.71-.27,1.44,1.44,0,0,1,.2-.11,1.29,1.29,0,0,1,.57-.16,1.42,1.42,0,0,0,.55-.18A1.36,1.36,0,0,1,62.08,0a1.4,1.4,0,0,1,1,.46,1.06,1.06,0,0,0,.54.38,3.1,3.1,0,0,0,.43,0h.57a1.41,1.41,0,0,1,1,.46,1.67,1.67,0,0,0,.66.5,1.27,1.27,0,0,0,.28,0,3.13,3.13,0,0,0,.43,0l.43,0a1.62,1.62,0,0,1,.49.08h.15a2.83,2.83,0,0,0,.41,0l.3,0h.07a1.55,1.55,0,0,1,.56.11c.16.07.32.16.48.25a7.11,7.11,0,0,0,.65.34L71.66,3a1.42,1.42,0,0,1,.69.7l0,.1a1.27,1.27,0,0,0,.44.63.66.66,0,0,0,.34.07,1.93,1.93,0,0,0,.33,0h.19A1.45,1.45,0,0,1,75,5.18a1.27,1.27,0,0,0,.36.5,3.17,3.17,0,0,0,.6.32,3.11,3.11,0,0,1,.64.35,1.33,1.33,0,0,0,.78.21,1.43,1.43,0,0,1,1.24.89,2.19,2.19,0,0,0,.35.61l.15.19c0,.05.14.27.22.44a2.43,2.43,0,0,0,.36.64,1.72,1.72,0,0,0,.55.41,1.42,1.42,0,0,1,.71,1.39,1.08,1.08,0,0,0,.07.73,2.08,2.08,0,0,0,.48.5,2.73,2.73,0,0,1,.4.38L82,13a2.54,2.54,0,0,0,.45.49,3.39,3.39,0,0,1,.38.38,1.22,1.22,0,0,1,.17.29c0,.11.13.26.21.41s.29.54.4.79.18.5.26.76l-1.31.54,1.35-.42.1.31a1.42,1.42,0,0,1,0,.84l0,.13a1.47,1.47,0,0,0-.09.76c0,.11.12.24.51.45a1.42,1.42,0,0,1,.69,1.68,1.16,1.16,0,0,0-.07.52,1.2,1.2,0,0,1,0,.2c0,.06,0,.32,0,.53a3.31,3.31,0,0,0,0,.69,1.29,1.29,0,0,1,0,.44c0,.1,0,.21-.08.31a1.84,1.84,0,0,0-.14.73,2.16,2.16,0,0,0,.24.67,2.31,2.31,0,0,1,.19.45,1.13,1.13,0,0,1,.06.36s0,.19.31.51a1.43,1.43,0,0,1,.1,1.63,1.32,1.32,0,0,0-.24.6,1.14,1.14,0,0,0,.14.56,1.43,1.43,0,0,1-.43,1.68c-.29.23-.42.38-.44.54a1.86,1.86,0,0,0,.11.72,1.54,1.54,0,0,1-.23,1.35,1.94,1.94,0,0,0-.42.69,2.14,2.14,0,0,0,0,.71,1.39,1.39,0,0,1,0,.32,1.34,1.34,0,0,1-.11.66c0,.12-.15.3-.24.46a3.14,3.14,0,0,0-.3.61c-.15.45-.31.88-.48,1.32a3.51,3.51,0,0,1-.37.66,4.08,4.08,0,0,0-.34.57,2.29,2.29,0,0,0-.14.69,2.43,2.43,0,0,1-.09.52,1,1,0,0,1-.11.28c-.09.17-.21.36-.34.56s-.27.41-.37.58a1.43,1.43,0,0,0-.12.58,1.41,1.41,0,0,1-1.07,1.32,1,1,0,0,0-.59.3,1.81,1.81,0,0,0-.23.69,1.59,1.59,0,0,1-.82,1.1,2.14,2.14,0,0,0-.68.41,1.82,1.82,0,0,0-.3.66l-.07.23a1.37,1.37,0,0,1-.42.61c-.13.1-.28.22-.45.33a5.12,5.12,0,0,0-.52.4l-.2.15a2.59,2.59,0,0,1-.4.18,2.62,2.62,0,0,0-.67.34,1.83,1.83,0,0,0-.41.59,2,2,0,0,1-.15.27,1.29,1.29,0,0,1-.33.37,1.86,1.86,0,0,0-.41.61l-.09.17a1.41,1.41,0,0,1-.69.63l-.43.16c-.16.06-.34.12-.53.21a1.3,1.3,0,0,1-.61.14H71l-.16,0-.43,0A.84.84,0,0,0,70,52a2.7,2.7,0,0,1-.74.2,2.62,2.62,0,0,0-.67.16l-.2.08c-.39.17-.74.32-1.13.46a1.19,1.19,0,0,0-.49.47,1.42,1.42,0,0,1-1.17.62,1.39,1.39,0,0,1-.4-.06,1.49,1.49,0,0,0-.48-.09l-.17,0a7.73,7.73,0,0,1-.81.16l-.6.11a1.85,1.85,0,0,0-.65.34l-.32.21a1.17,1.17,0,0,1-.41.14,2.87,2.87,0,0,0-.64.26,3.07,3.07,0,0,1-.56.23l-.21,0h-.11L59,55.45a4.13,4.13,0,0,0-.69.11l-.41.09Z" style="fill:#cbd872"/><path d="M58.06,27.85a8.51,8.51,0,0,1-.88,0,3.63,3.63,0,0,0-.57,0,4.36,4.36,0,0,1-.84-.08,1.37,1.37,0,0,1-.71-.43,2.16,2.16,0,0,0-.51-.32,3.68,3.68,0,0,0-.54-.16,3.68,3.68,0,0,1-.77-.27,3.9,3.9,0,0,1-.65-.48,3.84,3.84,0,0,0-.45-.37,5.1,5.1,0,0,1-.65-.57c-.12-.12-.23-.24-.36-.35a1.83,1.83,0,0,0-.61-.3l-.22-.08a1.3,1.3,0,0,1-.54-.38c-.28-.31-.53-.6-.72-.86a1.38,1.38,0,0,1-.26-.65,1.1,1.1,0,0,1,0-.18,2.13,2.13,0,0,0-.15-.72,9.5,9.5,0,0,1-.53-1.23,3.19,3.19,0,0,0-.29-.55,2.6,2.6,0,0,1-.31-.63.8.8,0,0,1,0-.21,2.54,2.54,0,0,1,0-.62,3.42,3.42,0,0,0,0-.64,1.51,1.51,0,0,0-.3-.63,1.45,1.45,0,0,1-.08-1.44,2.07,2.07,0,0,0,.24-.65c0-.17,0-.33.05-.49a5.16,5.16,0,0,1,.11-.89,8.8,8.8,0,0,1,.36-1.06l.09-.25a2.41,2.41,0,0,1,.42-.65,3.39,3.39,0,0,0,.34-.5l.14-.28a7.58,7.58,0,0,1,.52-.91,3.63,3.63,0,0,0,.28-.51A2.65,2.65,0,0,1,50,8.76a6,6,0,0,0,.35-.5,3.11,3.11,0,0,1,.47-.62,11.45,11.45,0,0,1,1-.8,1.51,1.51,0,0,1,.6-.25l.21,0a2,2,0,0,0,.7-.16,2.87,2.87,0,0,0,.5-.36,3.38,3.38,0,0,1,.51-.37.94.94,0,0,1,.15-.06,10.42,10.42,0,0,1,1.3-.43,2.7,2.7,0,0,1,.66-.06h.28a3.46,3.46,0,0,0,.45,0l.37-.05a5.83,5.83,0,0,1,1-.1A10.1,10.1,0,0,1,59.94,5a6.84,6.84,0,0,1,1,.21l.35.09a6,6,0,0,1,.87.31l.39.16a2.72,2.72,0,0,0,.61.15,3.07,3.07,0,0,1,.63.15l.12.06a3,3,0,0,0,.59.21,2.79,2.79,0,0,1,.61.23,1.4,1.4,0,0,1,.65.73,2.16,2.16,0,0,0,.36.47l.33.28a7.08,7.08,0,0,1,.7.64l.12.16c0,.06.16.32.25.51a2.75,2.75,0,0,0,.28.57c.11.15.23.29.35.44a3.08,3.08,0,0,1,.49.65,5,5,0,0,0,.31.49,2.59,2.59,0,0,1,.41.7,7.38,7.38,0,0,1,.29,1l.08.33A10.35,10.35,0,0,1,70,15a1.35,1.35,0,0,1,0,.49,1.67,1.67,0,0,1,0,.18,2.75,2.75,0,0,0-.13.72,2.41,2.41,0,0,0,.12.64,2.86,2.86,0,0,1,.11.5,1.4,1.4,0,0,1-.17.83l-.07.16a3.38,3.38,0,0,0-.21.58,2.14,2.14,0,0,0,0,.67A1.62,1.62,0,0,1,69,21.05a1.93,1.93,0,0,0-.51.53,7.12,7.12,0,0,1-.6.94l-.13.2-.26.39a5.3,5.3,0,0,1-.51.73c-.12.14-.23.28-.34.43a4.07,4.07,0,0,1-.54.64,5.63,5.63,0,0,1-.75.53l-.38.25-.4.31a4.56,4.56,0,0,1-.72.49,5.5,5.5,0,0,0-.5.34,3.16,3.16,0,0,1-.7.42,7.57,7.57,0,0,1-1,.28l-.37.08a3.46,3.46,0,0,1-.8.07,3.69,3.69,0,0,0-.58,0l-.36,0a6.53,6.53,0,0,1-1,.1Z" style="fill:#fff"/><path d="M60.67,49.54a1.18,1.18,0,0,1-.37,0l-.24-.07a2.32,2.32,0,0,0-.75-.18,3.88,3.88,0,0,1-.73-.07,6,6,0,0,0-.75-.1h-.35c-.37,0-.74,0-1.1,0h0a2.24,2.24,0,0,0-.71.13,2.59,2.59,0,0,1-.54.11h-.3c-.15,0-.36,0-.56,0s-.58,0-.83-.07a2.81,2.81,0,0,1-.74-.23,3.13,3.13,0,0,0-.67-.23,5,5,0,0,0-.66-.09,5,5,0,0,1-.79-.11,4,4,0,0,0-.68-.11,4.89,4.89,0,0,1-.78-.15,1.38,1.38,0,0,1-.3-.14l-.39-.3a2.41,2.41,0,0,0-.57-.39,4.12,4.12,0,0,1-.78-.49l-.43-.3-.17-.1a5,5,0,0,1-1-.71l-.4-.34a3.35,3.35,0,0,1-.5-.45,1.81,1.81,0,0,1-.19-.29l-.08-.18a2.9,2.9,0,0,1-.39-1.08,1.08,1.08,0,0,1,0-.31,5,5,0,0,1,.15-.57,2.72,2.72,0,0,0,.17-.65,2.94,2.94,0,0,1,.22-.76,3.25,3.25,0,0,0,.2-.6,1.6,1.6,0,0,0-.09-.73,1.74,1.74,0,0,1,.09-1.15,3,3,0,0,1,.2-.34,4,4,0,0,0,.31-.57c.07-.18.13-.37.19-.56s.13-.42.19-.58a1.49,1.49,0,0,1,.48-.6L46.2,36a1.87,1.87,0,0,0,.57-.48,4.25,4.25,0,0,0,.29-.56,2.91,2.91,0,0,1,.4-.68,12.38,12.38,0,0,1,.92-1.07,4.7,4.7,0,0,0,.4-.47,3.61,3.61,0,0,1,.54-.6,7.83,7.83,0,0,1,.83-.59l.36-.24a3.57,3.57,0,0,1,.73-.34,5.45,5.45,0,0,0,.55-.25l.24-.12c.36-.2.69-.37,1-.52.5-.2.93-.36,1.33-.48a13.56,13.56,0,0,1,1.37-.32A13,13,0,0,1,57.16,29l.41,0L58,29h.54a2.53,2.53,0,0,0,.66-.11,4.63,4.63,0,0,1,.61-.1h0a1.47,1.47,0,0,1,.84.27,2.29,2.29,0,0,0,.62.26,6.13,6.13,0,0,1,.83.26c.16.06.33.13.5.18a1,1,0,0,0,.32,0l.4,0,.24,0h.09a1.43,1.43,0,0,1,.58.12c.29.14.59.29.87.45l.66.35a7.72,7.72,0,0,1,.87.48,6.76,6.76,0,0,1,.66.54l.44.39a1,1,0,0,1,.18.17c0,.05.2.28.3.45a2.85,2.85,0,0,0,.38.53c.37.37.67.68,1,1s.36.5.53.76l.27.42a5,5,0,0,1,.37.69c.11.23.18.38.26.53a2.52,2.52,0,0,0,.42.52,2.39,2.39,0,0,1,.36.43.75.75,0,0,1,.13.25c.16.37.3.84.44,1.29l0,.1a3.29,3.29,0,0,1,0,.67,2.81,2.81,0,0,0,0,.65l.08.4a7.47,7.47,0,0,1,.17,1,2.25,2.25,0,0,0,.2.64l.11.27A1.45,1.45,0,0,1,73,44c-.06.1-.14.25-.21.35s-.15.26-.22.39-.08.19-.13.28a3,3,0,0,1-.6,1,2.9,2.9,0,0,1-.76.47c-.17.09-.34.17-.5.27a4.91,4.91,0,0,0-.47.36,2.78,2.78,0,0,1-.74.51c-.36.16-.8.33-1.37.52a4.67,4.67,0,0,1-.74.17c-.29.06-.5.09-.7.15a4.9,4.9,0,0,1-.78.09,5.2,5.2,0,0,0-.68.06,3.83,3.83,0,0,0-.65.22,3.12,3.12,0,0,1-.76.24H63.5c-.28,0-.41,0-.55,0s-.37,0-.54,0h-.2a2,2,0,0,0-.7.27l-.23.13A1.42,1.42,0,0,1,60.67,49.54Z" style="fill:#fff"/><path d="M5.23,14.8a.43.43,0,0,1-.38.18.48.48,0,0,0-.35.14,1.54,1.54,0,0,0-.23.29,1.08,1.08,0,0,0-.12.2,4.28,4.28,0,0,0-.55,1.53,21.65,21.65,0,0,0-.34,2.32c0,.14-.06.36-.1.68S3,21.32,3,22.29c0,.27-.07.64-.1,1.1l-.07.87c0,.19,0,.5-.07.95s0,.84,0,1.18a6.62,6.62,0,0,1,0,.92.52.52,0,0,1-.17.26.53.53,0,0,1-.3.09c-.62,0-1-.59-1-1.76a24.57,24.57,0,0,1,1.17-7.33v-.05a7.07,7.07,0,0,1-.47.82c-.19.28-.32.49-.4.63l-.21.42A3.73,3.73,0,0,1,.94,21a.53.53,0,0,1-.38.23A.5.5,0,0,1,.16,21a.85.85,0,0,1-.16-.5,6.42,6.42,0,0,1,.88-2.34,20.32,20.32,0,0,1,2-3.09c.71-.94,1.25-1.41,1.61-1.41a1,1,0,0,1,.62.2.65.65,0,0,1,.27.55A.81.81,0,0,1,5.23,14.8Zm8.41,10.06a.47.47,0,0,1,.24.48.77.77,0,0,1-.61.73l-1,.28a4.5,4.5,0,0,1-.81.16,3.53,3.53,0,0,0-.59.21l-.61.21c-.34.1-.81.25-1.4.47a16,16,0,0,1-1.61.52,5.93,5.93,0,0,1-1.46.16c-.69,0-1-.19-1-.58A.55.55,0,0,1,5.07,27a3.6,3.6,0,0,1,.74-.26l.59-.14,1.17-.44c1.13-.46,2.09-.8,2.89-1a9.09,9.09,0,0,1,2.5-.35A1.71,1.71,0,0,1,13.64,24.86Zm3.49,4A3.57,3.57,0,0,1,17,30a.93.93,0,0,1-.57.61,2.27,2.27,0,0,1-.42.14c-.05,0-.12-.05-.22-.14a1.94,1.94,0,0,1-.25-.26l0-1.76c0-1.86-.06-3.41-.11-4.65s-.17-2.48-.34-3.72l-.16-1.4a21.33,21.33,0,0,0-.64-4.46,1.78,1.78,0,0,0-.88-.23A10.77,10.77,0,0,0,12.23,14a1.26,1.26,0,0,0-.79.27.84.84,0,0,0-.35.71.79.79,0,0,0,.07.4l.49,0,.44,0,.54,0c.72,0,1.08.22,1.08.68a.66.66,0,0,1-.35.63,3.36,3.36,0,0,1-1,.31c-.2,0-.4.1-.61.16a1.37,1.37,0,0,0-.47.23.92.92,0,0,0,0,.19c0,.25,0,.63.05,1.13s0,.87,0,1.12a2,2,0,0,1,.75.74,2.26,2.26,0,0,1,.21,1,1.59,1.59,0,0,1-.11.57,1.7,1.7,0,0,0-.07.23,1.26,1.26,0,0,0,0,.33.85.85,0,0,0,.06.23.84.84,0,0,1,.06.26.4.4,0,0,1-.25.35,3.36,3.36,0,0,1-.62.27l-.47.18a3.46,3.46,0,0,1-1.73.51c-.47,0-.71-.16-.71-.49a2.49,2.49,0,0,1,.24-.87s0-.16.12-.34a1.63,1.63,0,0,0,.09-.52A3.47,3.47,0,0,1,9,21.16a1.91,1.91,0,0,1,.39-.65A1.87,1.87,0,0,0,9.74,20a3.06,3.06,0,0,0,.13-1v-.47a2.8,2.8,0,0,0-.06-.63.57.57,0,0,0-.27-.38l-.43.05a5.44,5.44,0,0,1-.6,0c-.71,0-1.06-.16-1.06-.49a.7.7,0,0,1,.41-.64A4.68,4.68,0,0,1,9,16a2.71,2.71,0,0,0,.4-.12.81.81,0,0,0,.4-.21,1.19,1.19,0,0,0,.22-.42l.11-.33L10.5,14c0-.08-.15-.11-.45-.11q-.93,0-1.59,0a1.47,1.47,0,0,0-.89.25.72.72,0,0,0-.21.35,6.08,6.08,0,0,0-.12.91c0,.33,0,.53,0,.61v.52l-.09,1.61Q7,19.58,7,20.25c0,.64,0,1.59-.06,2.84A10.89,10.89,0,0,1,6.82,25a.44.44,0,0,1-.2.12.65.65,0,0,1-.22,0c-.39,0-.67-.27-.83-.8a5.14,5.14,0,0,1-.25-1.57c0-.61,0-1.3.09-2.08A10.53,10.53,0,0,1,5.67,19a5.35,5.35,0,0,0,.22-1.19c0-.43.07-.71.09-.85s.09-.63.18-1.22a9.57,9.57,0,0,0,.17-1c0-.08,0-.27,0-.56a2.53,2.53,0,0,1,.14-.78c.07-.22.18-.33.32-.33a.71.71,0,0,1,.2,0,.79.79,0,0,0,.2,0,.7.7,0,0,0,.49-.31l.18-.15a.79.79,0,0,1,.32-.18l.2,0a.77.77,0,0,0,.2-.07A13.45,13.45,0,0,1,11,12.26l1.22,0a10.89,10.89,0,0,1,2.44.24,1.77,1.77,0,0,1,1.33,1,4,4,0,0,1,.35,1.22c.07.45.12,1,.17,1.75l0,.61Q17.13,23.87,17.13,28.9Zm-6.54-6.75a1.72,1.72,0,0,0,.31-.82c0-.11,0-.17-.07-.19a1.94,1.94,0,0,0-.68.48,1.09,1.09,0,0,0-.38.7.53.53,0,0,0,.06.23.19.19,0,0,0,.18.12C10.2,22.67,10.39,22.5,10.59,22.15Z" style="fill:#6c6851"/><path d="M1,47.21c.19-.38.32-.61.36-.68.5-.94,1-1.73,1.37-2.38A9.16,9.16,0,0,1,4.22,42.4a9.36,9.36,0,0,0,1.52-1.83s.21-.39.54-1l.38-.7a.61.61,0,0,1,.39-.22.83.83,0,0,1,.51.23.6.6,0,0,1,.27.43,3.43,3.43,0,0,1-.39,1.45q-.39.82-1,1.83c-.19.33-.29.5-.29.52s.27.28.79.36,1.19.17,2,.25l.52,0,.56.1a7,7,0,0,1,1.6.45c.5.22,1.1.5,1.82.86l.54.27.68.32a17.66,17.66,0,0,1,2.25,1.2,1.64,1.64,0,0,1,.94,1.3.89.89,0,0,1-.2.6.71.71,0,0,1-.57.22,2.43,2.43,0,0,1-.85-.3l-.72-.35c-.63-.3-1.6-.68-2.91-1.15-1-.34-1.74-.62-2.23-.82a9,9,0,0,0-1.08-.35c-.4-.13-.71-.23-.91-.31l-.83-.31a8.86,8.86,0,0,0-1.21-.39,4.47,4.47,0,0,0-1-.14,1.15,1.15,0,0,0-.85.33,10.83,10.83,0,0,0-.86,1.12q-.78,1.08-1.32,1.71c-.36.43-.66.64-.91.64a.74.74,0,0,1-.46-.14.55.55,0,0,1-.17-.43A2,2,0,0,1,1,47.21Z" style="fill:#6c6851"/></g></g></svg>