<svg xmlns="http://www.w3.org/2000/svg" width="18.4mm" height="26.89mm" viewBox="0 0 52.15 76.23"><title>user</title><g id="圖層_2" data-name="圖層 2"><g id="圖層_1-2" data-name="圖層 1"><path d="M27,52.42a1.47,1.47,0,0,1-.85-.28l-.08-.06a1.46,1.46,0,0,0-.69-.35,1.43,1.43,0,0,0-.72.32,1.46,1.46,0,0,1-1.45.07,2.22,2.22,0,0,0-.63-.26,1.44,1.44,0,0,1-.59-.27l-.14-.11a1.51,1.51,0,0,0-.66-.4h-.1a1.77,1.77,0,0,0-.64.18,1.35,1.35,0,0,1-.55.11A1.44,1.44,0,0,1,19,51a1.88,1.88,0,0,0-.6-.37,3.15,3.15,0,0,1-.7-.32,5.35,5.35,0,0,0-.59-.29.88.88,0,0,0-.24,0,1.58,1.58,0,0,0-.38,0,1.53,1.53,0,0,1-.3,0,1.42,1.42,0,0,1-1.24-.73,1.09,1.09,0,0,0-.4-.47,2.94,2.94,0,0,1-.6-.45,3.28,3.28,0,0,0-.53-.41.49.49,0,0,0-.27-.06l-.23,0-.22,0a1.42,1.42,0,0,1-1.38-1.1.77.77,0,0,0-.22-.44.65.65,0,0,0-.4-.1l-.35,0h-.16a1.42,1.42,0,0,1-1.34-.94A1.39,1.39,0,0,0,8.57,45,3.21,3.21,0,0,0,8,44.54c-.09-.07-.21-.15-.3-.23a1.4,1.4,0,0,1-.52-1l1.4-.29-1.41.18a1.69,1.69,0,0,0-.2-.74.91.91,0,0,0-.47-.27,1.42,1.42,0,0,1-1-1.64.86.86,0,0,0,0-.57,1,1,0,0,0-.43-.38A1.42,1.42,0,0,1,4.51,38a1,1,0,0,0,.07-.62,3,3,0,0,1-.15-.76,2.87,2.87,0,0,0-.12-.65c-.06-.21-.35-.36-.74-.54a1.56,1.56,0,0,1-.86-1c-.07-.28-.14-.55-.19-.83a1.4,1.4,0,0,1,.07-.81.61.61,0,0,0,.05-.12,1.77,1.77,0,0,0,.21-.8,1.55,1.55,0,0,0-.4-.68A1.91,1.91,0,0,1,2,30.25c0-.32,0-.65,0-1v-.17a1.46,1.46,0,0,1,.13-.61,2.12,2.12,0,0,1,.11-.21,2.38,2.38,0,0,0,.27-.7A1.47,1.47,0,0,1,2.69,27l.11-.17a1.71,1.71,0,0,0,.34-.71c0-.17-.08-.36-.36-.69a1.41,1.41,0,0,1-.12-1.68,1.76,1.76,0,0,0,.27-.57,2,2,0,0,0,0-.69,1.41,1.41,0,0,1,.7-1.44c.33-.19.53-.34.59-.53s.1-.39.15-.58.14-.56.22-.8a4.67,4.67,0,0,0,.18-.64A4,4,0,0,1,5,17.76c.12-.25.24-.49.37-.73s.21-.39.29-.55a3.37,3.37,0,0,1,.45-.63,3.29,3.29,0,0,0,.4-.54,1.43,1.43,0,0,0,.1-.76v-.11a1.51,1.51,0,0,1,.28-.91l.35-.43c.16-.19.28-.34.39-.49a1.75,1.75,0,0,0,.24-.72c0-.13,0-.2.05-.28a1.55,1.55,0,0,1,.28-.56l.29-.36A6.92,6.92,0,0,1,9,10a6.14,6.14,0,0,1,.6-.53L10,9.16a1.4,1.4,0,0,1,.89-.33L11,10.25l0-1.42a1.37,1.37,0,0,0,.81-.16,4.17,4.17,0,0,0,.47-.47,3.35,3.35,0,0,1,.58-.55,5.84,5.84,0,0,1,.65-.38c.25-.13.43-.22.61-.33a5.39,5.39,0,0,1,.68-.34l.62-.29a2,2,0,0,0,.53-.51l.13-.17a1.44,1.44,0,0,1,1.08-.49h.09A2.27,2.27,0,0,0,18,5l.55-.23a6.79,6.79,0,0,1,.78-.32l.24-.06.28,0h.43a2,2,0,0,0,.52-.06,3,3,0,0,1,.76-.07,4,4,0,0,0,.69,0c.21,0,.39-.3.61-.64a1.68,1.68,0,0,1,.85-.68c.16-.05.31-.12.44-.17l.21-.08a1.52,1.52,0,0,1,.51-.09,1.45,1.45,0,0,1,.78.23,1.51,1.51,0,0,0,.77.36,4.77,4.77,0,0,0,.69-.1A5.05,5.05,0,0,1,27.89,3a1.6,1.6,0,0,0,.73-.31l.15-.1a1.39,1.39,0,0,1,.75-.21h.05c.41,0,.79,0,1.16.06a1.37,1.37,0,0,1,.62.2l.2.13a2.2,2.2,0,0,0,.65.35,1.5,1.5,0,0,1,.6.31l.13.12a1.63,1.63,0,0,0,.66.44h.1a1.25,1.25,0,0,0,.56-.21A1.38,1.38,0,0,1,35,3.57,1.43,1.43,0,0,1,36,4a1.26,1.26,0,0,0,.48.36,1,1,0,0,0,.25,0,3.09,3.09,0,0,0,.52-.07l.23,0a.9.9,0,0,1,.23,0,1.31,1.31,0,0,1,.44.07,3.73,3.73,0,0,0,.59.13l.38.08a1.4,1.4,0,0,1,.87.61l.07.1a1.56,1.56,0,0,0,.52.6,4.05,4.05,0,0,1,.63.48,3.56,3.56,0,0,0,.53.43,1,1,0,0,0,.52.14,1.42,1.42,0,0,1,1.29,1.27c0,.43.13.55.21.63a1.09,1.09,0,0,0,.65.14,1.53,1.53,0,0,1,1.4.9,1.74,1.74,0,0,0,.31.57,1.31,1.31,0,0,1,.17.24,1.71,1.71,0,0,1,.17.38,2.61,2.61,0,0,0,.34.67,3,3,0,0,1,.37.67,3.5,3.5,0,0,0,.3.57,2.65,2.65,0,0,0,.46.49,2.28,2.28,0,0,1,.44.44l.08.12a3.35,3.35,0,0,0,.42.51,2.71,2.71,0,0,1,.43.51l.06.11a1.62,1.62,0,0,0,.56.5l.15.1a1.37,1.37,0,0,1,.53.68c.06.16.11.33.16.49l0,.1.18.58a5,5,0,0,0,.31.61,1.49,1.49,0,0,1-.08,1.6c-.29.38-.44.62-.4.82a2.05,2.05,0,0,0,.31.63,1.89,1.89,0,0,1,.25.45,1.26,1.26,0,0,1,.1.33,2.2,2.2,0,0,0,.24.56,1.63,1.63,0,0,1,.1,1.26s-.05.09-.07.14l0,.07a1.31,1.31,0,0,0-.28.72,2.1,2.1,0,0,0,.19.68,2.39,2.39,0,0,1,.17.49,1.24,1.24,0,0,1,0,.33,3.57,3.57,0,0,0,0,.54,4.44,4.44,0,0,1,0,.8,1.06,1.06,0,0,0,.16.54,1.42,1.42,0,0,1-.37,1.74,1,1,0,0,0-.4.51,1,1,0,0,0,.17.58,1.4,1.4,0,0,1-.31,1.75,1.07,1.07,0,0,0-.35.46,6,6,0,0,1-.24.75c-.09.24-.15.42-.21.6a2.09,2.09,0,0,0,0,.71c0,.12,0,.2,0,.27a1.39,1.39,0,0,1-.29.86,2,2,0,0,1-.19.22,2.3,2.3,0,0,0-.44.6,1.45,1.45,0,0,0,0,.75,1.42,1.42,0,0,1-.65,1.36,1.57,1.57,0,0,0-.51.47,1.29,1.29,0,0,0,0,.82,1.52,1.52,0,0,1-.37,1.26l-.2.2a5.12,5.12,0,0,0-.45.49l-.15.17a2.31,2.31,0,0,1-.4.3,3.64,3.64,0,0,0-.49.36,1.4,1.4,0,0,1-.8.36L45,42.33l.16,1.41a1.26,1.26,0,0,0-.78.24,1.38,1.38,0,0,0-.26.72,1.49,1.49,0,0,1-.75,1.07l-.14.07a3.37,3.37,0,0,0-.63.36,2,2,0,0,0-.43.57,2.67,2.67,0,0,1-.28.43,1.81,1.81,0,0,1-.33.29,4.11,4.11,0,0,0-.37.32,3.94,3.94,0,0,1-.61.5c-.24.14-.48.27-.73.39l-.47.23a1.45,1.45,0,0,1-.65.16h-.34a1.49,1.49,0,0,0-.56.08,1.39,1.39,0,0,1-.53.1l-.54,0a1.19,1.19,0,0,0-.44.07c-.1,0-.21.12-.36.45a1.4,1.4,0,0,1-1.29.83,1.29,1.29,0,0,1-.43-.07,1.28,1.28,0,0,0-.34-.06h-.15a1.08,1.08,0,0,0-.47.41,1.42,1.42,0,0,1-1.12.55,1.5,1.5,0,0,1-.55-.11,1.19,1.19,0,0,0-.49-.13H31a2.82,2.82,0,0,0-.64.25,2.21,2.21,0,0,1-.53.23l-.21,0A2.67,2.67,0,0,0,29,52a2,2,0,0,1-.53.21,1.17,1.17,0,0,1-.27.05,3.85,3.85,0,0,0-.6.11l-.3.07A1.43,1.43,0,0,1,27,52.42Z" style="fill:#eac38d"/><path d="M21.17,47.54a3,3,0,0,1-.75-.16,3.11,3.11,0,0,0-.67-.16l-.13,0c-.47-.05-.89-.09-1.3-.16a6.47,6.47,0,0,1-.73-.18l-.42-.13a1.38,1.38,0,0,1-.79-.55c-.26-.37-.42-.58-.62-.64h-.12a1.9,1.9,0,0,0-.69.24,1.7,1.7,0,0,1-.78.19,1.24,1.24,0,0,1-.27,0l-.44-.08a2.42,2.42,0,0,1-.76-.18l-.46-.18-.33-.13a1.43,1.43,0,0,1-.86-1,1,1,0,0,1,0-.16c-.06-.4-.12-.74-.3-.86a1.64,1.64,0,0,0-.71-.14H9.83a1.41,1.41,0,0,1-.6-.19,1.59,1.59,0,0,0-.7-.13,1.41,1.41,0,0,1-1.24-.88,1.83,1.83,0,0,0-.36-.61A2,2,0,0,0,6.29,41l-.35-.16a1.31,1.31,0,0,1-.35-.27,4.36,4.36,0,0,0-.48-.42,3,3,0,0,1-.6-.55.9.9,0,0,1-.14-.2A2.57,2.57,0,0,1,4.2,39a2.8,2.8,0,0,0-.31-.73l-.32-.45A8,8,0,0,1,3.05,37a1.42,1.42,0,0,1-.19-.75,2.4,2.4,0,0,0-.17-.7A1.74,1.74,0,0,0,2.17,35L2,34.91a1.43,1.43,0,0,1-.48-.77c0-.12-.05-.26-.07-.4A6,6,0,0,0,1.29,33a3,3,0,0,1-.13-.75,3.58,3.58,0,0,0-.1-.69C1,31.31.93,31,.87,30.77L.8,30.41a1.4,1.4,0,0,1,.13-.92.79.79,0,0,0,0-.09,1.27,1.27,0,0,0,.24-.76c0-.06,0-.18-.33-.38a1.43,1.43,0,0,1-.34-2,.57.57,0,0,0,.16-.39,4.92,4.92,0,0,0-.09-.64,4.37,4.37,0,0,1-.08-.76,6.26,6.26,0,0,0,0-.63,5.8,5.8,0,0,1,0-.8,1.16,1.16,0,0,0-.24-.63,1.4,1.4,0,0,1,.11-1.66,1.41,1.41,0,0,0,.31-.52A1.41,1.41,0,0,1,.9,19.7L1,19.55a1.74,1.74,0,0,0,.42-.66,1.89,1.89,0,0,0,0-.71c0-.12,0-.2,0-.28A1.38,1.38,0,0,1,1.63,17l.1-.14a3,3,0,0,0,.4-.66,1.45,1.45,0,0,0-.06-.76,1.6,1.6,0,0,1,.18-1.19A3.1,3.1,0,0,1,2.43,14a5,5,0,0,0,.33-.51A1.55,1.55,0,0,1,3.12,13l.19-.14a1.73,1.73,0,0,0,.55-.52.59.59,0,0,0,0-.4,1.35,1.35,0,0,1,.22-1.1,1.4,1.4,0,0,1,1-.6c.33,0,.39-.13.42-.18s.12-.39.08-.78a1.42,1.42,0,0,1,.65-1.33,3,3,0,0,0,.6-.45,3.44,3.44,0,0,0,.39-.55,2.67,2.67,0,0,1,.47-.62q.53-.51,1.08-1A3.42,3.42,0,0,1,9.41,5c.16-.09.31-.16.45-.25a1.42,1.42,0,0,1,.75-.21H11a1.28,1.28,0,0,0,.52-.11,1.21,1.21,0,0,0,.36-.49A1.42,1.42,0,0,1,13.2,3.1l.26,0a1.66,1.66,0,0,0,.33,0,.78.78,0,0,0,.28-.05c.2-.09.31-.41.43-.82a1.64,1.64,0,0,1,.79-1l.26-.13L16,1a1.38,1.38,0,0,1,.56-.12,1.42,1.42,0,0,1,.57.12,2,2,0,0,0,.66.16h.15a1.28,1.28,0,0,0,.45-.29,1.42,1.42,0,0,1,1-.38,1.39,1.39,0,0,1,.87.3,1,1,0,0,0,.58.28A2.13,2.13,0,0,0,21.5.81,2.81,2.81,0,0,1,22,.6l.25,0a.77.77,0,0,0,.38-.21,1.42,1.42,0,0,1,1.95.1c.3.31.44.32.5.32a1.56,1.56,0,0,0,.66-.22,1.34,1.34,0,0,1,.67-.17,1.42,1.42,0,0,1,.89.31,1.34,1.34,0,0,0,.61.34h0a.8.8,0,0,0,.48-.17,1.42,1.42,0,0,1,.74-.2,1.39,1.39,0,0,1,1.13.56c.2.25.32.31.41.33h.11a1.66,1.66,0,0,0,.72-.34l.14-.07A1.43,1.43,0,0,1,32.31,1a1.36,1.36,0,0,1,.65.16l.15.07a4.4,4.4,0,0,0,.62.3l.54.18.48.17a1.4,1.4,0,0,1,.82.78c.17.4.28.64.48.75a3.22,3.22,0,0,0,.64.22,2.73,2.73,0,0,1,.65.22,2.69,2.69,0,0,0,.73.3,2.19,2.19,0,0,1,.55.2.82.82,0,0,1,.2.12,1.89,1.89,0,0,0,.63.25,1.7,1.7,0,0,1,1.06.9l-1.29.6,1.33-.5a1.65,1.65,0,0,0,.34.63,1.41,1.41,0,0,1,.38.67,2.29,2.29,0,0,0,.32.6,1,1,0,0,1,.19.27,2,2,0,0,1,.14.34,2.63,2.63,0,0,0,.32.65c.1.13.3.19.76.23a1.4,1.4,0,0,1,1.27,1.07,2.27,2.27,0,0,0,.2.57,5.05,5.05,0,0,1,.3.71c.06.18.11.32.17.46a1.46,1.46,0,0,1,.07.85,1.66,1.66,0,0,0-.06.86c0,.05.07.15.35.28a1.41,1.41,0,0,1,.74.81,1.38,1.38,0,0,1,0,1.09.57.57,0,0,0-.08.41c.06.19.12.38.19.57a4.57,4.57,0,0,1,.22.77c0,.15.18.3.56.54a1.41,1.41,0,0,1,.63,1.52,2.43,2.43,0,0,0-.08.47,1.39,1.39,0,0,1-.27.79L47.1,21a1.37,1.37,0,0,0-.38.74,2,2,0,0,0,.19.67,2.31,2.31,0,0,1,.16.46,1.43,1.43,0,0,1,0,.74l-.07.28c0,.21-.09.42-.11.64l0,.56a5.35,5.35,0,0,1,0,.73,1.36,1.36,0,0,1-.16.53l-.14.22a2,2,0,0,0-.34.67.67.67,0,0,0,.13.45,1.41,1.41,0,0,1-.45,1.9c-.23.15-.28.25-.31.34a4.76,4.76,0,0,0-.11.64,2.78,2.78,0,0,1-.13.73,1.67,1.67,0,0,0,0,.74,1.49,1.49,0,0,1,0,.21,1.46,1.46,0,0,1-.52,1.1,1.69,1.69,0,0,0-.53.54,1.05,1.05,0,0,0,0,.69A1.43,1.43,0,0,1,43.59,36a1.75,1.75,0,0,0-.5.43,2.7,2.7,0,0,0-.27.62,2.82,2.82,0,0,1-.25.59l-.07.11a3.28,3.28,0,0,0-.32.58l-.17.35a1.43,1.43,0,0,1-.73.64l-.14.05a1.76,1.76,0,0,0-.67.35,3.83,3.83,0,0,1-.6.48,4,4,0,0,0-.51.39c-.23.21-.46.39-.69.57l-.41.32a2.77,2.77,0,0,1-.64.34,3,3,0,0,0-.59.3,1.22,1.22,0,0,0-.37.68,1.7,1.7,0,0,1-.6.84l-.27.17a8.13,8.13,0,0,1-.74.47,1.57,1.57,0,0,1-.67.16h-.12a2.34,2.34,0,0,0-.65.15,7.77,7.77,0,0,1-.8.31l-.52.2a1.46,1.46,0,0,0-.54.56l-.08.13a1.38,1.38,0,0,1-.65.52,3.43,3.43,0,0,0-.44.19l-.29.13a1.54,1.54,0,0,1-.55.11,1.4,1.4,0,0,1-.7-.18,1.71,1.71,0,0,0-.71-.27h-.11a.92.92,0,0,0-.43.31,1.42,1.42,0,0,1-1,.45,1.39,1.39,0,0,1-.78-.23.93.93,0,0,0-.5-.2,1.3,1.3,0,0,0-.71.44,1.7,1.7,0,0,1-1,.45l-1.15,0H22l-.59,0Z" style="fill:#cbd872"/><path d="M25.4,23.78a1,1,0,0,1-.35-.05l-.1,0a2.26,2.26,0,0,0-.68-.15,3.13,3.13,0,0,1-.81-.14,3.89,3.89,0,0,0-.55-.12A9.34,9.34,0,0,1,21.58,23a2.05,2.05,0,0,0-.51-.05h-.46a1.41,1.41,0,0,1-.5-.12l-.31-.14a5.64,5.64,0,0,1-.92-.46l-.1-.07a3.07,3.07,0,0,1-.48-.51,3.25,3.25,0,0,0-.4-.44c-.13-.12-.27-.22-.4-.32a4.23,4.23,0,0,1-.68-.59,2.87,2.87,0,0,0-.39-.39,3.35,3.35,0,0,1-.58-.65,1.38,1.38,0,0,1-.22-.71,2.69,2.69,0,0,0-.17-.68,3.33,3.33,0,0,1-.23-.82c0-.17-.07-.34-.12-.51L15,16.24a5.87,5.87,0,0,1-.26-1,3,3,0,0,0-.15-.57,2.3,2.3,0,0,1-.17-.69.49.49,0,0,1,0-.12,4.26,4.26,0,0,1,.13-.86,4.59,4.59,0,0,0,.1-.51,9.68,9.68,0,0,1,.26-1.36A9,9,0,0,1,15.4,9.8a10.43,10.43,0,0,1,.68-1.21,9.88,9.88,0,0,1,.83-1.12,6.49,6.49,0,0,1,.72-.67l.31-.25a4.72,4.72,0,0,0,.41-.48l.21-.29a1.47,1.47,0,0,1,.77-.47l.27,0a2.75,2.75,0,0,0,.67-.16,4.74,4.74,0,0,1,.86-.27l.45-.12a1.7,1.7,0,0,0,.58-.36l.17-.14a1.47,1.47,0,0,1,.7-.27,11.54,11.54,0,0,1,1.2,0h.61a7.81,7.81,0,0,1,.85,0,5.92,5.92,0,0,1,1,.27l.37.11a1.73,1.73,0,0,1,.39.18l.27.21a3,3,0,0,0,.55.36,10.16,10.16,0,0,1,1.22.65,7.91,7.91,0,0,1,.85.68l.22.2a4.61,4.61,0,0,1,.63.69c.09.11.17.22.27.33A2.84,2.84,0,0,0,32,8a2.67,2.67,0,0,1,.43.32,2,2,0,0,1,.22.27,11.13,11.13,0,0,1,.59,1.16,1.34,1.34,0,0,1,.07.18,5,5,0,0,1,.09.6,3,3,0,0,0,.1.6l.08.27a6.42,6.42,0,0,1,.26,1.07,2.53,2.53,0,0,0,.21.6,3.05,3.05,0,0,1,.13.31,1.43,1.43,0,0,1,0,.89l-.13.35a3.09,3.09,0,0,0-.18.59c0,.19,0,.39,0,.58a2.81,2.81,0,0,1-.09.82,3.05,3.05,0,0,1-.37.75,4.91,4.91,0,0,0-.28.5,3.47,3.47,0,0,0-.19.57,2.72,2.72,0,0,1-.26.7,10.62,10.62,0,0,1-.88,1.18A5.86,5.86,0,0,1,31,21l-.37.3a2.78,2.78,0,0,1-.71.43c-.16.09-.33.17-.49.27a4.22,4.22,0,0,0-.46.38,3,3,0,0,1-.58.45l-.14.06a2.6,2.6,0,0,1-.71.15,3.84,3.84,0,0,0-.59.11,1.8,1.8,0,0,0-.58.34A1.7,1.7,0,0,1,25.4,23.78Z" style="fill:#fff"/><path d="M24.26,42a4.62,4.62,0,0,1-.74-.06l-.69-.06H22.6l-.81,0-.39,0a3,3,0,0,1-.76-.19A4.81,4.81,0,0,0,20,41.5c-.48-.06-.94-.15-1.4-.24l-.26,0a3.73,3.73,0,0,0-.47,0,4.2,4.2,0,0,1-.44,0,1.4,1.4,0,0,1-.41-.06A7.53,7.53,0,0,1,16.3,41l-.1,0a4.22,4.22,0,0,0-.45-.18,12.66,12.66,0,0,1-1.33-.56,7.4,7.4,0,0,1-1.22-.79,4.2,4.2,0,0,1-.93-1.13,2.93,2.93,0,0,1-.5-1.38,12.05,12.05,0,0,1,.09-1.54,1.37,1.37,0,0,1,.13-.45s.1-.19.16-.31a2.78,2.78,0,0,0,.29-.65,2.38,2.38,0,0,0,0-.71c0-.16,0-.25,0-.34a1.44,1.44,0,0,1,.33-.89c.06-.08.14-.15.21-.23a2.41,2.41,0,0,0,.48-.58,6,6,0,0,0,.25-.58,3.8,3.8,0,0,1,.37-.79,3.5,3.5,0,0,1,.6-.62c.16-.15.31-.29.45-.44a4.15,4.15,0,0,0,.37-.53,3.46,3.46,0,0,1,.52-.67l.19-.17a10,10,0,0,1,1-.8,1.3,1.3,0,0,1,.53-.22l.24-.06a3.07,3.07,0,0,0,.67-.21A10.86,10.86,0,0,1,20,25.54l.5-.22a5.21,5.21,0,0,1,.87-.34,4.36,4.36,0,0,0,.58-.19,3.39,3.39,0,0,1,.85-.24,12.88,12.88,0,0,1,1.5-.1c.2,0,.42,0,.63,0a5,5,0,0,1,.63-.05h.15a2.78,2.78,0,0,1,.91.29,3,3,0,0,0,.62.25,2.93,2.93,0,0,1,.76.36,2.63,2.63,0,0,0,.57.31,2,2,0,0,0,.73.09h.23a1.47,1.47,0,0,1,1.06.54l.06.09a3,3,0,0,0,.55.57,4,4,0,0,0,.58.31,2.55,2.55,0,0,1,.7.39l.17.15a10.21,10.21,0,0,1,1,.91,4.26,4.26,0,0,1,.5.75,4.27,4.27,0,0,0,.3.51,5,5,0,0,0,.43.5,2.78,2.78,0,0,1,.54.67A12.32,12.32,0,0,1,36,32.33a1.4,1.4,0,0,1,.11.53l0,.34A2.26,2.26,0,0,0,36,34a2.86,2.86,0,0,0,.24.61,3.65,3.65,0,0,1,.27.72,4.85,4.85,0,0,0,.13.68,3.84,3.84,0,0,1,.14.89,3.3,3.3,0,0,1-.38,1.5,4,4,0,0,1-1,1,3.35,3.35,0,0,1-.86.48l-.51.23a2.65,2.65,0,0,1-.75.24,3.68,3.68,0,0,0-.63.17,2.49,2.49,0,0,0-.56.33,2.87,2.87,0,0,1-.53.34.86.86,0,0,1-.21.07,4.36,4.36,0,0,1-.68.12,7.12,7.12,0,0,0-.71.1,2,2,0,0,1-.42,0l-.65,0-.38,0-.4.06c-.35.05-.68.1-1,.13a3.39,3.39,0,0,1-.45,0h-1a2.64,2.64,0,0,0-.68.13,2.54,2.54,0,0,1-.7.14Z" style="fill:#fff"/><path d="M12.94,63a.33.33,0,0,1-.31.15.38.38,0,0,0-.29.12,2.12,2.12,0,0,0-.2.24,1.56,1.56,0,0,0-.09.17,3.57,3.57,0,0,0-.46,1.27c-.11.54-.21,1.19-.29,1.93,0,.12-.05.31-.07.57s-.11,1-.16,1.79c0,.23-.05.53-.08.92l-.06.72c0,.16,0,.42-.06.8s0,.7,0,1c0,.46,0,.71,0,.76a.4.4,0,0,1-.15.22.41.41,0,0,1-.25.08q-.78,0-.84-1.47a21.3,21.3,0,0,1,1-6.11v0a4.35,4.35,0,0,1-.39.68,5.85,5.85,0,0,0-.33.53l-.18.35a2.92,2.92,0,0,1-.29.47.43.43,0,0,1-.31.2.4.4,0,0,1-.33-.2.66.66,0,0,1-.14-.41,5.33,5.33,0,0,1,.73-2A17.42,17.42,0,0,1,11,63.16Q11.85,62,12.3,62a.87.87,0,0,1,.52.16.54.54,0,0,1,.22.46A.57.57,0,0,1,12.94,63Zm7,8.38a.4.4,0,0,1,.19.4.64.64,0,0,1-.51.61l-.85.23a4.08,4.08,0,0,1-.67.14,2.9,2.9,0,0,0-.49.18l-.51.17q-.42.12-1.17.39a12.38,12.38,0,0,1-1.34.43,4.93,4.93,0,0,1-1.22.14c-.57,0-.86-.16-.86-.49a.45.45,0,0,1,.29-.43,2.92,2.92,0,0,1,.61-.21l.49-.12,1-.37a23.66,23.66,0,0,1,2.41-.86,7.21,7.21,0,0,1,2.08-.29A1.44,1.44,0,0,1,20,71.35Zm2.91,3.37a3.1,3.1,0,0,1-.11.88.78.78,0,0,1-.48.51,1.68,1.68,0,0,1-.35.12s-.1,0-.19-.12a1.9,1.9,0,0,1-.2-.22l0-1.46c0-1.55,0-2.84-.09-3.88s-.14-2.06-.28-3.09L21,66.28a17.45,17.45,0,0,0-.53-3.71,1.52,1.52,0,0,0-.73-.19,9.6,9.6,0,0,0-1-.06,1.14,1.14,0,0,0-.66.22.7.7,0,0,0-.29.6.64.64,0,0,0,.06.33l.41,0a2.62,2.62,0,0,0,.37,0l.45,0c.59,0,.89.19.89.57a.55.55,0,0,1-.29.53,2.82,2.82,0,0,1-.84.25l-.51.14a1,1,0,0,0-.39.19.63.63,0,0,0,0,.16c0,.21,0,.52,0,.94s0,.73,0,.93a1.7,1.7,0,0,1,.63.62,2,2,0,0,1,.17.87,1.24,1.24,0,0,1-.1.47s0,.1,0,.19a.86.86,0,0,0,0,.28.52.52,0,0,0,.05.19.69.69,0,0,1,0,.22.33.33,0,0,1-.2.29,2.9,2.9,0,0,1-.52.22,2.65,2.65,0,0,0-.39.15,2.81,2.81,0,0,1-1.44.43c-.39,0-.59-.14-.59-.41a2.08,2.08,0,0,1,.2-.72s0-.14.09-.29a1.14,1.14,0,0,0,.08-.44,3,3,0,0,1,.11-1,1.88,1.88,0,0,1,.32-.54,1.31,1.31,0,0,0,.3-.46,2.22,2.22,0,0,0,.11-.85V66a2.65,2.65,0,0,0,0-.53.44.44,0,0,0-.22-.31l-.36,0-.5,0c-.59,0-.88-.14-.88-.41a.58.58,0,0,1,.34-.54,4,4,0,0,1,.91-.32l.33-.1a.7.7,0,0,0,.33-.17,1,1,0,0,0,.19-.36c.05-.14.07-.23.09-.27l.35-.74c0-.07-.13-.1-.37-.1-.52,0-1,0-1.33,0a1.23,1.23,0,0,0-.74.21.7.7,0,0,0-.18.29,5.6,5.6,0,0,0-.1.76c0,.27,0,.44,0,.51v.43l-.07,1.35c-.06.75-.09,1.32-.1,1.7,0,.53,0,1.32,0,2.36a8.93,8.93,0,0,1-.11,1.62.79.79,0,0,1-.16.1l-.19,0c-.32,0-.56-.22-.69-.67A4.32,4.32,0,0,1,13,69.64c0-.5,0-1.08.08-1.72a7.32,7.32,0,0,1,.22-1.46,4.84,4.84,0,0,0,.18-1c0-.35.06-.59.07-.71s.08-.52.16-1c0-.17.08-.44.13-.81a4.17,4.17,0,0,0,0-.46,2,2,0,0,1,.12-.65q.09-.27.27-.27l.17,0,.16,0a.58.58,0,0,0,.41-.26l.15-.12a.7.7,0,0,1,.26-.15l.17,0a.38.38,0,0,0,.17-.06,11.41,11.41,0,0,1,2-.14h1a8.75,8.75,0,0,1,2,.2,1.48,1.48,0,0,1,1.11.81,3.47,3.47,0,0,1,.29,1c.05.37.1.86.14,1.46l0,.51Q22.87,70.52,22.87,74.72ZM17.42,69.1a1.49,1.49,0,0,0,.25-.69q0-.14-.06-.15a1.31,1.31,0,0,0-.56.4.88.88,0,0,0-.32.57.49.49,0,0,0,.05.2.16.16,0,0,0,.15.1C17.08,69.53,17.25,69.38,17.42,69.1Z" style="fill:#6c6851"/><path d="M29.44,70c.16-.32.26-.5.3-.57q.63-1.17,1.14-2A7.82,7.82,0,0,1,32.1,66a7.47,7.47,0,0,0,1.27-1.52s.18-.33.45-.88l.32-.59a.48.48,0,0,1,.33-.17.69.69,0,0,1,.42.18.51.51,0,0,1,.22.36,3,3,0,0,1-.32,1.22c-.22.45-.49,1-.83,1.52a3.36,3.36,0,0,0-.23.43c0,.13.21.23.65.3s1,.14,1.67.21l.43,0,.47.07a6.38,6.38,0,0,1,1.33.38c.41.18.92.42,1.52.72l.45.22.57.27a15.85,15.85,0,0,1,1.87,1,1.37,1.37,0,0,1,.78,1.09.71.71,0,0,1-.16.49.6.6,0,0,1-.48.19,2,2,0,0,1-.71-.25l-.6-.3c-.52-.24-1.33-.56-2.42-1q-1.26-.44-1.86-.69a7.83,7.83,0,0,0-.9-.29c-.34-.1-.59-.19-.76-.25l-.69-.27a8.88,8.88,0,0,0-1-.32,3.51,3.51,0,0,0-.88-.12.93.93,0,0,0-.7.28,8.63,8.63,0,0,0-.72.93c-.43.6-.8,1.08-1.1,1.43s-.55.53-.76.53a.6.6,0,0,1-.38-.12.43.43,0,0,1-.15-.35A1.83,1.83,0,0,1,29.44,70Z" style="fill:#6c6851"/></g></g></svg>