<svg xmlns="http://www.w3.org/2000/svg" xmlns:xlink="http://www.w3.org/1999/xlink" width="529.15" height="539.95" viewBox="0 0 529.15 539.95"><defs><linearGradient id="未命名漸層_60" x1="0.16" y1="269.98" x2="528.99" y2="269.98" gradientUnits="userSpaceOnUse"><stop offset="0" stop-color="#ffef75"/><stop offset="0.43" stop-color="#ffef75"/><stop offset="0.5" stop-color="#ffef75"/><stop offset="1" stop-color="#ffef75"/></linearGradient></defs><title>User</title><g id="圖層_2" data-name="圖層 2"><g id="圖層_1-2" data-name="圖層 1"><circle cx="264.58" cy="269.98" r="264.42" style="fill:url(#未命名漸層_60)"/><path d="M529,270A259.69,259.69,0,0,1,511.4,372.21,263.35,263.35,0,0,1,454.6,460a265.26,265.26,0,0,1-190,79.94,268.83,268.83,0,0,1-103.22-20.79A264.61,264.61,0,0,1,17.74,372.22,259.55,259.55,0,0,1,.16,270L.9,282.93l1.37,12.89c.55,4.27,1.27,8.53,1.9,12.79s1.68,8.45,2.5,12.67a261,261,0,0,0,16.1,48.85,267.08,267.08,0,0,0,57.9,83.75,264.42,264.42,0,0,0,84.72,55.55,263.25,263.25,0,0,0,198.37,0A265.1,265.1,0,0,0,506.39,370.14a261.13,261.13,0,0,0,16.1-48.86c.82-4.22,1.79-8.42,2.5-12.67s1.34-8.52,1.89-12.79l1.37-12.89Z" style="fill:#edda6e"/><path d="M.16,270A259.73,259.73,0,0,1,17.75,167.74,264.72,264.72,0,0,1,161.37,20.81a266.47,266.47,0,0,1,206.42,0A264.69,264.69,0,0,1,511.41,167.73,259.63,259.63,0,0,1,529,270l-.74-13-1.37-12.88c-.55-4.28-1.27-8.54-1.9-12.8s-1.68-8.45-2.5-12.67a261,261,0,0,0-16.1-48.85,267.2,267.2,0,0,0-57.9-83.75,264.42,264.42,0,0,0-84.72-55.55,263.31,263.31,0,0,0-198.37,0A264.35,264.35,0,0,0,80.66,86.06a267.08,267.08,0,0,0-57.9,83.76,261,261,0,0,0-16.1,48.85c-.82,4.22-1.79,8.42-2.5,12.67s-1.34,8.52-1.89,12.8L.9,257Z" style="fill:#edda6e"/><circle cx="264.58" cy="269.98" r="202.6" style="fill:#00b68b"/><path d="M62,270a202.6,202.6,0,1,1,405.19,0A203.22,203.22,0,0,0,341.63,84a203.22,203.22,0,0,0-154.11,0A203.26,203.26,0,0,0,62,270Z" style="fill:#a3964b"/><path d="M467.17,270A200.26,200.26,0,0,1,453,348a204.4,204.4,0,0,1-43.69,66.71,201.62,201.62,0,0,1-66.26,44.77,202.46,202.46,0,0,1-157,0,201.63,201.63,0,0,1-66.27-44.76A204.58,204.58,0,0,1,76.12,348,200.3,200.3,0,0,1,62,270c.92,53.09,23.22,105,60.85,141.74A204.88,204.88,0,0,0,188,454.84a203.43,203.43,0,0,0,153.14,0,205,205,0,0,0,65.18-43.11C444,375,466.26,323.08,467.17,270Z" style="fill:#9b8f48"/><path d="M210.4,11.12A264.79,264.79,0,0,0,8.25,204.85,146.28,146.28,0,1,0,210.4,11.12Z" style="fill:#fff;opacity:0.1"/><path d="M.16,270q0,3.38.08,6.75C26.2,372.54,113.71,443,217.73,443c124.47,0,225.36-100.9,225.36-225.37,0-95.33-59.23-176.79-142.88-209.71a266.74,266.74,0,0,0-35.63-2.4C118.54,5.56.16,123.94.16,270Z" style="fill:#fff;opacity:0.1"/><path d="M168.34,155.68a69.76,69.76,0,0,1-54.4-54.4,1.4,1.4,0,0,0-2.76,0,69.75,69.75,0,0,1-54.4,54.4,1.4,1.4,0,0,0,0,2.76,69.75,69.75,0,0,1,54.4,54.4,1.4,1.4,0,0,0,2.76,0,69.76,69.76,0,0,1,54.4-54.4A1.4,1.4,0,0,0,168.34,155.68Z" style="fill:#fff"/><path d="M466.45,385.47a47,47,0,0,1-36.64-36.64,1,1,0,0,0-1.87,0,47,47,0,0,1-36.64,36.64,1,1,0,0,0,0,1.87A47,47,0,0,1,427.94,424a1,1,0,0,0,1.87,0,47,47,0,0,1,36.64-36.64A1,1,0,0,0,466.45,385.47Z" style="fill:#fff"/><g style="opacity:0.77"><path d="M323.9,327.08H236.6a5.73,5.73,0,0,1,0-11.46h81.53c-1.56-18.95-16.93-40.24-35.78-40.24h-2.29a5.73,5.73,0,0,1-2.29-11,30.85,30.85,0,0,0,18.55-28.28,30.53,30.53,0,0,0-3.21-13.72,5.73,5.73,0,0,1,10.26-5.11,41.86,41.86,0,0,1,4.41,18.83,42.29,42.29,0,0,1-12.61,30.12c20.21,7.43,34.56,31.4,34.56,52.52,0,.9,0,1.87-.1,3A5.74,5.74,0,0,1,323.9,327.08Z" style="fill:#fff"/><path d="M217,327.08H205.25a5.73,5.73,0,0,1-5.73-5.39c-.06-1.13-.1-2.07-.1-2.94,0-11.06,3.91-23.11,10.72-33.07a59.55,59.55,0,0,1,6.34-7.78c.87-.89,1.75-1.75,2.65-2.55a49.3,49.3,0,0,1,7-5.29,41.63,41.63,0,0,1,9.17-4.3,42.31,42.31,0,0,1,48.12-68,5.73,5.73,0,0,1-4.87,10.38,30.48,30.48,0,0,0-13.08-2.91,30.85,30.85,0,0,0-12.3,59.13,5.73,5.73,0,0,1-2.29,11H246.8a27.57,27.57,0,0,0-14.62,4.42,38.24,38.24,0,0,0-5.38,4.07c-.7.63-1.41,1.31-2.09,2a47.89,47.89,0,0,0-5.11,6.28A49.57,49.57,0,0,0,211,315.62h6a5.73,5.73,0,1,1,0,11.46Z" style="fill:#fff"/><path d="M264.58,391.34a122.35,122.35,0,0,1-70.31-222.47,8.6,8.6,0,1,1,9.89,14.07,105.18,105.18,0,0,0,85.36,188.23,8.6,8.6,0,0,1,4.06,16.71A123.17,123.17,0,0,1,264.58,391.34Z" style="fill:#fff"/><path d="M322,375.81a8.6,8.6,0,0,1-4.36-16,104.87,104.87,0,0,0,13-9,8.6,8.6,0,0,1,10.82,13.37,123.77,123.77,0,0,1-15.15,10.48A8.59,8.59,0,0,1,322,375.81Z" style="fill:#fff"/><path d="M358.47,341.8a8.59,8.59,0,0,1-7.09-13.46,105.17,105.17,0,0,0-67.2-162.66,8.6,8.6,0,0,1,3.18-16.9,122.38,122.38,0,0,1,78.21,189.28A8.57,8.57,0,0,1,358.47,341.8Z" style="fill:#fff"/><path d="M199.22,184.5a8.6,8.6,0,0,1-4.95-15.63,120.9,120.9,0,0,1,47.6-20.1,8.6,8.6,0,1,1,3.17,16.9,103.79,103.79,0,0,0-40.88,17.27A8.6,8.6,0,0,1,199.22,184.5Z" style="fill:#fff"/></g></g></g></svg>