<svg xmlns="http://www.w3.org/2000/svg" width="958.24" height="275.6" viewBox="0 0 958.24 275.6"><title>wave</title><g id="圖層_2" data-name="圖層 2"><g id="圖層_1-2" data-name="圖層 1"><path d="M0,255.6C132.31,255.6,239.56,148.35,239.56,16c0,132.31,107.26,239.56,239.56,239.56S718.68,148.35,718.68,16c0,132.31,107.26,239.56,239.56,239.56" style="fill:#b8f4f1"/><path d="M0,255.6a249.34,249.34,0,0,0,89.56-23.33,238.8,238.8,0,0,0,72.92-53.75,233.55,233.55,0,0,0,46.78-75.81A233.51,233.51,0,0,0,220.79,60,235.39,235.39,0,0,0,223.89,16h31.34a225.66,225.66,0,0,0,5.33,43.5A225.22,225.22,0,0,0,274,101a226.09,226.09,0,0,0,49.1,71.07A225,225,0,0,0,395,219.17a223.09,223.09,0,0,0,84.13,16.44A224,224,0,0,0,522,231.45a219.14,219.14,0,0,0,41.25-12.31A224.47,224.47,0,0,0,635.1,172,225.56,225.56,0,0,0,684.18,101a222.85,222.85,0,0,0,13.44-41.44A226.35,226.35,0,0,0,703,16h31.45A236.19,236.19,0,0,0,737.51,60,232.61,232.61,0,0,0,749,102.69a231.28,231.28,0,0,0,19.64,40,232.52,232.52,0,0,0,27.12,35.81,238.67,238.67,0,0,0,72.89,53.75,249.53,249.53,0,0,0,89.55,23.36,230.62,230.62,0,0,1-93.82-13.06,238.17,238.17,0,0,1-43.62-20.8,245.54,245.54,0,0,1-38.9-29.35,248.73,248.73,0,0,1-32.48-36.81,247,247,0,0,1-24.67-42.82A243.6,243.6,0,0,1,709,65.6,249.34,249.34,0,0,1,703,16a15.72,15.72,0,1,1,31.44-.64h0V16a259.12,259.12,0,0,1-3.85,50,252.72,252.72,0,0,1-13.8,48.44,254.55,254.55,0,0,1-54.83,84.37,255.21,255.21,0,0,1-132.2,71.72,256.87,256.87,0,0,1-101.22,0,256.5,256.5,0,0,1-48.63-14.94,255.54,255.54,0,0,1-83.53-56.8,254.48,254.48,0,0,1-54.82-84.36A251.14,251.14,0,0,1,227.75,66a258.23,258.23,0,0,1-3.86-50v-.62a15.67,15.67,0,1,1,31.33.62h0a249.24,249.24,0,0,1-6.08,49.55,243.5,243.5,0,0,1-15.71,47.15,245.9,245.9,0,0,1-24.66,42.81,248.59,248.59,0,0,1-32.47,36.8,245.07,245.07,0,0,1-38.89,29.36,238.08,238.08,0,0,1-43.61,20.8A230.55,230.55,0,0,1,0,255.6Z" style="fill:#f3fffc"/></g></g></svg>