<svg xmlns="http://www.w3.org/2000/svg" width="10.61mm" height="14.64mm" viewBox="0 0 30.07 41.51"><title>youth</title><g id="圖層_2" data-name="圖層 2"><g id="圖層_1-2" data-name="圖層 1"><path d="M11,34.44a1.4,1.4,0,0,1,.05-.53.37.37,0,0,1,.23-.06.26.26,0,0,1,.25.15.86.86,0,0,1,.07.36,2,2,0,0,1,0,.37,2,2,0,0,0,0,.36c0,.07,0,.12,0,.14l.07,0a2.24,2.24,0,0,0,.37,0,1.94,1.94,0,0,1,.36,0,.57.57,0,0,1,.29.07.24.24,0,0,1,.12.22.35.35,0,0,1-.2.32A2.67,2.67,0,0,1,12,36l-.31.09c-.07,0-.1.06-.1.11a.64.64,0,0,0,0,.15.53.53,0,0,1,0,.16,1.74,1.74,0,0,1-.06.45,1.18,1.18,0,0,1-.19.39.55.55,0,0,0-.11.16,6.78,6.78,0,0,0,1.33.12l.57,0h.57a1.66,1.66,0,0,1,.54.08.31.31,0,0,1,.21.33.32.32,0,0,1-.09.21,9.33,9.33,0,0,1-2.16.11h-1.1a7.51,7.51,0,0,1-1.27-.05.53.53,0,0,1-.25-.15.32.32,0,0,1-.1-.25.24.24,0,0,1,.1-.21,1.29,1.29,0,0,1,.32-.13,3.48,3.48,0,0,0,.41-.18.69.69,0,0,0,.26-.25,1,1,0,0,0,.22-.59.48.48,0,0,0,0-.18l-.07,0a2.67,2.67,0,0,0-.57.09,2.43,2.43,0,0,1-.58.1.56.56,0,0,1-.22-.06l-.2-.06c0,.26,0,.6,0,1,0,.77,0,1.37,0,1.83a2,2,0,0,1-.12.83.44.44,0,0,1-.12.15.21.21,0,0,1-.16.07c-.17,0-.26-.18-.26-.53V38.55A6.91,6.91,0,0,0,8.34,37h0a.27.27,0,0,0-.14.05.34.34,0,0,0-.12.12,4,4,0,0,0-.18.72c-.07.29-.11.43-.1.41-.14.49-.3,1-.5,1.51a1.08,1.08,0,0,1-.19.31.39.39,0,0,1-.3.13s-.09,0-.12-.1a.45.45,0,0,1,0-.19,1.64,1.64,0,0,1,.1-.54c.07-.2.17-.45.31-.75s.22-.54.29-.73a1.72,1.72,0,0,0,.09-.51h0l-.05,0a.56.56,0,0,0-.37.19l-.1.08a.19.19,0,0,1-.14,0c-.13,0-.19-.06-.19-.2a.48.48,0,0,1,.3-.41,4.46,4.46,0,0,1,.83-.37l.48-.2a.54.54,0,0,0,.21-.15.52.52,0,0,0,.06-.3v-.25c0-.07,0-.16,0-.28s0-.17-.05-.17a1.69,1.69,0,0,0-.22.26,2.62,2.62,0,0,1-.48.46,1,1,0,0,1-.62.21.41.41,0,0,1-.3-.11.37.37,0,0,1-.11-.29,2.8,2.8,0,0,1,.14-.6,5.19,5.19,0,0,1,.32-.82c.13-.24.23-.36.33-.36a.75.75,0,0,1,.21,0c.06,0,.1,0,.1.09a.49.49,0,0,1-.07.23l-.08.19q-.12.24-.18.39a.89.89,0,0,0-.06.31c0,.1,0,.15.13.15a.52.52,0,0,0,.41-.21,3.69,3.69,0,0,0,.37-.58l.2-.34a.19.19,0,0,1,.15-.1c.12,0,.2.09.23.28a6.08,6.08,0,0,1,.08.82c0,.23,0,.4,0,.52s0,.19.09.22a2.26,2.26,0,0,1,.34-.24,2.15,2.15,0,0,1,.57-.15l.7-.18a.37.37,0,0,0,.28-.24A1,1,0,0,0,11,35Z" style="fill:#fff"/><path d="M20.41,41.4A5.63,5.63,0,0,1,20.33,40V39a4.23,4.23,0,0,0-.06-1.09.56.56,0,0,0-.17,0A8.87,8.87,0,0,0,19,38a8.52,8.52,0,0,0-1.07.23l0,0h-.07c-.18-.11-.28-.22-.28-.35a.42.42,0,0,1,.29-.38,5.54,5.54,0,0,1,.8-.25l.2,0,.22-.07.11-.07a2.36,2.36,0,0,0,.12-.26.85.85,0,0,0,.07-.28.11.11,0,0,0-.05-.1l-.12,0-.1,0a.34.34,0,0,1-.2-.1.77.77,0,0,1-.07-.16c0-.06,0-.1-.05-.11a.59.59,0,0,0-.2,0,.77.77,0,0,1-.26-.06c-.07,0-.1-.06-.1-.11s.1-.31.3-.88l.53-1.5.08-.25a.2.2,0,0,1,.14,0,.37.37,0,0,1,.31.22,1.28,1.28,0,0,1,.18.43.33.33,0,0,0,.05.16.22.22,0,0,0,.16,0,.94.94,0,0,0,.31-.08,2.1,2.1,0,0,1,.41-.07,3.94,3.94,0,0,1,.46,0c.58,0,.87.1.87.32s0,.27-.07.31a.58.58,0,0,1-.26.11,1.28,1.28,0,0,0-.28.07c0,.06-.05.14-.08.24a1.33,1.33,0,0,0-.05.21.21.21,0,0,0,.06.17l.11,0a1.37,1.37,0,0,1,.33,0c.07,0,.1.1.1.21s0,.14-.05.16a.45.45,0,0,1-.16.09.69.69,0,0,0-.24.14.52.52,0,0,0-.08.34,2.55,2.55,0,0,0,0,.63l.06,0h.52l.37,0c.41,0,.71-.05.91-.05a1.32,1.32,0,0,1,.47.08.29.29,0,0,1,.19.31.35.35,0,0,1-.17.33.76.76,0,0,1-.41.11h-.83c-.66,0-1,0-1.09.12a.66.66,0,0,0-.07.38c0,.32,0,.81-.1,1.48A7.36,7.36,0,0,1,21,40.92a.32.32,0,0,0,0,.16.88.88,0,0,1,0,.33c0,.07-.1.1-.24.1A.38.38,0,0,1,20.41,41.4Zm-.75-5.79.36-.1a.6.6,0,0,0,.37-.2.59.59,0,0,0,.09-.29c0-.12,0-.22,0-.28a.27.27,0,0,1,0-.11h-.84a3.66,3.66,0,0,0-.32.49,3.05,3.05,0,0,0-.26.46s0,0,.07,0h.13A1.56,1.56,0,0,0,19.66,35.61ZM20.22,37a.15.15,0,0,0,.16-.1.64.64,0,0,0,0-.24.71.71,0,0,0,0-.2c0-.07,0-.1-.09-.1s-.11.06-.15.19a1.1,1.1,0,0,0-.06.31C20.1,36.92,20.14,37,20.22,37Z" style="fill:#fff"/><path d="M25,11.24c.16.17.18.47.34.65l.48.53c.15.17.35.32.51.49l.51.5c.17.17.28.35.46.5-.08.19-.22.26-.4.37a.59.59,0,0,1-.47.08,3.4,3.4,0,0,0-.57-.64c-.2-.22-.48-.36-.67-.57a3.87,3.87,0,0,1-.6-.45c-.14-.15-.16-.48-.36-.68s-.34-.32-.53-.51-.38-.3-.56-.48-.22-.46-.4-.64-.42-.27-.6-.45-.39-.3-.57-.48S21.18,9.15,21,9s-.3-.39-.47-.56-.31-.39-.49-.56-.42-.28-.59-.46-.26-.45-.43-.62-.34-.37-.51-.54-.46-.25-.63-.43-.16-.54-.32-.71-.39-.33-.56-.49-.41-.32-.57-.48-.38-.37-.52-.52a1.85,1.85,0,0,1-.36-.6c-.11-.32-.29-.58-.21-.83.13-.44.09-.61.51-.7s.13.23.42.55c.14.15.44.2.62.39s.22.41.39.59.25.4.42.58.43.23.6.4.15.5.31.67.47.2.63.38l.49.5c.16.17.24.42.4.59s.33.33.49.51.28.38.44.55.31.37.47.54l.49.51c.16.18.42.26.58.43s.2.46.35.63.43.26.58.43.31.38.46.54.28.42.41.56A3.48,3.48,0,0,0,25,11.24Z" style="fill:#fff"/><path d="M18.05,14.68c.12.22.26.43.38.66s.23.45.36.66.25.45.39.66.29.38.44.58a.83.83,0,0,1-.92.35,4,4,0,0,0-.25-.74c-.13-.22-.35-.39-.47-.6s-.14-.36-.3-.65-.23-.39-.35-.61-.24-.41-.36-.62-.2-.45-.31-.65l-.34-.63c-.16-.29-.25-.52-.32-.63-.05-.38,0-.56.34-.34a3.12,3.12,0,0,1,.49.59,6,6,0,0,1,.47.61c.13.2.29.4.43.65S17.92,14.43,18.05,14.68Z" style="fill:#fff"/><path d="M7.42,1.9c0-.2,0-.4,0-.6s0-.4,0-.6h0l-.72,0a1.71,1.71,0,0,1,0,.31s0,0,0,0-.1,0-.23,0-.32.06-.24.43c0,0,.05,0,.09,0s.25,0,.34.12a.41.41,0,0,1-.35.62,5.85,5.85,0,0,1-.62,0,3.11,3.11,0,0,1-.61,0A1.37,1.37,0,0,1,4.42,2a.59.59,0,0,1-.19-.52,4.52,4.52,0,0,1,.2-1L4,.4c0,.23,0,.48-.08.71s0,.46-.07.7c0,.45,0,.61.5.72a4.17,4.17,0,0,0,.79,0H6a4,4,0,0,0,.84,0C7.27,2.47,7.38,2.33,7.42,1.9Z" style="fill:#fff"/><path d="M3.94,11.94c0,.15.29.3.59.41a2.54,2.54,0,0,0,.71.17c.32,0,.61,0,.69-.17A1.34,1.34,0,0,0,6,11.82c0-.2,0-.4,0-.54a1.93,1.93,0,0,0,0-1c-.13-.24-.25-.18-.51-.21S5.2,10,5.06,10s-.59,0-.89-.06h0c0,.33,0,.67-.09,1A3.71,3.71,0,0,0,3.94,11.94Z" style="fill:#fff"/><path d="M4.49.47l.7.06.69.08c.23,0,.48,0,.71,0,0,.44-.72.09-.9.37s.11.43.3.52.67.13.46.37A.7.7,0,0,1,6,2.1a5.26,5.26,0,0,1-.55,0A1.59,1.59,0,0,1,4.67,2a.54.54,0,0,1-.29-.64A3.12,3.12,0,0,0,4.49.47Z" style="fill:#fff"/><path d="M29.68,16.88a4,4,0,0,0-.33-.57c-.11-.19-.09-.48-.22-.66s-.39-.26-.53-.44-.24-.27-.35-.42-.17-.33-.27-.49-.16-.32-.29-.51-.23-.3-.4-.25c.06.08,0,.22.09.3s.18-.19.17-.1a.9.9,0,0,1-.45.72,1.46,1.46,0,0,1-.89.18c-.05,0-.05-.09-.05-.11l-.07-.06c0,.16.11.3.24.48a4.72,4.72,0,0,1,.28.52,6.54,6.54,0,0,1,.52.69,1.78,1.78,0,0,1,.22.79c0,.31.07.62-.15.78s-.55.06-.83.11a3.75,3.75,0,0,1-.78.08l-.76,0c-.23,0-.48.13-.75.13s-.49-.09-.76-.09-.5.19-.76.19S22.05,18,21.8,18s-.51,0-.76,0-.56.06-.81.05c-.13-.24-.12-.61-.22-.84s-.13-.34-.22-.54-.22-.5-.37-.57c0,0-.08.24-.08.28s.11,0,.1.06a1.4,1.4,0,0,1-.55.71,1,1,0,0,1-.89.12c-.09,0,.14-.17.21-.18S18,16.79,18,16.7c-.12.12-.06.37,0,.58s.3.35.36.46a3,3,0,0,0,0,.67,2.85,2.85,0,0,0,.29.58.6.6,0,0,0,.43.36,1.56,1.56,0,0,0,.69.23l.72,0c.22,0,.47-.19.72-.18s.46.13.71.14.47-.06.71-.05.48.08.72.09.47.15.71.15.49-.17.72-.16.49.09.72.09.5.16.72.16.52,0,.72,0c.43,0,.7-.11.69-.15a2.42,2.42,0,0,0,.68-.17,3.81,3.81,0,0,0,.67-.24c.21-.11.33-.34.5-.49s.48-.28.54-.51a1.66,1.66,0,0,0,.05-.77C30,17.31,29.78,17.1,29.68,16.88Z" style="fill:#fff"/><path d="M16,8.48c-.06-.17-.1-.43-.17-.73s-.06-.48-.1-.75-.08-.49-.11-.75-.07-.5-.1-.75,0-.52,0-.76,0-.52,0-.76-.08-.54-.06-.77a2.49,2.49,0,0,1,.24-.73l-.82.23L14,2.87h-.05c0,.22-.06.45-.09.68s0,.46,0,.68,0,.46-.05.69,0,.46,0,.68-.08.46-.07.69.12.45.14.67a4.44,4.44,0,0,0,.12.67,3.37,3.37,0,0,0,.1.67,1.08,1.08,0,0,0,.38.56,1.33,1.33,0,0,0,.62.23,1.13,1.13,0,0,0,.64-.1A.49.49,0,0,0,16,8.48Z" style="fill:#fff"/><path d="M8.69.78c-.18,0-.37-.1-.55-.1s-.4,0-.58,0a4.21,4.21,0,0,1,.16.61c0,.19,0,.39,0,.59a2.07,2.07,0,0,1-.17.61c.26,0,.53,0,.79,0s.5-.09.76-.09.5-.06.75-.06.52.13.77.12.5-.17.75-.19.52.1.77.07.43-.12.65-.16a6.17,6.17,0,0,0,.65-.17c.22,0,.46,0,.67-.08s.41-.18.63-.25a4.75,4.75,0,0,0,1-.25.21.21,0,0,0,0-.06s0-.09,0-.11l0,.05A1.12,1.12,0,0,0,16.08.7C16.09.46,16,.18,16,0c-.23.06-.48.22-.72.27s-.49,0-.74.07-.47.12-.72.16l-.73.08c-.25,0-.49,0-.74.05s-.49,0-.74,0-.49.07-.73.08l-.74.05c-.24,0-.49-.09-.74-.09S8.93.78,8.69.78Z" style="fill:#fff"/><path d="M3.63,1.73c0-.22.06-.45.09-.67S3.8.62,3.86.4L3.15.33C2.91.3,2.68.24,2.44.21L1.74.1h0a7.72,7.72,0,0,1,.06.83c0,.36,0,.59.37.79A4,4,0,0,0,2.86,2c.24.08.48.15.74.21A3.18,3.18,0,0,1,3.63,1.73Z" style="fill:#fff"/><path d="M1.63,1.54a4.48,4.48,0,0,0-.34.53L1,2.71c-.08.21-.19.42-.28.64S.57,3.79.5,4s-.13.44-.2.67-.15.45-.2.68,0,.47-.07.7a4.09,4.09,0,0,0,0,.7,4.21,4.21,0,0,0,0,.7,1.78,1.78,0,0,0,.24.66,1,1,0,0,0,.52.43,1.62,1.62,0,0,0,.75.09,2.63,2.63,0,0,1-.22-.77c0-.24-.08-.49-.09-.75s0-.51,0-.76,0-.53.05-.76a3.11,3.11,0,0,1,.22-.72c.09-.23.07-.5.15-.75s.19-.47.27-.7.28-.44.38-.67.21-.49.32-.71A5,5,0,0,1,2,1.76C1.76,1.61,1.66,1.69,1.63,1.54Z" style="fill:#fff"/><path d="M0,10a.65.65,0,0,0,.21.64,2.75,2.75,0,0,0,.6.41c.23.12.47.22.7.32l.72.27c.24.08.49.14.74.21s.49.15.74.21a4.09,4.09,0,0,1,0-.47c0-.27.05-.53.08-.79s.09-.53.15-.79c-.22,0-.44-.06-.66-.11s-.43-.09-.64-.15-.41-.19-.62-.26-.43-.11-.63-.2S1.07,9,.87,8.9a6.36,6.36,0,0,1-.59-.28c-.05.22-.11.43-.16.66S.06,9.73,0,10Z" style="fill:#fff"/><path d="M15.48,9.47c-.23,0-.46.2-.7.25s-.47.07-.7.11-.48,0-.72,0-.45.15-.69.18l-.7.11-.71.07c-.24,0-.48,0-.71,0s-.48.06-.71.07l-.71,0-.72,0c-.23,0-.47.08-.71.07s-.48,0-.72,0-.47-.13-.71-.15a4.3,4.3,0,0,1,.08.78c0,.29-.23.56-.26.85,0,.11.12.27.1.44.24,0,.45,0,.69.06s.48.09.72.1.49-.17.73-.17H9c.24,0,.49.09.73.08l.72,0c.24,0,.48,0,.72,0l.72-.06.71-.07c.24,0,.49,0,.72,0s.47-.13.71-.16.46-.17.69-.22.49,0,.72-.06l.71-.13c0-.27-.07-.54-.1-.81s0-.59,0-.86S15.64,9.62,15.48,9.47Z" style="fill:#fff"/></g></g></svg>